<svg xmlns="http://www.w3.org/2000/svg" width="269.315" height="229.304" viewBox="0 0 269.315 229.304">
  <g id="Group_333" data-name="Group 333" transform="translate(0 0)">
    <g id="Group_325" data-name="Group 325" transform="translate(0 21.929)">
      <g id="Group_324" data-name="Group 324">
        <path id="Path_12973" data-name="Path 12973" d="M-1430.333,2135.73c5.279-5.252,11.091-4.567,21.785-12.354a13.406,13.406,0,0,0,5-6.089,13.986,13.986,0,0,0-.127-8.973c-2.532-8.852,12.523-37.377,39.414-56.059,22.42-15.576,47.18-20.22,63.126-19.887a250.948,250.948,0,0,1,34.1,3.844c7.842,1.394,11.763,2.09,13.941,2.868,27.6,9.847,42.965,52.209,33.7,63.243-1.234,1.471-1.767,3.835-3.157,5.417-3.452,3.927-8.652,7.171-12.523,10.607-8.6,7.635-12.576,15.922-10.592,28.211l-.592,5.6,1.171-3.8c.98,6.885,1.1,12.946,8.24,15.172,3.181.992,6.089,1.453,7.212,5.036.858,2.74.284,4.936-1.143,6.079-1.6,1.28-4.154.536-5.334.234a28.589,28.589,0,0,0-9.439-.664c-1.427.6-4.662.841-10.376,2.365-3.648.974-4.64,1.49-6.265.974-1.324-.421-2.406-1.318-5.234-5.593-3.021-4.566-3.349-5.907-5-8.227a28.161,28.161,0,0,0-7.585-7.01c-7.859-5.787-8.728-18.229-11.909-26.974-6.279-17.262-24.564-28.36-37.383-31.742-10.5-2.771-20.531-1.207-28.04.984a33.231,33.231,0,0,1,10.066.061,37.859,37.859,0,0,1,11.13,3.878c3.4,1.757,8.277,4.274,11.866,9.216,6.43,8.854,4.472,19.628,4.234,20.838-1.574,7.981-6.7,14.075-13.174,21.783-4.483,5.336-8.574,9.06-7.582,10.643.669,1.067,3.062.227,11.88.439,3.046.073,4.558.216,5.984,1.291,1.957,1.475,2.646,3.871,3.143,5.6.7,2.448,1.135,3.845.474,4.994-.48.832-1.712,2-12.679,2.029-5.783.013-5.939-.312-10.593-.128-2.676.1-4.237.275-7.221.215-.6-.012-3.334-.076-6.656-.47-8.975-1.066-13.462-1.6-16.681-4.178-3.5-2.805-6.5-8.028-8.048-12.272-.666-1.821-.83-2.811-1.876-3.594-4.13-3.094-15.307,2.085-15.373,6.649-.027,1.892,3.281,4.473,9.9,9.635a27.013,27.013,0,0,0,3.495,2.637c16.411,5.921,29.855,10.109,38.805,12.767,12.218,3.626,37.081,10.643,60.014,24.584,5.344,3.248,12.059,7.769,11.931,13.695a10.722,10.722,0,0,1-7.5,9.519c-2.744.7-4.489-.5-12.223-4.423-4.4-2.233-9.046-4.394-18.335-8.717-8.945-4.164-11.134-4.8-12.14-5.071a48.537,48.537,0,0,0-14.87-1.587c-8.7.188-20.153-5.376-43.062-16.507-28.041-13.623-23.986-15-37.766-21.456a28.067,28.067,0,0,1-10.906-8.365,27.687,27.687,0,0,1-4.471-9.144C-1437.727,2155.86-1437.749,2143.108-1430.333,2135.73Z" transform="translate(1436.823 -2032.351)" fill="#e2a460"/>
      </g>
    </g>
    <g id="Group_327" data-name="Group 327" transform="translate(73.445 83.915)">
      <g id="Group_326" data-name="Group 326" transform="translate(0)">
        <path id="Path_12974" data-name="Path 12974" d="M-1301.551,2124.9c-2.2-14-.786-16.642-3.072-21.445-6.073-12.758-26.392-14.43-34.06-15.147-19.4-1.812-35.756,4.6-35.663,5.1.056.291,5.731-1.722,13.261-1.244,9.953.631,29.968,6.044,34.774,23.183,3.479,12.409-2.183,26.8-14.172,35.689a79.392,79.392,0,0,0,19.536.073,80.584,80.584,0,0,0,23.682-6.651A165.878,165.878,0,0,1-1301.551,2124.9Z" transform="translate(1374.346 -2087.986)" fill="#3f5146"/>
      </g>
    </g>
    <g id="Group_329" data-name="Group 329" transform="translate(183.744 2.396)">
      <g id="Group_328" data-name="Group 328" transform="translate(0)">
        <path id="Path_12975" data-name="Path 12975" d="M-1477.652,2029.734c-.5-1.662-1.178-3.532-.319-5.038.272-.477.679-.866.948-1.343a2.89,2.89,0,0,0-1.666-4.016,8.646,8.646,0,0,1,5.938-1.872,25.644,25.644,0,0,1,6.239,1.214l5.251,1.481a40.329,40.329,0,0,1,13.6-2.107l2.34-1.1a22.488,22.488,0,0,1,4.908-1.862,15.99,15.99,0,0,1,4.513-.2,27.711,27.711,0,0,1,14.951,5.9c3.275.744,6.123,1.581,8.476,2.36a15.233,15.233,0,0,1,5.379-3.9,10.342,10.342,0,0,1,4.756-1.035,7.362,7.362,0,0,1,6.7,7.2c-.072,4.725-4.706,8.44-4.822,13.164l2.115,5.738c1.907,9.786,3.547,20.953-2.179,28.972-2.158,3.021-5.162,5.239-8.138,7.361-5.3,3.777-10.886,7.651-13.994,13.526-2.223,4.2-1.973,5.538-4.673,8.086-.6.562-6.185,5.7-11.008,3.521a7.84,7.84,0,0,1-3.729-4.107c-1.413-1.09-3.062-2.409-4.881-3.954l1.4,2.4a17.3,17.3,0,0,1-2.608-3.439c-2.551-2.221-5.386-4.858-8.348-7.923-1.847-1.912-3.621-3.747-5.3-5.534a43.812,43.812,0,0,1-13.852-12.993c-3.2-4.964-3.462-10.4-2.853-15.766a43.983,43.983,0,0,1,1.732-17.582A21.634,21.634,0,0,0-1477.652,2029.734Z" transform="translate(1478.778 -2014.819)" fill="#e2a460"/>
      </g>
    </g>
    <g id="Group_331" data-name="Group 331" transform="translate(249.493 18.771)">
      <path id="Path_12976" data-name="Path 12976" d="M-1463.111,2051.34c-3.028,3.49-9.24-12.448-10.024-14.692-.772-2.214-2.968-5.375.372-6.271,3.9-1.046,6.279,6.16,6.538,8.97" transform="translate(1475.796 -2029.43)" fill="#f7e2c4"/>
      <g id="Group_330" data-name="Group 330" transform="translate(0)">
        <path id="Path_12977" data-name="Path 12977" d="M-1471.707,2038.441l-.011-.037c-.018-.063-.034-.128-.046-.193Z" transform="translate(1481.279 -2028.524)" fill="#f7e2c4"/>
        <path id="Path_12978" data-name="Path 12978" d="M-1471.68,2036.758c0-.184-.071-.519.091-.573q-.025.177-.034.348c.125.012.178.222.2.412l-.052-.208c0,.057-.069.038-.065.094.138.3.065.407.232.681l0-.018.028.238c.03.071.043.038.047.012a4.816,4.816,0,0,0,.134.653c-.11-.211-.118-.626-.268-.823v.018C-1471.412,2037.315-1471.619,2037.031-1471.68,2036.758Z" transform="translate(1480.597 -2028.755)" fill="#f7e2c4"/>
        <path id="Path_12979" data-name="Path 12979" d="M-1471.575,2037.586l0-.019A.046.046,0,0,1-1471.575,2037.586Z" transform="translate(1480.938 -2028.597)" fill="#f7e2c4"/>
        <path id="Path_12980" data-name="Path 12980" d="M-1466.018,2031.782l-.046-.1A.178.178,0,0,1-1466.018,2031.782Z" transform="translate(1469.24 -2029.269)" fill="#f7e2c4"/>
        <path id="Path_12981" data-name="Path 12981" d="M-1468.489,2031.19l-.02,0C-1468.44,2031.073-1468.452,2031.106-1468.489,2031.19Z" transform="translate(1474.404 -2029.334)" fill="#f7e2c4"/>
        <path id="Path_12982" data-name="Path 12982" d="M-1471,2045.573l.128,0C-1470.972,2045.614-1471,2045.605-1471,2045.573Z" transform="translate(1479.596 -2027.684)" fill="#f7e2c4"/>
        <path id="Path_12983" data-name="Path 12983" d="M-1473.03,2049.018l0,.005Z" transform="translate(1484.009 -2027.29)" fill="#f7e2c4"/>
        <path id="Path_12984" data-name="Path 12984" d="M-1471.134,2048.152l-.062.037C-1471.17,2048.156-1471.151,2048.148-1471.134,2048.152Z" transform="translate(1480.073 -2027.389)" fill="#f7e2c4"/>
        <path id="Path_12985" data-name="Path 12985" d="M-1472.286,2049.213a.888.888,0,0,1,.126.064A.163.163,0,0,1-1472.286,2049.213Z" transform="translate(1482.313 -2027.268)" fill="#f7e2c4"/>
        <path id="Path_12986" data-name="Path 12986" d="M-1473.027,2048.982a.356.356,0,0,0,.021.04A.179.179,0,0,1-1473.027,2048.982Z" transform="translate(1483.985 -2027.294)" fill="#f7e2c4"/>
        <path id="Path_12987" data-name="Path 12987" d="M-1469.509,2046.54l-.256.083A.886.886,0,0,1-1469.509,2046.54Z" transform="translate(1476.853 -2027.573)" fill="#f7e2c4"/>
        <path id="Path_12988" data-name="Path 12988" d="M-1472.525,2049.48a.2.2,0,0,1,.1.012A.128.128,0,0,1-1472.525,2049.48Z" transform="translate(1482.844 -2027.238)" fill="#f7e2c4"/>
        <path id="Path_12989" data-name="Path 12989" d="M-1471.113,2036.439a.957.957,0,0,1,.045.145A.3.3,0,0,1-1471.113,2036.439Z" transform="translate(1479.915 -2028.726)" fill="#f7e2c4"/>
        <path id="Path_12990" data-name="Path 12990" d="M-1465.536,2039.7a.788.788,0,0,1-.13.086A.181.181,0,0,1-1465.536,2039.7Z" transform="translate(1468.313 -2028.354)" fill="#f7e2c4"/>
        <path id="Path_12991" data-name="Path 12991" d="M-1467.761,2043.835l0,.02-.059,0Z" transform="translate(1472.94 -2027.882)" fill="#f7e2c4"/>
        <path id="Path_12992" data-name="Path 12992" d="M-1467.151,2042.618l-.061.051A.228.228,0,0,1-1467.151,2042.618Z" transform="translate(1471.651 -2028.021)" fill="#f7e2c4"/>
        <path id="Path_12993" data-name="Path 12993" d="M-1468.018,2044.861a.385.385,0,0,1-.067.1Z" transform="translate(1473.491 -2027.765)" fill="#f7e2c4"/>
        <path id="Path_12994" data-name="Path 12994" d="M-1468.484,2047.391c-.118.008-.176.1-.23.191-.283-.162-.007-.416-.4-.532l.206.043a.413.413,0,0,0-.4-.576l-.063.091c.13-.266-.44-.284-.286-.448.165,0,.2-.106.374-.07l.019-.508-.418.173.016-.27c.193-.031-.287-.208.1-.407-.214-.044-.289.2-.423.323.053-.174-.133-.1.049-.323l-.432.065.1-.429c-.028.032-.065.026-.091.057.244-.291-.384-.26.083-.7a.222.222,0,0,1-.06.039c.255-.24-.09-.375-.2-.432,0-.193.348-.24.511-.324-.321-.411-.234-.275.073-.879-.622,0-.7.645-1.193.511a.826.826,0,0,0,.32-.718,2.882,2.882,0,0,0-1.048-.473l.36-.129.059-.383-.436.39c.1-.1.252-.346.381-.519.173-.442-.859.153-.422-.319l-.125.025c.242-.194.05-.357.051-.635l-.429.274.167.113c-.488.1-.036-.286-.127-.424.092-.222.508-.3.612-.44-.045-.049.058-.188-.095-.179-.2-.079-.562.211-.742.335.431-.315.353-.331.439-.676-.235.077-.328.137-.359.191a.689.689,0,0,1,.312-.281l-.31.019c-.52-.149.763-.652.47-.954-.22.2-.06-.336-.411-.331-.029.157-.73.207-.992.4-.291-.232.526-.335.547-.616l-.567.323c.175-.331.3-.178.4-.486-.15.129-.2-.048-.343.166a4.94,4.94,0,0,0-.261-.474l.578-.229c.037-.106-.234-.04-.349-.021,0,.037.04.079-.037.1-.538.1.23-.255-.272-.184.194-.046.462-.115.454-.232-.341.174-.392-.024-.543.03.267-.037.025-.262.4-.441-.314-.011-.26.156-.448.244.4-.292-.117-.452.1-.662l-.086.029c.215-.251.185-.5.47-.937l-.292.229c-.253-.22.622-.448.53-.668-.452.228-.1-.39-.587-.1a2.249,2.249,0,0,1,.679-.645c-.31-.05-.574.461-.767.32l.188-.282-.27.04c.188-.065.158-.251.314-.282-.32.051-.559.015-.8.081.06-.161-.285-.318-.019-.5l-.156.011c.284-.121.3-.235.32-.344s.067-.222.371-.257l-.328-.1c.06-.242.682-.145.838-.209.036-.069.116-.136.076-.221-.424.157-.439-.236-.585-.39a.706.706,0,0,1,.171-.262.42.42,0,0,1,.392-.067c-.323-.066-.487-.284-.672-.038-.223-.212-.1-.312.063-.375s.38-.087.48-.209l-.186-.193c.509-.2.768.215,1.127.532a1.181,1.181,0,0,0-.467-.588.647.647,0,0,1,.42-.287,2.3,2.3,0,0,0,.5-.108.353.353,0,0,0-.2-.415c.36.116.793-.179,1.031.335-.093-.2.118-.174.243-.255,0,.113.02.26.033.245.2.258.533.45.768.358l-.032-.176c.251.047.357.3.444.509s.146.414.451.379c.136-.04.145-.392.3-.278-.026.2-.267.477-.039.541l.186-.26-.083.35c-.228.148-.345-.067-.4.266.331-.11-.068.316.331.2a1.339,1.339,0,0,1,.141-.4.476.476,0,0,1,.461.4.605.605,0,0,0,.441.438c-.03.349.137.624.07.874a1.5,1.5,0,0,0,.525-.5c.147.181-.3.58.1.514-.242.268.124.635-.262.9.087-.037.12.2.232-.116.017.321.534.168.592.3.023.074-.286.039-.209.2.026.011.066,0,.091.01l-.06.1c.116.023.155-.156.252-.209.175.195-.052.476.053.744l.039-.071c.046.089.094.177.131.269l.013-.025-.026.269.081-.039c0,.06-.05.093-.03.167l.091-.062a.569.569,0,0,0-.04.542l.051.01c-.022.122-.04.241-.052.358.158.129.118-.27.184.068l.139-.138c.017.252.12.259.118.435-.1-.05-.136-.159-.174-.058.244.126.057.3.072.486-.033-.087-.061-.144,0-.227-.039-.091-.091-.01-.121-.065l.035-.155-.125,0-.009-.246c-.128.057-.107-.194-.214-.061-.011-.17-.159-.218-.07-.409-.141-.067-.035.2-.1.1a4.89,4.89,0,0,0-.934-1.769l-.056.1c.054-.1.083-.208.128-.285-.222-.022-.69-.247-.456-.552-.031-.007-.06.048-.076.076-.089-.2-.55-.374-.724-.6.273-.362-.514-.152-.112-.609l-.057.125c.208-.04.235-.379.323-.519-.374.216-.246.2-.6.4l.192-.02-.277.211c.2-.4.009-.495-.2-.457-.211.019-.409.1-.275-.232-.012.036-.052.081-.064.117-.231.084-.025-.315-.048-.477a1.179,1.179,0,0,0-.158.421c-.135.022-.2-.1-.292-.237-.088-.092-.206-.176-.339-.051,0-.284.124-.34.092-.566a.439.439,0,0,0-.129.417c-.138.256-.217.191-.353.084-.135-.037-.326-.109-.384.159-.237-.243-.179-.418-.52-.518.135.172.219.683.353.654l.092.208c-.222.14-.148.262-.625-.2.338.361.037.085.226.282l-.082-.075c-.317-.249.015.041-.038,0l.076.046a.88.88,0,0,0-.279-.115,1.4,1.4,0,0,0,.289.135l-.328-.122c-.014.038.409.136.332.148l-.256-.069c.165.06-.208.068.171.114.076.008.046,0,.059-.007.545.073-.178.131.1.268l-.58.032c-.156.169.133.07.333.038.012.089.192.066.294.176a1.14,1.14,0,0,1-.36.139l.173.1.286-.162c-.769.424.266.495-.411.913.193.032.3-.205.416-.185.454.127-.259.852.258.94.571.249.416.895.89,1.361l-.154.046c.094.126.173.222.248.307-.307.207-.069.376-.408.663a2.442,2.442,0,0,0,.382-.16c.007.16-.1.377.132.384l.11-.1c.208.28.38.713.164.989.008.122.271.013.46-.029.085.176-.02.355-.2.6a1.035,1.035,0,0,0,.305.02l-.329.214c.079.057.3-.1.413-.078-.315.458.191.635.24.846l-.184.045c-.1.139.2.2.338.026.354.307-.315.817-.01,1.311.634-.192.015.558.713.341-.081.3.235.328-.085.657.068-.026.1-.019.1-.059.277-.021.2.36.135.66l.2-.077c-.382.273-.1.606-.473.878.1-.017.152-.124.212-.189.43-.064-.1.292.053.4.092-.058.224-.068.282-.134.62.3.222,1.367.782,1.873.09.174-.4.128-.265.348.2-.023.3-.3.44-.189-.169.222-.1.236-.02.369.1-.086.184-.1.217-.244.173.009-.111.495.229.513a.426.426,0,0,0-.191.171c-.159.393.521.4.379.509,0,0,0,.109-.068.054.045.087.145.189.277.083-.058.091-.161.2-.143.281l.149-.135c-.018.061-.1.168-.1.219l-.129,0c.183.02-.042.41.259.22l-.009-.038.222.106c-.085.148-.162.3-.061.4.317-.139.21.283.325.418l.091-.069c-.07.21.151.484.077.458.06.12.206.234.249.124,0,.129.109.33.01.477l.284.051c-.185.31.3.3.057.519.1.072.14,0,.223.034a.57.57,0,0,0,.211.486l.022-.017c.116.113.144.382.307.549l.131-.094c.063.109.017.238.12.279.032,0,.017-.025,0-.05a.546.546,0,0,0,.274.183,1.055,1.055,0,0,0,.355.306c.128-.044-.176-.087-.061-.136a1.179,1.179,0,0,0,.721.05c.02-.012-.015-.009-.03-.013.028.076.547-.266.444-.213.051-.057.1-.125-.06.075-.058.063-.223.25-.263.28l-.027-.012c-.325.155.033.117-.4.289l.092-.048a1.469,1.469,0,0,0-.253.062c-.029.023.035.012.073.011a.953.953,0,0,1-.383-.051c-.024.038-.013.06.065.089-.369-.018.084-.085-.334-.15-.087.013.009.053.058.09a.57.57,0,0,1-.492-.205c-.047.074.088.117-.1.1.057-.027.111-.081,0-.143.012.1-.123.007-.237-.041a.06.06,0,0,0,.029-.1c-.041-.044-.109-.039-.176-.089h.186c-.109-.192-.3-.137-.459-.2a.1.1,0,0,0,.028.076c-.157-.068-.386-.094-.464-.312v.023c-.193-.358.243-.07.021-.474-.124-.086-.3.364-.423.009.207.036.089-.363.022-.551l-.11.344c-.057-.056-.081-.21-.136-.223l.063-.037c.224-.155-.191-.167-.139-.381-.207.37-.135.331-.417.585.065-.226.124-.464-.075-.632l-.115.339c-.309-.2-.155-.792-.056-1.177-.177.2-.324.165-.438.382l-.152-.285-.192.232c.17-.267-.095-.27.258-.467-.026.057-.067.078-.019.122.1-.07.273-.249.166-.373-.148-.038-.1.137-.212.173.079-.174-.153-.038-.115-.191l.207-.013c.158-.187-.091-.155-.047-.309-.02.164-.16.2-.315.236l.031-.01c-.032-.074.059-.251-.095-.222l-.258.234.15-.227c-.062-.015-.188.022-.2.118-.4-.191.655-.375.115-.608-.115.075-.167.165-.025.232-.174.126-.3.164-.448.1l-.036.019C-1468.409,2047.911-1468.621,2047.655-1468.484,2047.391Z" transform="translate(1474.836 -2029.512)" fill="#f7e2c4"/>
        <path id="Path_12995" data-name="Path 12995" d="M-1469.128,2046.211c.079.109.149.2.139.266C-1469.063,2046.492-1469.331,2046.32-1469.128,2046.211Z" transform="translate(1475.706 -2027.611)" fill="#f7e2c4"/>
        <path id="Path_12996" data-name="Path 12996" d="M-1465.385,2029.557a.5.5,0,0,1-.073-.029Z" transform="translate(1467.932 -2029.515)" fill="#f7e2c4"/>
        <path id="Path_12997" data-name="Path 12997" d="M-1466.595,2029.542a.176.176,0,0,1-.07.1C-1466.665,2029.546-1466.646,2029.477-1466.595,2029.542Z" transform="translate(1470.486 -2029.516)" fill="#f7e2c4"/>
        <path id="Path_12998" data-name="Path 12998" d="M-1465.233,2038.413l0-.007Z" transform="translate(1467.526 -2028.502)" fill="#f7e2c4"/>
        <path id="Path_12999" data-name="Path 12999" d="M-1463.538,2033.43a.854.854,0,0,1,.407-.266C-1463.158,2033.24-1463.264,2033.324-1463.538,2033.43Z" transform="translate(1463.538 -2029.1)" fill="#f7e2c4"/>
        <path id="Path_13000" data-name="Path 13000" d="M-1463.952,2035.174l-.061.068A.11.11,0,0,1-1463.952,2035.174Z" transform="translate(1464.888 -2028.871)" fill="#f7e2c4"/>
        <path id="Path_13001" data-name="Path 13001" d="M-1465.258,2038.8c.129-.147.07-.257.127-.389C-1465.188,2038.527-1464.961,2038.616-1465.258,2038.8Z" transform="translate(1467.424 -2028.501)" fill="#f7e2c4"/>
        <path id="Path_13002" data-name="Path 13002" d="M-1467.869,2030.342c0-.088,0-.165-.01-.25a1.768,1.768,0,0,1,.044.194Z" transform="translate(1473.079 -2029.451)" fill="#f7e2c4"/>
        <path id="Path_13003" data-name="Path 13003" d="M-1466.775,2029.925c-.055.051-.24-.123-.174-.242A.691.691,0,0,0-1466.775,2029.925Z" transform="translate(1470.998 -2029.497)" fill="#f7e2c4"/>
        <path id="Path_13004" data-name="Path 13004" d="M-1463.778,2031.794l-.292.006.236-.068Z" transform="translate(1464.777 -2029.263)" fill="#f7e2c4"/>
      </g>
    </g>
    <g id="Group_332" data-name="Group 332" transform="translate(186.643 17.799)">
      <path id="Path_13005" data-name="Path 13005" d="M-1418.413,2031.212c2.133-1.137,7.185-3.831,11.535-1.875a4.737,4.737,0,0,1,2.375,1.949c1.693,3.093-1.5,7.973-4.69,9.413-2.379,1.072-5.258.475-7.7,1.289a18.268,18.268,0,0,0-6.825,4.312c-6.7,6.842-2.608,20.429-3.227,20.515-.668.092-7.891-15.431-.206-27.578A23.545,23.545,0,0,1-1418.413,2031.212Z" transform="translate(1430.668 -2028.644)" fill="#f7e2c4"/>
    </g>
    <path id="Path_13006" data-name="Path 13006" d="M-1480.964,2102.816a8.039,8.039,0,0,0,3.668,4.25,7.533,7.533,0,0,0,5.689.219,16.689,16.689,0,0,0,5.05-2.78,12.425,12.425,0,0,0,3.748-4.46c.813-1.766,1.482-3.476,2.388-5.11a24.3,24.3,0,0,1,3.183-4.5,53.8,53.8,0,0,1,8.418-7.32c3.006-2.239,6.228-4.335,8.943-7.163a21.238,21.238,0,0,0,5.44-10.287,37.172,37.172,0,0,0,.449-11.542,100.558,100.558,0,0,0-1.892-11.263l-.013-.063-.021-.055-2.3-5.876.048.268a10.462,10.462,0,0,1,1.089-4.247c.633-1.393,1.426-2.75,2.115-4.2a12.25,12.25,0,0,0,1.358-4.709,7.461,7.461,0,0,0-1.4-4.743,8.168,8.168,0,0,0-3.88-2.978,7.885,7.885,0,0,0-4.831-.07,16.534,16.534,0,0,0-4.318,2.015,15.968,15.968,0,0,0-3.485,3.19,16.167,16.167,0,0,1,7.929-4.713,7.275,7.275,0,0,1,4.445.257,7.67,7.67,0,0,1,3.385,2.817,6.479,6.479,0,0,1,1.11,4.162,11.179,11.179,0,0,1-1.374,4.25c-.7,1.371-1.532,2.713-2.243,4.165a11.8,11.8,0,0,0-1.349,4.793l0,.128.054.14,2.234,5.9-.035-.116a99.327,99.327,0,0,1,1.76,11.1,35.561,35.561,0,0,1-.521,11.013,19.649,19.649,0,0,1-4.936,9.541c-2.507,2.669-5.645,4.771-8.67,7.061a48.782,48.782,0,0,0-8.522,7.675,25.622,25.622,0,0,0-3.212,4.828c-.881,1.7-1.544,3.537-2.264,5.222a11.592,11.592,0,0,1-3.366,4.231,15.972,15.972,0,0,1-4.7,2.882,7.08,7.08,0,0,1-5.356.042A8.058,8.058,0,0,1-1480.964,2102.816Z" transform="translate(1702.899 -2012.307)" fill="#2b2b2b"/>
    <path id="Path_13007" data-name="Path 13007" d="M-1462.689,2020.925a41.993,41.993,0,0,1,10.972-4.929,41.176,41.176,0,0,1,11.771-1.591,17.674,17.674,0,0,1,5.72.96c1.866.6,3.728,1.457,5.629,2.174,3.779,1.493,7.583,2.929,11.454,4.207-3.585-1.942-7.24-3.725-10.917-5.452-1.839-.863-3.66-1.739-5.626-2.483a18.872,18.872,0,0,0-6.224-1.142,35.586,35.586,0,0,0-12.219,2.041A30.808,30.808,0,0,0-1462.689,2020.925Z" transform="translate(1666.096 -2012.669)" fill="#2b2b2b"/>
    <path id="Path_13008" data-name="Path 13008" d="M-1399.582,2019.671c-1.67-.631-3.356-1.2-5.043-1.766-1.7-.544-3.365-1.122-5.114-1.59a16.394,16.394,0,0,0-5.5-.654,9.04,9.04,0,0,0-5.354,2.122l-1.175,1.032,1.533.438a2.123,2.123,0,0,1,1.355,1.455,2.124,2.124,0,0,1,.049,1.033,2.554,2.554,0,0,1-.546.986,4.576,4.576,0,0,0-.839,1.547,4.674,4.674,0,0,0-.141,1.766,12.477,12.477,0,0,0,.805,3.032,24.075,24.075,0,0,1,1.3,5.627,25.932,25.932,0,0,1-.047,5.875,19.446,19.446,0,0,0,.931-5.918,21.2,21.2,0,0,0-.85-6.01,13.25,13.25,0,0,1-.587-2.722,3.091,3.091,0,0,1,.137-1.169,3.4,3.4,0,0,1,.622-1.017,6.954,6.954,0,0,0,.485-.686,3.7,3.7,0,0,0,.375-.912,3.8,3.8,0,0,0-.046-1.9,3.705,3.705,0,0,0-2.567-2.648l.358,1.47a7.844,7.844,0,0,1,4.357-1.806,17.186,17.186,0,0,1,5.06.335l5.2,1.1C-1403.089,2019.04-1401.344,2019.386-1399.582,2019.671Z" transform="translate(1602.948 -2012.331)" fill="#2b2b2b"/>
    <path id="Path_13009" data-name="Path 13009" d="M-1433.1,2042.842c-.683,2.855-1.3,5.722-1.735,8.648a30.62,30.62,0,0,0-.057,8.923,20.277,20.277,0,0,0,3.362,8.388,38.492,38.492,0,0,0,5.916,6.732,52.184,52.184,0,0,0,7.142,5.348c1.263.782,2.556,1.511,3.861,2.209s2.653,1.324,3.924,1.974a10,10,0,0,1,3.271,2.514,27.439,27.439,0,0,1,2.428,3.556c.771,1.243,1.531,2.508,2.374,3.721a16.393,16.393,0,0,0,2.9,3.324,32.547,32.547,0,0,1-4.534-7.462,27.378,27.378,0,0,0-2.283-3.854,10.916,10.916,0,0,0-3.5-2.986c-1.3-.752-2.589-1.413-3.852-2.125s-2.5-1.465-3.707-2.262a52.866,52.866,0,0,1-6.861-5.248,38.163,38.163,0,0,1-5.736-6.382,19.767,19.767,0,0,1-3.379-7.693,32.941,32.941,0,0,1-.429-8.6C-1433.852,2048.666-1433.4,2045.763-1433.1,2042.842Z" transform="translate(1618.029 -2009.225)" fill="#2b2b2b"/>
    <path id="Path_13010" data-name="Path 13010" d="M-1252.905,2039.19a6.25,6.25,0,0,0-2.668-1.482,22.362,22.362,0,0,0-3.01-.658c-2.032-.3-4.083-.434-6.109-.66a22.472,22.472,0,0,1-3-.525l-3.007-.647c-2.01-.406-4.024-.8-6.047-1.133a170.74,170.74,0,0,0-24.517-2.266,80.942,80.942,0,0,0-24.4,3.76,123.371,123.371,0,0,0-22.788,9.5c-7.193,3.966-14.243,8.181-21.037,12.815a134.067,134.067,0,0,0-19.166,15.514,70.5,70.5,0,0,0-14.51,19.89,42.625,42.625,0,0,0-3.723,24.055,42.486,42.486,0,0,1,.554-12.191,45.247,45.247,0,0,1,3.938-11.5,69.647,69.647,0,0,1,14.676-19.3,145.014,145.014,0,0,1,19.119-15.161c6.763-4.551,13.812-8.7,20.977-12.6a121.715,121.715,0,0,1,22.417-9.511,83.884,83.884,0,0,1,23.933-3.941,171.726,171.726,0,0,1,24.4,1.774c2.025.271,4.041.6,6.056.937l3.015.551a22.979,22.979,0,0,0,3.064.437c2.05.161,4.091.23,6.119.462a22.2,22.2,0,0,1,3.009.526A6.168,6.168,0,0,1-1252.905,2039.19Z" transform="translate(1440.155 -2010.484)" fill="#2b2b2b"/>
    <path id="Path_13011" data-name="Path 13011" d="M-1363.555,2108.916a3.273,3.273,0,0,1-.736,2.683,10.68,10.68,0,0,1-2.048,2.007c-1.518,1.176-3.2,2.133-4.751,3.286a80.839,80.839,0,0,0-8.79,7.524,40.818,40.818,0,0,0-3.985,4.229,21.006,21.006,0,0,0-2.83,5.106,28.825,28.825,0,0,0-1.624,5.6,34.681,34.681,0,0,0-.634,5.8,33.046,33.046,0,0,0,1.618,11.542,25.693,25.693,0,0,0,6.056,9.994,33.9,33.9,0,0,0,9.668,6.559,98.25,98.25,0,0,1,9.9,5.805c6.419,4.2,12.644,8.833,19.622,12.336.881.415,1.757.845,2.645,1.246.9.369,1.8.772,2.712,1.111,1.861.678,3.656,1.271,5.418,1.965a108.254,108.254,0,0,1,10.34,4.955c3.4,1.8,6.784,3.658,10.287,5.334a58.239,58.239,0,0,0,10.949,4.126c.965.2,1.925.421,2.893.6.982.116,1.959.267,2.944.352.986.029,1.99.073,2.961.086.953-.009,1.9-.013,2.854.017a49.073,49.073,0,0,1,11.235,1.5,48.642,48.642,0,0,1,10.554,4.118c1.657.889,3.367,1.87,5.1,2.74s3.482,1.708,5.24,2.513c3.5,1.61,7.084,3.117,10.505,4.743,1.678.847,3.347,1.846,5.138,2.687a13.394,13.394,0,0,0,5.907,1.5,9.811,9.811,0,0,0,8.844-7.708,9.131,9.131,0,0,0,.143-3.128,9.525,9.525,0,0,0-.928-2.99,19.742,19.742,0,0,0-3.61-4.786,39.163,39.163,0,0,0-4.466-3.829,56.938,56.938,0,0,0-4.851-3.248,108.13,108.13,0,0,0-10.2-5.567c-13.969-6.756-28.89-10.937-43.412-15.982-14.442-5.447-29.531-8.867-43.991-14.188,7.147,2.888,14.53,5.145,21.866,7.483,3.672,1.164,7.343,2.327,10.987,3.564,3.649,1.213,7.222,2.628,10.854,3.943,14.5,5.216,29.354,9.545,43.109,16.38a106.625,106.625,0,0,1,10.017,5.6,47.885,47.885,0,0,1,9.019,6.9,18.322,18.322,0,0,1,3.315,4.406,8.043,8.043,0,0,1,.772,2.5,7.617,7.617,0,0,1-.128,2.612,8.545,8.545,0,0,1-2.658,4.475,7.767,7.767,0,0,1-4.732,1.984,11.893,11.893,0,0,1-5.175-1.373c-1.7-.8-3.335-1.788-5.091-2.685-3.531-1.693-7.05-3.186-10.541-4.8-1.741-.8-3.468-1.63-5.17-2.5s-3.337-1.809-5.07-2.748A50.1,50.1,0,0,0-1276.42,2211a50.888,50.888,0,0,0-11.626-1.512c-.976-.027-1.95-.02-2.924-.007l-2.813-.071c-.932-.079-1.862-.22-2.793-.325-.924-.169-1.843-.378-2.765-.565-7.355-1.832-14.081-5.687-20.9-9.248a110.086,110.086,0,0,0-10.507-4.99c-1.823-.709-3.691-1.321-5.45-1.955-.89-.326-1.758-.716-2.638-1.071l-2.585-1.207c-6.823-3.415-13.06-7.955-19.57-12.112a99.647,99.647,0,0,0-10.085-5.776,32.762,32.762,0,0,1-9.429-6.244,24.644,24.644,0,0,1-5.908-9.538,32.435,32.435,0,0,1-1.692-11.207,33.865,33.865,0,0,1,.525-5.683,28.1,28.1,0,0,1,1.494-5.5,20.432,20.432,0,0,1,2.668-5.014,40.439,40.439,0,0,1,3.861-4.233,81.1,81.1,0,0,1,8.623-7.641c1.516-1.181,3.173-2.174,4.677-3.393a10.741,10.741,0,0,0,2.019-2.071A3.3,3.3,0,0,0-1363.555,2108.916Z" transform="translate(1392.171 -2001.683)" fill="#2b2b2b"/>
    <path id="Path_13012" data-name="Path 13012" d="M-1279.85,2162.646a5.856,5.856,0,0,1-3.761-1.13,13.568,13.568,0,0,1-2.925-2.645,12.073,12.073,0,0,1-2-3.282,5.607,5.607,0,0,1-.407-1.725,4.43,4.43,0,0,1,.07-.8,4.1,4.1,0,0,1,.272-.8,4.3,4.3,0,0,1,2.6-2.13,21.774,21.774,0,0,1,3.849-.956c1.344-.24,2.721-.475,4.082-.839a7.557,7.557,0,0,0,3.693-1.979,8.793,8.793,0,0,1-3.857,1.143c-1.345.157-2.712.205-4.1.332a18.687,18.687,0,0,0-4.223.751,7.247,7.247,0,0,0-2.063,1.053,5.059,5.059,0,0,0-1.562,1.894,5.7,5.7,0,0,0-.373,1.162,6,6,0,0,0-.088,1.251,6.67,6.67,0,0,0,.583,2.264,11.9,11.9,0,0,0,2.529,3.575,12.265,12.265,0,0,0,3.514,2.476A5.506,5.506,0,0,0-1279.85,2162.646Z" transform="translate(1331.646 -1997.409)" fill="#2b2b2b"/>
    <path id="Path_13013" data-name="Path 13013" d="M-1410.367,2095.2c-1.58,1.683-2.153,4.087-3.816,5.51a48.913,48.913,0,0,1-5.154,4.306c-1.813,1.339-3.645,2.67-5.456,4.08a49.776,49.776,0,0,0-5.1,4.667,32.232,32.232,0,0,0-4.189,5.561,25.257,25.257,0,0,0-2.675,6.445,25.111,25.111,0,0,0-.79,6.88,33.32,33.32,0,0,0,.908,6.787,47.963,47.963,0,0,1-.056-6.763,27.7,27.7,0,0,1,1.241-6.531,29.467,29.467,0,0,1,6.832-11.2,51.685,51.685,0,0,1,4.863-4.577c1.71-1.449,3.525-2.814,5.262-4.3a39.56,39.56,0,0,0,4.94-4.791,9.909,9.909,0,0,0,1.747-3.019A15.9,15.9,0,0,1-1410.367,2095.2Z" transform="translate(1631.318 -2003.249)" fill="#2b2b2b"/>
    <path id="Path_13014" data-name="Path 13014" d="M-1429.319,2136.511c.047,1.677.121,3.342.277,5.021a18.728,18.728,0,0,0,1.106,5.014,9.433,9.433,0,0,0,3.2,4.265,14.887,14.887,0,0,0,4.8,2.123,9.262,9.262,0,0,1,4.084,1.946,4.959,4.959,0,0,1,1.16,1.8,8.406,8.406,0,0,1,.531,2.21,3.987,3.987,0,0,1-1.573,3.866,4.213,4.213,0,0,1-2.186.651,8.288,8.288,0,0,1-2.423-.375,7.131,7.131,0,0,0,2.4.855,4.7,4.7,0,0,0,2.63-.388,4.313,4.313,0,0,0,1.944-1.969,5.7,5.7,0,0,0,.566-2.7,9.049,9.049,0,0,0-.115-1.358,11.064,11.064,0,0,0-.34-1.311,6.551,6.551,0,0,0-1.415-2.433,7.025,7.025,0,0,0-2.31-1.579,20.546,20.546,0,0,0-2.453-.88,13.857,13.857,0,0,1-4.343-1.794A8.542,8.542,0,0,1-1426.7,2146C-1428.072,2143.142-1428.472,2139.741-1429.319,2136.511Z" transform="translate(1624.577 -1998.533)" fill="#2b2b2b"/>
    <path id="Path_13015" data-name="Path 13015" d="M-1371.28,2162.272a18.341,18.341,0,0,1,2.024,1.6,5.915,5.915,0,0,1,.837.943,1.594,1.594,0,0,1,.365,1.062c-.112.7-.975,1.091-1.732,1.347a16.575,16.575,0,0,1-2.469.572c-1.685.286-3.4.47-5.122.686-.864.112-1.721.217-2.613.415-.867.195-1.7.426-2.514.59a7.928,7.928,0,0,1-2.362.191,3.535,3.535,0,0,1-1.95-.829,13.4,13.4,0,0,1-2.7-4.035c-.427-.8-.817-1.486-1.189-2.265l-1.114-2.342a18.081,18.081,0,0,0-2.946-4.549c-2.492-2.587-5.315-4.586-7.523-7.1a48.3,48.3,0,0,1-5.793-8.37,63.369,63.369,0,0,1-4.171-9.383,79.793,79.793,0,0,1-2.837-9.947,60.087,60.087,0,0,0,5.808,19.962,45.841,45.841,0,0,0,5.754,8.82c2.339,2.725,5.212,4.78,7.494,7.2,2.244,2.313,3.243,5.744,5.079,8.759a14.53,14.53,0,0,0,3.18,4.431,4.978,4.978,0,0,0,2.78,1.093,9.3,9.3,0,0,0,2.781-.32c.87-.213,1.7-.479,2.512-.694.79-.208,1.648-.349,2.49-.509,1.7-.31,3.413-.577,5.12-.977a17.181,17.181,0,0,0,2.531-.791,5.2,5.2,0,0,0,1.2-.668,1.762,1.762,0,0,0,.757-1.253,1.98,1.98,0,0,0-.533-1.311,5.957,5.957,0,0,0-.956-.925A18.362,18.362,0,0,0-1371.28,2162.272Z" transform="translate(1563.507 -2000.32)" fill="#2b2b2b"/>
    <path id="Path_13016" data-name="Path 13016" d="M-1406.792,2119.89c.446,3.263-.962,6.172-1.5,9.457a13.194,13.194,0,0,0-.2,2.53,13.4,13.4,0,0,0,.351,2.535c.355,1.585.784,3.152,1.233,4.711a86.85,86.85,0,0,0,3.321,9.128,75.382,75.382,0,0,0,4.333,8.676c-.982-3.086-2.045-6.119-3.066-9.159s-2.027-6.076-2.924-9.141c-.474-1.524-.9-3.062-1.3-4.6a11.613,11.613,0,0,1-.428-2.222,16.578,16.578,0,0,1,.022-2.286c.13-1.548.451-3.131.616-4.763A10.78,10.78,0,0,0-1406.792,2119.89Z" transform="translate(1587.825 -2000.43)" fill="#2b2b2b"/>
    <path id="Path_13017" data-name="Path 13017" d="M-1330.764,2138.322c-2.8,2.366-6.264,3.5-9.715,4.38a77.174,77.174,0,0,1-10.62,1.7c-3.58.377-7.185.566-10.8.7s-7.235.166-10.886.173a68.1,68.1,0,0,0,10.886,1.182,81.52,81.52,0,0,0,10.972-.331,53.474,53.474,0,0,0,10.815-2.134,27.746,27.746,0,0,0,5.1-2.169A14.2,14.2,0,0,0-1330.764,2138.322Z" transform="translate(1479.551 -1998.327)" fill="#2b2b2b"/>
    <path id="Path_13018" data-name="Path 13018" d="M-1348.331,2097.208a19.047,19.047,0,0,1,7.673-3.747,34.07,34.07,0,0,1,8.538-.717c1.437.017,2.878.063,4.323.107l2.174.052a17.277,17.277,0,0,1,2.089.156,20.159,20.159,0,0,1,7.731,3.19c2.533,1.535,5.061,2.788,7.328,4.486a22.468,22.468,0,0,1,5.72,6.066,29.03,29.03,0,0,1,4.139,16.084c.143,5.684-1.963,11.052-5.078,15.811-1.537,2.4-3.274,4.686-5.042,6.959-1.791,2.26-3.549,4.549-5.371,6.771l-2.749,3.363c-.453.569-.9,1.149-1.329,1.756a9.565,9.565,0,0,0-1.138,2.006,2.517,2.517,0,0,0-.173,1.353,1.573,1.573,0,0,0,.376.74,1.539,1.539,0,0,0,.691.394,8.815,8.815,0,0,0,2.315.148l4.336-.161,4.325-.151a18.43,18.43,0,0,1,4.255.181,5.8,5.8,0,0,1,3.4,2.319,10.61,10.61,0,0,1,1.735,3.907,10.732,10.732,0,0,0-1.52-4.059,6.149,6.149,0,0,0-3.5-2.614,18.78,18.78,0,0,0-4.37-.39l-4.341-.044-4.327.034a8.375,8.375,0,0,1-1.993-.159c-.25-.089-.285-.144-.333-.351a1.532,1.532,0,0,1,.15-.755,16.052,16.052,0,0,1,2.383-3.383l2.829-3.271c1.912-2.187,3.728-4.44,5.529-6.7s3.582-4.572,5.189-7.026a35.435,35.435,0,0,0,4.009-7.882,27.829,27.829,0,0,0,1.126-4.333,33.332,33.332,0,0,0,.352-4.437,30.667,30.667,0,0,0-4.55-16.963,24.032,24.032,0,0,0-6.157-6.417,36.871,36.871,0,0,0-3.734-2.356c-1.283-.726-2.581-1.323-3.8-2.06a21.362,21.362,0,0,0-8.271-3.132,18.314,18.314,0,0,0-2.233-.107l-2.16.008c-1.443,0-2.891-.019-4.343.02a34.759,34.759,0,0,0-8.649,1.121,18.8,18.8,0,0,0-4.042,1.643A19.07,19.07,0,0,0-1348.331,2097.208Z" transform="translate(1418.423 -2003.629)" fill="#2b2b2b"/>
    <path id="Path_13019" data-name="Path 13019" d="M-1286.957,2159.4a10.247,10.247,0,0,1,.608,2.257,4.405,4.405,0,0,1-.173,2.229,2.863,2.863,0,0,1-1.435,1.535,6.5,6.5,0,0,1-2.14.564,29.33,29.33,0,0,1-4.625.031l-4.7-.278q-4.716-.289-9.459-.28c-3.174-.01-6.312.305-9.37.146-3.078-.116-6.2-.511-9.313-.842a43.519,43.519,0,0,1-9.075-1.671,13.174,13.174,0,0,1-3.931-2.163,19.717,19.717,0,0,1-3.279-3.207,24.593,24.593,0,0,1-2.591-3.853,35.876,35.876,0,0,1-1.925-4.281,25.761,25.761,0,0,0,3.839,8.649,20.3,20.3,0,0,0,3.234,3.571,13.947,13.947,0,0,0,4.172,2.55,24.5,24.5,0,0,0,4.658,1.3c1.568.3,3.135.528,4.7.74,3.126.381,6.242.793,9.443.944,3.224.128,6.359-.2,9.466-.241,3.118-.1,6.248-.043,9.382-.01a57.587,57.587,0,0,0,9.5-.266,7.178,7.178,0,0,0,2.331-.832,3.432,3.432,0,0,0,1.55-1.957A6.491,6.491,0,0,0-1286.957,2159.4Z" transform="translate(1407.508 -1997.041)" fill="#2b2b2b"/>
    <path id="Path_13020" data-name="Path 13020" d="M-1390.2,2048.168c-.368,2.857-.906,5.639-1.252,8.505a32.581,32.581,0,0,0-.282,4.374,22.392,22.392,0,0,0,.63,4.413,27.332,27.332,0,0,0,1.533,4.155,33.837,33.837,0,0,0,2.176,3.8,49.064,49.064,0,0,0,5.453,6.707c-1.414-2.512-2.941-4.929-4.291-7.406a34.794,34.794,0,0,1-3.191-7.691,22.633,22.633,0,0,1-.671-4.052c-.095-1.354-.039-2.78-.011-4.2A56.251,56.251,0,0,0-1390.2,2048.168Z" transform="translate(1551.847 -2008.617)" fill="#2b2b2b"/>
    <path id="Path_13021" data-name="Path 13021" d="M-1385.826,2081.719a12.66,12.66,0,0,1-4.95-1.087,16.092,16.092,0,0,1-4.124-2.816c-1.238-1.135-2.455-2.369-3.663-3.594s-2.42-2.438-3.566-3.706c-1.178-1.24-2.287-2.535-3.347-3.864a47.875,47.875,0,0,1-2.994-4.126,52.192,52.192,0,0,1-4.643-9.169,31.647,31.647,0,0,0,3.478,9.862,42.523,42.523,0,0,0,6.23,8.475q1.8,1.912,3.7,3.7c1.287,1.17,2.525,2.377,3.946,3.458a14.964,14.964,0,0,0,4.686,2.572A10.928,10.928,0,0,0-1385.826,2081.719Z" transform="translate(1579.545 -2008.025)" fill="#2b2b2b"/>
    <path id="Path_13022" data-name="Path 13022" d="M-1336.663,2095.91c-2.489-.244-4.406-1.664-6.414-3.029a20.358,20.358,0,0,0-3.255-1.913,26.589,26.589,0,0,0-3.592-1.179,34.737,34.737,0,0,0-7.385-.907,36.5,36.5,0,0,0-7.359.566c2.449.28,4.868.483,7.262.787a63.1,63.1,0,0,1,7.069,1.241,29.416,29.416,0,0,1,3.381,1.008,27.013,27.013,0,0,1,3.177,1.552,21.589,21.589,0,0,0,3.393,1.561A7.361,7.361,0,0,0-1336.663,2095.91Z" transform="translate(1476.406 -2003.971)" fill="#2b2b2b"/>
    <path id="Path_13023" data-name="Path 13023" d="M-1460.511,2052.261a1.353,1.353,0,0,1-1.151.4,2.107,2.107,0,0,1-1.058-.591,9.55,9.55,0,0,1-1.582-2.01,42.568,42.568,0,0,1-2.434-4.626c-.721-1.6-1.436-3.2-2.086-4.83-.666-1.63-1.316-3.243-1.9-4.913-.341-.885-.733-1.667-1.028-2.445a4.011,4.011,0,0,1-.374-2.076,1.2,1.2,0,0,1,.421-.624,4.323,4.323,0,0,1,.424-.24,4.833,4.833,0,0,1,.51-.176,2.493,2.493,0,0,1,1.99.311,6.113,6.113,0,0,1,1.73,1.638,13.445,13.445,0,0,1,1.336,2.181,19.845,19.845,0,0,1,1.046,2.394,17.605,17.605,0,0,1,.759,2.532,13.121,13.121,0,0,0-.3-2.664,17.8,17.8,0,0,0-.727-2.6,9.527,9.527,0,0,0-3.121-4.621,3.783,3.783,0,0,0-3.068-.649,6.192,6.192,0,0,0-.753.222,5.316,5.316,0,0,0-.743.382,2.831,2.831,0,0,0-1.1,1.487,5.237,5.237,0,0,0,.371,3.1c.322.881.709,1.691.993,2.462a71.639,71.639,0,0,0,4.406,9.746,31.673,31.673,0,0,0,2.951,4.511,9.448,9.448,0,0,0,1.982,1.9,2.414,2.414,0,0,0,1.328.467A1.492,1.492,0,0,0-1460.511,2052.261Z" transform="translate(1721.865 -2010.856)" fill="#2b2b2b"/>
    <path id="Path_13024" data-name="Path 13024" d="M-1421.853,2030.062a8.948,8.948,0,0,0,4.133-.365c1.343-.372,2.645-.864,3.954-1.151a5.476,5.476,0,0,1,3.718.169,3.618,3.618,0,0,1,2.237,2.571,5.6,5.6,0,0,1-.66,3.526,10.126,10.126,0,0,1-2.337,3.007,6.758,6.758,0,0,1-3.239,1.679,39.562,39.562,0,0,1-4.026.373,11.8,11.8,0,0,0-2.192.4,14.747,14.747,0,0,0-2.047.806,19.75,19.75,0,0,0-3.661,2.277,20.323,20.323,0,0,0-1.619,1.421,21.651,21.651,0,0,0-1.448,1.623,14.691,14.691,0,0,0-2.1,3.792,17.7,17.7,0,0,0-.945,4.179,25.971,25.971,0,0,0-.029,4.221,53.185,53.185,0,0,0,1.457,8.191l-.43-4.118c-.111-1.37-.191-2.742-.176-4.1a20.434,20.434,0,0,1,1.382-7.869,14.857,14.857,0,0,1,2.034-3.343c.43-.491.867-.973,1.348-1.425a19.147,19.147,0,0,1,1.53-1.263,19.309,19.309,0,0,1,3.381-2.046,13.227,13.227,0,0,1,1.806-.693,10.492,10.492,0,0,1,1.879-.322,39.3,39.3,0,0,0,4.2-.442,8.241,8.241,0,0,0,3.993-2.121,11.7,11.7,0,0,0,2.606-3.568,6.736,6.736,0,0,0,.6-4.49,4.449,4.449,0,0,0-1.167-2.078,8.276,8.276,0,0,0-.917-.729c-.329-.2-.683-.334-1.022-.5a6.4,6.4,0,0,0-4.385.056c-1.357.437-2.6,1.046-3.875,1.533A9.809,9.809,0,0,1-1421.853,2030.062Z" transform="translate(1621.305 -2010.997)" fill="#2b2b2b"/>
    <path id="Path_13025" data-name="Path 13025" d="M-1462.949,2056.024a2.98,2.98,0,0,0-2.98,2.982,2.98,2.98,0,0,0,2.98,2.98,2.981,2.981,0,0,0,2.981-2.98A2.981,2.981,0,0,0-1462.949,2056.024Z" transform="translate(1712.531 -2007.72)" fill="#2b2b2b"/>
    <path id="Path_13026" data-name="Path 13026" d="M-1424.09,2056.024a2.982,2.982,0,0,0-2.982,2.982,2.981,2.981,0,0,0,2.982,2.98,2.981,2.981,0,0,0,2.981-2.98A2.981,2.981,0,0,0-1424.09,2056.024Z" transform="translate(1630.38 -2007.72)" fill="#2b2b2b"/>
    <path id="Path_13027" data-name="Path 13027" d="M-1438.33,2022.5c7.478,6.4,4.534,22.093,1.071,40.541-1.337,7.119-2.31,13.086-1.1,16.2,2.531,6.533,5.109,9.949,3.8,13.977-1.393,4.294-7.6,8.079-12.532,6.43-5.229-1.747-6.148-8.636-6.266-9.658-.381-3.306,2.171-5.4,3.17-8.66,1.824-5.959,1.325-10.8.5-16.38-2.469-16.692-6.071-41.047,1.328-44.882C-1445.421,2018.543-1440.878,2020.319-1438.33,2022.5Z" transform="translate(1672.26 -2011.889)" fill="#f7e2c4"/>
  </g>
</svg>
