<svg xmlns="http://www.w3.org/2000/svg" xmlns:xlink="http://www.w3.org/1999/xlink" width="434" height="352" viewBox="0 0 434 352">
  <defs>
    <clipPath id="clip-path">
      <rect id="Rectangle_3464" data-name="Rectangle 3464" width="434" height="352" transform="translate(1486 725)" fill="#fff" stroke="#707070" stroke-width="1"/>
    </clipPath>
    <clipPath id="clip-path-2">
      <path id="SVGID" d="M-3516.2,2081.28l-52.756,34.136-52.757-34.136v68.8l52.757-34.135,52.756,34.135Z" transform="translate(3621.71 -2081.28)" fill="none"/>
    </clipPath>
  </defs>
  <g id="Mask_Group_21" data-name="Mask Group 21" transform="translate(-1486 -725)" clip-path="url(#clip-path)">
    <path id="Path_15775" data-name="Path 15775" d="M286.867,0C445.3,0,604.212-21.408,701.571,174.576S490.588,394.038,336.329,597.609,0,445.3,0,286.867,128.435,0,286.867,0Z" transform="matrix(-0.999, -0.035, 0.035, -0.999, 2163.815, 1427.728)" fill="#76a578"/>
    <g id="Group_490" data-name="Group 490" transform="translate(5320.759 -333.543)">
      <rect id="Rectangle_378" data-name="Rectangle 378" width="20.273" height="24.293" transform="translate(-3489.16 1368.26) rotate(-65.924)" fill="#c65454"/>
      <path id="Path_15806" data-name="Path 15806" d="M-3415.034,1399.335l-8.318-18.489-22.154,9.966,1.9,4.216h0l0,.007a7.817,7.817,0,0,0-4.619,6.882,7.825,7.825,0,0,0,7.572,8.069,7.784,7.784,0,0,0,3.46-.694l0,.006h0v0Z" transform="translate(-23.376 -31.138)" fill="#f7e2c4"/>
      <path id="Path_15807" data-name="Path 15807" d="M-3450.829,1398.333l0-.007-22.181-9.91-6.383,14.287,22.18,9.91,0-.006a7.778,7.778,0,0,0,3.462.685,7.823,7.823,0,0,0,7.551-8.088,7.815,7.815,0,0,0-4.635-6.871" transform="translate(-9.769 -34.443)" fill="#c65454"/>
      <path id="Path_15808" data-name="Path 15808" d="M-3452.062,1317.02a12.045,12.045,0,0,0-5.456-5.937,12.965,12.965,0,0,0-18.018,6.152l-25.555,58.135a7.812,7.812,0,0,0,7.152,10.956h2.078a7.812,7.812,0,0,0,7.172-4.716l17.376-40.24a3.812,3.812,0,0,1,7-.008l17.495,40.261a7.819,7.819,0,0,0,7.171,4.7h2.077a7.819,7.819,0,0,0,7.158-10.966Z" transform="translate(0 0)" fill="#c65454"/>
      <path id="Path_15809" data-name="Path 15809" d="M-3431.385,1394.876l-2.311-5.131-11.077,4.987.006.011a2.8,2.8,0,0,0-1.558,3.62,2.806,2.806,0,0,0,3.637,1.591c.077-.031.144-.075.217-.112l.009.021Z" transform="translate(-24.124 -35.024)" fill="#f7e2c4"/>
    </g>
    <g id="Group_494" data-name="Group 494" transform="translate(-1979.265 1994.018) rotate(-166)">
      <g id="Group_492" data-name="Group 492" transform="translate(-3530.295 1972.668)">
        <path id="Path_15815" data-name="Path 15815" d="M-3501.762,2086.066c-2.977-4.466-3.5-8.219-4.8-14.107a71.185,71.185,0,0,0-5.128-18.491,165.585,165.585,0,0,1-10.589-33.083c-.466-2.389.061-4.211.452-6.556.395-2.367.129-4.784.642-7.149.812-3.744,2.949-9.063,5.334-12.047,4.82-6.032,8.828-15.074,16.765-17.573,2.007-.632,4.8-1.871,6.8-2.013a19.1,19.1,0,0,1,9.938,2.208c29.129,14.309,43.694,21.464,46.9,32.119,5.992,19.9-13.75,42.075-15.7,44.266-7.48,8.4-25.388,23.471-30.307,30.159a48.935,48.935,0,0,1-4.767,5.508c-2.577,2.705-6.514,7.1-7.771,7.362C-3498.5,2097.615-3500.789,2087.526-3501.762,2086.066Z" transform="translate(3522.467 -1975.005)" fill="#f7e2c4"/>
        <path id="Path_15816" data-name="Path 15816" d="M-3493.02,2177.479c3.951-.133,7.678.769,11.614.711a36.13,36.13,0,0,1,13.035,2.112c2.175.7,4.47,1.232,6.618,1.986,2.69.943,4.426,2.941,6.771,4.386,4.416,2.722,10.04,3.163,14.738,5.568,4.472,2.29,9.14,4.665,13.719,6.612,4.724,2.009,8.571,5.458,13.531,7.022,5.515,1.738,12.532,3.01,18.193,1.27,2.871-.882,5.8-1.32,8.676-2.188,4.136-1.25,8.881-.938,12.754-3.058,4.059-2.22,7.562-3.955,10.95-7.261a35.352,35.352,0,0,0,5.491-7.507c2.025-3.288,4.1-5.688,5.276-9.473,1.146-3.688.725-7.243,1.016-10.978.23-2.962.874-5.954.905-8.924.065-6.015-.675-13.2-4.015-18.073-1.336-1.95-1.509-4.139-2.828-6.087-1.732-2.559-3.723-4.491-5.3-7.219a61.073,61.073,0,0,0-13.087-15.084c-6-5.134-14.837-7.642-22.508-9.047-4.724-.866-8.382-1.621-13.332-.944a55.236,55.236,0,0,0-11.4,3.025,51.483,51.483,0,0,0-14.457,7.741c-3.817,3.013-8.233,5.064-11.843,8.4a208.937,208.937,0,0,0-18.687,20.2c-1.048,1.261-2.273,1.925-3.231,3.372-1.806,2.726-2.9,6.058-4.617,8.868a39.311,39.311,0,0,1-5.752,7.581c-2.017,2.087-2.836,4.063-4.157,6.582-1.021,1.947-5,6.448-4.712,8.708" transform="translate(3510.985 -2024.147)" fill="#f7e2c4"/>
      </g>
      <g id="Group_493" data-name="Group 493" transform="translate(-3542.545 1969.012)">
        <path id="Path_15817" data-name="Path 15817" d="M-3507.227,2080.3a23.429,23.429,0,0,1-1.847-3.275,25.972,25.972,0,0,1-1.3-3.531c-.7-2.41-1.17-4.872-1.728-7.309v-.013c-.192-1.569-.494-3.13-.835-4.677s-.731-3.085-1.176-4.606a71.695,71.695,0,0,0-3.223-8.926,175.266,175.266,0,0,1-6.863-17.824c-.975-3.035-1.867-6.1-2.648-9.19q-.569-2.324-1.053-4.669c-.149-.79-.339-1.541-.441-2.39a11.056,11.056,0,0,1,.01-2.493c.176-1.636.612-3.176.733-4.7.138-1.545.1-3.149.323-4.775a17.488,17.488,0,0,1,.519-2.389c.217-.777.457-1.545.728-2.3a39.44,39.44,0,0,1,1.872-4.438,23.873,23.873,0,0,1,2.548-4.115c.993-1.227,1.916-2.507,2.824-3.809a92.009,92.009,0,0,1,5.677-7.687,19.7,19.7,0,0,1,7.594-5.778l4.513-1.566a20.122,20.122,0,0,1,2.319-.639,7.362,7.362,0,0,1,1.207-.15c.4-.026.8-.036,1.2-.029a17.813,17.813,0,0,1,4.751.719,25.562,25.562,0,0,1,4.439,1.814l8.574,4.169c5.713,2.786,11.421,5.59,17.016,8.633,2.8,1.522,5.561,3.115,8.241,4.855a49.094,49.094,0,0,1,7.593,5.9,19.929,19.929,0,0,1,5.282,8.137,28.222,28.222,0,0,1,1.2,9.612,38.808,38.808,0,0,1-1.678,9.515,54.382,54.382,0,0,1-3.621,8.924,82.185,82.185,0,0,1-10.715,15.9,183.378,183.378,0,0,1-13.6,13.441c-4.65,4.332-9.4,8.559-13.875,13.047l-1.645,1.712c-.52.593-1.076,1.161-1.566,1.775l-.744.916-.732.946q-.741.942-1.543,1.835c-1.069,1.187-2.2,2.308-3.295,3.454l-3.311,3.434c-.56.566-1.125,1.125-1.713,1.666a9.392,9.392,0,0,1-1.919,1.462,2.831,2.831,0,0,1-2.39-.279,6,6,0,0,1-1.744-1.661,19.806,19.806,0,0,1-2.214-4.233c-.3-.738-.576-1.484-.848-2.23A16.468,16.468,0,0,0-3507.227,2080.3Zm.1-.068a16.361,16.361,0,0,1,.929,2.207c.278.744.559,1.486.862,2.219a19.655,19.655,0,0,0,2.223,4.177,5.8,5.8,0,0,0,1.694,1.593,2.622,2.622,0,0,0,2.191.253,9.251,9.251,0,0,0,1.845-1.435c.579-.54,1.139-1.1,1.692-1.67,1.108-1.135,2.176-2.311,3.255-3.478s2.178-2.317,3.21-3.514q.771-.9,1.483-1.846l.7-.955.737-.952c.487-.638,1.031-1.221,1.545-1.834l1.615-1.766c4.393-4.618,9.017-8.989,13.62-13.367,2.3-2.193,4.6-4.384,6.848-6.616s4.487-4.471,6.541-6.856a80.965,80.965,0,0,0,10.508-15.673c2.81-5.607,4.945-11.659,5.248-17.912a27.061,27.061,0,0,0-1.091-9.219,19.181,19.181,0,0,0-4.942-7.726,48.138,48.138,0,0,0-7.356-5.879c-2.626-1.756-5.351-3.377-8.116-4.931-5.531-3.105-11.2-5.987-16.864-8.855q-4.253-2.15-8.528-4.258a25.19,25.19,0,0,0-4.362-1.811,17.418,17.418,0,0,0-4.642-.728c-.393-.01-.785,0-1.178.021a7.026,7.026,0,0,0-1.157.138,17.2,17.2,0,0,0-2.27.634l-4.481,1.591a19.247,19.247,0,0,0-7.38,5.707,87.148,87.148,0,0,0-5.514,7.737c-.885,1.32-1.8,2.636-2.782,3.9a23.234,23.234,0,0,0-2.391,4.021,38.6,38.6,0,0,0-1.754,4.371c-.251.744-.472,1.5-.669,2.254a16.567,16.567,0,0,0-.455,2.273c-.181,1.529-.141,3.116-.272,4.737-.128,1.651-.558,3.194-.709,4.721a10.006,10.006,0,0,0,0,2.261c.089.729.288,1.523.438,2.293.324,1.548.692,3.087,1.063,4.625.744,3.077,1.6,6.128,2.535,9.154q2.841,9.07,6.5,17.871a73.383,73.383,0,0,1,4.885,18.437l0-.013c.539,2.445.989,4.908,1.667,7.311a25.759,25.759,0,0,0,1.261,3.518A23.2,23.2,0,0,0-3507.125,2080.228Z" transform="translate(3537.032 -1969.012)" fill="#2b2b2b"/>
        <path id="Path_15818" data-name="Path 15818" d="M-3482.522,2175.549c3.973-.208,7.906.642,11.838.47a36.444,36.444,0,0,1,5.958.276,41.068,41.068,0,0,1,5.832,1.263c1.9.574,3.793,1.047,5.722,1.551.962.267,1.909.511,2.874.883a15.11,15.11,0,0,1,2.683,1.428,38.85,38.85,0,0,0,4.969,3.121,34.487,34.487,0,0,0,5.507,1.957c1.895.531,3.821,1.02,5.721,1.66a29.672,29.672,0,0,1,2.805,1.115l2.684,1.262c3.578,1.677,7.167,3.321,10.819,4.794.905.357,1.855.745,2.758,1.173s1.791.9,2.662,1.375c1.741.96,3.44,1.961,5.185,2.837q1.308.661,2.66,1.192a28.462,28.462,0,0,0,2.772.894,50.8,50.8,0,0,0,5.733,1.249,24.542,24.542,0,0,0,11.534-.523c1.922-.568,3.87-.952,5.776-1.427.965-.232,1.865-.519,2.854-.794.975-.253,1.961-.427,2.942-.581a49.58,49.58,0,0,0,5.794-1.062,11.943,11.943,0,0,0,2.679-1.09l2.572-1.473a39.2,39.2,0,0,0,4.907-3.261,21.962,21.962,0,0,0,4.068-4.21,38.111,38.111,0,0,0,2.933-5.113c.88-1.779,1.935-3.466,2.811-5.222a17.352,17.352,0,0,0,1.791-5.558,26.335,26.335,0,0,0-.053-5.873,49.156,49.156,0,0,1-.3-5.943c.02-1.983.117-3.957-.012-5.911a47.356,47.356,0,0,0-2.308-11.522,25.152,25.152,0,0,0-2.512-5.268c-.514-.839-1.132-1.532-1.73-2.4a22.909,22.909,0,0,1-1.415-2.663,13.109,13.109,0,0,0-1.463-2.47c-.6-.76-1.257-1.492-1.92-2.217a51.223,51.223,0,0,1-3.916-4.519,58.828,58.828,0,0,0-7.7-8.884q-2.127-2.036-4.4-3.92a49.59,49.59,0,0,0-4.67-3.538,43.526,43.526,0,0,0-10.643-4.781,84.353,84.353,0,0,0-11.483-2.591c-1.948-.332-3.883-.646-5.816-.8a26.643,26.643,0,0,0-5.784.126,49.575,49.575,0,0,0-11.269,3.1,47.937,47.937,0,0,0-10.376,5.368c-.8.553-1.569,1.148-2.319,1.765-.729.615-1.529,1.3-2.326,1.885-1.6,1.208-3.272,2.279-4.867,3.416a29.444,29.444,0,0,0-4.455,3.743q-2.058,2.117-4.016,4.331c-2.61,2.95-5.1,6.015-7.5,9.143-1.2,1.563-2.384,3.146-3.562,4.731l-.88,1.192a9.557,9.557,0,0,1-.994,1.178,11.761,11.761,0,0,0-1.9,2.147,34.7,34.7,0,0,0-2.3,5.38c-.345.929-.706,1.861-1.127,2.772s-.9,1.777-1.383,2.652a30.721,30.721,0,0,1-3.381,4.925,17.574,17.574,0,0,0-1.8,2.315,18.672,18.672,0,0,0-1.322,2.616c-.4.9-.722,1.829-1.191,2.731-.477.88-1.013,1.708-1.519,2.556a27.012,27.012,0,0,0-1.409,2.594,5.06,5.06,0,0,0-.619,2.809l-.118.027a5.184,5.184,0,0,1,.565-2.912,27.051,27.051,0,0,1,1.363-2.646c.488-.861,1.008-1.706,1.455-2.576.426-.863.739-1.819,1.118-2.73a19.058,19.058,0,0,1,1.293-2.7,18.1,18.1,0,0,1,1.78-2.408,31.49,31.49,0,0,0,3.241-4.9c.46-.862.923-1.746,1.319-2.628s.736-1.81,1.064-2.739a35.207,35.207,0,0,1,2.278-5.548,12.391,12.391,0,0,1,1.975-2.323,8.64,8.64,0,0,0,.9-1.1l.863-1.208q1.728-2.415,3.522-4.785c2.387-3.163,4.858-6.269,7.46-9.267q1.95-2.25,4.009-4.406a30.618,30.618,0,0,1,4.576-3.921c1.616-1.17,3.261-2.261,4.817-3.437.793-.59,1.5-1.193,2.277-1.854.776-.641,1.571-1.258,2.4-1.831a49.148,49.148,0,0,1,10.634-5.532,50.8,50.8,0,0,1,11.551-3.192,27.918,27.918,0,0,1,6.054-.146c2.01.158,3.98.5,5.928.841a85.586,85.586,0,0,1,11.629,2.691,44.665,44.665,0,0,1,10.906,4.973,50.729,50.729,0,0,1,4.762,3.644c1.524,1.28,3.006,2.61,4.426,4.008a59.878,59.878,0,0,1,7.713,9.1,50.457,50.457,0,0,0,3.8,4.482c.663.741,1.32,1.491,1.937,2.288a13.9,13.9,0,0,1,1.527,2.639,22.178,22.178,0,0,0,1.335,2.588c.509.766,1.2,1.572,1.707,2.429a25.923,25.923,0,0,1,2.523,5.444,47.992,47.992,0,0,1,2.2,11.709c.108,2-.017,3.979-.056,5.949a48.613,48.613,0,0,0,.274,5.9,26.744,26.744,0,0,1,.024,5.964,17.721,17.721,0,0,1-1.854,5.673c-.9,1.776-1.939,3.455-2.8,5.229a38.54,38.54,0,0,1-2.936,5.183,22.4,22.4,0,0,1-4.124,4.321,41.509,41.509,0,0,1-4.939,3.337l-2.554,1.513a12.52,12.52,0,0,1-2.785,1.184,49.949,49.949,0,0,1-5.85,1.165c-.969.168-1.931.353-2.866.61-.912.268-1.893.6-2.849.838-1.924.509-3.856.921-5.719,1.5a20.244,20.244,0,0,1-5.932,1.071,33.04,33.04,0,0,1-6-.365,52.04,52.04,0,0,1-5.858-1.247,29.656,29.656,0,0,1-2.875-.914q-1.41-.548-2.757-1.22c-3.59-1.791-6.855-3.977-10.534-5.346-3.674-1.507-7.27-3.18-10.844-4.879l-2.676-1.277a28.738,28.738,0,0,0-2.7-1.09c-1.846-.633-3.753-1.131-5.663-1.677a33.382,33.382,0,0,1-5.64-2.058,39.394,39.394,0,0,1-5.023-3.246,14.377,14.377,0,0,0-2.525-1.392c-.875-.353-1.844-.622-2.781-.9-1.891-.522-3.832-1.038-5.707-1.633a43.861,43.861,0,0,0-5.732-1.342,36.026,36.026,0,0,0-5.874-.411c-3.992.077-7.888-.864-11.84-.75Z" transform="translate(3519.141 -2019.71)" fill="#2b2b2b"/>
        <path id="Path_15819" data-name="Path 15819" d="M-3542.545,2237.464a24.407,24.407,0,0,1,1.786-2.023c.3-.326.6-.655.886-.992l.843-1.043c.582-.7,1.2-1.36,1.843-2a21.4,21.4,0,0,0,1.749-1.977,21.8,21.8,0,0,1,1.854-2q.946-.941,1.864-1.913l3.667-3.9c1.225-1.324,2.583-2.529,3.836-3.779a27.607,27.607,0,0,0,3.431-4.068c.985-1.5,1.938-3,2.908-4.524.5-.748,1-1.487,1.414-2.263a9.866,9.866,0,0,1,1.578-2.242c.292-.34.577-.675.832-1.021a10.227,10.227,0,0,0,.686-1.1,16.707,16.707,0,0,0,1.076-2.374,15.008,15.008,0,0,0,.666-2.509,8.365,8.365,0,0,0,.139-1.249c0-.207,0-.416-.011-.627s-.037-.411-.042-.695a8.831,8.831,0,0,1,.665-2.779l.794-2.544a13.041,13.041,0,0,0,.614-2.515c.121-.85.206-1.778.341-2.657.258-1.762.46-3.556.834-5.34s.827-3.5,1.219-5.24a50.564,50.564,0,0,0,.951-5.247l.312-2.662.144-1.331a9.524,9.524,0,0,0-.085-1.323l.122-.014a8.49,8.49,0,0,1,.233,1.34l-.021,1.351c-.016.9-.035,1.8-.091,2.695a44.684,44.684,0,0,1-.623,5.378c-.3,1.772-.683,3.539-1,5.274-.3,1.736-.487,3.506-.706,5.293l-.344,2.671a13.846,13.846,0,0,1-.266,1.382c-.114.479-.278.871-.416,1.307l-.866,2.565a8.04,8.04,0,0,0-.665,2.4c0,.164.02.409.025.646s.007.475,0,.716a8.116,8.116,0,0,1-.2,1.413,16.074,16.074,0,0,1-.817,2.648,14.561,14.561,0,0,1-1.266,2.454,10.992,10.992,0,0,1-.809,1.133c-.3.358-.618.687-.929,1.008a9.3,9.3,0,0,0-1.618,2.055c-.479.777-1.015,1.5-1.525,2.234-.994,1.467-1.961,2.991-2.918,4.506-.48.766-1.006,1.5-1.559,2.217s-1.11,1.42-1.708,2.1c-1.2,1.359-2.442,2.625-3.58,4-1.177,1.353-2.381,2.688-3.642,3.973q-.944.964-1.917,1.9a21.73,21.73,0,0,0-1.861,1.875,18.651,18.651,0,0,1-1.9,1.957c-.66.6-1.308,1.2-1.923,1.834-.308.312-.595.655-.927.978s-.661.623-1,.921c-.673.6-1.352,1.171-1.982,1.8Z" transform="translate(3542.545 -2044.85)" fill="#2b2b2b"/>
        <path id="Path_15820" data-name="Path 15820" d="M-3486.845,2223.127a1.557,1.557,0,0,1,.169.263l.007.016-.166.2a2.178,2.178,0,0,1-.635.526,1.2,1.2,0,0,1-.751.182,1.7,1.7,0,0,0-.806.033,1.7,1.7,0,0,0-.622.48,3.2,3.2,0,0,1-.579.508,3.1,3.1,0,0,1-.6.4,5.786,5.786,0,0,1-1.491.472l-.09-.083a2.238,2.238,0,0,1,.89-1.479,2.4,2.4,0,0,1,.741-.365,2.44,2.44,0,0,1,.813-.16,2.167,2.167,0,0,0,.8-.115,1.947,1.947,0,0,0,.638-.514,1.2,1.2,0,0,1,.7-.343,2.236,2.236,0,0,1,.815,0l-.159.215a1.542,1.542,0,0,1,.2-.243Z" transform="translate(3522.995 -2068.088)" fill="#2b2b2b"/>
      </g>
    </g>
    <g id="Group_499" data-name="Group 499" transform="translate(3987.261 -1897.708) rotate(-21)">
      <g id="Group_496" data-name="Group 496" transform="translate(-3319.235 1842.94)">
        <g id="Group_495" data-name="Group 495" transform="translate(0)">
          <path id="Path_15821" data-name="Path 15821" d="M-3167.793,1989.8a23.613,23.613,0,0,0,6.822,2.46c8.268,1.457,19.118-1.979,22.017-8.247,4.221-9.126-12.3-15.856-16.066-37.273a65.378,65.378,0,0,1,4.58-37.632c3.7-7.267,10.138-15.229,7.289-22.013-.29-.692-1.58-3.522-3.445-3.6-3.225-.134-4.862,8.1-6.983,7.925-3.485-.285-2.418-22.791-6.5-23.461-2.368-.39-6.022,6.663-7.253,13.1-2.155,11.281,3.13,20.633,5.259,23.989-5.149-7.3-11.793-15.5-15.334-14.072-1.632.658-2.048,3.138-2.245,4.3-1.765,10.487,9.637,20.827,9.173,21.227-.575.5-15.3-17.888-19.177-15.7-1.3.733-.985,3.545-.789,5.289.815,7.267,5.427,11.152,11.96,19.9,4.878,6.531,8.237,12.3,7.762,12.68-.92.726-15.173-19.387-20.741-16.723-2.088,1-2.133,4.806-2.134,5.3,0,7.478,8.235,10.909,15.062,19.253,8.375,10.236,10.96,23.64,9.1,24.719-2.423,1.4-17.8-14.865-26.167-35.913-7.538-18.971-7.663-37.509-7.653-43.718.035-20.989,5.224-36.886-1.414-40.521-1.539-.842-4.043-1.2-5.594-.094-4.082,2.908-.031,14.874-.989,15.127-.907.241-3.34-10.79-6.365-10.722-1.846.042-3.866,4.208-3.874,8.178-.015,8.161,8.485,14.148,7.779,14.924-.825.907-11-8.9-14.482-6.519-1.518,1.039-1.124,3.97-1.072,4.36.426,3.161,2.84,4.6,9.541,10.422,6.3,5.476,6.2,5.98,6.123,6.1-.353.541-4.112-1.19-6.65-2.573-6.454-3.518-8.587-6.738-10.057-6-1.428.719-1.6,4.861-.074,8.285,2.481,5.591,7.54,4.95,14.593,12.249a23.175,23.175,0,0,1,5.023,6.866,22.424,22.424,0,0,1,1.654,11.565c-3.972-4.244-8.777-8.86-17.167-17.868-10.927-11.734-16.413-17.667-17.492-21-5.545-17.105-8.225-28.316-8.225-28.316-.226-.943-.856-3.616-2.448-3.986-2.032-.472-4.413,3.1-4.532,3.28-3.724,5.7-1.412,14.16-.486,17.541,1,3.656,2.267,6.247,1.569,6.687-.58.366-2.083-1.04-4.026-2.939-5.528-5.4-8.291-8.093-9.6-9.87-7.925-10.727-4.679-19.15-11.048-22.086-2.435-1.123-5.785-1.216-7.485.409-2.326,2.224-.882,7.026-.275,9.047,2.328,7.746,8.124,12.214,7.965,12.369s-7.633-4.693-15.5-14.037c-1.933-2.292-4.157-5.173-8.2-6.566-.814-.281-5.756-1.983-8.006.406-2.147,2.278-.448,6.787-.2,7.448,1.784,4.735,5.91,7.064,11.8,10.277,12.95,7.068,19.611,10.454,19.284,11.453-.476,1.453-14.876-4.645-19.6.841-1.868,2.167-2.105,6-.491,8.013,2.123,2.645,6.229.623,15.266.781a57.619,57.619,0,0,1,19.709,3.992c5.25,2.128,11.522,5.743,11.034,7.235-.59,1.806-10.2-2.23-22.92.451-7.308,1.541-17.059,5.6-16.979,10,.056,3.022,4.774,5.2,6.26,5.889,12.595,5.825,22.231-3.85,37.69-1.184,4.611.794,8.5,3.019,16.283,7.4,15.889,8.941,29.411,21.459,28.213,23.26-.793,1.191-8.538-1.513-14.163-6.073a33.211,33.211,0,0,1-5.573-4.91c-1.544-1.663-4.682-5.273-9.282-5.608-2.939-.214-6.592.9-7.031,2.81-.864,3.753,10.94,9.578,10.85,9.722s-11.04-5.522-21.482-9.97c-3.783-1.612-8.156-3.344-10.723-1.357a4.416,4.416,0,0,0-1.715,3.6c.344,4.826,11.184,7.932,12.591,8.3-.851-.21-5.582-1.424-14.815-5.438-4.9-2.132-7.77-3.613-10.353-2.281-1.584.818-3.127,2.728-2.873,4.48.645,4.416,12.453,5.854,12.286,6.814-.206,1.2-18.286-4.041-23.766,3.062-1.916,2.485-2.6,6.879-.845,8.782,1.3,1.412,3.7,1.178,4.669,1.07,11.843-1.318,39.123-8.371,55.625-8.238,1.617.013,26.954.526,40.774,15.836.289.32,4.681,5.2,10.38,11.866C-3177.634,1982.325-3174.291,1986.584-3167.793,1989.8Z" transform="translate(3315.154 -1843.864)" fill="#c65454"/>
        </g>
      </g>
      <g id="Group_498" data-name="Group 498" transform="translate(-3212.318 1919.648)">
        <g id="Group_497" data-name="Group 497">
          <path id="Path_15822" data-name="Path 15822" d="M-3076.608,2015.008" transform="translate(3076.608 -2015.008)" fill="none"/>
        </g>
      </g>
      <path id="Path_15823" data-name="Path 15823" d="M-2993.141,2005.481a7.928,7.928,0,0,0,.6-2.859,7.725,7.725,0,0,0-.533-2.87,21.18,21.18,0,0,0-2.987-5.038c-1.172-1.572-2.414-3.092-3.61-4.648s-2.366-3.136-3.446-4.778a46.955,46.955,0,0,1-5.259-10.53,45.741,45.741,0,0,1-1.565-5.69c-.2-.963-.334-1.938-.5-2.907l-.24-1.456-.153-1.467-.154-1.468c-.053-.489-.108-.978-.121-1.471l-.14-2.949c-.006-1.968-.012-3.937.139-5.9a72.547,72.547,0,0,1,1.714-11.673c.435-1.921.968-3.819,1.577-5.693a37.278,37.278,0,0,1,2.2-5.494c1.743-3.529,3.737-6.919,5.214-10.525a20.944,20.944,0,0,0,1.537-5.571,9.541,9.541,0,0,0-.937-5.531,6.9,6.9,0,0,0-1.677-2.213,2.061,2.061,0,0,0-1.142-.482,1.673,1.673,0,0,0-1.141.385,7.085,7.085,0,0,0-1.694,2.2c-.467.843-.877,1.728-1.3,2.615a12.845,12.845,0,0,1-1.531,2.621,2.375,2.375,0,0,1-.685.551,1.228,1.228,0,0,1-1.024.021,1.8,1.8,0,0,1-.689-.607,4.293,4.293,0,0,1-.4-.7,14.659,14.659,0,0,1-.872-2.892c-.207-.971-.374-1.944-.527-2.917-.613-3.888-.988-7.8-1.8-11.609a18.82,18.82,0,0,0-.791-2.768,5.418,5.418,0,0,0-.628-1.212,1.135,1.135,0,0,0-.883-.58,1.8,1.8,0,0,0-1.045.518,6.7,6.7,0,0,0-.922,1.034,16.813,16.813,0,0,0-1.468,2.465,33.349,33.349,0,0,0-2.078,5.423,31.63,31.63,0,0,0-1.135,5.694,30.911,30.911,0,0,0,1,11.5,37.212,37.212,0,0,0,4.878,10.515l-.7.49c-1.548-2.077-3.139-4.123-4.822-6.083a40.981,40.981,0,0,0-5.445-5.438,9,9,0,0,0-3.223-1.769,2.242,2.242,0,0,0-1.589.146,2.688,2.688,0,0,0-1.078,1.241,11.373,11.373,0,0,0-.827,3.624,14.711,14.711,0,0,0,.171,3.768,22.087,22.087,0,0,0,2.677,7.113,41.436,41.436,0,0,0,4.474,6.269l1.268,1.471c.214.247.427.491.641.757a3.073,3.073,0,0,1,.33.476.9.9,0,0,1,.051.124.5.5,0,0,1-.005.335.485.485,0,0,1-.471.312.8.8,0,0,1-.2-.046,1.54,1.54,0,0,1-.3-.179,17.976,17.976,0,0,1-1.486-1.354l-1.383-1.38c-1.83-1.845-3.654-3.688-5.539-5.461a53.528,53.528,0,0,0-5.917-4.961,15.633,15.633,0,0,0-1.618-.988,5.6,5.6,0,0,0-1.692-.614,1.613,1.613,0,0,0-.764.045,1.042,1.042,0,0,0-.527.437,3.553,3.553,0,0,0-.394,1.665,13.734,13.734,0,0,0,.084,1.886c.063.636.154,1.281.264,1.9a15.95,15.95,0,0,0,1.057,3.646,27.277,27.277,0,0,0,4.1,6.461c1.616,2.016,3.331,3.974,4.979,5.99s3.261,4.065,4.789,6.177a74.16,74.16,0,0,1,4.313,6.541,10.059,10.059,0,0,1,.864,1.848,1.233,1.233,0,0,1,.051.354,1.112,1.112,0,0,1-.02.145.585.585,0,0,1-.121.217.508.508,0,0,1-.258.141.617.617,0,0,1-.191,0,1.05,1.05,0,0,1-.364-.153c-.08-.054-.16-.108-.228-.163a9.7,9.7,0,0,1-.758-.676c-.944-.922-1.82-1.878-2.71-2.826-1.771-1.9-3.542-3.794-5.393-5.6a43.427,43.427,0,0,0-5.893-4.983,10.289,10.289,0,0,0-3.388-1.592,2.9,2.9,0,0,0-1.717.11,2.711,2.711,0,0,0-1.219,1.187,8.344,8.344,0,0,0-.824,3.617c0,.158-.008.316-.006.472l.039.47c.03.312.046.627.087.938a9.915,9.915,0,0,0,.511,1.809,5.023,5.023,0,0,0,.379.863c.152.276.291.56.452.832a15.344,15.344,0,0,0,1.128,1.536,25.7,25.7,0,0,0,2.692,2.751c1.922,1.728,3.955,3.356,5.88,5.116a44.389,44.389,0,0,1,5.35,5.716,44.828,44.828,0,0,1,4.229,6.585,46.886,46.886,0,0,1,3.077,7.192,35.915,35.915,0,0,1,1.035,3.778,17.061,17.061,0,0,1,.445,3.911,4.723,4.723,0,0,1-.128,1,1.621,1.621,0,0,1-.082.251.913.913,0,0,1-.118.247.73.73,0,0,1-.181.229.711.711,0,0,1-.259.171,1.648,1.648,0,0,1-1.073-.087,5.554,5.554,0,0,1-.907-.431,20,20,0,0,1-3.125-2.376,59.909,59.909,0,0,1-5.4-5.641,101.113,101.113,0,0,1-9.1-12.657,101.194,101.194,0,0,1-7.093-13.869,101.21,101.21,0,0,0,7.2,13.8,100.944,100.944,0,0,0,9.18,12.56,59.763,59.763,0,0,0,5.416,5.57,19.711,19.711,0,0,0,3.086,2.311,5.289,5.289,0,0,0,.853.4,1.347,1.347,0,0,0,.831.083.946.946,0,0,0,.411-.654,4.336,4.336,0,0,0,.109-.926,16.734,16.734,0,0,0-.467-3.812,35.477,35.477,0,0,0-1.053-3.726,47.227,47.227,0,0,0-3.083-7.107,44.349,44.349,0,0,0-4.213-6.494,43.8,43.8,0,0,0-5.314-5.626c-1.917-1.738-3.951-3.351-5.9-5.089a26.39,26.39,0,0,1-2.765-2.8,15.809,15.809,0,0,1-1.182-1.6c-.173-.285-.322-.584-.483-.877a5.492,5.492,0,0,1-.407-.916,10.58,10.58,0,0,1-.553-1.931c-.046-.331-.065-.667-.1-1l-.042-.5c0-.168,0-.335,0-.5a11.953,11.953,0,0,1,.22-1.989,6.666,6.666,0,0,1,.668-1.927,3.366,3.366,0,0,1,1.526-1.477,3.562,3.562,0,0,1,2.11-.161,10.9,10.9,0,0,1,3.637,1.675,44.059,44.059,0,0,1,6.018,5.038c1.875,1.815,3.664,3.709,5.442,5.6.889.944,1.771,1.9,2.687,2.795a9.139,9.139,0,0,0,.7.62c.059.048.114.083.168.121l.07.04c.006,0,.037.013.008.006a.161.161,0,0,0-.071,0,.267.267,0,0,0-.154.083.221.221,0,0,0-.064.111.034.034,0,0,0-.006.024.744.744,0,0,0-.025-.125,9.76,9.76,0,0,0-.794-1.67,73.837,73.837,0,0,0-4.275-6.459c-1.52-2.1-3.121-4.133-4.769-6.133s-3.356-3.955-4.994-5.991a28.059,28.059,0,0,1-4.227-6.649,16.746,16.746,0,0,1-1.114-3.819c-.117-.659-.208-1.3-.275-1.957a14.51,14.51,0,0,1-.091-2,4.293,4.293,0,0,1,.52-2.078,1.879,1.879,0,0,1,.948-.774,2.429,2.429,0,0,1,1.159-.087,6.385,6.385,0,0,1,1.959.7,16.4,16.4,0,0,1,1.708,1.038,54.281,54.281,0,0,1,6.026,5.034c1.9,1.784,3.737,3.632,5.568,5.473l1.377,1.371a17.7,17.7,0,0,0,1.392,1.27,1.188,1.188,0,0,0,.114.075.183.183,0,0,0-.087-.016.387.387,0,0,0-.376.254.32.32,0,0,0-.012.217s.01.023,0,.012a2.7,2.7,0,0,0-.23-.318c-.194-.241-.408-.485-.62-.729l-1.278-1.479a42.273,42.273,0,0,1-4.576-6.4,22.934,22.934,0,0,1-2.792-7.4,15.6,15.6,0,0,1-.174-4,18.867,18.867,0,0,1,.291-1.977,8.4,8.4,0,0,1,.628-1.956,3.555,3.555,0,0,1,1.456-1.632,3.122,3.122,0,0,1,2.2-.225,9.767,9.767,0,0,1,3.566,1.937,41.8,41.8,0,0,1,5.561,5.566c1.7,1.985,3.3,4.047,4.85,6.137l-.695.489a38.052,38.052,0,0,1-4.973-10.764,31.726,31.726,0,0,1-1.011-11.813,32.329,32.329,0,0,1,1.171-5.833,34.091,34.091,0,0,1,2.138-5.553,17.5,17.5,0,0,1,1.545-2.583,7.4,7.4,0,0,1,1.038-1.156,3.631,3.631,0,0,1,.679-.472,1.876,1.876,0,0,1,.881-.239,1.567,1.567,0,0,1,.914.289,2.57,2.57,0,0,1,.607.614,6.176,6.176,0,0,1,.725,1.392,19.77,19.77,0,0,1,.823,2.887c.817,3.879,1.184,7.794,1.787,11.658.15.965.314,1.927.515,2.876a14.336,14.336,0,0,0,.812,2.737,1.97,1.97,0,0,0,.715.945.475.475,0,0,0,.4-.013,1.692,1.692,0,0,0,.45-.371,12.363,12.363,0,0,0,1.432-2.448c.429-.878.847-1.773,1.335-2.645a7.693,7.693,0,0,1,1.9-2.411,2.971,2.971,0,0,1,.734-.4,2.235,2.235,0,0,1,.858-.114,2.744,2.744,0,0,1,1.526.634,7.528,7.528,0,0,1,1.852,2.445,9.533,9.533,0,0,1,.936,2.887,11.415,11.415,0,0,1,.044,3.02,21.574,21.574,0,0,1-1.605,5.735c-1.519,3.658-3.534,7.045-5.28,10.543a36.719,36.719,0,0,0-2.2,5.412c-.612,1.855-1.149,3.737-1.59,5.641a72.09,72.09,0,0,0-1.754,11.586c-.156,1.95-.164,3.907-.175,5.863l.116,2.932c.008.49.059.976.108,1.463l.141,1.461.141,1.461.228,1.45c.162.965.284,1.937.479,2.9a45.376,45.376,0,0,0,1.51,5.664,46.663,46.663,0,0,0,5.15,10.519c1.063,1.645,2.214,3.234,3.4,4.8s2.413,3.094,3.574,4.678a21.263,21.263,0,0,1,2.956,5.078,7.754,7.754,0,0,1,.513,2.886A7.935,7.935,0,0,1-2993.141,2005.481Z" transform="translate(-150.134 -25.598)" fill="#2b2b2b"/>
      <path id="Path_15824" data-name="Path 15824" d="M-3179.418,2039.311a1.036,1.036,0,0,1-.776.353,5.067,5.067,0,0,1-.88.01,12.676,12.676,0,0,1-1.742-.254,27.27,27.27,0,0,1-3.386-.963,36.831,36.831,0,0,1-6.389-2.957c-1.023-.592-1.971-1.28-2.978-1.872a23.6,23.6,0,0,1-2.886-2.043c-.913-.742-1.781-1.547-2.652-2.316a21.176,21.176,0,0,0-2.775-2.088,10.643,10.643,0,0,0-6.528-1.709,10.835,10.835,0,0,0-3.31.821,6.591,6.591,0,0,0-1.456.834,2.6,2.6,0,0,0-.943,1.229,1.8,1.8,0,0,0,.228,1.448,5.776,5.776,0,0,0,1.039,1.29,17.394,17.394,0,0,0,2.749,2.071,54.665,54.665,0,0,0,6.184,3.238l.8.372.2.1a2.133,2.133,0,0,1,.244.135c.06.071-.022-.076.151.18.224.5-.522.578-.386.536a.727.727,0,0,1-.125-.021l-.128-.037-.22-.073c-.564-.2-1.108-.41-1.657-.619l-3.281-1.264q-3.279-1.263-6.57-2.489t-6.607-2.381c-2.211-.758-4.429-1.54-6.657-2.168a19.057,19.057,0,0,0-3.37-.65,6.325,6.325,0,0,0-3.218.427,3.811,3.811,0,0,0-.658.421,3,3,0,0,0-.564.543,4.277,4.277,0,0,0-.761,1.389,3.417,3.417,0,0,0-.152,1.535,3.363,3.363,0,0,0,.59,1.422,8.052,8.052,0,0,0,2.5,2.154,20.37,20.37,0,0,0,3.1,1.475,39.594,39.594,0,0,0,6.683,1.868l-.142.843a88.983,88.983,0,0,1-10.5-2.684c-1.722-.532-3.432-1.1-5.135-1.682s-3.39-1.208-5.1-1.644a9.23,9.23,0,0,0-2.555-.338,4.248,4.248,0,0,0-2.328.74,5.753,5.753,0,0,0-1.69,1.844,3.362,3.362,0,0,0-.488,2.32,3.306,3.306,0,0,0,1.434,1.892,10.641,10.641,0,0,0,2.317,1.183,35.853,35.853,0,0,0,5.144,1.418c.877.194,1.756.363,2.645.6a5.664,5.664,0,0,1,.678.222,1.189,1.189,0,0,1,.384.234.444.444,0,0,1,.123.441.479.479,0,0,1-.272.292,2.348,2.348,0,0,1-.768.141c-.234.013-.464.016-.692.015-1.816-.026-3.6-.146-5.394-.177s-3.582-.021-5.364.114a27.414,27.414,0,0,0-5.271.858,11.519,11.519,0,0,0-4.687,2.4,8.14,8.14,0,0,0-2.417,4.619,8.891,8.891,0,0,0-.118,2.655,4.908,4.908,0,0,0,.914,2.457,3.4,3.4,0,0,0,2.308,1.18,8.629,8.629,0,0,0,2.676-.149,8.643,8.643,0,0,1-2.682.207,3.49,3.49,0,0,1-2.392-1.163,4.976,4.976,0,0,1-.988-2.512,9.073,9.073,0,0,1,.075-2.713,8.4,8.4,0,0,1,2.421-4.8,11.861,11.861,0,0,1,4.783-2.551,26.794,26.794,0,0,1,5.341-.949c1.8-.156,3.608-.189,5.41-.169s3.606.116,5.385.123c.221,0,.441-.007.656-.021a2.046,2.046,0,0,0,.553-.091c.018-.007,0-.02-.038.067a.167.167,0,0,0,.021.141.806.806,0,0,0-.195-.1,5.2,5.2,0,0,0-.6-.189c-.852-.216-1.74-.379-2.62-.564a36.488,36.488,0,0,1-5.254-1.395,11.308,11.308,0,0,1-2.484-1.241,5.26,5.26,0,0,1-1.069-.968,3.281,3.281,0,0,1-.673-1.341,4.078,4.078,0,0,1,.543-2.852,6.5,6.5,0,0,1,1.916-2.1,5.148,5.148,0,0,1,1.3-.645,5.354,5.354,0,0,1,1.428-.239,9.989,9.989,0,0,1,2.772.352c1.779.449,3.466,1.078,5.168,1.646s3.4,1.133,5.117,1.657a88.353,88.353,0,0,0,10.392,2.623l-.142.842a40.359,40.359,0,0,1-6.848-1.89,21.261,21.261,0,0,1-3.244-1.531,8.725,8.725,0,0,1-2.778-2.412,4.263,4.263,0,0,1-.731-1.8,4.306,4.306,0,0,1,.191-1.933,5.158,5.158,0,0,1,.924-1.672,3.815,3.815,0,0,1,.7-.671,4.671,4.671,0,0,1,.821-.52,7.162,7.162,0,0,1,3.668-.5,19.872,19.872,0,0,1,3.522.688c2.282.652,4.484,1.439,6.7,2.207s4.418,1.585,6.615,2.408,4.386,1.665,6.571,2.514l3.276,1.275c.545.21,1.093.424,1.633.617l.2.067.083.025c.008,0,.025,0-.018,0,.148-.039-.558.036-.355.517.164.24.063.085.11.144l-.143-.075-.192-.093-.792-.374a55.324,55.324,0,0,1-6.231-3.344,17.98,17.98,0,0,1-2.835-2.183,6.366,6.366,0,0,1-1.14-1.452,2.424,2.424,0,0,1-.26-1.93,3.183,3.183,0,0,1,1.163-1.517,7.169,7.169,0,0,1,1.593-.9,11.4,11.4,0,0,1,3.493-.831,10.058,10.058,0,0,1,3.569.37,12.95,12.95,0,0,1,3.252,1.478,20.687,20.687,0,0,1,2.812,2.166c.873.8,1.712,1.6,2.606,2.351a23.236,23.236,0,0,0,2.814,2.062c1,.613,1.947,1.32,2.944,1.917a36.619,36.619,0,0,0,6.3,3.042,28.128,28.128,0,0,0,3.352,1.029,12.753,12.753,0,0,0,1.729.291,5.058,5.058,0,0,0,.875.009A1.025,1.025,0,0,0-3179.418,2039.311Z" transform="translate(-30.968 -100.819)" fill="#2b2b2b"/>
      <path id="Path_15825" data-name="Path 15825" d="M-3249.455,1947.655q2.592.9,5.09,2.063a30.873,30.873,0,0,1,4.8,2.694,7.516,7.516,0,0,1,1.058.909,2.416,2.416,0,0,1,.419.592.773.773,0,0,1-.026.795,1.14,1.14,0,0,1-.684.364,4.19,4.19,0,0,1-.707.079c-.467.02-.928,0-1.388-.024-1.834-.111-3.651-.29-5.476-.366a50.828,50.828,0,0,0-10.892.548,46.416,46.416,0,0,0-10.442,3.063,35.971,35.971,0,0,0-4.843,2.454,13.3,13.3,0,0,0-4,3.463,3.322,3.322,0,0,0-.656,2.315,3.785,3.785,0,0,0,1.191,2.129,14.881,14.881,0,0,0,4.529,2.767,21.117,21.117,0,0,0,5.152,1.52,21.835,21.835,0,0,0,5.368.1,68.288,68.288,0,0,0,10.626-2.416,50.3,50.3,0,0,1,10.884-1.921,32.986,32.986,0,0,1,5.55.208,23.052,23.052,0,0,1,5.414,1.315,54.227,54.227,0,0,1,5.068,2.212c1.652.8,3.281,1.643,4.908,2.48s3.262,1.675,4.864,2.571,3.186,1.823,4.75,2.784q4.69,2.881,9.139,6.128a90.633,90.633,0,0,1,8.521,6.965c.665.635,1.314,1.287,1.928,1.978.306.345.6.7.88,1.075a4.972,4.972,0,0,1,.7,1.236,1.292,1.292,0,0,1,.07.388.58.58,0,0,1-.148.423,1.116,1.116,0,0,1-.729.3,5.486,5.486,0,0,1-1.407-.092,18.053,18.053,0,0,1-2.669-.716,35.14,35.14,0,0,1-9.661-5.17,33.909,33.909,0,0,0,4.687,2.84,35.164,35.164,0,0,0,5.048,2.1,17.887,17.887,0,0,0,2.641.657,5.214,5.214,0,0,0,1.325.065.844.844,0,0,0,.516-.2c.1-.091.07-.3,0-.491a8.016,8.016,0,0,0-1.552-2.158c-.615-.667-1.27-1.3-1.94-1.917a91.008,91.008,0,0,0-8.552-6.827q-4.457-3.184-9.165-6c-3.134-1.879-6.34-3.61-9.61-5.254-1.63-.831-3.259-1.662-4.9-2.454a53.535,53.535,0,0,0-5-2.16,22.2,22.2,0,0,0-5.235-1.252,32.133,32.133,0,0,0-5.41-.183,49.619,49.619,0,0,0-10.691,1.93,68.966,68.966,0,0,1-10.773,2.4,22.706,22.706,0,0,1-5.581-.128,21.932,21.932,0,0,1-5.346-1.6,15.6,15.6,0,0,1-4.77-2.955,4.559,4.559,0,0,1-1.407-2.588,3.306,3.306,0,0,1,.137-1.519,5.127,5.127,0,0,1,.655-1.327,10.048,10.048,0,0,1,1.957-2.068,19.164,19.164,0,0,1,2.291-1.6,36.672,36.672,0,0,1,4.97-2.45,47.027,47.027,0,0,1,10.617-2.986,50.893,50.893,0,0,1,11-.427c1.832.109,3.657.323,5.473.466.454.033.909.06,1.356.049a3.879,3.879,0,0,0,.656-.061.881.881,0,0,0,.516-.242.5.5,0,0,0,.006-.511,2.171,2.171,0,0,0-.363-.529,7.363,7.363,0,0,0-1.006-.895,30.87,30.87,0,0,0-4.715-2.762Q-3246.882,1948.628-3249.455,1947.655Z" transform="translate(-24.576 -58.195)" fill="#2b2b2b"/>
      <path id="Path_15826" data-name="Path 15826" d="M-3160.925,1921.24a21.881,21.881,0,0,1,1.157,2.721,20.494,20.494,0,0,1,.742,2.868,22.687,22.687,0,0,1,.342,2.946c.054.988.041,1.98,0,2.966l-.013.325-.235-.228c-2.041-1.975-4.141-3.89-6.219-5.831s-4.152-3.887-6.208-5.853-4.1-3.947-6.126-5.94-4.058-3.983-6.064-6-4.008-4.039-5.958-6.121c-.974-1.041-1.935-2.1-2.854-3.2a22.8,22.8,0,0,1-2.529-3.529,8.837,8.837,0,0,1-.476-1.018l-.367-1-.734-2-1.437-4.019c-.957-2.679-1.861-5.378-2.753-8.08s-1.756-5.414-2.59-8.135q-.625-2.042-1.22-4.094c-.2-.691-.369-1.369-.617-2a5.424,5.424,0,0,0-.968-1.714,1.862,1.862,0,0,0-.705-.5,1.443,1.443,0,0,0-.819-.02,4.132,4.132,0,0,0-1.612,1.029,11.46,11.46,0,0,0-1.33,1.568,12.006,12.006,0,0,0-1.016,1.784,16.469,16.469,0,0,0-1.035,8.186,40.518,40.518,0,0,0,1.847,8.245c.423,1.349.931,2.669,1.407,4.017.117.339.232.678.327,1.033a4.8,4.8,0,0,1,.118.547,1.507,1.507,0,0,1-.016.626.61.61,0,0,1-.225.336.984.984,0,0,1-.193.092,1.326,1.326,0,0,1-.192.022,1.506,1.506,0,0,1-.6-.173,5.849,5.849,0,0,1-.927-.6c-1.139-.888-2.156-1.879-3.206-2.838l-3.129-2.9c-1.04-.97-2.079-1.94-3.1-2.934a34.985,34.985,0,0,1-2.912-3.116,35.113,35.113,0,0,0,3,3.026q1.566,1.445,3.161,2.86l3.19,2.829c1.069.935,2.115,1.908,3.238,2.745a5.565,5.565,0,0,0,.868.541,1.12,1.12,0,0,0,.416.12c.115-.009.143-.029.177-.134a2.152,2.152,0,0,0-.118-.924c-.093-.332-.21-.664-.329-1-.489-1.326-1.02-2.654-1.466-4.012a41.083,41.083,0,0,1-1.984-8.343,20.733,20.733,0,0,1-.055-4.325,13.945,13.945,0,0,1,1.043-4.235,12.733,12.733,0,0,1,1.083-1.92,12.234,12.234,0,0,1,1.417-1.685,4.855,4.855,0,0,1,1.953-1.23,2.234,2.234,0,0,1,1.28.034,2.639,2.639,0,0,1,1.027.7,10.024,10.024,0,0,1,1.784,4.032q.6,2.041,1.233,4.075,1.266,4.066,2.62,8.107c.9,2.694,1.827,5.378,2.76,8.061l1.417,4.018.724,2,.362,1a8.023,8.023,0,0,0,.424.912,22.055,22.055,0,0,0,2.419,3.4c.9,1.086,1.846,2.138,2.81,3.176,1.928,2.077,3.917,4.106,5.913,6.128,4.009,4.028,7.985,8.094,12.045,12.069,4.045,3.991,8.214,7.857,12.229,11.892l-.248.1c.061-.983.095-1.962.063-2.943a22.556,22.556,0,0,0-.276-2.928,21.985,21.985,0,0,0-.662-2.869A21.847,21.847,0,0,0-3160.925,1921.24Z" transform="translate(-54.73 -11.449)" fill="#2b2b2b"/>
      <path id="Path_15827" data-name="Path 15827" d="M-3277.852,1864.758a32.977,32.977,0,0,1-3.6-5.444,38.189,38.189,0,0,1-2.482-6.046,60.28,60.28,0,0,0-2.095-6.159,7.971,7.971,0,0,0-1.827-2.593,7.136,7.136,0,0,0-2.774-1.487,9.142,9.142,0,0,0-3.146-.354,5.374,5.374,0,0,0-2.906,1,3,3,0,0,0-.529.54,3.468,3.468,0,0,0-.408.637,4.764,4.764,0,0,0-.4,1.484,9.92,9.92,0,0,0,.218,3.154,24.385,24.385,0,0,0,.9,3.1,23.6,23.6,0,0,0,1.246,2.972,26.922,26.922,0,0,0,3.572,5.354,31.707,31.707,0,0,0,2.216,2.348c.389.376.785.731,1.193,1.108l.159.154a1.2,1.2,0,0,1,.1.108.442.442,0,0,1,.1.217c-.156.638-.531.381-.477.424a1.356,1.356,0,0,1-.276-.1l-.2-.1c-.254-.132-.492-.272-.73-.415a54.192,54.192,0,0,1-5.349-3.824,85.532,85.532,0,0,1-9.562-8.966,27.658,27.658,0,0,0-4.651-4.428,14.076,14.076,0,0,0-5.852-2.3,9.815,9.815,0,0,0-3.109-.064,4.766,4.766,0,0,0-1.41.462,3.063,3.063,0,0,0-1.062.937,3.359,3.359,0,0,0-.351.623,4.546,4.546,0,0,0-.2.7,5.572,5.572,0,0,0-.093,1.509,11.4,11.4,0,0,0,.666,3.058,12.34,12.34,0,0,0,1.394,2.816,12.6,12.6,0,0,0,2.078,2.361,27.554,27.554,0,0,0,5.359,3.52c1.909,1.016,3.87,1.968,5.816,2.942l5.85,2.9c1.95.969,3.9,1.938,5.839,2.937.969.5,1.936,1.008,2.893,1.545.478.27.954.545,1.422.845.234.152.468.306.7.481a3.218,3.218,0,0,1,.677.64,1.02,1.02,0,0,1,.148.3l.025.1a.841.841,0,0,1,0,.129.533.533,0,0,1-.072.259.681.681,0,0,1-.334.294,1.23,1.23,0,0,1-.286.084,3.926,3.926,0,0,1-.909.017c-.566-.042-1.108-.124-1.651-.207l-3.222-.524a37.877,37.877,0,0,0-6.435-.562,14.992,14.992,0,0,0-3.166.363,7.226,7.226,0,0,0-2.82,1.289,5.451,5.451,0,0,0-1.743,2.505,7.255,7.255,0,0,0-.385,3.089,5.189,5.189,0,0,0,1.083,2.85,3.586,3.586,0,0,0,2.723,1.16,20.888,20.888,0,0,0,3.213-.2l3.244-.384a65.4,65.4,0,0,1,6.537-.364,57.975,57.975,0,0,1,6.53.409,56.372,56.372,0,0,1,12.695,3,56.274,56.274,0,0,0-12.719-2.78,57.75,57.75,0,0,0-6.5-.3,65.01,65.01,0,0,0-6.49.471l-3.236.419a21.246,21.246,0,0,1-3.295.234,7.887,7.887,0,0,1-.844-.081c-.141-.025-.28-.067-.42-.1a1.9,1.9,0,0,1-.413-.134,3.667,3.667,0,0,1-1.426-1,5.724,5.724,0,0,1-1.241-3.144,7.835,7.835,0,0,1,.385-3.342,6.072,6.072,0,0,1,1.914-2.8,7.867,7.867,0,0,1,3.056-1.438,15.61,15.61,0,0,1,3.306-.412,38.562,38.562,0,0,1,6.564.509l3.225.51c.534.08,1.069.158,1.588.195a3.322,3.322,0,0,0,.719-.01c.095-.006.159-.078.078.01a.368.368,0,0,0-.023.065.058.058,0,0,0,0,.028h0c.011.009-.022-.034-.034-.06a2.593,2.593,0,0,0-.514-.468c-.2-.155-.426-.3-.648-.444-.449-.285-.916-.554-1.386-.818-.943-.526-1.906-1.027-2.872-1.523-1.934-.988-3.886-1.951-5.837-2.913l-5.859-2.884c-1.95-.969-3.909-1.912-5.847-2.935a28.37,28.37,0,0,1-5.539-3.622,13.432,13.432,0,0,1-2.23-2.52,13.061,13.061,0,0,1-1.5-3.015,12.261,12.261,0,0,1-.706-3.3,6.441,6.441,0,0,1,.115-1.738,5.4,5.4,0,0,1,.254-.86,4.278,4.278,0,0,1,.448-.795,3.94,3.94,0,0,1,1.364-1.2,5.637,5.637,0,0,1,1.679-.549,10.664,10.664,0,0,1,3.39.073,16.6,16.6,0,0,1,3.23.877,14.229,14.229,0,0,1,2.959,1.583,28.379,28.379,0,0,1,4.776,4.564,84.7,84.7,0,0,0,9.446,8.912,55.4,55.4,0,0,0,5.253,3.789c.228.139.458.276.686.4l.167.085c.046.024.123.051.1.046.082.046-.237-.2-.394.4.034.147.049.118.047.129l-.04-.044-.133-.131c-.388-.365-.8-.741-1.188-1.125a32.3,32.3,0,0,1-2.241-2.421,27.561,27.561,0,0,1-3.607-5.519,24.208,24.208,0,0,1-1.249-3.058,24.959,24.959,0,0,1-.885-3.178,10.428,10.428,0,0,1-.194-3.333,5.267,5.267,0,0,1,.468-1.645,3.972,3.972,0,0,1,.476-.729,3.5,3.5,0,0,1,.616-.615,5.847,5.847,0,0,1,3.184-1.077,9.4,9.4,0,0,1,3.3.408,7.544,7.544,0,0,1,2.905,1.622,8.324,8.324,0,0,1,1.867,2.738,60.224,60.224,0,0,1,2.006,6.23,37.993,37.993,0,0,0,2.37,6.062A32.915,32.915,0,0,0-3277.852,1864.758Z" fill="#2b2b2b"/>
      <path id="Path_15828" data-name="Path 15828" d="M-3095.482,1935.947a103.035,103.035,0,0,1-5.378-15.3c-.172-.654-.354-1.307-.518-1.963l-.466-1.977c-.329-1.314-.568-2.647-.853-3.971-.5-2.661-.961-5.331-1.292-8.021a139.515,139.515,0,0,1-1.065-16.211c-.047-5.42.225-10.835.527-16.233.145-2.7.3-5.4.328-8.09.016-1.346,0-2.689-.1-4.022a19.256,19.256,0,0,0-.632-3.916,8.318,8.318,0,0,0-.743-1.783,4.917,4.917,0,0,0-1.192-1.447,5.784,5.784,0,0,0-3.519-1.212,3.528,3.528,0,0,0-3.186,1.424,7.048,7.048,0,0,0-.852,3.68,40.385,40.385,0,0,0,1.072,7.943,13.8,13.8,0,0,1,.3,2.086,1.465,1.465,0,0,1-.037.354.67.67,0,0,1-.138.281.526.526,0,0,1-.21.156.548.548,0,0,1-.275.036.582.582,0,0,1-.2-.064.593.593,0,0,1-.121-.079,1.058,1.058,0,0,1-.148-.144,2.283,2.283,0,0,1-.185-.254,8.712,8.712,0,0,1-.5-.948c-.57-1.252-1.061-2.5-1.609-3.732a25.69,25.69,0,0,0-1.83-3.536c-.678-1.047-1.717-2.222-2.595-1.493a4.179,4.179,0,0,0-1.16,1.382,9.277,9.277,0,0,0-.772,1.776,13.229,13.229,0,0,0-.659,3.851,13.676,13.676,0,0,0,2.217,7.429,25.407,25.407,0,0,0,2.353,3.215c.863,1.022,1.795,1.977,2.731,2.972.233.253.466.5.692.8a2.813,2.813,0,0,1,.168.248,1.145,1.145,0,0,1,.151.371.651.651,0,0,1-.032.366.6.6,0,0,1-.314.312.821.821,0,0,1-.5.031,4.261,4.261,0,0,1-1.048-.448c-.306-.169-.6-.347-.892-.527-1.159-.724-2.277-1.477-3.416-2.195s-2.287-1.413-3.473-2.016a11.227,11.227,0,0,0-3.665-1.274,2.175,2.175,0,0,0-1.627.373,2.441,2.441,0,0,0-.757,1.52,7.071,7.071,0,0,0-.025,1.91,5.9,5.9,0,0,0,.472,1.835,9.262,9.262,0,0,0,2.465,2.968c1,.883,2.064,1.716,3.121,2.557,2.119,1.679,4.244,3.361,6.314,5.112,1.032.883,2.062,1.76,3.037,2.737a6.435,6.435,0,0,1,.708.816.985.985,0,0,1,.167.36.521.521,0,0,1,0,.212.456.456,0,0,1-.115.205.448.448,0,0,1-.137.108.485.485,0,0,1-.126.054,1.535,1.535,0,0,1-.663.009,11.461,11.461,0,0,1-2.008-.6,46.59,46.59,0,0,1-7.322-3.612c-1.163-.708-2.289-1.475-3.393-2.26-.552-.39-1.1-.787-1.656-1.145a6.083,6.083,0,0,0-.845-.467,1.256,1.256,0,0,0-.8-.128,1.019,1.019,0,0,0-.581.513,2.978,2.978,0,0,0-.325.864,7.3,7.3,0,0,0-.136,1.943,12.318,12.318,0,0,0,.845,3.862,9.583,9.583,0,0,0,2.1,3.319,14.694,14.694,0,0,0,3.237,2.316c1.169.666,2.374,1.291,3.537,2a33.968,33.968,0,0,1,3.366,2.3c.549.4,1.049.864,1.576,1.292.5.455,1,.92,1.493,1.384a34.981,34.981,0,0,1,2.787,2.963,19.383,19.383,0,0,1,3.691,7.2,23.988,23.988,0,0,1,.69,8.055,23.944,23.944,0,0,0-.8-8.025,19.208,19.208,0,0,0-3.755-7.085,34.855,34.855,0,0,0-2.809-2.905c-.5-.454-.995-.908-1.5-1.353-.528-.418-1.029-.869-1.577-1.259a33.569,33.569,0,0,0-3.362-2.227c-1.16-.683-2.366-1.287-3.555-1.944a14.864,14.864,0,0,1-3.358-2.364,10.069,10.069,0,0,1-2.237-3.467,12.848,12.848,0,0,1-.911-4.022,7.825,7.825,0,0,1,.134-2.091,3.493,3.493,0,0,1,.382-1.027,1.568,1.568,0,0,1,.914-.775,1.8,1.8,0,0,1,1.17.146,6.591,6.591,0,0,1,.933.5c.584.369,1.135.763,1.689,1.149,1.106.775,2.222,1.522,3.375,2.211a45.963,45.963,0,0,0,7.238,3.5,10.988,10.988,0,0,0,1.873.554,1.05,1.05,0,0,0,.343.012c.008,0,0,0-.01.005s-.015.012-.038.032a.267.267,0,0,0-.048.1.222.222,0,0,0-.008.086c.012.037-.023-.044-.06-.09a5.97,5.97,0,0,0-.628-.705c-.944-.931-1.98-1.8-3.009-2.669-2.068-1.731-4.186-3.406-6.312-5.079-1.06-.84-2.129-1.673-3.16-2.577a17.842,17.842,0,0,1-1.488-1.448,7.329,7.329,0,0,1-1.182-1.781,6.731,6.731,0,0,1-.542-2.073,7.857,7.857,0,0,1,.027-2.134,3.227,3.227,0,0,1,1.04-2.015,2.407,2.407,0,0,1,1.083-.505,3.774,3.774,0,0,1,1.128-.051,8.246,8.246,0,0,1,2.068.511,18.372,18.372,0,0,1,1.9.839c1.226.62,2.4,1.323,3.546,2.046s2.278,1.476,3.415,2.182c.284.175.57.346.855.5a3.721,3.721,0,0,0,.807.357c.049.018.084-.007,0,.022a.264.264,0,0,0-.135.143.2.2,0,0,0-.019.117.649.649,0,0,0-.047-.092,2,2,0,0,0-.117-.171c-.183-.241-.41-.487-.636-.73a37.1,37.1,0,0,1-5.206-6.313,17.1,17.1,0,0,1-1.751-3.766,12.742,12.742,0,0,1-.612-4.137,14.119,14.119,0,0,1,.714-4.113,10.179,10.179,0,0,1,.848-1.934,4.972,4.972,0,0,1,1.445-1.677,2.593,2.593,0,0,1,.557-.278,2.169,2.169,0,0,1,.667-.081,2.231,2.231,0,0,1,1.149.474,6.479,6.479,0,0,1,1.424,1.637,26.518,26.518,0,0,1,1.889,3.665c.55,1.243,1.045,2.512,1.594,3.722a7.869,7.869,0,0,0,.439.849,1.566,1.566,0,0,0,.112.157c.019.041.092.043-.062,0a.317.317,0,0,0-.264.1c-.043.057-.034.062-.034.053a.753.753,0,0,0,.012-.15,13.647,13.647,0,0,0-.282-1.923,41.029,41.029,0,0,1-1.067-8.112,11.353,11.353,0,0,1,.207-2.091,5.714,5.714,0,0,1,.787-2.021,3.675,3.675,0,0,1,1.729-1.412,5.41,5.41,0,0,1,2.145-.364,6.557,6.557,0,0,1,4,1.4,5.69,5.69,0,0,1,1.368,1.664,9.09,9.09,0,0,1,.809,1.951,19.944,19.944,0,0,1,.651,4.08c.091,1.365.112,2.728.083,4.086-.053,2.717-.225,5.419-.39,8.119-.343,5.4-.655,10.792-.648,16.191a140.907,140.907,0,0,0,.933,16.16c.294,2.685.721,5.352,1.181,8.013.267,1.324.488,2.657.8,3.972l.439,1.978c.154.657.328,1.31.49,1.966A103.039,103.039,0,0,0-3095.482,1935.947Z" transform="translate(-104.431 -4.867)" fill="#2b2b2b"/>
      <path id="Path_15829" data-name="Path 15829" d="M-3253.25,2091.547c3.5-.49,6.952-1.2,10.408-1.9l10.357-2.181c6.909-1.439,13.839-2.805,20.83-3.859,3.5-.492,7.01-.951,10.552-1.135.884-.069,1.773-.059,2.66-.092.445-.008.884-.031,1.334-.025s.891.023,1.335.041c1.775.083,3.542.243,5.3.464a61.262,61.262,0,0,1,20.345,6c.8.4,1.561.86,2.334,1.3.75.48,1.516.939,2.237,1.466.741.5,1.436,1.06,2.142,1.6.675.584,1.374,1.143,2,1.776.318.314.656.608.956.939l.913.982c.306.326.576.684.865,1.024s.571.689.828,1.045l3.175,4.24c2.11,2.831,4.247,5.643,6.335,8.489s4.1,5.742,6.4,8.387a28.4,28.4,0,0,0,3.757,3.633,27.888,27.888,0,0,0,4.4,2.825,19.817,19.817,0,0,0,4.835,1.941,20.784,20.784,0,0,0,5.191.522,27.469,27.469,0,0,0,5.212-.59,29.313,29.313,0,0,0,5.015-1.573,21.656,21.656,0,0,0,4.545-2.635,12.963,12.963,0,0,0,3.5-3.9,13.032,13.032,0,0,1-3.42,4.007,21.757,21.757,0,0,1-4.534,2.747,29.607,29.607,0,0,1-5.037,1.686,27.838,27.838,0,0,1-5.276.7,21.02,21.02,0,0,1-5.318-.47,20.347,20.347,0,0,1-4.983-1.931,28.391,28.391,0,0,1-4.525-2.832,29,29,0,0,1-3.885-3.669c-2.368-2.66-4.414-5.549-6.5-8.387s-4.241-5.634-6.359-8.452l-3.186-4.221c-.26-.359-.539-.693-.818-1.025s-.546-.678-.845-.994l-.893-.952c-.293-.322-.625-.606-.935-.912-.616-.615-1.3-1.156-1.961-1.724-.692-.53-1.372-1.076-2.1-1.559-.706-.513-1.458-.958-2.194-1.426-.759-.432-1.509-.877-2.29-1.269a60.427,60.427,0,0,0-20.035-5.986c-6.967-1.073-14.005-.26-20.985.618-6.979.967-13.916,2.257-20.84,3.607l-10.4,1.985C-3246.265,2090.521-3249.742,2091.152-3253.25,2091.547Z" transform="translate(-38.24 -132.52)" fill="#2b2b2b"/>
    </g>
    <g id="Group_502" data-name="Group 502" transform="translate(5425.96 -1159.022)">
      <path id="Path_15830" data-name="Path 15830" d="M-3507.363,2153.775a1.949,1.949,0,0,1-1.949,1.949,1.95,1.95,0,0,1-1.95-1.949,1.95,1.95,0,0,1,1.95-1.95A1.95,1.95,0,0,1-3507.363,2153.775Z" transform="translate(-59.641 -38.094)" fill="#c65454"/>
      <g id="Group_501" data-name="Group 501" transform="translate(-3621.71 2081.28)">
        <g id="Group_500" data-name="Group 500" clip-path="url(#clip-path-2)">
          <path id="Path_15831" data-name="Path 15831" d="M-3514.694,2154.927a6.541,6.541,0,0,1-6.534-6.534,6.542,6.542,0,0,1,6.534-6.534,6.542,6.542,0,0,1,6.534,6.534A6.541,6.541,0,0,1-3514.694,2154.927Zm0-11.688a5.16,5.16,0,0,0-5.154,5.155,5.16,5.16,0,0,0,5.154,5.154,5.16,5.16,0,0,0,5.154-5.154A5.16,5.16,0,0,0-3514.694,2143.239Z" transform="translate(3567.45 -2113.992)" fill="#c65454"/>
          <path id="Path_15832" data-name="Path 15832" d="M-3520.535,2154.062a11.523,11.523,0,0,1-11.511-11.51,11.524,11.524,0,0,1,11.511-11.511,11.524,11.524,0,0,1,11.51,11.511A11.523,11.523,0,0,1-3520.535,2154.062Zm0-21.64a10.142,10.142,0,0,0-10.131,10.131,10.142,10.142,0,0,0,10.131,10.13,10.141,10.141,0,0,0,10.13-10.13A10.141,10.141,0,0,0-3520.535,2132.421Z" transform="translate(3573.292 -2108.151)" fill="#c65454"/>
          <path id="Path_15833" data-name="Path 15833" d="M-3527.355,2153.052a17.34,17.34,0,0,1-17.32-17.32,17.34,17.34,0,0,1,17.32-17.32,17.339,17.339,0,0,1,17.32,17.32A17.339,17.339,0,0,1-3527.355,2153.052Zm0-33.26a15.958,15.958,0,0,0-15.94,15.94,15.958,15.958,0,0,0,15.94,15.94,15.958,15.958,0,0,0,15.939-15.94A15.957,15.957,0,0,0-3527.355,2119.792Z" transform="translate(3580.112 -2101.331)" fill="#c65454"/>
          <path id="Path_15834" data-name="Path 15834" d="M-3533.767,2152.1a22.808,22.808,0,0,1-22.782-22.782,22.808,22.808,0,0,1,22.782-22.782,22.807,22.807,0,0,1,22.782,22.782A22.808,22.808,0,0,1-3533.767,2152.1Zm0-44.183a21.426,21.426,0,0,0-21.4,21.4,21.426,21.426,0,0,0,21.4,21.4,21.426,21.426,0,0,0,21.4-21.4A21.426,21.426,0,0,0-3533.767,2107.919Z" transform="translate(3586.524 -2094.92)" fill="#c65454"/>
          <path id="Path_15835" data-name="Path 15835" d="M-3541.343,2150.98a29.269,29.269,0,0,1-29.236-29.236,29.27,29.27,0,0,1,29.236-29.237,29.269,29.269,0,0,1,29.236,29.237A29.269,29.269,0,0,1-3541.343,2150.98Zm0-57.093a27.888,27.888,0,0,0-27.856,27.856,27.888,27.888,0,0,0,27.856,27.856,27.887,27.887,0,0,0,27.856-27.856A27.888,27.888,0,0,0-3541.343,2093.887Z" transform="translate(3594.1 -2087.343)" fill="#c65454"/>
          <path id="Path_15836" data-name="Path 15836" d="M-3548.944,2149.854a35.751,35.751,0,0,1-35.711-35.711,35.752,35.752,0,0,1,35.711-35.711,35.751,35.751,0,0,1,35.71,35.711A35.751,35.751,0,0,1-3548.944,2149.854Zm0-70.042a34.37,34.37,0,0,0-34.331,34.331,34.37,34.37,0,0,0,34.331,34.331,34.37,34.37,0,0,0,34.331-34.331A34.37,34.37,0,0,0-3548.944,2079.812Z" transform="translate(3601.701 -2079.742)" fill="#c65454"/>
          <path id="Path_15837" data-name="Path 15837" d="M-3556.22,2148.775a41.956,41.956,0,0,1-41.909-41.909,41.957,41.957,0,0,1,41.909-41.91,41.957,41.957,0,0,1,41.909,41.91A41.957,41.957,0,0,1-3556.22,2148.775Zm0-82.438a40.575,40.575,0,0,0-40.529,40.53,40.575,40.575,0,0,0,40.529,40.529,40.575,40.575,0,0,0,40.529-40.529A40.575,40.575,0,0,0-3556.22,2066.337Z" transform="translate(3608.976 -2072.466)" fill="#c65454"/>
          <path id="Path_15838" data-name="Path 15838" d="M-3563.5,2147.7a48.162,48.162,0,0,1-48.108-48.107,48.162,48.162,0,0,1,48.108-48.108,48.162,48.162,0,0,1,48.107,48.108A48.162,48.162,0,0,1-3563.5,2147.7Zm0-94.835a46.781,46.781,0,0,0-46.728,46.728,46.78,46.78,0,0,0,46.728,46.727,46.78,46.78,0,0,0,46.727-46.727A46.781,46.781,0,0,0-3563.5,2052.863Z" transform="translate(3616.253 -2065.19)" fill="#c65454"/>
        </g>
      </g>
    </g>
    <g id="Group_489" data-name="Group 489" transform="translate(3066.613 -1134.61) rotate(9)">
      <g id="Group_482" data-name="Group 482" transform="translate(-1044.615 2193.346)">
        <g id="Group_479" data-name="Group 479" transform="translate(18.124 60.932)">
          <g id="Group_478" data-name="Group 478">
            <path id="Path_15776" data-name="Path 15776" d="M-1012.437,2268.269l-.217-.108a.208.208,0,0,0,.017.068A.144.144,0,0,0-1012.437,2268.269Z" transform="translate(1012.654 -2268.161)" fill="#3f5146"/>
          </g>
        </g>
        <g id="Group_481" data-name="Group 481">
          <g id="Group_480" data-name="Group 480">
            <path id="Path_15777" data-name="Path 15777" d="M-1007.027,2203.993c-2.219-.433-3.277.182-6.178-.754-2.032-.656-6.264-4.021-10.025-4.639-.85,1.006-2,3.74-3.163,5.637-1.1,1.793-2.776,6.676-3.467,12.753-.487,4.282.731,5.878.842,9.82a38.724,38.724,0,0,1-4.326,18.487c.18.55.383,1.077.6,1.58,3.23,7.4,10.779,11,15.541,12.666a41.312,41.312,0,0,0,10.906,10.277,44.743,44.743,0,0,0,16.017,6.118,58.2,58.2,0,0,0,19.186,1.033c4.4-.47,8.806-.892,13.21-1.319a79.218,79.218,0,0,0,12.277-2.007c4.938-1.285,9.528-3.971,14.367-5.626,3.461-1.184,6.768-2.783,10.147-4.248,3.651-1.584,7.326-3.1,10.915-4.885,2.555-1.269,5.052-2.917,7.682-3.95,1.295-.508,2.553-1,3.842-1.565,1.072-.473,2.172-.789,3.247-1.251a16.012,16.012,0,0,0,3.738-2.415,38.569,38.569,0,0,1,4.786-3.112,23.2,23.2,0,0,1,4.39-2.248,21.217,21.217,0,0,1,4.522-1.041c7.512-.8,17.353.454,17.353.454,11.965,1.526,17.978,2.228,19.556-.739a7.179,7.179,0,0,0,.6-4.884c-.957-3.194-4.984-4.7-31.946-6.848-2.347-.187-3.555-.272-5.252-.377-8.689-.544-15.763-.595-20.569-.541l1.325,1.975c-21.734-15.072-37.373-20.282-47.962-22.115-17.428-3.017-31.437-5.7-38.565-6.141a204.086,204.086,0,0,0-23.594-.1" transform="translate(1033.345 -2198.6)" fill="#3f5146"/>
          </g>
        </g>
      </g>
      <g id="Group_486" data-name="Group 486" transform="translate(-1122.387 2160.937)">
        <g id="Group_483" data-name="Group 483" transform="translate(77.516 72.664)">
          <path id="Path_15778" data-name="Path 15778" d="M-1033.137,2249.285c.817-1.206,1.3-4.7,1.025-4.729-.237-.028-1.185,2.417-1.524,5.215A1.537,1.537,0,0,0-1033.137,2249.285Z" transform="translate(1033.636 -2244.557)" fill="#f7e2c4"/>
        </g>
        <g id="Group_485" data-name="Group 485" transform="translate(0)">
          <g id="Group_484" data-name="Group 484">
            <path id="Path_15779" data-name="Path 15779" d="M-923.667,2259.914c-.289-.7-15.553,5.651-28.506,9.706,0,0-41.866,13.107-61.528.953l-.089-.055c-.342-.222-1.063-.829-15.22-11.379-10.668-7.95-15.162-11.26-15.675-16.628a14.314,14.314,0,0,1,.071-3.029.949.949,0,0,1-.134.067,2.25,2.25,0,0,1-1.1-.068,62.765,62.765,0,0,0,3.041-17.524c.15-5.882-.06-8.478.815-13.2a39.822,39.822,0,0,1,5.981-14.628,20.38,20.38,0,0,0-2.053-8.941,20.3,20.3,0,0,0-4.395-5.928l-.009-1.317a13.053,13.053,0,0,0-3.448-6.268,8.12,8.12,0,0,0-6.333-1.976,7.9,7.9,0,0,0-2.024.426,7.342,7.342,0,0,1-1.689.523c-.654.019-.71-.524-.929-1.085-.2-.51-.317-1.033-.545-1.534-.711-1.564-1.628-3.633-3.458-4.278a2.693,2.693,0,0,0-1.87-.034,14.42,14.42,0,0,1-1.935.772c-.632.086-.825-.174-1.045-.67a3.131,3.131,0,0,0-1.442-1.642,4.344,4.344,0,0,0-2.133-.562,35.339,35.339,0,0,0-7.333.853l5.658,6.063a17.362,17.362,0,0,1,4.937,11.938c-.113,5.817-3.573,9.593-6.246,12.512-.555.605-10.2,10.865-20.15,8.382a13.037,13.037,0,0,1-1.66-.535c-8.168,4.727-11.464,6.066-12.568,6.005-.133-.007-.884.015-1.91.013a18.319,18.319,0,0,0-2.041.289,20.286,20.286,0,0,0-2.391.053,10.859,10.859,0,0,0-1.422.513,22.5,22.5,0,0,0-4.206,2.51,16.414,16.414,0,0,0-1.859,1.322c-.429.37-1.34.633-1.615,1.147a9.09,9.09,0,0,0,2.776.029c1.1-.006,2.094.193,3.175.257a13.464,13.464,0,0,1,2.951.16,21.8,21.8,0,0,1,2.644,1.174c1.081.461,2.1,1.033,3.172,1.5.852.37,1.762.64,2.621,1.026,1.192.535,2.341,1.668,3.647,1.854a14.126,14.126,0,0,0,3.495-.041,21.172,21.172,0,0,1,6.487,1.251l-3.454.149a44.069,44.069,0,0,1,5.282,4.347c3.518,3.386,3.5,4.5,7.494,9.32,3.864,4.658,8.105,8.707,9.579,11.873.091.2.645,1.332,1.4,2.889a30.174,30.174,0,0,0,1.51,2.846c.653,1.046,1.288,2.1,1.963,3.131.6.91,1.092,1.769,2.087,3.429,2.015,3.364,3.022,5.046,6.406,10.821,2.356,4.021,15.8,22.317,36.847,25.558,11.039,1.7,23.2-.892,29-3a78.163,78.163,0,0,1,9.354-2.82c3.673-.863,7.412-1.074,11.113-1.707a26.975,26.975,0,0,1,3.962-.488,3.773,3.773,0,0,1,2.572.581,11.528,11.528,0,0,1,1.864,1.853c.534.526,1.581,1.2,1.442,2.1l3.947.363c-.032-.354.183-.563.267-.875a3.139,3.139,0,0,0,.05-1.288,5.674,5.674,0,0,0-.723-2.03c-.448-.809-1.678-2.683-2.792-2.7l.158.018,3-.5c1.454-.233,2.925-.553,4.387-.717a8.82,8.82,0,0,1,2.107,0c.528.076,1.116.445,1.658.338.3-.578-.472-1.622-.661-2.184-.257-.765-.886-2.034-.578-2.87.185-.5,1.113-.858,1.6-1.034a13.707,13.707,0,0,1,2.432-.377,13.54,13.54,0,0,0,2.314-.618c.535-.178,1.328.232,1.705-.1.292-.257.069-.962.077-1.274a4.8,4.8,0,0,1,.237-1.338c.133-.413.471-1.375.89-1.522a21.132,21.132,0,0,0,4.29-.876,6.074,6.074,0,0,0,1.489-.84c1.011-.725,2.128-1.261,3.177-1.92,1.706-1.07,3.345-2.377,4.94-3.617a6.533,6.533,0,0,0,.865-.823c.105-.109.373-.379.919-.91C-925.59,2261.718-923.556,2260.186-923.667,2259.914Z" transform="translate(1122.13 -2161.602)" fill="#f7e2c4"/>
          </g>
        </g>
      </g>
      <g id="Group_488" data-name="Group 488" transform="translate(-1093.854 2157.302)">
        <g id="Group_487" data-name="Group 487" transform="translate(0 0)">
          <path id="Path_15780" data-name="Path 15780" d="M-1061.942,2179.034c-.166-.753-1.175-2.174-3.191-5.016-1.118-1.575-2.1-2.83-2.79-3.681l-.121.537c-.568-1.778-.448-3.586-1.289-5.335a19.177,19.177,0,0,0-2.791-4.014,22.6,22.6,0,0,0-3.3-3c-.517-.411-1.574-1.4-2.447-.972-.548.27-.3,1.211-.316,1.626q-.051,1.581-.1,3.161-.095,3.014-.189,6.028l.047-4.944c-.275,8.772.058,17.586-3.826,25.847a40.067,40.067,0,0,1-5.253,8.976c-.595.706-2.176,2.22-2.037,3.152l.345.041a111.528,111.528,0,0,0,11.566-6.542C-1071.822,2191.145-1060.835,2184.044-1061.942,2179.034Z" transform="translate(1089.557 -2157.452)" fill="#e2a460"/>
        </g>
      </g>
      <path id="Path_15781" data-name="Path 15781" d="M-1090.092,2200.8l-.363,0h-.021l0-.022a1.849,1.849,0,0,1,.307-1.224,8.879,8.879,0,0,1,.71-1.046l.78-.966c.246-.322.486-.656.718-.991a33.384,33.384,0,0,0,2.442-4.244c.7-1.472,1.419-2.979,2.031-4.485.328-.741.587-1.511.863-2.273.231-.777.481-1.549.661-2.342a37.258,37.258,0,0,0,.9-4.8c.221-1.619.352-3.254.455-4.9.2-3.285.244-6.6.5-9.915.263,3.308.491,6.613.479,9.947a41.4,41.4,0,0,1-1.111,9.972,28.582,28.582,0,0,1-1.645,4.783c-.341.781-.711,1.511-1.081,2.26s-.754,1.487-1.169,2.214a27.558,27.558,0,0,1-2.812,4.169,24,24,0,0,1-1.718,1.824,8.451,8.451,0,0,0-.808.916,1.8,1.8,0,0,0-.45,1.086l-.025-.023Z" transform="translate(-4.18 -0.911)" fill="#2b2b2b"/>
      <path id="Path_15782" data-name="Path 15782" d="M-1078.6,2167.478c-.262-2.357-.4-4.713-.492-7.072-.025-.589-.05-1.178-.06-1.768,0-.2-.078-.5-.094-.866a1.834,1.834,0,0,1,.071-.635,1.178,1.178,0,0,1,.528-.672,1.809,1.809,0,0,1,1.275-.178,3.4,3.4,0,0,1,1,.387,8.749,8.749,0,0,1,.8.513l.724.5a21.7,21.7,0,0,1,2.823,2.284,23.356,23.356,0,0,1,2.327,2.769,11.657,11.657,0,0,1,.936,1.578,7.6,7.6,0,0,1,.569,1.763c.226,1.2.262,2.355.551,3.508a23.98,23.98,0,0,1-1.152-3.348,7,7,0,0,0-.7-1.528,13.031,13.031,0,0,0-1-1.38,30.468,30.468,0,0,0-2.374-2.5,22.219,22.219,0,0,0-2.712-2.1l-.725-.516a7.664,7.664,0,0,0-.678-.454,1.309,1.309,0,0,0-1.078-.247s.016-.036-.006,0a.67.67,0,0,0-.033.238c-.01.221.058.506.049.894-.01.589-.035,1.177-.061,1.767C-1078.2,2162.764-1078.34,2165.121-1078.6,2167.478Z" transform="translate(-5.576)" fill="#2b2b2b"/>
      <path id="Path_15783" data-name="Path 15783" d="M-1065.88,2170.878a6.759,6.759,0,0,1,3.841,3.76,7.172,7.172,0,0,1,.544,2.715,6.478,6.478,0,0,1-.518,2.661c-.158-.9-.281-1.74-.463-2.555a14.326,14.326,0,0,0-.731-2.336,13.092,13.092,0,0,0-1.142-2.156C-1064.806,2172.272-1065.332,2171.605-1065.88,2170.878Z" transform="translate(-7.234 -1.815)" fill="#2b2b2b"/>
      <path id="Path_15784" data-name="Path 15784" d="M-1067.947,2163.09a18.118,18.118,0,0,1,2.546-.066,11.433,11.433,0,0,1,1.279.137c.406.072.809.083,1.259.152a3.26,3.26,0,0,1,1.289.5,3.389,3.389,0,0,1,1.042.951c.279.373.45.9.595,1.031.062.053.08.055.226.058a1.565,1.565,0,0,0,.464-.106c.326-.122.674-.344,1.1-.543a3.925,3.925,0,0,1,1.423-.349,3.45,3.45,0,0,1,1.464.3,4.475,4.475,0,0,1,1.226.773,7.682,7.682,0,0,1,1.62,2.2c.207.39.392.782.568,1.17a8.661,8.661,0,0,1,.489,1.246l.186.576.2.591c.058.17.118.226.084.194a.854.854,0,0,0,.2-.008,6.734,6.734,0,0,0,1.087-.357,10.6,10.6,0,0,1,1.293-.367,6.485,6.485,0,0,1,1.368-.151c.436-.011.877.006,1.318.039a8.58,8.58,0,0,1,2.608.589,8.294,8.294,0,0,1,3.922,3.458,14.725,14.725,0,0,1,1.736,4.8,17.613,17.613,0,0,0-2.251-4.453,7.94,7.94,0,0,0-3.752-2.88,8.631,8.631,0,0,0-2.333-.408c-.4-.014-.8-.016-1.211.009a5.171,5.171,0,0,0-1.137.166c-.363.1-.8.217-1.133.343a7.361,7.361,0,0,1-1.311.433,1.522,1.522,0,0,1-1.035-.144,1.535,1.535,0,0,1-.621-.825l-.216-.6c-.079-.216-.146-.427-.208-.625a7.317,7.317,0,0,0-.421-1.112c-.169-.381-.339-.754-.524-1.112a6.923,6.923,0,0,0-1.329-1.882,3.3,3.3,0,0,0-.88-.6,2.376,2.376,0,0,0-.984-.25,3.049,3.049,0,0,0-1.028.215c-.349.134-.727.352-1.2.5a2.493,2.493,0,0,1-.775.121,1.41,1.41,0,0,1-.475-.088,1.108,1.108,0,0,1-.434-.311,2.391,2.391,0,0,1-.363-.675,4.243,4.243,0,0,0-.245-.512,2.615,2.615,0,0,0-.755-.8,2.628,2.628,0,0,0-1.012-.5c-.376-.1-.817-.162-1.232-.28s-.807-.193-1.217-.267C-1066.263,2163.228-1067.1,2163.153-1067.947,2163.09Z" transform="translate(-6.978 -0.838)" fill="#2b2b2b"/>
      <path id="Path_15785" data-name="Path 15785" d="M-1033.022,2183.806c2.616,2.247,4.95,4.807,7.327,7.259a25.373,25.373,0,0,1,3.148,4.172,15.5,15.5,0,0,0,1.521,1.946,18.987,18.987,0,0,0,1.852,1.661,16.16,16.16,0,0,0,4.229,2.544c1.611.585,3.207,1.29,4.783,1.839,3.168,1.082,6.645,1.106,10.079,1.133a43.339,43.339,0,0,1-5.16.449,18.5,18.5,0,0,1-5.208-.638c-1.708-.468-3.268-1.139-4.91-1.658a16.914,16.914,0,0,1-4.6-2.682,20.129,20.129,0,0,1-1.959-1.8,14.821,14.821,0,0,1-1.617-2.133,28.288,28.288,0,0,0-2.877-4.165C-1028.7,2189.137-1030.754,2186.4-1033.022,2183.806Z" transform="translate(-11.311 -3.419)" fill="#2b2b2b"/>
      <path id="Path_15786" data-name="Path 15786" d="M-1005.285,2206.913c4.817-.372,9.653-.491,14.489-.481,2.419.022,4.836.1,7.253.208,2.412.088,4.852.317,7.248.625,4.81.592,9.566,1.455,14.327,2.274l14.263,2.536c2.374.448,4.745.849,7.134,1.365s4.722,1.176,7.043,1.9a99.622,99.622,0,0,1,13.5,5.419,144.676,144.676,0,0,1,12.707,7.028c4.093,2.58,8.1,5.29,11.979,8.168-4.044-2.642-8.11-5.244-12.3-7.636-4.162-2.43-8.431-4.675-12.8-6.679a113.9,113.9,0,0,0-13.429-5.2c-2.295-.694-4.608-1.332-6.954-1.814s-4.73-.87-7.1-1.3c-9.5-1.75-18.98-3.618-28.5-5.094-2.385-.364-4.751-.643-7.163-.79-2.4-.172-4.812-.3-7.22-.386C-995.629,2206.83-1000.455,2206.825-1005.285,2206.913Z" transform="translate(-14.751 -6.226)" fill="#2b2b2b"/>
      <path id="Path_15787" data-name="Path 15787" d="M-897.867,2237.861q7.873-.141,15.75.211c5.249.221,10.488.638,15.721,1.067,5.232.459,10.462.964,15.673,1.747,1.3.209,2.6.425,3.9.713a22.775,22.775,0,0,1,3.846,1.13,6.871,6.871,0,0,1,.931.44,4.927,4.927,0,0,1,.886.577,3.911,3.911,0,0,1,1.316,1.732,6.508,6.508,0,0,1,.064,4.17,8.97,8.97,0,0,1-.344.983,5.073,5.073,0,0,1-.23.489l-.322.478a4.125,4.125,0,0,1-1.821,1.253,10.107,10.107,0,0,1-1.018.3c-.34.052-.681.116-1.02.159l-1.014.082-1.006.024a70.851,70.851,0,0,1-7.911-.614c-2.608-.3-5.226-.7-7.806-.971-2.6-.267-5.206-.447-7.812-.522a59.774,59.774,0,0,0-7.781.232,20.539,20.539,0,0,0-3.73.829,15.9,15.9,0,0,0-3.456,1.574l-3.38,1.991c-.554.336-1.1.68-1.618,1.047s-1,.758-1.539,1.18a15.03,15.03,0,0,1-3.5,2.116c-.631.259-1.262.472-1.871.692s-1.169.46-1.8.709l-3.667,1.462a35.968,35.968,0,0,0-3.477,1.692c-1.148.62-2.3,1.269-3.491,1.864s-2.386,1.139-3.591,1.677c-2.408,1.074-4.838,2.077-7.252,3.1s-4.8,2.11-7.248,3.1c-1.221.5-2.475.961-3.721,1.377-1.225.417-2.432.9-3.636,1.4-2.409,1.009-4.8,2.117-7.3,3.018a43.954,43.954,0,0,1-7.718,1.94c-2.609.437-5.234.726-7.856.951-5.235.451-10.44.941-15.7,1.36a53.366,53.366,0,0,1-15.75-1.183,42.157,42.157,0,0,1-14.361-6.46,40.417,40.417,0,0,1-5.945-5.184l-2.779-2.788c-.459-.47-.936-.919-1.38-1.405a7.277,7.277,0,0,0-1.418-1.352l.007,0a.177.177,0,0,0,.059.158.143.143,0,0,0,.166.007.147.147,0,0,1-.169,0,.186.186,0,0,1-.065-.161v-.008l.006,0a7.319,7.319,0,0,1,1.455,1.32c.453.472.943.913,1.412,1.37l2.847,2.723a40.165,40.165,0,0,0,6,5.042,41.632,41.632,0,0,0,14.308,6.131,52.766,52.766,0,0,0,15.555.994c5.2-.472,10.444-1.023,15.665-1.531,2.6-.252,5.2-.568,7.764-1.027a43.312,43.312,0,0,0,7.526-1.922c2.438-.887,4.811-2,7.239-3.024,1.215-.514,2.445-1.01,3.7-1.444s2.449-.874,3.658-1.368c2.412-.985,4.794-2.091,7.22-3.12s4.837-2.04,7.22-3.114c1.19-.537,2.377-1.089,3.537-1.668s2.29-1.226,3.449-1.858a37.106,37.106,0,0,1,3.593-1.764l3.645-1.464c.593-.231,1.246-.517,1.868-.729s1.239-.428,1.823-.666a13.823,13.823,0,0,0,3.221-1.937c.494-.383,1.034-.83,1.59-1.208s1.121-.743,1.691-1.086l3.412-1.993a17.046,17.046,0,0,1,3.7-1.665,21.72,21.72,0,0,1,3.95-.861,60.95,60.95,0,0,1,7.95-.211c2.64.087,5.271.278,7.895.557,2.642.287,5.212.695,7.82,1a73.558,73.558,0,0,0,7.778.645,11.2,11.2,0,0,0,3.71-.457,3.111,3.111,0,0,0,1.4-.92,4.813,4.813,0,0,0,.743-1.6,5.585,5.585,0,0,0,0-3.561,4.321,4.321,0,0,0-2.616-2.275,21.938,21.938,0,0,0-3.686-1.123c-1.265-.3-2.552-.525-3.839-.747-5.164-.836-10.385-1.389-15.6-1.918s-10.443-1.033-15.681-1.348S-892.617,2237.9-897.867,2237.861Z" transform="translate(-13.54 -10.12)" fill="#2b2b2b"/>
      <path id="Path_15788" data-name="Path 15788" d="M-1033.813,2251.13a3.161,3.161,0,0,1-.113.76.87.87,0,0,0,.167.633,14.74,14.74,0,0,0,.8,1.262,18.1,18.1,0,0,0,1.9,2.27l2.153,2.119c.712.717,1.407,1.444,2.129,2.131a34.657,34.657,0,0,0,4.566,3.819,40.212,40.212,0,0,1,4.793,3.762c-1.773-1.007-3.571-1.9-5.333-2.936a25.889,25.889,0,0,1-2.576-1.7,28.381,28.381,0,0,1-2.333-2.037c-1.46-1.464-2.789-2.93-4.135-4.5a13.951,13.951,0,0,1-1.7-2.611,12,12,0,0,1-.585-1.439,1.111,1.111,0,0,1-.025-.83A3.107,3.107,0,0,0-1033.813,2251.13Z" transform="translate(-11.167 -11.771)" fill="#2b2b2b"/>
      <path id="Path_15789" data-name="Path 15789" d="M-1086.153,2205.255a1,1,0,0,1,.338-1.021c.283-.254.621-.427.894-.662a10,10,0,0,1,1.882-1.224,26.139,26.139,0,0,0,3.744-2.366c1.2-.87,2.4-1.763,3.685-2.548a19.2,19.2,0,0,1,2-1.075c.337-.165.716-.3,1.045-.441s.658-.284.978-.444c2.581-1.307,4.513-3.561,6.509-5.766.509-.548,1.013-1.076,1.447-1.633s.8-1.184,1.261-1.818a11.24,11.24,0,0,1,.739-.888,6.5,6.5,0,0,0,.6-.83c.193-.3.346-.6.552-.951a4.588,4.588,0,0,1,.363-.531,1.625,1.625,0,0,1,.7-.541l.583-.232.193.624a5.945,5.945,0,0,1,.192,2.3,9.65,9.65,0,0,1-.452,2.171c-.511,1.488-1.516,2.541-1.812,3.685a3.142,3.142,0,0,0-.084.421,2.11,2.11,0,0,0-.017.211l-.005.1a.1.1,0,0,1,.006.036c.008.052-.012.011.005.026a.51.51,0,0,0,.2.071,3.551,3.551,0,0,0,.866,0l1.034-.118c.435-.038.792.013,1.069,0a.993.993,0,0,0,.306-.047c.08-.025.227-.13.5-.228a2.477,2.477,0,0,1,.341-.082l.286-.045c.188-.024.374-.042.562-.052a4.662,4.662,0,0,1,1.206.059l.343.066.116.373a1.289,1.289,0,0,1-.192,1.055,2.207,2.207,0,0,1-.577.553c-.188.13-.371.234-.53.328-.082.049-.146.088-.2.129l-.21.158a14.628,14.628,0,0,1-1.889,1.491l-4.117,2.2-4.116,2.189c-.7.358-1.415.7-2.148,1-.365.153-.751.282-1.067.423a9.513,9.513,0,0,0-.98.521c-.642.393-1.338.823-2.036,1.172s-1.38.7-2.018,1.095a17.554,17.554,0,0,1-2.125,1.044c-.685.3-1.333.727-2.06,1.07a5.672,5.672,0,0,1-1.14.4,4.027,4.027,0,0,0-1.06.354,5.012,5.012,0,0,1-.557.237,2.261,2.261,0,0,1-.621.1c-.406.018-.794-.029-1.162-.006a5.771,5.771,0,0,1-1.186.031,1.7,1.7,0,0,1-1-.669c-.258-.3-.481-.613-.74-.9a1.38,1.38,0,0,0-.971-.549,1.416,1.416,0,0,1,1.028.493c.282.272.53.574.8.845a1.578,1.578,0,0,0,.916.552,5.808,5.808,0,0,0,1.132-.091c.4-.045.794-.017,1.162-.053a2.316,2.316,0,0,0,1.019-.357,4.513,4.513,0,0,1,1.12-.44,5.147,5.147,0,0,0,1.031-.421c.66-.35,1.3-.815,2.013-1.176a16.949,16.949,0,0,0,2.01-1.077c.663-.448,1.359-.821,2.028-1.2s1.286-.784,1.958-1.216a10.456,10.456,0,0,1,1.057-.6c.389-.184.738-.308,1.083-.465.7-.3,1.374-.647,2.046-1.014,1.329-.75,2.694-1.519,4.054-2.265l4.057-2.249a15.928,15.928,0,0,0,1.73-1.42l.252-.194c.1-.072.2-.135.286-.186.174-.1.328-.194.458-.285a1.046,1.046,0,0,0,.264-.24c.031-.064.018-.02.019-.05l.458.44a5.119,5.119,0,0,0-1.726.095c-.058.014-.2.109-.442.21a2.171,2.171,0,0,1-.711.137c-.416.016-.752-.027-1.008,0a8.535,8.535,0,0,1-2.234.111,1.693,1.693,0,0,1-.75-.309,1.341,1.341,0,0,1-.342-.382,1.4,1.4,0,0,1-.148-.466l-.019-.222c0-.062.005-.106.008-.159.009-.1.009-.207.027-.307a4.31,4.31,0,0,1,.122-.6c.462-1.551,1.489-2.589,1.853-3.747a6.648,6.648,0,0,0,.274-3.7l.776.392a1.423,1.423,0,0,0-.152.156,3.365,3.365,0,0,0-.266.388c-.172.285-.37.646-.582.967a7.77,7.77,0,0,1-.722.959,10.418,10.418,0,0,0-.7.811c-.425.557-.81,1.2-1.31,1.824s-1.025,1.146-1.535,1.678c-2.007,2.133-4.109,4.458-6.919,5.8-.35.16-.7.312-1.068.439s-.687.239-1.023.388a18.419,18.419,0,0,0-1.959.962c-1.275.723-2.507,1.548-3.757,2.357a26.456,26.456,0,0,1-3.9,2.2,10.831,10.831,0,0,0-1.912,1.1c-.308.23-.652.375-.94.6A.968.968,0,0,0-1086.153,2205.255Z" transform="translate(-4.654 -3.23)" fill="#2b2b2b"/>
      <path id="Path_15790" data-name="Path 15790" d="M-1095.866,2208.845q-3.539.925-7.123,1.682c-1.2.245-2.393.495-3.623.645-.309.033-.617.068-.942.075l-.932.014c-.594.025-1.235,0-1.761.068a14.513,14.513,0,0,1-1.848.3,17.5,17.5,0,0,0-1.777,0,7.816,7.816,0,0,0-1.613.564,10.232,10.232,0,0,0-1.547.793c-.995.617-1.991,1.361-3.023,2.018-.251.165-.494.33-.726.5l-.341.265c-.109.086-.2.183-.39.313-.316.214-.594.339-.833.481a1.264,1.264,0,0,0-.454.359l-.291-.827a3.761,3.761,0,0,0,1.291.06l.781-.058a7.486,7.486,0,0,1,.85-.013c1.111.04,2.156.249,3.125.273.488.012,1.014-.025,1.587,0a5.26,5.26,0,0,1,1.729.357,14.756,14.756,0,0,1,1.482.7c.23.117.453.229.675.328l.732.336c.966.464,1.879.97,2.8,1.35a21.146,21.146,0,0,1,2.971,1.281,11.024,11.024,0,0,0,2.58,1.441,6.6,6.6,0,0,0,.7.107c.245.027.489.041.734.045.489.009,1-.032,1.525-.067a11.2,11.2,0,0,1,3.276.167,13.71,13.71,0,0,1,3.071,1.081,9.5,9.5,0,0,0,1.35.574,1.182,1.182,0,0,0,.13.019c-.025.005-.028.037-.028.026a1.013,1.013,0,0,0-.129-.476c-.417-.869-1.046-1.757-1.579-2.659a19.618,19.618,0,0,1-2.514-5.836,13.934,13.934,0,0,1-.35-3.159A12.84,12.84,0,0,1-1095.866,2208.845Zm0,0a13.485,13.485,0,0,0,.315,6.183,20.531,20.531,0,0,0,2.735,5.547c.569.881,1.2,1.682,1.742,2.684a3.254,3.254,0,0,1,.172.432,1.231,1.231,0,0,1,.041.6.847.847,0,0,1-.5.617,1.109,1.109,0,0,1-.645.043,9.364,9.364,0,0,1-1.567-.595,10.812,10.812,0,0,0-5.871-1.009c-.517.043-1.055.1-1.616.1-.279,0-.561-.01-.837-.036a7.42,7.42,0,0,1-.859-.119,10.953,10.953,0,0,1-2.933-1.536,20.6,20.6,0,0,0-2.812-1.181c-1.02-.415-1.949-.925-2.877-1.362l-.7-.316c-.258-.113-.5-.234-.742-.355-.477-.24-.92-.481-1.36-.65a3.984,3.984,0,0,0-1.337-.284c-.476-.024-1,.009-1.56-.007-1.129-.041-2.154-.257-3.14-.293a6,6,0,0,0-.723.007l-.788.053a4.434,4.434,0,0,1-1.824-.179l-.649-.232.358-.6a2.239,2.239,0,0,1,.92-.811c.29-.161.568-.289.76-.416.067-.04.194-.152.325-.254l.387-.29c.26-.186.525-.358.786-.524,1.038-.629,2-1.344,3.1-1.976a11.181,11.181,0,0,1,1.728-.82,8.336,8.336,0,0,1,1.851-.569,16.282,16.282,0,0,1,1.875.044,17.356,17.356,0,0,0,1.766-.222c1.329-.076,2.493.089,3.669-.01,1.195-.1,2.4-.263,3.6-.444C-1100.667,2209.7-1098.269,2209.26-1095.866,2208.845Z" transform="translate(0 -6.525)" fill="#2b2b2b"/>
      <path id="Path_15791" data-name="Path 15791" d="M-1091.125,2228.329a2.3,2.3,0,0,0,.9.9c.364.235.724.477,1.1.693a5.262,5.262,0,0,1,1.066.764c.316.306.59.647.872.973.562.646,1.212,1.231,1.779,1.9a8.234,8.234,0,0,1,.787,1.063c.23.39.416.757.653,1.121.457.727.973,1.42,1.474,2.131.518.708.942,1.474,1.454,2.148,1.018,1.377,2.248,2.6,3.329,3.991a41.545,41.545,0,0,1,2.757,4.451,21.644,21.644,0,0,0,1.411,2.131,9.738,9.738,0,0,1,1.374,2.307c.356.817.632,1.651.922,2.458a13.856,13.856,0,0,0,1.185,2.222c.453.782.826,1.53,1.27,2.266.426.73.929,1.417,1.42,2.137l1.48,2.143c.507.741.933,1.5,1.4,2.2a11.754,11.754,0,0,0,.743,1l.819,1.027,1.585,2.065a30.716,30.716,0,0,0,3.359,3.842c1.315,1.138,2.506,2.48,3.709,3.665.594.579,1.28,1.173,1.886,1.795a25.223,25.223,0,0,0,1.861,1.728l1.025.782c.349.271.69.547,1.029.825.675.559,1.333,1.13,1.989,1.7a48.567,48.567,0,0,0,4,3.216c.347.241.7.468,1.058.691l1.1.705,2.2,1.411c.378.239.717.474,1.07.675s.73.4,1.112.587c.766.377,1.571.743,2.354,1.193a35.118,35.118,0,0,0,4.619,2.177q1.2.465,2.418.866l1.226.389c.419.125.847.269,1.254.406a12.894,12.894,0,0,0,2.425.639l2.567.413a54.2,54.2,0,0,0,10.25.906l10.4.059c1.73.01,3.452,0,5.162-.131a24.033,24.033,0,0,0,5.035-.835c1.638-.477,3.238-1.141,4.885-1.719a29.894,29.894,0,0,1,5.082-1.308c1.718-.3,3.442-.52,5.158-.753s3.413-.524,5.131-.82a18.152,18.152,0,0,1,2.607-.25,5.327,5.327,0,0,1,1.324.089,3.775,3.775,0,0,1,1.212.55,14.782,14.782,0,0,1,1.868,1.824c.317.288.669.552.964.874a1.461,1.461,0,0,1,.474,1.174,1.435,1.435,0,0,0-.508-1.14c-.3-.308-.659-.554-.993-.837a14.931,14.931,0,0,0-1.908-1.733,3.632,3.632,0,0,0-1.157-.488,5.156,5.156,0,0,0-1.267-.049,17.754,17.754,0,0,0-2.559.317c-1.69.338-3.4.7-5.117.961-1.712.282-3.423.547-5.113.891a30.022,30.022,0,0,0-4.957,1.368c-1.613.6-3.21,1.293-4.9,1.815a37.573,37.573,0,0,1-10.424,1.175q-5.206.054-10.4.061a55.392,55.392,0,0,1-10.448-.865l-2.571-.4a14.011,14.011,0,0,1-2.6-.669c-.414-.137-.81-.268-1.222-.389l-1.254-.391q-1.251-.4-2.483-.873a36.2,36.2,0,0,1-4.795-2.229c-.723-.411-1.5-.759-2.292-1.144-.4-.193-.8-.4-1.189-.62s-.78-.481-1.134-.708l-2.17-1.41-1.086-.706c-.376-.238-.751-.481-1.114-.737a49.484,49.484,0,0,1-4.087-3.318c-.653-.571-1.3-1.141-1.959-1.691q-.494-.411-.995-.808l-1.038-.8a26.108,26.108,0,0,1-1.94-1.818c-.6-.624-1.226-1.167-1.871-1.8-1.26-1.256-2.365-2.524-3.668-3.666a31.822,31.822,0,0,1-3.461-4l-1.571-2.069-.8-1.01a11.014,11.014,0,0,1-.8-1.1c-.485-.752-.9-1.515-1.357-2.212l-1.44-2.161c-.474-.72-.984-1.442-1.42-2.219-.441-.756-.83-1.567-1.235-2.291a14.444,14.444,0,0,1-1.213-2.384c-.282-.828-.539-1.647-.864-2.425a8.873,8.873,0,0,0-1.244-2.168,22.645,22.645,0,0,1-1.423-2.227,43.088,43.088,0,0,0-2.634-4.435c-1.013-1.377-2.215-2.644-3.223-4.085-.518-.723-.914-1.492-1.4-2.2s-.978-1.432-1.425-2.186c-.227-.369-.424-.781-.625-1.142a7.93,7.93,0,0,0-.731-1.046c-.538-.671-1.168-1.265-1.723-1.946-.273-.34-.531-.686-.828-.994a5.162,5.162,0,0,0-1.015-.784c-.368-.231-.719-.486-1.075-.735A2.321,2.321,0,0,1-1091.125,2228.329Z" transform="translate(-4.103 -8.942)" fill="#2b2b2b"/>
      <path id="Path_15792" data-name="Path 15792" d="M-939.631,2300.169l-.165.041,0-.113a1.7,1.7,0,0,1,1.161.15,4.056,4.056,0,0,1,.964.633,6.717,6.717,0,0,1,1.411,1.728,4.622,4.622,0,0,1,.66,2.208,3.01,3.01,0,0,1-.189,1.177,1.7,1.7,0,0,1-.313.508,1.044,1.044,0,0,0-.26.44.914.914,0,0,1-.055-.579,1.575,1.575,0,0,0,.027-.485,3.625,3.625,0,0,0-.185-.919,7.57,7.57,0,0,0-.78-1.72c-.33-.559-.693-1.128-1.067-1.667a3.706,3.706,0,0,0-1.374-1.361l.005-.114Z" transform="translate(-22.875 -17.839)" fill="#2b2b2b"/>
      <path id="Path_15793" data-name="Path 15793" d="M-936.156,2297.828c1.339-.415,2.666-.84,4.054-1.134a9.28,9.28,0,0,1,2.162-.238,4.076,4.076,0,0,1,1.146.169,1.675,1.675,0,0,0,.758.088l-.379.3a1.666,1.666,0,0,0-.215-.6c-.159-.316-.371-.595-.571-1.052a9.876,9.876,0,0,1-.8-2.328,2.356,2.356,0,0,1,.028-.781c.019-.072.035-.138.061-.215a1.344,1.344,0,0,1,.124-.249,1.673,1.673,0,0,1,.3-.347,4.194,4.194,0,0,1,1.173-.682,5.231,5.231,0,0,1,1.231-.367c.411-.066.8-.094,1.179-.13a10.94,10.94,0,0,0,2.146-.433l.546-.163a1.863,1.863,0,0,1,.372-.086,1.959,1.959,0,0,1,.368,0,4.967,4.967,0,0,0,.95.089c.033-.016.025.005.033,0a.267.267,0,0,0,.038-.136,2.683,2.683,0,0,0-.024-.512,3.4,3.4,0,0,1,.137-1.24,6.021,6.021,0,0,1,.435-1.105,3.122,3.122,0,0,1,.31-.506.971.971,0,0,1,.454-.369,1.7,1.7,0,0,0-.529.968,7.078,7.078,0,0,0-.22,1.1,2.9,2.9,0,0,0,.041,1.048,3.268,3.268,0,0,1,.1.631,1.008,1.008,0,0,1-.067.426.785.785,0,0,1-.158.24.881.881,0,0,1-.209.154,1.562,1.562,0,0,1-.769.137c-.212,0-.4-.024-.559-.02a.96.96,0,0,0-.206.02,1.013,1.013,0,0,0-.182.065l-.542.216a9.961,9.961,0,0,1-2.327.624c-.387.058-.758.109-1.1.178a3.929,3.929,0,0,0-.965.309,3.13,3.13,0,0,0-.809.47.443.443,0,0,0-.075.09c-.01.01,0,.009-.005.007l-.015.063a1.3,1.3,0,0,0-.012.365,9.227,9.227,0,0,0,.679,2.021c.1.249.315.616.489.992a3.448,3.448,0,0,1,.233.654,1.41,1.41,0,0,1-.071.942l-.119.254-.26.045a2.436,2.436,0,0,1-1.293-.174,3.051,3.051,0,0,0-.9-.219,11.027,11.027,0,0,0-2,.009C-933.366,2297.525-934.755,2297.741-936.156,2297.828Z" transform="translate(-23.327 -16.07)" fill="#2b2b2b"/>
      <path id="Path_15794" data-name="Path 15794" d="M-917.873,2284.014c1.834-.6,3.832-.915,5.21-2.032a20.238,20.238,0,0,1,2.4-1.684c.815-.5,1.58-1.016,2.343-1.591.772-.552,1.524-1.14,2.284-1.728s1.557-1.151,2.232-1.748a11.091,11.091,0,0,0,.966-1.012,11.347,11.347,0,0,1,1.1-1.018c.77-.614,1.559-1.154,2.332-1.745-.574.79-1.277,1.477-1.9,2.194a11.316,11.316,0,0,0-.88,1.091,9.556,9.556,0,0,1-.91,1.186,10.364,10.364,0,0,1-1.084,1.042l-1.1.944q-1.114.932-2.288,1.815a25.966,25.966,0,0,1-2.479,1.6c-.866.47-1.636.914-2.448,1.46a5.654,5.654,0,0,1-1.4.669,9.962,9.962,0,0,1-1.462.339A26.934,26.934,0,0,1-917.873,2284.014Z" transform="translate(-25.595 -14.292)" fill="#2b2b2b"/>
      <path id="Path_15795" data-name="Path 15795" d="M-964.642,2307.194a27.841,27.841,0,0,1,6.074.032c1.008.119,2.012.273,3.016.471.5.1,1,.218,1.5.367a5.353,5.353,0,0,1,1.529.665,1.266,1.266,0,0,1,.4.444.881.881,0,0,1,.1.422.852.852,0,0,1-.14.433,1.309,1.309,0,0,1-.452.413,3.371,3.371,0,0,1-.4.2,13.637,13.637,0,0,1-1.5.494c-.983.274-1.959.521-2.934.776l-5.856,1.483a66.994,66.994,0,0,0-11.359,3.752c-1.815.822-3.6,1.743-5.339,2.732a5.172,5.172,0,0,0-2.044,2.007,7.641,7.641,0,0,1-.828,1.289,8.085,8.085,0,0,1-1.154,1,7.988,7.988,0,0,0,1-1.115,7.7,7.7,0,0,0,.681-1.324,5.658,5.658,0,0,1,2.008-2.375,49.21,49.21,0,0,1,5.247-3.1,54.7,54.7,0,0,1,11.474-4.088l5.883-1.417c.983-.226,1.967-.445,2.933-.684a14.373,14.373,0,0,0,1.385-.4,2.212,2.212,0,0,0,.4-.191c-.014.012-.018.158,0,.145.011,0-.033-.056-.1-.108a4.609,4.609,0,0,0-1.211-.581c-.458-.16-.934-.3-1.412-.428-.959-.259-1.938-.473-2.921-.666A33.308,33.308,0,0,0-964.642,2307.194Z" transform="translate(-17.389 -18.707)" fill="#2b2b2b"/>
      <path id="Path_15796" data-name="Path 15796" d="M-942.435,2309.593a.687.687,0,0,1,.581.151.6.6,0,0,1,.085.631,1.571,1.571,0,0,1-.954.812c-.712.317-1.427.681-2.14,1.02l-1.074.5c-.173.078-.358.175-.572.258a5.769,5.769,0,0,1-.61.191c-.4.108-.793.18-1.118.29a11.273,11.273,0,0,0-1.045.457c-3.015,1.247-5.834,2.355-8.89,3.523-.746.228-1.447.507-2.193.8s-1.539.567-2.239.822c-1.449.531-2.854,1.257-4.329,1.882-.751.32-1.461.595-2.168.936s-1.421.694-2.155,1.021-1.494.592-2.24.871l-.561.2a2.306,2.306,0,0,1-.6.12,1.249,1.249,0,0,0-.543.154.98.98,0,0,1-.556.208.938.938,0,0,0,.5-.286,1.4,1.4,0,0,1,.561-.263,2.177,2.177,0,0,0,.543-.187l.527-.277c.7-.373,1.414-.705,2.089-1.1l2.051-1.2c.69-.412,1.446-.745,2.133-1.1,1.4-.716,2.8-1.471,4.309-2.1.78-.313,1.485-.537,2.214-.853.724-.3,1.494-.618,2.263-.86.726-.232,1.451-.523,2.193-.813s1.494-.567,2.242-.836l4.466-1.578a11.985,11.985,0,0,1,1.164-.422c.436-.115.826-.158,1.2-.224a4.989,4.989,0,0,0,.538-.119c.162-.045.335-.117.531-.186l1.122-.411c.757-.258,1.487-.549,2.263-.779a1.327,1.327,0,0,0,.9-.563.455.455,0,0,0,.016-.49A.638.638,0,0,0-942.435,2309.593Z" transform="translate(-18.414 -19.022)" fill="#2b2b2b"/>
      <path id="Path_15797" data-name="Path 15797" d="M-984.427,2324.654a1.577,1.577,0,0,0-1.334.6c-.373.349-.7.761-1.11,1.11a11.858,11.858,0,0,1-1.275.949c-.222.145-.448.283-.675.416s-.475.259-.646.383c-1.662,1.321-3.864,1.869-5.171,3.254a5.2,5.2,0,0,0-1.408,2.4,16.579,16.579,0,0,0-.223,2.991c-.01.542-.1,1.1-.11,1.551a1.956,1.956,0,0,0,.059.607,5.05,5.05,0,0,0,.219.656l.143.336.076.167c.019.037.039.076.067.123a4.3,4.3,0,0,0,.391.549,3.193,3.193,0,0,0,.448.452.823.823,0,0,0,.179.115c.035.013,0-.012-.092.027l-.372.455a.542.542,0,0,0-.083-.28,4.96,4.96,0,0,1-.32-.726,5.639,5.639,0,0,1-.158-.767,6.182,6.182,0,0,1-.041-.769,12.526,12.526,0,0,1,.07-1.456,6.728,6.728,0,0,1,.127-.752,3.728,3.728,0,0,1,.271-.767,8.436,8.436,0,0,1,1.755-2.4,7.641,7.641,0,0,1,2.478-1.632,3.717,3.717,0,0,1,.382-.111l.337-.078.675-.156,1.353-.3c.824-.178,1.626-.692,2.581-.951a12.691,12.691,0,0,0,2.576-.923,7.945,7.945,0,0,0,2.418-1.3,7.04,7.04,0,0,1-2.277,1.587,13.191,13.191,0,0,1-2.543,1.2c-.814.3-1.577.853-2.549,1.156l-1.335.392-.669.191a6.02,6.02,0,0,0-.615.193,7.059,7.059,0,0,0-2.055,1.513,7.361,7.361,0,0,0-1.449,2.1,2.558,2.558,0,0,0-.174.545,5.713,5.713,0,0,0-.084.619,12.178,12.178,0,0,0-.048,1.317,5.012,5.012,0,0,0,.037.616,4.264,4.264,0,0,0,.128.59,4.825,4.825,0,0,0,.256.536,1.684,1.684,0,0,1,.185,1.056l-.061.334-.311.123a1.163,1.163,0,0,1-.852-.013,2.032,2.032,0,0,1-.487-.286,3.959,3.959,0,0,1-.653-.648,5.411,5.411,0,0,1-.5-.727c-.039-.065-.078-.141-.116-.221l-.084-.189-.159-.383a6.3,6.3,0,0,1-.264-.825,3.21,3.21,0,0,1-.084-.94c.029-.59.114-1.059.126-1.559a16.051,16.051,0,0,1,.34-3.211,5.074,5.074,0,0,1,.71-1.58,6.827,6.827,0,0,1,1.089-1.279,9.854,9.854,0,0,1,2.782-1.694l1.414-.62a7.084,7.084,0,0,0,.679-.315c.2-.121.406-.285.652-.434.265-.161.5-.235.73-.351s.463-.22.69-.338a11.449,11.449,0,0,0,1.311-.794c.413-.283.776-.663,1.2-.987A1.663,1.663,0,0,1-984.427,2324.654Z" transform="translate(-15.703 -20.885)" fill="#2b2b2b"/>
      <path id="Path_15798" data-name="Path 15798" d="M-972.661,2324.883c1.114-.079,2.172-.343,3.293-.5a8.542,8.542,0,0,1,1.749-.07,9.691,9.691,0,0,1,1.616.619c.124.041.27.085.43.155a1.921,1.921,0,0,1,.472.292c.244.2.441.408.627.573a5.22,5.22,0,0,0,.622.453,4.608,4.608,0,0,1,.71.628,14.773,14.773,0,0,1,1.035,1.4c.319.465.628.943.915,1.438a13.984,13.984,0,0,1,1.341,3.188,12.386,12.386,0,0,1,.325,1.708,13.137,13.137,0,0,1,.112,1.711,6.074,6.074,0,0,1-.222,1.773,3.309,3.309,0,0,1-1.031,1.527,3.211,3.211,0,0,1-1.626.712,4.179,4.179,0,0,1-1.668.075,4.845,4.845,0,0,0,1.591-.418,2.838,2.838,0,0,0,1.275-.82,2.614,2.614,0,0,0,.656-1.283,5.807,5.807,0,0,0,.039-1.526,13.973,13.973,0,0,0-1.89-6.021c-.26-.467-.545-.925-.844-1.379s-.616-.935-.907-1.3a3.347,3.347,0,0,0-.505-.5,6.076,6.076,0,0,1-.687-.567l-.566-.582a1.441,1.441,0,0,0-.556-.324c-.6-.26-1.021-.631-1.408-.725a8.441,8.441,0,0,0-1.566-.125A20.037,20.037,0,0,1-972.661,2324.883Z" transform="translate(-18.798 -20.846)" fill="#2b2b2b"/>
      <path id="Path_15799" data-name="Path 15799" d="M-976.862,2329.8a22.408,22.408,0,0,1,2.922-.154c.5.013,1.022.143,1.444.181a13.346,13.346,0,0,0,1.387.045c.964-.027,1.946.023,2.913.035a1.75,1.75,0,0,1,.976.286c.3.207.436.372.589.48l1.173.863a13.1,13.1,0,0,1,2.15,2.119,5.01,5.01,0,0,1,.8,1.417,7.775,7.775,0,0,1,.194,1.507,9.151,9.151,0,0,1,.066,2.988,4.234,4.234,0,0,1-1.386,2.6,4.624,4.624,0,0,0,.767-2.652,10.444,10.444,0,0,0-.417-2.744,13.138,13.138,0,0,0-.273-1.336,3.99,3.99,0,0,0-.7-1.033,12.838,12.838,0,0,0-2-1.876l-1.136-.871c-.23-.182-.414-.378-.516-.445a.641.641,0,0,0-.392-.107l-2.854-.243a10.637,10.637,0,0,1-1.487-.214c-.525-.131-.921-.3-1.385-.382C-974.931,2330.057-975.907,2330-976.862,2329.8Z" transform="translate(-18.277 -21.51)" fill="#2b2b2b"/>
      <path id="Path_15800" data-name="Path 15800" d="M-968.381,2308.892a3.246,3.246,0,0,0-1,.481,4.865,4.865,0,0,0-.832.625,4.364,4.364,0,0,0-1.083,1.581,9.3,9.3,0,0,0-.271,1.019c-.127.4-.269.717-.335.994a1.821,1.821,0,0,0,.038.917,2.272,2.272,0,0,0,.189.5.811.811,0,0,1,.063.621c-.14-.381-.507-.439-.806-.84a2.186,2.186,0,0,1-.477-1.268,5.716,5.716,0,0,1,.164-1.218c.035-.179.039-.278.075-.529a3.547,3.547,0,0,1,.181-.658,3.805,3.805,0,0,1,1.7-1.933,3.651,3.651,0,0,1,1.191-.394A2.06,2.06,0,0,1-968.381,2308.892Z" transform="translate(-18.769 -18.918)" fill="#2b2b2b"/>
      <path id="Path_15801" data-name="Path 15801" d="M-963.2,2308.227a1.982,1.982,0,0,0-1.117.482,8.77,8.77,0,0,0-.889.839c-.282.312-.58.612-.91.938-.363.329-.688.563-1.006.831a4.773,4.773,0,0,0-1.466,1.731c-.354.721-.621,1.578-1.087,2.359a9.17,9.17,0,0,1,.156-2.687,3.806,3.806,0,0,1,.6-1.347,5.456,5.456,0,0,1,.992-1.032c.349-.285.733-.549,1.041-.77.331-.235.663-.531,1.046-.775a4.944,4.944,0,0,1,1.245-.638A1.729,1.729,0,0,1-963.2,2308.227Z" transform="translate(-19.165 -18.831)" fill="#2b2b2b"/>
      <path id="Path_15802" data-name="Path 15802" d="M-1078.027,2229.806c.241.09.363.346.536.5a1.927,1.927,0,0,0,.635.316c.229.08.467.15.7.256s.439.244.658.356a10.508,10.508,0,0,0,1.317.607,14.183,14.183,0,0,0,1.4.407,4.5,4.5,0,0,1,.74.276c.257.129.445.244.669.366l1.3.725a26.136,26.136,0,0,1,2.546,1.543c.817.554,1.613,1.109,2.437,1.554.85.424,1.774.915,2.617,1.419l5.111,3.151c.428.373.745.772,1.062,1.083a6.4,6.4,0,0,0,1.071.82c.2.134.419.274.633.429.108.076.215.159.321.244l.283.227c.376.3.764.583,1.153.868.781.564,1.594,1.089,2.43,1.587a5.848,5.848,0,0,0,2.589.806,7.047,7.047,0,0,1,1.5.432c.409.137.943.259,1.4.4a14.315,14.315,0,0,0,1.395.349,10.036,10.036,0,0,0,1.358.2c.31-.005.616-.418.858-.808a4.127,4.127,0,0,0,.513-1.306c.194-.936.169-1.948.359-2.917-.055.986.091,1.959-.028,2.972a4.579,4.579,0,0,1-.423,1.479,3.986,3.986,0,0,1-.408.681,1.307,1.307,0,0,1-.766.511,2.567,2.567,0,0,1-.841-.018c-.249-.034-.463-.051-.729-.079a14.866,14.866,0,0,1-1.494-.264c-.5-.116-.928-.19-1.464-.335a6.266,6.266,0,0,0-1.344-.323,11.1,11.1,0,0,1-1.532-.215,5.473,5.473,0,0,1-1.5-.611c-.871-.484-1.729-1-2.562-1.566-.417-.28-.822-.581-1.22-.889l-.3-.232-.268-.2c-.186-.131-.385-.258-.593-.393a7.607,7.607,0,0,1-1.275-.964c-.384-.378-.692-.747-1.011-1.018a6.418,6.418,0,0,0-1.147-.71c-.455-.27-.857-.525-1.281-.794l-2.482-1.587c-.832-.53-1.633-.989-2.531-1.471a23.073,23.073,0,0,1-2.473-1.722c-.763-.611-1.6-1.11-2.418-1.647l-1.231-.8a5.255,5.255,0,0,0-1.225-.673,14.365,14.365,0,0,1-1.391-.556,10.959,10.959,0,0,1-1.3-.758c-.207-.133-.411-.3-.6-.408s-.432-.206-.658-.313a2.08,2.08,0,0,1-.631-.426C-1077.728,2230.176-1077.8,2229.928-1078.027,2229.806Z" transform="translate(-5.728 -9.125)" fill="#2b2b2b"/>
      <path id="Path_15803" data-name="Path 15803" d="M-1031.311,2220.577a5.436,5.436,0,0,0,.073,2.8c.1.465.209.933.3,1.421a9.3,9.3,0,0,1,.146,1.5,11.767,11.767,0,0,0,.223,2.751,14.931,14.931,0,0,1,.152,2.994c-.024,1.849.281,3.851-.3,5.873-.081.268-.151.443-.209.671s-.107.445-.16.677c-.1.463-.2.957-.356,1.434a4.946,4.946,0,0,1-.662,1.364,3.445,3.445,0,0,0-.789,1.182,3.044,3.044,0,0,1,.491-1.369,4.948,4.948,0,0,0,.356-1.325c.077-.456.1-.919.139-1.407a9.362,9.362,0,0,1,.234-1.472,11.687,11.687,0,0,0,.118-2.733c-.036-.941-.116-1.9-.126-2.9a15.409,15.409,0,0,0-.061-2.764,7.363,7.363,0,0,1-.123-1.538c0-.505.054-.989.089-1.459a18.183,18.183,0,0,0-.076-2.821A4.787,4.787,0,0,1-1031.311,2220.577Z" transform="translate(-11.327 -7.98)" fill="#2b2b2b"/>
      <path id="Path_15804" data-name="Path 15804" d="M-1052.284,2216.821a3.7,3.7,0,0,0-2.561.286c-.418.155-.837.328-1.276.479a6.285,6.285,0,0,1-1.362.288,8.006,8.006,0,0,0-2.506.473,10.06,10.06,0,0,1-2.735.4c-1.7.1-3.51.622-5.422.029-.255-.084-.421-.16-.637-.217s-.419-.1-.637-.155a10.886,10.886,0,0,1-1.352-.349,4.157,4.157,0,0,1-1.315-.74c-.392-.347-.711-.8-1.161-.913.46-.064.9.308,1.3.524a3.636,3.636,0,0,0,1.251.357,10.554,10.554,0,0,0,1.307.077,6.559,6.559,0,0,1,1.374.193,7.871,7.871,0,0,0,2.52-.042c.861-.11,1.734-.277,2.651-.36a10.453,10.453,0,0,0,2.532-.269,4.913,4.913,0,0,1,1.4-.262c.465-.03.914,0,1.348.01a12.313,12.313,0,0,0,2.584-.292A3.418,3.418,0,0,1-1052.284,2216.821Z" transform="translate(-6.32 -7.446)" fill="#2b2b2b"/>
      <path id="Path_15805" data-name="Path 15805" d="M-1073.479,2215.23a2.345,2.345,0,0,1,2.513,2.162,2.344,2.344,0,0,1-2.162,2.513,2.344,2.344,0,0,1-2.512-2.162A2.344,2.344,0,0,1-1073.479,2215.23Z" transform="translate(-6.023 -7.316)" fill="#2b2b2b"/>
    </g>
  </g>
</svg>
