<svg xmlns="http://www.w3.org/2000/svg" xmlns:xlink="http://www.w3.org/1999/xlink" width="493" height="286" viewBox="0 0 493 286">
  <defs>
    <clipPath id="clip-path">
      <rect id="Rectangle_3463" data-name="Rectangle 3463" width="493" height="286" transform="translate(0 791)" fill="#fff" stroke="#707070" stroke-width="1"/>
    </clipPath>
    <clipPath id="clip-path-2">
      <path id="Path_15774" data-name="Path 15774" d="M-88.751,79.717C51.529,79.717,508,113.72,508,254S384.446,838.911,316.848,565.046-17,479.995-17,339.715-229.031,79.717-88.751,79.717Z" transform="translate(434.327 1261.138) rotate(166)" fill="#e2a460"/>
    </clipPath>
  </defs>
  <g id="Mask_Group_20" data-name="Mask Group 20" transform="translate(0 -791)" clip-path="url(#clip-path)">
    <path id="Path_15706" data-name="Path 15706" d="M-88.751,79.717C51.529,79.717,508,113.72,508,254S384.446,838.911,316.848,565.046-17,479.995-17,339.715-229.031,79.717-88.751,79.717Z" transform="translate(434.327 1261.139) rotate(166)" fill="#e2a460"/>
    <g id="Group_462" data-name="Group 462" transform="translate(5239.158 793.556)">
      <path id="Path_15707" data-name="Path 15707" d="M-5174.993,227.941a10.606,10.606,0,0,0-10.606,10.606v33.507a10.606,10.606,0,0,0,10.606,10.605,10.606,10.606,0,0,0,10.606-10.605V238.547a10.606,10.606,0,0,0-10.606-10.606" transform="translate(-0.386 -21.351)" fill="#3f5146"/>
      <path id="Path_15708" data-name="Path 15708" d="M-5175.379,180.444a11.132,11.132,0,0,0-11.079,11.079c0,6.078,11.079,17.91,11.079,17.91s11.078-11.832,11.078-17.91a11.131,11.131,0,0,0-11.078-11.079m0,13.4a3.069,3.069,0,0,1-3.068-3.069,3.069,3.069,0,0,1,3.068-3.069,3.069,3.069,0,0,1,3.069,3.069,3.069,3.069,0,0,1-3.069,3.069" fill="#f7e2c4"/>
    </g>
    <g id="Group_474" data-name="Group 474" transform="translate(-70.113 823.2) rotate(-18)">
      <g id="Group_473" data-name="Group 473" transform="translate(0 0)">
        <path id="Path_15764" data-name="Path 15764" d="M2.4,43.284C11.52,20.079,40.886,9.867,51.241,6.266,71.783-.878,93.113-1.087,93.676,1.555c.453,2.111-12.7,6.492-12.167,8.213.419,1.352,8.733-.755,18.573-1.669,17.9-1.664,35.75,1.09,35.861,4.563.1,3.094-13.905,5.884-13.581,8.688.245,2.112,8.271,1.281,19.763,4.988,1.582.51,13.441,4.4,12.7,7.367-.676,2.712-11.329,2.42-11.794,4.66-.536,2.584,13.572,3.3,25.284,12.034,8.62,6.427,13.353,15.264,11.867,16.555-1.677,1.458-11.835-6.259-12.786-5.282-1.1,1.131,13.125,10.9,21.373,28.425,2.142,4.551,4.335,10.589,3.027,11.313-1.814,1-9.36-7.94-9.671-7.7s7.692,8.212,14.318,19.156c4.462,7.37,9.505,18.072,7.341,19.451-2.466,1.572-13.149-9.682-14.031-8.974-1.383,1.109,25.192,28.586,21.7,31.74-1.81,1.636-10.037-3.651-11.044-2.445s7.45,6.4,13.988,15.841c4.71,6.8,8.134,16.188,5.226,18.452-4.524,3.522-27.146-17.778-29.476-15.761-1.589,1.377,9.183,12.078,7.1,14.053-1.692,1.6-11.475-2.856-18.89-9.392-6-5.291-9.114-10.768-9.8-10.4-1.091.588,8.346,13.9,4.893,16.85-2.571,2.2-11.886-1.688-18.059-6.932-5.913-5.024-8.5-10.924-9.088-10.64-.885.429,7.267,12.843,3.772,15.858-3,2.586-13.527-2.639-19.471-6.456-10.623-6.821-15.553-14.891-16.6-14.274-1.466.862,5.279,11.113,3.188,12.519-1.644,1.105-7.482-1.246-14.4-10.795-5.121-7.07-7.436-13.277-8.3-12.962-1.442.526,5.287,17.708,2.483,19.033-2.351,1.111-10.831-9.193-16.435-18.442-4.474-7.386-6.741-13.484-7.593-13.2-1.515.506,6.245,19.587,1.9,21.97-3.828,2.1-17.079-8.747-24.863-22.453-7.005-12.335-8.133-24.432-9.707-24.135-1.8.34,1.159,15.908-2.788,17.384-4.673,1.748-17.147-16.975-25.065-34.717C2.142,70.991-3.513,58.316,2.4,43.284Z" transform="translate(0 0)" fill="#3f5146"/>
      </g>
    </g>
    <g id="Group_472" data-name="Group 472" transform="translate(59.984 810.198)">
      <g id="Group_464" data-name="Group 464" transform="translate(0 16.04)">
        <g id="Group_463" data-name="Group 463" transform="translate(0)">
          <path id="Path_15709" data-name="Path 15709" d="M-1432.076,2107.968c3.861-3.842,8.113-3.34,15.935-9.036a9.806,9.806,0,0,0,3.657-4.454,10.23,10.23,0,0,0-.093-6.563c-1.852-6.475,9.16-27.34,28.829-41,16.4-11.393,34.51-14.79,46.174-14.547a183.557,183.557,0,0,1,24.945,2.812c5.737,1.02,8.6,1.529,10.2,2.1,20.188,7.2,31.427,38.189,24.651,46.259-.9,1.076-1.292,2.8-2.309,3.962-2.525,2.873-6.329,5.245-9.16,7.759-6.289,5.585-9.2,11.646-7.748,20.635l-.433,4.093.856-2.781c.717,5.036.806,9.469,6.027,11.1,2.327.726,4.454,1.063,5.275,3.684.627,2,.208,3.61-.836,4.446-1.17.937-3.038.392-3.9.171a20.909,20.909,0,0,0-6.9-.486c-1.044.436-3.41.615-7.59,1.73-2.668.712-3.394,1.09-4.583.712-.968-.308-1.76-.964-3.829-4.091-2.209-3.34-2.45-4.321-3.656-6.018a20.6,20.6,0,0,0-5.548-5.128c-5.749-4.233-6.385-13.334-8.711-19.731-4.593-12.626-17.967-20.744-27.344-23.218-7.681-2.027-15.018-.883-20.51.72a24.321,24.321,0,0,1,7.363.045,27.7,27.7,0,0,1,8.141,2.837c2.49,1.285,6.054,3.126,8.679,6.741,4.7,6.477,3.271,14.357,3.1,15.242-1.151,5.837-4.9,10.3-9.636,15.933-3.28,3.9-6.272,6.627-5.546,7.785.489.781,2.24.166,8.69.321,2.228.054,3.334.158,4.377.945a7.362,7.362,0,0,1,2.3,4.094c.515,1.79.83,2.812.347,3.652-.351.609-1.252,1.466-9.274,1.484-4.23.01-4.344-.228-7.748-.094-1.958.077-3.1.2-5.282.157-.438-.009-2.439-.055-4.868-.344-6.565-.78-9.847-1.169-12.2-3.056-2.561-2.052-4.751-5.872-5.887-8.977-.487-1.332-.607-2.056-1.372-2.629-3.021-2.263-11.2,1.525-11.245,4.864-.019,1.384,2.4,3.272,7.239,7.048a19.752,19.752,0,0,0,2.556,1.929c12,4.331,21.837,7.394,28.385,9.338,8.937,2.652,27.123,7.785,43.9,17.981,3.909,2.375,8.821,5.683,8.727,10.017a7.842,7.842,0,0,1-5.485,6.963c-2.007.511-3.283-.365-8.941-3.235-3.22-1.633-6.617-3.214-13.411-6.376-6.542-3.045-8.144-3.508-8.88-3.709a35.513,35.513,0,0,0-10.877-1.161c-6.362.138-14.741-3.932-31.5-12.074-20.51-9.964-17.545-10.971-27.624-15.694a20.531,20.531,0,0,1-7.978-6.119,20.248,20.248,0,0,1-3.27-6.688C-1437.484,2122.692-1437.5,2113.364-1432.076,2107.968Z" transform="translate(1436.823 -2032.351)" fill="#e2a460"/>
        </g>
      </g>
      <g id="Group_466" data-name="Group 466" transform="translate(53.721 61.38)">
        <g id="Group_465" data-name="Group 465" transform="translate(0)">
          <path id="Path_15710" data-name="Path 15710" d="M-1321.1,2114.987c-1.609-10.242-.575-12.173-2.247-15.686-4.442-9.332-19.3-10.555-24.913-11.079-14.189-1.325-26.154,3.365-26.085,3.728.041.213,4.192-1.259,9.7-.909,7.28.461,21.92,4.421,25.435,16.957,2.545,9.077-1.6,19.6-10.366,26.1a58.056,58.056,0,0,0,14.29.053,58.939,58.939,0,0,0,17.322-4.865A121.334,121.334,0,0,1-1321.1,2114.987Z" transform="translate(1374.346 -2087.986)" fill="#3f5146"/>
        </g>
      </g>
      <g id="Group_468" data-name="Group 468" transform="translate(134.4 1.753)">
        <g id="Group_467" data-name="Group 467" transform="translate(0)">
          <path id="Path_15711" data-name="Path 15711" d="M-1477.954,2025.729c-.364-1.216-.861-2.583-.233-3.685.2-.349.5-.633.693-.982a2.114,2.114,0,0,0-1.218-2.938,6.325,6.325,0,0,1,4.344-1.369,18.758,18.758,0,0,1,4.564.888l3.841,1.083a29.492,29.492,0,0,1,9.945-1.541l1.711-.806a16.448,16.448,0,0,1,3.59-1.362,11.7,11.7,0,0,1,3.3-.148,20.27,20.27,0,0,1,10.936,4.317c2.4.544,4.479,1.156,6.2,1.726a11.139,11.139,0,0,1,3.935-2.855,7.564,7.564,0,0,1,3.479-.757,5.385,5.385,0,0,1,4.9,5.263c-.053,3.456-3.442,6.173-3.527,9.629l1.547,4.2c1.4,7.158,2.595,15.327-1.594,21.192a24.318,24.318,0,0,1-5.952,5.384c-3.875,2.763-7.963,5.6-10.236,9.894-1.626,3.075-1.443,4.05-3.418,5.915-.435.411-4.524,4.172-8.052,2.575a5.734,5.734,0,0,1-2.728-3c-1.033-.8-2.24-1.762-3.57-2.892l1.026,1.756a12.654,12.654,0,0,1-1.908-2.516c-1.866-1.625-3.939-3.553-6.106-5.8-1.351-1.4-2.649-2.741-3.88-4.048a32.045,32.045,0,0,1-10.132-9.5c-2.342-3.631-2.532-7.6-2.087-11.532a32.172,32.172,0,0,1,1.267-12.861A15.82,15.82,0,0,0-1477.954,2025.729Z" transform="translate(1478.778 -2014.819)" fill="#e2a460"/>
        </g>
      </g>
      <g id="Group_470" data-name="Group 470" transform="translate(182.492 13.73)">
        <path id="Path_15712" data-name="Path 15712" d="M-1466.185,2045.683c-2.215,2.553-6.759-9.105-7.332-10.746-.565-1.619-2.171-3.931.272-4.587,2.852-.765,4.593,4.506,4.782,6.561" transform="translate(1475.464 -2029.657)" fill="#f7e2c4"/>
        <g id="Group_469" data-name="Group 469" transform="translate(0)">
          <path id="Path_15713" data-name="Path 15713" d="M-1471.722,2038.38l-.008-.027c-.013-.047-.024-.094-.033-.141Z" transform="translate(1478.724 -2031.125)" fill="#f7e2c4"/>
          <path id="Path_15714" data-name="Path 15714" d="M-1471.685,2036.6c0-.134-.052-.38.067-.419q-.018.129-.024.254c.091.009.13.162.144.3l-.038-.152c0,.042-.051.028-.047.068.1.222.047.3.169.5l0-.013.02.174c.022.052.032.028.034.009a3.5,3.5,0,0,0,.1.478c-.081-.154-.086-.458-.2-.6v.013C-1471.488,2037.011-1471.64,2036.8-1471.685,2036.6Z" transform="translate(1478.207 -2030.75)" fill="#f7e2c4"/>
          <path id="Path_15715" data-name="Path 15715" d="M-1471.576,2037.581l0-.014A.032.032,0,0,1-1471.576,2037.581Z" transform="translate(1478.424 -2031.006)" fill="#f7e2c4"/>
          <path id="Path_15716" data-name="Path 15716" d="M-1466.031,2031.754l-.033-.075A.129.129,0,0,1-1466.031,2031.754Z" transform="translate(1468.387 -2029.917)" fill="#f7e2c4"/>
          <path id="Path_15717" data-name="Path 15717" d="M-1468.494,2031.169l-.015,0C-1468.458,2031.084-1468.467,2031.108-1468.494,2031.169Z" transform="translate(1472.82 -2029.812)" fill="#f7e2c4"/>
          <path id="Path_15718" data-name="Path 15718" d="M-1471,2045.573h.094C-1470.98,2045.6-1471,2045.6-1471,2045.573Z" transform="translate(1477.288 -2032.488)" fill="#f7e2c4"/>
          <path id="Path_15719" data-name="Path 15719" d="M-1473.03,2049.018l0,0Z" transform="translate(1481.06 -2033.125)" fill="#f7e2c4"/>
          <path id="Path_15720" data-name="Path 15720" d="M-1471.15,2048.152l-.046.027C-1471.177,2048.155-1471.163,2048.148-1471.15,2048.152Z" transform="translate(1477.689 -2032.965)" fill="#f7e2c4"/>
          <path id="Path_15721" data-name="Path 15721" d="M-1472.286,2049.213a.643.643,0,0,1,.092.047A.119.119,0,0,1-1472.286,2049.213Z" transform="translate(1479.62 -2033.161)" fill="#f7e2c4"/>
          <path id="Path_15722" data-name="Path 15722" d="M-1473.027,2048.982a.245.245,0,0,0,.016.03A.134.134,0,0,1-1473.027,2048.982Z" transform="translate(1481.042 -2033.119)" fill="#f7e2c4"/>
          <path id="Path_15723" data-name="Path 15723" d="M-1469.578,2046.54l-.187.061A.648.648,0,0,1-1469.578,2046.54Z" transform="translate(1474.95 -2032.667)" fill="#f7e2c4"/>
          <path id="Path_15724" data-name="Path 15724" d="M-1472.525,2049.479a.144.144,0,0,1,.073.009A.092.092,0,0,1-1472.525,2049.479Z" transform="translate(1480.073 -2033.21)" fill="#f7e2c4"/>
          <path id="Path_15725" data-name="Path 15725" d="M-1471.113,2036.439a.684.684,0,0,1,.033.106A.223.223,0,0,1-1471.113,2036.439Z" transform="translate(1477.551 -2030.797)" fill="#f7e2c4"/>
          <path id="Path_15726" data-name="Path 15726" d="M-1465.571,2039.7a.576.576,0,0,1-.1.063A.133.133,0,0,1-1465.571,2039.7Z" transform="translate(1467.602 -2031.401)" fill="#f7e2c4"/>
          <path id="Path_15727" data-name="Path 15727" d="M-1467.777,2043.835l0,.015-.043,0Z" transform="translate(1471.566 -2032.166)" fill="#f7e2c4"/>
          <path id="Path_15728" data-name="Path 15728" d="M-1467.167,2042.618l-.045.037A.167.167,0,0,1-1467.167,2042.618Z" transform="translate(1470.459 -2031.941)" fill="#f7e2c4"/>
          <path id="Path_15729" data-name="Path 15729" d="M-1468.036,2044.861a.277.277,0,0,1-.049.07Z" transform="translate(1472.039 -2032.356)" fill="#f7e2c4"/>
          <path id="Path_15730" data-name="Path 15730" d="M-1470.128,2042.6c-.086.006-.129.073-.168.139-.207-.118,0-.3-.29-.39l.151.032a.3.3,0,0,0-.289-.421l-.047.067c.1-.195-.322-.208-.209-.328.12,0,.145-.077.274-.051l.014-.372-.306.126.011-.2c.141-.023-.21-.152.075-.3-.156-.032-.211.148-.31.236.039-.127-.1-.073.036-.236l-.316.047.07-.314c-.02.024-.047.019-.067.042.178-.213-.281-.19.06-.513a.159.159,0,0,1-.044.029c.187-.175-.066-.274-.147-.316,0-.141.254-.176.374-.237-.235-.3-.171-.2.053-.643-.455,0-.509.472-.873.374a.6.6,0,0,0,.234-.525,2.11,2.11,0,0,0-.767-.345l.263-.094.043-.28-.319.285c.071-.073.184-.253.279-.38.126-.323-.628.112-.309-.233l-.091.018c.177-.142.037-.261.037-.464l-.314.2.122.082c-.357.077-.026-.209-.093-.31.068-.162.371-.219.447-.322-.033-.036.042-.138-.069-.131-.148-.058-.411.154-.543.245.315-.231.258-.242.321-.495-.172.056-.24.1-.262.139a.5.5,0,0,1,.228-.205l-.226.014c-.381-.109.558-.477.344-.7-.161.143-.044-.246-.3-.242-.021.115-.534.152-.725.289-.213-.17.385-.245.4-.451l-.415.236c.128-.242.221-.13.294-.355-.11.095-.147-.035-.251.121a3.573,3.573,0,0,0-.191-.346l.423-.168c.027-.077-.171-.029-.255-.016,0,.027.029.058-.027.075-.394.073.168-.187-.2-.134.142-.033.338-.084.332-.17-.249.127-.287-.018-.4.022.2-.027.018-.192.29-.323-.23-.008-.19.114-.328.178.3-.213-.086-.331.071-.484l-.063.021c.157-.183.135-.367.344-.685l-.214.168c-.185-.161.455-.328.388-.489-.331.167-.073-.285-.43-.07a1.645,1.645,0,0,1,.5-.472c-.227-.037-.42.337-.561.234l.138-.206-.2.029c.138-.047.116-.183.23-.206-.234.038-.409.011-.582.06.044-.118-.209-.233-.014-.369l-.114.008c.208-.089.219-.172.234-.252s.049-.162.271-.188l-.24-.071c.044-.177.5-.106.613-.153.026-.051.085-.1.055-.161-.311.115-.321-.173-.428-.285a.516.516,0,0,1,.125-.192.308.308,0,0,1,.287-.049c-.236-.048-.356-.208-.491-.028-.163-.155-.074-.228.047-.275s.278-.064.351-.153l-.136-.141c.373-.147.562.157.825.39a.863.863,0,0,0-.341-.43.472.472,0,0,1,.307-.21,1.671,1.671,0,0,0,.364-.079.258.258,0,0,0-.148-.3c.263.085.58-.131.754.245-.068-.147.086-.127.178-.187,0,.082.015.19.024.179.144.189.39.329.562.262l-.024-.129c.183.034.261.222.325.372s.107.3.33.277c.1-.029.106-.287.219-.2-.019.147-.2.349-.029.4l.136-.19-.061.256c-.167.108-.253-.049-.3.195.242-.081-.05.231.242.143a.975.975,0,0,1,.1-.29.348.348,0,0,1,.337.293.443.443,0,0,0,.323.32c-.022.255.1.456.051.639a1.1,1.1,0,0,0,.384-.367c.108.132-.223.425.074.376-.177.2.09.464-.192.657.064-.027.088.144.17-.085.012.235.39.123.433.218.017.054-.21.029-.153.144.019.008.048,0,.067.007l-.044.075c.085.017.113-.114.184-.153.128.143-.038.348.039.544l.028-.052c.033.065.068.13.1.2l.01-.018-.019.2.06-.029c0,.044-.037.068-.022.122l.067-.045a.416.416,0,0,0-.029.4l.037.007c-.016.089-.029.176-.038.262.116.094.086-.2.134.05l.1-.1c.012.184.088.189.086.318-.073-.037-.1-.117-.127-.042.178.092.041.221.053.355-.024-.064-.045-.105,0-.166-.029-.067-.067-.007-.089-.047l.025-.113-.091,0-.007-.18c-.094.042-.078-.142-.156-.045-.008-.125-.116-.16-.051-.3-.1-.049-.025.145-.075.071a3.577,3.577,0,0,0-.683-1.294l-.041.073c.04-.072.061-.152.094-.209-.162-.016-.5-.181-.333-.4-.023,0-.044.035-.055.055-.065-.149-.4-.274-.53-.436.2-.265-.376-.111-.082-.446l-.041.091c.152-.029.172-.277.236-.38-.274.158-.18.149-.442.29l.14-.015-.2.154c.146-.294.006-.362-.15-.334s-.3.073-.2-.17c-.009.026-.038.06-.047.086-.169.061-.018-.231-.035-.349a.858.858,0,0,0-.116.308c-.1.016-.148-.077-.214-.174-.064-.068-.151-.129-.248-.037,0-.208.09-.249.068-.414a.321.321,0,0,0-.094.3c-.1.187-.159.139-.258.061-.1-.027-.239-.08-.281.117-.174-.178-.131-.306-.381-.379.1.126.161.5.258.478l.068.152c-.162.1-.108.192-.457-.149.247.264.027.062.165.206l-.06-.055c-.232-.182.011.03-.028,0l.055.033a.642.642,0,0,0-.2-.084,1.025,1.025,0,0,0,.211.1l-.24-.09c-.011.028.3.1.243.108l-.187-.051c.121.044-.152.05.125.083.055.006.033,0,.043,0,.4.054-.13.1.077.2l-.425.024c-.114.124.1.051.244.028.009.065.14.048.215.129a.833.833,0,0,1-.263.1l.126.073.209-.118c-.562.31.195.362-.3.667.141.024.219-.15.3-.135.332.093-.189.623.189.688.417.182.3.654.651,1l-.113.033c.068.092.126.162.182.225-.225.152-.051.275-.3.485a1.774,1.774,0,0,0,.28-.117c0,.117-.074.275.1.281l.081-.071c.152.2.278.521.12.724.006.089.2.01.336-.021.062.129-.015.26-.143.439a.758.758,0,0,0,.223.015l-.24.156c.058.042.218-.074.3-.057-.231.335.139.465.175.619l-.135.033c-.076.1.147.145.247.019.259.225-.231.6-.007.959.464-.14.011.408.522.249-.059.22.172.24-.062.481.05-.019.075-.014.073-.043.2-.016.15.263.1.482l.144-.056c-.28.2-.077.443-.346.642.073-.012.112-.09.155-.139.315-.046-.073.214.039.293.068-.042.164-.05.206-.1.453.217.162,1,.572,1.37.066.127-.291.094-.194.254.148-.017.222-.22.322-.139-.124.162-.076.173-.015.27.073-.063.135-.074.159-.178.126.006-.081.362.168.376a.313.313,0,0,0-.139.125c-.116.288.381.293.277.372,0,0,0,.08-.05.039.033.064.106.139.2.061-.042.067-.118.149-.1.205l.109-.1c-.013.045-.073.123-.075.161l-.094,0c.134.015-.031.3.189.161l-.007-.028.162.077c-.062.109-.118.216-.045.289.232-.1.154.207.238.306l.067-.051c-.051.153.11.354.056.335.044.088.151.171.182.09,0,.094.08.241.007.349l.208.038c-.135.226.219.219.042.38.073.053.1,0,.163.025a.417.417,0,0,0,.154.355l.016-.012c.085.082.1.28.225.4l.1-.069c.046.08.012.174.088.2.024,0,.012-.018,0-.037a.4.4,0,0,0,.2.134.771.771,0,0,0,.26.224c.094-.032-.129-.063-.045-.1a.862.862,0,0,0,.527.037c.015-.009-.011-.006-.022-.01.02.055.4-.195.325-.156.038-.041.076-.091-.044.055-.042.046-.163.182-.192.2l-.02-.009c-.238.113.025.085-.295.211l.068-.035a1.1,1.1,0,0,0-.185.046c-.021.017.025.009.054.008a.7.7,0,0,1-.28-.037c-.017.028-.01.044.047.065-.27-.013.061-.063-.245-.11-.064.01.007.039.042.066a.417.417,0,0,1-.36-.15c-.034.054.064.086-.073.073.042-.019.082-.059,0-.1.009.073-.09,0-.174-.03a.044.044,0,0,0,.021-.071c-.03-.033-.08-.029-.129-.065h.136c-.08-.14-.22-.1-.336-.145a.071.071,0,0,0,.02.055c-.115-.05-.283-.069-.339-.228v.017c-.141-.262.177-.051.015-.346-.09-.063-.222.266-.31.007.152.026.065-.266.016-.4l-.081.252c-.042-.041-.06-.154-.1-.163l.046-.027c.164-.113-.139-.122-.1-.279-.152.271-.1.242-.3.428.047-.165.09-.34-.055-.462l-.084.248c-.226-.149-.113-.579-.041-.861-.13.149-.237.12-.32.28l-.111-.209-.14.17c.125-.2-.069-.2.189-.341-.019.042-.049.057-.014.089.07-.051.2-.182.121-.273-.108-.028-.071.1-.155.126.058-.127-.112-.028-.084-.139l.151-.01c.116-.137-.067-.113-.034-.226-.015.12-.117.147-.231.173l.023-.007c-.024-.054.043-.183-.069-.162l-.189.171.11-.166c-.046-.011-.138.016-.147.086-.293-.139.479-.275.084-.445-.084.055-.122.121-.018.169-.127.092-.222.12-.328.072l-.026.014C-1470.072,2042.981-1470.228,2042.793-1470.128,2042.6Z" transform="translate(1474.774 -2029.523)" fill="#f7e2c4"/>
          <path id="Path_15731" data-name="Path 15731" d="M-1469.148,2046.211c.058.08.109.147.1.195C-1469.1,2046.416-1469.3,2046.291-1469.148,2046.211Z" transform="translate(1473.96 -2032.606)" fill="#f7e2c4"/>
          <path id="Path_15732" data-name="Path 15732" d="M-1465.405,2029.549a.384.384,0,0,1-.054-.021Z" transform="translate(1467.268 -2029.518)" fill="#f7e2c4"/>
          <path id="Path_15733" data-name="Path 15733" d="M-1466.614,2029.535a.127.127,0,0,1-.051.071C-1466.665,2029.538-1466.651,2029.487-1466.614,2029.535Z" transform="translate(1469.459 -2029.516)" fill="#f7e2c4"/>
          <path id="Path_15734" data-name="Path 15734" d="M-1465.233,2038.411l0,0Z" transform="translate(1466.91 -2031.161)" fill="#f7e2c4"/>
          <path id="Path_15735" data-name="Path 15735" d="M-1463.538,2033.359a.626.626,0,0,1,.3-.195C-1463.26,2033.219-1463.337,2033.281-1463.538,2033.359Z" transform="translate(1463.538 -2030.191)" fill="#f7e2c4"/>
          <path id="Path_15736" data-name="Path 15736" d="M-1463.968,2035.174l-.045.05A.08.08,0,0,1-1463.968,2035.174Z" transform="translate(1464.652 -2030.563)" fill="#f7e2c4"/>
          <path id="Path_15737" data-name="Path 15737" d="M-1465.258,2038.7c.095-.108.052-.188.093-.284C-1465.206,2038.5-1465.04,2038.561-1465.258,2038.7Z" transform="translate(1466.842 -2031.162)" fill="#f7e2c4"/>
          <path id="Path_15738" data-name="Path 15738" d="M-1467.872,2030.275c0-.064,0-.121-.007-.182a1.229,1.229,0,0,1,.032.142Z" transform="translate(1471.682 -2029.623)" fill="#f7e2c4"/>
          <path id="Path_15739" data-name="Path 15739" d="M-1466.826,2029.86c-.04.037-.175-.09-.127-.177A.5.5,0,0,0-1466.826,2029.86Z" transform="translate(1469.914 -2029.547)" fill="#f7e2c4"/>
          <path id="Path_15740" data-name="Path 15740" d="M-1463.856,2031.777l-.214,0,.173-.049Z" transform="translate(1464.587 -2029.926)" fill="#f7e2c4"/>
        </g>
      </g>
      <g id="Group_471" data-name="Group 471" transform="translate(136.52 13.02)">
        <path id="Path_15741" data-name="Path 15741" d="M-1421.7,2030.522c1.56-.832,5.255-2.8,8.437-1.372a3.464,3.464,0,0,1,1.737,1.426c1.239,2.262-1.094,5.832-3.431,6.885-1.74.784-3.846.347-5.635.943a13.367,13.367,0,0,0-4.992,3.154c-4.9,5-1.908,14.943-2.36,15.006-.489.068-5.771-11.287-.151-20.171A17.222,17.222,0,0,1-1421.7,2030.522Z" transform="translate(1430.668 -2028.644)" fill="#f7e2c4"/>
      </g>
      <path id="Path_15742" data-name="Path 15742" d="M-1480.964,2079.458a5.881,5.881,0,0,0,2.683,3.109,5.511,5.511,0,0,0,4.161.16,12.2,12.2,0,0,0,3.694-2.033,9.088,9.088,0,0,0,2.741-3.262c.595-1.292,1.084-2.542,1.746-3.738a17.78,17.78,0,0,1,2.328-3.292,39.355,39.355,0,0,1,6.158-5.354,49.99,49.99,0,0,0,6.542-5.239,15.533,15.533,0,0,0,3.979-7.524,27.188,27.188,0,0,0,.328-8.442,73.552,73.552,0,0,0-1.384-8.238l-.01-.047-.015-.04-1.68-4.3.035.2a7.651,7.651,0,0,1,.8-3.106c.463-1.019,1.043-2.011,1.547-3.075a8.958,8.958,0,0,0,.993-3.445,5.457,5.457,0,0,0-1.025-3.469,5.977,5.977,0,0,0-2.838-2.178,5.768,5.768,0,0,0-3.534-.052,12.1,12.1,0,0,0-3.159,1.474,11.684,11.684,0,0,0-2.549,2.333,11.827,11.827,0,0,1,5.8-3.447,5.321,5.321,0,0,1,3.252.188,5.61,5.61,0,0,1,2.476,2.06,4.739,4.739,0,0,1,.812,3.045,8.175,8.175,0,0,1-1,3.109c-.509,1-1.121,1.984-1.641,3.046a8.632,8.632,0,0,0-.987,3.506l0,.094.039.1,1.634,4.316-.025-.085a72.7,72.7,0,0,1,1.288,8.119,26.016,26.016,0,0,1-.381,8.056,14.37,14.37,0,0,1-3.61,6.978,49.2,49.2,0,0,1-6.342,5.165,35.675,35.675,0,0,0-6.234,5.614,18.748,18.748,0,0,0-2.349,3.531c-.645,1.244-1.13,2.588-1.656,3.82a8.482,8.482,0,0,1-2.462,3.095,11.682,11.682,0,0,1-3.439,2.107,5.178,5.178,0,0,1-3.917.031A5.893,5.893,0,0,1-1480.964,2079.458Z" transform="translate(1643.299 -2013.255)" fill="#2b2b2b"/>
      <path id="Path_15743" data-name="Path 15743" d="M-1462.689,2018.708a30.721,30.721,0,0,1,8.026-3.605,30.114,30.114,0,0,1,8.61-1.164,12.931,12.931,0,0,1,4.184.7c1.365.441,2.727,1.066,4.117,1.59,2.764,1.092,5.547,2.142,8.378,3.077-2.622-1.42-5.3-2.724-7.986-3.988-1.345-.632-2.677-1.272-4.115-1.816a13.8,13.8,0,0,0-4.552-.835,26.028,26.028,0,0,0-8.937,1.493A22.536,22.536,0,0,0-1462.689,2018.708Z" transform="translate(1611.472 -2012.668)" fill="#2b2b2b"/>
      <path id="Path_15744" data-name="Path 15744" d="M-1405.541,2018.585c-1.222-.461-2.455-.879-3.688-1.292-1.241-.4-2.461-.821-3.74-1.163a11.994,11.994,0,0,0-4.026-.478,6.612,6.612,0,0,0-3.917,1.552l-.86.755,1.121.32a1.553,1.553,0,0,1,.991,1.064,1.553,1.553,0,0,1,.036.755,1.867,1.867,0,0,1-.4.721,3.349,3.349,0,0,0-.614,1.131,3.417,3.417,0,0,0-.1,1.292,9.131,9.131,0,0,0,.589,2.217,17.6,17.6,0,0,1,.949,4.116,18.961,18.961,0,0,1-.034,4.3,14.218,14.218,0,0,0,.681-4.329,15.507,15.507,0,0,0-.622-4.4,9.693,9.693,0,0,1-.43-1.991,2.261,2.261,0,0,1,.1-.855,2.482,2.482,0,0,1,.455-.744,5.088,5.088,0,0,0,.354-.5,2.689,2.689,0,0,0,.274-.667,2.781,2.781,0,0,0-.033-1.39,2.71,2.71,0,0,0-1.878-1.937l.262,1.075a5.739,5.739,0,0,1,3.187-1.321,12.573,12.573,0,0,1,3.7.245l3.8.8C-1408.106,2018.123-1406.83,2018.377-1405.541,2018.585Z" transform="translate(1554.293 -2013.216)" fill="#2b2b2b"/>
      <path id="Path_15745" data-name="Path 15745" d="M-1433.662,2042.842c-.5,2.089-.954,4.185-1.269,6.325a22.39,22.39,0,0,0-.042,6.527,14.832,14.832,0,0,0,2.459,6.136,28.144,28.144,0,0,0,4.327,4.924,38.166,38.166,0,0,0,5.224,3.912c.924.572,1.87,1.105,2.825,1.616s1.94.968,2.87,1.444a7.315,7.315,0,0,1,2.393,1.839,20.065,20.065,0,0,1,1.776,2.6c.564.909,1.12,1.834,1.737,2.722a11.988,11.988,0,0,0,2.124,2.432,23.806,23.806,0,0,1-3.317-5.458,20,20,0,0,0-1.67-2.819,7.982,7.982,0,0,0-2.561-2.184c-.951-.55-1.894-1.033-2.817-1.554s-1.828-1.072-2.711-1.654a38.666,38.666,0,0,1-5.018-3.838,27.909,27.909,0,0,1-4.2-4.668,14.46,14.46,0,0,1-2.472-5.627,24.094,24.094,0,0,1-.314-6.289C-1434.212,2047.1-1433.88,2044.979-1433.662,2042.842Z" transform="translate(1568.929 -2018.252)" fill="#2b2b2b"/>
      <path id="Path_15746" data-name="Path 15746" d="M-1294.369,2037.208a4.571,4.571,0,0,0-1.952-1.084,16.352,16.352,0,0,0-2.2-.482c-1.486-.222-2.987-.317-4.468-.482a16.411,16.411,0,0,1-2.191-.384l-2.2-.473c-1.47-.3-2.944-.582-4.423-.829a124.86,124.86,0,0,0-17.933-1.658,59.2,59.2,0,0,0-17.845,2.75,90.257,90.257,0,0,0-16.668,6.947c-5.261,2.9-10.418,5.984-15.388,9.374a98.088,98.088,0,0,0-14.019,11.347,51.572,51.572,0,0,0-10.613,14.549,31.175,31.175,0,0,0-2.723,17.6,31.066,31.066,0,0,1,.405-8.917,33.1,33.1,0,0,1,2.881-8.41,50.947,50.947,0,0,1,10.735-14.118,106.022,106.022,0,0,1,13.984-11.09c4.947-3.329,10.1-6.363,15.344-9.215a89.033,89.033,0,0,1,16.4-6.957,61.353,61.353,0,0,1,17.506-2.882,125.638,125.638,0,0,1,17.844,1.3c1.481.2,2.956.436,4.43.685l2.205.4a16.772,16.772,0,0,0,2.241.319c1.5.118,2.992.169,4.476.338a16.216,16.216,0,0,1,2.2.385A4.51,4.51,0,0,1-1294.369,2037.208Z" transform="translate(1431.334 -2016.21)" fill="#2b2b2b"/>
      <path id="Path_15747" data-name="Path 15747" d="M-1370.38,2108.916a2.4,2.4,0,0,1-.539,1.962,7.819,7.819,0,0,1-1.5,1.468c-1.11.86-2.341,1.56-3.475,2.4a59.137,59.137,0,0,0-6.429,5.5,29.847,29.847,0,0,0-2.915,3.094,15.356,15.356,0,0,0-2.07,3.735,21.068,21.068,0,0,0-1.188,4.1,25.38,25.38,0,0,0-.464,4.242,24.17,24.17,0,0,0,1.183,8.442,18.794,18.794,0,0,0,4.43,7.31,24.792,24.792,0,0,0,7.072,4.8,71.818,71.818,0,0,1,7.239,4.247c4.695,3.071,9.249,6.461,14.353,9.023.645.3,1.285.618,1.935.911.662.27,1.313.565,1.984.813,1.361.5,2.674.93,3.963,1.438a79.141,79.141,0,0,1,7.564,3.624c2.486,1.315,4.962,2.675,7.524,3.9a42.6,42.6,0,0,0,8.008,3.018c.706.147,1.408.308,2.116.44.718.086,1.433.2,2.153.258.721.021,1.455.054,2.166.063.7-.007,1.393-.009,2.088.012a35.927,35.927,0,0,1,8.218,1.1,35.6,35.6,0,0,1,7.72,3.012c1.212.65,2.463,1.368,3.729,2s2.547,1.249,3.833,1.838c2.563,1.177,5.181,2.279,7.684,3.469,1.227.62,2.448,1.35,3.758,1.965a9.793,9.793,0,0,0,4.321,1.1,7.176,7.176,0,0,0,6.469-5.638,6.681,6.681,0,0,0,.1-2.289,6.969,6.969,0,0,0-.679-2.187,14.448,14.448,0,0,0-2.64-3.5,28.663,28.663,0,0,0-3.266-2.8,41.592,41.592,0,0,0-3.548-2.376,79.086,79.086,0,0,0-7.462-4.072c-10.218-4.942-21.131-8-31.754-11.69-10.563-3.984-21.6-6.486-32.177-10.378,5.228,2.112,10.628,3.763,15.994,5.473,2.686.852,5.371,1.7,8.036,2.607,2.669.887,5.282,1.922,7.939,2.884,10.606,3.815,21.471,6.981,31.532,11.981a78.029,78.029,0,0,1,7.327,4.1,35.03,35.03,0,0,1,6.6,5.045,13.4,13.4,0,0,1,2.424,3.222,5.883,5.883,0,0,1,.565,1.83,5.569,5.569,0,0,1-.094,1.91,6.249,6.249,0,0,1-1.944,3.273,5.682,5.682,0,0,1-3.461,1.451,8.705,8.705,0,0,1-3.785-1c-1.24-.586-2.439-1.308-3.724-1.964-2.583-1.239-5.157-2.331-7.71-3.514-1.274-.588-2.537-1.192-3.781-1.829s-2.441-1.323-3.709-2.01a36.632,36.632,0,0,0-7.982-3.142,37.186,37.186,0,0,0-8.5-1.106c-.714-.02-1.426-.015-2.138-.005l-2.058-.052c-.682-.058-1.362-.161-2.043-.238-.676-.124-1.348-.276-2.023-.413-5.38-1.34-10.3-4.159-15.287-6.765a80.548,80.548,0,0,0-7.686-3.649c-1.333-.519-2.7-.966-3.987-1.43-.651-.239-1.286-.524-1.93-.783l-1.891-.883c-4.991-2.5-9.553-5.819-14.314-8.859a72.844,72.844,0,0,0-7.377-4.225,23.964,23.964,0,0,1-6.9-4.567,18.03,18.03,0,0,1-4.322-6.976,23.721,23.721,0,0,1-1.238-8.2,24.753,24.753,0,0,1,.384-4.157,20.531,20.531,0,0,1,1.093-4.023,14.937,14.937,0,0,1,1.952-3.667,29.552,29.552,0,0,1,2.824-3.1,59.343,59.343,0,0,1,6.308-5.589c1.109-.864,2.321-1.59,3.421-2.481a7.857,7.857,0,0,0,1.477-1.515A2.416,2.416,0,0,0-1370.38,2108.916Z" transform="translate(1391.312 -2030.48)" fill="#2b2b2b"/>
      <path id="Path_15748" data-name="Path 15748" d="M-1282.749,2158.273a4.282,4.282,0,0,1-2.751-.826,9.933,9.933,0,0,1-2.139-1.935,8.828,8.828,0,0,1-1.466-2.4,4.1,4.1,0,0,1-.3-1.261,3.248,3.248,0,0,1,.051-.587,3.008,3.008,0,0,1,.2-.582,3.148,3.148,0,0,1,1.905-1.558,15.935,15.935,0,0,1,2.816-.7c.983-.175,1.99-.347,2.986-.614a5.529,5.529,0,0,0,2.7-1.448,6.433,6.433,0,0,1-2.821.836c-.984.115-1.984.15-3,.243a13.668,13.668,0,0,0-3.089.549,5.294,5.294,0,0,0-1.509.77,3.7,3.7,0,0,0-1.142,1.385,4.174,4.174,0,0,0-.273.85,4.394,4.394,0,0,0-.064.915,4.873,4.873,0,0,0,.426,1.656,8.7,8.7,0,0,0,1.85,2.615,8.977,8.977,0,0,0,2.57,1.811A4.029,4.029,0,0,0-1282.749,2158.273Z" transform="translate(1320.635 -2037.41)" fill="#2b2b2b"/>
      <path id="Path_15749" data-name="Path 15749" d="M-1417.668,2095.2c-1.156,1.231-1.574,2.989-2.791,4.03a35.807,35.807,0,0,1-3.77,3.15c-1.326.979-2.667,1.953-3.991,2.984a36.38,36.38,0,0,0-3.731,3.414,23.564,23.564,0,0,0-3.064,4.068,18.472,18.472,0,0,0-1.957,4.714,18.368,18.368,0,0,0-.578,5.032,24.376,24.376,0,0,0,.664,4.965,35.066,35.066,0,0,1-.041-4.947,20.263,20.263,0,0,1,.908-4.777,21.55,21.55,0,0,1,5-8.189,37.793,37.793,0,0,1,3.557-3.348c1.251-1.06,2.578-2.059,3.849-3.143a28.913,28.913,0,0,0,3.613-3.5,7.249,7.249,0,0,0,1.278-2.208A11.628,11.628,0,0,1-1417.668,2095.2Z" transform="translate(1579.283 -2027.941)" fill="#2b2b2b"/>
      <path id="Path_15750" data-name="Path 15750" d="M-1429.319,2136.511c.034,1.227.089,2.444.2,3.672a13.692,13.692,0,0,0,.809,3.667,6.9,6.9,0,0,0,2.341,3.12,10.89,10.89,0,0,0,3.51,1.553,6.772,6.772,0,0,1,2.988,1.423,3.623,3.623,0,0,1,.848,1.318,6.152,6.152,0,0,1,.389,1.617,2.916,2.916,0,0,1-1.151,2.828,3.082,3.082,0,0,1-1.6.476,6.044,6.044,0,0,1-1.772-.275,5.207,5.207,0,0,0,1.753.626,3.44,3.44,0,0,0,1.924-.283,3.158,3.158,0,0,0,1.422-1.44,4.17,4.17,0,0,0,.414-1.975,6.622,6.622,0,0,0-.084-.993,8.092,8.092,0,0,0-.249-.959,4.8,4.8,0,0,0-1.035-1.78,5.135,5.135,0,0,0-1.689-1.155,14.978,14.978,0,0,0-1.794-.644,10.134,10.134,0,0,1-3.177-1.312,6.245,6.245,0,0,1-2.135-2.542C-1428.407,2141.362-1428.7,2138.874-1429.319,2136.511Z" transform="translate(1572.141 -2035.587)" fill="#2b2b2b"/>
      <path id="Path_15751" data-name="Path 15751" d="M-1383.042,2151.151a13.421,13.421,0,0,1,1.481,1.173,4.328,4.328,0,0,1,.612.689,1.166,1.166,0,0,1,.267.777c-.082.509-.713.8-1.266.985a12.112,12.112,0,0,1-1.806.418c-1.232.209-2.486.344-3.746.5-.632.082-1.259.159-1.911.3-.634.143-1.241.312-1.839.432a5.8,5.8,0,0,1-1.728.14,2.585,2.585,0,0,1-1.426-.606,9.8,9.8,0,0,1-1.971-2.952c-.312-.583-.6-1.087-.87-1.657l-.815-1.713a13.228,13.228,0,0,0-2.155-3.327c-1.823-1.892-3.888-3.354-5.5-5.194a35.339,35.339,0,0,1-4.238-6.123,46.354,46.354,0,0,1-3.051-6.863,58.385,58.385,0,0,1-2.075-7.276,43.96,43.96,0,0,0,4.248,14.6,33.539,33.539,0,0,0,4.208,6.451c1.711,1.993,3.812,3.5,5.481,5.269,1.641,1.692,2.372,4.2,3.715,6.406a10.628,10.628,0,0,0,2.326,3.241,3.64,3.64,0,0,0,2.033.8,6.791,6.791,0,0,0,2.034-.234c.636-.156,1.243-.35,1.838-.508.578-.152,1.205-.255,1.821-.373,1.24-.227,2.5-.422,3.745-.715a12.571,12.571,0,0,0,1.852-.578,3.8,3.8,0,0,0,.877-.489,1.288,1.288,0,0,0,.554-.917,1.448,1.448,0,0,0-.389-.959,4.371,4.371,0,0,0-.7-.677A13.441,13.441,0,0,0-1383.042,2151.151Z" transform="translate(1523.647 -2032.691)" fill="#2b2b2b"/>
      <path id="Path_15752" data-name="Path 15752" d="M-1407.249,2119.89c.326,2.387-.7,4.515-1.1,6.917a9.656,9.656,0,0,0-.146,1.851,9.816,9.816,0,0,0,.257,1.854c.26,1.159.574,2.305.9,3.446a63.525,63.525,0,0,0,2.429,6.677,55.2,55.2,0,0,0,3.169,6.346c-.718-2.257-1.5-4.476-2.243-6.7s-1.482-4.445-2.138-6.687c-.347-1.115-.659-2.24-.954-3.367a8.5,8.5,0,0,1-.313-1.625,12.09,12.09,0,0,1,.016-1.672c.1-1.132.33-2.29.451-3.484A7.885,7.885,0,0,0-1407.249,2119.89Z" transform="translate(1539.665 -2032.511)" fill="#2b2b2b"/>
      <path id="Path_15753" data-name="Path 15753" d="M-1342.048,2138.322a17.256,17.256,0,0,1-7.106,3.2,56.4,56.4,0,0,1-7.768,1.247c-2.618.276-5.256.414-7.9.514s-5.292.121-7.963.126a49.8,49.8,0,0,0,7.963.865,59.6,59.6,0,0,0,8.026-.242,39.089,39.089,0,0,0,7.911-1.561,20.284,20.284,0,0,0,3.733-1.587A10.382,10.382,0,0,0-1342.048,2138.322Z" transform="translate(1450.879 -2035.922)" fill="#2b2b2b"/>
      <path id="Path_15754" data-name="Path 15754" d="M-1348.331,2095.774a13.933,13.933,0,0,1,5.612-2.74,24.919,24.919,0,0,1,6.245-.524c1.051.012,2.1.046,3.162.078l1.59.038a12.605,12.605,0,0,1,1.528.114,14.744,14.744,0,0,1,5.655,2.333c1.853,1.123,3.7,2.039,5.36,3.281a16.431,16.431,0,0,1,4.184,4.438,21.234,21.234,0,0,1,3.027,11.764,20.327,20.327,0,0,1-3.714,11.565c-1.125,1.753-2.4,3.428-3.688,5.09-1.309,1.654-2.6,3.328-3.929,4.953l-2.01,2.46c-.332.416-.659.84-.972,1.284a6.985,6.985,0,0,0-.832,1.467,1.84,1.84,0,0,0-.126.989,1.149,1.149,0,0,0,.275.541,1.127,1.127,0,0,0,.505.289,6.466,6.466,0,0,0,1.693.108l3.172-.118,3.164-.11a13.486,13.486,0,0,1,3.112.132,4.246,4.246,0,0,1,2.484,1.7,7.759,7.759,0,0,1,1.269,2.858,7.848,7.848,0,0,0-1.112-2.969,4.5,4.5,0,0,0-2.559-1.912,13.739,13.739,0,0,0-3.2-.285l-3.175-.033-3.165.025a6.121,6.121,0,0,1-1.458-.116c-.183-.065-.209-.1-.244-.257a1.119,1.119,0,0,1,.11-.552,11.757,11.757,0,0,1,1.743-2.474l2.069-2.393c1.4-1.6,2.727-3.248,4.045-4.9s2.62-3.344,3.8-5.139a25.923,25.923,0,0,0,2.932-5.765,20.317,20.317,0,0,0,.824-3.169,24.343,24.343,0,0,0,.257-3.246,22.43,22.43,0,0,0-3.328-12.407,17.574,17.574,0,0,0-4.5-4.694,26.945,26.945,0,0,0-2.731-1.724c-.939-.531-1.888-.967-2.776-1.507a15.618,15.618,0,0,0-6.049-2.291,13.4,13.4,0,0,0-1.633-.078l-1.58.006c-1.055,0-2.115-.014-3.177.015a25.425,25.425,0,0,0-6.326.82,13.748,13.748,0,0,0-2.957,1.2A13.95,13.95,0,0,0-1348.331,2095.774Z" transform="translate(1399.6 -2027.325)" fill="#2b2b2b"/>
      <path id="Path_15755" data-name="Path 15755" d="M-1303.447,2156.764a7.494,7.494,0,0,1,.445,1.651,3.222,3.222,0,0,1-.126,1.631,2.1,2.1,0,0,1-1.05,1.123,4.747,4.747,0,0,1-1.565.413,21.5,21.5,0,0,1-3.383.023l-3.435-.2q-3.45-.212-6.919-.2c-2.322-.007-4.617.223-6.854.107-2.252-.085-4.535-.374-6.812-.616a31.842,31.842,0,0,1-6.638-1.222,9.637,9.637,0,0,1-2.875-1.582,14.424,14.424,0,0,1-2.4-2.345,17.98,17.98,0,0,1-1.9-2.818,26.238,26.238,0,0,1-1.408-3.131,18.846,18.846,0,0,0,2.808,6.327,14.849,14.849,0,0,0,2.366,2.612,10.206,10.206,0,0,0,3.052,1.865,17.935,17.935,0,0,0,3.407.949c1.147.22,2.293.386,3.437.541,2.287.279,4.565.58,6.907.69,2.358.094,4.652-.144,6.924-.176,2.281-.072,4.57-.032,6.863-.007a42.13,42.13,0,0,0,6.949-.195,5.25,5.25,0,0,0,1.7-.609,2.511,2.511,0,0,0,1.134-1.431A4.748,4.748,0,0,0-1303.447,2156.764Z" transform="translate(1391.625 -2038.007)" fill="#2b2b2b"/>
      <path id="Path_15756" data-name="Path 15756" d="M-1390.614,2048.168c-.269,2.089-.663,4.125-.916,6.221a23.77,23.77,0,0,0-.206,3.2,16.378,16.378,0,0,0,.46,3.228,19.982,19.982,0,0,0,1.121,3.039,24.755,24.755,0,0,0,1.592,2.779,35.9,35.9,0,0,0,3.988,4.906c-1.034-1.838-2.151-3.6-3.138-5.418a25.427,25.427,0,0,1-2.334-5.625,16.543,16.543,0,0,1-.491-2.964c-.069-.991-.029-2.033-.008-3.069A41.137,41.137,0,0,0-1390.614,2048.168Z" transform="translate(1508.849 -2019.238)" fill="#2b2b2b"/>
      <path id="Path_15757" data-name="Path 15757" d="M-1393.154,2074.1a9.252,9.252,0,0,1-3.621-.8,11.765,11.765,0,0,1-3.016-2.06c-.905-.83-1.8-1.732-2.679-2.629s-1.77-1.783-2.609-2.71c-.861-.907-1.673-1.854-2.448-2.826a34.989,34.989,0,0,1-2.19-3.018,38.163,38.163,0,0,1-3.4-6.707,23.144,23.144,0,0,0,2.544,7.214,31.1,31.1,0,0,0,4.557,6.2q1.315,1.4,2.7,2.708c.941.856,1.847,1.739,2.886,2.53a10.943,10.943,0,0,0,3.428,1.881A7.989,7.989,0,0,0-1393.154,2074.1Z" transform="translate(1534.85 -2020.198)" fill="#2b2b2b"/>
      <path id="Path_15758" data-name="Path 15758" d="M-1344.183,2094.02c-1.821-.178-3.223-1.218-4.692-2.216a14.9,14.9,0,0,0-2.38-1.4,19.4,19.4,0,0,0-2.627-.862,25.4,25.4,0,0,0-5.4-.664,26.688,26.688,0,0,0-5.383.414c1.791.2,3.561.353,5.312.575a46.177,46.177,0,0,1,5.171.908,21.464,21.464,0,0,1,2.473.738,19.752,19.752,0,0,1,2.324,1.135,15.772,15.772,0,0,0,2.482,1.142A5.387,5.387,0,0,0-1344.183,2094.02Z" transform="translate(1446.399 -2026.771)" fill="#2b2b2b"/>
      <path id="Path_15759" data-name="Path 15759" d="M-1464.085,2045.892a.99.99,0,0,1-.842.291,1.539,1.539,0,0,1-.774-.432,6.976,6.976,0,0,1-1.157-1.47,31.153,31.153,0,0,1-1.781-3.384c-.527-1.168-1.05-2.34-1.526-3.533s-.963-2.372-1.389-3.594c-.249-.647-.536-1.219-.752-1.789a2.935,2.935,0,0,1-.274-1.518.878.878,0,0,1,.308-.456,3.149,3.149,0,0,1,.31-.176,3.565,3.565,0,0,1,.373-.129,1.824,1.824,0,0,1,1.455.227,4.472,4.472,0,0,1,1.266,1.2,9.834,9.834,0,0,1,.977,1.595,14.517,14.517,0,0,1,.765,1.751,12.88,12.88,0,0,1,.555,1.852,9.59,9.59,0,0,0-.216-1.948,13.016,13.016,0,0,0-.532-1.9,6.969,6.969,0,0,0-2.283-3.38,2.767,2.767,0,0,0-2.244-.474,4.533,4.533,0,0,0-.551.162,3.9,3.9,0,0,0-.543.28,2.072,2.072,0,0,0-.8,1.088,3.833,3.833,0,0,0,.271,2.266c.236.645.518,1.237.726,1.8a52.386,52.386,0,0,0,3.223,7.129,23.193,23.193,0,0,0,2.159,3.3,6.918,6.918,0,0,0,1.45,1.387,1.764,1.764,0,0,0,.971.341A1.091,1.091,0,0,0-1464.085,2045.892Z" transform="translate(1655.253 -2015.607)" fill="#2b2b2b"/>
      <path id="Path_15760" data-name="Path 15760" d="M-1424.629,2029.323a6.545,6.545,0,0,0,3.023-.267c.982-.272,1.935-.632,2.892-.842a4,4,0,0,1,2.719.124,2.646,2.646,0,0,1,1.636,1.88,4.1,4.1,0,0,1-.482,2.579,7.405,7.405,0,0,1-1.71,2.2,4.94,4.94,0,0,1-2.369,1.228,28.935,28.935,0,0,1-2.945.273,8.625,8.625,0,0,0-1.6.293,10.768,10.768,0,0,0-1.5.589,14.447,14.447,0,0,0-2.678,1.666,14.826,14.826,0,0,0-1.184,1.039,15.776,15.776,0,0,0-1.059,1.187,10.754,10.754,0,0,0-1.539,2.773,12.935,12.935,0,0,0-.691,3.057,18.967,18.967,0,0,0-.021,3.088,38.915,38.915,0,0,0,1.066,5.991l-.314-3.012c-.082-1-.139-2.005-.129-3a14.952,14.952,0,0,1,1.01-5.756,10.863,10.863,0,0,1,1.488-2.445c.315-.359.634-.712.986-1.042a14.018,14.018,0,0,1,1.119-.924,14.121,14.121,0,0,1,2.473-1.5,9.648,9.648,0,0,1,1.321-.507,7.665,7.665,0,0,1,1.374-.235,28.73,28.73,0,0,0,3.076-.323,6.028,6.028,0,0,0,2.921-1.552,8.555,8.555,0,0,0,1.906-2.609,4.928,4.928,0,0,0,.442-3.284,3.253,3.253,0,0,0-.854-1.52,6.061,6.061,0,0,0-.671-.533c-.24-.143-.5-.245-.747-.364a4.679,4.679,0,0,0-3.208.041c-.992.319-1.9.765-2.834,1.121A7.177,7.177,0,0,1-1424.629,2029.323Z" transform="translate(1570.518 -2015.377)" fill="#2b2b2b"/>
      <path id="Path_15761" data-name="Path 15761" d="M-1463.749,2056.024a2.18,2.18,0,0,0-2.18,2.181,2.18,2.18,0,0,0,2.18,2.18,2.18,2.18,0,0,0,2.181-2.18A2.181,2.181,0,0,0-1463.749,2056.024Z" transform="translate(1646.306 -2020.692)" fill="#2b2b2b"/>
      <path id="Path_15762" data-name="Path 15762" d="M-1424.891,2056.024a2.181,2.181,0,0,0-2.181,2.181,2.181,2.181,0,0,0,2.181,2.18,2.181,2.181,0,0,0,2.181-2.18A2.181,2.181,0,0,0-1424.891,2056.024Z" transform="translate(1575.782 -2020.692)" fill="#2b2b2b"/>
      <path id="Path_15763" data-name="Path 15763" d="M-1442.375,2021.693c5.47,4.682,3.316,16.16.783,29.654-.978,5.207-1.689,9.571-.808,11.848,1.852,4.779,3.737,7.278,2.783,10.224-1.019,3.141-5.558,5.909-9.166,4.7-3.824-1.278-4.5-6.317-4.583-7.065-.279-2.418,1.588-3.952,2.318-6.335,1.334-4.359.969-7.9.366-11.981-1.806-12.209-4.441-30.024.971-32.829C-1447.562,2018.8-1444.239,2020.1-1442.375,2021.693Z" transform="translate(1613.484 -2013.932)" fill="#f7e2c4"/>
    </g>
    <g id="Group_477" data-name="Group 477" transform="translate(-2370.897 -3542.593) rotate(-111)">
      <g id="Group_476" data-name="Group 476" transform="translate(-5291.431 690.322)">
        <g id="Group_475" data-name="Group 475">
          <path id="Path_15765" data-name="Path 15765" d="M-5265.892,811.1c-8.8,7.04-5.31,7.944-12.188,15.93a15.632,15.632,0,0,0-2.924,5.164c2.62-6.138,15.522-.989,20.527-2.826-6.462,4.307-7.847,16.5-6.4,23.571.773,3.772,2.026,6.69,1.518,10.484-.42,3.146-1.879,6.05-.929,9.223,3.775-1.889,3.558-4.929,4.752-8.567a146.843,146.843,0,0,1,6.081-15.146c1.931-4.244,6.087-16.755,8.837-5.89,3.715,14.682,13.935,31.061,27.869,39.181,3.651,2.128,12.862,13.057,16.883,9.414-1.123-1.8-3.723-3.13-5.238-5.091-2.179-2.818-3.321-6.091-4.643-9.249a29.724,29.724,0,0,0-6.846-10.23c-7.607-7.476-12.961-14.682-14.864-25.186-.246-1.359-1.756-8.29-.3-9.18,3.8-2.328,9.013,9.159,10.635,11.124,8.279,10.033,23.059,13.539,35.4,13.9a39.093,39.093,0,0,1,8.776.972c9.125,1.9,12.442,5.452,18.662,7.223,4.157,1.184,10.326,1.777,18.753-1.263-9.649-3.862-15.469-7.83-19.061-10.856a83.01,83.01,0,0,0-9.4-7.07,58.523,58.523,0,0,0-7.016-4.038c-11.478-4.936-21.1-8.45-31.3-15.842-3.455-2.5-12.923-9.2-13.155-13.956-.311-6.364,9.617-2.55,13.362-1.314,10.711,3.536,16.2,4.8,17.329,4.867,6.474.377,6.139-2.191,19.077-4.473,7.052-1.243,6.987-.451,14.394-1.9,7.1-1.388,8.543-2.386,13.771-2.694,6.066-.358,7.362.795,11.684.458,3.907-.3,9.33-1.751,15.388-7.076a42.2,42.2,0,0,1-20.055.23c-11.172-2.7-11.476-7.968-21.1-11.7-14.3-5.542-30.524-3.244-56.228,1.962-3.908.792-10.348.3-5.6-3.875,2.4-2.117,6.727-3.247,9.584-4.957,3.363-2.013,6.443-3.689,9.211-6.371,5.474-5.3,7.472-13.172,12.778-18.81,4.648-4.937,10.329-6.07,17-7.015,7.475-1.059,15.21-3.769,20.354-9a56.021,56.021,0,0,0,7.06-9.133c1.271-2.055,1.823-4.8,3.991-6.044-2.381,3.937-11.784,4.765-16.723,4.7-6.4-.086-12.683-1.819-19.115-1.47-11.165.6-23.511,8.941-31.149,16.06-4.153,3.871-9.293,7.42-13.121,11.48-3.758,3.985-4.64,9.7-10.223,12.228-8.094,3.658-2.131-8.442-.269-11.6,2.241-3.806,5.052-7.13,6.429-11.413.969-3.016.471-4.139.368-7.91a40.959,40.959,0,0,1,.167-5.842c.461-5.922,3.406-10.817,5.421-14.093,3.613-5.874,4.92-5.38,6.569-8.719,1.728-3.5,2.847-9.217-.644-18.681-3.63,8.757-9.945,15.909-14.7,24.068-3.1,5.318-8.307,8.279-11.919,13.086-2.937,3.91-4.808,9.184-6.586,13.69-2.774,7.033-3.449,10.823-2.435,15.531.991,4.594,2.1,8.115.424,9.885-.844.893-1.126,1.01-2.418.543-3.139-1.134-3.509-6.135-4.98-11.175a43.375,43.375,0,0,0-10.213-17.809c-4.447-4.2-15.379-10.117-21.536-9.85,2.626,3.605,6.546,6.189,9.054,10.052,2.765,4.258,4.333,9.119,5.682,13.835.148.516-1.2,2.164,4.286,10.338,1.5,2.231,3.841,4.435,4.3,7.025-4.3.711-16.182-1.974-21.409-4.6-3.231-1.623-5.5-3.856-5.887-3.5-.486.453,2.413,4.768,6.552,8.246,4.31,3.622-8.813-1.473.214,2.692,8.369,3.862,19,8.653,21.366,12.306,2.9,4.461,2.476,9.184,2.27,11.612C-5259.89,798.974-5259.563,806.036-5265.892,811.1Z" transform="translate(5290.155 -690.787)" fill="#f7e2c4"/>
        </g>
      </g>
      <path id="Path_15766" data-name="Path 15766" d="M-5259,846.87a25.718,25.718,0,0,1-.341,5.182,14.707,14.707,0,0,1-1.839,4.922,15.1,15.1,0,0,1-3.48,3.988,50.592,50.592,0,0,0-3.846,3.357,16.939,16.939,0,0,0-3.028,3.951l-1.262,2.258c-.444.756-.932,1.491-1.444,2.2s-1.079,1.382-1.645,2.047l-1.729,1.921a14.129,14.129,0,0,0-2.5,4.333l-.62-.238a4.424,4.424,0,0,1,1.986-2.093,7.641,7.641,0,0,1,2.7-.8,26.034,26.034,0,0,1,5.52.061l5.452.538a14.038,14.038,0,0,0,5.323-.27l2.175-.72-1.918,1.258a11.27,11.27,0,0,0-3.568,3.988,19.7,19.7,0,0,0-1.914,5.078,31.432,31.432,0,0,0-.608,10.85,31.183,31.183,0,0,0,1.185,5.325,24.329,24.329,0,0,1,1.121,5.6,13.405,13.405,0,0,1-.194,2.923c-.166.95-.4,1.865-.6,2.755a15.241,15.241,0,0,0-.41,2.618,7.283,7.283,0,0,0,.3,2.484l-1.008-.437a5.866,5.866,0,0,0,2.25-1.724,7.893,7.893,0,0,0,1.177-2.691c.275-1,.52-2.074.864-3.129s.71-2.047,1.089-3.062q1.144-3.032,2.45-5.991c.864-1.974,1.8-3.914,2.736-5.849l.017-.033.012-.019q3.467-5.119,7.016-10.183l.116.075q-3.185,5.3-6.452,10.551l.028-.051c-1.7,3.939-3.361,7.887-4.764,11.92-.347,1.006-.687,2.029-.992,3.035s-.5,2.028-.776,3.1a9.247,9.247,0,0,1-1.373,3.181,7.312,7.312,0,0,1-2.775,2.2l-.747.35-.262-.787a8.3,8.3,0,0,1-.383-3.009,16.569,16.569,0,0,1,.449-2.873,19.811,19.811,0,0,0,.8-5.3c-.107-3.512-1.821-7-2.139-10.841a31.386,31.386,0,0,1,.9-11.243,20.607,20.607,0,0,1,2.2-5.225,12.044,12.044,0,0,1,3.929-4.1l.256.538a9.336,9.336,0,0,1-2.8.333c-.927,0-1.846-.067-2.759-.152l-5.447-.6a23.818,23.818,0,0,0-5.415,0,7.155,7.155,0,0,0-2.5.8,3.8,3.8,0,0,0-1.645,1.875l-.62-.239a14.9,14.9,0,0,1,2.451-4.673l1.625-2.01.762-1.021.723-1.043c.958-1.4,1.718-2.881,2.568-4.416a17.92,17.92,0,0,1,3.292-4.176,45.276,45.276,0,0,1,4.05-3.3,14.18,14.18,0,0,0,3.433-3.619,15.624,15.624,0,0,0,2-4.618,29.593,29.593,0,0,0,.7-5.081Z" transform="translate(-4.173 -48.523)" fill="#2b2b2b"/>
      <path id="Path_15767" data-name="Path 15767" d="M-5112.29,919.149a69.51,69.51,0,0,1-20.872-11.832,83.892,83.892,0,0,0-9.789-6.879,54.743,54.743,0,0,0-5.212-2.871l-5.542-2.3c-7.414-3.023-14.854-6.211-21.717-10.494-1.722-1.053-3.39-2.2-5.035-3.361s-3.267-2.352-4.85-3.609a50.614,50.614,0,0,1-4.566-4.031,24.633,24.633,0,0,1-2.04-2.324,11.349,11.349,0,0,1-1.606-2.762,5.726,5.726,0,0,1-.355-1.675,5.349,5.349,0,0,1,.2-1.726,3.3,3.3,0,0,1,1.05-1.545,4.071,4.071,0,0,1,1.617-.766,9.314,9.314,0,0,1,3.23-.084,23.28,23.28,0,0,1,3.034.6c1.979.507,3.886,1.207,5.772,1.831s3.8,1.243,5.712,1.837,3.825,1.163,5.749,1.7c.961.264,1.925.521,2.89.754a15.088,15.088,0,0,0,2.842.507,14.215,14.215,0,0,0,2.883-.114,14.829,14.829,0,0,0,2.8-.736c1.866-.669,3.791-1.37,5.746-1.886,1.953-.537,3.931-.953,5.915-1.3s3.976-.66,5.989-.853,4.01-.237,5.98-.5c1.974-.245,3.942-.608,5.9-.99s3.9-.846,5.864-1.29a32.5,32.5,0,0,1,5.989-.812,33.262,33.262,0,0,1,6.025.22c1,.131,1.983.3,2.979.394a19.206,19.206,0,0,0,3,.057,19.2,19.2,0,0,1-3.007.046c-1-.06-2-.194-3-.29a33.268,33.268,0,0,0-5.98-.062c-4,.187-7.793,1.566-11.736,2.4-1.965.426-3.938.815-5.939,1.1-2,.3-4.025.385-5.994.6s-3.943.544-5.9.936-3.9.819-5.8,1.377c-1.915.539-3.751,1.241-5.647,1.954a15.39,15.39,0,0,1-3,.81,15.448,15.448,0,0,1-3.114.142,16.075,16.075,0,0,1-3.071-.523c-.986-.231-1.96-.486-2.932-.748-1.943-.527-3.873-1.091-5.8-1.676s-3.837-1.19-5.745-1.815-3.789-1.3-5.7-1.776a22.046,22.046,0,0,0-2.863-.554,8.034,8.034,0,0,0-2.75.071,2.14,2.14,0,0,0-1.685,1.415,4.054,4.054,0,0,0-.13,1.247,4.533,4.533,0,0,0,.275,1.253,14.914,14.914,0,0,0,3.315,4.622,49.389,49.389,0,0,0,4.424,3.945c1.551,1.244,3.154,2.424,4.78,3.6s3.255,2.292,4.948,3.34a101.586,101.586,0,0,0,10.5,5.708c3.613,1.7,7.285,3.29,10.967,4.876l5.528,2.4a55.519,55.519,0,0,1,5.271,3.01,83,83,0,0,1,9.761,7.1C-5126.807,912.2-5119.655,916.019-5112.29,919.149Z" transform="translate(-30.922 -53.056)" fill="#2b2b2b"/>
      <path id="Path_15768" data-name="Path 15768" d="M-5252.493,786.281a4.734,4.734,0,0,1-2.63-2.482,18.852,18.852,0,0,1-1.291-3.422c-.685-2.33-1.213-4.675-2.045-6.917a45.274,45.274,0,0,0-2.98-6.51,45.126,45.126,0,0,0-3.89-6,33.326,33.326,0,0,0-2.307-2.7,21.233,21.233,0,0,0-2.663-2.3,51.632,51.632,0,0,0-6.018-3.845,54.6,54.6,0,0,0-6.486-3.01,27.83,27.83,0,0,0-3.4-1.057,14.288,14.288,0,0,0-3.477-.44l.3-.633c2.3,3.231,5.614,5.688,8.124,8.906a30.255,30.255,0,0,1,3.106,5.232,50.543,50.543,0,0,1,2.284,5.624c.329.956.636,1.918.935,2.883s.573,1.934.944,2.851a33.031,33.031,0,0,0,2.764,5.3c1.062,1.7,2.221,3.322,3.376,5a16.381,16.381,0,0,1,1.51,2.722,15.163,15.163,0,0,1,.883,3l.113.571-.574.082a20.557,20.557,0,0,1-5.121-.075c-1.67-.188-3.323-.47-4.96-.809a64.362,64.362,0,0,1-9.667-2.744,24.4,24.4,0,0,1-4.56-2.287c-.716-.452-1.411-.934-2.089-1.4-.335-.23-.679-.469-.982-.639a1.586,1.586,0,0,0-.184-.09c-.019-.007-.019,0,.009,0a.516.516,0,0,0,.4-.116.536.536,0,0,0,.188-.25.33.33,0,0,0,.034-.141c.008-.026,0-.056,0-.03a1.065,1.065,0,0,0,.054.163,10.738,10.738,0,0,0,1.2,1.953c.476.647.988,1.276,1.521,1.886a33.606,33.606,0,0,0,3.461,3.419c.3.259.65.552.965.857a4.855,4.855,0,0,1,.917,1.134,1.677,1.677,0,0,1,.211,1.019,2.269,2.269,0,0,1-.05.262.286.286,0,0,0-.045-.169,1.6,1.6,0,0,0,.293.236c.146.1.312.2.482.3,1.39.78,2.918,1.458,4.4,2.177,2.989,1.44,6.008,2.834,8.913,4.531a20.407,20.407,0,0,1,4.084,3.022,13.075,13.075,0,0,1,2.861,4.219,14.97,14.97,0,0,1,.814,2.406,18.081,18.081,0,0,1,.391,2.495,24.655,24.655,0,0,1-.173,5l-.138-.012a24.33,24.33,0,0,0-.132-4.935,15.9,15.9,0,0,0-1.409-4.653,12.268,12.268,0,0,0-2.85-3.847,21.754,21.754,0,0,0-4-2.741c-2.867-1.577-5.913-2.893-8.934-4.251-1.521-.679-3.021-1.362-4.533-2.188-.19-.108-.381-.219-.578-.353a2.551,2.551,0,0,1-.645-.572,1.17,1.17,0,0,1-.222-.75c.023-.246.059-.32.056-.349s0-.051-.059-.172a3.649,3.649,0,0,0-.658-.778c-.283-.271-.57-.512-.9-.789a35.028,35.028,0,0,1-3.625-3.552c-.561-.635-1.1-1.291-1.608-1.979a11.606,11.606,0,0,1-1.388-2.285,2.4,2.4,0,0,1-.127-.431,1.426,1.426,0,0,1-.024-.338,1.313,1.313,0,0,1,.065-.293.928.928,0,0,1,.281-.372.911.911,0,0,1,.7-.172,1.5,1.5,0,0,1,.307.084,2.832,2.832,0,0,1,.375.183c.417.242.75.484,1.1.725.681.481,1.346.951,2.028,1.391a22.934,22.934,0,0,0,4.3,2.208,63.064,63.064,0,0,0,9.429,2.776c1.605.346,3.222.642,4.843.857a19.631,19.631,0,0,0,4.8.167l-.462.653a14.086,14.086,0,0,0-.76-2.8,16.579,16.579,0,0,0-1.347-2.6c-1.074-1.676-2.209-3.375-3.224-5.127a34.077,34.077,0,0,1-2.667-5.486c-.358-.965-.593-1.954-.876-2.914s-.583-1.924-.9-2.877a35.526,35.526,0,0,0-5.31-10.713c-2.473-3.145-5.857-5.463-8.383-8.733l-.461-.6.766-.036a14.994,14.994,0,0,1,3.7.339,28.694,28.694,0,0,1,3.548.977,44.12,44.12,0,0,1,6.7,2.945,46.225,46.225,0,0,1,6.2,3.907,22.485,22.485,0,0,1,2.774,2.467,34.147,34.147,0,0,1,2.355,2.832,44.715,44.715,0,0,1,6.738,12.928c.771,2.317,1.254,4.7,1.8,7.041a18.4,18.4,0,0,0,1.091,3.4,4.606,4.606,0,0,0,2.356,2.512Z" transform="translate(0 -17.709)" fill="#2b2b2b"/>
      <path id="Path_15769" data-name="Path 15769" d="M-5214.445,769.48a6.064,6.064,0,0,1-2.684.709,1.519,1.519,0,0,1-1.232-.651,2.669,2.669,0,0,1-.366-1.375,9.9,9.9,0,0,1,.439-2.777,26.574,26.574,0,0,1,.911-2.649,42.737,42.737,0,0,1,2.417-5.05c.934-1.62,1.972-3.169,2.958-4.734a33.524,33.524,0,0,0,2.644-4.827,12.635,12.635,0,0,0,1.2-5.218c-.018-.9-.119-1.821-.182-2.754l-.081-1.393c-.03-.453-.056-.952-.061-1.415a54.425,54.425,0,0,1,.238-5.628,24.527,24.527,0,0,1,1.31-5.535,35.6,35.6,0,0,1,2.391-5.128c.931-1.634,1.884-3.225,2.957-4.789a27.769,27.769,0,0,1,1.742-2.254c.616-.725,1.307-1.4,1.9-2.051a11.718,11.718,0,0,0,2.471-4.62,17.344,17.344,0,0,0,.651-5.306,33.073,33.073,0,0,0-2.317-10.61l1.284.023c-2.879,6.865-7.4,12.74-11.461,18.746-1.021,1.5-2.013,3.022-2.948,4.57-.468.754-.941,1.6-1.5,2.341a25.354,25.354,0,0,1-1.766,2.174c-2.5,2.759-5.428,4.975-7.864,7.608a31.485,31.485,0,0,0-5.611,9.14c-.728,1.66-1.4,3.351-2.077,5.045s-1.358,3.375-1.937,5.093a27.85,27.85,0,0,0-1.314,5.242,17.285,17.285,0,0,0,.118,5.38c.326,1.781.778,3.557,1.091,5.358a13.65,13.65,0,0,1,.237,2.735,5.318,5.318,0,0,1-.212,1.357,3.251,3.251,0,0,1-.7,1.172,3.23,3.23,0,0,0,.646-1.186,5.2,5.2,0,0,0,.158-1.344,13.481,13.481,0,0,0-.337-2.695c-.366-1.783-.862-3.533-1.245-5.329a17.732,17.732,0,0,1-.274-5.509,28.435,28.435,0,0,1,1.189-5.389c.541-1.754,1.206-3.469,1.854-5.167s1.293-3.414,2-5.106a32.488,32.488,0,0,1,5.625-9.507c2.476-2.771,5.365-5.043,7.762-7.7a24.244,24.244,0,0,0,1.668-2.08c.532-.716.95-1.471,1.438-2.268.941-1.579,1.937-3.12,2.956-4.639,4.059-6.07,8.483-11.911,11.229-18.575l.676-1.644.608,1.667a34.16,34.16,0,0,1,2.347,11.07,18.644,18.644,0,0,1-.737,5.7,15.962,15.962,0,0,1-1.091,2.689,10.681,10.681,0,0,1-1.684,2.409c-.659.712-1.307,1.333-1.9,2.019a27.071,27.071,0,0,0-1.674,2.143c-1.037,1.492-2.005,3.084-2.92,4.671a28.236,28.236,0,0,0-3.685,10.2,53.287,53.287,0,0,0-.325,5.494c0,.466.012.895.035,1.369l.057,1.388c.046.92.132,1.845.136,2.806a10.364,10.364,0,0,1-.387,2.862,18.945,18.945,0,0,1-.971,2.674,33.456,33.456,0,0,1-2.788,4.885c-1.038,1.548-2.112,3.058-3.077,4.631a42.2,42.2,0,0,0-2.529,4.923,26.547,26.547,0,0,0-.973,2.59,9.834,9.834,0,0,0-.508,2.692,2.5,2.5,0,0,0,.289,1.291,1.387,1.387,0,0,0,1.108.632A6.02,6.02,0,0,0-5214.445,769.48Z" transform="translate(-18.89)" fill="#2b2b2b"/>
      <path id="Path_15770" data-name="Path 15770" d="M-5107.205,822.6a23.687,23.687,0,0,0,8.229-2.381,31.507,31.507,0,0,0,7.051-4.869l.291.561a44.748,44.748,0,0,1-13.708,1.356,34.844,34.844,0,0,1-13.412-3.339,33.854,33.854,0,0,1-5.755-3.892,37.115,37.115,0,0,0-5.565-3.811,42.132,42.132,0,0,0-12.823-4.037,66.652,66.652,0,0,0-13.546-.649c-4.538.192-9.072.676-13.588,1.3s-9.02,1.388-13.512,2.209c-2.25.4-4.487.831-6.741,1.257a16.918,16.918,0,0,1-3.468.255,10.517,10.517,0,0,1-1.745-.194,3.777,3.777,0,0,1-1.676-.71,1.415,1.415,0,0,1-.5-.871,1.69,1.69,0,0,1,.172-.964,4.969,4.969,0,0,1,1.081-1.428,11.488,11.488,0,0,1,2.847-2c2.049-1.066,4.219-1.815,6.245-2.835,3.913-2.267,8.034-4.451,11.1-7.8s4.976-7.554,7.244-11.527a36.377,36.377,0,0,1,3.875-5.727,21.364,21.364,0,0,1,2.46-2.479,19.907,19.907,0,0,1,2.874-2,25.2,25.2,0,0,1,6.508-2.475c2.247-.548,4.536-.889,6.784-1.233a43.109,43.109,0,0,0,12.848-4.013,27.332,27.332,0,0,0,5.534-3.735,37.852,37.852,0,0,0,4.514-4.982,53.759,53.759,0,0,0,3.815-5.555c.517-.944.924-2.016,1.486-3.078a6.749,6.749,0,0,1,2.505-2.827l2.446-1.4-1.469,2.4a7.126,7.126,0,0,1-2.763,2.438,15.248,15.248,0,0,1-3.251,1.28,35.536,35.536,0,0,1-6.72,1.148,46.236,46.236,0,0,1-6.784.087c-2.258-.135-4.484-.432-6.694-.713-4.4-.572-8.821-1.113-13.124-.442a41.474,41.474,0,0,0-12.413,4.206c-1.968,1-3.873,2.121-5.743,3.3-1.851,1.21-3.664,2.483-5.417,3.835s-3.445,2.777-5.091,4.27c-1.668,1.506-3.413,2.907-5.153,4.3s-3.481,2.777-5.145,4.243a26.445,26.445,0,0,0-4.532,4.793c-1.259,1.812-2.263,3.821-3.583,5.643a14.249,14.249,0,0,1-2.249,2.506,12.093,12.093,0,0,1-2.845,1.784l-.057-.127a11.876,11.876,0,0,0,2.749-1.831,13.987,13.987,0,0,0,2.137-2.519c1.248-1.827,2.192-3.855,3.425-5.741a17.359,17.359,0,0,1,2.1-2.66c.769-.82,1.58-1.6,2.407-2.351,1.652-1.514,3.377-2.937,5.088-4.363s3.418-2.851,5.03-4.364c1.631-1.53,3.322-3.014,5.075-4.413s3.583-2.7,5.448-3.953c1.886-1.221,3.809-2.387,5.808-3.429a42.732,42.732,0,0,1,12.758-4.481c4.542-.751,9.1-.163,13.508.386,2.211.276,4.409.563,6.6.687a44.76,44.76,0,0,0,6.575-.1,34.106,34.106,0,0,0,6.437-1.113,14.209,14.209,0,0,0,2.956-1.163,5.746,5.746,0,0,0,2.228-1.9l.977,1a5.349,5.349,0,0,0-1.968,2.243c-.517.953-.931,2.024-1.515,3.083a54.53,54.53,0,0,1-3.974,5.714,39.086,39.086,0,0,1-4.715,5.13,28.588,28.588,0,0,1-5.824,3.878,43.2,43.2,0,0,1-13.26,3.968c-2.273.314-4.516.617-6.717,1.121a24.257,24.257,0,0,0-6.3,2.291,19.036,19.036,0,0,0-2.77,1.87,20.547,20.547,0,0,0-2.4,2.348,35.854,35.854,0,0,0-3.876,5.555c-2.3,3.9-4.308,8.118-7.478,11.521a27.271,27.271,0,0,1-5.348,4.355c-.965.622-1.949,1.208-2.936,1.788s-1.953,1.181-2.992,1.7c-2.069,1.014-4.234,1.77-6.231,2.838a11.02,11.02,0,0,0-2.724,1.945,4.518,4.518,0,0,0-.972,1.292.969.969,0,0,0,.215,1.264,3.325,3.325,0,0,0,1.457.589,10.067,10.067,0,0,0,1.659.171,16.42,16.42,0,0,0,3.354-.271l6.715-1.37c4.482-.906,8.979-1.756,13.5-2.467A135.344,135.344,0,0,1-5156.5,800.4a67.727,67.727,0,0,1,13.792.583,41.375,41.375,0,0,1,13.189,4.217,38.222,38.222,0,0,1,5.7,3.961,32.788,32.788,0,0,0,5.55,3.817,29.389,29.389,0,0,0,6.3,2.313,39.241,39.241,0,0,0,6.676,1.089,44.12,44.12,0,0,0,13.491-1.1l1.316-.305-1.025.866a32.026,32.026,0,0,1-7.3,4.753,24.767,24.767,0,0,1-4.1,1.475,23,23,0,0,1-4.3.671Z" transform="translate(-27.073 -15.228)" fill="#2b2b2b"/>
      <path id="Path_15771" data-name="Path 15771" d="M-5242.563,913.363c.672-1.689,1.285-3.406,2.017-5.085a26.681,26.681,0,0,1,1.207-2.485,7.364,7.364,0,0,1,1.8-2.235,1.859,1.859,0,0,1,1.625-.356,2.6,2.6,0,0,1,1.259,1,10.333,10.333,0,0,1,1.238,2.58c.59,1.767,1.058,3.469,1.726,5.162a74.733,74.733,0,0,0,4.53,9.826,80.89,80.89,0,0,0,5.821,9.134,66.511,66.511,0,0,0,7.119,8.188l2.006,1.837,2.115,1.71a44.392,44.392,0,0,0,4.5,3.047,23.5,23.5,0,0,1,2.312,1.5c.732.555,1.435,1.139,2.135,1.724,1.41,1.156,2.8,2.326,4.241,3.426a28.168,28.168,0,0,0,4.505,2.93,7.794,7.794,0,0,0,2.432.806,3.318,3.318,0,0,0,1.168-.04,2.441,2.441,0,0,0,.97-.5l-.1.707a14.861,14.861,0,0,0-3.056-2.769,20.441,20.441,0,0,1-1.693-1.443,13.564,13.564,0,0,1-1.443-1.74,43.38,43.38,0,0,1-4.036-7.753,31.989,31.989,0,0,0-4.318-7.214c-.862-1.066-1.92-2.044-2.9-3.133a40.869,40.869,0,0,1-2.771-3.393l-5.178-6.894-2.618-3.424c-.437-.573-.879-1.139-1.307-1.747a10.926,10.926,0,0,1-1.1-1.963,28.842,28.842,0,0,1-1.351-4.172l-1.055-4.192a35.495,35.495,0,0,1-.8-4.271,9.373,9.373,0,0,1-.016-2.192,4.5,4.5,0,0,1,.773-2.044l.116.075a5.874,5.874,0,0,0-.463,4.107,37.844,37.844,0,0,0,1.018,4.159l1.225,4.128a28.038,28.038,0,0,0,1.468,3.973,10.894,10.894,0,0,0,1.059,1.763c.414.559.871,1.116,1.32,1.674l2.71,3.361c1.8,2.249,3.583,4.513,5.326,6.8a39.242,39.242,0,0,0,2.721,3.256c.957,1.037,2.007,2.029,2.96,3.2a31.192,31.192,0,0,1,4.456,7.582,42.378,42.378,0,0,0,3.8,7.584,12.288,12.288,0,0,0,1.282,1.6,19.552,19.552,0,0,0,1.556,1.393,15.487,15.487,0,0,1,3.216,3.1l.277.41-.375.3a3.519,3.519,0,0,1-1.449.708,4.128,4.128,0,0,1-1.544.01,8.725,8.725,0,0,1-2.7-1,29.824,29.824,0,0,1-4.529-3.182c-1.418-1.16-2.775-2.38-4.142-3.579-.69-.592-1.382-1.181-2.094-1.734a22.765,22.765,0,0,0-2.25-1.5,58.614,58.614,0,0,1-8.757-6.584,67.8,67.8,0,0,1-7.528-7.988,64.783,64.783,0,0,1-10.631-19.175c-.625-1.714-1.117-3.53-1.6-5.242a9.56,9.56,0,0,0-1.017-2.373,1.82,1.82,0,0,0-.794-.724,1.064,1.064,0,0,0-.94.2,6.77,6.77,0,0,0-1.664,1.945c-.479.754-.911,1.548-1.32,2.356-.822,1.615-1.527,3.3-2.348,4.929Z" transform="translate(-15.93 -64.236)" fill="#2b2b2b"/>
      <path id="Path_15772" data-name="Path 15772" d="M-5211.121,897.172a4.068,4.068,0,0,1,1.033-1.361,1.4,1.4,0,0,1,.9-.249,1.651,1.651,0,0,1,.87.358,9.643,9.643,0,0,1,1.992,2.77,45.763,45.763,0,0,0,3.477,5.576,28.9,28.9,0,0,0,9.884,8.268,26.511,26.511,0,0,0,2.963,1.336c1,.389,2.068.607,3.155.938s2.121.716,3.157,1.132a28.278,28.278,0,0,1,3.041,1.407c.988.521,1.925,1.1,2.931,1.54a30.849,30.849,0,0,0,3.081,1.17,39.259,39.259,0,0,0,6.417,1.5,31.818,31.818,0,0,0,3.262.308c1.073.031,2.205,0,3.324.072a50.443,50.443,0,0,1,6.664.9,43.6,43.6,0,0,1,6.485,1.837,60.858,60.858,0,0,1,6.119,2.75,42.879,42.879,0,0,0,5.986,2.606,27.01,27.01,0,0,0,6.347,1.343,34.833,34.833,0,0,0,12.984-1.516l.046.13a31.155,31.155,0,0,1-13.1,2.465,28.279,28.279,0,0,1-6.671-1.15,39.491,39.491,0,0,1-6.24-2.554c-1.987-.988-3.953-1.932-5.979-2.727a42.255,42.255,0,0,0-6.248-1.912,59.8,59.8,0,0,0-6.464-1.077c-1.088-.1-2.174-.121-3.311-.225a32.8,32.8,0,0,1-3.329-.5,50.759,50.759,0,0,1-6.442-1.786,31.109,31.109,0,0,1-3.105-1.242c-1.013-.475-1.987-1.023-2.959-1.53a29.114,29.114,0,0,0-6.191-2.193c-1.049-.253-2.171-.415-3.263-.765a24.674,24.674,0,0,1-3.164-1.221,25.877,25.877,0,0,1-5.687-3.669,25.242,25.242,0,0,1-4.558-5,41.04,41.04,0,0,1-3.25-5.866,10.693,10.693,0,0,0-1.646-2.742,1.063,1.063,0,0,0-1.3-.2,4.122,4.122,0,0,0-1.089,1.162Z" transform="translate(-25.612 -63.518)" fill="#2b2b2b"/>
    </g>
    <g id="Mask_Group_13" data-name="Mask Group 13" clip-path="url(#clip-path-2)">
      <path id="Path_15773" data-name="Path 15773" d="M-5178.44,608.155c-.731,0-.793-.765-.958-2.787-.111-1.351-.23-3.319-.365-6.017-.253-5.056-.533-12.123-.828-19.606-.706-17.865-1.739-44.017-2.892-50.128a111.608,111.608,0,0,0-1.241,11.915c-.271,3.961-.394,7.746-.5,11.085-.329,10.153-.566,17.488-4.46,20.445-1.536,1.167-2.859,1.58-3.935,1.228-1.207-.395-1.713-1.366-2.743-3.526a6.663,6.663,0,0,0-3.52-2.535c-1.9-.544-3.7,1.385-4.664,3.2a7.961,7.961,0,0,1-6.533,3.841,4.27,4.27,0,0,1-2.257-.643,3.613,3.613,0,0,0-2.043-.571,4.546,4.546,0,0,0-2.932,1.5l-.894-.9a5.765,5.765,0,0,1,3.761-1.871,4.842,4.842,0,0,1,2.693.714,3.038,3.038,0,0,0,1.621.5,6.737,6.737,0,0,0,5.465-3.168c1.241-2.344,3.5-4.581,6.131-3.828a7.767,7.767,0,0,1,4.313,3.207c1,2.1,1.339,2.654,1.994,2.868.452.148,1.3.089,2.776-1.033,3.414-2.592,3.643-9.674,3.96-19.477.109-3.35.231-7.147.5-11.131.971-14.17,1.75-14.165,2.513-14.154.874.009,1.565.016,2.6,17.892.583,10.083,1.1,23.061,1.548,34.511.393,9.936.77,19.47,1.093,24.305,1.231-6.733,3.45-22.185,2.772-27.573-.226-1.781.079-2.858.905-3.219.988-.43,1.958.447,2.984,1.376.749.677,1.68,1.521,2.242,1.4.953-.2,1.237-3.553,1.565-7.436.178-2.082.377-4.443.713-7.121.378-3.007.863-5.892,1.368-8.125.779-3.447,1.18-3.665,1.734-3.616.837.073,1.257.11,3.342,22.5a8.209,8.209,0,0,0,2.215,4.727c1.154,1.179,3.345,1.84,4.767.944a8.281,8.281,0,0,0,1.693-1.665c1.052-1.243,2.245-2.652,4.052-1.994a4.049,4.049,0,0,1,1.186.757,2.307,2.307,0,0,0,.938.57c1.123.216,1.7-1.654,1.9-2.469a4.02,4.02,0,0,1,2.312-2.725,1.83,1.83,0,0,1,1.8.326,2.722,2.722,0,0,1,.787,1.38,5.447,5.447,0,0,0,1.559,2.693,2.481,2.481,0,0,0,2.717.349,2.453,2.453,0,0,0,.962-1.361c1.253-4.411,2.926-25.092,3.477-31.888.078-.967.138-1.7.176-2.141.145-1.7.212-2.473.955-2.488s1.073-.02,1.845,10.459c.43,5.827.837,13.322,1.09,20.052.4,10.726.408,19.211.412,25.408,0,2.618,0,4.946.042,6.649.56-2.9,1.43-7.978,2.6-15.185l.037-.222c.721-4.437,2.223-13.668,4.848-24.636,2.554-10.673,3.472-10.544,4.075-10.463.928.126,1.12,1.2,1.894,7.8.505,4.314,1.2,10.222,2.407,15.855.177.825.715,3.333,2.127,3.7,1.216.314,2.43-.489,3.715-1.339,1.444-.955,3.082-2.039,4.872-1.363a5.15,5.15,0,0,1,1.082.608,5.158,5.158,0,0,0,.7.42c1.309.6,3.536-.691,4.849-2.236a7.434,7.434,0,0,0,1.555-3.776c.154-.853.3-1.659,1.083-1.721.822-.064,1.166.8,1.591,1.89.479,1.231,1.076,2.763,2.256,3.075a2.333,2.333,0,0,0,1.538-.257,4.6,4.6,0,0,1,2.682-.4,5.165,5.165,0,0,1,3.081,1.974,4.835,4.835,0,0,0,.466.49c.274-.273,1.128-1.771,1.909-9.942.523-5.467.856-12.151,1.1-17.032.112-2.243.209-4.18.3-5.552.141-2.115.184-2.753.889-2.765.819-.013.828-.016,1.686,12.5.3,4.386.642,9.359,1.041,14.371,1.269,15.94,2.24,21.131,2.758,22.815.062-.268.126-.572.19-.873a57.82,57.82,0,0,1,2.1-7.606c1.291-3.677,2-5.7,3.756-8.1a16.7,16.7,0,0,1,3.3-3.407,18.672,18.672,0,0,0,1.59-1.419,14.2,14.2,0,0,0,1.479-1.806,17.171,17.171,0,0,0,2.149-4.061,75.552,75.552,0,0,0,2.343-8.937c1.263-5.7,1.626-6.923,2.6-6.923.613,0,1.21.346,1.763,4.526.09.685.226,1.781.4,3.156.868,7.017,2.9,23.448,4.153,26.2.206.452.355.541.426.554.131.022.64-.177,1.5-1.359a27.14,27.14,0,0,0,3.232-7.273c.676-2.083.928-2.876,1.674-2.847.852.017,1.018,1.088,1.379,3.435a17.731,17.731,0,0,0,.826,3.742,8.774,8.774,0,0,0,.73-1.171c.586-1.05,1.089-1.958,1.929-1.8.591.114.75.663.892,1.149a4.3,4.3,0,0,0,.943,1.832,3.263,3.263,0,0,0,.7.637,2.27,2.27,0,0,0,.084-.269,19.523,19.523,0,0,1,4.491-8.138,1.8,1.8,0,0,1,1.748-.738,1.7,1.7,0,0,1,1.012.819,10.767,10.767,0,0,1,1.1,2.675,12.1,12.1,0,0,0,.729,1.972c.655,1.284,2.207,2.341,3.474,1.864a3.844,3.844,0,0,0,1.649-1.622c1.012-1.482,1.543-1.955,2.37-2.109a3.336,3.336,0,0,1,2.763,1.139l-.854.935c-.68-.621-1.261-.907-1.678-.83-.331.062-.619.205-1.556,1.579a5.039,5.039,0,0,1-2.25,2.094c-1.963.737-4.147-.709-5.046-2.474a13.229,13.229,0,0,1-.812-2.177,9.644,9.644,0,0,0-.958-2.371c-.142-.226-.216-.259-.235-.263-.056-.013-.232.047-.519.362a18.243,18.243,0,0,0-4.2,7.607,1.661,1.661,0,0,1-.761,1.142c-.885.468-1.85-.612-2.167-.967a5.462,5.462,0,0,1-1.225-2.3c-.172.26-.371.616-.511.867-.572,1.024-1.116,1.99-1.959,1.92-1.153-.1-1.494-1.931-1.955-4.914-.071-.461-.155-1-.241-1.472-.117.338-.24.72-.357,1.082a28.144,28.144,0,0,1-3.412,7.626c-1.019,1.4-1.916,2.011-2.746,1.86a2.032,2.032,0,0,1-1.354-1.275c-1.332-2.931-3.308-18.9-4.257-26.571-.17-1.371-.3-2.463-.4-3.146a21.1,21.1,0,0,0-.538-2.869c-.393,1.136-.9,3.438-1.332,5.373a76.1,76.1,0,0,1-2.392,9.106,18.4,18.4,0,0,1-2.285,4.327,15.682,15.682,0,0,1-1.622,1.981,19.456,19.456,0,0,1-1.694,1.514,15.5,15.5,0,0,0-3.077,3.177c-1.644,2.247-2.292,4.093-3.583,7.77a56.028,56.028,0,0,0-2.056,7.452c-.37,1.736-.538,2.528-1.341,2.541-.906.012-2.142.032-4.107-24.645-.4-5.02-.74-10-1.042-14.386-.111-1.618-.22-3.21-.324-4.675-.008.154-.016.31-.023.465-1.073,21.519-2.058,28.109-4.21,28.208-.624.03-1.04-.449-1.482-.955a3.971,3.971,0,0,0-2.346-1.56,3.4,3.4,0,0,0-2,.328,3.5,3.5,0,0,1-2.325.3c-1.8-.476-2.561-2.42-3.114-3.84-.066-.172-.144-.37-.22-.553l-.027.149a8.651,8.651,0,0,1-1.836,4.371c-1.347,1.586-4.148,3.578-6.344,2.566a6.094,6.094,0,0,1-.875-.522,4.164,4.164,0,0,0-.82-.472c-1.185-.447-2.419.37-3.727,1.234-1.392.921-2.969,1.965-4.731,1.509-2.168-.56-2.807-3.537-3.047-4.658-1.221-5.692-1.918-11.635-2.427-15.974-.285-2.429-.577-4.921-.849-6.134a66.629,66.629,0,0,0-2.632,8.948c-2.615,10.922-4.111,20.123-4.831,24.544l-.036.222c-3.077,18.91-3.212,18.909-4.095,18.85-1.029-.058-1.059-.946-1.065-10.516,0-6.186-.009-14.658-.411-25.361-.369-9.82-1.014-20.1-1.557-25.6-.625,7.718-2.229,27.415-3.5,31.9a3.737,3.737,0,0,1-1.489,2.076,3.753,3.753,0,0,1-4.206-.427,6.638,6.638,0,0,1-1.959-3.264,1.775,1.775,0,0,0-.4-.817.57.57,0,0,0-.6-.1,2.808,2.808,0,0,0-1.479,1.821c-.6,2.469-1.828,3.712-3.37,3.413a3.351,3.351,0,0,1-1.5-.837,3.029,3.029,0,0,0-.813-.544c-.93-.34-1.613.4-2.652,1.622a9.166,9.166,0,0,1-1.985,1.919c-2.03,1.279-4.821.43-6.346-1.129a9.554,9.554,0,0,1-2.571-5.495c-.48-5.163-1.508-16.193-2.224-20.177a74.39,74.39,0,0,0-1.7,9.456c-.333,2.654-.532,5-.708,7.07-.447,5.271-.693,8.175-2.568,8.568-1.195.249-2.339-.787-3.351-1.7-.416-.376-1.393-1.262-1.628-1.155-.075.032-.337.47-.158,1.883.792,6.3-2.629,30.416-3.716,31.665l-.187.214-.314.024Z" transform="translate(5436.614 383.119)" fill="#3f5146"/>
    </g>
  </g>
</svg>
