<svg xmlns="http://www.w3.org/2000/svg" xmlns:xlink="http://www.w3.org/1999/xlink" width="491" height="370" viewBox="0 0 491 370">
  <defs>
    <clipPath id="clip-path">
      <rect id="Rectangle_3461" data-name="Rectangle 3461" width="491" height="370" fill="#fff" stroke="#707070" stroke-width="1"/>
    </clipPath>
    <clipPath id="clip-path-2">
      <path id="Path_15619" data-name="Path 15619" d="M286.867,0C445.3,0,604.212-21.408,701.571,174.576S490.588,394.038,336.329,597.609,0,445.3,0,286.867,128.435,0,286.867,0Z" transform="translate(-229.053 -291.861)" fill="#417991"/>
    </clipPath>
  </defs>
  <g id="Mask_Group_18" data-name="Mask Group 18" clip-path="url(#clip-path)">
    <path id="Path_15616" data-name="Path 15616" d="M286.867,0C445.3,0,604.212-21.408,701.571,174.576S490.588,394.038,336.329,597.609,0,445.3,0,286.867,128.435,0,286.867,0Z" transform="translate(-229.053 -291.86)" fill="#417991"/>
    <g id="Group_425" data-name="Group 425" transform="translate(4051.948 -144.395)">
      <path id="Path_15615" data-name="Path 15615" d="M-3967.27,191.014h-41.8a8.934,8.934,0,0,0-8.934,8.934,8.934,8.934,0,0,0,8.934,8.934h9.991a1.975,1.975,0,0,1,1.975,1.975v42.46a9.125,9.125,0,0,0,9.1,9.166,8.934,8.934,0,0,0,8.764-8.932V210.857a1.975,1.975,0,0,1,1.975-1.975h9.991a8.934,8.934,0,0,0,8.934-8.934,8.934,8.934,0,0,0-8.934-8.934" fill="#f7e2c4"/>
    </g>
    <g id="Group_426" data-name="Group 426" transform="translate(318.723 191.148) rotate(-158)">
      <g id="Group_421" data-name="Group 421" transform="translate(0.413 2.019)">
        <g id="Group_420" data-name="Group 420" transform="translate(0 0)">
          <path id="Path_15606" data-name="Path 15606" d="M105.325,307.516A37.794,37.794,0,0,1,97.1,315.7c-11,7.714-29.055,10.085-37.5,2.963-12.3-10.369,7.087-31.319-1.965-64.919C48.669,220.473,25.495,202.3,25.495,202.3,15.212,194.27.479,187.092.013,175.327c-.048-1.2-.1-6.177,2.555-7.552,4.584-2.379,12.538,8.445,15.493,6.756,4.858-2.775-11.937-34.677-6.478-38.412,3.168-2.17,13.245,5.578,19.395,14.083,10.767,14.894,9.443,32.032,8.631,38.339C42.124,174.467,46.2,158.08,52.3,157.752c2.812-.153,5.1,3.161,6.169,4.715,9.666,14.006.142,36.721,1.085,36.987,1.171.331,10.055-36.3,17.162-35.754,2.38.182,3.829,4.471,4.728,7.132,3.742,11.086-.312,19.844-3.856,36.949-2.646,12.773-3.6,23.418-2.66,23.641,1.825.429,8.858-38.385,18.735-38.3,3.7.034,6.349,5.522,6.682,6.234,5.074,10.838-4.547,21.4-8.789,38.116-5.206,20.514.13,41.7,3.564,42,4.463.392,15.737-33.611,13.6-69.791-1.927-32.608-14.307-59.567-18.528-68.561-14.273-30.4-32.566-49.932-25.406-59.7,1.66-2.263,5.048-4.478,8.046-3.927,7.888,1.45,10.123,21.542,11.684,21.26,1.477-.265-2.469-17.9,1.962-19.857,2.7-1.189,8.455,3.48,11.157,9.23,5.552,11.821-2.714,26.259-1.164,26.906,1.811.755,9.924-20.354,16.576-19.262,2.906.477,4.319,4.993,4.508,5.593,1.524,4.872-1,8.587-6.768,21.573-5.416,12.2-4.935,12.87-4.744,12.989.878.544,5.153-4.512,7.895-8.236,6.973-9.473,7.884-15.587,10.515-15.511,2.558.075,5.606,5.966,5.722,11.96.191,9.785-7.576,12.285-12.855,27.645-1.34,3.89-2.7,7.955-2.629,13.358a35.891,35.891,0,0,0,5.438,17.886c2.884-8.844,6.721-18.791,12.78-37.535,7.89-24.414,11.822-36.731,11.132-42.29-3.551-28.553-7.262-46.621-7.262-46.621-.312-1.52-1.209-5.821.847-7.436,2.627-2.062,8.495,1.5,8.794,1.684,9.262,5.744,11.642,19.57,12.591,25.1,1.028,5.977.946,10.592,2.256,10.757,1.089.137,2.314-2.919,3.845-6.989,4.357-11.567,6.536-17.35,7.236-20.815,4.22-20.921-6.193-30.932,1.051-39.5,2.769-3.278,7.562-5.683,11.127-4.479,4.878,1.649,6.039,9.587,6.528,12.928,1.874,12.806-3.5,23.21-3.165,23.327.365.129,7.886-11.975,12.964-30.853,1.249-4.633,2.521-10.316,7.436-15.073.99-.959,7-6.775,11.882-4.836,4.655,1.848,5.247,9.536,5.334,10.662.622,8.073-3.781,14.244-10.137,22.891-13.983,19.021-21.344,28.442-20.194,29.668C196.848,65.4,213.592,46.8,224.162,51.55c4.176,1.875,7.118,7.274,6.141,11.283-1.285,5.273-8.607,5.124-21.6,11.476a92.2,92.2,0,0,0-25.867,19.142c-6.169,6.642-12.811,16.132-11.093,17.965,2.078,2.218,13.278-10.146,33.532-14.877,11.639-2.717,28.522-3.443,31.392,3,1.966,4.418-3.4,10.776-5.085,12.779-14.31,16.979-34.836,9.482-55.439,23.821C170,140.413,165.87,146.272,157.555,157.9c-16.975,23.727-28.1,51.036-25.138,52.835,1.957,1.189,11.352-7.979,16.416-18.4,1.565-3.223,2.593-4.187,4.752-10.895,1.11-3.457,3.215-10.817,9.657-14.418,4.115-2.3,10.167-3.16,12.1-.691,3.8,4.855-9.37,21.3-9.141,21.447s12.263-15.485,24.386-29.009c4.392-4.9,9.557-10.375,14.625-9.232a7.063,7.063,0,0,1,4.928,4.061c2.772,7.229-10.837,19.077-12.627,20.567,1.093-.882,7.127-5.848,17.792-17.922,5.664-6.414,8.814-10.5,13.462-10.322,2.849.112,6.382,1.836,7.2,4.549,2.057,6.838-14.085,16.924-13.2,18.2,1.113,1.6,23.772-18.249,36.529-11.664,4.46,2.3,8.429,8.211,7.175,12.157-.935,2.93-4.56,4.213-6.044,4.715-18.061,6.113-62.386,14.374-86.218,25.747-2.337,1.115-38.718,19.027-48.378,50.584-.2.658-3.264,10.706-7.006,24.234C114.522,290.006,112.562,298.446,105.325,307.516Z" transform="translate(0 0)" fill="#ead065"/>
        </g>
      </g>
      <path id="Path_15607" data-name="Path 15607" d="M58.182,185.628a12.7,12.7,0,0,1-2.84-3.722,12.415,12.415,0,0,1-1.213-4.532,33.978,33.978,0,0,1,.844-9.364c.609-3.083,1.356-6.135,2.01-9.2s1.253-6.149,1.68-9.256A74.723,74.723,0,0,0,59,130.815a72.734,72.734,0,0,0-1.649-9.234c-.369-1.52-.85-3.014-1.269-4.521L55.43,114.8l-.785-2.214-.786-2.212c-.26-.739-.514-1.479-.834-2.194l-1.819-4.328c-1.341-2.827-2.679-5.658-4.227-8.38A115.379,115.379,0,0,0,36.584,79.871c-1.928-2.462-3.982-4.825-6.126-7.1a58.73,58.73,0,0,0-6.852-6.354c-4.9-3.887-10.119-7.431-14.8-11.706a34.5,34.5,0,0,1-6.216-7.227,18.332,18.332,0,0,1-1.983-4.41,15.269,15.269,0,0,1-.6-4.823,12.063,12.063,0,0,1,1.028-4.8,4.394,4.394,0,0,1,1.788-1.957,3.558,3.558,0,0,1,1.324-.417,4.772,4.772,0,0,1,1.337.081,12.318,12.318,0,0,1,4.4,2.208c1.3.934,2.512,1.948,3.728,2.93a19.861,19.861,0,0,0,3.731,2.577,2.7,2.7,0,0,0,.9.231.746.746,0,0,0,.581-.248,3.144,3.144,0,0,0,.394-1.848,22.977,22.977,0,0,0-.678-4.516c-.352-1.511-.766-3.016-1.2-4.516-1.744-6.011-3.864-11.934-5.309-18.112a31.522,31.522,0,0,1-.763-4.744,9.821,9.821,0,0,1,.108-2.512,4.132,4.132,0,0,1,.465-1.3A2.516,2.516,0,0,1,12.972.259,3.008,3.008,0,0,1,14.416.007a5.879,5.879,0,0,1,1.309.224,11.931,11.931,0,0,1,2.29.973,28.063,28.063,0,0,1,3.992,2.7,54.653,54.653,0,0,1,6.863,6.6,51.8,51.8,0,0,1,5.652,7.665,50.8,50.8,0,0,1,6.539,17.813,60.922,60.922,0,0,1,.085,18.977l-1.364-.243c.836-4.083,1.754-8.155,2.872-12.184a66.987,66.987,0,0,1,4.292-11.84,15.66,15.66,0,0,1,3.861-5.23A5.009,5.009,0,0,1,54.158,24.3a5.705,5.705,0,0,1,3.224,1.382,13.51,13.51,0,0,1,2.237,2.411,30.38,30.38,0,0,1,1.762,2.671,24.967,24.967,0,0,1,2.457,5.915A36.757,36.757,0,0,1,64.806,49.3a67.786,67.786,0,0,1-2.3,12.374l-.852,3.009c-.141.5-.286,1-.4,1.476a4.5,4.5,0,0,0-.118.615c0,.02,0-.016,0-.021a.518.518,0,0,0-.168-.313.631.631,0,0,0-.731-.116.3.3,0,0,0-.118.085,2.119,2.119,0,0,0,.111-.184,28.427,28.427,0,0,0,1.156-2.782l1.068-2.92c1.408-3.909,2.815-7.832,4.364-11.707a86.754,86.754,0,0,1,5.326-11.381,26.231,26.231,0,0,1,1.773-2.663,10.233,10.233,0,0,1,2.37-2.341,3.906,3.906,0,0,1,1.744-.661,3.017,3.017,0,0,1,1.906.481A6.881,6.881,0,0,1,82.1,34.915a23.48,23.48,0,0,1,1.228,2.968c.347,1,.652,1.989.927,3.024a26.842,26.842,0,0,1,.974,6.294A44.908,44.908,0,0,1,83.6,59.708c-.994,4.061-2.156,8.048-3.18,12.068S78.445,79.828,77.662,83.9a118.144,118.144,0,0,0-1.82,12.258,15.6,15.6,0,0,0-.021,2.956,1.313,1.313,0,0,0,.047.2.061.061,0,0,0-.026-.033.367.367,0,0,0-.173-.12.448.448,0,0,0-.288-.017.265.265,0,0,0-.109.044c-.046.039.033-.04.078-.115.054-.091.109-.18.162-.289a14.694,14.694,0,0,0,.587-1.368c.723-1.913,1.353-3.9,2-5.872,1.294-3.951,2.6-7.908,4.092-11.81a70.545,70.545,0,0,1,5.312-11.383,17.437,17.437,0,0,1,4.141-4.9,5.705,5.705,0,0,1,3.172-1.2,5.389,5.389,0,0,1,3.22,1.109,10.682,10.682,0,0,1,2.277,2.341,19.231,19.231,0,0,1,1.667,2.736c.119.239.235.479.345.725l.279.756c.178.506.378,1,.535,1.517a16.792,16.792,0,0,1,.507,3.176,8.858,8.858,0,0,1,.031,1.6c-.037.533-.05,1.07-.107,1.6a25.3,25.3,0,0,1-.631,3.119,42.123,42.123,0,0,1-2.11,5.935c-1.651,3.841-3.506,7.557-5.109,11.376A70.226,70.226,0,0,0,91.83,110a70.978,70.978,0,0,0-1.706,12.267,75.515,75.515,0,0,0,.345,12.39,56.821,56.821,0,0,0,1,6.115,26.735,26.735,0,0,0,1.905,5.84,6.952,6.952,0,0,0,.784,1.267,1.509,1.509,0,0,0,1.035.669,2.145,2.145,0,0,0,1.145-.681,8.417,8.417,0,0,0,.966-1.155,31.572,31.572,0,0,0,2.908-5.44,95.749,95.749,0,0,0,4.077-11.744,161.592,161.592,0,0,0,4.8-24.427,161.856,161.856,0,0,0,1.084-24.887,162,162,0,0,1-.882,24.911,161.9,161.9,0,0,1-4.609,24.513,96.035,96.035,0,0,1-4,11.836,32.061,32.061,0,0,1-2.919,5.563,9.012,9.012,0,0,1-1.023,1.24,2.644,2.644,0,0,1-1.5.855,1.142,1.142,0,0,1-.493-.073,1.156,1.156,0,0,1-.419-.211,1.48,1.48,0,0,1-.339-.278,2.687,2.687,0,0,1-.29-.31,7.563,7.563,0,0,1-.866-1.37,27.293,27.293,0,0,1-2.005-5.972,57.287,57.287,0,0,1-1.06-6.179,74.968,74.968,0,0,1-.415-12.512,71.822,71.822,0,0,1,1.669-12.414A71.086,71.086,0,0,1,94.9,97.9c1.6-3.857,3.442-7.595,5.057-11.4a41.179,41.179,0,0,0,2.038-5.812,24.5,24.5,0,0,0,.593-2.99c.051-.5.06-1.008.093-1.511a8.093,8.093,0,0,0-.036-1.507,15.877,15.877,0,0,0-.486-2.967c-.151-.478-.342-.945-.51-1.419l-.262-.707c-.1-.228-.213-.456-.328-.681a13.35,13.35,0,0,0-3.642-4.682,4.332,4.332,0,0,0-2.566-.893,4.637,4.637,0,0,0-2.558,1,16.442,16.442,0,0,0-3.83,4.6A69.346,69.346,0,0,0,83.3,80.145c-1.459,3.875-2.743,7.819-4.022,11.775C78.626,93.9,78,95.877,77.261,97.854a15.587,15.587,0,0,1-.642,1.5c-.061.126-.14.259-.22.391a1.706,1.706,0,0,1-.427.472.991.991,0,0,1-.281.133.836.836,0,0,1-.476-.029.938.938,0,0,1-.326-.237,1.674,1.674,0,0,1-.129-.2,1.962,1.962,0,0,1-.167-.55,16.148,16.148,0,0,1,0-3.268,118.974,118.974,0,0,1,1.821-12.406c.783-4.1,1.724-8.164,2.756-12.2s2.181-8.04,3.158-12.057A43.607,43.607,0,0,0,83.9,47.256a25.519,25.519,0,0,0-.938-6c-.26-.973-.567-1.97-.905-2.934A21.965,21.965,0,0,0,80.9,35.535,5.665,5.665,0,0,0,79.2,33.393a1.654,1.654,0,0,0-1.051-.275,2.584,2.584,0,0,0-1.134.45A8.96,8.96,0,0,0,74.987,35.6a24.917,24.917,0,0,0-1.676,2.528,85.627,85.627,0,0,0-5.216,11.2C66.565,53.177,65.169,57.083,63.766,61L62.7,63.937a28.96,28.96,0,0,1-1.238,2.972,2.493,2.493,0,0,1-.316.465,1.287,1.287,0,0,1-.269.209.79.79,0,0,1-.908-.136.815.815,0,0,1-.238-.489,1.631,1.631,0,0,1-.012-.216,4.962,4.962,0,0,1,.158-.916c.13-.53.275-1.028.416-1.531l.843-2.992a66.349,66.349,0,0,0,2.236-12.116,35.333,35.333,0,0,0-.938-12.12,23.524,23.524,0,0,0-2.3-5.575A18.176,18.176,0,0,0,56.474,26.8a4.29,4.29,0,0,0-2.4-1.067,3.573,3.573,0,0,0-2.393.863,14.39,14.39,0,0,0-3.471,4.743,65.684,65.684,0,0,0-4.208,11.571C42.9,46.893,41.977,50.936,41.139,55l-1.363-.243a59.556,59.556,0,0,0-.054-18.544,49.439,49.439,0,0,0-6.338-17.351,50.543,50.543,0,0,0-5.5-7.484A53.392,53.392,0,0,0,21.2,4.921a26.841,26.841,0,0,0-3.8-2.577,10.6,10.6,0,0,0-2.032-.872,2.862,2.862,0,0,0-1.858-.045,1.8,1.8,0,0,0-.881,1.43,8.672,8.672,0,0,0-.089,2.181,30.22,30.22,0,0,0,.728,4.546c1.406,6.062,3.515,11.994,5.262,18.044.438,1.515.855,3.038,1.213,4.587A23.462,23.462,0,0,1,20.438,37a6.9,6.9,0,0,1-.1,1.289,2.909,2.909,0,0,1-.59,1.352,1.976,1.976,0,0,1-1.509.667,3.8,3.8,0,0,1-1.371-.335,20.572,20.572,0,0,1-4-2.763c-1.221-1-2.415-2-3.661-2.907a11.342,11.342,0,0,0-3.94-2.033,2.673,2.673,0,0,0-1.908.213,3.291,3.291,0,0,0-1.325,1.469,11.044,11.044,0,0,0-.931,4.34,15.268,15.268,0,0,0,2.388,8.646,33.527,33.527,0,0,0,6,7.032C14.073,58.2,19.262,61.761,24.18,65.7A59.686,59.686,0,0,1,31.1,72.168c2.153,2.305,4.211,4.7,6.144,7.185A116.15,116.15,0,0,1,47.635,95.115c1.549,2.745,2.874,5.606,4.2,8.462l1.795,4.37c.316.722.567,1.468.823,2.214l.771,2.232.771,2.232.638,2.273c.409,1.52.88,3.023,1.238,4.557a73.245,73.245,0,0,1,1.587,9.31,75.129,75.129,0,0,1-.491,18.829c-.453,3.113-1.07,6.2-1.757,9.262s-1.453,6.111-2.085,9.184a33.928,33.928,0,0,0-.918,9.326,12.375,12.375,0,0,0,1.171,4.522A12.7,12.7,0,0,0,58.182,185.628Z" transform="translate(0 130.242)" fill="#2b2b2b"/>
      <g id="Group_423" data-name="Group 423" transform="translate(117.456 181.767)">
        <g id="Group_422" data-name="Group 422">
          <path id="Path_15608" data-name="Path 15608" d="M0,0" transform="translate(0 0)" fill="none"/>
        </g>
      </g>
      <path id="Path_15609" data-name="Path 15609" d="M0,57.339A1.646,1.646,0,0,0,1.354,57.3a8.136,8.136,0,0,0,1.262-.606A20.377,20.377,0,0,0,4.925,55.1a45.066,45.066,0,0,0,4.161-3.763,58.624,58.624,0,0,0,7.077-8.683c1.04-1.542,1.927-3.206,2.968-4.775a37.124,37.124,0,0,0,2.681-4.895c.787-1.7,1.458-3.429,2.184-5.174A33.016,33.016,0,0,1,26.6,22.76a20.716,20.716,0,0,1,3.714-4.348,16.113,16.113,0,0,1,4.926-2.956,18.24,18.24,0,0,1,5.629-1.163,11.438,11.438,0,0,1,2.92.218,5.106,5.106,0,0,1,2.719,1.413,3.888,3.888,0,0,1,.934,2.981,10.2,10.2,0,0,1-.67,2.881,28.784,28.784,0,0,1-2.631,5.087,88.626,88.626,0,0,1-6.768,9.071l-.894,1.079-.215.265-.155.2c.028-.12-.013.178.063-.29-.032-.85-1.126-.473-.882-.518-.06.034-.037.023-.026.012l.1-.092.24-.229c.652-.645,1.3-1.327,1.949-2l3.885-4.068q3.888-4.069,7.823-8.1t7.957-7.973c2.7-2.619,5.357-5.251,8.223-7.744A31.894,31.894,0,0,1,70.09,3.107,11.475,11.475,0,0,1,75.75,1.342a7.513,7.513,0,0,1,1.545.2,6.157,6.157,0,0,1,1.471.5,8.269,8.269,0,0,1,2.478,1.8,6.9,6.9,0,0,1,1.59,2.678A6.815,6.815,0,0,1,83,9.632,13.947,13.947,0,0,1,80.6,15.016a34.017,34.017,0,0,1-3.666,4.419,64.763,64.763,0,0,1-8.649,7.382l-.792-1.146A141.289,141.289,0,0,0,80.781,14.83c2.13-1.921,4.219-3.887,6.3-5.87s4.1-4.032,6.377-5.889A15.975,15.975,0,0,1,97.237.681,8.583,8.583,0,0,1,99.473.059a8.269,8.269,0,0,1,2.33.05,10.406,10.406,0,0,1,4.207,1.753,6.532,6.532,0,0,1,2.723,3.773,6.42,6.42,0,0,1-.961,4.535,18.142,18.142,0,0,1-2.761,3.484,58.376,58.376,0,0,1-6.674,5.583c-1.15.864-2.328,1.7-3.416,2.591a8.363,8.363,0,0,0-.747.683,1.22,1.22,0,0,0-.211.279.282.282,0,0,0-.066-.228c-.123-.1-.136-.072-.107-.074a3.272,3.272,0,0,0,.861-.242c.32-.125.643-.265.964-.413,2.572-1.216,5.121-2.589,7.723-3.827s5.242-2.425,7.959-3.42a42.9,42.9,0,0,1,8.388-2.242,18.97,18.97,0,0,1,8.664.46,13.439,13.439,0,0,1,6.764,5.321,14.532,14.532,0,0,1,1.947,3.882,7.951,7.951,0,0,1,.268,4.312,5.585,5.585,0,0,1-2.681,3.307,13.833,13.833,0,0,1-4.028,1.516,13.774,13.774,0,0,0,3.978-1.6,5.435,5.435,0,0,0,2.545-3.274,7.841,7.841,0,0,0-.342-4.18,14.238,14.238,0,0,0-1.969-3.768,13.021,13.021,0,0,0-6.632-5.056,18.427,18.427,0,0,0-8.417-.3,43.907,43.907,0,0,0-8.221,2.328c-2.674,1.011-5.282,2.2-7.853,3.47s-5.084,2.643-7.7,3.912c-.33.156-.665.306-1.013.447a3.759,3.759,0,0,1-1.211.317.776.776,0,0,1-.6-.243.715.715,0,0,1-.121-.73,1.885,1.885,0,0,1,.4-.6,8.886,8.886,0,0,1,.833-.782c1.13-.943,2.289-1.784,3.43-2.658a57.446,57.446,0,0,0,6.495-5.541A17.04,17.04,0,0,0,106.774,9.6a5.277,5.277,0,0,0,.8-3.708,5.36,5.36,0,0,0-2.275-3.025,9.176,9.176,0,0,0-3.7-1.526,6.776,6.776,0,0,0-3.87.5,14.775,14.775,0,0,0-3.473,2.22c-2.179,1.788-4.2,3.848-6.275,5.836s-4.169,3.98-6.305,5.918a142.381,142.381,0,0,1-13.4,11l-.791-1.146a63.254,63.254,0,0,0,8.42-7.235,32.651,32.651,0,0,0,3.5-4.24A12.857,12.857,0,0,0,81.56,9.394a5.372,5.372,0,0,0-.108-2.455A5.477,5.477,0,0,0,80.2,4.822a6.862,6.862,0,0,0-2.042-1.494,4.732,4.732,0,0,0-1.183-.4,6.02,6.02,0,0,0-1.236-.164,10.125,10.125,0,0,0-4.949,1.56,30.543,30.543,0,0,0-4.443,3.224c-2.8,2.42-5.489,5.058-8.18,7.654q-4.024,3.919-7.964,7.928t-7.839,8.06l-3.9,4.056c-.655.676-1.3,1.349-1.983,2.021l-.269.256-.161.14a1.087,1.087,0,0,1-.168.116c.229-.031-.925.368-.94-.524.079-.5.059-.222.1-.369a3.335,3.335,0,0,1,.263-.362l.228-.28.908-1.08a87.344,87.344,0,0,0,6.77-8.883,27.812,27.812,0,0,0,2.581-4.862,9.246,9.246,0,0,0,.632-2.571,2.878,2.878,0,0,0-.648-2.246,4.151,4.151,0,0,0-2.194-1.14,10.527,10.527,0,0,0-2.673-.223,17.339,17.339,0,0,0-5.353,1.051,17.023,17.023,0,0,0-8.3,6.9,33.867,33.867,0,0,0-2.608,4.906c-.743,1.706-1.456,3.46-2.276,5.154a37.76,37.76,0,0,1-2.8,4.918c-1.059,1.54-1.966,3.179-3.05,4.73a58.838,58.838,0,0,1-7.26,8.616A43.776,43.776,0,0,1,5,55.2a20.31,20.31,0,0,1-2.353,1.548,8.126,8.126,0,0,1-1.283.582A1.658,1.658,0,0,1,0,57.339Z" transform="translate(127.422 153.055)" fill="#2b2b2b"/>
      <path id="Path_15610" data-name="Path 15610" d="M55.584,0q-3.067,3.145-5.813,6.577a49.372,49.372,0,0,0-4.962,7.2,11.73,11.73,0,0,0-.85,1.978,3.466,3.466,0,0,0-.167,1.012.792.792,0,0,0,.353.734,1.407,1.407,0,0,0,.91,0,6.164,6.164,0,0,0,.991-.357c.656-.287,1.3-.633,1.932-.989,2.536-1.438,5.036-2.984,7.618-4.386a81.437,81.437,0,0,1,16.243-6.84A75.242,75.242,0,0,1,89.254,2.062a58.664,58.664,0,0,1,8.866.183,30.63,30.63,0,0,1,4.409.771,16.088,16.088,0,0,1,4.241,1.673,8.255,8.255,0,0,1,1.85,1.482,5.326,5.326,0,0,1,1.23,2.114A7.305,7.305,0,0,1,109.565,13a24.954,24.954,0,0,1-4.915,7.519,35.1,35.1,0,0,1-6.669,5.939,36.29,36.29,0,0,1-8.006,3.969c-5.634,1.972-11.507,2.791-17.247,3.82a79.417,79.417,0,0,0-16.8,4.445,51.4,51.4,0,0,0-7.717,3.93,35.526,35.526,0,0,0-6.739,5.36,153.272,153.272,0,0,0-11.225,13.4c-3.627,4.6-7.1,9.279-10.371,14.126s-6.353,9.812-9.224,14.9A145.924,145.924,0,0,0,2.875,106.1c-.553,1.348-1.073,2.71-1.514,4.093a12.838,12.838,0,0,0-.789,4.179c.037.32.132.643.337.705a1.352,1.352,0,0,0,.878-.065,8.367,8.367,0,0,0,1.876-.991,28.6,28.6,0,0,0,3.383-2.741,56.35,56.35,0,0,0,5.894-6.47,54.323,54.323,0,0,0,4.87-7.292,56.217,56.217,0,0,1-10.5,14.043A28.957,28.957,0,0,1,3.928,114.4a8.786,8.786,0,0,1-1.978,1.088,1.788,1.788,0,0,1-1.26.064.927.927,0,0,1-.5-.515,2.076,2.076,0,0,1-.162-.612,7.959,7.959,0,0,1,.184-2.271c.147-.73.337-1.446.547-2.155.422-1.416.921-2.8,1.455-4.174A144.977,144.977,0,0,1,9.841,89.957q4.237-7.72,9.1-15.078,2.424-3.678,5-7.254c1.716-2.384,3.521-4.709,5.311-7.022s3.585-4.637,5.434-6.921a86.9,86.9,0,0,1,5.849-6.641,36.828,36.828,0,0,1,6.959-5.576A52.736,52.736,0,0,1,55.393,37.4a80.455,80.455,0,0,1,17.081-4.592c5.777-1.01,11.581-1.807,17.038-3.7a34.907,34.907,0,0,0,7.711-3.784,33.724,33.724,0,0,0,6.436-5.692,23.8,23.8,0,0,0,4.689-7.075,6.045,6.045,0,0,0,.285-3.887,5.3,5.3,0,0,0-2.516-2.9,21.263,21.263,0,0,0-8.133-2.313A57.538,57.538,0,0,0,89.3,3.179,74.224,74.224,0,0,0,72.091,5.812,81.352,81.352,0,0,0,55.931,12.4c-2.594,1.346-5.105,2.836-7.691,4.24-.649.347-1.305.687-2,.975a6.728,6.728,0,0,1-1.08.364,1.819,1.819,0,0,1-1.24-.065,1.241,1.241,0,0,1-.579-1.138,3.875,3.875,0,0,1,.206-1.144,12.113,12.113,0,0,1,.919-2.035A49.4,49.4,0,0,1,49.6,6.438Q52.437,3.076,55.584,0Z" transform="translate(130.878 96.19)" fill="#2b2b2b"/>
      <path id="Path_15611" data-name="Path 15611" d="M.021,116.226a32.291,32.291,0,0,0,1.289,9.318,36.094,36.094,0,0,0,1.584,4.431c.618,1.444,1.332,2.84,2.085,4.223l-.433.029c3.085-8.572,6.508-17,9.667-25.528,3.191-8.513,6.2-17.1,9.28-25.658,1.524-4.283,3.031-8.572,4.419-12.889.693-2.158,1.354-4.326,1.921-6.508a35.283,35.283,0,0,0,1.2-6.564,12.7,12.7,0,0,0,0-1.608l-.154-1.7-.309-3.4L29.9,43.594c-.465-4.521-.94-9.041-1.461-13.556s-1.08-9.025-1.694-13.527c-.308-2.25-.628-4.5-.972-6.743-.334-2.207-.855-4.6-.144-7.059A4.226,4.226,0,0,1,26.642.986,3.594,3.594,0,0,1,28.48.066,7.778,7.778,0,0,1,32.15.528a19.567,19.567,0,0,1,3.2,1.484,20.336,20.336,0,0,1,2.872,2.051A22.305,22.305,0,0,1,42.6,9.5a33.116,33.116,0,0,1,2.852,6.311,65.746,65.746,0,0,1,2.777,13.441c.273,2.273.4,4.558.593,6.81.051.561.106,1.122.2,1.666a3.453,3.453,0,0,0,.454,1.416c.12.129.168.138.339.075a1.8,1.8,0,0,0,.52-.455,8.787,8.787,0,0,0,.89-1.371c1.062-1.974,1.92-4.093,2.836-6.172l2.709-6.262c.9-2.089,1.785-4.183,2.644-6.287a56.082,56.082,0,0,0,2.3-6.416,56.111,56.111,0,0,1-2.109,6.49c-.8,2.13-1.652,4.242-2.5,6.352l-2.569,6.322c-.872,2.1-1.675,4.229-2.724,6.287a9.435,9.435,0,0,1-.935,1.5,2.425,2.425,0,0,1-.754.66,2.009,2.009,0,0,1-.3.1,1.6,1.6,0,0,1-.344,0,.988.988,0,0,1-.558-.336,2.419,2.419,0,0,1-.449-.9,7.41,7.41,0,0,1-.2-.874c-.1-.578-.167-1.149-.228-1.719-.223-2.278-.381-4.535-.682-6.777a64.76,64.76,0,0,0-2.91-13.2A26.326,26.326,0,0,0,37.408,5,19.08,19.08,0,0,0,34.73,3.1a18.418,18.418,0,0,0-2.989-1.372,6.6,6.6,0,0,0-3.029-.4,2.3,2.3,0,0,0-1.166.58,2.953,2.953,0,0,0-.682,1.2,8.677,8.677,0,0,0-.242,3.136c.07,1.087.288,2.184.464,3.322.356,2.252.686,4.505,1.005,6.761q.952,6.766,1.759,13.548c.538,4.522,1.056,9.046,1.485,13.579l.639,6.8.294,3.4.147,1.7a14.166,14.166,0,0,1,0,1.8,36.521,36.521,0,0,1-1.275,6.833c-.587,2.219-1.264,4.4-1.972,6.57-1.416,4.338-2.945,8.628-4.49,12.91s-3.13,8.547-4.726,12.807-3.207,8.521-4.857,12.761-3.336,8.47-5.035,12.691-3.446,8.42-5.067,12.666l-.19.5-.243-.47c-.724-1.4-1.416-2.832-2.007-4.3a36.495,36.495,0,0,1-1.5-4.5A32.166,32.166,0,0,1,.021,116.226Z" transform="translate(115.593 48.991)" fill="#2b2b2b"/>
      <path id="Path_15612" data-name="Path 15612" d="M.642,57.791a52.655,52.655,0,0,0,1.35-10.336,60.8,60.8,0,0,0-.672-10.393A96.391,96.391,0,0,1,0,26.671a13.337,13.337,0,0,1,.85-5.236,12.079,12.079,0,0,1,3.114-4.323A15.046,15.046,0,0,1,8.484,14.28a9.365,9.365,0,0,1,5.351-.6,5.625,5.625,0,0,1,1.312.475,6.4,6.4,0,0,1,1.186.736,8.421,8.421,0,0,1,1.8,2.069,16.708,16.708,0,0,1,1.979,4.966,40.033,40.033,0,0,1,.871,5.208,38.5,38.5,0,0,1,.262,5.28,44.169,44.169,0,0,1-1.488,10.446,51.569,51.569,0,0,1-1.61,5.029c-.306.822-.645,1.645-.96,2.436l-.1.281-.028.09c-.011-.015.033.017-.019-.224-.642-.768-.947-.192-.858-.315-.025.02.068-.071.119-.137l.184-.235c.247-.33.488-.685.723-1.041a88.734,88.734,0,0,0,5.047-9.052A135.476,135.476,0,0,0,29.9,20.376a45.437,45.437,0,0,1,3.833-9.855,22.736,22.736,0,0,1,3.22-4.3,26.466,26.466,0,0,1,4.09-3.462A17.071,17.071,0,0,1,45.909.351a9.038,9.038,0,0,1,2.81-.343,6.3,6.3,0,0,1,2.793.814,6.763,6.763,0,0,1,1.191.85,8.568,8.568,0,0,1,.952,1.075A10.3,10.3,0,0,1,55,5.193a19.594,19.594,0,0,1,1.218,5.272,20.961,20.961,0,0,1-.135,5.392,21.554,21.554,0,0,1-1.528,5.168,45.406,45.406,0,0,1-5.577,9c-2.116,2.8-4.318,5.491-6.488,8.217L35.952,46.4c-2.177,2.717-4.354,5.435-6.488,8.178-1.065,1.372-2.121,2.751-3.132,4.153-.5.7-1,1.407-1.455,2.124-.225.358-.449.72-.639,1.081a4.142,4.142,0,0,0-.425,1.023c0,.045-.018.13-.009.106H23.8a.125.125,0,0,0-.012-.046.867.867,0,0,0-.081-.082c-.181-.076-.044-.013.1-.069a5.268,5.268,0,0,0,1.047-.473c.727-.4,1.45-.88,2.17-1.357l4.33-2.925a61.716,61.716,0,0,1,9.173-5.186,25.037,25.037,0,0,1,5.073-1.642A12.589,12.589,0,0,1,51,51.3a9.728,9.728,0,0,1,4.674,2.761A12.552,12.552,0,0,1,58.5,58.649a9.161,9.161,0,0,1,.331,5.4,5.875,5.875,0,0,1-1.393,2.42,3,3,0,0,1-.509.474c-.18.143-.355.3-.541.43a12.771,12.771,0,0,1-1.17.69,34.152,34.152,0,0,1-4.937,1.893L45.31,71.544a103.826,103.826,0,0,0-9.728,3.714,92.31,92.31,0,0,0-9.227,4.836A90.1,90.1,0,0,0,9.8,92.739a90.279,90.279,0,0,1,16.37-12.95,92.66,92.66,0,0,1,9.189-5.018,104.56,104.56,0,0,1,9.724-3.9l4.963-1.642a33.484,33.484,0,0,0,4.792-1.886,5.727,5.727,0,0,0,3.157-3.522,8.289,8.289,0,0,0-.361-4.861,11.609,11.609,0,0,0-2.649-4.214,8.709,8.709,0,0,0-4.22-2.447,11.552,11.552,0,0,0-4.958.043,23.965,23.965,0,0,0-4.832,1.619,60.555,60.555,0,0,0-8.946,5.175l-4.317,2.942c-.73.487-1.46.974-2.254,1.419a6.355,6.355,0,0,1-1.332.591,2.015,2.015,0,0,1-.474.073,1.108,1.108,0,0,1-.689-.2.862.862,0,0,1-.283-.331,1.338,1.338,0,0,1-.088-.19l-.031-.16a1.613,1.613,0,0,1,.01-.544,5.1,5.1,0,0,1,.548-1.39c.214-.411.449-.79.685-1.17.477-.753.98-1.475,1.49-2.19,1.023-1.427,2.08-2.818,3.146-4.2,2.135-2.762,4.3-5.489,6.474-8.214L41.427,37.4c2.16-2.73,4.357-5.439,6.437-8.2a44.084,44.084,0,0,0,5.381-8.732,20.11,20.11,0,0,0,1.411-4.827,19.675,19.675,0,0,0,.112-5.023,18.2,18.2,0,0,0-1.105-4.88,8.891,8.891,0,0,0-1.156-2.122,7.152,7.152,0,0,0-.771-.882,5.392,5.392,0,0,0-.929-.663,4.883,4.883,0,0,0-2.168-.638,7.625,7.625,0,0,0-2.353.286,15.713,15.713,0,0,0-4.46,2.2,22.52,22.52,0,0,0-6.919,7.3,44.268,44.268,0,0,0-3.742,9.568,136.749,136.749,0,0,1-7.788,19.479,86.653,86.653,0,0,1-5.164,9.169c-.248.368-.5.732-.778,1.1l-.221.277a2.175,2.175,0,0,1-.333.333c.05-.1-.325.536-.995-.3a.7.7,0,0,1-.007-.386,1.985,1.985,0,0,1,.066-.223l.125-.332c.337-.823.669-1.607.979-2.414a50.31,50.31,0,0,0,1.621-4.9,43.041,43.041,0,0,0,1.551-10.18,37.811,37.811,0,0,0-.207-5.151,39.143,39.143,0,0,0-.8-5.1,15.847,15.847,0,0,0-1.82-4.718,7.621,7.621,0,0,0-1.59-1.875A5.54,5.54,0,0,0,14.78,14.9a4.793,4.793,0,0,0-1.131-.424A8.593,8.593,0,0,0,8.761,15a14.652,14.652,0,0,0-4.319,2.643,11.425,11.425,0,0,0-3.014,4.033,12.772,12.772,0,0,0-.892,4.994A96.44,96.44,0,0,0,1.671,37.015a61.086,61.086,0,0,1,.5,10.446A52.817,52.817,0,0,1,.642,57.791Z" transform="translate(174.622 0)" fill="#2b2b2b"/>
      <path id="Path_15613" data-name="Path 15613" d="M41.742,134.166a164.7,164.7,0,0,0-2.917-25.759c-.208-1.061-.4-2.125-.62-3.183L37.5,102.06c-.441-2.116-1.025-4.2-1.536-6.3-1.136-4.169-2.325-8.325-3.719-12.415a225.37,225.37,0,0,0-9.6-24.058C19,51.456,14.888,43.85,10.733,36.258c-2.07-3.8-4.149-7.6-6.067-11.505C3.7,22.8,2.809,20.813,2.016,18.773A31.951,31.951,0,0,1,.194,12.414a14.608,14.608,0,0,1-.15-3.38A9.137,9.137,0,0,1,.9,5.69,10.509,10.509,0,0,1,5.76.94,8.676,8.676,0,0,1,9.121.013,5.888,5.888,0,0,1,12.589.89a9.152,9.152,0,0,1,2.514,2.4,18.118,18.118,0,0,1,1.718,2.893,65.623,65.623,0,0,1,3.951,12.484,21.6,21.6,0,0,0,.9,2.977,1.088,1.088,0,0,0,.116.206c0,.013.013,0-.091-.057a.52.52,0,0,0-.462.036c-.2.168-.1.118-.1.045a2.231,2.231,0,0,0,.055-.3,12.425,12.425,0,0,0,.062-1.527c-.026-2.126-.167-4.3-.212-6.476a42.4,42.4,0,0,1,.254-6.594,10.386,10.386,0,0,1,.957-3.342A3.579,3.579,0,0,1,23.6,2.162a3.477,3.477,0,0,1,1.025-.336,4.168,4.168,0,0,1,1,.025A7.99,7.99,0,0,1,28.863,3.3a16.288,16.288,0,0,1,2.542,2.232,22.594,22.594,0,0,1,3.824,5.482,20.368,20.368,0,0,1,1.917,6.416,27.372,27.372,0,0,1,.015,6.65A59.393,59.393,0,0,1,33.89,36.766c-.162.5-.323,1.016-.425,1.488a2.985,2.985,0,0,0-.054.326.8.8,0,0,0-.006.161.362.362,0,0,0-.111-.162.436.436,0,0,0-.3-.12c-.152.018-.087.034-.028-.026a5.975,5.975,0,0,0,.926-1.062c.307-.421.6-.861.9-1.308,1.17-1.794,2.292-3.652,3.471-5.477s2.4-3.64,3.755-5.37a29.458,29.458,0,0,1,2.182-2.5,13.251,13.251,0,0,1,2.654-2.144,6.075,6.075,0,0,1,1.673-.693,3.858,3.858,0,0,1,1.918,0,5.176,5.176,0,0,1,2.88,2.222,12.556,12.556,0,0,1,1.485,3.078,10.792,10.792,0,0,1,.62,3.377,11.739,11.739,0,0,1-.508,3.387,28.575,28.575,0,0,1-1.176,3.109c-.882,2.009-1.866,3.94-2.835,5.877C48.96,44.79,47.024,48.653,45.2,52.563c-.9,1.953-1.817,3.919-2.553,5.907a9.54,9.54,0,0,0-.432,1.446c-.021.091-.016.233-.025.167,0,.012-.025-.086-.072-.123a.452.452,0,0,0-.141-.116c-.048-.014-.07-.017-.08-.021s-.033.005-.021,0a1.675,1.675,0,0,0,.486-.248,17.61,17.61,0,0,0,2.337-2.07,73.615,73.615,0,0,0,8.119-9.98c1.2-1.78,2.314-3.62,3.393-5.492.543-.935,1.074-1.879,1.67-2.81a10.62,10.62,0,0,1,1.012-1.363,2.89,2.89,0,0,1,1.6-1.007,2.516,2.516,0,0,1,1.855.506A5.576,5.576,0,0,1,63.6,38.592a12.494,12.494,0,0,1,1.612,2.943,20.529,20.529,0,0,1,1.4,6.449,16.119,16.119,0,0,1-.895,6.545,23.777,23.777,0,0,1-3.266,5.7c-1.28,1.758-2.619,3.45-3.838,5.226a53.747,53.747,0,0,0-3.366,5.506c-.531.937-.952,1.93-1.434,2.893-.432.986-.843,1.982-1.259,2.978a55.659,55.659,0,0,0-2.1,6.113,30.733,30.733,0,0,0-.643,12.815A38.26,38.26,0,0,0,54.1,107.936a38.374,38.374,0,0,1-4.461-12.143,31.006,31.006,0,0,1,.474-12.934,56.12,56.12,0,0,1,2.032-6.184c.4-1.007.805-2.017,1.227-3.017.472-.978.885-1.988,1.408-2.941a54.249,54.249,0,0,1,3.324-5.61c1.207-1.81,2.53-3.532,3.774-5.29A23.532,23.532,0,0,0,65,54.268a15.332,15.332,0,0,0,.8-6.235,19.71,19.71,0,0,0-1.391-6.168,11.635,11.635,0,0,0-1.513-2.723,4.729,4.729,0,0,0-1.054-1.03,1.626,1.626,0,0,0-1.185-.349,2.008,2.008,0,0,0-1.067.725,9.676,9.676,0,0,0-.908,1.248c-.565.9-1.088,1.842-1.625,2.783-1.067,1.886-2.18,3.762-3.386,5.576a74.538,74.538,0,0,1-8.166,10.2A18.5,18.5,0,0,1,43,60.532a2.452,2.452,0,0,1-.973.437.781.781,0,0,1-.221.007.718.718,0,0,1-.276-.065.737.737,0,0,1-.31-.222.822.822,0,0,1-.149-.309,1.576,1.576,0,0,1,0-.639,10.349,10.349,0,0,1,.474-1.666c.753-2.077,1.652-4.047,2.549-6.026,1.815-3.942,3.755-7.82,5.689-11.69.962-1.935,1.939-3.865,2.791-5.821A14.812,14.812,0,0,0,54.13,28.57a9.479,9.479,0,0,0-.56-2.976,11.313,11.313,0,0,0-1.328-2.749,3.9,3.9,0,0,0-2.12-1.686,3.466,3.466,0,0,0-2.6.56,17.949,17.949,0,0,0-4.447,4.328c-1.31,1.678-2.506,3.464-3.668,5.276s-2.275,3.662-3.464,5.5c-.3.458-.606.915-.937,1.369a6.789,6.789,0,0,1-1.217,1.361,1.329,1.329,0,0,1-.756.3.974.974,0,0,1-.677-.243,1.065,1.065,0,0,1-.3-.516,1.818,1.818,0,0,1-.032-.644,4.466,4.466,0,0,1,.074-.475c.126-.586.293-1.108.46-1.633.684-2.077,1.388-4.093,1.946-6.159a40.725,40.725,0,0,0,1.232-6.253,21.874,21.874,0,0,0-1.82-12.263,21.159,21.159,0,0,0-3.562-5.134,14.884,14.884,0,0,0-2.319-2.05,6.678,6.678,0,0,0-2.614-1.216C23.674,2.8,22.964,5.2,22.69,7.175a41.131,41.131,0,0,0-.258,6.364c.038,2.151.174,4.3.2,6.5a13.969,13.969,0,0,1-.077,1.713,3.657,3.657,0,0,1-.1.495,1.7,1.7,0,0,1-.119.311,1.066,1.066,0,0,1-.369.426.893.893,0,0,1-.429.137.863.863,0,0,1-.417-.084,1.064,1.064,0,0,1-.395-.318,2.339,2.339,0,0,1-.3-.49A22.052,22.052,0,0,1,19.454,19,64.525,64.525,0,0,0,15.627,6.761,11.275,11.275,0,0,0,11.9,2.007,5.635,5.635,0,0,0,6.332,2.1,9.246,9.246,0,0,0,2.056,6.237a7.874,7.874,0,0,0-.747,2.9,13.35,13.35,0,0,0,.131,3.087,30.759,30.759,0,0,0,1.737,6.1c.768,2,1.65,3.956,2.585,5.9,1.87,3.88,3.915,7.69,5.955,11.5,4.1,7.622,8.159,15.288,11.761,23.177A223.306,223.306,0,0,1,32.92,83.126c1.342,4.123,2.478,8.308,3.559,12.5.483,2.112,1.04,4.207,1.454,6.335l.663,3.181c.208,1.062.385,2.132.579,3.2A164.989,164.989,0,0,1,41.742,134.166Z" transform="translate(65.479 72.581)" fill="#2b2b2b"/>
      <path id="Path_15614" data-name="Path 15614" d="M194.71,0c-5.351,1.807-10.82,3.25-16.285,4.664L162.008,8.835c-10.952,2.737-21.883,5.567-32.654,8.9-10.712,3.457-21.465,7.048-30.836,13.323-9.444,6.035-18.179,13.361-24.983,22.252-.867,1.1-1.652,2.251-2.46,3.39-.75,1.176-1.538,2.331-2.213,3.552-.726,1.193-1.341,2.444-1.985,3.681-.572,1.27-1.2,2.518-1.675,3.828-.242.652-.53,1.289-.737,1.954L63.816,71.7c-.218.661-.364,1.343-.551,2.014s-.358,1.344-.492,2.04l-1.759,8.277c-1.161,5.521-2.372,11.03-3.492,16.561s-2.117,11.106-3.749,16.567a46.4,46.4,0,0,1-3.146,7.953,45.53,45.53,0,0,1-4.643,7.173,32.587,32.587,0,0,1-5.917,6.176,33.6,33.6,0,0,1-7.392,4.285,44.46,44.46,0,0,1-8.122,2.56,47.28,47.28,0,0,1-8.447.969,34.832,34.832,0,0,1-8.434-.912A20.865,20.865,0,0,1,0,141.866a20.736,20.736,0,0,0,7.724,3.277,34.6,34.6,0,0,0,8.375.739,46.866,46.866,0,0,0,8.335-1.12,43.9,43.9,0,0,0,7.954-2.677,33.279,33.279,0,0,0,7.17-4.275,31.692,31.692,0,0,0,5.692-6.089,44.554,44.554,0,0,0,4.465-7.076,45.414,45.414,0,0,0,2.982-7.81c1.531-5.387,2.485-10.956,3.586-16.492s2.291-11.065,3.433-16.6l1.729-8.3c.131-.691.309-1.384.493-2.077s.337-1.392.558-2.072l.659-2.043c.211-.684.5-1.338.749-2.01.485-1.347,1.121-2.629,1.7-3.935.655-1.27,1.281-2.556,2.018-3.778.688-1.253,1.487-2.437,2.25-3.643.82-1.167,1.616-2.353,2.5-3.471C79.357,43.374,88.234,36,97.808,29.932c2.4-1.513,4.857-2.943,7.374-4.266.632-.328,1.263-.654,1.907-.965s1.3-.576,1.952-.867c1.307-.552,2.591-1.17,3.918-1.669,5.26-2.133,10.66-3.846,16.068-5.5,10.848-3.209,21.82-5.923,32.811-8.518l16.493-3.853C183.819,2.969,189.312,1.657,194.71,0Z" transform="translate(64.198 185.207)" fill="#2b2b2b"/>
    </g>
    <g id="Mask_Group_11" data-name="Mask Group 11" clip-path="url(#clip-path-2)">
      <g id="Group_419" data-name="Group 419" transform="translate(-111.498 295.323) rotate(-47)">
        <g id="Group_418" data-name="Group 418">
          <g id="Group_417" data-name="Group 417">
            <path id="Path_15605" data-name="Path 15605" d="M-4102.058,786.293c.861.546.169,3.362.517,5.144a11.358,11.358,0,0,1,.183,1.556c.009.2.011.405,0,.637a8.689,8.689,0,0,0,.608,2.842c.961,3.944-4.658,11.205.645,13.458,1.835.779,2.765-.4,4.369-1.3a21.237,21.237,0,0,0,3.9-2.338,32.068,32.068,0,0,0,5.875-6.293c4.575-6.947,5.2-14.91,6.543-22.755.239-1.39.287-2.777.475-4.141a7.307,7.307,0,0,1,.638-2.594,6.039,6.039,0,0,0,.128-2.235c1.362-4.378,6.066,2.691,7.13,4.124,2.532,3.41,3.236,6.882,4.238,10.962.4,1.641.534,4.027,1.39,5.488a6.792,6.792,0,0,0,2.965,2.375c1.034.593,2.294,1.671,3.616,1.417,1.457-.281,3.18-2.316,3.706-3.609.554-1.362.262-2.8.343-4.206.129-2.266.088-4.5.048-6.771-.062-3.527-.041-7.067-.266-10.585-.1-1.552-.24-3.045-.272-4.6-.021-1-.943-2.965.092-3.691,3.015.9,5.21,3.581,6.829,6.116,1.716,2.687,3.314,5.525,4.94,8.278a55.984,55.984,0,0,0,4.524,6.627c.994,1.247,3,4.6,5.226,3.483,2.243-1.133,2.124-5.285,2.146-7.111.053-4.379-1.736-7.738-3.89-11.348-1.81-3.031-3.127-6.33-5.054-9.292-1.21-1.859-3.187-4.011-3.677-6.2,1.819-.3,5.634,2.5,6.833,3.55.748.655,1.6,1.423,2.319,2.118,1.027.992,2.115,1.643,3.21,2.593,1.481,1.285,2.874,2.749,4.424,3.953.547.424,2.211,1.619,2.943,1.571a1.737,1.737,0,0,0,.806-.286c2.244-1.547.194-8.981-1.813-13.351-4.847-10.552-14.594-14.791-13.721-16.368s9.955,4.1,15.9.194c1.6-1.051,3.479-3.127,3.478-5.456,0-3.071-3.963-5.6-11.886-10.669a13.149,13.149,0,0,0-2.881-1.352l-.033-.01c-1.625-.471-6.335-1.683-10.981-2.737-.26-.059-2.629-.6-2.579-1.121.012-.122.15-.2,1.916-.938a6.281,6.281,0,0,0,1.832-1.023,4.577,4.577,0,0,0,1.052-1.345c.915-1.682,3.323-3.952,4.684-5.448,3.227-3.544,6.807-7.478,6.328-11.975-.353-3.317-2.79-5.72-3.55-6.481a5.009,5.009,0,0,0-2.86-1.72,5.644,5.644,0,0,0-3.676,1.081c-5.25,3.1-7.93,5.379-8.364,4.992-.341-.3.761-2.049,1.552-3.435,1.889-3.313,6.475-11.353,3.977-16.087-1.018-1.927-3.5-3.854-4.922-3.469-.073.02-.195.057-.433.146-.479.179-.925.412-2.739,1.215-1.871.828-2.806,1.242-3.46,1.449a20.616,20.616,0,0,0-2.145.732c-.654.274-.892.422-1.579.756a14.867,14.867,0,0,1-3.228,1.281c-.035-.076,1.016-.495,2.217-1.459a11.65,11.65,0,0,0,1.984-2.076c2.8-3.584,4.2-5.377,4.956-6.629,2.7-4.444,4.1-6.63,3.875-8.388-.472-3.65-4.679-6.994-8.586-7.017-3.674-.022-6.6,2.894-9.063,5.345a17.34,17.34,0,0,0-2.283,2.539,11.387,11.387,0,0,1-1.993,2.72c-.438.4-.893.81-1.165.69-.564-.249.1-2.582.438-4.161a26.458,26.458,0,0,0-.23-11.379c-.484-2.3-1.29-5.89-4-7.352a3.133,3.133,0,0,0-2.488-.4c-.969.356-1.509,1.391-2,2.858-1.439,4.291-.527,6.5-2.016,10.4-.464,1.219-1.114,2.475-2.171,2.718-.086.02-.75.164-1.061-.183-.431-.481.228-1.455.513-2.7.222-.967.1-1.594-.311-3.789-1.073-5.71-1.034-5.58-1.068-5.7-1.407-4.949-5.219-9.679-6.645-9.106-.415.166-.415.695-.928,3.97-.521,3.325-.781,4.988-1.086,6.156a43.937,43.937,0,0,1-2.959,6.974c-1.522,3.2-2.042,3.921-2.479,3.864-.606-.079-.35-1.562-1.46-3.575a11.112,11.112,0,0,0-3.178-3.407,23.149,23.149,0,0,0-3.521-2.148c-5.05-2.79-5.45-2.844-5.784-2.642-1.1.662-.567,3.515.119,7.208.814,4.382,1.933,7.384,1.747,7.457-.151.06-.9-1.894-2.447-5.036-.452-.919-1.588-3.2-3.174-5.935-2.133-3.684-1.889-2.693-3.367-5.376a18.965,18.965,0,0,0-3.213-4.3c-.569-.565-1.252-1.163-1.916-.989-.5.131-.818.653-1.4,1.6a9.781,9.781,0,0,0-.725,1.45,11.3,11.3,0,0,0-.584,1.937,31.125,31.125,0,0,0-.479,6.384c.143,3.868.622,5.62.3,5.721-.369.117-1.182-2.194-3.311-5.925-1.477-2.587-2.632-4.58-3.4-4.359-.6.172-.721,1.628-.854,3.408a46,46,0,0,0,.131,5.473,31.62,31.62,0,0,1-.88,7.047c-.467,2.37-.713,3.564-1.3,4.025-1.872,1.465-5.765-.246-7.954-1.685-3.478-2.288-3.2-4.248-7.349-6.856-2.811-1.765-4.164-1.635-4.859-1.463-1.231.306-2.063,1.16-3.661,2.8a10.435,10.435,0,0,0-2.5,3.315,9.008,9.008,0,0,0-.637,3.948,14.337,14.337,0,0,0,1.135,5.2,30.052,30.052,0,0,0,3.7,6.762c5.4,7.394,9.339,9.728,8.573,11.224-.425.832-1.762.348-6.569,1.007a28.538,28.538,0,0,0-8.088,1.992c-2.576,1.132-4.811,2.113-5.638,4.369-.743,2.025-.25,4.8,1.381,5.789,1.107.67,2.238.208,7.322-1.273,3.372-.982,5.057-1.473,5.652-1.589,6.446-1.256,12.563,1.585,12.439,2.264-.045.248-.9.1-3.67.6-1.816.325-2.076.5-4.484,1.046-3.575.811-3.8.606-5.862,1.219-2.168.644-4.459,1.324-4.489,2.154-.037,1.028,3.432,1.25,8,3.1,5.6,2.273,9.988,5.836,9.641,6.51-.066.13-.344.219-5.375-.936-3.531-.81-3.487-.875-5.138-1.226-6.838-1.453-8.838-.605-9.8.17a1.575,1.575,0,0,0-.493.557c-.4.861.258,2.07,4.291,6.451a36.133,36.133,0,0,0,3.494,3.568c2.879,2.193,5.121,2.4,5.032,3.137s-2.426.782-6.988,2.08a44.674,44.674,0,0,0-6,2.116c-2.843,1.259-5,2.216-7.067,4.358-3.149,3.27-3.327,6.458-3.184,7.377a1.241,1.241,0,0,0,.484.91c.507.3,1.246-.1,1.733-.335a31.759,31.759,0,0,1,3.729-1.044c2.281-.76,3.322-.567,7-1.313,4.531-.92,6.8-1.38,9.3-2.439a9.512,9.512,0,0,1,4.69-.773c.809.088,1.533.167,1.751.645.246.536-.3,1.252-3.839,5.319-1.011,1.16-1.618,1.849-2.412,2.942-.813,1.118-1.343,2-1.626,2.47-3.7,6.138-4.4,6.81-5.436,9.317-1.255,3.05-1.883,4.574-1.234,5.472,1.434,1.981,8.023.692,12.82-2.55,2.637-1.783,2.686-2.773,9.492-8.555,2.033-1.727,4.331-3.6,5.933-2.9a2.591,2.591,0,0,1,1.265,1.562c.556,1.622-.463,3.357-1.879,5.769-.6,1.022-1.292,1.97-1.4,2.118-.516.7-.932,1.2-1.07,1.364-1.467,1.76-2.344,3.4-3.421,4.81-2.226,2.921-3.353,2.325-6.2,5.727-1.47,1.753-2.357,2.841-2.079,3.919.419,1.622,3.3,2.538,5.705,2.213,2.616-.354,3.176-1.974,7.256-4.253,1.059-.592,5.842-3.264,6.74-2.24.939,1.071-2.632,5.883-5.444,8.891a59.835,59.835,0,0,1-7.294,6.155c-6.456,4.992-5.946,4.023-10.478,7.676-3.6,2.906-5.879,2.7-6.239,4.387-.481,2.253,2.2,4.688,4.052,5.847,3.105,1.941,7.25,1.368,15.446.6,6.271-.585,10.122-1,12.382-3.813a41.48,41.48,0,0,0,2.558-4c1.9-3.312,2.422-5.1,2.925-5.015.314.053.374,1.927.479,5.673a13.9,13.9,0,0,1-.34,3.847,13.467,13.467,0,0,1-.4,1.339,48.791,48.791,0,0,1-4.154,8c-2.066,3.447-2.762,4.659-2.241,5.674a2.385,2.385,0,0,0,1.249,1c2.973,1.422,6.839-.276,11.39-2.276a4.68,4.68,0,0,0,.759-.4c1.241-.816,1.352-1.827,2.86-4.56.286-.518.6-1.072,1.057-1.8.67-1.06,1.04-1.472,1.964-3.173,1.786-3.287,1.456-3.681,2.588-5.644C-4107.345,788.568-4103.19,785.574-4102.058,786.293Z" transform="translate(4180.163 -628.973)" fill="#f7e2c4"/>
          </g>
        </g>
      </g>
      <g id="Group_491" data-name="Group 491" transform="translate(3824.43 -310.886)">
        <path id="Path_15810" data-name="Path 15810" d="M-3640.326,461.916c-6.462,0-9.682-2.942-12.795-5.788-2.881-2.633-5.6-5.121-11.077-5.121s-8.2,2.487-11.077,5.121c-3.113,2.845-6.333,5.788-12.794,5.788s-9.682-2.942-12.795-5.788c-2.882-2.633-5.6-5.121-11.077-5.121s-8.2,2.487-11.078,5.121c-3.114,2.845-6.333,5.788-12.8,5.788s-9.682-2.942-12.8-5.788c-2.882-2.633-5.6-5.121-11.078-5.121s-8.2,2.487-11.078,5.121c-3.114,2.845-6.333,5.788-12.8,5.788V459.37c5.474,0,8.2-2.488,11.078-5.121,3.114-2.845,6.333-5.787,12.8-5.787s9.682,2.942,12.8,5.787c2.882,2.634,5.6,5.121,11.079,5.121s8.2-2.488,11.078-5.121c3.114-2.845,6.333-5.787,12.8-5.787s9.681,2.942,12.794,5.787c2.882,2.634,5.6,5.121,11.078,5.121s8.2-2.488,11.077-5.121c3.113-2.845,6.333-5.787,12.795-5.787s9.681,2.942,12.794,5.787c2.881,2.634,5.6,5.121,11.077,5.121Z" fill="#f7e2c4"/>
        <path id="Path_15811" data-name="Path 15811" d="M-3640.326,625.991c-6.462,0-9.682-2.942-12.795-5.787-2.881-2.634-5.6-5.121-11.077-5.121s-8.2,2.487-11.077,5.121c-3.113,2.845-6.333,5.787-12.794,5.787s-9.682-2.942-12.795-5.787c-2.882-2.634-5.6-5.121-11.077-5.121s-8.2,2.488-11.078,5.121c-3.114,2.845-6.333,5.787-12.8,5.787s-9.682-2.942-12.8-5.787c-2.882-2.634-5.6-5.121-11.078-5.121s-8.2,2.488-11.078,5.121c-3.114,2.845-6.333,5.787-12.8,5.787v-2.546c5.474,0,8.2-2.487,11.078-5.121,3.114-2.845,6.333-5.788,12.8-5.788s9.682,2.942,12.8,5.787c2.882,2.633,5.6,5.121,11.079,5.121s8.2-2.487,11.078-5.121c3.114-2.845,6.333-5.788,12.8-5.788s9.681,2.942,12.794,5.788c2.882,2.633,5.6,5.121,11.078,5.121s8.2-2.487,11.077-5.121c3.113-2.845,6.333-5.788,12.795-5.788s9.681,2.942,12.794,5.788c2.881,2.633,5.6,5.121,11.077,5.121Z" transform="translate(0 -104.397)" fill="#f7e2c4"/>
        <path id="Path_15812" data-name="Path 15812" d="M-3640.326,584.972c-6.462,0-9.682-2.942-12.795-5.787-2.881-2.634-5.6-5.121-11.077-5.121s-8.2,2.487-11.077,5.121c-3.113,2.845-6.333,5.787-12.794,5.787s-9.682-2.942-12.795-5.787c-2.882-2.634-5.6-5.121-11.077-5.121s-8.2,2.488-11.078,5.121c-3.114,2.845-6.333,5.787-12.8,5.787s-9.682-2.942-12.8-5.787c-2.882-2.634-5.6-5.121-11.078-5.121s-8.2,2.488-11.078,5.121c-3.114,2.845-6.333,5.787-12.8,5.787v-2.546c5.474,0,8.2-2.488,11.078-5.121,3.114-2.845,6.333-5.788,12.8-5.788s9.682,2.942,12.8,5.787c2.882,2.633,5.6,5.121,11.079,5.121s8.2-2.488,11.078-5.121c3.114-2.845,6.333-5.788,12.8-5.788s9.681,2.942,12.794,5.788c2.882,2.633,5.6,5.121,11.078,5.121s8.2-2.487,11.077-5.121c3.113-2.845,6.333-5.788,12.795-5.788s9.681,2.942,12.794,5.788c2.881,2.633,5.6,5.121,11.077,5.121Z" transform="translate(0 -78.298)" fill="#f7e2c4"/>
        <path id="Path_15813" data-name="Path 15813" d="M-3640.326,543.954c-6.462,0-9.682-2.942-12.795-5.788-2.881-2.633-5.6-5.121-11.077-5.121s-8.2,2.487-11.077,5.121c-3.113,2.845-6.333,5.788-12.794,5.788s-9.682-2.942-12.795-5.788c-2.882-2.633-5.6-5.121-11.077-5.121s-8.2,2.487-11.078,5.121c-3.114,2.845-6.333,5.788-12.8,5.788s-9.682-2.942-12.8-5.788c-2.882-2.633-5.6-5.121-11.078-5.121s-8.2,2.487-11.078,5.121c-3.114,2.845-6.333,5.788-12.8,5.788v-2.546c5.474,0,8.2-2.488,11.078-5.121,3.114-2.845,6.333-5.788,12.8-5.788s9.682,2.942,12.8,5.788c2.882,2.633,5.6,5.121,11.079,5.121s8.2-2.488,11.078-5.121c3.114-2.845,6.333-5.788,12.8-5.788s9.681,2.942,12.794,5.788c2.882,2.633,5.6,5.121,11.078,5.121s8.2-2.488,11.077-5.121c3.113-2.845,6.333-5.788,12.795-5.788s9.681,2.942,12.794,5.788c2.881,2.633,5.6,5.121,11.077,5.121Z" transform="translate(0 -52.199)" fill="#f7e2c4"/>
        <path id="Path_15814" data-name="Path 15814" d="M-3640.326,502.935c-6.462,0-9.682-2.943-12.795-5.788-2.881-2.633-5.6-5.121-11.077-5.121s-8.2,2.488-11.077,5.121c-3.113,2.845-6.333,5.788-12.794,5.788s-9.682-2.942-12.795-5.788c-2.882-2.633-5.6-5.121-11.077-5.121s-8.2,2.488-11.078,5.121c-3.114,2.845-6.333,5.788-12.8,5.788s-9.682-2.942-12.8-5.788c-2.882-2.633-5.6-5.121-11.078-5.121s-8.2,2.488-11.078,5.121c-3.114,2.845-6.333,5.788-12.8,5.788v-2.546c5.474,0,8.2-2.487,11.078-5.121,3.114-2.845,6.333-5.788,12.8-5.788s9.682,2.942,12.8,5.788c2.882,2.633,5.6,5.121,11.079,5.121s8.2-2.487,11.078-5.121c3.114-2.845,6.333-5.788,12.8-5.788s9.681,2.942,12.794,5.788c2.882,2.633,5.6,5.121,11.078,5.121s8.2-2.487,11.077-5.121c3.113-2.845,6.333-5.788,12.795-5.788s9.681,2.942,12.794,5.788c2.881,2.633,5.6,5.121,11.077,5.121Z" transform="translate(0 -26.099)" fill="#f7e2c4"/>
      </g>
    </g>
    <g id="Group_416" data-name="Group 416" transform="translate(75.507 46.619) rotate(13)">
      <path id="Path_15578" data-name="Path 15578" d="M8.936.1a6.009,6.009,0,0,0-4.2,1A7.557,7.557,0,0,0,3.142,3C1.534,5.736,1.821,7.736,1.564,9.658a20.226,20.226,0,0,0-.206,3.649C1.43,15.2-1.13,19.294.6,19.91c1.829.65,4.57-2.981,5-3.49A18.245,18.245,0,0,0,9.911,4.29C9.86,3.081,10.4.571,8.936.1Z" transform="translate(214.446 8.05)" fill="#417991"/>
      <g id="Group_405" data-name="Group 405" transform="translate(3.518 19.396)">
        <g id="Group_404" data-name="Group 404" transform="translate(0 0)">
          <path id="Path_15579" data-name="Path 15579" d="M247.483,16.849a10.389,10.389,0,0,0-5.664-3.6,15.3,15.3,0,0,0-10.183.519,126.4,126.4,0,0,0-17.418,11.127c-2.069,1.587-3.44,2.757-5.429,2.675-4.6-.187-5.553-6.776-12.079-14.047A43.471,43.471,0,0,0,178.035,1.881c-.994-.3-12.905-3.779-14.779-.448-1.882,3.347,9.027,8.862,14.3,23.341,1.478,4.056,3.768,10.6,1.748,17.658-1.943,6.793-6.889,10.661-12.95,15.262-19.128,14.522-28.693,21.784-33.113,24.089-10.208,5.323-27.9,12.924-34.042,17.665-.432.333-2.933,1.865-6.056,4.318a19.138,19.138,0,0,1-5.655,3.438c-8.557,3.145-16.686-1.843-31.5-9.077-8.491-4.147-17.25-7.731-25.851-11.651C22.026,82.776.835,73.169.022,74.675c-.3.559,2.583,1.955,4.918,6.318.909,1.7,2.115,3.949,1.817,6.659-.369,3.353-2.771,5.03-2.267,5.678.651.835,4.911-3.106,9.568-3.464,5.5-.422,7.008,5.22,18.366,13.514,3.637,2.655,3.127,1.848,9.694,6.358,7.29,5,10.934,7.506,14.087,10.564,2.068,2.007,8.592,8.469,11.688,17.958,4.261,13.068-.6,23.868,1.328,24.407,2.38.665,9.89-16.782,11.152-19.713,5.063-11.761,4.812-14.349,8.563-16.993,3.117-2.2,4.785-1.464,19.414-3.775,4.092-.646,8.2-1.295,13.648-2.415.11-.023,7.838-.883,23.294-2.6.8-.09,2.546-.285,3.456.72,1.746,1.925-1.016,6.666-.36,7,.694.354,3.12-5.278,8.213-7.724a39.187,39.187,0,0,1,3.988-1.476c3.2-1.086,3.794-1.062,4.306-.827,1.173.539.856,1.7,2.328,3.271.2.215,2.21,2.349,3.727,1.956,2.037-.529,1-5.036,3.535-7.945,2.465-2.833,6.86-2.542,9.706-2.562,5.159-.036,12.625-1.172,22.353-6.227a58.532,58.532,0,0,0,14.087-19.37c2.642-5.973,1.631-6.574,4.4-13.868,3.9-10.276,9.524-18.59,15.408-27.294,2.708-4.006,5.742-8.216,7.484-14.748C249.862,20.812,248.263,17.945,247.483,16.849Z" transform="translate(0 0)" fill="#417991"/>
        </g>
      </g>
      <g id="Group_407" data-name="Group 407" transform="translate(101.59 110.928)">
        <g id="Group_406" data-name="Group 406" transform="translate(0 0)">
          <path id="Path_15580" data-name="Path 15580" d="M12.907,3.651C10.12,1.735,6.447-.715,2.6.2c-6.058,1.433.244,5.638,1.171,9.468" transform="translate(0 0)" fill="#417991"/>
        </g>
      </g>
      <g id="Group_409" data-name="Group 409" transform="translate(118.521 134.824)">
        <g id="Group_408" data-name="Group 408" transform="translate(0 0)">
          <path id="Path_15581" data-name="Path 15581" d="M1.163,3C2.184,6.747,1.382,10.136,0,13.7,5.4,13.3,11.769,5.214,11.6,0" fill="#417991"/>
        </g>
      </g>
      <g id="Group_411" data-name="Group 411" transform="translate(248.867 85.977)">
        <g id="Group_410" data-name="Group 410" transform="translate(0 0)">
          <path id="Path_15582" data-name="Path 15582" d="M.006,20.012c.205,1.537,3.533,1.366,10.367,4.046a82.686,82.686,0,0,1,12.021,6.172c4.628,2.678,6.949,4,8.686,5.462,5.182,4.352,7.9,9.192,9.642,8.433a1.562,1.562,0,0,0,.727-.924c1.232-2.812.44-5.648-.333-10.95a37.309,37.309,0,0,0-2.077-8.863c-.925-2.292-1.265-2.272-2.244-4.879-1.3-3.45-1.012-4.308-2.305-7.154a29.408,29.408,0,0,0-2.7-4.589,22.647,22.647,0,0,0-4.193-4.949C25.3-.136,24.27-.043,23.9.029A3.387,3.387,0,0,0,21.87,1.67C20.658,3.549,17.638,6.4,11.6,12.089a53.032,53.032,0,0,1-8.273,5.434C1.152,18.741-.1,19.249.006,20.012Z" transform="translate(0 0)" fill="#417991"/>
        </g>
      </g>
      <g id="Group_413" data-name="Group 413" transform="translate(214.549 1.305)">
        <g id="Group_412" data-name="Group 412" transform="translate(0 0)">
          <path id="Path_15583" data-name="Path 15583" d="M19.2,112.279c6.706-2.606,29.308-15.362,46.836-39.653C76.451,58.2,81.789,51.032,84.216,44.374c1.587-4.35,2.8-9.078,7.044-11.152,6-2.932,12.17-.328,18.016-4.27,2.11-1.424,2.783-3.593,4.443-5.742,1.783-2.307,3.443-4.1,2.2-9.084-.822-3.287-3.943-4.672-5.676-5.585a20.469,20.469,0,0,0-6.461-1.871C98.1,5.737,97.47,6.757,92.652,6,87.619,5.219,87.4,3.964,83.3,3.94c-3.307-.02-3.6.794-6.631.585-2.919-.2-3.522-1.016-8.386-2.536C63.65.542,61.335-.181,58.532.039c-3.837.3-3.906,1.2-8,2.051-5.447,1.132-6.267-.111-13.067.189C31.341,2.55,31.11,4.7,25.685,4.189c-2.66-.253-4.292-.93-7.329-.45-1.7.268-4.035.639-5.766,2.143-4.119,3.578-.209,8.648-3.916,14.94-2.337,3.966-7.063,5-6.744,7,.373,2.337,6.76,2.562,8.778,2.877,0,0,8.867.8,14.794-.794a12.5,12.5,0,0,1,1.238-.281,24.321,24.321,0,0,1,3.412-.207c1.81.112,6.464,2.109,8.35,4.8,5.3,7.564-6.888,26.839-15.661,40.71a59.571,59.571,0,0,0-3.9,7.021,92.716,92.716,0,0,0-4.1,11.116c-2.152,6.493-3.228,9.74-3.315,9.946C7.166,113.375-.75,118.714.057,119.649c.2.237.8.053,5.912-2.272C12.693,114.317,16.841,113.2,19.2,112.279Z" transform="translate(0 0)" fill="#f7e2c4"/>
        </g>
      </g>
      <path id="Path_15584" data-name="Path 15584" d="M30.011,10.233A7.9,7.9,0,0,0,28.13,5.717a17.91,17.91,0,0,0-3.662-3.381A13.61,13.61,0,0,0,19.785.384a18.492,18.492,0,0,0-5.03-.343A20.551,20.551,0,0,0,5.3,3.086,13.189,13.189,0,0,0,1.615,6.471,8.993,8.993,0,0,0,0,11.093,10.026,10.026,0,0,1,2.225,6.957,14.028,14.028,0,0,1,5.958,4.222,22.908,22.908,0,0,1,14.87,1.769,17.869,17.869,0,0,1,19.46,2,13.539,13.539,0,0,1,23.753,3.5,17.73,17.73,0,0,1,25.69,4.788a17.251,17.251,0,0,1,1.8,1.506A8.72,8.72,0,0,1,30.011,10.233Z" transform="translate(263.959 20.576)" fill="#2b2b2b"/>
      <g id="Group_415" data-name="Group 415" transform="translate(173.3 94.193)">
        <g id="Group_414" data-name="Group 414" transform="translate(0 0)">
          <path id="Path_15585" data-name="Path 15585" d="M29.127,17.778c-7.8,10.673-5.538,12.139-12.839,20.463C13.311,41.635,9.963,44.779,5.5,51.007A98.979,98.979,0,0,0,0,59.592c1.611-.279,3.932-.122,6.6-1.1,5.649-2.064,10.676-5.661,17.959-13.7C33.853,34.526,38.5,29.4,44.062,20.63,47.31,15.514,55.011,3.381,52.175.623a2,2,0,0,0-.922-.481C46.328-1.2,36.912,7.13,29.127,17.778Z" transform="translate(0 0)" fill="#417991"/>
        </g>
      </g>
      <path id="Path_15586" data-name="Path 15586" d="M2.757.994a13.331,13.331,0,0,1,7.061.827,11.329,11.329,0,0,1,5.1,4.547,14.447,14.447,0,0,1,1.561,3.207,9.167,9.167,0,0,1,.563,3.545,16.694,16.694,0,0,1-2.378,6.89l-3.612,6.472c-1.247,2.106-2.619,4.184-3.893,6.311C4.63,37.062,2.16,41.375,0,45.886l.147.092A147.033,147.033,0,0,0,8.741,33.761c1.318-2.112,2.565-4.259,3.744-6.49a74.022,74.022,0,0,0,3.045-6.863,28.354,28.354,0,0,0,2.077-7.249,14.01,14.01,0,0,0-1.43-7.511A10.382,10.382,0,0,0,10.3.564a10.822,10.822,0,0,0-7.59.262Z" transform="translate(237.318 30.303)" fill="#2b2b2b"/>
      <path id="Path_15587" data-name="Path 15587" d="M.152,2.01a2.919,2.919,0,0,1,2.017-.944,12.118,12.118,0,0,1,2.341,0,37.174,37.174,0,0,1,4.71.752c1.567.322,3.121.727,4.673,1.125s3.086.81,4.611,1.325a28.044,28.044,0,0,1,8.483,4.559,38.617,38.617,0,0,1,3.6,3.209,36.562,36.562,0,0,1,3.192,3.543,82.52,82.52,0,0,1,5.335,8,16.457,16.457,0,0,0,3.2,3.98,5.156,5.156,0,0,0,2.54,1.136,3.851,3.851,0,0,0,1.437-.037,5.464,5.464,0,0,0,1.259-.505,29.989,29.989,0,0,0,4.027-2.886c1.322-.952,2.612-1.934,3.942-2.862,2.657-1.86,5.422-3.567,8.2-5.24l-.089-.149c-2.805,1.639-5.594,3.313-8.284,5.147-1.345.915-2.653,1.884-3.98,2.815a17.688,17.688,0,0,1-2.1,1.219A20.64,20.64,0,0,1,47.129,27.2a4.371,4.371,0,0,1-1.042.274,3.122,3.122,0,0,1-.985-.1,3.806,3.806,0,0,1-1.769-1,18.143,18.143,0,0,1-2.668-3.752c-.809-1.392-1.669-2.795-2.606-4.155a44.365,44.365,0,0,0-3.051-3.916,35.132,35.132,0,0,0-7.622-6.284c-2.746-1.787-5.561-3.422-8.49-4.94A34.193,34.193,0,0,0,14.3,1.461,41.052,41.052,0,0,0,9.489.372,25.715,25.715,0,0,0,4.527.015a9.847,9.847,0,0,0-2.5.393A3.058,3.058,0,0,0,0,1.925Z" transform="translate(167.882 16.961)" fill="#2b2b2b"/>
      <path id="Path_15588" data-name="Path 15588" d="M58.253,0c-1.615.215-3.222.393-4.83.487L51,.6a5.786,5.786,0,0,0-2.619.607,5.175,5.175,0,0,0-1.966,1.946c-.444.762-.793,1.459-1.159,2.239-.738,1.521-1.059,3.208-1.883,4.238-.111.125-.22.254-.345.372a1.061,1.061,0,0,1-.314.246,1.2,1.2,0,0,1-.8.121,4.915,4.915,0,0,1-1.931-.96,7,7,0,0,1-1.627-1.616,8.533,8.533,0,0,1-.569-1.035,2.71,2.71,0,0,0-.825-1.068,1.745,1.745,0,0,0-.3-.179.647.647,0,0,0-.216-.075.781.781,0,0,0-.241,0,2.4,2.4,0,0,0-.645.251l-1.077.582a17.3,17.3,0,0,1-2.2.98c-.737.279-1.548.475-2.325.811a17.4,17.4,0,0,0-2.2,1.164,8.053,8.053,0,0,1-1.051.51c-.385.171-.762.362-1.133.562a15.668,15.668,0,0,0-2.111,1.391,25.352,25.352,0,0,0-3.6,3.466c-.27.3-.539.61-.8.876a2.671,2.671,0,0,1-.338.312c-.009.024-.094.008.188-.045a.7.7,0,0,1,.545.223.639.639,0,0,1,.164.313c.009.083.005.016.018-.038l.052-.223.164-.539.38-1.167a10.663,10.663,0,0,0,.533-2.587,4.8,4.8,0,0,0-.131-1.5,2.961,2.961,0,0,0-.883-1.475,4.215,4.215,0,0,0-2.9-.916,6.618,6.618,0,0,0-1.388.165l-1.178.271c-1.571.353-3.153.664-4.747.988-1.59.309-3.2.705-4.765,1.06s-3.167.605-4.783.8l0,.174a30.128,30.128,0,0,0,4.918-.1l4.844-.578c1.615-.19,3.239-.407,4.855-.687l1.211-.215a4.86,4.86,0,0,1,1.031-.091,2.474,2.474,0,0,1,1.648.5,1.85,1.85,0,0,1,.416,1.506,11.357,11.357,0,0,1-.422,2.181l-.333,1.164L18,16.148c-.026.116-.051.235-.072.373a1.937,1.937,0,0,0-.008.568,1.116,1.116,0,0,0,.276.59,1.028,1.028,0,0,0,.82.321,1.311,1.311,0,0,0,.73-.3,4.2,4.2,0,0,0,.544-.527c.3-.329.55-.645.81-.958a30.107,30.107,0,0,1,3.234-3.465A21.519,21.519,0,0,1,26.189,11.3c.325-.218.656-.428,1-.621a9.151,9.151,0,0,0,1.083-.663,16.542,16.542,0,0,1,2.006-1.288A22.22,22.22,0,0,1,32.5,7.794a24.546,24.546,0,0,0,2.228-1.061c.359-.2.718-.4,1.071-.57a2.034,2.034,0,0,1,.486-.187c.02.005.058-.008.062,0a.147.147,0,0,1,.067.03,1.315,1.315,0,0,1,.218.134c.53.394.67,1.279,1.115,2.019a7.841,7.841,0,0,0,1.619,1.99,5.858,5.858,0,0,0,2.284,1.4,2.519,2.519,0,0,0,1.588-.077,2.414,2.414,0,0,0,.7-.416,4.093,4.093,0,0,0,.523-.482,7.142,7.142,0,0,0,1.328-2.333c.3-.775.568-1.512.872-2.232.306-.7.668-1.464,1.027-2.115a3.81,3.81,0,0,1,1.367-1.527c1.093-.7,2.892-.619,4.481-.968A32.226,32.226,0,0,0,58.294.169Z" transform="translate(132.93 127.802)" fill="#2b2b2b"/>
      <path id="Path_15589" data-name="Path 15589" d="M73.937,0c-1.394.754-2.775,1.523-4.177,2.252s-2.8,1.455-4.22,2.146l-.043.026-6.275,2.9c-2.133.941-4.205,2-6.344,2.8-2.131.86-4.336,1.546-6.539,2.408a13.484,13.484,0,0,0-5.977,4.053,137.309,137.309,0,0,1-8.993,10.654c-1.6,1.683-3.167,3.419-4.882,4.967s-3.525,2.995-5.375,4.4l-5.548,4.23c-.928.69-1.85,1.388-2.789,2.008a14.972,14.972,0,0,1-2.958,1.508A21.519,21.519,0,0,1,3.342,45.9a4.8,4.8,0,0,1-1.424-.1.818.818,0,0,1-.168-.065.219.219,0,0,1,.08.118c.041.1.017.163.026.126a1.044,1.044,0,0,1,.083-.2,8.566,8.566,0,0,1,.9-1.255L3.94,43.2a56.5,56.5,0,0,0,4.24-5.638c1.317-1.863,2.744-3.7,4.207-5.505l2.176-2.721c.7-.86,1.528-1.739,2.276-2.625.768-.882,1.5-1.8,2.235-2.7l2.2-2.721-.128-.117c-1.677,1.62-3.332,3.275-4.966,4.922-.82.835-1.656,1.593-2.5,2.474l-2.347,2.6c-1.569,1.736-3.073,3.518-4.5,5.416A65.1,65.1,0,0,1,2.545,42.02L1.4,43.36A9.937,9.937,0,0,0,.284,44.95a2.708,2.708,0,0,0-.235.617,1.558,1.558,0,0,0,.71,1.742,2.582,2.582,0,0,0,.634.275,6.4,6.4,0,0,0,2.043.164,22.791,22.791,0,0,0,7.024-1.827c.557-.239,1.093-.486,1.644-.771a15.25,15.25,0,0,0,1.569-.965c.99-.687,1.912-1.414,2.819-2.156,1.806-1.491,3.6-2.962,5.369-4.492s3.524-3.088,5.172-4.759,3.14-3.464,4.734-5.168c3.117-3.473,6.294-6.865,9.4-10.383a9.61,9.61,0,0,1,2.575-2.019,21.348,21.348,0,0,1,3.1-1.311c2.166-.746,4.423-1.425,6.6-2.335,2.215-.873,4.286-1.957,6.372-2.986,1.042-.525,2.086-1.042,3.119-1.588l1.549-.818.773-.414.819-.454-.043.026c1.373-.8,2.737-1.616,4.064-2.49S72.752,1.088,74.029.147Z" transform="translate(171.881 107.298)" fill="#2b2b2b"/>
      <path id="Path_15590" data-name="Path 15590" d="M10.561,31.065a40.819,40.819,0,0,1-5.74-.085,13.636,13.636,0,0,1-2.8-.519,3.95,3.95,0,0,1-1.231-.607A.941.941,0,0,1,.4,28.777a3,3,0,0,1,.866-1.02c.358-.308.737-.6,1.113-.9A22.022,22.022,0,0,0,4.55,24.92,14.067,14.067,0,0,0,7.653,20a16.91,16.91,0,0,0,.838-5.764A23.47,23.47,0,0,1,8.638,11.4,7.1,7.1,0,0,1,9.5,8.808c1.787-3.491,6.425-3.439,9.92-3.562,1.837.142,3.69.82,5.7.911a13.233,13.233,0,0,0,2.972-.17,8.332,8.332,0,0,0,1.483-.337c.506-.175.919-.384,1.351-.538a26.832,26.832,0,0,1,2.716-.775c.928-.232,1.853-.456,2.777-.623A17.123,17.123,0,0,1,42,3.609a42.867,42.867,0,0,0,5.816.386,12.379,12.379,0,0,0,3-.315c1.011-.263,1.881-.658,2.769-.942,3.571-1.113,7.39-1.843,11-1.06a12.156,12.156,0,0,1,2.592.823c.826.36,1.556.879,2.464,1.388a7.71,7.71,0,0,0,3.017.915,7.313,7.313,0,0,0,3.162-.3,10.825,10.825,0,0,1,2.614-.737,11.594,11.594,0,0,1,2.682.049,22.914,22.914,0,0,1,5.355,1.42c.884.324,1.667.731,2.634,1.133a13.176,13.176,0,0,0,2.966.821,13.174,13.174,0,0,0,3.062.1q1.417-.087,2.829-.106a21.97,21.97,0,0,1,5.511.491,33.873,33.873,0,0,1,5.365,1.621,8.053,8.053,0,0,1,4.063,3.141,8.017,8.017,0,0,1,.752,5.105,21.049,21.049,0,0,1-3.8,10.351,10.879,10.879,0,0,1-4.132,3.521,9.463,9.463,0,0,1-2.627.766,25.938,25.938,0,0,1-2.824.2c-1.928.077-3.846.2-5.776.417a22.336,22.336,0,0,0-5.552,1.653l.056.164a23.921,23.921,0,0,1,5.551-1.318c1.9-.12,3.822-.143,5.734-.123a13.908,13.908,0,0,0,5.84-.834,11.973,11.973,0,0,0,4.687-3.7,21.682,21.682,0,0,0,4.329-10.915,13.44,13.44,0,0,0,.1-3.047,7.6,7.6,0,0,0-.937-3.048A9.7,9.7,0,0,0,109.52,7.7a35.442,35.442,0,0,0-5.643-1.747,23.743,23.743,0,0,0-5.933-.572c-.982,0-1.957.056-2.93.122a11.413,11.413,0,0,1-2.684-.061,11.388,11.388,0,0,1-2.581-.692c-.81-.325-1.743-.79-2.667-1.12A24.541,24.541,0,0,0,81.3,2.189a13.083,13.083,0,0,0-3.068-.006,12.225,12.225,0,0,0-2.909.846A5.739,5.739,0,0,1,72.8,3.3a6.185,6.185,0,0,1-2.467-.707c-.775-.415-1.632-1-2.578-1.4a13.547,13.547,0,0,0-2.9-.879A18.338,18.338,0,0,0,58.9.179,32.523,32.523,0,0,0,53.18,1.544c-.937.314-1.824.72-2.673.947a11.211,11.211,0,0,1-2.714.31,41.848,41.848,0,0,1-5.678-.315,22.317,22.317,0,0,0-2.944-.152,17.711,17.711,0,0,0-2.947.334c-.965.187-1.906.426-2.838.67a27.537,27.537,0,0,0-2.813.839c-.471.176-.917.4-1.319.545a7.418,7.418,0,0,1-1.32.313,12.284,12.284,0,0,1-2.766.19c-1.846-.052-3.677-.7-5.679-.845a12.178,12.178,0,0,0-2.97.169c-.509.092-.909.168-1.4.219s-.971.125-1.458.233a7.281,7.281,0,0,0-2.77,1.2,6.03,6.03,0,0,0-1.1,1.043c-.158.195-.33.379-.477.582L8.9,8.46a7.784,7.784,0,0,0-.91,2.851,24.063,24.063,0,0,0-.108,2.916,16.38,16.38,0,0,1-.722,5.595,13.584,13.584,0,0,1-2.926,4.8,21.79,21.79,0,0,1-2.1,1.93c-.369.3-.745.605-1.111.928a3.284,3.284,0,0,0-.948,1.18,1.28,1.28,0,0,0,.512,1.448,4.244,4.244,0,0,0,1.345.644A13.894,13.894,0,0,0,4.8,31.24a41.037,41.037,0,0,0,5.774,0Z" transform="translate(216.839 0)" fill="#2b2b2b"/>
      <path id="Path_15591" data-name="Path 15591" d="M31.1,0a15.634,15.634,0,0,0-3.579,6.291c-.313,1.175-.605,2.322-1.014,3.439A32.609,32.609,0,0,1,25.1,13.007c-.521,1.069-1.093,2.114-1.706,3.134s-1.283,2-1.927,3.036-1.321,2.028-1.93,3.082c-.623,1.073-1.144,2.12-1.8,3.074s-1.427,1.842-2.2,2.77-1.545,1.844-2.313,2.8L11,33.746,8.838,36.627c-1.424,1.939-2.785,3.921-4.251,5.8q-1.093,1.421-2.259,2.791C1.575,46.153.777,47.051,0,47.978l.12.126A57.4,57.4,0,0,0,10.21,37.693l2.226-2.85,2.158-2.9c.7-.954,1.43-1.917,2.156-2.869s1.489-1.913,2.154-2.985c.672-1.057,1.186-2.189,1.736-3.218.558-1.051,1.2-2.067,1.792-3.1s1.243-2.059,1.831-3.128,1.134-2.155,1.628-3.267A33.543,33.543,0,0,0,27.17,9.95c.363-1.165.609-2.367.86-3.531A15.265,15.265,0,0,1,31.235.113Z" transform="translate(272.879 36.818)" fill="#2b2b2b"/>
      <path id="Path_15592" data-name="Path 15592" d="M0,92.588A210.147,210.147,0,0,0,29.546,76.626c4.7-3.049,9.26-6.3,13.836-9.521l13.674-9.727a72.864,72.864,0,0,0,6.664-5.243,25.778,25.778,0,0,0,5.388-6.723,21.15,21.15,0,0,0,2.43-8.3,25.676,25.676,0,0,0-.86-8.539,55.171,55.171,0,0,0-2.869-7.986,44.7,44.7,0,0,0-4.24-7.33,67.568,67.568,0,0,0-5.4-6.471c-.946-1.031-1.914-2.04-2.8-3.11a9.65,9.65,0,0,1-1.191-1.7,3.165,3.165,0,0,1-.334-.972A1.858,1.858,0,0,1,54.022,0a1.886,1.886,0,0,0-.239,1.015,3.236,3.236,0,0,0,.281,1.022,9.907,9.907,0,0,0,1.1,1.8c.843,1.127,1.768,2.18,2.662,3.253a67.021,67.021,0,0,1,5.04,6.649,44.56,44.56,0,0,1,3.937,7.289A54.091,54.091,0,0,1,69.382,28.9a26.675,26.675,0,0,1,.661,8.095,19.593,19.593,0,0,1-2.322,7.666A24.147,24.147,0,0,1,62.6,50.908a72.736,72.736,0,0,1-6.561,5.063C47,62.55,37.96,69.139,28.8,75.523c-4.579,3.2-9.261,6.2-14.132,8.941C9.858,87.3,4.928,89.937,0,92.588Z" transform="translate(113.29 18.992)" fill="#2b2b2b"/>
      <path id="Path_15593" data-name="Path 15593" d="M0,7.315c3.529,2.227,6.985,4.462,10.594,6.564A27.015,27.015,0,0,0,22.5,17.91a22.773,22.773,0,0,0,6.289-.426,20.173,20.173,0,0,0,6.031-2.062,24.451,24.451,0,0,0,2.644-1.783c.829-.615,1.654-1.228,2.5-1.816,1.679-1.186,3.414-2.27,5.165-3.328l.805-.487-.5-.809A29.707,29.707,0,0,1,43.11,3.53a1.772,1.772,0,0,1-.149-.708.726.726,0,0,1,.248-.485,4.326,4.326,0,0,1,1.69-.808,7.986,7.986,0,0,1,4.177.024A21.213,21.213,0,0,1,53.232,3.2l.093-.147A15.689,15.689,0,0,0,49.358.678,8.537,8.537,0,0,0,44.575.141a5.316,5.316,0,0,0-2.432,1,2.392,2.392,0,0,0-.84,1.451,3.279,3.279,0,0,0,.166,1.522,10.941,10.941,0,0,0,1.153,2.2L43.863,8.2l.306-1.3a52.756,52.756,0,0,0-5.2,3.574c-.832.639-1.655,1.29-2.455,1.96s-1.564,1.318-2.386,1.887a17.708,17.708,0,0,1-5.491,2.524,15.131,15.131,0,0,1-6.075.459c-4.1-.591-7.57-2.883-11.221-4.76A80.152,80.152,0,0,0,.076,7.159Z" transform="translate(59.364 108.513)" fill="#2b2b2b"/>
      <path id="Path_15594" data-name="Path 15594" d="M56.259,21.31a25.152,25.152,0,0,0-2.088-1.6,14.157,14.157,0,0,0-2.241-1.41c-1.529-.861-3.133-1.6-4.707-2.345l-4.7-2.309c-1.569-.783-3.233-1.457-4.847-2.085-.808-.322-1.6-.653-2.377-1.018-.386-.182-.767-.373-1.14-.575-.391-.211-.791-.417-1.191-.61-1.608-.773-3.245-1.391-4.823-2.1-3.255-1.425-6.565-2.5-9.823-3.78-1.658-.612-3.343-1.164-5.057-1.619S9.77,1.1,8.087.792A37.61,37.61,0,0,0,2.8.022C2.349,0,1.892,0,1.434.006l-.35,0A1.131,1.131,0,0,0,.3.367,1.2,1.2,0,0,0,.094.7,1.173,1.173,0,0,0,0,1.125a1.18,1.18,0,0,0,.256.742,2.478,2.478,0,0,0,.7.578l.257.155.294.187c.4.245.793.459,1.18.665A15.035,15.035,0,0,1,4.854,4.763a14.22,14.22,0,0,1,1.941,1.6A9.773,9.773,0,0,1,8.241,8.375,17.669,17.669,0,0,1,9.46,10.6a4.305,4.305,0,0,1,.222,2.346c-.057.413-.145.835-.226,1.271l-.11.663a5.027,5.027,0,0,1-.121.6,18.729,18.729,0,0,0-.708,2.567,8.958,8.958,0,0,0,.054,2.723l.04.218.214.041a4.945,4.945,0,0,0,2.472-.42,7.693,7.693,0,0,0,2.229-.987A7.283,7.283,0,0,1,17.8,18.163a3.536,3.536,0,0,1,1.1.077,10.59,10.59,0,0,1,1.021.5c.346.183.685.371,1.011.577a2.973,2.973,0,0,1,.842.692,5.411,5.411,0,0,0,.4.476,5.788,5.788,0,0,0,.471.4c.282.232.572.52.851.789l1.691,1.668c.553.528,1.05,1.146,1.642,1.712.622.511,1.04,1.1,1.668,1.7.622.549,1.269,1,1.885,1.483s1.2,1.007,1.8,1.517c1.2,1.029,2.376,2.071,3.508,3.158.569.531,1.093,1.125,1.747,1.66a20.085,20.085,0,0,0,1.985,1.411l2,1.263a23.763,23.763,0,0,0,2.119,1.186,15.152,15.152,0,0,1,1.951,1.187c.638.448,1.268.916,1.9,1.388s1.275.946,1.934,1.406,1.375.9,2.025,1.3a7.6,7.6,0,0,1,.892.643,10.574,10.574,0,0,0,1.011.739,18.81,18.81,0,0,1,1.8,1.383c.582.5,1.148,1.031,1.713,1.575l.838.814c.248.252.5.538.743.831,1,1.186,1.884,2.466,3,3.722a33.207,33.207,0,0,1,3.067,3.465,11.753,11.753,0,0,1,1.107,1.91c.063.143.164.385.283.6a5.881,5.881,0,0,0,.374.589c.26.362.521.669.742.96a18.338,18.338,0,0,1,1.219,1.9,16.724,16.724,0,0,1,1.04,2.007,15.448,15.448,0,0,1,1.174,4.3,17.887,17.887,0,0,1,.125,2.26l.048,2.392c.044,1.582.093,3.144.03,4.681-.048,1.522-.3,3.057-.427,4.694-.115,1.678-.031,3.225-.052,4.809l.005.589c0,.153-.01.34-.021.537a6.423,6.423,0,0,0,.018,1.371,2.1,2.1,0,0,0,.356.906,1.93,1.93,0,0,0,.8.639,2.813,2.813,0,0,0,1.655.142,2.524,2.524,0,0,0,.806-.3,3.66,3.66,0,0,0,.608-.455,7.748,7.748,0,0,0,.885-.983,9.553,9.553,0,0,0,1.281-2.221c1.166-2.986,2.359-5.854,3.66-8.741.668-1.419,1.26-2.934,1.938-4.294a41.268,41.268,0,0,1,2.508-3.951,35.127,35.127,0,0,0,3.8-8.784c.248-.75.5-1.493.771-2.238.277-.762.447-1.539.7-2.274a10.079,10.079,0,0,1,2.516-3.9l-.123-.124A10.376,10.376,0,0,0,89.484,57.8c-.293.752-.5,1.516-.794,2.229l-.893,2.2a37.487,37.487,0,0,1-4.059,8.426,41.655,41.655,0,0,0-2.71,3.966c-.777,1.449-1.4,2.857-2.1,4.289-1.36,2.852-2.659,5.8-3.854,8.681a7.955,7.955,0,0,1-1.12,1.854c-.458.571-.992,1.1-1.361,1.115a1.2,1.2,0,0,1-.674-.052c-.134-.094-.115-.042-.168-.284a5.164,5.164,0,0,1,.023-1c.015-.2.033-.406.038-.648l.006-.6c.027-1.576-.043-3.2.07-4.675.118-1.516.39-3.108.452-4.751.074-1.623.03-3.226-.007-4.8L72.3,71.408a19.734,19.734,0,0,0-.128-2.474,17.213,17.213,0,0,0-1.295-4.822,18.594,18.594,0,0,0-1.164-2.19,20.009,20.009,0,0,0-1.37-2.071c-.261-.335-.517-.63-.72-.908a4.1,4.1,0,0,1-.267-.408c-.076-.133-.129-.256-.229-.473a13.505,13.505,0,0,0-1.291-2.175,34.14,34.14,0,0,0-3.251-3.6c-1-1.1-1.939-2.407-2.988-3.633-.265-.311-.538-.619-.848-.927l-.873-.829c-.581-.545-1.174-1.091-1.8-1.614a18.533,18.533,0,0,0-1.986-1.467,9.141,9.141,0,0,1-.918-.641,9.222,9.222,0,0,0-1.047-.718c-.7-.415-1.348-.781-1.991-1.22s-1.288-.885-1.932-1.341-1.294-.919-1.961-1.365a14.986,14.986,0,0,0-2.132-1.22,23,23,0,0,1-2.054-1.063L40,35.043a18.854,18.854,0,0,1-1.923-1.272c-.589-.445-1.139-1.022-1.742-1.552-1.18-1.071-2.4-2.09-3.633-3.088-.62-.495-1.215-1-1.871-1.488s-1.305-.913-1.883-1.4c-.539-.471-1.073-1.162-1.682-1.653-.558-.521-1.063-1.135-1.66-1.695l-1.7-1.647c-.294-.275-.567-.544-.9-.813a3.433,3.433,0,0,1-.8-.793,3.564,3.564,0,0,0-.984-.8c-.346-.213-.7-.4-1.055-.587a9.829,9.829,0,0,0-1.118-.524,4.436,4.436,0,0,0-1.254-.1,7.844,7.844,0,0,0-4.583,1.481,7.038,7.038,0,0,1-2.1.895,4.487,4.487,0,0,1-2.148.375l.254.258a8.28,8.28,0,0,1-.012-2.5,18.788,18.788,0,0,1,.777-2.453,5.83,5.83,0,0,0,.162-.683l.127-.625c.093-.42.2-.851.277-1.3a5.253,5.253,0,0,0-.181-2.815A18.235,18.235,0,0,0,9.161,7.856a10.817,10.817,0,0,0-1.532-2.28,15.309,15.309,0,0,0-2.042-1.8A16.426,16.426,0,0,0,3.324,2.3c-.377-.216-.743-.429-1.083-.656l-.55-.368a1.229,1.229,0,0,1-.31-.249.227.227,0,0,1,.035.14.258.258,0,0,1-.02.109c0,.012,0,.015-.036.056a.38.38,0,0,1-.192.111l.3,0c.417,0,.834,0,1.252.028a36.562,36.562,0,0,1,5.072.8A61.68,61.68,0,0,1,17.813,4.889c3.267,1.227,6.624,2.28,9.793,3.62,1.622.695,3.26,1.306,4.821,2.011.392.176.776.357,1.159.548.4.2.81.39,1.219.567.82.355,1.648.668,2.474.968,1.661.587,3.26,1.174,4.845,1.9,1.588.7,3.166,1.478,4.794,2.137s3.229,1.315,4.789,2.093a14.657,14.657,0,0,1,2.261,1.26,25.221,25.221,0,0,1,2.175,1.447Z" transform="translate(0 92.526)" fill="#2b2b2b"/>
      <path id="Path_15595" data-name="Path 15595" d="M37.031.3,37.165.29l-.1-.167c-.844.872-1.342,1.936-2.085,2.765a20.019,20.019,0,0,1-2.247,2.473c-.816.7-1.765,1.334-2.71,2a17.09,17.09,0,0,0-2.712,2.283,8.874,8.874,0,0,1-1.183,1.067c-.426.3-.947.538-1.495.933-.5.412-.684.5-.8.243a2.472,2.472,0,0,1-.05-.743,3.133,3.133,0,0,1,.165-.784c.179-.525.413-1.046.656-1.584.225-.525.472-1.039.743-1.552s.533-1.038.773-1.588a15.031,15.031,0,0,0,.617-1.693,1.738,1.738,0,0,0-.026-1.191,1.534,1.534,0,0,0-1.1-.766,5.445,5.445,0,0,0-1.964.047c-1.209.206-2.338.625-3.381.838a6.147,6.147,0,0,1-.753.161c-.236.025-.536.029-.9.083-.408.07-.632.144-.94.222l-.839.231a14,14,0,0,1-1.558.356c-.458.069-1.1.075-1.668.141l-1.7.178c-.286.024-.51.034-.82.042s-.606.036-.906.062a27.384,27.384,0,0,0-3.5.578A47.074,47.074,0,0,0,0,6.993l.043.168c2.306-.293,4.591-.635,6.86-.884,1.134-.12,2.266-.222,3.375-.247l.825,0c.268.005.621.005.913-.009l1.75-.109c.576-.049,1.1-.061,1.784-.155a10.454,10.454,0,0,0,1.807-.452l.82-.272c.248-.079.575-.185.735-.218.207-.046.486-.066.822-.116a7.047,7.047,0,0,0,.931-.24c1.207-.318,2.231-.769,3.283-1.057a5.167,5.167,0,0,1,1.47-.236.753.753,0,0,1,.335.083c.05.017.077.259.041.507a14.039,14.039,0,0,1-.386,1.622,12.322,12.322,0,0,1-.6,1.592c-.224.53-.479,1.058-.695,1.6-.208.525-.493,1.039-.7,1.605a3.7,3.7,0,0,0-.267,1.877.937.937,0,0,0,.345.59,1.037,1.037,0,0,0,.674.2,2.429,2.429,0,0,0,.987-.4c.427-.228,1-.4,1.574-.673a8.331,8.331,0,0,0,1.545-1.059c.88-.772,1.712-1.4,2.649-2.1A22.868,22.868,0,0,0,33.667,6.34a14.308,14.308,0,0,0,2.088-2.917C36.413,2.4,36.7,1.242,37.23.25L37.364,0l-.24.083L37,.128Z" transform="translate(93.924 138.072)" fill="#2b2b2b"/>
      <path id="Path_15596" data-name="Path 15596" d="M27.114.135c.056.1.1.222.156.341a1.233,1.233,0,0,0,.108.19l.131.145.531.57c.356.373.709.738,1.033,1.12a15.29,15.29,0,0,1,1.7,2.463c.489.866.9,1.8,1.388,2.73s.975,1.83,1.493,2.722c1.02,1.793,2.1,3.536,3.082,5.311l.721,1.323a8.514,8.514,0,0,1,.506,1.319c.333,1.018.766,1.949,1.012,2.852.552,2.27,2.236,3.729,2.759,5.552.636,1.974,1.347,3.9,1.886,5.87.138.487.238.988.383,1.494a4.739,4.739,0,0,1,.248,1.445l.011,3.084-.014,3.077a1.335,1.335,0,0,1-.544,1.078,4.663,4.663,0,0,1-1.084.832c-.7.267-1.6-.2-2.461-.691a5.992,5.992,0,0,1-1.067-.9,11.857,11.857,0,0,0-1.2-1.039c-.385-.314-.76-.645-1.129-.985l-.55-.52c-.212-.2-.423-.375-.633-.544-.844-.663-1.694-1.252-2.556-1.823s-1.722-1.132-2.542-1.7l-.6-.439-.656-.465c-.428-.293-.837-.569-1.187-.858l-.565-.5c-.213-.182-.429-.352-.643-.514l-1.244-.915c-.2-.147-.384-.3-.565-.446a8.145,8.145,0,0,0-.68-.518c-.475-.32-.921-.564-1.279-.822-.09-.064-.176-.129-.256-.195a4.568,4.568,0,0,0-.393-.291,5.821,5.821,0,0,0-.814-.423,4.821,4.821,0,0,1-1.119-.576,17.268,17.268,0,0,0-2.7-1.8l-1.363-.745a10.424,10.424,0,0,0-1.483-.711c-1.032-.4-2.034-.631-2.935-.968-.425-.157-.909-.394-1.42-.578s-1.027-.356-1.528-.493c-.919-.274-1.944-.637-2.926-.91-.969-.3-2.05-.543-2.9-.851a4.436,4.436,0,0,0-.835-.215,3.716,3.716,0,0,0-.823-.023,10.671,10.671,0,0,1-1.5-.148L0,21.206a6.988,6.988,0,0,0,1.477.612,5.133,5.133,0,0,1,.7.2,3.576,3.576,0,0,1,.615.3c1.051.476,1.97.738,2.937,1.122l2.9,1.1A14.717,14.717,0,0,1,10,25.071c.446.191.875.429,1.405.65,1.009.42,2,.7,2.877,1.077a10.433,10.433,0,0,1,1.27.667l1.324.762a15.559,15.559,0,0,1,2.383,1.659,5.608,5.608,0,0,0,1.581.88,4.06,4.06,0,0,1,.555.281,2.626,2.626,0,0,1,.226.168c.118.1.238.186.357.27.479.337.939.585,1.315.84a5.972,5.972,0,0,1,.544.415c.216.176.438.338.656.494l1.263.877c.2.142.389.286.572.433l.268.226c.111.1.224.191.338.279.452.352.906.637,1.332.913l.612.409.654.451c.881.58,1.754,1.113,2.62,1.659s1.733,1.08,2.53,1.654c.2.144.385.289.557.434l.594.511c.4.338.814.669,1.24.984a14.545,14.545,0,0,1,1.187.9,6.928,6.928,0,0,0,1.362.98,9.4,9.4,0,0,0,1.524.617,2.745,2.745,0,0,0,1.844-.082,5.228,5.228,0,0,0,1.3-1.1,3.094,3.094,0,0,0,.517-.724,2.033,2.033,0,0,0,.158-.917c-.073-1.038-.087-2.055-.123-3.084l-.066-3.077A6.092,6.092,0,0,0,44.513,34c-.132-.483-.226-.992-.359-1.5-.507-2-1.078-3.985-1.533-5.971-.5-2.2-2.059-3.792-2.289-5.63-.227-1.1-.633-2.057-.906-3a9.933,9.933,0,0,0-.589-1.557c-.249-.481-.494-.926-.758-1.379-1.044-1.8-2.156-3.531-3.261-5.254L33.2,7.113c-.527-.856-1-1.78-1.594-2.662A13.843,13.843,0,0,0,29.6,2c-.38-.365-.778-.7-1.167-1.034l-.575-.5a2.349,2.349,0,0,0-.283-.231A2.454,2.454,0,0,0,27.223,0Z" transform="translate(246.857 86.004)" fill="#2b2b2b"/>
      <path id="Path_15597" data-name="Path 15597" d="M12.188.344A3.913,3.913,0,0,0,10.63.016,12.592,12.592,0,0,0,9.073.04c-.514.051-1.029.1-1.539.2A7.886,7.886,0,0,0,5.968.651,5.585,5.585,0,0,0,3.3,2.567a6.8,6.8,0,0,0-.753,1.471q-.292.74-.513,1.488a24.831,24.831,0,0,0-.757,6.113,18.849,18.849,0,0,1-.842,5.611l.837-.6a.917.917,0,0,0-.551.2.945.945,0,0,0-.292.416l0,.013-.007.025L.4,17.354l-.027.095-.05.187-.092.372c-.051.25-.094.5-.13.755a8.058,8.058,0,0,0-.094,1.552,4.418,4.418,0,0,0,.326,1.622,2.195,2.195,0,0,0,.517.749c.1.093.2.175.308.254l.161.11L1.4,23.1l.042.026.022.013.01.007.006,0,0,0a.345.345,0,0,0,.063.041.354.354,0,0,0,.149.038l-.211-.078a3.764,3.764,0,0,0,1.294.486l.066-.161a4.717,4.717,0,0,1-.929-.843l-.211-.077a.313.313,0,0,1,.145.034.257.257,0,0,1,.062.039l0,0,0,0L1.9,22.622l-.012-.016-.026-.033-.051-.068-.1-.136a3.232,3.232,0,0,1-.182-.269,1.54,1.54,0,0,1-.16-.5,4.222,4.222,0,0,1,.039-1.215A12.3,12.3,0,0,1,1.706,19.1c.062-.214.129-.428.2-.639l.1-.317.055-.156.027-.076.014-.036.007-.017,0-.008a.915.915,0,0,1-.288.406.882.882,0,0,1-.547.188l.837-.6a12.5,12.5,0,0,0,.622-6.282c-.129-1.023-.384-1.994-.5-2.973a5.95,5.95,0,0,1,.313-2.882,5.557,5.557,0,0,1,.712-1.264,5.222,5.222,0,0,1,.95-1.009A14.149,14.149,0,0,1,6.545,2.046c.422-.184.853-.366,1.3-.515.467-.141.938-.3,1.414-.422a12.223,12.223,0,0,1,2.87-.6Z" transform="translate(213.689 5.505)" fill="#2b2b2b"/>
      <path id="Path_15598" data-name="Path 15598" d="M.29,0A11.5,11.5,0,0,0,.165,4.536,15.489,15.489,0,0,0,1.517,8.915a12.933,12.933,0,0,0,2.691,3.758,8.094,8.094,0,0,0,4,2.208A18.525,18.525,0,0,1,3.081,8.157a34.53,34.53,0,0,1-1.6-3.937C1.023,2.86.638,1.474.29,0Z" transform="translate(229.009 75.346)" fill="#2b2b2b"/>
      <path id="Path_15599" data-name="Path 15599" d="M.357,0a11.94,11.94,0,0,0-.109,5.34,20.07,20.07,0,0,0,1.687,5.1,22.7,22.7,0,0,0,2.884,4.506A15.966,15.966,0,0,0,8.772,18.51,62.172,62.172,0,0,1,3.5,9.686,32.308,32.308,0,0,1,.357,0Z" transform="translate(224.752 79.899)" fill="#2b2b2b"/>
      <path id="Path_15600" data-name="Path 15600" d="M.382,0A11.325,11.325,0,0,0,.331,5.641a18.884,18.884,0,0,0,2.13,5.271A29.4,29.4,0,0,0,5.77,15.444a33.726,33.726,0,0,0,4,3.878c-.894-1.648-1.922-3.179-2.924-4.7s-2-3.028-2.886-4.581A31.363,31.363,0,0,1,1.626,5.258,21.011,21.011,0,0,1,.382,0Z" transform="translate(220.021 85.977)" fill="#2b2b2b"/>
      <path id="Path_15601" data-name="Path 15601" d="M0,0C.42,1.83.84,3.611,1.355,5.4A35.618,35.618,0,0,0,3.27,10.67a17.538,17.538,0,0,0,3.187,4.754,10.267,10.267,0,0,0,4.865,2.916,17.274,17.274,0,0,1-3.834-3.8A27.331,27.331,0,0,1,4.839,9.928C4.057,8.311,3.383,6.616,2.624,4.934A29.18,29.18,0,0,0,0,0Z" transform="translate(216.27 93.571)" fill="#2b2b2b"/>
      <path id="Path_15602" data-name="Path 15602" d="M.046,0A20.346,20.346,0,0,0,.241,4.475,16.677,16.677,0,0,0,1.482,8.848,10.39,10.39,0,0,0,4.241,12.6a7.589,7.589,0,0,0,4.2,1.793,14.079,14.079,0,0,1-3.247-2.759,14.921,14.921,0,0,1-2.13-3.505c-.571-1.266-1.048-2.6-1.509-3.973S.651,1.385.046,0Z" transform="translate(214.294 101.418)" fill="#2b2b2b"/>
      <path id="Path_15603" data-name="Path 15603" d="M2.519,0A2.518,2.518,0,1,0,5.037,2.518,2.518,2.518,0,0,0,2.519,0Z" transform="translate(217.531 13.078)" fill="#2b2b2b"/>
      <path id="Path_15604" data-name="Path 15604" d="M30.164,7.631a6.492,6.492,0,0,0-2.528-3.661,18.946,18.946,0,0,0-3.819-2.415,21.036,21.036,0,0,0-8.9-1.549A23.811,23.811,0,0,0,6,1.73,14.054,14.054,0,0,0,2.075,4.195,6.258,6.258,0,0,0,0,8.279l.153.035C1.232,5.478,3.936,4.18,6.579,3.185a32.768,32.768,0,0,1,8.4-1.932,20.069,20.069,0,0,1,8.545,1.024,18.365,18.365,0,0,1,3.832,2.065,6.193,6.193,0,0,1,2.66,3.325Z" transform="translate(263.882 23.372)" fill="#2b2b2b"/>
    </g>
  </g>
</svg>
