<svg xmlns="http://www.w3.org/2000/svg" xmlns:xlink="http://www.w3.org/1999/xlink" width="286" height="206" viewBox="0 0 286 206">
  <defs>
    <clipPath id="clip-path">
      <rect id="Rectangle_3396" data-name="Rectangle 3396" width="286" height="206" transform="translate(3726 11707)" fill="none" stroke="#707070" stroke-width="1"/>
    </clipPath>
  </defs>
  <g id="Mask_Group_17" data-name="Mask Group 17" transform="translate(-3726 -11707)" clip-path="url(#clip-path)">
    <g id="Group_303" data-name="Group 303" transform="translate(7067.518 11240.729) rotate(11)">
      <g id="Group_295" data-name="Group 295" transform="translate(-3096.255 1130.004)">
        <g id="Group_292" data-name="Group 292" transform="translate(19.013 67.469)">
          <g id="Group_291" data-name="Group 291">
            <path id="Path_10304" data-name="Path 10304" d="M-3074.717,1200.047l-.232-.133a.227.227,0,0,0,.014.077A.16.16,0,0,0-3074.717,1200.047Z" transform="translate(3074.949 -1199.914)" fill="#3f5146"/>
          </g>
        </g>
        <g id="Group_294" data-name="Group 294" transform="translate(0 0)">
          <g id="Group_293" data-name="Group 293">
            <path id="Path_10305" data-name="Path 10305" d="M-3062.834,1137.923c-2.411-.617-3.613-.009-6.742-1.222-2.192-.849-6.628-4.815-10.723-5.734-1,1.051-2.432,3.984-3.833,5.995-1.326,1.9-3.475,7.16-4.619,13.795-.808,4.676.428,6.507.3,10.845a42.65,42.65,0,0,1-5.928,20.042c.163.616.351,1.208.561,1.774,3.078,8.343,11.147,12.769,16.274,14.907a45.469,45.469,0,0,0,11.332,11.985,49.251,49.251,0,0,0,17.214,7.742,64.089,64.089,0,0,0,21.018,2.353c4.865-.237,9.734-.421,14.6-.611a87,87,0,0,0,13.619-1.427c5.508-1.1,10.723-3.758,16.146-5.271,3.879-1.081,7.614-2.628,11.422-4.024,4.111-1.508,8.248-2.946,12.3-4.676,2.89-1.231,5.737-2.885,8.693-3.853,1.455-.477,2.869-.932,4.321-1.476,1.209-.452,2.438-.729,3.648-1.167a17.654,17.654,0,0,0,4.262-2.417,42.385,42.385,0,0,1,5.456-3.116,25.6,25.6,0,0,1,4.967-2.191,23.34,23.34,0,0,1,5.036-.857c8.306-.4,19.042,1.6,19.042,1.6,13.05,2.437,19.615,3.59,21.537.429a7.9,7.9,0,0,0,.967-5.328c-.848-3.571-5.178-5.485-34.671-9.555-2.568-.354-3.89-.525-5.748-.749-9.515-1.15-17.285-1.654-22.572-1.9l1.333,2.255c-22.928-17.942-39.785-24.661-51.3-27.349-18.96-4.421-34.184-8.26-41.99-9.2a224.62,224.62,0,0,0-25.923-1.6" transform="translate(3094.379 -1130.966)" fill="#3f5146"/>
          </g>
        </g>
      </g>
      <g id="Group_300" data-name="Group 300" transform="translate(-3179.941 1092.107)">
        <g id="Group_297" data-name="Group 297" transform="translate(83.484 81.575)">
          <g id="Group_296" data-name="Group 296">
            <path id="Path_10306" data-name="Path 10306" d="M-3094.007,1180.731c.975-1.273,1.732-5.077,1.427-5.13-.259-.046-1.456,2.58-2.006,5.634A1.7,1.7,0,0,0-3094.007,1180.731Z" transform="translate(3094.586 -1175.6)" fill="#f7e2c4"/>
          </g>
        </g>
        <g id="Group_299" data-name="Group 299">
          <g id="Group_298" data-name="Group 298">
            <path id="Path_10307" data-name="Path 10307" d="M-2964.8,1209.582c-.273-.791-17.45,5.222-31.943,8.856,0,0-46.84,11.745-67.677-2.859-.048-.033-.094-.067-.094-.068-.362-.265-1.116-.978-16-13.471-11.219-9.416-15.948-13.338-16.17-19.269a15.75,15.75,0,0,1,.27-3.325.985.985,0,0,1-.151.064,2.481,2.481,0,0,1-1.21-.145,69.138,69.138,0,0,0,4.455-19.065c.538-6.454.471-9.32,1.733-14.456a43.851,43.851,0,0,1,7.5-15.7,22.438,22.438,0,0,0-1.687-9.956,22.351,22.351,0,0,0-4.454-6.794l.074-1.448a14.365,14.365,0,0,0-3.392-7.106,8.938,8.938,0,0,0-6.834-2.574,8.682,8.682,0,0,0-2.25.341,8.113,8.113,0,0,1-1.891.468c-.719-.022-.747-.62-.951-1.252-.185-.573-.282-1.156-.5-1.72-.682-1.764-1.558-4.1-3.529-4.921a2.971,2.971,0,0,0-2.054-.156,15.923,15.923,0,0,1-2.174.726c-.7.053-.9-.244-1.105-.8a3.448,3.448,0,0,0-1.481-1.9,4.776,4.776,0,0,0-2.307-.753,38.844,38.844,0,0,0-8.114.472l5.832,7.022c1.117,1.313,5.208,6.437,4.668,13.433-.493,6.386-4.536,10.316-7.659,13.353-.649.63-11.9,11.292-22.677,7.932a14.256,14.256,0,0,1-1.79-.694c-9.277,4.677-12.984,5.939-14.193,5.8-.146-.017-.972-.039-2.1-.107a20.146,20.146,0,0,0-2.261.188,22.292,22.292,0,0,0-2.63-.093,11.864,11.864,0,0,0-1.6.474,24.777,24.777,0,0,0-4.781,2.49,18.166,18.166,0,0,0-2.127,1.335c-.5.379-1.513.612-1.848,1.159a9.949,9.949,0,0,0,3.048.207c1.207.064,2.29.346,3.473.484a14.769,14.769,0,0,1,3.234.364,24.01,24.01,0,0,1,2.83,1.457c1.159.574,2.246,1.268,3.391,1.846.913.461,1.9.816,2.814,1.293,1.277.664,2.467,1.983,3.891,2.268a15.572,15.572,0,0,0,3.844.177c2.116-.019,5.368,1.131,7.049,1.787l-3.8-.056a48.405,48.405,0,0,1,5.528,5.112c3.651,3.944,3.557,5.169,7.644,10.719,3.95,5.363,8.354,10.082,9.773,13.655.087.22.623,1.5,1.352,3.264a33.256,33.256,0,0,0,1.479,3.223c.651,1.191,1.283,2.39,1.959,3.565.6,1.038,1.086,2.013,2.074,3.9,2,3.825,3,5.737,6.353,12.3,2.334,4.568,15.942,25.528,38.87,30.426,12.024,2.569,25.55.493,32.06-1.45a85.806,85.806,0,0,1,10.459-2.505c4.091-.715,8.214-.709,12.322-1.17a29.768,29.768,0,0,1,4.384-.286,4.162,4.162,0,0,1,2.79.8,12.719,12.719,0,0,1,1.932,2.154c.553.612,1.66,1.416,1.45,2.4l4.314.65c-.012-.391.238-.609.349-.945a3.452,3.452,0,0,0,.136-1.412,6.223,6.223,0,0,0-.666-2.277c-.44-.917-1.673-3.055-2.895-3.149l.171.03,3.333-.359c1.613-.164,3.25-.422,4.866-.509a9.719,9.719,0,0,1,2.315.137c.575.117,1.2.56,1.8.477.36-.617-.416-1.812-.588-2.442-.234-.857-.845-2.292-.454-3.191.236-.54,1.278-.872,1.823-1.035a15.107,15.107,0,0,1,2.7-.258,14.967,14.967,0,0,0,2.583-.532c.6-.161,1.444.34,1.881,0,.337-.264.137-1.053.166-1.4a5.252,5.252,0,0,1,.346-1.455c.172-.446.6-1.483,1.074-1.616a23.289,23.289,0,0,0,4.771-.691,6.7,6.7,0,0,0,1.69-.829c1.156-.732,2.418-1.252,3.613-1.907,1.943-1.068,3.828-2.4,5.658-3.662a7.1,7.1,0,0,0,1-.849c.123-.111.433-.392,1.068-.941C-2967.027,1211.442-2964.694,1209.887-2964.8,1209.582Z" transform="translate(3179.9 -1092.238)" fill="#f7e2c4"/>
          </g>
        </g>
      </g>
      <g id="Group_302" data-name="Group 302" transform="translate(-3147.896 1087.395)">
        <g id="Group_301" data-name="Group 301">
          <path id="Path_10308" data-name="Path 10308" d="M-3115.392,1112.124c-.135-.839-1.153-2.464-3.188-5.714-1.129-1.8-2.13-3.244-2.833-4.222l-.167.582c-.512-1.99-.265-3.97-1.077-5.945a21.121,21.121,0,0,0-2.812-4.589,24.838,24.838,0,0,0-3.44-3.5c-.541-.483-1.641-1.639-2.627-1.223-.62.261-.409,1.311-.45,1.766q-.157,1.733-.31,3.468-.3,3.306-.591,6.613l.365-5.43c-.859,9.622-1.053,19.328-5.846,28.16a44.1,44.1,0,0,1-6.343,9.531c-.7.738-2.533,2.3-2.439,3.334l.377.068a123.245,123.245,0,0,0,13.125-6.454C-3127.018,1124.806-3114.494,1117.7-3115.392,1112.124Z" transform="translate(3147.153 -1087.422)" fill="#e2a460"/>
        </g>
      </g>
      <path id="Path_10309" data-name="Path 10309" d="M-3147.55,1133.551l-.4-.025h-.021l0-.025a2.039,2.039,0,0,1,.414-1.325,9.78,9.78,0,0,1,.847-1.1l.919-1.012c.291-.34.576-.691.852-1.044a36.773,36.773,0,0,0,2.954-4.509c.864-1.573,1.748-3.183,2.515-4.8.409-.794.741-1.622,1.093-2.443.3-.839.627-1.672.875-2.532a40.97,40.97,0,0,0,1.3-5.216c.344-1.766.593-3.554.81-5.354.426-3.6.687-7.24,1.182-10.864.078,3.653.12,7.3-.106,10.962a45.568,45.568,0,0,1-1.854,10.888,31.527,31.527,0,0,1-2.112,5.152c-.424.837-.877,1.616-1.331,2.415s-.924,1.586-1.426,2.359a30.344,30.344,0,0,1-3.356,4.4,26.153,26.153,0,0,1-2,1.895,9.538,9.538,0,0,0-.946.955,1.985,1.985,0,0,0-.564,1.164l-.025-.026Z" transform="translate(-0.726 -0.154)" fill="#2b2b2b"/>
      <path id="Path_10310" data-name="Path 10310" d="M-3134.1,1098.422c-.138-2.607-.139-5.2-.091-7.8.009-.649.02-1.3.045-1.946.015-.224-.054-.553-.048-.958a2.033,2.033,0,0,1,.118-.694,1.3,1.3,0,0,1,.623-.7,1.993,1.993,0,0,1,1.413-.115,3.744,3.744,0,0,1,1.073.488,9.545,9.545,0,0,1,.845.615l.764.592a23.728,23.728,0,0,1,2.956,2.688,25.647,25.647,0,0,1,2.382,3.191,12.7,12.7,0,0,1,.928,1.793,8.343,8.343,0,0,1,.514,1.975c.172,1.328.139,2.6.383,3.89a26.363,26.363,0,0,1-1.053-3.752,7.744,7.744,0,0,0-.669-1.723,14.052,14.052,0,0,0-1.007-1.579,33.447,33.447,0,0,0-2.45-2.9,24.565,24.565,0,0,0-2.845-2.485l-.764-.614a8.617,8.617,0,0,0-.717-.542,1.438,1.438,0,0,0-1.169-.34s.02-.038-.007,0a.769.769,0,0,0-.051.259c-.024.244.031.561,0,.986-.05.647-.114,1.293-.179,1.937C-3133.366,1093.267-3133.667,1095.849-3134.1,1098.422Z" transform="translate(-1.021)" fill="#2b2b2b"/>
      <path id="Path_10311" data-name="Path 10311" d="M-3121.779,1101.189a7.441,7.441,0,0,1,3.982,4.377,7.876,7.876,0,0,1,.426,3.018,7.134,7.134,0,0,1-.738,2.892c-.117-.994-.2-1.931-.347-2.838a15.74,15.74,0,0,0-.656-2.614,14.285,14.285,0,0,0-1.119-2.442C-3120.687,1102.79-3121.222,1102.023-3121.779,1101.189Z" transform="translate(-1.288 -0.323)" fill="#2b2b2b"/>
      <path id="Path_10312" data-name="Path 10312" d="M-3123.371,1093.422a19.976,19.976,0,0,1,2.8.09,12.757,12.757,0,0,1,1.4.231c.443.1.884.144,1.374.248a3.594,3.594,0,0,1,1.385.637,3.736,3.736,0,0,1,1.085,1.112c.282.427.438,1.012.588,1.17.066.063.084.066.244.077a1.7,1.7,0,0,0,.516-.086c.366-.113.762-.336,1.243-.527a4.325,4.325,0,0,1,1.586-.293,3.8,3.8,0,0,1,1.589.422,4.927,4.927,0,0,1,1.3.929,8.451,8.451,0,0,1,1.642,2.515c.2.441.381.885.551,1.322a9.726,9.726,0,0,1,.458,1.4l.167.646.188.663c.053.19.116.255.08.218a.8.8,0,0,0,.217,0,7.309,7.309,0,0,0,1.217-.324,11.537,11.537,0,0,1,1.444-.321,7.125,7.125,0,0,1,1.512-.079c.481.017.964.063,1.446.125a9.467,9.467,0,0,1,2.829.814,9.134,9.134,0,0,1,4.091,4.048,16.192,16.192,0,0,1,1.6,5.386,19.36,19.36,0,0,0-2.19-5.036,8.747,8.747,0,0,0-3.942-3.4,9.525,9.525,0,0,0-2.537-.6c-.439-.042-.883-.07-1.331-.069a5.838,5.838,0,0,0-1.26.111c-.4.082-.893.189-1.267.305a8.066,8.066,0,0,1-1.469.392,1.673,1.673,0,0,1-1.128-.223,1.693,1.693,0,0,1-.63-.946l-.2-.674c-.073-.243-.133-.477-.189-.7a8.23,8.23,0,0,0-.393-1.248c-.16-.431-.324-.85-.5-1.255a7.637,7.637,0,0,0-1.341-2.154,3.651,3.651,0,0,0-.929-.718,2.593,2.593,0,0,0-1.065-.337,3.338,3.338,0,0,0-1.143.17c-.393.125-.822.341-1.354.478a2.738,2.738,0,0,1-.86.083,1.527,1.527,0,0,1-.516-.127,1.213,1.213,0,0,1-.457-.369,2.7,2.7,0,0,1-.356-.764,4.55,4.55,0,0,0-.236-.579,2.846,2.846,0,0,0-.78-.928,2.892,2.892,0,0,0-1.079-.614c-.407-.133-.888-.23-1.337-.385-.433-.144-.874-.263-1.32-.371C-3121.529,1093.68-3122.448,1093.545-3123.371,1093.422Z" transform="translate(-1.254 -0.156)" fill="#2b2b2b"/>
      <path id="Path_10313" data-name="Path 10313" d="M-3090.191,1115.775c2.733,2.635,5.135,5.6,7.592,8.443a27.854,27.854,0,0,1,3.2,4.785,17.1,17.1,0,0,0,1.548,2.235,20.944,20.944,0,0,0,1.929,1.942,17.813,17.813,0,0,0,4.485,3.066c1.734.745,3.443,1.622,5.139,2.323,3.413,1.391,7.233,1.638,11,1.885a47.659,47.659,0,0,1-5.7.166,20.358,20.358,0,0,1-5.683-1.031c-1.847-.622-3.519-1.459-5.29-2.134a18.607,18.607,0,0,1-4.889-3.239,22.456,22.456,0,0,1-2.039-2.1,16.4,16.4,0,0,1-1.643-2.446,31.052,31.052,0,0,0-2.9-4.761C-3085.78,1121.908-3087.863,1118.767-3090.191,1115.775Z" transform="translate(-1.965 -0.636)" fill="#2b2b2b"/>
      <path id="Path_10314" data-name="Path 10314" d="M-3064.222,1140.148c5.317-.1,10.638.073,15.953.391q3.983.267,7.957.69c2.645.25,5.313.656,7.926,1.147,5.248.956,10.42,2.207,15.6,3.409l15.514,3.692c2.579.642,5.16,1.234,7.752,1.953s5.116,1.592,7.619,2.532a109.751,109.751,0,0,1,14.493,6.813,159.385,159.385,0,0,1,13.519,8.529c4.334,3.1,8.563,6.328,12.645,9.737-4.276-3.16-8.579-6.277-13.028-9.171-4.42-2.936-8.969-5.674-13.647-8.153a124.959,124.959,0,0,0-14.429-6.567c-2.477-.908-4.979-1.757-7.527-2.436s-5.142-1.256-7.724-1.884c-10.326-2.526-20.628-5.18-30.993-7.407-2.6-.55-5.181-1.008-7.823-1.323-2.63-.341-5.268-.629-7.91-.883C-3053.6,1140.671-3058.91,1140.36-3064.222,1140.148Z" transform="translate(-2.522 -1.158)" fill="#2b2b2b"/>
      <path id="Path_10315" data-name="Path 10315" d="M-2946.845,1177.582q8.661.345,17.3,1.232c5.754.575,11.486,1.367,17.209,2.172,5.72.837,11.436,1.723,17.113,2.914,1.417.312,2.834.632,4.238,1.031a25,25,0,0,1,4.155,1.485,7.6,7.6,0,0,1,1,.542,5.471,5.471,0,0,1,.937.691,4.293,4.293,0,0,1,1.336,1.987,7.16,7.16,0,0,1-.194,4.586,9.8,9.8,0,0,1-.441,1.059,5.568,5.568,0,0,1-.284.523l-.385.5a4.528,4.528,0,0,1-2.082,1.26,10.684,10.684,0,0,1-1.137.26c-.375.037-.754.085-1.13.109l-1.12.026-1.109-.037a77.842,77.842,0,0,1-8.654-1.178c-2.846-.492-5.7-1.1-8.515-1.562-2.838-.458-5.692-.822-8.552-1.07a65.712,65.712,0,0,0-8.565-.239,22.619,22.619,0,0,0-4.151.673,17.494,17.494,0,0,0-3.9,1.511l-3.842,1.973c-.629.334-1.249.678-1.844,1.048s-1.145.769-1.767,1.2a16.572,16.572,0,0,1-3.983,2.1c-.711.246-1.417.439-2.1.643s-1.313.431-2.02.665l-4.121,1.373a39.461,39.461,0,0,0-3.928,1.64c-1.3.608-2.606,1.246-3.955,1.826s-2.695,1.1-4.052,1.616c-2.715,1.027-5.448,1.975-8.167,2.943s-5.4,2.015-8.162,2.947c-1.374.467-2.782.9-4.177,1.276-1.371.383-2.73.834-4.084,1.312-2.711.956-5.411,2.021-8.217,2.852a48.376,48.376,0,0,1-8.605,1.642c-2.895.315-5.8.466-8.694.546-5.781.163-11.532.372-17.339.5a58.713,58.713,0,0,1-17.233-2.3,46.384,46.384,0,0,1-15.372-8.011,44.485,44.485,0,0,1-6.2-6.074l-2.876-3.24c-.474-.546-.969-1.07-1.427-1.632a8.013,8.013,0,0,0-1.472-1.576l.007,0a.2.2,0,0,0,.055.177.159.159,0,0,0,.182.018.16.16,0,0,1-.185-.015.2.2,0,0,1-.062-.181v-.009l.007,0a8.06,8.06,0,0,1,1.514,1.544c.468.547.978,1.062,1.465,1.595l2.957,3.173a44.216,44.216,0,0,0,6.27,5.922,45.857,45.857,0,0,0,15.334,7.645,58.078,58.078,0,0,0,17.031,2.078c5.746-.188,11.543-.461,17.312-.687,2.879-.112,5.75-.293,8.6-.636a47.494,47.494,0,0,0,8.394-1.634c2.735-.82,5.412-1.887,8.148-2.862,1.367-.488,2.75-.955,4.161-1.354,1.392-.383,2.746-.8,4.106-1.271,2.715-.929,5.4-1.993,8.133-2.97s5.444-1.936,8.131-2.963c1.342-.515,2.682-1.047,3.993-1.609s2.594-1.2,3.907-1.823a40.879,40.879,0,0,1,4.061-1.71l4.1-1.377c.666-.216,1.4-.489,2.1-.682s1.39-.392,2.046-.616a15.215,15.215,0,0,0,3.663-1.923c.567-.389,1.189-.848,1.823-1.227s1.28-.746,1.927-1.086l3.876-1.974a18.835,18.835,0,0,1,4.171-1.595,23.957,23.957,0,0,1,4.395-.695,66.866,66.866,0,0,1,8.75.273c2.9.262,5.776.639,8.642,1.113,2.883.484,5.683,1.095,8.529,1.6a81.049,81.049,0,0,0,8.508,1.2,12.344,12.344,0,0,0,4.106-.265,3.448,3.448,0,0,0,1.592-.922,5.325,5.325,0,0,0,.918-1.716,6.142,6.142,0,0,0,.23-3.913,4.753,4.753,0,0,0-2.73-2.666,24.157,24.157,0,0,0-3.98-1.469c-1.371-.405-2.771-.738-4.172-1.064-5.622-1.247-11.325-2.186-17.027-3.1s-11.411-1.8-17.146-2.477S-2941.079,1177.961-2946.845,1177.582Z" transform="translate(-2.239 -1.962)" fill="#2b2b2b"/>
      <path id="Path_10316" data-name="Path 10316" d="M-3094.755,1181.961a3.437,3.437,0,0,1-.172.828.958.958,0,0,0,.144.708,16.319,16.319,0,0,0,.8,1.438,20.044,20.044,0,0,0,1.942,2.616l2.232,2.465c.737.834,1.455,1.676,2.206,2.478a38.021,38.021,0,0,0,4.774,4.487,44.272,44.272,0,0,1,5.028,4.439c-1.884-1.219-3.8-2.311-5.673-3.565a28.382,28.382,0,0,1-2.723-2.036,31.457,31.457,0,0,1-2.435-2.386c-1.512-1.7-2.879-3.4-4.259-5.21a15.368,15.368,0,0,1-1.7-2.977,13.234,13.234,0,0,1-.552-1.62,1.229,1.229,0,0,1,.025-.914A3.4,3.4,0,0,0-3094.755,1181.961Z" transform="translate(-1.858 -2.056)" fill="#2b2b2b"/>
      <path id="Path_10317" data-name="Path 10317" d="M-3143.8,1136.544a1.106,1.106,0,0,1,.437-1.1c.327-.261.709-.429,1.024-.67a10.98,10.98,0,0,1,2.147-1.226,28.7,28.7,0,0,0,4.264-2.362c1.376-.88,2.748-1.785,4.212-2.566a21.133,21.133,0,0,1,2.268-1.055c.382-.16.805-.285,1.177-.418s.74-.27,1.1-.426c2.919-1.272,5.185-3.625,7.519-5.923.594-.57,1.181-1.119,1.694-1.7s.95-1.25,1.5-1.917a12.651,12.651,0,0,1,.87-.93,7.246,7.246,0,0,0,.715-.873c.232-.321.419-.633.667-1.011a5.083,5.083,0,0,1,.432-.56,1.792,1.792,0,0,1,.8-.55l.656-.218.173.7a6.555,6.555,0,0,1,.066,2.537,10.68,10.68,0,0,1-.635,2.357c-.656,1.6-1.827,2.7-2.225,3.935a3.634,3.634,0,0,0-.119.458,2.185,2.185,0,0,0-.031.23l-.013.11a.106.106,0,0,1,.005.04c0,.058-.013.012,0,.029a.552.552,0,0,0,.219.091,3.871,3.871,0,0,0,.952.058l1.144-.064c.48-.014.87.065,1.174.066a1.079,1.079,0,0,0,.338-.033c.09-.022.258-.127.562-.218a2.741,2.741,0,0,1,.38-.068l.317-.031c.209-.015.415-.022.621-.022a5.194,5.194,0,0,1,1.322.141l.373.1.1.417a1.416,1.416,0,0,1-.278,1.148,2.389,2.389,0,0,1-.669.57c-.216.132-.423.234-.6.328-.094.049-.166.088-.231.128l-.241.161a16.1,16.1,0,0,1-2.171,1.519l-4.664,2.153-4.662,2.144c-.792.349-1.6.675-2.424.957-.411.146-.844.262-1.2.4a10.606,10.606,0,0,0-1.111.51c-.73.391-1.521.819-2.311,1.159s-1.562.677-2.288,1.074a19.158,19.158,0,0,1-2.4,1.013c-.773.292-1.511.714-2.333,1.045a6.241,6.241,0,0,1-1.278.367,4.426,4.426,0,0,0-1.188.322,5.515,5.515,0,0,1-.626.224,2.524,2.524,0,0,1-.69.074c-.447-.006-.87-.082-1.276-.08a6.421,6.421,0,0,1-1.306-.04,1.873,1.873,0,0,1-1.059-.8c-.264-.343-.49-.7-.756-1.033a1.521,1.521,0,0,0-1.033-.665,1.556,1.556,0,0,1,1.1.608c.293.316.546.664.826.98a1.731,1.731,0,0,0,.971.664,6.278,6.278,0,0,0,1.25-.028c.447-.023.874.032,1.282.015a2.538,2.538,0,0,0,1.142-.327,4.986,4.986,0,0,1,1.257-.413,5.648,5.648,0,0,0,1.161-.4c.748-.343,1.475-.813,2.287-1.164a18.885,18.885,0,0,0,2.277-1.056c.757-.452,1.545-.817,2.3-1.19s1.463-.78,2.229-1.211a11.576,11.576,0,0,1,1.2-.589c.438-.177.83-.291,1.219-.441.784-.292,1.553-.625,2.314-.985,1.507-.74,3.057-1.5,4.6-2.232l4.6-2.214a17.387,17.387,0,0,0,1.991-1.451l.29-.2c.116-.073.232-.136.327-.186.2-.1.373-.193.521-.285a1.12,1.12,0,0,0,.306-.248c.037-.068.021-.021.023-.053l.476.512a5.617,5.617,0,0,0-1.9,0c-.064.012-.228.107-.5.2a2.387,2.387,0,0,1-.791.1c-.458-.009-.825-.077-1.108-.06a9.417,9.417,0,0,1-2.462-.02,1.874,1.874,0,0,1-.8-.388,1.463,1.463,0,0,1-.35-.441,1.585,1.585,0,0,1-.134-.522l-.007-.246c0-.068.013-.115.019-.174.017-.112.022-.226.05-.336a4.871,4.871,0,0,1,.171-.647c.606-1.675,1.8-2.75,2.274-4a7.315,7.315,0,0,0,.536-4.052l.829.48a1.351,1.351,0,0,0-.178.161,3.839,3.839,0,0,0-.318.41c-.206.3-.447.687-.7,1.026a8.593,8.593,0,0,1-.854,1.009,11.218,11.218,0,0,0-.821.846c-.5.585-.968,1.27-1.556,1.92s-1.2,1.195-1.793,1.749c-2.341,2.216-4.8,4.637-7.971,5.929-.4.154-.794.3-1.2.415s-.77.219-1.149.361a20.419,20.419,0,0,0-2.215.933c-1.447.714-2.853,1.542-4.278,2.352a29.063,29.063,0,0,1-4.427,2.167,12.013,12.013,0,0,0-2.172,1.084c-.352.233-.741.371-1.071.6A1.064,1.064,0,0,0-3143.8,1136.544Z" transform="translate(-0.803 -0.577)" fill="#2b2b2b"/>
      <path id="Path_10318" data-name="Path 10318" d="M-3150.182,1137.062q-3.948.791-7.935,1.4c-1.331.194-2.661.391-4.022.479-.343.017-.683.035-1.04.023l-1.025-.045c-.655-.01-1.358-.081-1.94-.036a16.14,16.14,0,0,1-2.05.209,18.852,18.852,0,0,0-1.953-.109,8.582,8.582,0,0,0-1.809.518,11.275,11.275,0,0,0-1.75.773c-1.133.614-2.274,1.369-3.451,2.026-.286.165-.563.332-.83.506l-.391.269c-.125.087-.237.188-.449.319-.36.213-.674.335-.946.475a1.374,1.374,0,0,0-.521.367l-.267-.929a4.112,4.112,0,0,0,1.415.148l.863-.014a8.236,8.236,0,0,1,.933.039c1.22.115,2.354.411,3.418.5.535.045,1.115.037,1.744.1a5.805,5.805,0,0,1,1.878.5,16.341,16.341,0,0,1,1.584.862c.245.144.483.281.721.4l.784.418c1.032.57,2,1.184,2.994,1.661a23.184,23.184,0,0,1,3.184,1.6,12.2,12.2,0,0,0,2.744,1.748,7.3,7.3,0,0,0,.76.161c.267.045.533.076.8.1.537.04,1.1.027,1.68.022a12.329,12.329,0,0,1,3.589.39,15.119,15.119,0,0,1,3.307,1.383,10.556,10.556,0,0,0,1.446.717,1.059,1.059,0,0,0,.142.028c-.027,0-.034.039-.034.027a1.1,1.1,0,0,0-.11-.53c-.4-.981-1.037-2-1.566-3.023a21.59,21.59,0,0,1-2.393-6.574,15.388,15.388,0,0,1-.184-3.494A14.142,14.142,0,0,1-3150.182,1137.062Zm0,0a14.824,14.824,0,0,0-.046,6.815,22.53,22.53,0,0,0,2.653,6.27c.569,1.005,1.216,1.925,1.743,3.06a3.511,3.511,0,0,1,.163.486,1.34,1.34,0,0,1,.006.662.93.93,0,0,1-.586.646,1.23,1.23,0,0,1-.711.006,10.3,10.3,0,0,1-1.684-.753,11.9,11.9,0,0,0-6.388-1.483c-.57.015-1.167.041-1.783.006-.307-.017-.615-.048-.918-.093a8.113,8.113,0,0,1-.935-.185,12.061,12.061,0,0,1-3.126-1.875,22.772,22.772,0,0,0-3.016-1.477c-1.094-.521-2.082-1.14-3.074-1.679l-.748-.391c-.277-.141-.54-.29-.794-.437-.508-.293-.979-.586-1.453-.8a4.359,4.359,0,0,0-1.452-.4c-.521-.058-1.1-.055-1.713-.108-1.239-.117-2.35-.419-3.433-.521a6.576,6.576,0,0,0-.8-.038l-.869.008a4.882,4.882,0,0,1-1.993-.311l-.7-.3.431-.632a2.471,2.471,0,0,1,1.062-.833c.329-.159.644-.282.861-.409.078-.04.224-.156.374-.259l.443-.293c.3-.189.6-.361.9-.526,1.181-.625,2.284-1.349,3.532-1.975a12.314,12.314,0,0,1,1.951-.792,9.162,9.162,0,0,1,2.07-.507,18.029,18.029,0,0,1,2.058.167,18.792,18.792,0,0,0,1.954-.133c1.465,0,2.734.256,4.033.222,1.319-.034,2.657-.137,3.989-.259C-3155.512,1137.7-3152.85,1137.365-3150.182,1137.062Z" transform="translate(0 -1.092)" fill="#2b2b2b"/>
      <path id="Path_10319" data-name="Path 10319" d="M-3149.879,1156.27a2.536,2.536,0,0,0,.936,1.048c.385.282.765.57,1.163.831a5.86,5.86,0,0,1,1.124.908c.328.356.608.749.9,1.124.576.745,1.255,1.43,1.835,2.2a9.213,9.213,0,0,1,.8,1.216c.229.443.41.858.647,1.274.457.828.979,1.622,1.485,2.437.524.81.941,1.679,1.462,2.452,1.032,1.577,2.306,3,3.406,4.6a45.593,45.593,0,0,1,2.747,5.066,23.908,23.908,0,0,0,1.415,2.432,10.7,10.7,0,0,1,1.364,2.622c.339.921.59,1.854.858,2.762a15.171,15.171,0,0,0,1.162,2.515c.448.889.809,1.735,1.251,2.572.422.829.931,1.616,1.425,2.44l1.49,2.448c.511.848.931,1.709,1.4,2.505a12.767,12.767,0,0,0,.753,1.146l.834,1.18,1.611,2.37a33.911,33.911,0,0,0,3.448,4.436c1.372,1.334,2.6,2.885,3.843,4.263.616.674,1.332,1.37,1.959,2.093a27.558,27.558,0,0,0,1.936,2.017l1.076.925c.366.319.723.645,1.078.972.708.657,1.393,1.327,2.077,1.992a53.377,53.377,0,0,0,4.192,3.788c.367.287.741.558,1.12.827l1.164.844,2.326,1.69c.4.286.758.566,1.132.809s.778.484,1.186.716c.817.462,1.679.916,2.511,1.46a38.471,38.471,0,0,0,4.938,2.685q1.284.587,2.6,1.105l1.323.505c.453.164.914.349,1.351.526a14.227,14.227,0,0,0,2.625.857l2.795.617a59.762,59.762,0,0,0,11.207,1.646l11.427.726c1.9.12,3.794.214,5.681.183a26.389,26.389,0,0,0,5.586-.6c1.83-.42,3.63-1.047,5.478-1.579a32.9,32.9,0,0,1,5.668-1.114c1.907-.222,3.815-.352,5.717-.5,1.905-.132,3.783-.359,5.691-.575a20.068,20.068,0,0,1,2.88-.109,5.883,5.883,0,0,1,1.449.183,4.118,4.118,0,0,1,1.3.681,16.314,16.314,0,0,1,1.937,2.122c.331.338.7.649,1,1.023a1.607,1.607,0,0,1,.447,1.319,1.586,1.586,0,0,0-.487-1.286c-.313-.357-.689-.651-1.038-.982a16.462,16.462,0,0,0-1.986-2.026,4,4,0,0,0-1.241-.609,5.668,5.668,0,0,0-1.389-.134,19.627,19.627,0,0,0-2.832.186c-1.879.264-3.785.548-5.684.731-1.9.2-3.8.384-5.676.655a32.935,32.935,0,0,0-5.534,1.188c-1.811.554-3.611,1.217-5.5,1.684a41.321,41.321,0,0,1-11.53.629q-5.724-.272-11.436-.594a61.05,61.05,0,0,1-11.427-1.613l-2.8-.6a15.507,15.507,0,0,1-2.815-.9c-.447-.178-.873-.346-1.318-.5l-1.354-.509q-1.347-.524-2.672-1.119a39.736,39.736,0,0,1-5.129-2.753c-.768-.5-1.6-.93-2.445-1.4-.423-.236-.848-.484-1.268-.757s-.826-.578-1.2-.85l-2.3-1.687-1.149-.844c-.4-.286-.795-.576-1.178-.881a54.271,54.271,0,0,1-4.28-3.906c-.681-.669-1.357-1.336-2.045-1.982-.344-.322-.691-.64-1.042-.951l-1.089-.946a28.736,28.736,0,0,1-2.018-2.121c-.62-.723-1.273-1.36-1.941-2.1-1.3-1.459-2.438-2.923-3.8-4.26a35.2,35.2,0,0,1-3.55-4.612l-1.594-2.373-.811-1.161a12.41,12.41,0,0,1-.8-1.256c-.485-.858-.888-1.721-1.351-2.517l-1.445-2.466c-.475-.821-.989-1.648-1.42-2.528-.435-.859-.813-1.775-1.211-2.6a15.936,15.936,0,0,1-1.182-2.7c-.258-.928-.488-1.844-.795-2.719a9.8,9.8,0,0,0-1.229-2.461,24.8,24.8,0,0,1-1.422-2.538,47.46,47.46,0,0,0-2.614-5.041c-1.024-1.578-2.266-3.045-3.283-4.694-.522-.828-.909-1.7-1.4-2.5s-.984-1.636-1.427-2.492c-.225-.42-.416-.886-.615-1.3a8.71,8.71,0,0,0-.738-1.2c-.548-.772-1.2-1.464-1.77-2.248-.278-.391-.539-.787-.846-1.145a5.726,5.726,0,0,0-1.065-.926c-.391-.278-.76-.58-1.135-.876A2.553,2.553,0,0,1-3149.879,1156.27Z" transform="translate(-0.686 -1.504)" fill="#2b2b2b"/>
      <path id="Path_10320" data-name="Path 10320" d="M-3004.917,1235.567l-.184.035.013-.124a1.873,1.873,0,0,1,1.267.239,4.49,4.49,0,0,1,1.02.756,7.387,7.387,0,0,1,1.44,1.99,5.086,5.086,0,0,1,.586,2.469,3.308,3.308,0,0,1-.283,1.281,1.881,1.881,0,0,1-.376.538,1.142,1.142,0,0,0-.314.467,1,1,0,0,1-.023-.64,1.772,1.772,0,0,0,.061-.53,4.033,4.033,0,0,0-.145-1.021,8.347,8.347,0,0,0-.75-1.939c-.327-.636-.689-1.285-1.066-1.9a4.079,4.079,0,0,0-1.423-1.583l.013-.124Z" transform="translate(-3.791 -3.203)" fill="#2b2b2b"/>
      <path id="Path_10321" data-name="Path 10321" d="M-3001.48,1234.856c1.5-.372,2.984-.754,4.527-.99a10.217,10.217,0,0,1,2.392-.125,4.47,4.47,0,0,1,1.249.26,1.852,1.852,0,0,0,.826.145l-.436.305a1.81,1.81,0,0,0-.2-.678c-.155-.358-.37-.677-.56-1.193a10.826,10.826,0,0,1-.729-2.609,2.659,2.659,0,0,1,.08-.857c.027-.077.047-.148.081-.231a1.456,1.456,0,0,1,.153-.266,1.86,1.86,0,0,1,.348-.363,4.641,4.641,0,0,1,1.333-.673,5.753,5.753,0,0,1,1.376-.325c.456-.048.89-.053,1.3-.069a11.982,11.982,0,0,0,2.387-.34l.609-.144a2.04,2.04,0,0,1,.415-.071,2.219,2.219,0,0,1,.405.02,5.411,5.411,0,0,0,1.039.158c.037-.015.025.008.036,0a.314.314,0,0,0,.05-.146,3.054,3.054,0,0,0,.006-.566,3.713,3.713,0,0,1,.23-1.353,6.519,6.519,0,0,1,.548-1.188,3.283,3.283,0,0,1,.374-.536,1.07,1.07,0,0,1,.522-.377,1.881,1.881,0,0,0-.644,1.03,7.9,7.9,0,0,0-.311,1.194,3.178,3.178,0,0,0-.021,1.156,3.648,3.648,0,0,1,.072.7,1.128,1.128,0,0,1-.1.465.9.9,0,0,1-.188.255,1,1,0,0,1-.241.156,1.717,1.717,0,0,1-.854.1c-.231-.018-.436-.052-.613-.058a1.1,1.1,0,0,0-.228.009,1.083,1.083,0,0,0-.2.06l-.609.2a10.969,10.969,0,0,1-2.6.538c-.429.039-.841.071-1.223.127a4.3,4.3,0,0,0-1.08.278,3.439,3.439,0,0,0-.92.466.484.484,0,0,0-.088.094c-.011.01,0,.01-.005.008l-.021.069a1.439,1.439,0,0,0-.037.4,10.228,10.228,0,0,0,.618,2.263c.1.28.308.7.474,1.12a3.845,3.845,0,0,1,.215.734,1.549,1.549,0,0,1-.137,1.031l-.148.272-.289.033a2.7,2.7,0,0,1-1.41-.273,3.3,3.3,0,0,0-.975-.3,12.026,12.026,0,0,0-2.2-.118C-2998.395,1234.7-2999.934,1234.849-3001.48,1234.856Z" transform="translate(-3.868 -2.928)" fill="#2b2b2b"/>
      <path id="Path_10322" data-name="Path 10322" d="M-2982.713,1222.37c2.054-.544,4.269-.761,5.855-1.9a22.2,22.2,0,0,1,2.749-1.7c.927-.5,1.8-1.017,2.675-1.6.883-.558,1.748-1.156,2.619-1.754s1.785-1.167,2.564-1.78a12.3,12.3,0,0,0,1.126-1.05,12.467,12.467,0,0,1,1.268-1.05c.885-.625,1.787-1.168,2.673-1.769-.68.832-1.5,1.542-2.23,2.29a12.69,12.69,0,0,0-1.036,1.143,10.586,10.586,0,0,1-1.075,1.246,11.278,11.278,0,0,1-1.258,1.075l-1.266.969q-1.283.953-2.629,1.849a28.441,28.441,0,0,1-2.826,1.6c-.981.461-1.855.9-2.783,1.448a6.2,6.2,0,0,1-1.581.647,11,11,0,0,1-1.627.28A29.515,29.515,0,0,1-2982.713,1222.37Z" transform="translate(-4.271 -2.652)" fill="#2b2b2b"/>
      <path id="Path_10323" data-name="Path 10323" d="M-3027.729,1241.217a30.621,30.621,0,0,1,6.673.422c1.1.195,2.192.428,3.284.709.545.141,1.087.3,1.628.5a5.9,5.9,0,0,1,1.638.828,1.393,1.393,0,0,1,.413.514.97.97,0,0,1,.085.47.933.933,0,0,1-.181.468,1.451,1.451,0,0,1-.524.426,3.707,3.707,0,0,1-.455.2,15,15,0,0,1-1.679.448c-1.1.239-2.186.449-3.274.666l-6.529,1.258a73.653,73.653,0,0,0-12.721,3.4c-2.047.787-4.07,1.687-6.041,2.663a5.683,5.683,0,0,0-2.374,2.076,8.441,8.441,0,0,1-.992,1.364,8.766,8.766,0,0,1-1.332,1.02,8.737,8.737,0,0,0,1.175-1.161,8.454,8.454,0,0,0,.832-1.412,6.218,6.218,0,0,1,2.358-2.482,54.163,54.163,0,0,1,5.962-3.074,60.16,60.16,0,0,1,12.87-3.764l6.554-1.185c1.094-.186,2.19-.364,3.266-.565.533-.1,1.073-.214,1.548-.357a2.364,2.364,0,0,0,.448-.185c-.016.014-.03.173-.012.16.013,0-.033-.065-.1-.126a5.072,5.072,0,0,0-1.295-.715c-.493-.2-1.007-.385-1.524-.561-1.037-.346-2.1-.642-3.168-.917A36.7,36.7,0,0,0-3027.729,1241.217Z" transform="translate(-2.825 -3.326)" fill="#2b2b2b"/>
      <path id="Path_10324" data-name="Path 10324" d="M-3004.409,1244.932a.756.756,0,0,1,.628.2.655.655,0,0,1,.053.7,1.73,1.73,0,0,1-1.1.833c-.8.3-1.611.659-2.416.985l-1.212.485c-.195.075-.405.17-.646.246a6.326,6.326,0,0,1-.682.172c-.442.093-.883.147-1.247.248a12.265,12.265,0,0,0-1.177.436c-3.392,1.179-6.561,2.218-9.993,3.307-.835.2-1.623.466-2.461.745s-1.727.526-2.513.76c-1.625.491-3.215,1.2-4.876,1.793-.845.3-1.644.561-2.441.892s-1.607.671-2.434.984-1.68.556-2.517.815l-.629.189a2.566,2.566,0,0,1-.668.094,1.387,1.387,0,0,0-.607.134,1.077,1.077,0,0,1-.625.194,1.037,1.037,0,0,0,.57-.284,1.529,1.529,0,0,1,.633-.252,2.393,2.393,0,0,0,.608-.171l.6-.27c.792-.366,1.6-.685,2.366-1.075l2.33-1.191c.785-.409,1.637-.728,2.413-1.068,1.582-.7,3.175-1.44,4.869-2.036.878-.295,1.666-.5,2.488-.8.813-.282,1.679-.584,2.54-.8.813-.209,1.628-.482,2.461-.754s1.678-.529,2.517-.776l5.008-1.451a13.279,13.279,0,0,1,1.305-.39c.488-.1.918-.121,1.338-.17a5.634,5.634,0,0,0,.6-.1c.181-.039.375-.108.595-.171l1.259-.38c.848-.236,1.669-.51,2.537-.713a1.462,1.462,0,0,0,1.024-.562.5.5,0,0,0,.049-.539A.707.707,0,0,0-3004.409,1244.932Z" transform="translate(-3 -3.406)" fill="#2b2b2b"/>
      <path id="Path_10325" data-name="Path 10325" d="M-3048.893,1257.2a1.733,1.733,0,0,0-1.5.58c-.432.359-.812.792-1.291,1.15a13.035,13.035,0,0,1-1.46.962c-.254.145-.51.282-.769.415s-.538.254-.734.379c-1.91,1.347-4.364,1.808-5.889,3.248a5.718,5.718,0,0,0-1.7,2.546,18.084,18.084,0,0,0-.435,3.272c-.045.595-.177,1.206-.221,1.7a2.173,2.173,0,0,0,.026.67,5.6,5.6,0,0,0,.2.736l.135.379.074.188c.018.042.038.086.065.14a4.717,4.717,0,0,0,.395.627,3.607,3.607,0,0,0,.462.526.972.972,0,0,0,.19.137c.037.017,0-.014-.1.023l-.438.478a.6.6,0,0,0-.073-.314,5.243,5.243,0,0,1-.306-.817,6.259,6.259,0,0,1-.124-.852,6.723,6.723,0,0,1,0-.848,14.062,14.062,0,0,1,.169-1.6,7.527,7.527,0,0,1,.188-.818,4.114,4.114,0,0,1,.345-.825,9.284,9.284,0,0,1,2.08-2.523,8.426,8.426,0,0,1,2.827-1.636,3.939,3.939,0,0,1,.428-.1l.375-.064.751-.129,1.506-.248c.918-.144,1.831-.657,2.9-.881a13.972,13.972,0,0,0,2.89-.851,8.762,8.762,0,0,0,2.741-1.277,7.781,7.781,0,0,1-2.6,1.6,14.579,14.579,0,0,1-2.871,1.156c-.913.277-1.787.837-2.874,1.109l-1.492.345-.748.167a6.458,6.458,0,0,0-.687.172,7.787,7.787,0,0,0-2.355,1.533,8.1,8.1,0,0,0-1.725,2.219,2.864,2.864,0,0,0-.227.587,6.673,6.673,0,0,0-.131.675,13.1,13.1,0,0,0-.136,1.443,5.508,5.508,0,0,0,0,.68,4.663,4.663,0,0,0,.1.657,5.442,5.442,0,0,0,.247.606,1.858,1.858,0,0,1,.137,1.172l-.089.363-.35.115a1.265,1.265,0,0,1-.935-.069,2.24,2.24,0,0,1-.518-.344,4.4,4.4,0,0,1-.677-.754,5.994,5.994,0,0,1-.508-.831c-.037-.074-.076-.161-.113-.25l-.08-.213-.15-.431a7.161,7.161,0,0,1-.238-.924,3.582,3.582,0,0,1-.032-1.039c.068-.647.193-1.157.238-1.7a17.554,17.554,0,0,1,.578-3.507,5.539,5.539,0,0,1,.88-1.69,7.5,7.5,0,0,1,1.278-1.337,10.838,10.838,0,0,1,3.165-1.685l1.593-.591a7.647,7.647,0,0,0,.765-.3c.227-.12.464-.288.745-.436.3-.16.564-.226.824-.338s.522-.213.78-.329a12.613,12.613,0,0,0,1.491-.788c.471-.285.894-.68,1.377-1.01A1.831,1.831,0,0,1-3048.893,1257.2Z" transform="translate(-2.522 -3.668)" fill="#2b2b2b"/>
      <path id="Path_10326" data-name="Path 10326" d="M-3038.837,1258.061c1.23-.016,2.409-.239,3.651-.343a9.4,9.4,0,0,1,1.927.033,10.652,10.652,0,0,1,1.736.784,5.014,5.014,0,0,1,.463.2,2.116,2.116,0,0,1,.5.351c.255.235.458.478.654.669a5.637,5.637,0,0,0,.654.538,4.944,4.944,0,0,1,.74.735,16.475,16.475,0,0,1,1.05,1.6c.32.531.629,1.076.914,1.639a15.442,15.442,0,0,1,1.272,3.589,13.653,13.653,0,0,1,.247,1.9,14.383,14.383,0,0,1,.016,1.888,6.712,6.712,0,0,1-.356,1.936,3.638,3.638,0,0,1-1.231,1.612,3.526,3.526,0,0,1-1.832.679,4.579,4.579,0,0,1-1.838-.023,5.305,5.305,0,0,0,1.775-.357,3.138,3.138,0,0,0,1.453-.82,2.883,2.883,0,0,0,.8-1.369,6.4,6.4,0,0,0,.139-1.675,15.386,15.386,0,0,0-1.694-6.736c-.257-.53-.54-1.051-.84-1.569s-.617-1.067-.914-1.481a3.718,3.718,0,0,0-.525-.58,6.783,6.783,0,0,1-.718-.666l-.584-.675a1.579,1.579,0,0,0-.591-.391c-.646-.324-1.084-.758-1.5-.887a9.339,9.339,0,0,0-1.714-.237A22.087,22.087,0,0,1-3038.837,1258.061Z" transform="translate(-3.067 -3.68)" fill="#2b2b2b"/>
      <path id="Path_10327" data-name="Path 10327" d="M-3043.245,1262.611a24.544,24.544,0,0,1,3.22.016c.545.046,1.115.221,1.577.291a14.251,14.251,0,0,0,1.521.137c1.061.032,2.138.149,3.2.224a1.92,1.92,0,0,1,1.054.377c.311.246.456.436.617.565l1.234,1.023a14.444,14.444,0,0,1,2.229,2.465,5.547,5.547,0,0,1,.793,1.608,8.62,8.62,0,0,1,.118,1.669,10.1,10.1,0,0,1-.118,3.288,4.665,4.665,0,0,1-1.688,2.763,5.092,5.092,0,0,0,1.011-2.866,11.5,11.5,0,0,0-.284-3.04,14.427,14.427,0,0,0-.215-1.486,4.4,4.4,0,0,0-.7-1.18,14.227,14.227,0,0,0-2.08-2.188l-1.194-1.029c-.241-.214-.432-.442-.539-.522a.707.707,0,0,0-.423-.142l-3.122-.449a11.623,11.623,0,0,1-1.619-.329c-.569-.177-.994-.385-1.5-.508C-3041.14,1263.011-3042.209,1262.883-3043.245,1262.611Z" transform="translate(-2.972 -3.784)" fill="#2b2b2b"/>
      <path id="Path_10328" data-name="Path 10328" d="M-3033.2,1242.551a3.59,3.59,0,0,0-1.134.465,5.306,5.306,0,0,0-.954.635,4.8,4.8,0,0,0-1.291,1.668,10.128,10.128,0,0,0-.362,1.1c-.165.429-.341.77-.431,1.072a2.008,2.008,0,0,0-.018,1.01,2.513,2.513,0,0,0,.177.563.893.893,0,0,1,.029.686c-.129-.428-.529-.515-.833-.974a2.419,2.419,0,0,1-.443-1.424,6.33,6.33,0,0,1,.258-1.329c.049-.194.061-.3.115-.576a4.05,4.05,0,0,1,.241-.711,4.189,4.189,0,0,1,1.987-2.018,4.017,4.017,0,0,1,1.334-.356A2.262,2.262,0,0,1-3033.2,1242.551Z" transform="translate(-3.075 -3.351)" fill="#2b2b2b"/>
      <path id="Path_10329" data-name="Path 10329" d="M-3027.838,1242.212a2.183,2.183,0,0,0-1.258.459,9.694,9.694,0,0,0-1.031.866c-.33.325-.675.636-1.06.973-.419.338-.792.574-1.159.85a5.251,5.251,0,0,0-1.721,1.809c-.435.77-.783,1.695-1.344,2.524a10.1,10.1,0,0,1,.343-2.943,4.176,4.176,0,0,1,.746-1.442,6.047,6.047,0,0,1,1.156-1.071c.4-.292.842-.558,1.195-.78.378-.238.761-.542,1.2-.787a5.478,5.478,0,0,1,1.408-.621A1.907,1.907,0,0,1-3027.838,1242.212Z" transform="translate(-3.141 -3.342)" fill="#2b2b2b"/>
      <path id="Path_10330" data-name="Path 10330" d="M-3137.078,1158.468c.258.115.376.4.558.581a2.135,2.135,0,0,0,.677.388c.246.1.5.194.757.325s.467.3.7.434a11.618,11.618,0,0,0,1.407.751,15.484,15.484,0,0,0,1.512.536,4.942,4.942,0,0,1,.795.35c.274.158.475.3.712.445l1.379.878a28.8,28.8,0,0,1,2.7,1.858c.863.66,1.7,1.321,2.579,1.862.906.52,1.892,1.119,2.786,1.726l5.416,3.788c.447.437.769.895,1.1,1.258a7.009,7.009,0,0,0,1.124.97c.216.159.443.328.669.512.114.091.226.189.338.289l.3.267c.395.353.8.69,1.212,1.028.823.669,1.683,1.3,2.569,1.9a6.44,6.44,0,0,0,2.794,1.05,7.813,7.813,0,0,1,1.625.57c.44.176,1.019.346,1.507.532a15.39,15.39,0,0,0,1.51.473,11.065,11.065,0,0,0,1.479.311c.342.014.7-.42,1-.833a4.577,4.577,0,0,0,.648-1.4c.273-1.017.308-2.129.579-3.183-.123,1.08-.024,2.16-.219,3.264a5.026,5.026,0,0,1-.56,1.6,4.275,4.275,0,0,1-.492.721,1.436,1.436,0,0,1-.873.515,2.861,2.861,0,0,1-.924-.073c-.271-.054-.5-.086-.8-.134a16.171,16.171,0,0,1-1.624-.385c-.538-.159-1.008-.269-1.586-.462a6.831,6.831,0,0,0-1.458-.439,12.365,12.365,0,0,1-1.669-.334,6,6,0,0,1-1.607-.767c-.926-.588-1.836-1.211-2.715-1.884-.441-.335-.866-.691-1.284-1.054l-.31-.274-.283-.237c-.2-.156-.406-.308-.627-.469a8.355,8.355,0,0,1-1.339-1.141c-.4-.439-.713-.865-1.046-1.183a7.092,7.092,0,0,0-1.215-.852c-.485-.325-.908-.631-1.357-.953l-2.625-1.9c-.881-.635-1.733-1.19-2.689-1.778a25.487,25.487,0,0,1-2.608-2.049c-.8-.719-1.683-1.321-2.553-1.965l-1.3-.961a5.77,5.77,0,0,0-1.3-.816,16.2,16.2,0,0,1-1.493-.7,12.232,12.232,0,0,1-1.381-.915c-.219-.16-.433-.352-.638-.487s-.462-.254-.7-.387a2.3,2.3,0,0,1-.666-.507C-3136.773,1158.894-3136.837,1158.616-3137.078,1158.468Z" transform="translate(-0.96 -1.552)" fill="#2b2b2b"/>
      <path id="Path_10331" data-name="Path 10331" d="M-3090.447,1152.058a5.977,5.977,0,0,0-.1,3.078c.076.517.17,1.037.241,1.58a10.221,10.221,0,0,1,.066,1.655,12.978,12.978,0,0,0,.07,3.039,16.307,16.307,0,0,1-.022,3.3c-.143,2.03.064,4.249-.7,6.435-.107.29-.194.477-.273.724s-.146.482-.219.734c-.144.5-.279,1.038-.483,1.553a5.368,5.368,0,0,1-.814,1.456,3.792,3.792,0,0,0-.942,1.25,3.353,3.353,0,0,1,.626-1.473,5.488,5.488,0,0,0,.475-1.433c.114-.5.17-1,.242-1.538a10.411,10.411,0,0,1,.35-1.6,12.822,12.822,0,0,0,.3-3c.021-1.036-.006-2.094.046-3.193a17.057,17.057,0,0,0,.108-3.041,7.994,7.994,0,0,1-.037-1.7c.037-.556.121-1.084.19-1.6a20.054,20.054,0,0,0,.095-3.105A5.266,5.266,0,0,1-3090.447,1152.058Z" transform="translate(-1.892 -1.414)" fill="#2b2b2b"/>
      <path id="Path_10332" data-name="Path 10332" d="M-3108.6,1147.364a4.076,4.076,0,0,0-2.833.152c-.469.143-.939.307-1.433.445a6.96,6.96,0,0,1-1.515.23,8.791,8.791,0,0,0-2.784.361,11.051,11.051,0,0,1-3.031.267c-1.875,0-3.9.46-5.961-.313-.274-.109-.453-.2-.686-.279s-.453-.141-.69-.211a11.817,11.817,0,0,1-1.463-.47,4.575,4.575,0,0,1-1.4-.9c-.408-.405-.73-.925-1.218-1.076.51-.041.975.4,1.4.66a4.014,4.014,0,0,0,1.353.472,11.886,11.886,0,0,0,1.43.168,7.075,7.075,0,0,1,1.5.3,8.68,8.68,0,0,0,2.772.116c.955-.067,1.923-.2,2.936-.228a11.508,11.508,0,0,0,2.8-.135,5.492,5.492,0,0,1,1.556-.2c.514,0,1.005.058,1.482.1a13.506,13.506,0,0,0,2.858-.158A3.762,3.762,0,0,1-3108.6,1147.364Z" transform="translate(-1.077 -1.275)" fill="#2b2b2b"/>
      <path id="Path_10333" data-name="Path 10333" d="M-3131.529,1144.406a2.58,2.58,0,0,1,2.624,2.535,2.581,2.581,0,0,1-2.535,2.625,2.58,2.58,0,0,1-2.624-2.535A2.58,2.58,0,0,1-3131.529,1144.406Z" transform="translate(-1.024 -1.25)" fill="#2b2b2b"/>
    </g>
  </g>
</svg>
