<svg xmlns="http://www.w3.org/2000/svg" xmlns:xlink="http://www.w3.org/1999/xlink" width="670.25" height="501" viewBox="0 0 670.25 501">
  <defs>
    <clipPath id="clip-path">
      <path id="矩形_1" data-name="矩形 1" d="M0,100H670.25V601H0V100Z" transform="translate(-3848.25 3660.08)" fill="#ead065"/>
    </clipPath>
    <clipPath id="clip-path-2">
      <rect id="Rectangle_3236" data-name="Rectangle 3236" width="1320.001" height="822" transform="translate(0 0.002)" fill="none"/>
    </clipPath>
  </defs>
  <g id="Mask_Group_20" data-name="Mask Group 20" transform="translate(3848.25 -3760.08)" clip-path="url(#clip-path)">
    <g id="向量圖智慧型物件" transform="translate(-3916 3439.078)">
      <g id="Group_704" data-name="Group 704">
        <g id="Group_703" data-name="Group 703" clip-path="url(#clip-path-2)">
          <path id="Path_20028" data-name="Path 20028" d="M1299.369,357.969c-19.792-30.164-48.618-58.248-88.24-56.328-49.748.823-101.156,29.988-104.008,83.219-1.517,15.715,3.9,31.849,8.859,46.873,29.218,65.306-12.045,127.07-77.711,76.291-9.03-9.65-11.239-20.5-11.762-32.37-2.561-25.216,3.28-50.1,10.756-74.084,5.8-17.065,10.818-36.427-1.825-51.834-10.537-14.261-29.858-24.906-47.149-26.718-29.109-5.2-60.882-10.869-89.518,1.476-39.8,17.16-65.945,65.847-58.025,102.474,2.281,10.552,7.981,22.84.267,33.929-37.975,43.375-185.212-7.075-84.534-80.72,39.794-36.334,62.481-32.145,80.344-55.75,21.938-28.991,22.64-81.462-14.647-110.876-39.515-31.172-105.477-23.657-135.827-.726-10.079,7.616-9.58,11.907-51.1,58.052-18.839,20.938-22.9,24.437-29.754,25.742-36.211,6.9-96.022-64.054-79.861-85.645,8.579-11.462,26.948-3.024,49.814-17.058,55.595-43.928,37.385-124.675-9.206-161.078C524.89,4.107,462.591.11,415.654,38.836c-20.669,20.746-7.963,34.316-32.681,64.416-24.03,36.733-71.625,46.066-104.19,11.563-15.867-16.654-17.709-49.371-39.094-73.569C207.4,5.7,147.811,6.57,103.166,14.246-67.453,19.987-.608,271.054,146.319,260.068c25.083-2.186,51.647-6.02,66.464,14.7,14.125,16,29.528,35.036,3.258,48.169-13.385,5.927-31.956,3.937-46.281,7.215-39.873,12.146-97.6,25.967-99.941,73.15-1.66,61.376,43.037,98.888,107.084,95.925,10.711,1.008,20.684-.623,30-5.565,33.76-17.913,68.829-35.972,101.063-56.507,20.837-13.273,31.669-37.651,59.192-42.931,22.666-5.328,42.074-5.51,60.28,10.307,4.734,2.809,12.052,5.371,15.9,9.1,18.917,18.33,13.879,42.043,5.249,61.992-29.129,58.238-157.56,54.554-157.888,132.523,9.176,86.654,72.358,104.3,149.13,110.86,51.957,8.512,86.33-34.681,112.537-70.826,25.566-30.292,12.691-37.853,31.462-62.724,14.055-18.625,31.9-42.274,53.542-40.112,21.9,2.187,39.8,30.033,36.38,51.208-5.163,15.472-31.11,49.64-38.537,68.7-3.405,8.28-4.762,17.1-6.9,25.663-2.092,8.376-5.756,16.356-7.807,24.722-4.685,20.5-3.721,41.153,1.868,61.459,5.167,39.5,83.74,47.78,115.573,44.118,25.793-3.86,42.114-24.9,60.434-40.924,19.426-23.225,28.183-52.059,48.336-75.023,6.914-8.742,15.611-16.254,23.96-23.987,7.473-6.924,14.315-13.477,24.432-17.689,11.268-4.692,28.128-8.25,36.16,2.436,22.874,42.919,13.689,85.571,58.384,123.911,60.633,47.4,170.112,30.514,196.521-3.873,17.391-26.763-12.719-53.2-17.228-97.339-5.882-36.729,17.294-83.474,52.385-124.136,13.414-15.969,29.773-30.106,41.617-47.375,43.657-48.463,78.711-96.116,36.42-159.25" fill="#3f5146"/>
          <path id="Path_20029" data-name="Path 20029" d="M605.559,292.966c-31.731,9.16-105.642-70.479-75.182-91.014,6.325-3.459,13.741-3.219,20.647-4.4a63.827,63.827,0,0,0,29.1-11.294c23.443-16.867,30.4-47.752,29.772-75.2-.161-25.03-9.741-49.695-25.922-68.717C559.239,12.183,518.217,1.416,480.521,6.041c-22.4,2.509-45.478,9.528-62.056,25.431A49.312,49.312,0,0,0,404.84,53.358c-3.435,13.691-7.759,27.477-16.719,38.691-26.627,36.688-59.893,51.888-100.11,23.945-24.158-17.123-25-49.894-40.66-73.132C224.141,4.188,175.239,1.022,134.6,1.226c-14.13-.1-27.908,3.336-41.7,5.878C82.472,8.777,71.954,9.831,61.794,12.731c-16.9,4.748-31.1,16.691-41.934,30.186C-5.116,74.22-2.815,117.6,11.383,153.1,32.047,210.132,80.565,258.319,144.9,252.508c-64.352,6.1-113.346-42.111-134.19-99.158C-3.656,117.617-6.049,73.916,19.086,42.32c10.924-13.7,25.312-25.8,42.4-30.645C71.684,8.736,82.306,7.641,92.718,5.946,106.568,3.364,120.392-.067,134.576.017,175.659-.268,224.99,3.1,248.462,42.178c15.667,23.073,16.444,55.687,40.366,72.72,36.246,25.736,69.758,14.238,94.978-19.517,22.387-25.526,12.93-45.061,33.762-64.837C434.357,14.455,457.716,7.33,480.387,4.809c38.048-4.636,79.527,6.277,104.424,36.825,16.286,19.242,25.909,44.146,26.014,69.41.587,27.7-6.56,58.852-30.27,75.815a64.191,64.191,0,0,1-29.44,11.327c-6.823,1.145-14.262.879-20.461,4.244C510.3,217,539.095,252.593,550.975,265.28c14.438,14.2,32.991,30.171,54.584,27.686" fill="#2b2b2b"/>
          <path id="Path_20030" data-name="Path 20030" d="M1262.988,511.485c40.091-45.332,78.007-89.793,42.614-151.495-11.242-21.607-35.951-50.933-59.018-59.862-35.857-13.057-77.688-3.215-108.12,18.524-18.412,13.53-27.592,36.161-30.195,58.293-2.9,42.541,36.729,88.239,6.673,127.9-18.952,23.856-58.225,16.017-77.525-3.588-10.605-10.56-12.279-26.132-12.3-40.358-2.068-28.95,8.918-56.417,16.33-83.872,7.588-23.06-7.282-42.6-26.565-53.816-9.3-6.586-20.9-7.927-31.832-10.037-27.63-5.133-57.435-9.423-84.063,2.014-34.351,15.326-59.354,52-59.66,89.78-.39,17.079,13.39,37.633-2.907,51.246-30.809,24.425-100.524,8.849-115.7-28.007-5.6-14.8,3.9-29.34,13.941-39.622,13.428-13.58,27.523-26.623,43.353-37.349,15.493-11.164,34.48-16.669,49.519-28.339,21.882-18.615,28.793-50.81,22.317-78.069-13.837-60.45-89.587-75.638-140.965-56.009-8.878,3.327-17.539,7.647-24.8,13.809-13.337,13.55-24.49,29.21-37.573,43.05-11.345,10.9-26.95,34.563-41.555,38.285,14.557-3.791,30.195-27.5,41.429-38.4,13.065-13.906,24.139-29.574,37.474-43.2,7.283-6.222,15.963-10.578,24.874-13.952,51.7-19.958,127.924-4.655,141.926,56.214,6.6,27.58-.368,60.143-22.506,79.02-15.1,11.77-34.033,17.279-49.542,28.478-15.72,10.682-29.8,23.762-43.1,37.255C725.8,399.418,716.4,413.427,721.852,427.8c14.815,36.005,83.709,51.288,113.719,27.457,15.83-13.416,1.85-33.492,2.452-50.277.282-38.345,25.577-75.479,60.422-91.056,17.748-7.662,37.569-8.456,56.541-6.459,18.784,2.878,38.427,4.209,56.013,11.8,21.448,11.436,40.265,32.245,31.738,58.046-7.38,27.378-18.382,54.658-16.344,83.537-.327,16.4,2.985,34.151,17.15,44.281,21.333,16.727,60.081,20.506,74.392-6.888,23.746-43.2-20.455-87.575-8.934-132.041,5.444-29.4,26.053-52.053,53.886-62.271,26.392-10.828,56.781-14.831,83.962-4.494,23.3,9.04,47.891,38.508,59.206,60.308,35.2,61.919-2.58,106.318-43.067,151.734" fill="#2b2b2b"/>
        </g>
      </g>
    </g>
  </g>
</svg>
