<svg id="向量圖智慧型物件" xmlns="http://www.w3.org/2000/svg" xmlns:xlink="http://www.w3.org/1999/xlink" width="597" height="422" viewBox="0 0 597 422">
  <defs>
    <clipPath id="clip-path">
      <rect id="Rectangle_3233" data-name="Rectangle 3233" width="597" height="422" fill="none"/>
    </clipPath>
  </defs>
  <g id="Group_696" data-name="Group 696">
    <g id="Group_695" data-name="Group 695" clip-path="url(#clip-path)">
      <path id="Path_18226" data-name="Path 18226" d="M30.772,47.167c-49.092,23.583-26.736,88.579-18.5,99.87l36.6-4.207L24.547,164.908c3.364,21.121,31.131,51.542,45.994,58.231,31.265-9.481,72.733-26.722,103.6-44.1a168.512,168.512,0,0,1-50.731,39.456C92.1,232.85,69.045,241.978,98.422,268.752l79.2-65.019L111.39,296.265a272.327,272.327,0,0,1,73.405,60.46l87.145-55.686c-23.163,7.414-65.478,45.3-68.542,80.638,49.218,1.331,93.831,43.624,139.963,28.094,3.227-21.67,13.125-42.706,28.433-60.427-3.185,20.286-7.476,42.209-12.094,61.979,40.407-9.082,82.96-55.118,90.03-75.909a279.6,279.6,0,0,1,58.823,33.954c34,25.816,46.829,48.974,67.059,46.351,10.84-1.405,21.156-9.871,21.384-17.406.33-10.865-20.344-18.746-32.754-23.981-24.629-10.389-57.867-27.713-95.921-58.255,22.965-15.054,66.434-69.984,57.726-111.648.731-17.69-53.453-68.4-81.693-94.019q-15.722,23.6-34.047,48.44c-9.229,12.459-16.193,9.21-25.389,20.7,4.609-21.393,20.48-52.56,32.288-73.149C393.217,88.509,329.581,42.61,303.921,54.914c-12.7,5.51-29.118,67.391-32.193,79.474-1.378-27.8,1.1-47.652,3.984-61.418,7.033-22.327-11.339-32.373-30.283-33L232.091,76.658q-3.337-19.226-6.673-38.452c-8.761-13.7-39.68-26.9-56.177-25.419L157.856,46.834q-4.392-18.629-8.782-37.258C132.538,3.26,55.8,1.477,30.772,47.167" fill="#c65454"/>
      <path id="Path_18227" data-name="Path 18227" d="M38.276,168.124C45.119,192.134,62.617,212,83.8,224.643l-.213-.027a538.159,538.159,0,0,0,102.59-43.48,161.709,161.709,0,0,1-56.216,42.7c-24.214,10.78-46.346,19.866-18.292,44.906l-.768.019,76.254-62.327,3.561-2.91-2.668,3.747L124.654,296.3l-.169-.768a273.28,273.28,0,0,1,72.06,59.355l-.443-.067,84.261-52.945L196.218,355.56a272.5,272.5,0,0,0-72.767-59.4l63.592-89.605.893.836-76.619,62.65a34.519,34.519,0,0,1-12.955-17.491c-5.732-17.624,19.684-23.28,31.108-29.771a160.53,160.53,0,0,0,54.023-40.143l.622.783A531.986,531.986,0,0,1,83.627,225.154c-21.189-12.826-38.652-32.879-45.351-57.03" fill="#2b2b2b"/>
      <path id="Path_18228" data-name="Path 18228" d="M458.758,310.15c28.435-21.45,49.382-53.421,55.385-88.736C518.5,193.3,496,172.3,477.958,154.143c-12.842-12.876-31.771-30.374-45.263-42.892l.867-.111c-12.864,17.957-23.7,38.041-39.338,53.7-6.961,4.512-14.6,7.629-19.231,14.866,1.561-10.489,5.317-20.44,9.859-29.963,6.317-14.809,12.854-29.565,21.253-43.337l.148.81a355.408,355.408,0,0,0-43.178-29.15c-14.939-8.67-30-17.918-46.84-22.283-14.85-3.834-25.267-.256-30.308,14.956A400.322,400.322,0,0,0,265.31,135.2c-1.23-19.464-.964-39.137,2.519-58.37,7.37-23.585-6.747-34.317-28.956-35.781,22.4,1.326,36.546,12.108,29.337,35.85-3.187,18.389-3.45,37.165-2.317,55.758l-.714-.06a399.261,399.261,0,0,1,19.848-62.258c4.945-15.515,16.381-19.678,31.467-15.647,16.977,4.367,32.147,13.647,47.182,22.349a355.907,355.907,0,0,1,43.781,29.528c-8.482,13.88-15.051,28.759-21.414,43.7-4.069,8.716-7.779,17.594-9.324,27.143L375.6,176.9c4.392-6.236,11.88-8.972,17.88-13.061,15.6-15.734,26.6-35.9,39.494-53.906,13.779,12.844,32.654,30.3,45.7,43.488,18.137,18.345,40.694,39.744,36.167,68.078-6.162,35.4-27.444,67.334-56.082,88.65" fill="#2b2b2b"/>
      <path id="Path_18229" data-name="Path 18229" d="M271.568,309.321c-32.043,13.96-59.677,42.146-65.258,77.615l-.43-.528c46.946.8,88.486,42.289,136.176,28.133l-.443.531c3.083-22.377,13.565-43.371,28.508-60.165-3.261,20.529-6.791,41.782-11.485,61.991l-.615-.571C395.27,405.452,427.642,378.954,444.81,344c-16.961,35.559-49.616,62.52-87.3,73.5,4.455-19.794,7.976-40.621,11.111-60.714l1.029.471c-14.147,16.436-23.942,36.82-26.8,58.394-48.2,14.729-90.188-27.4-137.521-28.361,5.6-35.887,33.7-64.228,66.238-77.974" fill="#2b2b2b"/>
      <path id="Path_18230" data-name="Path 18230" d="M254.092,34.834l-12.769,36.63c-.16-.835-7.165-37.626-7.323-38.453l.075.161c-13.5-16.164-34.619-24.678-55.412-25.1l.513-.364L168.4,41.056l-.619,1.913-.486-1.953L158.169,4.38l.457.448C117.854-4.155,66.946,2.576,43,40.635,5.018,59.408,7.737,105.566,25.817,137.927l-.324-.168,36.527-3.713L37.835,155.732l23.613-21.6.122.273-36.228,4.036c-18.6-32.713-21.5-79.573,16.972-98.762l-.213.2C66.391,1.3,117.942-5.626,159.261,3.719l9.149,37.02-1.1-.039c.173-.529,10.826-33.183,10.993-33.692,21.169.449,42.66,9.177,56.32,25.712.194.122,6.834,37.823,6.939,37.993l-.357-.028Z" fill="#2b2b2b"/>
      <path id="Path_18231" data-name="Path 18231" d="M445.655,342.489a270.552,270.552,0,0,1,69.952,42.644c16.849,11.908,35.549,42.026,58.625,34.211,37.448-17.585-5.908-33.079-23.984-40.818-31.217-14.163-60.161-33.03-86.742-54.615,26.91,21.1,55.99,39.571,87.208,53.582,13.193,6.906,31.408,9.881,38.982,23.967,2.666,12.99-14.367,21.319-25.4,20.483-20.263-3.347-33.606-24.236-49.335-36.043a279.328,279.328,0,0,0-69.3-43.411" fill="#2b2b2b"/>
    </g>
  </g>
</svg>
