<svg xmlns="http://www.w3.org/2000/svg" xmlns:xlink="http://www.w3.org/1999/xlink" width="608.217" height="544.517" viewBox="0 0 608.217 544.517">
  <defs>
    <clipPath id="clip-path">
      <path id="矩形_1" data-name="矩形 1" d="M0,100H608.217V644.517H0V100Z" transform="translate(-5098 3662.08)" fill="#ead065"/>
    </clipPath>
    <clipPath id="clip-path-2">
      <rect id="Rectangle_3231" data-name="Rectangle 3231" width="751" height="708.001" transform="translate(0 -0.001)" fill="none"/>
    </clipPath>
  </defs>
  <g id="Mask_Group_19" data-name="Mask Group 19" transform="translate(5098 -3762.08)" clip-path="url(#clip-path)">
    <g id="向量圖智慧型物件" transform="translate(-5245.18 3611.4) rotate(-2)">
      <g id="Group_692" data-name="Group 692">
        <g id="Group_691" data-name="Group 691" clip-path="url(#clip-path-2)">
          <path id="Path_18214" data-name="Path 18214" d="M226.37,344.9c-10.6,47.781,9.293,46.555,4.5,115.82-3.566,38.615-3.592,79.629,2.632,118.1,1.326,8.2,5.7,13.485,10.225,20.6,4.573,7.186,6.7,15.257,11.719,22.3,18.933,26.785,87.969,72.222,122.516,71.083,26.316,2.355,48.559-4.947,63.429-19C533.663,595.8,579.8,556.784,578.183,518.971,545.674,384.818,386.431,378.429,306.561,329.916c-9.055-5.32-14.467-7.71-25.291-12.489-49.766-24.864-52.5-18.286-54.9,27.477" fill="#f7e2c4"/>
          <path id="Path_18215" data-name="Path 18215" d="M161.1,211.862c15.208-3.909,28.221-10.9,43.27-15.033,27.465-7.031,46.228-20.872,69.47-34.755,9.01-5.987,13.026-14.322,20.072-21.546,13.272-13.607,34.1-21.2,48.855-34.1,14.048-12.278,28.728-25.049,43.625-36.339,30.244-29.508,64.337-59.722,109.957-61.5,12.065-.314,23.793-2.121,35.851-2.48,17.361-.516,35.011-6.727,52.5-4.157,29.666,3.106,58.441,10.464,81.721,29.49,28.789,17.23,38.455,27.981,50.478,58.916,15.7,26.158,32.258,60.037,23.2,90.3-2.558,7.743-.374,14.977-2.865,22.7-3.272,10.136-8.339,18.538-10.8,29.053-16.351,72.351-82.931,118.041-153.644,134.4-92.641,13.018-185.424-22.054-265.611-64.828-18.328-5.185-31.021-19.509-45.746-30.785C243.846,257.61,221.476,252.09,205.34,236.5c-6.413-5.146-27.381-15.27-29.228-22.857" fill="#c65454"/>
          <path id="Path_18216" data-name="Path 18216" d="M219.145,359.485c-5.6,16.221-2.211,34.1.084,50.641l0-.016a211.576,211.576,0,0,1,4.3,69.774c-2.793,34.907-2.731,70.169,2.017,104.9.374,12.167,6.45,21.877,13.062,31.745,3.516,6.487,5.754,13.443,9.993,19.414,15.875,23.562,41.72,35.945,64.881,50.876,19.562,12.937,41.822,22.2,65.671,20.365,14.662,1,29.361-1.923,41.95-9.7,14.1-8.186,34.431-28.676,47.5-38.786,32.532-30.32,92.868-72.729,101.316-117.255,3.144-42.144-30.477-75.842-61.656-99.47-61.186-46.485-138.576-61.452-206.293-95.622-10.029-6.083-20.624-10.987-31.366-15.665-8-3.6-15.964-7.3-24.131-10.512-8.272-3.982-17.925-5.178-22.294,4.855-5.187,10.721-3.5,23.023-5.031,34.457m-.129-.04c1.5-17.544-.451-53.29,27.552-39.523,16.172,6.808,32.435,13.557,48.043,21.592,79.5,42.2,175.975,55.7,241.169,122.252,23.821,23.783,46.4,61.027,30.178,94.716-22.53,41.4-62.591,69.636-96.946,100.7C447.438,675.643,425,703.008,396.7,707.04c-32.677,3.224-56.078-1.278-83.607-19.609-31.437-19.479-61.287-33.5-75.513-70.345-6.544-9.729-12.947-19.924-13.226-32.138-5.874-40.691-3.562-81.81-.3-122.6a204.48,204.48,0,0,0-5.076-52.174c-2.224-16.547-5.638-34.515.04-50.732" fill="#2b2b2b"/>
          <path id="Path_18217" data-name="Path 18217" d="M186.876,208.269c21.25-6.894,42.342-14.572,63.567-21.642,17.189-7.256,32.776-17.783,48.959-26.969,9.841-5.753,15.514-15.8,23.868-23.351a111.247,111.247,0,0,1,18.279-13.049c30-15.588,53.8-39.874,81.229-59.268,14.568-11.617,26.645-26.478,43.119-35.658C485.236,17.2,506.39,7.524,528.973,6.2c13.041-.19,26.1-1.883,39.151-2.119,14.9-.549,29.594-5.123,44.595-3.866,23.8,3.388,48.982,7.428,68.368,22.744C712.655,48.71,723.116,49.83,733.793,92c12.3,27.62,23.176,59.34,13.467,89.445-2.79,6-3.708,12.364-4.547,18.89-1.149,7.477-5.158,14.093-8.484,20.753-7.172,13.131-10.584,27.909-18,40.957-10.808,19.549-23.123,38.9-39.8,53.988-28.5,24.157-63.078,40.965-98.27,52.984-21.765,5.943-44.606,5.96-66.986,4.947-22.567-.742-44.439-6.257-65.811-13.2-37.017-7.027-70.444-24.769-102.921-43.2-13.006-7.385-25.521-15.515-39.21-21.6-12.29-8.625-20.609-21.665-32.92-30.327-13.842-11.2-31.491-16.714-43.121-30.727-8.225-8.426-21.936-12.94-26.176-24.554l.134-.015c4.327,11.54,18.068,15.925,26.3,24.305,11.732,13.935,29.408,19.282,43.274,30.466,12.306,8.584,20.7,21.588,32.941,30.155,6.414,3.368,13.814,6.039,19.876,10.245,32.272,18.259,64.575,38.218,100.413,48.6,29.047,6.575,57.115,17.971,87.3,18.468,50.715,4.078,84.025-7.806,127.677-32.142,43.841-22.167,73.69-64.068,89.51-109.708,3.693-8.556,8.863-16.439,12.093-25.176,2.328-7.082,1.758-14.9,4.955-21.786,11.513-30.411.215-63.305-12.239-91.569-4.715-14.015-7.236-29.429-17.957-40.4-5.026-5.522-11.057-9.977-16.975-14.5C686.551,28.2,675.64,17.591,661.563,12.1c-13.779-5.88-28.682-8.118-43.365-10.6-7.334-1.35-14.846-1.036-22.23-.1C584.942,2.827,573.76,5.05,562.557,5.05c-40.836,2.157-59.506,2.511-96.081,24.271C450.067,38.49,438.1,53.347,423.524,64.93c-27.48,19.366-51.39,43.667-81.445,59.213a111.948,111.948,0,0,0-18.149,12.888c-6.942,6.13-12.036,14.334-19.442,20.125-17.3,10.97-35.027,21.772-53.82,30.023-21.3,6.94-42.381,14.445-63.76,21.221Z" fill="#2b2b2b"/>
          <path id="Path_18218" data-name="Path 18218" d="M.06,130.122c30.824,12.677,61.327,26.209,91.648,40.092,17.084,7.015,31.7,18.418,47.214,28.207,4.514,3.781,10.185,5.538,15.279,8.413a57.4,57.4,0,0,1,16.637,15.273c3.411,3.823,3.741,9.245,7.015,13.086,4.436,4.987,9.12,9.726,13.307,14.983,5.664,8.312,10.032,17.341,15.437,25.783,10.8,16.567,24.23,32.589,29.543,51.928l-.13.033c-8.263-25.436-28.688-44.859-40.765-68.474-5.485-12.419-18.8-19.4-22.837-32.457a53.694,53.694,0,0,0-20.838-20.569c-4.416-2.2-9.2-4.19-13.032-7.465-17.828-12.319-35.773-24.606-56.365-31.91C54.818,154.632,27.28,142.766,0,130.242Z" fill="#2b2b2b"/>
          <path id="Path_18219" data-name="Path 18219" d="M185.921,211.728q-.289-.353-.546-.72l.219.143c-8-.116-17.254,1.2-24.341-3.2l.057-.122c3.959.953,8.017,1.538,11.989,2.295,4.131.961,8.352-.516,12.5.568q.144.483.247.982Z" fill="#2b2b2b"/>
        </g>
      </g>
    </g>
  </g>
</svg>
