<svg xmlns="http://www.w3.org/2000/svg" xmlns:xlink="http://www.w3.org/1999/xlink" width="396.814" height="295.011" viewBox="0 0 396.814 295.011">
  <defs>
    <clipPath id="clip-path">
      <rect id="Rectangle_3323" data-name="Rectangle 3323" width="355.336" height="215.27" transform="translate(0 -215.27)" fill="none"/>
    </clipPath>
  </defs>
  <g id="向量圖智慧型物件" transform="matrix(-0.97, 0.242, -0.242, -0.97, 344.738, 0)">
    <g id="Group_756" data-name="Group 756">
      <g id="Group_755" data-name="Group 755" clip-path="url(#clip-path)">
        <path id="Path_21790" data-name="Path 21790" d="M127.607-127.7l-.284.14a.254.254,0,0,1,.023-.089.189.189,0,0,1,.261-.051" fill="#3f5146"/>
        <path id="Path_21791" data-name="Path 21791" d="M138-55.291c-2.891.562-4.27-.237-8.052.981-2.648.853-8.161,5.231-13.064,6.035-1.106-1.307-2.6-4.866-4.121-7.333-1.437-2.334-3.617-8.686-4.518-16.595-.635-5.572.951-7.649,1.1-12.779a50.338,50.338,0,0,0-5.638-24.053c.235-.716.5-1.4.784-2.056,4.207-9.634,14.047-14.307,20.252-16.481a53.8,53.8,0,0,1,14.21-13.372c8.061-5.178,15.43-6.809,20.873-7.962a75.951,75.951,0,0,1,25-1.341c5.734.611,11.475,1.158,17.214,1.715a103.364,103.364,0,0,1,16,2.611c6.433,1.672,12.416,5.166,18.721,7.321,4.511,1.541,8.82,3.621,13.224,5.528,4.758,2.06,9.547,4.039,14.223,6.356,3.331,1.65,6.584,3.8,10.011,5.139,1.688.661,3.327,1.3,5.008,2.036,1.4.615,2.831,1.027,4.231,1.628a20.868,20.868,0,0,1,4.871,3.142,50.07,50.07,0,0,0,6.237,4.047,30.277,30.277,0,0,0,5.72,2.926,27.686,27.686,0,0,0,5.892,1.354c9.79,1.043,22.614-.589,22.614-.589,15.59-1.987,23.427-2.9,25.483.96a9.329,9.329,0,0,1,.779,6.355c-1.246,4.156-6.494,6.118-41.628,8.911-3.058.243-4.632.352-6.844.491-11.323.708-20.542.773-26.805.7l1.728-2.57c-28.322,19.611-48.7,26.39-62.5,28.775-22.709,3.924-40.965,7.416-50.254,7.991A266.348,266.348,0,0,1,138-55.291" fill="#3f5146"/>
        <path id="Path_21792" data-name="Path 21792" d="M104.023-106.805c1.065,1.569,1.7,6.11,1.336,6.151-.308.039-1.544-3.143-1.985-6.784a2.013,2.013,0,0,1,.649.633" fill="#f7e2c4"/>
        <path id="Path_21793" data-name="Path 21793" d="M260.981-134.025c-.377.915-20.267-7.353-37.147-12.628,0,0-54.555-17.054-80.179-1.24l-.115.073c-.445.288-1.386,1.078-19.833,14.805-13.9,10.346-19.758,14.652-20.427,21.635a18.606,18.606,0,0,0,.092,3.942,1.1,1.1,0,0,0-.175-.087,2.937,2.937,0,0,0-1.439.089,81.552,81.552,0,0,1,3.963,22.8c.2,7.653-.079,11.031,1.062,17.177a51.775,51.775,0,0,0,7.794,19.034A26.486,26.486,0,0,1,111.9-36.789a26.389,26.389,0,0,1-5.728,7.714l-.01,1.714c-.872,2.983-2.06,5.936-4.493,8.154-2.355,2.15-5.035,2.73-8.253,2.572a10.3,10.3,0,0,1-2.637-.555,9.56,9.56,0,0,0-2.2-.68c-.852-.024-.925.682-1.209,1.411-.258.664-.413,1.345-.71,2-.927,2.036-2.122,4.728-4.507,5.568a3.524,3.524,0,0,1-2.437.044A18.947,18.947,0,0,0,77.2-9.857c-.824-.109-1.075.227-1.362.873a4.073,4.073,0,0,1-1.879,2.136,5.681,5.681,0,0,1-2.779.732,46.112,46.112,0,0,1-9.556-1.11l7.373-7.888c1.41-1.475,6.594-7.241,6.433-15.534-.147-7.569-4.656-12.483-8.14-16.28-.724-.788-13.3-14.138-26.258-10.906a16.95,16.95,0,0,0-2.163.7c-10.644-6.151-14.94-7.894-16.377-7.814-.175.009-1.153-.019-2.49-.017a23.933,23.933,0,0,1-2.66-.376,26.524,26.524,0,0,1-3.114-.071,13.985,13.985,0,0,1-1.855-.667,29.438,29.438,0,0,1-5.481-3.265,21.254,21.254,0,0,1-2.422-1.721c-.559-.48-1.746-.823-2.1-1.492.881-.365,2.669-.042,3.616-.036,1.43.007,2.729-.252,4.138-.335a17.568,17.568,0,0,0,3.846-.209,28.357,28.357,0,0,0,3.445-1.528c1.409-.6,2.741-1.343,4.133-1.946,1.111-.481,2.3-.833,3.415-1.335,1.554-.7,3.05-2.17,4.753-2.412a18.435,18.435,0,0,1,4.554.054c2.5.165,6.423-.97,8.454-1.629q-2.252-.094-4.5-.193A57.4,57.4,0,0,0,45.1-87.785c4.584-4.406,4.557-5.856,9.765-12.127,5.035-6.061,10.562-11.33,12.482-15.448.119-.254.84-1.734,1.821-3.76a39.314,39.314,0,0,1,1.968-3.7c.85-1.361,1.679-2.732,2.558-4.073.776-1.183,1.422-2.3,2.719-4.462,2.625-4.377,3.938-6.566,8.348-14.081,3.071-5.231,20.583-29.038,48.016-33.253,14.385-2.212,30.229,1.159,37.792,3.9a101.605,101.605,0,0,0,12.19,3.67c4.786,1.123,9.659,1.4,14.482,2.22a35.065,35.065,0,0,0,5.163.636,4.923,4.923,0,0,0,3.351-.756,15.034,15.034,0,0,0,2.429-2.411c.7-.684,2.06-1.557,1.879-2.735l5.143-.473c-.041.463.239.734.348,1.139a4.1,4.1,0,0,1,.065,1.675,7.361,7.361,0,0,1-.942,2.642c-.584,1.052-2.187,3.492-3.637,3.52.067-.009.136-.016.2-.024l3.914.651c1.895.3,3.811.719,5.716.932a11.531,11.531,0,0,0,2.746,0c.688-.1,1.454-.578,2.162-.439.384.751-.616,2.109-.863,2.84-.334,1-1.155,2.647-.753,3.734.241.655,1.451,1.117,2.083,1.346a17.89,17.89,0,0,0,3.169.49,17.6,17.6,0,0,1,3.016.8c.7.231,1.729-.3,2.222.131.381.334.09,1.251.1,1.657a6.228,6.228,0,0,0,.309,1.74c.173.539.614,1.792,1.16,1.981a27.439,27.439,0,0,1,5.591,1.141,7.844,7.844,0,0,1,1.941,1.093c1.317.943,2.773,1.64,4.14,2.5,2.221,1.393,4.359,3.094,6.437,4.707a8.475,8.475,0,0,1,1.128,1.07c.137.141.485.494,1.2,1.184,1.819,1.764,4.469,3.758,4.324,4.111" fill="#f7e2c4"/>
        <path id="Path_21794" data-name="Path 21794" d="M75.526-29.456c-.217.98-1.531,2.829-4.158,6.526-1.457,2.049-2.738,3.683-3.636,4.789l-.156-.7c-.741,2.314-.584,4.666-1.68,6.941a24.96,24.96,0,0,1-3.637,5.225,29.32,29.32,0,0,1-4.3,3.9c-.672.535-2.051,1.822-3.188,1.265-.716-.351-.395-1.575-.412-2.115q-.067-2.057-.13-4.113l-.247-7.844.062,6.432c-.36-11.412.074-22.881-4.987-33.63-1.883-4-3.89-8.178-6.845-11.679-.775-.919-2.835-2.889-2.654-4.1L40-58.615A145.293,145.293,0,0,1,55.073-50.1c7.578,4.89,21.894,14.127,20.453,20.648" fill="#e2a460"/>
        <path id="Path_21795" data-name="Path 21795" d="M39-56.785l-.474,0H38.5l-.006.027a2.407,2.407,0,0,0,.4,1.593,11.372,11.372,0,0,0,.927,1.36l1.015,1.257c.322.421.635.855.936,1.291a43.7,43.7,0,0,1,3.185,5.521c.913,1.916,1.847,3.876,2.644,5.836.43.965.766,1.966,1.124,2.958.3,1.012.627,2.016.862,3.048a47.888,47.888,0,0,1,1.173,6.244c.288,2.107.46,4.234.594,6.372.257,4.274.317,8.591.655,12.9.342-4.306.64-8.605.623-12.943A53.8,53.8,0,0,0,51.18-34.292a37.175,37.175,0,0,0-2.145-6.224c-.444-1.016-.927-1.965-1.409-2.941s-.983-1.935-1.523-2.881a35.937,35.937,0,0,0-3.664-5.425,31.21,31.21,0,0,0-2.24-2.372,11.134,11.134,0,0,1-1.051-1.192,2.332,2.332,0,0,1-.587-1.412l-.032.028Z" fill="#2b2b2b"/>
        <path id="Path_21796" data-name="Path 21796" d="M52.151-14.615c-.342,3.066-.521,6.133-.643,9.2-.033.767-.065,1.534-.079,2.3,0,.263-.1.647-.122,1.126a2.385,2.385,0,0,0,.092.826,1.53,1.53,0,0,0,.688.874,2.362,2.362,0,0,0,1.662.231,4.4,4.4,0,0,0,1.3-.5,11.918,11.918,0,0,0,1.042-.669l.942-.646a28.078,28.078,0,0,0,3.679-2.971,30.373,30.373,0,0,0,3.033-3.6A15.1,15.1,0,0,0,64.967-10.5a9.82,9.82,0,0,0,.742-2.294c.295-1.556.342-3.064.718-4.564A31.208,31.208,0,0,0,64.925-13a9.1,9.1,0,0,1-.909,1.988,16.526,16.526,0,0,1-1.3,1.8,39.687,39.687,0,0,1-3.095,3.259,29,29,0,0,1-3.534,2.739l-.944.672a10.4,10.4,0,0,1-.885.592,1.706,1.706,0,0,1-1.405.32s.021.047-.008,0a.91.91,0,0,1-.043-.311c-.013-.288.076-.659.064-1.163-.014-.767-.046-1.533-.079-2.3-.121-3.066-.3-6.133-.64-9.2" fill="#2b2b2b"/>
        <path id="Path_21797" data-name="Path 21797" d="M66.567-16.677a8.8,8.8,0,0,0,5.005-4.893,9.305,9.305,0,0,0,.709-3.533,8.423,8.423,0,0,0-.675-3.463C71.4-27.4,71.239-26.3,71-25.241a18.594,18.594,0,0,1-.952,3.041,17.056,17.056,0,0,1-1.488,2.8c-.594.9-1.28,1.775-1.994,2.719" fill="#2b2b2b"/>
        <path id="Path_21798" data-name="Path 21798" d="M64.207-7.814a23.647,23.647,0,0,0,3.317.084,14.943,14.943,0,0,0,1.667-.177c.531-.093,1.055-.109,1.64-.2a4.251,4.251,0,0,0,1.68-.658A4.434,4.434,0,0,0,73.871-10c.362-.484.586-1.164.775-1.341.08-.068.1-.071.295-.074a2.025,2.025,0,0,1,.6.138c.425.158.878.448,1.433.707a5.119,5.119,0,0,0,1.855.454,4.51,4.51,0,0,0,1.907-.39,5.836,5.836,0,0,0,1.6-1.008,9.959,9.959,0,0,0,2.112-2.856c.271-.506.51-1.018.741-1.522a11.345,11.345,0,0,0,.637-1.622l.242-.75.267-.769c.075-.22.154-.294.11-.252a.928.928,0,0,1,.257.009,8.77,8.77,0,0,1,1.415.466,13.806,13.806,0,0,0,1.685.478,8.477,8.477,0,0,0,1.783.2c.568.014,1.143-.007,1.717-.05a11.235,11.235,0,0,0,3.4-.766,10.8,10.8,0,0,0,5.111-4.5,19.134,19.134,0,0,0,2.262-6.245A22.865,22.865,0,0,1,101.14-23.9a10.337,10.337,0,0,1-4.89,3.746,11.226,11.226,0,0,1-3.04.531c-.522.019-1.048.021-1.577-.01a6.9,6.9,0,0,1-1.482-.217c-.473-.124-1.043-.284-1.476-.447a9.561,9.561,0,0,0-1.71-.563,1.977,1.977,0,0,0-1.349.186,2.007,2.007,0,0,0-.809,1.074l-.282.783c-.1.282-.191.555-.271.814a9.649,9.649,0,0,1-.55,1.445c-.219.5-.442.982-.683,1.447a9,9,0,0,1-1.732,2.448,4.287,4.287,0,0,1-1.147.785,3.091,3.091,0,0,1-1.283.325,3.971,3.971,0,0,1-1.339-.279c-.455-.176-.947-.459-1.566-.656a3.281,3.281,0,0,0-1.011-.156,1.777,1.777,0,0,0-.619.115,1.44,1.44,0,0,0-.565.4,3.124,3.124,0,0,0-.473.876,5.481,5.481,0,0,1-.318.667,3.369,3.369,0,0,1-.985,1.043,3.421,3.421,0,0,1-1.317.65c-.491.13-1.065.212-1.607.365-.522.139-1.05.252-1.585.348-1.071.187-2.168.284-3.266.366" fill="#2b2b2b"/>
        <path id="Path_21799" data-name="Path 21799" d="M104.073-31.413c3.41-2.922,6.452-6.254,9.548-9.445a32.948,32.948,0,0,0,4.1-5.429,20.09,20.09,0,0,1,1.982-2.531,24.577,24.577,0,0,1,2.413-2.161,21.105,21.105,0,0,1,5.51-3.312c2.1-.76,4.179-1.679,6.232-2.391,4.129-1.408,8.66-1.44,13.135-1.474a56.628,56.628,0,0,0-6.724-.586,24.146,24.146,0,0,0-6.787.831c-2.226.609-4.259,1.482-6.4,2.159a21.971,21.971,0,0,0-6,3.488,26.4,26.4,0,0,0-2.555,2.344,19.438,19.438,0,0,0-2.107,2.774,36.812,36.812,0,0,1-3.747,5.42c-2.974,3.378-5.65,6.943-8.607,10.314" fill="#2b2b2b"/>
        <path id="Path_21800" data-name="Path 21800" d="M135.735-57.825c6.277.484,12.579.638,18.881.626,3.152-.03,6.3-.127,9.451-.271,3.144-.116,6.323-.413,9.446-.813,6.267-.772,12.466-1.893,18.67-2.959l18.586-3.3c3.093-.581,6.182-1.1,9.295-1.775s6.155-1.531,9.177-2.469a129.78,129.78,0,0,0,17.595-7.052A188.278,188.278,0,0,0,263.4-84.981c5.333-3.357,10.553-6.883,15.61-10.627-5.271,3.437-10.569,6.823-16.024,9.934-5.424,3.163-10.987,6.083-16.686,8.691a148.249,148.249,0,0,1-17.5,6.766c-2.991.9-6,1.734-9.062,2.36-3.042.634-6.164,1.132-9.256,1.7-12.377,2.277-24.733,4.706-37.135,6.628-3.108.472-6.192.835-9.335,1.027-3.132.225-6.269.384-9.409.5-6.278.284-12.569.291-18.862.177" fill="#2b2b2b"/>
        <path id="Path_21801" data-name="Path 21801" d="M277.293-93.029q10.26.183,20.525-.274c6.84-.287,13.667-.831,20.487-1.389,6.818-.6,13.634-1.255,20.424-2.272,1.7-.272,3.391-.554,5.078-.929a29.706,29.706,0,0,0,5.012-1.47,8.95,8.95,0,0,0,1.213-.572,6.37,6.37,0,0,0,1.154-.751,5.077,5.077,0,0,0,1.714-2.252,8.46,8.46,0,0,0,.083-5.426,11.407,11.407,0,0,0-.45-1.279,6.419,6.419,0,0,0-.3-.636l-.42-.621a5.369,5.369,0,0,0-2.373-1.629,12.519,12.519,0,0,0-1.326-.385c-.442-.07-.886-.153-1.329-.207l-1.322-.106-1.312-.032a92.708,92.708,0,0,0-10.309.8c-3.4.388-6.81.912-10.172,1.264-3.384.348-6.784.581-10.18.679a78.37,78.37,0,0,1-10.138-.3,26.814,26.814,0,0,1-4.862-1.079,20.714,20.714,0,0,1-4.5-2.048l-4.4-2.591c-.721-.438-1.429-.884-2.108-1.362s-1.3-.986-2.006-1.535a19.6,19.6,0,0,0-4.565-2.751c-.822-.339-1.644-.615-2.438-.9s-1.523-.6-2.342-.922l-4.777-1.9a46.643,46.643,0,0,1-4.53-2.2c-1.5-.807-2.994-1.649-4.549-2.424s-3.109-1.483-4.679-2.184c-3.138-1.4-6.3-2.7-9.451-4.029s-6.25-2.747-9.444-4.035c-1.591-.645-3.226-1.25-4.85-1.792-1.594-.543-3.169-1.169-4.737-1.826-3.138-1.314-6.258-2.754-9.516-3.926a57.231,57.231,0,0,0-10.057-2.523c-3.4-.57-6.819-.946-10.238-1.239-6.821-.586-13.6-1.225-20.457-1.769a69.639,69.639,0,0,0-20.525,1.54,54.942,54.942,0,0,0-18.713,8.406,52.805,52.805,0,0,0-7.749,6.745l-3.62,3.628c-.6.611-1.219,1.2-1.8,1.829a9.53,9.53,0,0,1-1.848,1.757l.009,0a.231.231,0,0,1,.076-.205.191.191,0,0,1,.217-.009.193.193,0,0,0-.22,0,.242.242,0,0,0-.084.21v.01l.009-.006a9.475,9.475,0,0,0,1.895-1.718c.59-.614,1.228-1.186,1.841-1.783l3.71-3.542a52.323,52.323,0,0,1,7.814-6.56,54.309,54.309,0,0,1,18.645-7.977,68.833,68.833,0,0,1,20.27-1.291c6.778.613,13.61,1.331,20.413,1.991,3.394.328,6.775.739,10.117,1.337a56.39,56.39,0,0,1,9.807,2.5c3.177,1.156,6.269,2.6,9.433,3.934,1.583.669,3.186,1.314,4.826,1.881,1.619.546,3.19,1.135,4.766,1.779,3.144,1.281,6.247,2.722,9.408,4.06s6.3,2.656,9.408,4.052c1.55.7,3.1,1.418,4.609,2.171s2.984,1.595,4.494,2.416a48.423,48.423,0,0,0,4.682,2.3l4.75,1.9c.773.3,1.622.672,2.434.948s1.616.557,2.377.866a18.066,18.066,0,0,1,4.2,2.52c.644.5,1.347,1.08,2.072,1.572s1.461.968,2.2,1.413l4.446,2.593a22.245,22.245,0,0,0,4.822,2.167,28.361,28.361,0,0,0,5.147,1.12,79.356,79.356,0,0,0,10.36.275c3.44-.113,6.869-.361,10.289-.725,3.441-.374,6.791-.9,10.189-1.3a95.774,95.774,0,0,1,10.136-.838,14.6,14.6,0,0,1,4.835.593,4.065,4.065,0,0,1,1.817,1.2,6.3,6.3,0,0,1,.968,2.087,7.251,7.251,0,0,1,0,4.634c-.491,1.435-1.91,2.318-3.408,2.961a28.771,28.771,0,0,1-4.8,1.461c-1.648.385-3.326.682-5,.97-6.729,1.088-13.533,1.808-20.334,2.5s-13.609,1.345-20.435,1.754-13.661.653-20.5.707" fill="#2b2b2b"/>
        <path id="Path_21802" data-name="Path 21802" d="M103.231-108.144a4.114,4.114,0,0,0-.148-.989,1.14,1.14,0,0,1,.218-.825,19.3,19.3,0,0,1,1.039-1.641,23.5,23.5,0,0,1,2.475-2.954l2.807-2.757c.927-.933,1.833-1.878,2.774-2.773a45.244,45.244,0,0,1,5.949-4.969,52.41,52.41,0,0,0,6.246-4.9c-2.31,1.312-4.653,2.469-6.948,3.82a33.54,33.54,0,0,0-3.358,2.217,36.965,36.965,0,0,0-3.04,2.65c-1.9,1.9-3.636,3.812-5.389,5.858a18.145,18.145,0,0,0-2.211,3.4,15.41,15.41,0,0,0-.761,1.874,1.439,1.439,0,0,0-.034,1.08,4.091,4.091,0,0,1,.382.91" fill="#2b2b2b"/>
        <path id="Path_21803" data-name="Path 21803" d="M43.513-59.566a1.3,1.3,0,0,0,.439,1.327c.369.332.81.555,1.165.862a13.02,13.02,0,0,0,2.454,1.593,33.918,33.918,0,0,1,4.877,3.078c1.566,1.132,3.125,2.293,4.8,3.316a25.28,25.28,0,0,0,2.608,1.4c.441.214.933.391,1.363.573s.857.368,1.274.578c3.363,1.7,5.881,4.632,8.482,7.5.663.713,1.318,1.4,1.886,2.123s1.038,1.541,1.643,2.366a14.654,14.654,0,0,0,.965,1.155,8.592,8.592,0,0,1,.786,1.079c.251.394.451.776.718,1.238a6.028,6.028,0,0,0,.473.692,2.116,2.116,0,0,0,.912.7l.76.3.252-.812a7.726,7.726,0,0,0,.251-2.99,12.6,12.6,0,0,0-.589-2.825c-.665-1.938-1.976-3.306-2.361-4.795a4.088,4.088,0,0,1-.11-.548c-.018-.091-.013-.182-.022-.274l-.007-.131a.132.132,0,0,0,.007-.048c.011-.065-.015-.013.007-.033a.641.641,0,0,1,.266-.092,4.578,4.578,0,0,1,1.129,0l1.348.154c.567.049,1.032-.017,1.391,0a1.283,1.283,0,0,1,.4.062c.105.033.3.169.649.3a3.158,3.158,0,0,0,.443.106l.373.059c.247.032.489.055.733.068a6.134,6.134,0,0,0,1.572-.076l.446-.087.152-.486A1.671,1.671,0,0,0,85.2-43.5a2.816,2.816,0,0,0-.752-.719c-.245-.169-.483-.305-.689-.427-.107-.064-.189-.116-.264-.168l-.274-.206a19.063,19.063,0,0,0-2.463-1.94l-5.364-2.859L70.03-52.671c-.912-.466-1.845-.9-2.8-1.295-.475-.2-.978-.367-1.389-.551a12.56,12.56,0,0,1-1.278-.677c-.837-.512-1.742-1.071-2.652-1.525s-1.8-.906-2.63-1.425A22.8,22.8,0,0,0,56.512-59.5c-.894-.4-1.737-.946-2.685-1.392a7.437,7.437,0,0,0-1.487-.521,5.265,5.265,0,0,1-1.381-.46,6.558,6.558,0,0,0-.725-.308,2.963,2.963,0,0,0-.81-.134c-.528-.025-1.033.036-1.514.008a7.452,7.452,0,0,0-1.546-.041,2.214,2.214,0,0,0-1.307.871c-.336.388-.628.8-.965,1.168a1.8,1.8,0,0,1-1.266.715,1.844,1.844,0,0,0,1.34-.643c.368-.352.691-.745,1.042-1.1a2.07,2.07,0,0,1,1.194-.718,7.553,7.553,0,0,1,1.474.12c.527.058,1.035.022,1.516.07a3.014,3.014,0,0,1,1.328.465,5.906,5.906,0,0,0,1.458.572,6.764,6.764,0,0,1,1.345.548c.861.456,1.688,1.061,2.623,1.53a22.245,22.245,0,0,1,2.62,1.4c.864.585,1.77,1.069,2.642,1.563s1.676,1.019,2.55,1.58a13.4,13.4,0,0,0,1.379.777c.506.239.961.4,1.411.6.906.4,1.792.843,2.668,1.32,1.73.978,3.511,1.979,5.282,2.947l5.288,2.927a20.63,20.63,0,0,1,2.253,1.849l.33.25c.131.093.264.177.373.242.227.137.427.253.6.373a1.328,1.328,0,0,1,.346.312c.04.083.023.026.024.065l.6-.572a6.674,6.674,0,0,1-2.25-.124c-.075-.017-.263-.141-.576-.272a2.8,2.8,0,0,0-.927-.178c-.542-.021-.981.035-1.314,0a11.1,11.1,0,0,0-2.911-.145,2.215,2.215,0,0,0-.978.4,1.741,1.741,0,0,0-.444.5,1.833,1.833,0,0,0-.193.605l-.025.289c0,.08.007.138.01.207.011.133.01.268.034.4a5.774,5.774,0,0,0,.16.776c.6,2.019,1.939,3.368,2.414,4.875a8.636,8.636,0,0,1,.356,4.819l1.012-.509a1.79,1.79,0,0,1-.2-.2,4.4,4.4,0,0,1-.348-.5c-.223-.372-.482-.842-.758-1.258a10,10,0,0,0-.942-1.249,13.355,13.355,0,0,1-.912-1.054c-.554-.725-1.056-1.566-1.708-2.373-.64-.789-1.336-1.491-2-2.185-2.616-2.774-5.356-5.8-9.016-7.541-.457-.209-.918-.406-1.393-.571s-.894-.311-1.332-.5a23.947,23.947,0,0,1-2.555-1.253c-1.661-.941-3.266-2.014-4.895-3.067a34.567,34.567,0,0,0-5.085-2.86,14.21,14.21,0,0,1-2.493-1.427c-.4-.3-.849-.489-1.225-.782a1.256,1.256,0,0,1-.5-1.253" fill="#2b2b2b"/>
        <path id="Path_21804" data-name="Path 21804" d="M36.92-59.95q-4.613-1.2-9.282-2.189c-1.56-.318-3.118-.643-4.721-.838-.4-.043-.8-.089-1.226-.1l-1.216-.017c-.773-.033-1.608,0-2.294-.09a19.36,19.36,0,0,0-2.408-.386,22.528,22.528,0,0,1-2.315,0,10.262,10.262,0,0,1-2.1-.734A13.455,13.455,0,0,1,9.338-65.34c-1.3-.8-2.595-1.771-3.939-2.626-.328-.215-.644-.43-.946-.653l-.444-.344c-.143-.112-.267-.238-.508-.408-.412-.277-.774-.44-1.086-.623a1.665,1.665,0,0,1-.592-.47l-.378,1.078a4.839,4.839,0,0,1,1.681-.08l1.02.076a9.694,9.694,0,0,0,1.106.017c1.449-.051,2.809-.325,4.073-.356.636-.017,1.322.032,2.068,0a6.876,6.876,0,0,0,2.253-.464,19.8,19.8,0,0,0,1.931-.91c.3-.153.59-.3.88-.426l.954-.439c1.259-.6,2.448-1.259,3.653-1.756a27.574,27.574,0,0,0,3.872-1.666A14.373,14.373,0,0,1,28.3-77.263a8.548,8.548,0,0,1,.909-.139c.32-.035.637-.054.957-.059.637-.011,1.3.041,1.987.088a14.619,14.619,0,0,0,4.269-.218,17.811,17.811,0,0,0,4-1.405,12.433,12.433,0,0,1,1.758-.747,1.211,1.211,0,0,1,.17-.025c-.032-.008-.037-.049-.037-.034a1.33,1.33,0,0,1-.167.619c-.544,1.131-1.364,2.286-2.059,3.459a25.485,25.485,0,0,0-3.276,7.6,18.1,18.1,0,0,0-.457,4.111,16.744,16.744,0,0,0,.564,4.068m0,0A17.523,17.523,0,0,1,37.33-68a26.718,26.718,0,0,1,3.564-7.218c.742-1.145,1.57-2.187,2.27-3.491a4.178,4.178,0,0,0,.224-.562,1.591,1.591,0,0,0,.055-.783,1.1,1.1,0,0,0-.649-.8,1.449,1.449,0,0,0-.84-.056,12.132,12.132,0,0,0-2.042.774,14.105,14.105,0,0,1-7.65,1.313c-.673-.056-1.375-.128-2.106-.129-.364,0-.731.015-1.091.048a9.681,9.681,0,0,0-1.12.155,14.216,14.216,0,0,0-3.822,2,27,27,0,0,1-3.664,1.536c-1.329.539-2.54,1.2-3.749,1.772l-.911.411c-.337.146-.657.3-.968.462-.62.311-1.2.625-1.772.846a5.163,5.163,0,0,1-1.742.368c-.62.033-1.3-.01-2.032.01-1.474.054-2.808.334-4.093.381a7.9,7.9,0,0,1-.944-.009l-1.026-.07a5.783,5.783,0,0,0-2.377.233L0-70.5l.467.775a2.917,2.917,0,0,0,1.2,1.055c.378.209.741.376.99.54.088.054.253.2.423.332l.5.376c.34.243.686.467,1.025.682C5.96-65.925,7.213-65,8.644-64.172A14.718,14.718,0,0,0,10.9-63.106a10.778,10.778,0,0,0,2.412.74,21.276,21.276,0,0,0,2.443-.056,22.327,22.327,0,0,1,2.3.29c1.732.1,3.249-.116,4.78.014,1.557.13,3.132.341,4.7.578,3.136.474,6.259,1.051,9.39,1.591" fill="#2b2b2b"/>
        <path id="Path_21805" data-name="Path 21805" d="M37.752-82.157A3,3,0,0,1,38.93-83.33c.474-.307.943-.62,1.43-.9a7.007,7.007,0,0,0,1.389-.994c.412-.4.769-.845,1.137-1.267.732-.84,1.58-1.6,2.318-2.471a10.577,10.577,0,0,0,1.025-1.383c.3-.507.542-.985.852-1.459.6-.944,1.268-1.846,1.921-2.772.675-.921,1.227-1.918,1.895-2.8,1.326-1.791,2.929-3.384,4.339-5.19a54.005,54.005,0,0,0,3.592-5.791,28.138,28.138,0,0,1,1.839-2.773,12.647,12.647,0,0,0,1.791-3c.463-1.063.823-2.15,1.2-3.2A18.146,18.146,0,0,1,65.2-120.22c.59-1.017,1.076-1.992,1.655-2.946.555-.949,1.211-1.845,1.85-2.783l1.929-2.787c.661-.967,1.216-1.955,1.824-2.863a15.661,15.661,0,0,1,.968-1.3l1.067-1.335,2.065-2.688a40.121,40.121,0,0,1,4.379-5c1.712-1.479,3.266-3.227,4.833-4.768.774-.752,1.668-1.526,2.458-2.335a32.824,32.824,0,0,1,2.426-2.249l1.336-1.018c.454-.352.9-.711,1.34-1.074.881-.726,1.738-1.47,2.592-2.208a63.242,63.242,0,0,1,5.213-4.184c.453-.313.913-.607,1.379-.9l1.433-.919,2.865-1.835c.492-.311.934-.617,1.394-.878s.952-.519,1.451-.764c1-.49,2.047-.967,3.067-1.552a45.522,45.522,0,0,1,6.019-2.831q1.556-.607,3.15-1.127l1.6-.507c.546-.163,1.1-.349,1.633-.529a16.834,16.834,0,0,1,3.16-.832l3.344-.538a70.8,70.8,0,0,1,13.357-1.179l13.556-.077c2.253-.013,4.5.007,6.726.171a31.383,31.383,0,0,1,6.562,1.086c2.133.62,4.219,1.484,6.366,2.237a38.938,38.938,0,0,0,6.623,1.7c2.238.392,4.485.676,6.721.981,2.243.285,4.447.68,6.687,1.066a23.685,23.685,0,0,0,3.4.325,6.957,6.957,0,0,0,1.725-.116,4.927,4.927,0,0,0,1.58-.716,19.333,19.333,0,0,0,2.435-2.372c.414-.376.871-.719,1.256-1.139a1.9,1.9,0,0,0,.618-1.526,1.87,1.87,0,0,1-.663,1.484c-.394.4-.857.72-1.293,1.087A19.421,19.421,0,0,1,204.8-167.7a4.736,4.736,0,0,1-1.509.635,6.618,6.618,0,0,1-1.649.064,23.356,23.356,0,0,1-3.334-.413c-2.2-.441-4.436-.9-6.668-1.25-2.232-.367-4.461-.711-6.663-1.159a39.128,39.128,0,0,1-6.46-1.78c-2.1-.776-4.183-1.681-6.38-2.362-4.447-1.348-9.064-1.457-13.583-1.528q-6.784-.07-13.556-.079a72.282,72.282,0,0,0-13.615,1.125l-3.35.52a18.385,18.385,0,0,0-3.389.871c-.54.179-1.056.349-1.592.506l-1.635.508q-1.63.527-3.235,1.137a46.988,46.988,0,0,0-6.25,2.9c-.942.533-1.954.988-2.986,1.487-.516.251-1.036.514-1.55.807s-1.016.626-1.477.922l-2.829,1.834-1.415.919c-.49.309-.979.626-1.452.959a64.008,64.008,0,0,0-5.325,4.319c-.852.742-1.7,1.484-2.553,2.2-.429.356-.861.708-1.3,1.049l-1.353,1.043a34.265,34.265,0,0,0-2.528,2.367c-.783.811-1.6,1.518-2.438,2.342-1.641,1.634-3.082,3.284-4.78,4.77a41.35,41.35,0,0,0-4.51,5.2l-2.047,2.693-1.038,1.315a14.29,14.29,0,0,0-1.036,1.426c-.631.979-1.167,1.968-1.768,2.877l-1.878,2.812c-.616.936-1.281,1.878-1.849,2.888-.574.984-1.082,2.038-1.609,2.982a18.822,18.822,0,0,0-1.581,3.1c-.368,1.078-.7,2.142-1.124,3.154a11.476,11.476,0,0,1-1.622,2.82,29.863,29.863,0,0,0-1.853,2.9,55.935,55.935,0,0,1-3.435,5.773c-1.318,1.792-2.886,3.437-4.2,5.316-.675.939-1.191,1.94-1.827,2.857-.622.936-1.276,1.866-1.857,2.846-.3.479-.552,1.014-.815,1.487a10.489,10.489,0,0,1-.953,1.36c-.7.874-1.522,1.646-2.245,2.533-.355.441-.692.89-1.079,1.291A6.712,6.712,0,0,1,40.3-84.336c-.481.3-.938.634-1.4.955a3.016,3.016,0,0,0-1.143,1.224" fill="#2b2b2b"/>
        <path id="Path_21806" data-name="Path 21806" d="M210.7-164.056l-.215-.055.006.148a2.214,2.214,0,0,0,1.514-.2,5.247,5.247,0,0,0,1.257-.823,8.736,8.736,0,0,0,1.838-2.249,6,6,0,0,0,.862-2.874,3.909,3.909,0,0,0-.247-1.53,2.222,2.222,0,0,0-.408-.661,1.371,1.371,0,0,1-.339-.572,1.188,1.188,0,0,0-.072.753,2.079,2.079,0,0,1,.037.629,4.764,4.764,0,0,1-.242,1.2,9.79,9.79,0,0,1-1.018,2.236c-.429.728-.9,1.469-1.389,2.169a4.837,4.837,0,0,1-1.791,1.772l.007.147Z" fill="#2b2b2b"/>
        <path id="Path_21807" data-name="Path 21807" d="M214.644-163.312c1.745.54,3.475,1.094,5.282,1.476a12,12,0,0,0,2.818.31,5.323,5.323,0,0,0,1.493-.22,2.193,2.193,0,0,1,.987-.115l-.5-.39a2.113,2.113,0,0,1-.281.786c-.207.411-.483.774-.743,1.369a12.844,12.844,0,0,0-1.04,3.029,3.092,3.092,0,0,0,.038,1.017c.025.095.045.178.08.279a1.67,1.67,0,0,0,.162.323,2.244,2.244,0,0,0,.386.454,5.54,5.54,0,0,0,1.53.886,6.822,6.822,0,0,0,1.6.478c.535.087,1.047.122,1.535.171a14.145,14.145,0,0,1,2.8.563l.71.211a2.437,2.437,0,0,0,.486.112,2.506,2.506,0,0,0,.479,0,6.665,6.665,0,0,1,1.239-.115c.043.021.031-.007.043,0a.375.375,0,0,1,.049.177,3.581,3.581,0,0,1-.032.667,4.422,4.422,0,0,0,.179,1.613,7.7,7.7,0,0,0,.567,1.438,3.953,3.953,0,0,0,.4.659,1.251,1.251,0,0,0,.591.48,2.223,2.223,0,0,1-.691-1.258,9.5,9.5,0,0,1-.287-1.43,3.8,3.8,0,0,1,.055-1.365,4.268,4.268,0,0,0,.134-.819,1.325,1.325,0,0,0-.087-.555,1,1,0,0,0-.207-.313,1.151,1.151,0,0,0-.273-.2,2.032,2.032,0,0,0-1-.179c-.276,0-.519.031-.728.027a1.342,1.342,0,0,1-.268-.027,1.248,1.248,0,0,1-.237-.084l-.707-.28a12.969,12.969,0,0,0-3.033-.813c-.5-.074-.989-.141-1.437-.232a5.1,5.1,0,0,1-1.258-.4,4.049,4.049,0,0,1-1.055-.612.707.707,0,0,1-.1-.116c-.013-.015,0-.013-.006-.01l-.019-.082a1.683,1.683,0,0,1-.016-.473,11.959,11.959,0,0,1,.885-2.629c.135-.324.411-.8.637-1.291a4.612,4.612,0,0,0,.3-.85,1.832,1.832,0,0,0-.092-1.225l-.156-.332-.338-.059a3.194,3.194,0,0,0-1.685.227,3.982,3.982,0,0,1-1.173.285,14.371,14.371,0,0,1-2.609-.011c-1.785-.153-3.594-.433-5.421-.546" fill="#2b2b2b"/>
        <path id="Path_21808" data-name="Path 21808" d="M235.513-147.651c2.39.783,4.994,1.19,6.789,2.644a26.2,26.2,0,0,0,3.132,2.189c1.062.65,2.059,1.323,3.053,2.072,1.006.717,1.986,1.482,2.977,2.248s2.028,1.5,2.907,2.274a14.554,14.554,0,0,1,1.259,1.318,15.1,15.1,0,0,0,1.428,1.326c1,.8,2.032,1.5,3.039,2.269-.748-1.028-1.664-1.923-2.479-2.855a14.759,14.759,0,0,1-1.147-1.419,12.221,12.221,0,0,0-1.186-1.543,13.479,13.479,0,0,0-1.412-1.355l-1.43-1.229q-1.452-1.212-2.982-2.362a33.685,33.685,0,0,0-3.23-2.079c-1.129-.612-2.132-1.189-3.19-1.9a7.408,7.408,0,0,0-1.824-.87,12.927,12.927,0,0,0-1.905-.441,35.093,35.093,0,0,0-3.8-.287" fill="#2b2b2b"/>
        <path id="Path_21809" data-name="Path 21809" d="M185.261-172.068a36.326,36.326,0,0,0,7.915-.042c1.314-.156,2.621-.357,3.929-.613.655-.129,1.307-.284,1.96-.478a6.972,6.972,0,0,0,1.992-.865,1.653,1.653,0,0,0,.524-.579,1.138,1.138,0,0,0,.132-.548,1.107,1.107,0,0,0-.183-.564,1.707,1.707,0,0,0-.589-.537,4.184,4.184,0,0,0-.525-.263,17.463,17.463,0,0,0-1.954-.645c-1.281-.356-2.552-.678-3.823-1.009l-7.631-1.93a87.4,87.4,0,0,1-14.8-4.883c-2.365-1.069-4.694-2.268-6.957-3.554a6.741,6.741,0,0,1-2.664-2.611,9.853,9.853,0,0,0-1.08-1.678,10.335,10.335,0,0,0-1.5-1.295,10.2,10.2,0,0,1,1.308,1.451,9.913,9.913,0,0,1,.887,1.722,7.365,7.365,0,0,0,2.616,3.09,64,64,0,0,0,6.837,4.032,71.294,71.294,0,0,0,14.952,5.319l7.666,1.846c1.281.293,2.564.578,3.822.889a18.755,18.755,0,0,1,1.8.527,2.764,2.764,0,0,1,.517.248c-.017-.016-.023-.206,0-.189.015,0-.043.074-.132.141a6.017,6.017,0,0,1-1.579.757c-.6.207-1.217.384-1.84.557-1.25.339-2.527.615-3.807.866a43.569,43.569,0,0,1-7.792.835" fill="#2b2b2b"/>
        <path id="Path_21810" data-name="Path 21810" d="M212.863-174.779a.9.9,0,0,0,.757-.2.777.777,0,0,0,.111-.821,2.049,2.049,0,0,0-1.243-1.057c-.928-.414-1.859-.888-2.789-1.327l-1.4-.657c-.225-.1-.467-.229-.745-.335a7.634,7.634,0,0,0-.794-.248c-.516-.14-1.033-.234-1.458-.377s-.873-.37-1.361-.595c-3.929-1.623-7.6-3.065-11.585-4.584-.973-.3-1.886-.66-2.858-1.046-.953-.4-2-.739-2.916-1.07-1.888-.69-3.719-1.634-5.641-2.447-.978-.416-1.9-.774-2.825-1.22-.927-.43-1.851-.9-2.808-1.329s-1.947-.768-2.919-1.133l-.732-.266a3.079,3.079,0,0,0-.783-.156,1.618,1.618,0,0,1-.708-.2,1.288,1.288,0,0,0-.725-.271,1.233,1.233,0,0,1,.654.374,1.83,1.83,0,0,0,.731.342,2.833,2.833,0,0,1,.708.243l.687.359c.911.486,1.842.918,2.722,1.43l2.673,1.564c.9.537,1.883.971,2.779,1.426,1.821.933,3.653,1.916,5.615,2.735,1.017.408,1.935.7,2.885,1.109.943.389,1.946.8,2.947,1.12.947.3,1.893.679,2.858,1.058s1.946.739,2.921,1.088l5.82,2.053a15.158,15.158,0,0,0,1.517.549c.567.149,1.076.2,1.568.292a6.656,6.656,0,0,1,.7.154c.211.058.437.152.691.243l1.462.533c.986.336,1.938.715,2.951,1.014a1.732,1.732,0,0,1,1.172.732.593.593,0,0,1,.021.639.832.832,0,0,1-.662.277" fill="#2b2b2b"/>
        <path id="Path_21811" data-name="Path 21811" d="M161.676-191.953a2.052,2.052,0,0,1-1.737-.786c-.487-.454-.906-.99-1.447-1.445a15.508,15.508,0,0,0-1.661-1.234c-.289-.188-.583-.367-.88-.543s-.619-.336-.841-.5c-2.165-1.719-5.035-2.431-6.738-4.234a6.762,6.762,0,0,1-1.834-3.12,21.42,21.42,0,0,1-.291-3.892c-.013-.7-.126-1.435-.144-2.019a2.53,2.53,0,0,1,.076-.789,6.586,6.586,0,0,1,.285-.855l.186-.438.1-.217c.025-.048.05-.1.088-.161a5.472,5.472,0,0,1,.508-.715,4.253,4.253,0,0,1,.583-.588,1.156,1.156,0,0,1,.233-.149c.046-.016,0,.016-.119-.035l-.486-.593a.717.717,0,0,1-.107.366,6.274,6.274,0,0,0-.418.943,7.364,7.364,0,0,0-.205,1,8.065,8.065,0,0,0-.054,1,16.264,16.264,0,0,0,.091,1.894,9,9,0,0,0,.166.979,4.876,4.876,0,0,0,.353,1,10.986,10.986,0,0,0,2.286,3.117,9.965,9.965,0,0,0,3.229,2.123,4.317,4.317,0,0,0,.5.144l.438.1.88.2,1.762.393c1.075.234,2.119.9,3.363,1.238a16.57,16.57,0,0,1,3.357,1.2,10.392,10.392,0,0,1,3.152,1.694,9.2,9.2,0,0,0-2.967-2.065,17.233,17.233,0,0,0-3.314-1.559c-1.06-.39-2.055-1.11-3.321-1.506l-1.741-.508-.872-.25a7.568,7.568,0,0,1-.8-.25,9.178,9.178,0,0,1-2.678-1.968,9.625,9.625,0,0,1-1.888-2.737,3.317,3.317,0,0,1-.227-.709,7.385,7.385,0,0,1-.11-.806,15.772,15.772,0,0,1-.063-1.712,6.5,6.5,0,0,1,.048-.8,5.574,5.574,0,0,1,.167-.768,6.324,6.324,0,0,1,.333-.7,2.19,2.19,0,0,0,.242-1.376l-.081-.432-.406-.161a1.507,1.507,0,0,0-1.11.018,2.677,2.677,0,0,0-.635.37,5.141,5.141,0,0,0-.852.843,6.982,6.982,0,0,0-.656.946c-.05.084-.1.183-.151.287l-.11.246-.207.5a8.22,8.22,0,0,0-.344,1.074,4.216,4.216,0,0,0-.11,1.224c.037.768.148,1.378.164,2.028a20.861,20.861,0,0,0,.443,4.178,6.594,6.594,0,0,0,.926,2.055,8.913,8.913,0,0,0,1.419,1.664,12.887,12.887,0,0,0,3.625,2.205l1.842.806a9.042,9.042,0,0,1,.885.409c.26.158.527.37.849.565a10.315,10.315,0,0,0,.951.455c.3.141.6.287.9.441a15.159,15.159,0,0,1,1.708,1.031c.539.369,1.012.864,1.559,1.285a2.165,2.165,0,0,0,1.907.589" fill="#2b2b2b"/>
        <path id="Path_21812" data-name="Path 21812" d="M172.974-192.3c1.452.1,2.83.447,4.291.654a11.155,11.155,0,0,0,2.28.092,12.644,12.644,0,0,0,2.107-.807c.161-.054.35-.109.559-.2a2.531,2.531,0,0,0,.615-.38c.318-.261.574-.532.818-.747a6.677,6.677,0,0,1,.809-.589,5.976,5.976,0,0,0,.926-.817,19.411,19.411,0,0,0,1.348-1.818c.415-.605.818-1.226,1.193-1.871a18.181,18.181,0,0,0,1.748-4.149,16.1,16.1,0,0,0,.423-2.223,17.259,17.259,0,0,0,.147-2.227,7.906,7.906,0,0,0-.29-2.308,4.3,4.3,0,0,0-1.344-1.985,4.181,4.181,0,0,0-2.12-.927,5.438,5.438,0,0,0-2.172-.1,6.325,6.325,0,0,1,2.073.543,3.721,3.721,0,0,1,1.661,1.068,3.387,3.387,0,0,1,.855,1.669,7.564,7.564,0,0,1,.05,1.988,18.162,18.162,0,0,1-2.463,7.834c-.339.607-.709,1.2-1.1,1.793s-.8,1.216-1.181,1.686a4.381,4.381,0,0,1-.659.65,7.88,7.88,0,0,0-.9.737l-.736.757a1.85,1.85,0,0,1-.725.421c-.785.339-1.331.822-1.834.945a11.076,11.076,0,0,1-2.041.163,26.32,26.32,0,0,0-4.343.148" fill="#2b2b2b"/>
        <path id="Path_21813" data-name="Path 21813" d="M168.179-197.841a29.184,29.184,0,0,0,3.807.2c.647-.017,1.332-.185,1.882-.235a17.136,17.136,0,0,1,1.808-.059c1.256.035,2.537-.028,3.8-.046a2.27,2.27,0,0,0,1.27-.373c.385-.269.568-.483.768-.625l1.528-1.122a17.014,17.014,0,0,0,2.8-2.758,6.489,6.489,0,0,0,1.048-1.843,10.1,10.1,0,0,0,.252-1.962,11.855,11.855,0,0,0,.086-3.888,5.5,5.5,0,0,0-1.8-3.376,6.011,6.011,0,0,1,1,3.45,13.573,13.573,0,0,1-.543,3.57,16.749,16.749,0,0,1-.356,1.738,5.174,5.174,0,0,1-.907,1.345,16.815,16.815,0,0,1-2.607,2.441l-1.48,1.133c-.3.237-.541.492-.673.579a.836.836,0,0,1-.509.14l-3.72.316a13.852,13.852,0,0,0-1.936.278c-.684.17-1.2.386-1.8.5-1.189.267-2.461.344-3.7.6" fill="#2b2b2b"/>
        <path id="Path_21814" data-name="Path 21814" d="M178.59-174a4.215,4.215,0,0,1-1.308-.626,6.251,6.251,0,0,1-1.084-.815,5.688,5.688,0,0,1-1.412-2.055,12.109,12.109,0,0,1-.353-1.327c-.164-.516-.349-.932-.436-1.294a2.35,2.35,0,0,1,.049-1.192,2.9,2.9,0,0,1,.247-.652,1.055,1.055,0,0,0,.082-.808c-.183.5-.661.572-1.051,1.093a2.857,2.857,0,0,0-.621,1.649,7.574,7.574,0,0,0,.213,1.585c.046.232.053.361.1.69a4.808,4.808,0,0,0,.236.855,4.965,4.965,0,0,0,2.21,2.517,4.765,4.765,0,0,0,1.552.512A2.688,2.688,0,0,0,178.59-174" fill="#2b2b2b"/>
        <path id="Path_21815" data-name="Path 21815" d="M184.825-173.251a2.593,2.593,0,0,1-1.454-.627,11.3,11.3,0,0,1-1.16-1.092c-.368-.406-.755-.8-1.186-1.221-.473-.427-.9-.732-1.312-1.082a6.218,6.218,0,0,1-1.91-2.252c-.461-.938-.81-2.054-1.418-3.069a11.922,11.922,0,0,0,.2,3.5,4.944,4.944,0,0,0,.783,1.753A7.187,7.187,0,0,0,178.667-176c.454.37.957.715,1.358,1,.43.3.863.691,1.362,1.01a6.512,6.512,0,0,0,1.622.829,2.26,2.26,0,0,0,1.816-.091" fill="#2b2b2b"/>
        <path id="Path_21816" data-name="Path 21816" d="M52.7-83.841c.314-.117.473-.45.7-.647a2.528,2.528,0,0,1,.828-.413c.3-.1.61-.195.918-.332s.571-.318.857-.465a13.657,13.657,0,0,1,1.714-.789,18.515,18.515,0,0,1,1.823-.531,5.8,5.8,0,0,0,.963-.359c.334-.166.58-.317.872-.476l1.689-.941A34.093,34.093,0,0,0,66.383-90.8a37.636,37.636,0,0,1,3.177-2.023c1.106-.551,2.31-1.19,3.41-1.846l6.66-4.1c.558-.484.97-1,1.385-1.409a8.165,8.165,0,0,1,1.395-1.067c.266-.176.546-.357.826-.56.14-.1.28-.206.419-.317l.368-.3c.491-.39,1-.76,1.5-1.129,1.018-.734,2.079-1.418,3.166-2.065a7.6,7.6,0,0,1,3.373-1.049,9.273,9.273,0,0,0,1.96-.563c.532-.177,1.227-.336,1.817-.525a18.555,18.555,0,0,1,1.817-.452,13.079,13.079,0,0,1,1.769-.267c.4.007.8.543,1.12,1.052a5.4,5.4,0,0,1,.669,1.7c.253,1.218.219,2.534.467,3.8-.071-1.283.119-2.551-.037-3.868a5.894,5.894,0,0,0-.551-1.923,5.146,5.146,0,0,0-.532-.886,1.7,1.7,0,0,0-1-.667,3.386,3.386,0,0,0-1.1.023c-.324.046-.6.067-.95.1a19.021,19.021,0,0,0-1.945.343c-.647.152-1.211.248-1.907.437a8.062,8.062,0,0,1-1.752.419,14.33,14.33,0,0,0-2,.282,7.052,7.052,0,0,0-1.95.794c-1.135.631-2.253,1.3-3.338,2.038-.544.364-1.071.756-1.591,1.157l-.385.3-.349.261c-.242.17-.5.336-.774.511a9.793,9.793,0,0,0-1.66,1.255c-.5.49-.9.971-1.318,1.324a8.431,8.431,0,0,1-1.494.923c-.594.351-1.116.683-1.669,1.031L72.157-96c-1.083.69-2.128,1.287-3.3,1.916a30.066,30.066,0,0,0-3.222,2.24c-1,.8-2.08,1.445-3.153,2.144l-1.6,1.046a6.886,6.886,0,0,1-1.6.875,18.754,18.754,0,0,0-1.813.724,14.389,14.389,0,0,0-1.694.985c-.271.173-.536.385-.788.532s-.563.268-.857.408a2.7,2.7,0,0,0-.821.553c-.22.254-.316.577-.611.735" fill="#2b2b2b"/>
        <path id="Path_21817" data-name="Path 21817" d="M106.283-73.323a7.06,7.06,0,0,1,.095-3.638c.126-.606.273-1.214.393-1.849a11.989,11.989,0,0,0,.189-1.949,15.359,15.359,0,0,1,.292-3.581,19.3,19.3,0,0,0,.2-3.9c-.031-2.406.366-5.009-.392-7.642-.106-.349-.2-.576-.274-.873s-.138-.578-.208-.881c-.136-.6-.258-1.245-.463-1.866a6.443,6.443,0,0,0-.863-1.773,4.507,4.507,0,0,1-1.028-1.539,3.955,3.955,0,0,0,.64,1.78,6.459,6.459,0,0,1,.465,1.724c.1.594.132,1.2.18,1.833a12.145,12.145,0,0,0,.3,1.914A15.186,15.186,0,0,1,105.967-92c-.047,1.226-.152,2.472-.164,3.773a20.148,20.148,0,0,1-.08,3.6,9.5,9.5,0,0,0-.16,2c.006.658.071,1.288.115,1.9a23.77,23.77,0,0,1-.1,3.671,6.217,6.217,0,0,0,.7,3.741" fill="#2b2b2b"/>
        <path id="Path_21818" data-name="Path 21818" d="M85.475-69.129a4.834,4.834,0,0,1-3.338-.373c-.544-.2-1.089-.427-1.662-.622A8.105,8.105,0,0,0,78.7-70.5a10.485,10.485,0,0,1-3.266-.615,13.074,13.074,0,0,0-3.564-.522c-2.217-.128-4.574-.809-7.067-.038-.331.108-.548.206-.83.283s-.546.134-.83.2a14.22,14.22,0,0,0-1.76.456,5.428,5.428,0,0,0-1.714.963c-.51.45-.926,1.042-1.514,1.188.6.083,1.179-.4,1.7-.683a4.735,4.735,0,0,1,1.629-.464,13.607,13.607,0,0,1,1.7-.1,8.458,8.458,0,0,0,1.791-.251,10.278,10.278,0,0,1,3.285.054c1.122.144,2.258.361,3.453.468a13.594,13.594,0,0,1,3.3.351,6.46,6.46,0,0,0,1.825.341c.606.039,1.191,0,1.758-.014a15.991,15.991,0,0,1,3.367.381,4.468,4.468,0,0,0,3.508-.627" fill="#2b2b2b"/>
        <path id="Path_21819" data-name="Path 21819" d="M58.244-67.23a3.052,3.052,0,0,0,3.274-2.813A3.05,3.05,0,0,0,58.7-73.311,3.053,3.053,0,0,0,55.427-70.5a3.05,3.05,0,0,0,2.817,3.269" fill="#2b2b2b"/>
      </g>
    </g>
  </g>
</svg>
