<svg xmlns="http://www.w3.org/2000/svg" xmlns:xlink="http://www.w3.org/1999/xlink" width="1208.244" height="476.366" viewBox="0 0 1208.244 476.366">
  <defs>
    <clipPath id="clip-path">
      <path id="矩形_1" data-name="矩形 1" d="M0,100H1208.244V576.366H0V100Z" transform="translate(-4316.084 3438.353)" fill="#ead065"/>
    </clipPath>
    <clipPath id="clip-path-2">
      <rect id="Rectangle_3238" data-name="Rectangle 3238" width="1291.002" height="804.999" fill="none"/>
    </clipPath>
  </defs>
  <g id="Mask_Group_22" data-name="Mask Group 22" transform="translate(4316.084 -3538.353)" clip-path="url(#clip-path)">
    <g id="向量圖智慧型物件" transform="matrix(0.997, 0.071, -0.071, 0.997, -4258.601, 3154.92)">
      <g id="Group_708" data-name="Group 708">
        <g id="Group_707" data-name="Group 707" clip-path="url(#clip-path-2)">
          <path id="Path_20037" data-name="Path 20037" d="M1099.48,37.729c13.408-3.346,27.75-6.926,47.406-6.731,56.366.558,126.505,31.856,141.419,70.8,21.715,56.7-93.635,77.422-134.154,195.8-40.129,117.236,3.738,220.031,3.738,220.031,19.54,45.514,56.945,97.948,33.031,133.665-2.436,3.641-13.094,18.435-25.623,16.871-21.674-2.7-26.748-51.519-41.06-52.8-23.52-2.113-32.477,127.681-60.248,127.128-16.125-.314-35.532-44.557-39.164-82.707-6.35-66.8,35.7-114.579,52.341-131.474-39.674,36.207-89.991,75.933-112.662,63.962-10.451-5.515-11.462-20.138-11.946-27-4.316-61.841,79.375-108.7,76.558-111.48-3.491-3.461-115.147,85.816-139.54,69.142-8.171-5.585-4.056-21.322-1.5-31.08,10.648-40.663,44.287-57.917,94.258-100.891,37.308-32.092,63.911-61.48,61-64.142-5.637-5.137-115.382,94.52-150.736,73.309-13.253-7.957-10.839-29.767-10.488-32.577,5.317-42.754,62.9-53.512,114.549-93.871,63.358-49.513,90.237-123.353,78.535-131.526-15.213-10.625-129.754,65.839-200.768,177.17-64.006,100.339-78.094,206.177-82.472,241.678-14.773,120.018,8.58,216.465-38.436,230.108-10.9,3.16-27.908,2.513-37.5-5.472-25.234-21.01,10.431-85.058,4.2-87.537-5.895-2.349-30.065,58.088-50.256,54.455-12.319-2.224-22.858-28.206-20.073-50.911,5.736-46.665,66.891-71.757,62.721-76.951-4.874-6.072-79.994,39.03-101.559,21.7-9.419-7.571-4.681-23.9-4.054-26.072,5.114-17.613,22.289-23.217,71.29-49.323,46.038-24.539,45.755-27.522,45.331-28.28-1.975-3.471-28.363,2.387-46.331,7.565-45.7,13.176-62.28,29.292-71.585,23.485-9.042-5.644-7.2-29.5,5.426-47.44,20.6-29.289,53.988-20.194,106.4-54.337,13.284-8.643,27.008-17.764,38.518-33.855,18.51-25.871,19.052-52.459,19.34-64.33-29.617,19.989-65.068,41.212-127.648,83.692-81.505,55.331-122.452,83.351-132.059,101.222C466.346,650.531,440.4,711.734,440.4,711.734c-2.184,5.15-8.311,19.75-19.224,20.156-13.939.517-27.311-22.441-27.982-23.621-20.838-36.6.677-82.459,9.288-100.794,9.3-19.824,19.637-33.272,15.278-36.539-3.619-2.715-14.679,3.71-29.042,12.475-40.844,24.9-61.264,37.354-71.321,46.1-60.7,52.8-45,104.438-89.721,114.377-17.1,3.8-39.579.734-49.788-10.378-13.972-15.216-.879-41.11,4.629-52.01,21.115-41.776,63.088-61.088,62.138-62.143-1.033-1.158-54.431,18.621-113.777,63.577-14.569,11.028-31.511,25.1-59.549,28.723-5.65.73-39.931,5.152-53.28-10.927-12.735-15.327,1.86-39.278,4-42.786,15.323-25.15,44.593-34.028,86.276-46.071,91.7-26.49,138.693-38.685,137.221-44.746-2.148-8.818-102.865,10.565-130.574-25.874-10.948-14.392-9.793-36.569,2.446-46.329,16.095-12.838,42.12,3.133,102.7,11.938,11.968,1.734,70.55,9.773,134.733-1.645,36.652-6.519,81.2-20.447,79-29.5-2.655-10.956-69.859,1.787-153.04-27.207-47.8-16.664-110.138-50.331-106.455-75.427,2.536-17.213,35.664-24.608,46.1-26.938,88.438-19.767,146,45.9,251.341,47.265,31.416.416,59.016-8.125,114.244-24.816,112.706-34.038,212.138-91.063,205.406-102.644-4.454-7.661-58.213-.527-99.107,19.494-12.642,6.2-18.439,6.862-40.8,22.08-11.517,7.85-35.1,25.111-66.119,22.083-19.817-1.936-43.463-12.24-45.039-23.618-3.1-22.382,80.052-42.992,79.553-43.918-.492-.905-77.818,19.7-150.871,33.908-26.467,5.148-56.966,10.355-72.719-3.765-6.142-5.512-10.594-14.451-8.9-22.441,5.751-27.214,80.5-33.323,90.186-33.926-5.848.285-38.371,2.143-103.016,15.166-34.337,6.918-54.572,12.309-70.9,1.915-10.015-6.375-18.979-18.957-16.02-28.7,7.474-24.549,87.51-20.083,87.084-25.746-.518-7.09-125.248,3.452-156.834-43.042-11.042-16.26-12.477-42.114.625-51.105,9.737-6.668,25.576-2.764,32-1.1,78.3,20.261,255.792,89.889,366.3,106.86,10.831,1.663,180.731,25.953,284.15-46.71,2.158-1.517,35.036-24.68,77.937-56.677,49.337-36.8,74.753-57.552,120.529-68.977" fill="#e2a460"/>
          <path id="Path_20038" data-name="Path 20038" d="M1279.616,111.7a39.2,39.2,0,0,1,2.586,17.09,39.882,39.882,0,0,1-5.395,16.434,69.055,69.055,0,0,1-4.83,7.25c-1.766,2.309-3.653,4.521-5.6,6.679-3.921,4.29-8.1,8.336-12.379,12.261-8.562,7.854-17.454,15.332-26.129,23.051-8.689,7.7-17.193,15.62-25.24,23.987-16.106,16.7-30.307,35.347-41.089,55.911q-4.073,7.686-7.505,15.691c-2.286,5.329-4.41,10.731-6.262,16.227a329.918,329.918,0,0,0-9.354,33.508,343.5,343.5,0,0,0-5.658,34.322,338.693,338.693,0,0,0-2.036,34.727,365.482,365.482,0,0,0,6.068,69.225c1.065,5.7,2.229,11.384,3.573,17.025q1.967,8.472,4.41,16.823c1.627,5.564,3.379,11.094,5.378,16.528.966,2.727,2.139,5.359,3.281,8.031q1.755,3.98,3.57,7.933c4.861,10.537,10.045,20.931,15,31.446A333.045,333.045,0,0,1,1185.585,608a141.667,141.667,0,0,1,4.795,16.824,82.739,82.739,0,0,1,1.964,17.422c.034,1.467-.118,2.933-.168,4.4-.115,1.464-.336,2.921-.5,4.382-.3,1.44-.536,2.9-.9,4.322l-.605,2.126-.3,1.063c-.115.35-.256.691-.384,1.037a37.468,37.468,0,0,1-1.689,4.085l-.961,1.992c-.341.654-.746,1.272-1.115,1.909a47.634,47.634,0,0,1-5.119,7.176,46.5,46.5,0,0,1-6.29,6.2,27.063,27.063,0,0,1-7.7,4.47,16.34,16.34,0,0,1-8.961.715,17.9,17.9,0,0,1-7.971-4.13c-4.53-3.962-7.582-9.124-10.3-14.274-2.688-5.2-4.954-10.567-7.282-15.879-1.164-2.656-2.34-5.3-3.611-7.889a50.832,50.832,0,0,0-4.3-7.407,17.2,17.2,0,0,0-2.792-3.077,7.2,7.2,0,0,0-3.485-1.719,5.727,5.727,0,0,0-3.692.729,12.272,12.272,0,0,0-3.088,2.627,35.67,35.67,0,0,0-4.509,7.192c-1.262,2.575-2.365,5.24-3.387,7.939-2.022,5.409-3.759,10.938-5.374,16.5-3.229,11.136-6.048,22.4-9.032,33.635s-6.046,22.467-10.03,33.439a94.215,94.215,0,0,1-7.288,15.974,30.494,30.494,0,0,1-5.575,6.981A13.991,13.991,0,0,1,1062,759.2a9.09,9.09,0,0,1-4.674.563,10.51,10.51,0,0,1-3.357-.979,8.251,8.251,0,0,1-1.035-.5,21.993,21.993,0,0,1-3.685-2.626,41.626,41.626,0,0,1-5.939-6.6,93.906,93.906,0,0,1-8.829-15.178,181.012,181.012,0,0,1-11.551-33,173.656,173.656,0,0,1-5.209-34.57,153.819,153.819,0,0,1,.25-17.513,157.7,157.7,0,0,1,2.321-17.362,159.114,159.114,0,0,1,10.472-33.363c9.388-21.4,23.091-40.762,39.4-57.415l1.248,1.291c-11.676,10.665-23.592,21.086-36.032,30.881-6.224,4.889-12.562,9.643-19.112,14.109a189.033,189.033,0,0,1-20.382,12.286,95.191,95.191,0,0,1-10.934,4.829,54.173,54.173,0,0,1-11.658,2.964,26.066,26.066,0,0,1-12.125-1.069,12.731,12.731,0,0,1-1.426-.628,14.735,14.735,0,0,1-1.392-.7,18.189,18.189,0,0,1-2.539-1.809,19.6,19.6,0,0,1-4.05-4.667,28.478,28.478,0,0,1-2.678-5.5,45.013,45.013,0,0,1-1.625-5.836,83.989,83.989,0,0,1-1.374-11.9,73.739,73.739,0,0,1,2.747-23.744,95.252,95.252,0,0,1,9.417-21.942,137.628,137.628,0,0,1,13.773-19.452c10.223-12.182,22.073-22.853,34.462-32.7,3.1-2.466,6.235-4.878,9.353-7.293,1.552-1.211,3.117-2.418,4.582-3.676.364-.314.721-.633,1.043-.956.159-.16.312-.322.437-.474a2.212,2.212,0,0,0,.146-.2c.037-.048.038-.1.012.028-.072.12.16.646.387.667.136.061.146.03.1.041a2.713,2.713,0,0,0-.5.131,11.957,11.957,0,0,0-1.255.548c-3.408,1.758-6.729,3.961-10.03,6.087-3.3,2.154-6.583,4.347-9.864,6.544-13.115,8.8-26.242,17.621-39.67,25.986-6.712,4.183-13.5,8.258-20.4,12.132s-13.932,7.551-21.183,10.788c-3.628,1.613-7.314,3.111-11.091,4.388a61.256,61.256,0,0,1-11.665,2.848,27.909,27.909,0,0,1-6.105.157,14.57,14.57,0,0,1-5.991-1.81,10.966,10.966,0,0,1-4.281-4.678,17.349,17.349,0,0,1-1.606-5.994,44.408,44.408,0,0,1,.769-12.035c.716-3.934,1.669-7.78,2.7-11.612a85.992,85.992,0,0,1,3.856-11.32,80.57,80.57,0,0,1,5.376-10.684,96.011,96.011,0,0,1,6.74-9.868c2.455-3.136,5.07-6.138,7.793-9.032a224.488,224.488,0,0,1,17.4-16.209c12.093-10.222,24.616-19.856,36.81-29.882,12.219-9.993,24.164-20.313,35.7-31.08q8.656-8.068,16.988-16.472c5.526-5.62,10.96-11.348,16.011-17.371,1.257-1.508,2.487-3.038,3.651-4.605a30.74,30.74,0,0,0,3.085-4.844,4.442,4.442,0,0,0,.378-1.156c.017-.151-.026-.231.011-.162.059.077.112.059-.017.043a3.64,3.64,0,0,0-1.127.251,12.774,12.774,0,0,0-1.281.547,52.808,52.808,0,0,0-5.047,2.91c-6.6,4.251-12.993,8.915-19.423,13.493-12.837,9.208-25.724,18.381-39,26.994-6.638,4.3-13.368,8.472-20.251,12.387a220.447,220.447,0,0,1-21.2,10.739c-7.283,3.124-14.836,5.829-22.775,6.989a35.833,35.833,0,0,1-12.031-.131,20.175,20.175,0,0,1-10.671-5.663,25.6,25.6,0,0,1-5.864-10.545,46.6,46.6,0,0,1-1.807-11.859,50.877,50.877,0,0,1,4.48-23.364,54.509,54.509,0,0,1,6.337-10.163,76.236,76.236,0,0,1,8.273-8.621,138.089,138.089,0,0,1,19.327-13.851c6.753-4.14,13.681-7.957,20.6-11.77s13.842-7.607,20.666-11.567a287.323,287.323,0,0,0,39.093-26.541,241.477,241.477,0,0,0,33.333-33.444,246.1,246.1,0,0,0,26.374-39.184,189.49,189.49,0,0,0,9.942-21.435c1.414-3.676,2.688-7.406,3.745-11.2a67.525,67.525,0,0,0,2.278-11.541,27.1,27.1,0,0,0-.006-5.827c-.232-1.884-.788-3.866-2.175-5.052a5.3,5.3,0,0,0-2.521-1.031,13.727,13.727,0,0,0-1.418-.13c-.482.02-.962.01-1.444.053a28.713,28.713,0,0,0-5.724,1.143,78.754,78.754,0,0,0-10.976,4.279c-3.568,1.665-7.059,3.5-10.495,5.437a339.078,339.078,0,0,0-39.187,26.51c-12.495,9.655-24.513,19.925-36.1,30.659s-22.726,21.951-33.4,33.595a532.643,532.643,0,0,0-57.723,75.028,533.031,533.031,0,0,1,57.525-75.21q15.968-17.518,33.323-33.707c11.561-10.775,23.56-21.088,36.042-30.79a339.476,339.476,0,0,1,39.186-26.67c3.441-1.95,6.941-3.8,10.526-5.49a79.38,79.38,0,0,1,11.069-4.35,29.4,29.4,0,0,1,5.87-1.185c.5-.048,1.011-.039,1.516-.06a14.249,14.249,0,0,1,1.528.134,6.054,6.054,0,0,1,2.889,1.189,6.218,6.218,0,0,1,1.757,2.583,12.325,12.325,0,0,1,.71,2.965,27.859,27.859,0,0,1,.026,6,68.285,68.285,0,0,1-2.272,11.69c-1.056,3.826-2.327,7.583-3.739,11.285a190.22,190.22,0,0,1-9.929,21.567,246.474,246.474,0,0,1-26.413,39.386,242.6,242.6,0,0,1-33.426,33.644,288.518,288.518,0,0,1-39.2,26.707c-6.835,3.98-13.76,7.792-20.672,11.613s-13.818,7.645-20.529,11.774a136.861,136.861,0,0,0-19.127,13.751,74.933,74.933,0,0,0-8.106,8.47,53.213,53.213,0,0,0-6.159,9.911,49.535,49.535,0,0,0-4.319,22.759A45.281,45.281,0,0,0,878.8,393.62a24.24,24.24,0,0,0,5.547,9.969,18.745,18.745,0,0,0,9.951,5.249,34.462,34.462,0,0,0,11.549.1c7.722-1.139,15.185-3.813,22.388-6.919a219.282,219.282,0,0,0,21.041-10.7c6.844-3.908,13.543-8.072,20.155-12.373,13.225-8.605,26.064-17.8,38.9-27.006,6.436-4.585,12.812-9.247,19.492-13.553a54.338,54.338,0,0,1,5.213-3.006,14.483,14.483,0,0,1,1.441-.613,4.9,4.9,0,0,1,1.758-.344,1.624,1.624,0,0,1,1.27.656,1.885,1.885,0,0,1,.27,1.263,5.811,5.811,0,0,1-.514,1.658,32,32,0,0,1-3.257,5.144c-1.191,1.6-2.436,3.154-3.707,4.681-5.1,6.087-10.548,11.836-16.093,17.481s-11.247,11.133-17.029,16.53c-11.561,10.8-23.533,21.152-35.767,31.169-12.207,10.049-24.733,19.7-36.769,29.881a223.18,223.18,0,0,0-17.258,16.09c-2.689,2.861-5.266,5.822-7.679,8.908a94.458,94.458,0,0,0-6.612,9.693,78.925,78.925,0,0,0-5.261,10.47,84.1,84.1,0,0,0-3.774,11.1c-1.02,3.8-1.966,7.626-2.663,11.468a42.786,42.786,0,0,0-.744,11.543,15.6,15.6,0,0,0,1.435,5.391,9.167,9.167,0,0,0,3.6,3.938,12.815,12.815,0,0,0,5.265,1.571,26.207,26.207,0,0,0,5.715-.154,59.593,59.593,0,0,0,11.315-2.775c3.706-1.256,7.345-2.735,10.934-4.333,7.175-3.207,14.157-6.871,21.028-10.725s13.632-7.925,20.325-12.1c13.39-8.351,26.491-17.163,39.606-25.974,3.282-2.2,6.566-4.4,9.879-6.563,3.336-2.146,6.607-4.333,10.22-6.2a13.642,13.642,0,0,1,1.459-.636,4.229,4.229,0,0,1,.934-.228,1.7,1.7,0,0,1,.824.1,1.23,1.23,0,0,1,.708,1.268,1.771,1.771,0,0,1-.271.706,3.88,3.88,0,0,1-.286.4c-.188.229-.376.426-.564.616-.377.376-.757.714-1.14,1.046-1.531,1.316-3.1,2.522-4.656,3.741-3.125,2.423-6.25,4.827-9.331,7.285-12.325,9.8-24.074,20.4-34.176,32.453a135.726,135.726,0,0,0-13.574,19.19,93.814,93.814,0,0,0-9.236,21.5,71.832,71.832,0,0,0-2.692,23.136,82.173,82.173,0,0,0,1.333,11.622,43.154,43.154,0,0,0,1.547,5.572,26.6,26.6,0,0,0,2.495,5.135,17.7,17.7,0,0,0,3.675,4.244,16.3,16.3,0,0,0,2.275,1.625,13.012,13.012,0,0,0,1.252.627,11.467,11.467,0,0,0,1.281.567,24.249,24.249,0,0,0,11.246.97,52.312,52.312,0,0,0,11.251-2.86,93.26,93.26,0,0,0,10.73-4.734,187.085,187.085,0,0,0,20.186-12.156c6.507-4.433,12.818-9.159,19.019-14.026,12.394-9.749,24.287-20.137,35.945-30.774l1.247,1.291c-16.178,16.507-29.766,35.689-39.066,56.864A157.306,157.306,0,0,0,1022,631.773a156.355,156.355,0,0,0-2.3,17.158,152.2,152.2,0,0,0-.256,17.31,172,172,0,0,0,5.141,34.232,179.432,179.432,0,0,0,11.422,32.686,92.2,92.2,0,0,0,8.653,14.9,40.016,40.016,0,0,0,5.685,6.33c2.108,1.814,4.54,3.415,7.187,3.717a7.418,7.418,0,0,0,3.87-.462,12.38,12.38,0,0,0,3.431-2.138,28.938,28.938,0,0,0,5.248-6.587,92.686,92.686,0,0,0,7.157-15.68c3.954-10.869,7-22.081,10-33.29s5.813-22.492,9.06-33.669c1.627-5.587,3.372-11.149,5.426-16.618,1.038-2.732,2.162-5.437,3.461-8.076a37.108,37.108,0,0,1,4.743-7.52,13.792,13.792,0,0,1,3.523-2.97,7.3,7.3,0,0,1,4.691-.9,8.719,8.719,0,0,1,4.236,2.067,18.631,18.631,0,0,1,3.045,3.357,52.152,52.152,0,0,1,4.431,7.644c1.286,2.628,2.464,5.293,3.628,7.958,2.323,5.328,4.571,10.673,7.214,15.8,2.659,5.081,5.664,10.122,9.925,13.85a16.445,16.445,0,0,0,7.317,3.822,14.892,14.892,0,0,0,8.18-.649,25.7,25.7,0,0,0,7.3-4.227,45.005,45.005,0,0,0,6.1-6,46.251,46.251,0,0,0,5-6.979c.36-.617.755-1.215,1.085-1.848l.935-1.929a36.2,36.2,0,0,0,1.644-3.957c.124-.335.262-.666.374-1l.295-1.031.591-2.063c.359-1.384.584-2.8.884-4.2.163-1.423.381-2.842.5-4.271.051-1.434.2-2.864.171-4.3a81.439,81.439,0,0,0-1.908-17.139,140.293,140.293,0,0,0-4.723-16.674,331.94,331.94,0,0,0-13.471-32.045c-4.935-10.506-10.1-20.911-14.958-31.479-1.215-2.641-2.4-5.3-3.567-7.961-1.137-2.668-2.323-5.348-3.293-8.1-2-5.472-3.753-11.025-5.377-16.612s-3.091-11.22-4.4-16.888c-1.339-5.661-2.5-11.363-3.558-17.082a366.563,366.563,0,0,1-5.975-69.43,334.784,334.784,0,0,1,2.126-34.815,345.028,345.028,0,0,1,5.769-34.394,330.892,330.892,0,0,1,9.471-33.561c1.873-5.506,4.018-10.919,6.326-16.256s4.833-10.584,7.571-15.714c10.869-20.589,25.153-39.239,41.326-55.909,8.081-8.355,16.614-16.255,25.328-23.935,8.7-7.7,17.613-15.148,26.192-22.975,4.289-3.911,8.474-7.942,12.4-12.216,1.948-2.151,3.839-4.354,5.608-6.654a68.923,68.923,0,0,0,4.842-7.225,39.794,39.794,0,0,0,5.431-16.39,39.163,39.163,0,0,0-2.537-17.085" fill="#2b2b2b"/>
          <path id="Path_20039" data-name="Path 20039" d="M805.769,284.386a4.444,4.444,0,0,0-2.134-1.815,14.722,14.722,0,0,0-2.688-.94,37.817,37.817,0,0,0-5.625-.925,96.962,96.962,0,0,0-11.4-.326,203.052,203.052,0,0,0-22.731,1.971,263.016,263.016,0,0,0-44.44,10.166c-3.613,1.185-7.2,2.444-10.743,3.825-3.535,1.4-7.121,2.73-10.717,3.972-3.593,1.258-7.168,2.539-10.668,4.012s-6.942,3.084-10.329,4.8c-6.806,3.4-13.341,7.269-20.014,10.974-3.355,1.814-6.738,3.593-10.233,5.142-1.722.827-3.513,1.5-5.268,2.26-1.793.661-3.567,1.381-5.387,1.969a90.464,90.464,0,0,1-22.437,4.617,77.718,77.718,0,0,1-22.848-1.786,90.306,90.306,0,0,1-21.517-7.929,56.09,56.09,0,0,1-9.645-6.318,29.969,29.969,0,0,1-4.123-4.115,16.22,16.22,0,0,1-2.9-5.158,9.667,9.667,0,0,1-.042-6.009,14.56,14.56,0,0,1,3.037-5.109,37.763,37.763,0,0,1,9.151-7.11,123.624,123.624,0,0,1,20.992-9.258c14.43-5.033,29.268-8.7,44.12-12.065,1.851-.426,3.72-.84,5.534-1.3l.654-.183c.1-.03.21-.067.257-.088.035.28.04-.7-.307.9.885.942.461.317.559.5a12.679,12.679,0,0,0-1.293.107c-.929.11-1.868.244-2.806.381-3.754.555-7.512,1.17-11.267,1.78l-22.539,3.7q-22.543,3.689-45.125,7.154-22.586,3.439-45.23,6.5-11.324,1.515-22.666,2.9c-7.561.913-15.134,1.813-22.751,2.4a160.02,160.02,0,0,1-22.947.361,77.41,77.41,0,0,1-11.438-1.557,55.758,55.758,0,0,1-5.6-1.52,43.577,43.577,0,0,1-5.393-2.227A30.542,30.542,0,0,1,405.468,282a29.641,29.641,0,0,1-5.863-10.149,21.449,21.449,0,0,1-.672-11.772,20.152,20.152,0,0,1,6.29-9.979,41.37,41.37,0,0,1,9.76-6.367,80.223,80.223,0,0,1,10.767-4.177,155.794,155.794,0,0,1,22.408-5c7.557-1.166,15.16-1.956,22.775-2.491s15.241-.825,22.894-.789l-.029,1.817c-11.693-.213-23.428.3-35.132.964-11.708.688-23.4,1.655-35.08,2.794s-23.338,2.477-34.986,3.912-23.274,3.152-35.048,3.969a91.229,91.229,0,0,1-17.743-.28c-.738-.107-1.479-.176-2.213-.314l-2.194-.459-1.1-.231c-.362-.091-.718-.21-1.077-.314l-2.153-.647c-.716-.218-1.4-.547-2.1-.815a19.535,19.535,0,0,1-2.063-.9,33.159,33.159,0,0,1-3.906-2.239,35.61,35.61,0,0,1-6.887-5.753,41.241,41.241,0,0,1-5.428-7.138,30.455,30.455,0,0,1-3.507-8.3,17.153,17.153,0,0,1,.016-9.109,15.292,15.292,0,0,1,5.177-7.511,31,31,0,0,1,7.816-4.467,78.189,78.189,0,0,1,17.2-4.381c11.683-1.759,23.473-2.145,35.216-2.376,5.871-.123,11.75-.129,17.585-.413,1.456-.079,2.912-.179,4.337-.365a15.4,15.4,0,0,0,2.066-.4,3.208,3.208,0,0,0,.824-.35.6.6,0,0,0,.157-.136c-.026,0,.022.038,0,0a1.586,1.586,0,0,0-.569-.435,6.706,6.706,0,0,0-.927-.4c-.658-.233-1.352-.423-2.051-.594-1.4-.34-2.838-.608-4.277-.859-5.764-.973-11.6-1.685-17.415-2.457s-11.647-1.529-17.462-2.372c-11.629-1.681-23.229-3.638-34.714-6.174a237.893,237.893,0,0,1-33.848-9.887,133.864,133.864,0,0,1-16.047-7.354,81.644,81.644,0,0,1-14.564-9.974,47.269,47.269,0,0,1-16.609-30.366,50.582,50.582,0,0,1-.5-8.816,42.262,42.262,0,0,1,1.131-8.754,30.951,30.951,0,0,1,3.174-8.226,21,21,0,0,1,5.793-6.61,19.731,19.731,0,0,1,8.087-3.4,33.419,33.419,0,0,1,8.791-.377,70.746,70.746,0,0,1,17.134,3.91,70.63,70.63,0,0,0-17.142-3.808,33.257,33.257,0,0,0-8.755.425,19.539,19.539,0,0,0-8,3.418,20.763,20.763,0,0,0-5.692,6.572,30.684,30.684,0,0,0-3.1,8.17,42.028,42.028,0,0,0-1.072,8.694,50.286,50.286,0,0,0,.549,8.748A46.754,46.754,0,0,0,252.1,146.865a81.02,81.02,0,0,0,14.5,9.812,133.169,133.169,0,0,0,16,7.219,242.246,242.246,0,0,0,33.77,9.68c11.459,2.493,23.04,4.408,34.658,6.05,5.809.822,11.63,1.572,17.453,2.312s11.654,1.445,17.473,2.408c1.454.249,2.908.517,4.359.863a22.267,22.267,0,0,1,2.178.625,7.8,7.8,0,0,1,1.1.467,2.518,2.518,0,0,1,1.092.962,1.255,1.255,0,0,1,.037,1.065,1.82,1.82,0,0,1-.274.4,1.912,1.912,0,0,1-.307.253,4.289,4.289,0,0,1-1.184.528,16.594,16.594,0,0,1-2.251.447c-1.486.2-2.961.3-4.437.389-5.893.3-11.761.329-17.629.471-11.721.269-23.467.7-35.02,2.474a76.8,76.8,0,0,0-16.851,4.343,29.521,29.521,0,0,0-7.412,4.258,13.738,13.738,0,0,0-4.655,6.772,15.588,15.588,0,0,0,.03,8.294,29.185,29.185,0,0,0,3.347,7.852,39.666,39.666,0,0,0,5.222,6.85,33.991,33.991,0,0,0,6.6,5.5,31.623,31.623,0,0,0,3.727,2.133,18.281,18.281,0,0,0,1.971.856c.669.256,1.316.571,2,.779l2.066.618c.345.1.685.214,1.034.3l1.059.22,2.116.441c.709.133,1.432.2,2.146.3a89.782,89.782,0,0,0,17.419.25c11.661-.821,23.288-2.557,34.944-4s23.333-2.8,35.028-3.955,23.41-2.134,35.145-2.836c11.738-.683,23.486-1.206,35.279-1l-.03,1.817c-7.574-.027-15.177.283-22.747.809s-15.127,1.333-22.618,2.5a153.893,153.893,0,0,0-22.128,4.963,78.527,78.527,0,0,0-10.505,4.086A39.784,39.784,0,0,0,406.5,251.5a18.258,18.258,0,0,0-5.74,9.036,19.58,19.58,0,0,0,.622,10.732,27.8,27.8,0,0,0,5.48,9.5,28.7,28.7,0,0,0,8.779,6.62,41.744,41.744,0,0,0,5.151,2.133A53.742,53.742,0,0,0,426.2,291a75.673,75.673,0,0,0,11.17,1.532,158.377,158.377,0,0,0,22.686-.336c7.567-.574,15.119-1.462,22.676-2.367s15.1-1.869,22.648-2.871q22.63-3.008,45.206-6.448,22.577-3.412,45.114-7.1l22.543-3.676c3.76-.606,7.517-1.217,11.294-1.771.946-.137,1.891-.271,2.853-.385a12.813,12.813,0,0,1,1.551-.114c.21.2-.072-.442.894.586-.385,1.714-.52.768-.585,1.1-.172.071-.287.1-.417.146l-.721.2c-1.876.476-3.727.874-5.586,1.3-14.845,3.316-29.641,6.921-44,11.876a122.5,122.5,0,0,0-20.775,9.078,36.521,36.521,0,0,0-8.843,6.809,13.264,13.264,0,0,0-2.783,4.623,8.349,8.349,0,0,0,.025,5.223c1.117,3.445,3.765,6.3,6.6,8.695a55.065,55.065,0,0,0,9.409,6.2,89.145,89.145,0,0,0,21.2,7.889,76.575,76.575,0,0,0,22.515,1.832,89.463,89.463,0,0,0,22.19-4.493,130.564,130.564,0,0,0,20.771-9.224c6.659-3.647,13.258-7.5,20.1-10.871,3.41-1.707,6.876-3.311,10.4-4.766s7.129-2.729,10.73-3.965,7.169-2.52,10.72-3.906c3.561-1.364,7.166-2.606,10.794-3.773a263.425,263.425,0,0,1,44.565-9.927,203.346,203.346,0,0,1,22.764-1.842,96.726,96.726,0,0,1,11.412.391,37.878,37.878,0,0,1,5.626.959,14.752,14.752,0,0,1,2.688.956,4.459,4.459,0,0,1,2.126,1.83" fill="#2b2b2b"/>
          <path id="Path_20040" data-name="Path 20040" d="M352.461,496.279a308.786,308.786,0,0,0,35-7.193c5.751-1.553,11.455-3.287,17.047-5.332,2.793-1.028,5.559-2.133,8.26-3.374a51.174,51.174,0,0,0,7.772-4.307,16.667,16.667,0,0,0,3.284-2.91,4.28,4.28,0,0,0,1.18-3.849c-.431-1.3-1.833-2.067-3.15-2.607a25.944,25.944,0,0,0-4.244-1.2,172.951,172.951,0,0,0-17.706-2.12c-11.875-.985-23.769-1.939-35.613-3.4a397,397,0,0,1-70.005-14.665A373.116,373.116,0,0,1,228.4,417.448a275.168,275.168,0,0,1-30.471-18.872,143.536,143.536,0,0,1-13.91-11.38,64.872,64.872,0,0,1-11.586-13.851,27.306,27.306,0,0,1-3.392-8.531,16.208,16.208,0,0,1,.833-9.251,20.479,20.479,0,0,1,5.506-7.422A39.57,39.57,0,0,1,182.906,343a86.058,86.058,0,0,1,16.8-6.554c5.764-1.661,11.634-2.915,17.507-3.993a155.716,155.716,0,0,1,35.795-2.5,176.452,176.452,0,0,1,35.453,5.524c23.232,5.954,45.209,15.548,67.3,24.41,11.046,4.458,22.14,8.786,33.412,12.583a321.7,321.7,0,0,0,34.316,9.633,262.4,262.4,0,0,0,35.222,5.26,175.682,175.682,0,0,0,35.529-.431l2.212-.24,2.205-.3c1.47-.208,2.943-.391,4.41-.622,2.931-.487,5.867-.934,8.784-1.511,5.848-1.063,11.658-2.358,17.463-3.662,11.6-2.681,23.137-5.663,34.67-8.667,11.528-3.038,23.077-5.984,34.532-9.237s22.853-6.719,34.177-10.415q33.965-11.1,67.018-24.785,16.5-6.86,32.675-14.465c10.763-5.1,21.4-10.468,31.758-16.343,5.171-2.944,10.279-6.01,15.19-9.359,2.451-1.678,4.86-3.424,7.138-5.318a43.679,43.679,0,0,0,3.272-2.987,16.529,16.529,0,0,0,2.691-3.431,4.579,4.579,0,0,0,.626-1.959,2.147,2.147,0,0,0-.764-1.718,9.247,9.247,0,0,0-3.905-1.707,44.646,44.646,0,0,0-8.811-.93,135.98,135.98,0,0,0-17.8.978,251.56,251.56,0,0,0-35.074,6.691,230.459,230.459,0,0,0-33.778,11.612,230.677,230.677,0,0,1,33.718-11.836,251.933,251.933,0,0,1,35.079-6.927,136.494,136.494,0,0,1,17.871-1.1,45.268,45.268,0,0,1,8.945.888,9.824,9.824,0,0,1,4.208,1.836,2.844,2.844,0,0,1,1,2.228,5.278,5.278,0,0,1-.694,2.271,17.288,17.288,0,0,1-2.784,3.606,44.792,44.792,0,0,1-3.309,3.059c-2.295,1.932-4.708,3.7-7.163,5.409-4.918,3.4-10.02,6.509-15.189,9.495-10.351,5.951-21,11.355-31.76,16.5s-21.673,9.986-32.672,14.606q-33,13.85-67.026,25.065-16.992,5.616-34.2,10.558c-11.473,3.3-23.028,6.242-34.548,9.3-11.535,3.019-23.079,6.018-34.707,8.72-5.822,1.316-11.65,2.622-17.53,3.7-2.93.583-5.886,1.037-8.835,1.531-1.476.233-2.961.419-4.442.631l-2.222.308-2.232.246a177.471,177.471,0,0,1-35.863.479,263.866,263.866,0,0,1-35.468-5.253,323.4,323.4,0,0,1-34.522-9.644c-11.329-3.8-22.463-8.131-33.529-12.581-22.111-8.9-44.009-18.484-67.039-24.411a174.675,174.675,0,0,0-35.087-5.512,153.981,153.981,0,0,0-35.394,2.433c-5.852,1.067-11.656,2.3-17.35,3.934a84.436,84.436,0,0,0-16.467,6.4,37.934,37.934,0,0,0-7.214,4.907,18.829,18.829,0,0,0-5.078,6.8,14.525,14.525,0,0,0-.748,8.308,25.7,25.7,0,0,0,3.185,8.007,63.325,63.325,0,0,0,11.278,13.5,142.285,142.285,0,0,0,13.741,11.267A273.9,273.9,0,0,0,229.1,416.149a371.832,371.832,0,0,0,65.551,28.011,395.961,395.961,0,0,0,69.76,14.876c11.814,1.52,23.684,2.556,35.56,3.617a173.288,173.288,0,0,1,17.77,2.245,26.5,26.5,0,0,1,4.338,1.261,9.476,9.476,0,0,1,2.024,1.1,3.858,3.858,0,0,1,1.44,1.887,3.741,3.741,0,0,1-.114,2.37,6.847,6.847,0,0,1-1.193,1.985,17.181,17.181,0,0,1-3.408,2.982,51.6,51.6,0,0,1-7.877,4.3c-2.723,1.229-5.505,2.316-8.313,3.329-5.619,2.011-11.343,3.707-17.11,5.221a308.9,308.9,0,0,1-35.067,6.951" fill="#2b2b2b"/>
          <path id="Path_20041" data-name="Path 20041" d="M782.705,381.243c-14.569,9.092-29.371,17.8-44.129,26.581s-29.5,17.577-44.167,26.51C665.05,452.142,636,470.468,606.957,488.788c-14.5,9.2-28.967,18.439-43.237,27.966-7.121,4.783-14.2,9.63-21.1,14.706a189.692,189.692,0,0,0-19.786,16.27,49.828,49.828,0,0,0-8.034,9.732l-6.543,11.09c-4.38,7.383-8.649,14.83-12.958,22.255q-12.833,22.327-25.218,44.907-12.41,22.562-24.281,45.415c-3.943,7.623-7.838,15.271-11.628,22.966-.955,1.921-1.852,3.853-2.836,5.8a63.663,63.663,0,0,1-3.24,5.671c-2.407,3.618-5.256,7.145-9.18,9.437a14.272,14.272,0,0,1-13.114.84,31.773,31.773,0,0,1-10.571-7.809,71.589,71.589,0,0,1-7.952-10.306c-1.174-1.827-2.286-3.671-3.311-5.615l-1.409-2.942c-.481-.976-.838-2.007-1.262-3.008a69.849,69.849,0,0,1-4.707-25.477,101.8,101.8,0,0,1,3.382-25.664,159.672,159.672,0,0,1,8.542-24.4c3.449-7.9,7.416-15.54,11.533-23.094,2.087-3.765,4.281-7.466,6.5-11.143s4.494-7.321,6.54-11.065a28.874,28.874,0,0,0,2.527-5.77,4.217,4.217,0,0,0,.007-2.793,2.571,2.571,0,0,0-2.271-1.195,16.745,16.745,0,0,0-6.052,1.308c-1.99.734-3.94,1.614-5.87,2.53-7.707,3.719-15.15,8.023-22.684,12.139l-22.529,12.483c-7.5,4.185-14.98,8.391-22.389,12.727-7.381,4.372-14.792,8.753-21.583,14.016,6.745-5.326,14.122-9.776,21.464-14.216,7.372-4.4,14.82-8.68,22.28-12.933l22.418-12.688c7.5-4.184,14.892-8.551,22.62-12.368,1.937-.945,3.9-1.841,5.937-2.6a17.522,17.522,0,0,1,6.453-1.4,4.434,4.434,0,0,1,1.747.422,3.083,3.083,0,0,1,1.374,1.316,5.14,5.14,0,0,1,.087,3.512,29.7,29.7,0,0,1-2.59,6.019c-2.054,3.8-4.316,7.455-6.51,11.144s-4.368,7.381-6.426,11.137c-4.062,7.543-7.98,15.184-11.363,23.044a158.283,158.283,0,0,0-8.345,24.222,100.236,100.236,0,0,0-3.206,25.295,73.213,73.213,0,0,0,1.158,12.674,66.28,66.28,0,0,0,3.484,12.212c.416.974.763,1.977,1.235,2.928l1.376,2.864c.98,1.853,2.091,3.689,3.24,5.471a69.946,69.946,0,0,0,7.778,10.049,30.179,30.179,0,0,0,9.991,7.387,12.753,12.753,0,0,0,5.9,1.044,11.236,11.236,0,0,0,1.487-.169l1.459-.36a15.591,15.591,0,0,0,2.747-1.27c3.538-2.062,6.272-5.4,8.579-8.895a61.56,61.56,0,0,0,3.138-5.515c.953-1.887,1.862-3.851,2.815-5.778q5.677-11.578,11.607-23.019,11.82-22.905,24.23-45.5,12.43-22.575,25.311-44.9c4.324-7.422,8.609-14.867,13.005-22.248l6.566-11.086a51.487,51.487,0,0,1,8.329-10.07,191.32,191.32,0,0,1,20-16.4c6.942-5.086,14.044-9.932,21.186-14.711,14.3-9.538,28.819-18.715,43.374-27.833,29.146-18.172,58.278-36.366,87.75-54.013q22.122-13.2,44.411-26.116c14.836-8.646,29.714-17.222,44.363-26.182" fill="#2b2b2b"/>
          <path id="Path_20042" data-name="Path 20042" d="M306.286,623.864a204.5,204.5,0,0,0-14.752,14.52,177.1,177.1,0,0,0-12.942,16.141c-8.024,11.246-14.383,23.57-19.984,36.174-2.843,6.289-5.514,12.66-8.58,18.863-1.514,3.11-3.2,6.14-5.012,9.095a60.756,60.756,0,0,1-6.3,8.28,39.041,39.041,0,0,1-12.627,9.116c-.8.345-1.565.771-2.389,1.051l-2.455.888a25.525,25.525,0,0,1-2.5.753c-.84.226-1.674.474-2.518.68-1.7.357-3.4.725-5.123.952a68.737,68.737,0,0,1-10.38.769c-1.737.047-3.471-.083-5.207-.152-1.73-.166-3.465-.288-5.181-.574-1.727-.21-3.425-.6-5.13-.942-1.684-.441-3.378-.848-5.021-1.439a39.589,39.589,0,0,1-9.437-4.507,28.965,28.965,0,0,1-4.079-3.334,20.876,20.876,0,0,1-3.327-4.1,24.665,24.665,0,0,1-3.481-9.913,36.2,36.2,0,0,1-.269-5.254,45.794,45.794,0,0,1,.466-5.222,78.67,78.67,0,0,1,6.19-19.867,154.237,154.237,0,0,1,9.63-18.42,132.9,132.9,0,0,1,12.393-16.7,168.859,168.859,0,0,1,31.023-27.55c2.839-1.983,5.734-3.889,8.653-5.743,1.446-.93,2.951-1.839,4.308-2.789a4.3,4.3,0,0,0,.418-.333c.2.1-.293-.433.133.83.578.317.236.091.259.169a8.41,8.41,0,0,0-1.124.249c-.8.225-1.613.494-2.42.773-6.452,2.3-12.762,5.112-19,8.012-12.475,5.851-24.653,12.339-36.558,19.288s-23.527,14.385-34.848,22.249q-8.488,5.9-16.74,12.137c-5.493,4.154-10.9,8.474-16.576,12.464A122.926,122.926,0,0,1,87.879,701.1a94.8,94.8,0,0,1-19.7,6.842,120.226,120.226,0,0,1-20.654,2.774,92.943,92.943,0,0,1-20.842-1.1,49.985,49.985,0,0,1-10.126-2.875,30.137,30.137,0,0,1-9.037-5.577,22.357,22.357,0,0,1-5.995-8.847A26.817,26.817,0,0,1,.038,681.765a42.792,42.792,0,0,1,1.875-10.391,65.128,65.128,0,0,1,3.859-9.762,65.915,65.915,0,0,1,5.271-9.057c.494-.723.959-1.468,1.476-2.174l1.642-2.052,1.644-2.051,1.808-1.9A77.126,77.126,0,0,1,34.025,631.44a129.8,129.8,0,0,1,18.72-9.141q9.65-3.88,19.543-7.035c6.576-2.141,13.187-4.157,19.8-6.137L171.5,585.547c13.217-3.976,26.441-7.945,39.5-12.342,3.262-1.107,6.512-2.246,9.722-3.471a78.5,78.5,0,0,0,9.359-4.124,17.4,17.4,0,0,0,2.075-1.324c.618-.454,1.21-1.1,1.241-1.451a.172.172,0,0,0,0-.1c.009-.031-.015-.062-.036-.092,0-.065-.1-.142-.165-.229a3.971,3.971,0,0,0-.363-.255l-.486-.224a12.806,12.806,0,0,0-2.339-.565,75.872,75.872,0,0,0-10.206-.5c-6.879.019-13.783.266-20.688.4s-13.822.225-20.738.1c-13.818-.275-27.718-1.171-41.291-4.194a83.9,83.9,0,0,1-19.683-6.83c-6.2-3.16-11.976-7.562-15.884-13.46a38.3,38.3,0,0,1-6.4-19.794,39.2,39.2,0,0,1,1.036-10.449,29.691,29.691,0,0,1,4.219-9.628,23.966,23.966,0,0,1,7.593-7.288,23.539,23.539,0,0,1,2.362-1.219,25.122,25.122,0,0,1,2.5-.889,27.743,27.743,0,0,1,5.183-1,51.476,51.476,0,0,1,10.45.264c3.452.4,6.867,1,10.261,1.668,6.788,1.346,13.5,2.949,20.238,4.461,6.73,1.527,13.47,3,20.236,4.337,13.53,2.674,27.164,4.88,40.882,6.322q20.584,2.125,41.31,2.382a427.856,427.856,0,0,0,82.421-6.576,427.933,427.933,0,0,1-82.427,7.042q-20.718-.16-41.375-2.153c-13.754-1.367-27.421-3.5-40.99-6.1-6.786-1.3-13.538-2.766-20.278-4.268s-13.463-3.074-20.223-4.392c-3.38-.653-6.771-1.241-10.179-1.621a50.382,50.382,0,0,0-10.215-.229,26.739,26.739,0,0,0-4.962.975,24,24,0,0,0-2.372.851,22.408,22.408,0,0,0-2.23,1.161,22.763,22.763,0,0,0-7.189,6.952,28.487,28.487,0,0,0-4.018,9.253,37.977,37.977,0,0,0-.967,10.1,37,37,0,0,0,6.233,19.1c3.768,5.653,9.355,9.893,15.418,12.963a82.345,82.345,0,0,0,19.367,6.646c13.42,2.947,27.237,3.8,41,4.029,6.888.1,13.781.023,20.677-.132s13.794-.4,20.722-.422a76.816,76.816,0,0,1,10.461.508,14.22,14.22,0,0,1,2.684.656c.23.094.462.208.69.316a4.955,4.955,0,0,1,.689.49,2.166,2.166,0,0,1,.715,1.876,3.132,3.132,0,0,1-.8,1.56,7.687,7.687,0,0,1-1.074.979,18.972,18.972,0,0,1-2.281,1.463,79.85,79.85,0,0,1-9.573,4.234c-3.239,1.24-6.5,2.387-9.777,3.5-13.1,4.426-26.329,8.41-39.549,12.4L92.614,610.869c-6.61,1.985-13.2,4-19.755,6.145q-9.839,3.168-19.412,7.01A128.063,128.063,0,0,0,35,633.055a75.536,75.536,0,0,0-16,12.627l-1.76,1.847-1.6,1.989-1.6,1.989c-.5.684-.954,1.406-1.434,2.108a64.032,64.032,0,0,0-5.146,8.82C4.5,668.549,2.246,675.127,1.9,681.851a24.941,24.941,0,0,0,1.362,9.826,20.488,20.488,0,0,0,5.5,8.131,28.3,28.3,0,0,0,8.491,5.242,48.144,48.144,0,0,0,9.754,2.778,91.281,91.281,0,0,0,20.429,1.1,118.578,118.578,0,0,0,20.345-2.71,93.145,93.145,0,0,0,19.351-6.7,121.3,121.3,0,0,0,17.677-10.455c5.626-3.943,11.018-8.244,16.541-12.412s11.127-8.216,16.807-12.159q17.05-11.818,34.983-22.283c11.953-6.953,24.168-13.467,36.713-19.308,6.286-2.9,12.611-5.7,19.177-8.012.825-.284,1.654-.555,2.514-.794a9.173,9.173,0,0,1,1.4-.294c.231.065.125-.2.891.229.579,1.449-.187,1.123-.1,1.356a5.718,5.718,0,0,1-.591.476c-1.476,1.024-2.934,1.893-4.392,2.826-2.915,1.839-5.793,3.721-8.62,5.682a167.452,167.452,0,0,0-30.855,27.224,131.557,131.557,0,0,0-12.323,16.5,153.06,153.06,0,0,0-9.605,18.236,77.5,77.5,0,0,0-6.164,19.546,44.752,44.752,0,0,0-.471,5.086,35.074,35.074,0,0,0,.244,5.081,23.561,23.561,0,0,0,3.3,9.489,19.8,19.8,0,0,0,3.163,3.927,27.9,27.9,0,0,0,3.914,3.219,38.586,38.586,0,0,0,9.181,4.417c1.607.585,3.271.989,4.924,1.428,1.676.339,3.346.732,5.048.944,1.69.288,3.4.411,5.107.582,1.711.075,3.424.215,5.139.177a67.8,67.8,0,0,0,10.255-.7c1.7-.214,3.38-.569,5.06-.911.833-.2,1.655-.439,2.483-.656a24.934,24.934,0,0,0,2.462-.727l2.419-.861c.813-.27,1.566-.685,2.352-1.02a38.331,38.331,0,0,0,12.451-8.882,60.114,60.114,0,0,0,6.27-8.145c1.814-2.919,3.5-5.921,5.031-9.011,3.089-6.162,5.8-12.519,8.676-18.8,5.677-12.584,12.12-24.9,20.217-36.117a177.547,177.547,0,0,1,13.045-16.085,204.624,204.624,0,0,1,14.837-14.442" fill="#2b2b2b"/>
          <path id="Path_20043" data-name="Path 20043" d="M867.669,332.581a523.579,523.579,0,0,0-45.3,86.562l-2.357,5.641c-.773,1.886-1.455,3.808-2.187,5.709L813.5,441.932c-1.407,3.826-2.66,7.706-4,11.555l-1.977,5.785c-.677,1.922-1.223,3.887-1.841,5.83l-3.607,11.682-3.29,11.775c-1.137,3.914-2.1,7.876-3.09,11.828s-2.016,7.9-2.874,11.882q-5.543,23.813-9.219,48.01-3.756,24.166-5.843,48.539c-1.406,16.24-2.284,32.522-2.914,48.815s-.982,32.6-1.547,48.911c-.615,16.3-1.29,32.65-3.726,48.858a109.705,109.705,0,0,1-6.055,23.842,50.8,50.8,0,0,1-5.852,10.929c-.578.865-1.269,1.65-1.908,2.472-.705.768-1.368,1.576-2.135,2.287a31.3,31.3,0,0,1-4.846,3.966,32.419,32.419,0,0,1-5.519,2.96,38.577,38.577,0,0,1-5.954,1.9A53.46,53.46,0,0,1,724.969,805a50.232,50.232,0,0,1-12.294-1.686,30.97,30.97,0,0,1-11.231-5.449,23.417,23.417,0,0,1-7.322-10.159,37.746,37.746,0,0,1-2.257-12.253,70.233,70.233,0,0,1,.786-12.344,122.668,122.668,0,0,1,2.42-12.076c1.983-7.959,4.556-15.736,7.189-23.456,1.3-3.862,2.662-7.712,3.753-11.587.266-.968.516-1.939.691-2.9a13.806,13.806,0,0,0,.187-1.413,3.457,3.457,0,0,0-.084-1.156c-.049-.115-.071-.159-.074-.136.015-.015-.015,0-.1,0a2.586,2.586,0,0,0-.935.565,15.014,15.014,0,0,0-1.967,2.1c-2.47,3.128-4.637,6.6-6.835,10.018l-6.573,10.326a168.821,168.821,0,0,1-14.513,19.839,48.458,48.458,0,0,1-9.22,8.347,19.857,19.857,0,0,1-5.788,2.7,11.669,11.669,0,0,1-6.539-.118,15.807,15.807,0,0,1-5.53-3.33,27.017,27.017,0,0,1-4.13-4.78,48.647,48.647,0,0,1-5.559-11.128,70.963,70.963,0,0,1-4.059-24.337,61.6,61.6,0,0,1,1.348-12.331,63.332,63.332,0,0,1,3.846-11.79,82.916,82.916,0,0,1,13.376-20.711,138.263,138.263,0,0,1,17.8-16.977c6.36-5.169,13.085-9.857,19.766-14.512,1.665-1.169,3.326-2.341,4.923-3.562.795-.613,1.579-1.237,2.295-1.893a10.853,10.853,0,0,0,.986-1.005,2.519,2.519,0,0,0,.535-.882c.023-.089-.006-.017.011-.038-.009-.008-.045-.015-.049-.045a1.289,1.289,0,0,1-.148-.067,3.311,3.311,0,0,0-1.154-.1,16.072,16.072,0,0,0-2.836.467c-1.926.473-3.849,1.1-5.76,1.762-7.641,2.7-15.176,5.859-22.779,8.816-7.6,2.975-15.247,5.867-23.036,8.382a136.384,136.384,0,0,1-23.906,5.77,47.862,47.862,0,0,1-12.423.162,23.694,23.694,0,0,1-6.115-1.641,14.967,14.967,0,0,1-8.52-9.219,22.423,22.423,0,0,1-1.137-6.235,40.261,40.261,0,0,1,1.527-12.362c.14-.5.281-1,.444-1.493l.542-1.476.543-1.475c.191-.487.458-.945.684-1.418a19.373,19.373,0,0,1,1.532-2.748,22.159,22.159,0,0,1,1.821-2.564c.69-.784,1.306-1.646,2.061-2.364l2.244-2.176c1.6-1.312,3.187-2.659,4.9-3.8,6.753-4.752,14.046-8.488,21.275-12.274,7.256-3.743,14.55-7.383,21.814-11.083,14.522-7.4,29.017-14.88,43.182-22.909,3.535-2.015,7.043-4.077,10.464-6.251,1.691-1.106,3.4-2.211,4.961-3.442a11.424,11.424,0,0,0,2.049-1.922c.058-.078.13-.167.129-.2.018-.042.061-.123.036-.059,0,.01.049.109.013.069-.046-.019-.019-.053-.09-.09a1.456,1.456,0,0,1-.187-.12l-.275-.1a4.3,4.3,0,0,0-.625-.165,25.149,25.149,0,0,0-5.888-.006c-2.006.176-4.014.45-6.018.758-4.006.628-8,1.408-11.975,2.259a325.518,325.518,0,0,0-46.813,13.685c-7.613,2.878-15.086,6.1-22.546,9.4-3.742,1.624-7.471,3.3-11.368,4.646a30.088,30.088,0,0,1-6.053,1.5,10,10,0,0,1-6.288-1.122A10.51,10.51,0,0,1,590,580.728a20.314,20.314,0,0,1-1.582-6.069,41.552,41.552,0,0,1,.639-12.347,63.666,63.666,0,0,1,9.346-22.68,56.082,56.082,0,0,1,7.842-9.506,53.146,53.146,0,0,1,9.813-7.452c7.086-4.212,14.876-6.938,22.632-9.435,7.778-2.477,15.6-4.771,23.282-7.469a228.383,228.383,0,0,0,22.618-9.182,218.382,218.382,0,0,0,21.426-11.7c6.915-4.307,13.8-8.694,20.246-13.667a106.071,106.071,0,0,0,17.581-16.869,101.044,101.044,0,0,0,13.07-20.566c.432-.923.884-1.836,1.3-2.765l1.167-2.824c.821-1.866,1.429-3.814,2.137-5.724a108.227,108.227,0,0,0,3.213-11.788,136.753,136.753,0,0,0,2.777-24.271,136.8,136.8,0,0,1-2.664,24.3,108.4,108.4,0,0,1-3.161,11.819c-.7,1.917-1.3,3.871-2.113,5.745l-1.156,2.835c-.411.934-.86,1.852-1.289,2.777a101.314,101.314,0,0,1-13.011,20.688,106.417,106.417,0,0,1-17.564,17.017c-6.449,5.021-13.321,9.447-20.223,13.792a219.081,219.081,0,0,1-21.435,11.837,229.617,229.617,0,0,1-22.648,9.321c-7.692,2.742-15.517,5.078-23.265,7.586-7.727,2.527-15.448,5.247-22.4,9.412a52.126,52.126,0,0,0-9.609,7.335,55.115,55.115,0,0,0-7.67,9.351,62.589,62.589,0,0,0-9.123,22.3,40.445,40.445,0,0,0-.594,12,19.163,19.163,0,0,0,1.5,5.718,9.325,9.325,0,0,0,3.638,4.331,8.789,8.789,0,0,0,5.541.946,28.952,28.952,0,0,0,5.789-1.459c3.809-1.328,7.527-3.006,11.258-4.638,7.447-3.312,14.947-6.572,22.582-9.481a326.823,326.823,0,0,1,46.978-13.87c3.994-.867,8.006-1.662,12.053-2.308,2.026-.317,4.059-.6,6.114-.786a26.2,26.2,0,0,1,6.31.01,5.842,5.842,0,0,1,.85.224l.439.17c.155.091.308.189.459.288a2.22,2.22,0,0,1,.43.462,1.2,1.2,0,0,1,.236.774,1.465,1.465,0,0,1-.163.667,1.724,1.724,0,0,1-.261.448,12.326,12.326,0,0,1-2.367,2.277c-1.639,1.3-3.358,2.415-5.074,3.544-3.454,2.208-6.974,4.289-10.517,6.321-14.2,8.082-28.7,15.565-43.228,22.991-7.264,3.708-14.559,7.357-21.794,11.1-7.2,3.777-14.471,7.518-21.062,12.169-1.68,1.124-3.2,2.427-4.754,3.7l-2.144,2.083c-.723.686-1.3,1.5-1.953,2.244a20.635,20.635,0,0,0-1.713,2.418,17.771,17.771,0,0,0-1.439,2.586c-.213.447-.465.873-.645,1.335l-.51,1.4-.513,1.4c-.157.476-.291.957-.425,1.439a38.558,38.558,0,0,0-1.457,11.823c.186,3.921,1.311,7.879,3.936,10.691,2.593,2.849,6.465,4.236,10.357,4.763a46.1,46.1,0,0,0,11.964-.175,134.723,134.723,0,0,0,23.579-5.719c7.73-2.5,15.343-5.389,22.924-8.365,7.594-2.959,15.1-6.116,22.838-8.86,1.939-.675,3.9-1.316,5.93-1.818a17.6,17.6,0,0,1,3.189-.52,4.916,4.916,0,0,1,1.866.215,4.152,4.152,0,0,1,.537.268,2.989,2.989,0,0,1,.5.481,1.862,1.862,0,0,1,.315,1.413,3.955,3.955,0,0,1-.935,1.759,12.673,12.673,0,0,1-1.15,1.18c-.787.722-1.6,1.368-2.42,2-1.642,1.256-3.311,2.436-4.982,3.612-6.693,4.672-13.356,9.326-19.652,14.452a136.432,136.432,0,0,0-17.547,16.76,81.238,81.238,0,0,0-13.062,20.244c-6.684,14.707-6.423,31.941-1.129,47.066a46.8,46.8,0,0,0,5.328,10.7c2.234,3.232,5.121,6.207,8.7,7.412a9.816,9.816,0,0,0,5.522.094,18.06,18.06,0,0,0,5.246-2.453,46.712,46.712,0,0,0,8.864-8.026,167.31,167.31,0,0,0,14.364-19.608l6.573-10.308c2.215-3.435,4.372-6.9,6.961-10.175a16.62,16.62,0,0,1,2.221-2.348,4.079,4.079,0,0,1,1.7-.929,1.9,1.9,0,0,1,1.369.221,1.926,1.926,0,0,1,.826,1.051,4.95,4.95,0,0,1,.184,1.869,15.255,15.255,0,0,1-.214,1.619c-.191,1.046-.453,2.051-.727,3.05-1.123,3.976-2.489,7.818-3.795,11.682-2.637,7.712-5.2,15.438-7.166,23.311a120.356,120.356,0,0,0-2.4,11.9,68.359,68.359,0,0,0-.781,12.042,36.067,36.067,0,0,0,2.135,11.7,21.708,21.708,0,0,0,6.79,9.449,29.289,29.289,0,0,0,10.622,5.151A48.6,48.6,0,0,0,725,803.331a51.851,51.851,0,0,0,11.943-1.187,36.962,36.962,0,0,0,5.688-1.806,30.751,30.751,0,0,0,5.244-2.807,29.723,29.723,0,0,0,4.606-3.763c.731-.675,1.364-1.448,2.039-2.179.611-.787,1.273-1.535,1.829-2.367a49.188,49.188,0,0,0,5.673-10.582,109.172,109.172,0,0,0,5.991-23.481c2.461-16.068,3.182-32.387,3.839-48.668.607-16.293,1-32.6,1.677-48.909s1.6-32.606,3.046-48.868q1.084-12.2,2.563-24.352,1.509-12.154,3.419-24.246,3.771-24.193,9.371-48.056c.88-3.986,1.925-7.931,2.935-11.884s1.994-7.915,3.15-11.829l3.35-11.775,3.666-11.68c.627-1.941,1.183-3.906,1.87-5.827l2.006-5.782c1.357-3.848,2.631-7.725,4.058-11.547l4.38-11.429c.741-1.9,1.434-3.82,2.217-5.7l2.385-5.636a523.828,523.828,0,0,1,45.728-86.385" fill="#2b2b2b"/>
          <path id="Path_20044" data-name="Path 20044" d="M277.772,79.859c22.306,5.964,44.248,13.189,66.175,20.4,21.923,7.236,43.778,14.673,65.661,22.021q32.8,11.108,65.712,21.835c21.984,7.026,43.976,14.035,66.155,20.4,11.053,3.314,22.207,6.254,33.333,9.3,2.776.784,5.58,1.454,8.376,2.157l8.391,2.1,8.391,2.095c2.795.712,5.624,1.262,8.435,1.9a429.213,429.213,0,0,0,68.213,10.733,546.143,546.143,0,0,0,69.085,1.022c11.5-.592,23-1.479,34.424-2.935s22.795-3.312,34.055-5.711c11.243-2.467,22.369-5.444,33.307-9.016a270.464,270.464,0,0,0,31.9-13.072,208.521,208.521,0,0,0,29.437-17.851l6.827-5.255c2.254-1.782,4.454-3.66,6.677-5.495l13.264-11.12q26.465-22.321,52.481-45.169c8.679-7.606,17.3-15.282,26.078-22.8s17.711-14.872,27.128-21.613a178.08,178.08,0,0,1,29.987-17.471,166.8,166.8,0,0,1,16.174-6.337c2.74-.939,5.535-1.7,8.3-2.557,2.776-.808,5.561-1.559,8.356-2.3A162.133,162.133,0,0,1,1121.075,1.5a130.473,130.473,0,0,1,17.31-1.477,150.049,150.049,0,0,1,17.346.73c5.759.568,11.5,1.357,17.172,2.484a219.619,219.619,0,0,1,33.385,9.293A216.836,216.836,0,0,1,1237.8,26.914c5.028,2.847,9.94,5.9,14.688,9.191a141.784,141.784,0,0,1,13.584,10.747c8.553,7.707,16.251,16.668,21.063,27.213-4.882-10.511-12.629-19.4-21.218-27.039a141.216,141.216,0,0,0-13.628-10.632c-4.76-3.253-9.681-6.265-14.716-9.071a216.219,216.219,0,0,0-31.517-14.136,218.971,218.971,0,0,0-33.321-9.034c-5.655-1.084-11.366-1.859-17.093-2.4a149.191,149.191,0,0,0-17.23-.661,129.433,129.433,0,0,0-17.158,1.529A160.794,160.794,0,0,0,1104.4,6.275c-2.778.75-5.563,1.512-8.326,2.328-2.743.863-5.519,1.629-8.234,2.572a165.4,165.4,0,0,0-16.025,6.349,176.666,176.666,0,0,0-29.686,17.449c-9.335,6.735-18.2,14.11-26.941,21.633s-17.36,15.2-26.031,22.825q-26,22.882-52.449,45.255L923.446,135.83c-2.225,1.84-4.415,3.716-6.685,5.516l-6.888,5.316a210.425,210.425,0,0,1-29.68,18.051,272.324,272.324,0,0,1-32.117,13.209,346.342,346.342,0,0,1-33.5,9.108c-11.324,2.4-22.752,4.252-34.227,5.7s-23.016,2.324-34.563,2.9a548.016,548.016,0,0,1-69.306-1.111,430.852,430.852,0,0,1-68.442-10.855c-2.816-.644-5.653-1.2-8.45-1.915l-8.4-2.11-8.4-2.109c-2.8-.7-5.608-1.386-8.384-2.182-11.128-3.091-22.285-6.076-33.333-9.436-22.176-6.454-44.152-13.55-66.117-20.661q-32.884-10.866-65.64-22.1c-21.835-7.494-43.638-15.076-65.509-22.458-21.876-7.355-43.765-14.725-66.029-20.837" fill="#2b2b2b"/>
        </g>
      </g>
    </g>
  </g>
</svg>
