<svg xmlns="http://www.w3.org/2000/svg" xmlns:xlink="http://www.w3.org/1999/xlink" width="481" height="957" viewBox="0 0 481 957">
  <defs>
    <clipPath id="clip-path">
      <path id="矩形_1" data-name="矩形 1" d="M0,100H481v957H0V100Z" transform="translate(-3659 3626.079)" fill="#ead065"/>
    </clipPath>
    <clipPath id="clip-path-2">
      <rect id="Rectangle_3237" data-name="Rectangle 3237" width="680.001" height="957" transform="translate(0 0.002)" fill="none"/>
    </clipPath>
  </defs>
  <g id="Mask_Group_23" data-name="Mask Group 23" transform="translate(3659 -3726.079)" clip-path="url(#clip-path)">
    <g id="Group_853" data-name="Group 853" transform="translate(-3659 3726.078)">
      <g id="Group_705" data-name="Group 705" clip-path="url(#clip-path-2)">
        <path id="Path_20031" data-name="Path 20031" d="M545.364,25.438c-61.472-59.5-173.569,2.248-185.327,15.589L382.509,90.1,333.253,65.45c-33.2,11.764-78.155,62.108-84.813,87.911,29.884,39.839,78.472,90.937,120.909,125.59-43.816-16.7-72.392-37.3-90.992-54.12-29.408-27.222-53.837-59.7-85.456-31.007a55.679,55.679,0,0,0-14.23,17.089l148.149,83.08-191.81-53.71a395.05,395.05,0,0,1-77.56,126.883l134.787,97.963c-24.512-31.966-114.6-72.462-171.582-61.828,17.779,68.874-39.233,148.28,7.294,205.9a262.972,262.972,0,0,1,119.19,14.5c-37.374,3.958-78.165,7.064-115.264,8.824,36.272,55.712,134.65,92.318,171.963,93.61a362.266,362.266,0,0,1-36.352,95.688c-32.028,57.871-68,85.245-55.047,112.242,6.94,14.468,26.229,25.29,39.735,22.493,19.473-4.031,25.037-35.987,29.274-55.379,8.408-38.483,25.635-91.781,64.418-157.228,37.943,27.166,155.9,62.74,222.349,34,32.189-6.823,97.919-99.887,133.9-152.253Q553.664,613.626,501.96,598.45c-25.953-7.663-23.021-18.674-47.231-26.692,39.632-2.43,101.373,6.6,143.412,14.6,20.628-38.236,78.048-147.5,45.255-178.534-16.986-15.744-132.431-12.38-154.631-11.85,48.915-13.4,85.262-18.166,110.946-19.848,35.666.609,54.407-21.7,46.342-55.676l-70.766-3.354L641,291.94c19.836-17.66,31.96-62.39,22.244-88.487l-65.259-1.736L660.7,174.13c3.483-36.151-28.536-133.2-115.336-148.692" fill="#f7e2c4"/>
        <path id="Path_20032" data-name="Path 20032" d="M333.177,85.89c-36.576,17.754-66.808,48.713-82.056,86.558l-.053-.407a758.408,758.408,0,0,0,117.79,123.549c-35.882-13.377-69.84-33.007-97.039-60.189-15.395-13.432-34.5-40.107-57.558-33.077-13,4.929-24.453,14.441-31.006,26.777l-.091-.312L325.449,308.66,328.9,310.6l-3.821-1.056-184.5-50.971.736-.375A393.01,393.01,0,0,1,65.363,382.749l-.07-.666c32.164,23.65,96.835,71.316,128.937,95.034l-.07.1c-32.5-23.654-97.366-70.974-129.8-94.694A396.792,396.792,0,0,0,140.37,257.243l184.971,51.373-.365.884L182.74,229.082c6.623-12.513,18.212-22.134,31.4-27.1,23.48-7.061,42.314,19.478,58.021,33.06,26.577,26.31,59.493,45.417,94.329,58.584l-.492.835a740.946,740.946,0,0,1-115.74-122.114c15.415-38.018,45.949-69.02,82.863-86.567Z" fill="#2b2b2b"/>
        <path id="Path_20033" data-name="Path 20033" d="M252.531,728.178c52.809,32.184,116.064,45.4,177.45,40.655,37.138-3.057,65.287-24.141,87.927-52.439,27.848-34.165,53.545-70.1,78.646-106.318l.151.39c-34.932-9.008-70.156-17.459-104.407-28.8-14-5.953-23.168-19.789-38.518-23.243,17.8-1.915,35.674-.633,53.391,1.5,28.866,2.612,57.758,5.439,86.159,11.438l-.5.226C611.894,538.6,654,449.575,646.227,413.508c-3.033-16.157-14.851-22.161-30.129-23.31-43.49-4.664-87.446-4.753-131.114-2.844,32.416-9.253,65.467-16.64,99.039-20.078,11.934-1.453,24.338-.884,35.751-5.126,20.962-6.669,26.075-31.086,21.6-50.344l.116-.022c7.281,34.781-10.447,54.678-45.365,55.033-36.195,2.79-71.863,10.4-106.734,20.322l-.158-.966c42.313-1.86,84.874-1.723,127.021,2.811,15.8,1.161,28.054,7.625,31.185,24.26,8,36.1-34.573,126-53.972,159.112-28.46-6.128-57.425-9.067-86.371-11.782-17.252-2.09-34.613-3.486-51.961-1.726l.061-.519c14.776,3.678,23.631,17.2,37.264,22.94,34.311,11.477,69.66,19.87,104.714,28.788-30.521,43.26-59.691,88.179-96.43,126.506-24.91,26.253-61.84,35.98-97.152,34.112-53.007-.719-105.962-14.208-151.129-42.4Z" fill="#2b2b2b"/>
        <path id="Path_20034" data-name="Path 20034" d="M177.3,468.075c-42.577-42.995-104.687-64.917-164.817-58.7l.447-.631c17.306,66.07-39.9,140.931,5.2,200.977l-.264-.109a249.169,249.169,0,0,1,117.249,13.913c-37.362,3.992-76.13,7.842-113.574,9.731l.449-.968c38.754,52.122,101.2,81.791,164.559,90.51l-.016.117c-63.991-8.118-127.308-38.054-166.191-90.8,36.97-1.93,75.356-5.588,112.266-9.443l-.128,1.07A248.776,248.776,0,0,0,17.774,610.211c-45.028-60.261,11.882-135.539-5.977-201.8,60.509-6.517,123.237,15.771,165.589,59.578Z" fill="#2b2b2b"/>
        <path id="Path_20035" data-name="Path 20035" d="M658.734,330.409c-18.1-.635-52.726-1.9-70.821-2.581l1.566-.62,64.355-25.5-.18.123C675.192,278.856,684.214,245.011,676,214.5l.422.333-64.845-1.476c17.864-8.04,44.864-20.145,62.511-28.175l-.122.189c-.678-69.254-42.206-131.015-111.732-145.963-52.8-45.891-130.311-20.787-180.592,16.659l.129-.508c.445,1.006,21.354,48.241,21.789,49.225L355,80.157l.053-.106L403.1,103.9l-.395.378L380.865,55.6C431.321,17.353,509.784-7.991,562.989,38.522l-.244-.123c69.763,14.954,111.27,77.843,111.639,147.1-17.259,7.729-44.19,19.969-61.607,27.857l-.1-.471,64.1,1.057c8.629,30.872-.483,65.328-22.4,88.549-.15.3-64.425,25.175-64.635,25.375l-.116-.683c17.228.751,51.895,2.31,69.116,3.108Z" fill="#2b2b2b"/>
        <path id="Path_20036" data-name="Path 20036" d="M189.636,723.418A352.91,352.91,0,0,1,141.066,839.43c-13.28,21.842-31.416,40.973-41.277,64.734-10.012,23.1,15.805,48.4,38.8,44.064,13.745-4.1,18.583-19.83,22.389-32.191,7.145-30.726,14.4-61.626,26.586-90.864a592.485,592.485,0,0,1,42.333-84.7l.1.06c-21.016,36.389-39.115,74.71-52,114.744q-4.814,15.017-8.6,30.333c-5.513,19.832-6.679,43.232-21.835,58.658-12.875,11.578-32.416,2.45-42.383-8.766-8.865-9.153-10-22.971-4.664-34.232,10.387-22.436,27-41.282,39.723-62.37a376.074,376.074,0,0,0,49.281-115.512Z" fill="#2b2b2b"/>
      </g>
    </g>
  </g>
</svg>
