<svg xmlns="http://www.w3.org/2000/svg" xmlns:xlink="http://www.w3.org/1999/xlink" width="436" height="535.551" viewBox="0 0 436 535.551">
  <defs>
    <clipPath id="clip-path">
      <path id="矩形_1" data-name="矩形 1" d="M0,100H436V635.551H0V100Z" transform="translate(-5098 4239.529)" fill="#ead065"/>
    </clipPath>
    <clipPath id="clip-path-2">
      <rect id="Rectangle_3232" data-name="Rectangle 3232" width="676" height="572" fill="none"/>
    </clipPath>
  </defs>
  <g id="Mask_Group_21" data-name="Mask Group 21" transform="translate(5098 -4339.529)" clip-path="url(#clip-path)">
    <g id="向量圖智慧型物件" transform="translate(-5338 4303.08)">
      <g id="Group_694" data-name="Group 694">
        <g id="Group_693" data-name="Group 693" clip-path="url(#clip-path-2)">
          <path id="Path_18220" data-name="Path 18220" d="M133.712,4.2c24.21,6.372,50.895,47.761,93.458,50.375,14.524-.446,24.38-8.341,26.82-10.062C277.03,28.266,384.2,36.9,478.532,87.288c134.43,78.162,161.592,151.152,197.26,277.773,5.582,95.174-102.545,176.522-163.266,154.674-48.859-19.792-98.3-50.117-149.563-18.639,0,0-17.672,4.508-17.672,4.508l13.1-1.045c-19.326,10.04-37.391,16.929-33.964,38.1,1.527,9.431,4.259,17.57-4.928,24.4-7.025,5.225-14.445,6.1-19.906,3.588-6.121-2.813-7.5-10.33-8.266-13.758-1.48-6.638-4.628-15.145-11.387-25.515-3.816-3.106-9.14-11.338-21.828-24.7-8.1-8.527-11.061-10.573-11.81-15.4-.611-3.934.553-7.752,9.4-19.813,16.4-20.021,25.658-30.509,28-49.58,6.269-26.92,42.472-42.691,64.274-60.529,66.8-59.839,54.454-155.307-.219-205.214,12.809,14.208,20.539,45.9,18.2,59.954,3.045,46.8-41.311,71.725-67.594,74.875-26.237,4.518-51.836-2.33-84.209-10.992-22.411-6-39.416-12.706-42.772-8.382-2.262,2.915,3.657,8.29,15.523,31.686,9.351,15.249,4.015,23.743-7.786,31.447-6.365,4.5-9.957,7.152-14.349,6.659-6.839,4-31.6-45.624-38.712-59.08-8.4-14.02-11.237-17.635-18.909-36.728-19.073-42.244-14.4-57.42,14.433-82.8,26.209-13.982-17.292-46.92-33.649-42C83.046,118.64,72.708,154.857,70,169.259c10.768,126.662,38.885,157.1,27.741,300.1-2.2,17.561-6.282,40.1-24.291,46.194-12.558,4.247-30.525.033-39.271-9.382-5.992-6.45-4.862-12.332-4.023-36.9.8-6.963.746-87.941-1.726-95.011-4.284-20.913-13.334-35.572-16.305-40.786-24.6-28.312-4.883-222.122-.38-253.5C6.74,28.265,78.215-13.706,133.712,4.2" fill="#e2a460"/>
          <path id="Path_18221" data-name="Path 18221" d="M345.328,366.486c39.01-20.956,48.957-20.1,60.164-31.316C458,279.242,356.479,148.68,336.875,141.1c82.783,91.308,4.958,213.02-125.372,151.437,10.063,34.5,53.545,88.3,81.07,106.41a519.575,519.575,0,0,1,52.756-32.463" fill="#3f5146"/>
          <path id="Path_18222" data-name="Path 18222" d="M77.814,166.514c-7.209-11.55,5.207-34.48,18.814-34.253,17.3,2.4,21.5,25.937,37.945,30.984-13.219-8.588-15.518-26.482-30.062-33.863-20.127-10.773-41.259,21.687-26.7,37.131" fill="#2b2b2b"/>
          <path id="Path_18223" data-name="Path 18223" d="M666.62,322.99c.984,3.915,2.009,7.823,2.961,11.744l-.1.029c-32.349-116.071-75.2-166.461-174.172-232.155-31.544-22.84-68.475-36.073-106.189-44.551a796.223,796.223,0,0,0-114.269-19.9,767.818,767.818,0,0,1,114.467,19.1c26.937,6.268,53.792,13.912,78.291,27.061,56.552,33.894,112.686,73.378,150.746,128.247,24.359,37.078,39.183,79.718,51.227,122.176l-.1.028c-.919-3.934-1.909-7.846-2.86-11.771" fill="#2b2b2b"/>
          <path id="Path_18224" data-name="Path 18224" d="M349.123,151.506c5.7,9.668,9.151,20.429,13.043,30.894,4.466,10.485,4.329,22.123,2.9,33.239-1.132,16.7-3.292,34.024-12.584,48.383-11.881,18.632-31.685,33.846-53.973,36.545-19.676,1.815-38.789-5.182-57.415-10.588-6.231-1.445-17.778-7.584-23.607-5.46l.07-.054c-2.331,2.29,4.082,14.373,4.764,17.682,1.844,5.326,4.63,13.184,6.2,18.536l-1.2.339c-1.769-5.514-5.072-13.384-7.175-18.882-1.281-4.806-6.987-13.59-5.113-18.4,4.556-6.054,19.151,1.687,25.383,2.8,13.212,3.709,26.57,8.127,40.124,10.332l-.018.119c-13.612-1.912-27.072-6.107-40.34-9.659-7.558-1.327-16.044-6.913-23.552-3.869l.044-.039c-3.46,2.789,3.726,14.522,4.6,18.271,2.133,5.572,5.443,13.346,7.243,18.964l-1.2.34c-2.632-8.539-6.422-19.16-9.5-27.594-7.268-15.738,6.805-10.066,15.67-7.1,10.429,3.626,21.358,7.019,32,9.845,13.35,3.558,27.585,6.145,41.2,2.529,24-6.837,44.253-26.5,52.007-50.228,3.6-10.61,4.363-21.842,5.391-32.934,1-8.261,1.6-16.7-.178-24.9-3.908-13.077-8.476-26.963-14.878-39.056Z" fill="#2b2b2b"/>
          <path id="Path_18225" data-name="Path 18225" d="M408.512,238.615c7.866,15.563,13.227,33.64,10.473,51.173-1.325,6.931-2.736,13.92-2.259,21-1.771-6.06-1.669-12.484-.758-18.667-.249,4.967-.567,10.061.689,14.918l-.742.1c-.479-8.845,2.774-17.4,2.687-26.2-.256-14.605-4.24-29-10.09-42.333" fill="#2b2b2b"/>
        </g>
      </g>
    </g>
  </g>
</svg>
