<svg id="向量圖智慧型物件" xmlns="http://www.w3.org/2000/svg" xmlns:xlink="http://www.w3.org/1999/xlink" width="503.001" height="191" viewBox="0 0 503.001 191">
  <defs>
    <clipPath id="clip-path">
      <rect id="Rectangle_3230" data-name="Rectangle 3230" width="503.001" height="191" fill="none"/>
    </clipPath>
  </defs>
  <g id="Group_690" data-name="Group 690">
    <g id="Group_689" data-name="Group 689" clip-path="url(#clip-path)">
      <path id="Path_18213" data-name="Path 18213" d="M97.51,191c-1.806,0-1.954-1.827-2.348-6.652C92.179,139.693,90.245,34.705,85.721,5.9c-1.91,8.239-3.967,41.018-4.192,53.971-1.728,27.567.406,49.909-20.248,51.26-5.683-1.877-5.817-12.491-14.971-14.281-11.28-1.47-10.655,16.823-26.817,16.674-7.054-.828-10.656-6.207-17.28.7L0,111.979c4.269-4.6,10.908-5.744,15.512-2.766,16.442,6.851,17.578-18.957,31.655-15.393C58,96.648,57.41,105.108,62.247,108.134c16.667-2.821,14.438-22.466,16.13-48.367.458-14.737,1.277-31.431,3.181-47.369C82.885,1.732,83.849,0,85.747,0c1.808.016,2.8,1.293,4.041,12.9,4.375,46.4,5.546,122.7,8.278,168.017,3.042-16.188,8.135-52.953,6.628-64.891-1.389-8.788,4.346-10.024,9.413-4.439,8.636,8.682,7.488-1.99,9.044-14.208,1-7.5,3.194-43.044,9.26-44.6,2.106.178,3.067.259,7.984,53.175-.435,4.712,7.741,18.365,16.6,13.284,4.468-2.813,7.249-10.9,13.807-8.666,5.769,3.844,7.286,5.04,9.56-2.661.991-5.806,9.985-10.272,11.854-2.421.772,6.143,9.836,11.7,12.418,3.935,3.375-12.729,7.335-62.474,8.864-80.316.349-3.931.524-5.9,2.352-5.945,1.761-.03,2.192,1.558,2.942,7.913,4.449,41.9,5.117,100.987,5,139.246.682,1.754,25.807-173.463,32.38-100.287,1.194,10.178,2.831,24.117,5.7,37.4,4.017,20.26,15-1.241,25.6,2.241,7.87,7.394,18.97-3.007,19.533-11.742.376-2.042.731-3.972,2.649-4.124,4.672.416,4.195,10.9,9.207,11.7,9.083-1.419,11.3-4.187,18.573,4.22,5.886-11.3,6.635-60.174,7.985-76.7.363-5.092.426-6.591,2.262-6.6,3.664-.172,2.82,22.353,3.993,29.593.9,20.021,6.941,87.468,8.884,87.5,12.706-61.844,30.895-32.423,40.544-85.317,3.334-18.4,8.178-23.285,10.572-5.656,2.266,17.438,7.2,60.623,10.776,69.247,1.139,2.09,1.269,1.821,4.506-1.93,5.3-5.246,7.781-23.471,11.823-23.931,3.687-.343,3.326,13.9,5.266,16.889,1.8-2.161,3.485-7.63,6.373-6.971,2.988,1,2.21,6.569,6.02,8.5a46.538,46.538,0,0,1,10.969-19.823c10.648-8.928,7.358,19.34,19.29,15.512,6.262-4.2,7.641-13.8,16.3-6.135l-2.113,2.341c-6.06-6.382-7.085,4.793-13.085,6.747-11.648,3.052-12.747-10.331-16.88-17.163-5.628,4.481-9.322,12.151-11.263,18.777-2.274,7.763-9.73-1.568-10.011-4.876-6.934,13.8-9.867,3.014-11.154-8.38C414.083,172.3,413.589,71.22,407.328,46.413c-5.032,16.157-5.679,36.393-18.3,48.947-4.357,4.31-7.152,5.278-11.432,11.083-5.831,7.077-11.987,27.855-13.539,35.921-.9,4.135-1.309,6.023-3.275,6.057-8.905-2.351-10.837-86.475-12.939-102.194-2.628,50.708-5.063,66.595-10.243,66.753-3.891-.449-4.5-5.41-9.164-5.92a8.234,8.234,0,0,0-4.764.781c-6.727,3.769-12.081-3.876-13.53-9.485-.207,7.615-10.347,20.093-19.712,16.614-4.437-3.44-7.9-3.293-12.934.59-9.565,7.6-17.284,2.893-18.7-7.457-4.153-18.684-5.1-36.27-7.72-51.976-12.3,26.656-21.553,121.031-27.92,123.994-2.531-.139-2.6-2.24-2.581-24.9.5-26.427-1.575-92.688-4.458-119.571-3.474,22.064-2.136,67.843-12.045,79.6-3.2,2.059-7.608,1.023-10.131-1-4.049-2.158-4.069-10.606-7.011-9.839-6.236,2.8-3.5,19.544-17.189,9.124-3.918-1.425-7.4,6.575-11.073,8.375-10.288,6.2-21.36-7.065-21.414-15.668-1.12-12.062-3.505-37.725-5.2-47.328-2.177,6.857-5.151,28.848-5.758,38.742-.992,16.973-3.382,26.205-14.29,16.283-.986-.879-3.3-2.941-3.84-2.706.173,15.823-4.33,76.274-10.654,79.766" fill="#e5c851"/>
    </g>
  </g>
</svg>
