<svg xmlns="http://www.w3.org/2000/svg" width="23.998" height="24.002" viewBox="0 0 23.998 24.002">
  <g id="calendar" transform="translate(-2 -1.988)">
    <path id="Path_10186" data-name="Path 10186" d="M40.391,22.676H39.373a.343.343,0,1,1,0-.686h1.018a.343.343,0,1,1,0,.686Z" transform="translate(-24.335 -13.145)" fill="#3f5146"/>
    <path id="Path_10187" data-name="Path 10187" d="M25.312,39.135H2.686A.686.686,0,0,1,2,38.449V22.333a.343.343,0,0,1,.343-.343h6.9a.343.343,0,0,1,0,.686H2.686V38.449H25.312V22.676H18.455a.343.343,0,1,1,0-.686h7.2a.343.343,0,0,1,.343.343V38.449A.686.686,0,0,1,25.312,39.135Z" transform="translate(0 -13.145)" fill="#3f5146"/>
    <path id="Path_10188" data-name="Path 10188" d="M30.467,22.676h-.994a.343.343,0,1,1,0-.686h.994a.343.343,0,0,1,0,.686Z" transform="translate(-17.829 -13.145)" fill="#3f5146"/>
    <path id="Path_10189" data-name="Path 10189" d="M40.391,22.676H39.373a.343.343,0,1,1,0-.686h1.018a.343.343,0,1,1,0,.686Z" transform="translate(-24.335 -13.145)" fill="#3f5146"/>
    <path id="Path_10190" data-name="Path 10190" d="M9.244,13.475h-6.9A.343.343,0,0,1,2,13.132V8.676a.686.686,0,0,1,.686-.686h3.6a.343.343,0,1,1,0,.686h-3.6V12.79H9.244c.189,0,.343.343.343.343S9.433,13.475,9.244,13.475Z" transform="translate(0 -3.944)" fill="#3f5146"/>
    <path id="Path_10191" data-name="Path 10191" d="M29.146,22.676H17.935a.343.343,0,1,1,0-.686H29.146a.345.345,0,1,1,0,.686Z" transform="translate(-10.193 -13.145)" fill="#3f5146"/>
    <path id="Path_10192" data-name="Path 10192" d="M56.542,13.475h-7.2a.343.343,0,0,1,0-.686H56.2V8.676H52.6a.343.343,0,1,1,0-.686h3.6a.686.686,0,0,1,.686.686v4.457A.343.343,0,0,1,56.542,13.475Z" transform="translate(-30.887 -3.944)" fill="#3f5146"/>
    <path id="Path_10193" data-name="Path 10193" d="M31.313,8.676H20.343a.343.343,0,1,1,0-.686h10.97a.343.343,0,1,1,0,.686Z" transform="translate(-11.829 -3.944)" fill="#3f5146"/>
    <path id="Path_10194" data-name="Path 10194" d="M54.321,6.788H52.593A.593.593,0,0,1,52,6.195V2.581a.593.593,0,0,1,.593-.593h1.729a.593.593,0,0,1,.593.593V6.195A.593.593,0,0,1,54.321,6.788ZM52.686,6.1h1.543V2.674H52.686Z" transform="translate(-32.859 0)" fill="#3f5146"/>
    <path id="Path_10195" data-name="Path 10195" d="M15.821,6.788H14.093a.593.593,0,0,1-.593-.593V2.581a.593.593,0,0,1,.593-.593h1.729a.593.593,0,0,1,.593.593V6.195A.593.593,0,0,1,15.821,6.788ZM14.186,6.1h1.543V2.674H14.186Z" transform="translate(-7.558 0)" fill="#3f5146"/>
    <path id="Path_10196" data-name="Path 10196" d="M57.062,32.632H55.243a.577.577,0,0,1-.576-.576V30.237a.577.577,0,0,1,.576-.576h1.819a.577.577,0,0,1,.576.576v1.819A.577.577,0,0,1,57.062,32.632Zm-1.709-.686h1.6v-1.6h-1.6Z" transform="translate(-34.612 -18.186)" fill="#3f5146"/>
    <path id="Path_10197" data-name="Path 10197" d="M42.395,32.632H40.576A.577.577,0,0,1,40,32.056V30.237a.577.577,0,0,1,.576-.576h1.819a.577.577,0,0,1,.576.576v1.819a.577.577,0,0,1-.576.576Zm-1.709-.686h1.6v-1.6h-1.6Z" transform="translate(-24.973 -18.186)" fill="#3f5146"/>
    <path id="Path_10198" data-name="Path 10198" d="M27.728,32.632H25.909a.577.577,0,0,1-.576-.576V30.237a.577.577,0,0,1,.576-.576h1.819a.577.577,0,0,1,.576.576v1.819A.577.577,0,0,1,27.728,32.632Zm-1.71-.686h1.6v-1.6h-1.6Z" transform="translate(-15.334 -18.186)" fill="#3f5146"/>
    <path id="Path_10199" data-name="Path 10199" d="M57.062,45.632H55.243a.577.577,0,0,1-.576-.576V43.237a.577.577,0,0,1,.576-.576h1.819a.577.577,0,0,1,.576.576v1.819A.577.577,0,0,1,57.062,45.632Zm-1.709-.686h1.6v-1.6h-1.6Z" transform="translate(-34.612 -26.729)" fill="#3f5146"/>
    <path id="Path_10200" data-name="Path 10200" d="M42.395,45.632H40.576A.577.577,0,0,1,40,45.056V43.237a.577.577,0,0,1,.576-.576h1.819a.577.577,0,0,1,.576.576v1.819a.577.577,0,0,1-.576.576Zm-1.709-.686h1.6v-1.6h-1.6Z" transform="translate(-24.973 -26.729)" fill="#3f5146"/>
    <path id="Path_10201" data-name="Path 10201" d="M27.728,45.632H25.909a.577.577,0,0,1-.576-.576V43.237a.577.577,0,0,1,.576-.576h1.819a.577.577,0,0,1,.576.576v1.819A.577.577,0,0,1,27.728,45.632Zm-1.71-.686h1.6v-1.6h-1.6Z" transform="translate(-15.334 -26.729)" fill="#3f5146"/>
    <path id="Path_10202" data-name="Path 10202" d="M13.062,45.632H11.243a.577.577,0,0,1-.576-.576V43.237a.577.577,0,0,1,.576-.576h1.819a.577.577,0,0,1,.576.576v1.819A.577.577,0,0,1,13.062,45.632Zm-1.709-.686h1.6v-1.6h-1.6Z" transform="translate(-5.696 -26.729)" fill="#3f5146"/>
    <path id="Path_10203" data-name="Path 10203" d="M42.395,58.632H40.576A.577.577,0,0,1,40,58.056V56.237a.577.577,0,0,1,.576-.576h1.819a.577.577,0,0,1,.576.576v1.819a.577.577,0,0,1-.576.576Zm-1.709-.686h1.6v-1.6h-1.6Z" transform="translate(-24.973 -35.273)" fill="#3f5146"/>
    <path id="Path_10204" data-name="Path 10204" d="M27.728,58.632H25.909a.577.577,0,0,1-.576-.576V56.237a.577.577,0,0,1,.576-.576h1.819a.577.577,0,0,1,.576.576v1.819A.577.577,0,0,1,27.728,58.632Zm-1.71-.686h1.6v-1.6h-1.6Z" transform="translate(-15.334 -35.273)" fill="#3f5146"/>
    <path id="Path_10205" data-name="Path 10205" d="M13.062,58.632H11.243a.577.577,0,0,1-.576-.576V56.237a.577.577,0,0,1,.576-.576h1.819a.577.577,0,0,1,.576.576v1.819A.577.577,0,0,1,13.062,58.632Zm-1.709-.686h1.6v-1.6h-1.6Z" transform="translate(-5.696 -35.273)" fill="#3f5146"/>
  </g>
</svg>
