<svg xmlns="http://www.w3.org/2000/svg" width="50" height="50" viewBox="0 0 50 50">
  <g id="Group_864" data-name="Group 864" transform="translate(-1201.5 -2512.135)">
    <path id="Path_22094" data-name="Path 22094" d="M85.549,26.636v50h-50Z" transform="translate(1165.951 2485.499)" fill="#76A578"/>
    <g id="Group_280" data-name="Group 280" transform="translate(1231.48 2538.135)">
      <g id="Group_279" data-name="Group 279" transform="translate(0)">
        <path id="Path_10295" data-name="Path 10295" d="M91.415,13.764h0c-.016.016-.033.031-.051.046l-.025.019-.03.022-.03.018-.028.017-.032.015-.03.014-.031.011-.033.012-.032.008-.035.008-.037.006-.031,0a.7.7,0,0,1-.138,0l-.031,0-.037-.006-.035-.008-.032-.008-.033-.012-.031-.011-.03-.014-.032-.015-.028-.017-.03-.018-.03-.022-.025-.019c-.018-.015-.035-.03-.051-.046h0L85.538,8.875a.7.7,0,1,1,.988-.988l3.7,3.7V.7a.7.7,0,1,1,1.4,0V11.584l3.7-3.7a.7.7,0,0,1,.988.988Z" transform="translate(-85.334 0)" fill="#fff"/>
        <path id="Path_10296" data-name="Path 10296" d="M86.032,469.333H95.81a.7.7,0,0,1,0,1.4H86.032a.7.7,0,1,1,0-1.4Z" transform="translate(-85.334 -453.968)" fill="#fff"/>
      </g>
    </g>
  </g>
</svg>
