<svg xmlns="http://www.w3.org/2000/svg" width="46.218" height="46.218" viewBox="0 0 46.218 46.218">
  <g id="emails" transform="translate(-5.553 -5.553)">
    <path id="Path_22" data-name="Path 22" d="M28.662,5.553A23.109,23.109,0,1,0,51.771,28.662,23.109,23.109,0,0,0,28.662,5.553Zm0,44.834A21.725,21.725,0,1,1,50.387,28.662,21.725,21.725,0,0,1,28.662,50.387Z" transform="translate(0)" fill="#76a578"/>
    <path id="Path_23" data-name="Path 23" d="M53.717,38.52H30.279a2.672,2.672,0,0,0-2.669,2.669V56a2.676,2.676,0,0,0,2.669,2.669H53.717A2.676,2.676,0,0,0,56.386,56V41.189A2.672,2.672,0,0,0,53.717,38.52Zm1.235,17.818L47.627,49.5,55,43.756C54.981,56.721,55.049,55.982,54.952,56.338ZM42,52.138,29,42V41.19a1.286,1.286,0,0,1,1.285-1.285H53.716A1.286,1.286,0,0,1,55,41.19V42Zm-13-8.382L36.369,49.5l-7.325,6.834c-.1-.356-.029.374-.05-12.582Zm1.084,13.51,7.4-6.9,4.1,3.195a.693.693,0,0,0,.851,0l4.1-3.195,7.4,6.9c-.191.03-23.676.027-23.84,0Z" transform="translate(-13.336 -19.932)" fill="#76a578"/>
  </g>
</svg>
