<svg xmlns="http://www.w3.org/2000/svg" width="38.097" height="38.097" viewBox="0 0 38.097 38.097">
  <path id="github" d="M19.048,0A19.048,19.048,0,1,0,38.1,19.123,19.178,19.178,0,0,0,19.048,0ZM22.4,35.53a16.909,16.909,0,0,1-6.7,0V30.306a3.173,3.173,0,0,1,.781-2.3,24.412,24.412,0,0,0,1.384-2.031l-1.719-.268c-4.42-.647-6.161-2.947-6.853-4.732A7.591,7.591,0,0,1,10.477,13.7a1.346,1.346,0,0,0,.268-1.295,6.576,6.576,0,0,1-.067-3.282,10.183,10.183,0,0,1,3.416,1.63,1.6,1.6,0,0,0,.937.223,16.222,16.222,0,0,1,4.04-.58,13.678,13.678,0,0,1,3.728.536A1.611,1.611,0,0,0,24,10.752a9.916,9.916,0,0,1,3.415-1.63,6.579,6.579,0,0,1-.067,3.282,1.344,1.344,0,0,0,.268,1.295A7.592,7.592,0,0,1,28.8,20.976c-.692,1.786-2.433,4.085-6.853,4.732l-1.719.268a23.873,23.873,0,0,0,1.384,2.031,3.175,3.175,0,0,1,.781,2.3Zm2.232-.647V30.306A5.353,5.353,0,0,0,24,27.561a9.547,9.547,0,0,0,6.875-5.8A9.814,9.814,0,0,0,29.607,12.6c.335-1.5.335-3.884-.469-5a1.743,1.743,0,0,0-1.473-.759h-.022A9.78,9.78,0,0,0,23.089,8.7a15.743,15.743,0,0,0-4.063-.536,15.42,15.42,0,0,0-4,.536,9.861,9.861,0,0,0-4.666-1.853A1.712,1.712,0,0,0,8.959,7.6c-.8,1.116-.8,3.5-.469,5a9.823,9.823,0,0,0-1.272,9.152,9.547,9.547,0,0,0,6.875,5.8,4.854,4.854,0,0,0-.582,1.956,2.975,2.975,0,0,1-1.833.151,2.47,2.47,0,0,1-1.432-1.225A4.589,4.589,0,0,0,6.13,25.895l.2,2.224c.8-.073,1.588.769,2,1.464a4.6,4.6,0,0,0,5.141,2.291v3.01a16.817,16.817,0,1,1,11.161,0Zm0,0" fill="#fff"/>
</svg>
