<svg xmlns="http://www.w3.org/2000/svg" width="22.633" height="20.175" viewBox="0 0 22.633 20.175">
  <g id="home" transform="translate(0.001 -27.798)">
    <g id="Group_5" data-name="Group 5" transform="translate(-0.001 27.798)">
      <g id="Group_4" data-name="Group 4" transform="translate(0 0)">
        <path id="Path_25" data-name="Path 25" d="M22.391,35.766,11.663,27.911a.588.588,0,0,0-.695,0L.24,35.766a.588.588,0,0,0,.695.949l10.381-7.6,10.381,7.6a.588.588,0,0,0,.695-.949Z" transform="translate(0.001 -27.798)" fill="#fff"/>
      </g>
    </g>
    <g id="Group_7" data-name="Group 7" transform="translate(2.495 36.848)">
      <g id="Group_6" data-name="Group 6">
        <path id="Path_26" data-name="Path 26" d="M73.506,232.543a.588.588,0,0,0-.588.588v9.36h-4.7v-5.109a2.94,2.94,0,0,0-5.881,0v5.109h-4.7v-9.36a.588.588,0,0,0-1.176,0v9.948a.588.588,0,0,0,.588.588h5.88a.588.588,0,0,0,.586-.542.442.442,0,0,0,0-.046v-5.7a1.764,1.764,0,0,1,3.529,0v5.7a.432.432,0,0,0,0,.045.588.588,0,0,0,.586.543h5.88a.588.588,0,0,0,.588-.588v-9.948A.588.588,0,0,0,73.506,232.543Z" transform="translate(-56.452 -232.543)" fill="#fff"/>
      </g>
    </g>
  </g>
</svg>
