<svg xmlns="http://www.w3.org/2000/svg" width="44.319" height="44.319" viewBox="0 0 44.319 44.319">
  <g id="Layer_18_copy" data-name="Layer 18 copy" transform="translate(-3.5 -3.5)">
    <path id="Path_53" data-name="Path 53" d="M4.215,47.819H47.1a.715.715,0,0,0,.715-.715V39.956a.715.715,0,0,0-.715-.715h-.081V25.183H47.1a.715.715,0,0,0,.715-.715V18.511A.715.715,0,0,0,47.1,17.8H44.959L26.088,3.643a.715.715,0,0,0-.858,0L6.359,17.8H4.215a.715.715,0,0,0-.715.715v5.957a.715.715,0,0,0,.715.715H4.3V39.241H4.215a.715.715,0,0,0-.715.715V47.1A.715.715,0,0,0,4.215,47.819Zm42.174-1.43H4.93v-.953H46.389ZM4.93,23.753V22.8H8.265v.953Zm3.97,1.43H8.98a.715.715,0,0,0,.715-.715V22.8h2.54v1.668a.715.715,0,0,0,.715.715h.081V39.241H12.95a.715.715,0,0,0-.715.715v4.051H9.7V39.956a.715.715,0,0,0-.715-.715H8.9Zm4.765-1.43V22.8H17v.953Zm4.765.715V22.8H32.889v1.668a.715.715,0,0,0,.715.715h.076V39.241H33.6a.715.715,0,0,0-.715.715v4.051H31.14v-11.2a.715.715,0,0,0-.715-.715H20.894a.715.715,0,0,0-.715.715v11.2H18.43V39.956a.715.715,0,0,0-.715-.715h-.076V25.183h.076A.715.715,0,0,0,18.43,24.468Zm15.888-.715V22.8h3.336v.953Zm4.765.715V22.8h2.54v1.668a.715.715,0,0,0,.715.715h.081V39.241h-.081a.715.715,0,0,0-.715.715v4.051h-2.54V39.956a.715.715,0,0,0-.715-.715h-.081V25.183h.081A.715.715,0,0,0,39.084,24.468Zm3.97-.715V22.8h3.336v.953Zm3.336,20.253H43.053V40.671h3.336ZM34.318,40.671h3.336v3.336H34.318Zm.791-1.43V25.183h1.749V39.241Zm-8.735-5.719H29.71V44.006H26.374Zm-1.43,0V44.006H21.609V33.522Zm-11.28,7.148H17v3.336H13.665Zm.8-1.43V25.183h1.749V39.241Zm-6.2,1.43v3.336H4.93V40.671Zm35.584-1.43V25.183h1.744V39.241ZM25.659,5.111,42.577,17.8H40.194L26.079,7.551a.715.715,0,0,0-.839,0L11.129,17.8H8.747ZM37.759,17.8H13.56l12.1-8.816ZM4.93,19.226H46.389V21.37H4.93Zm.8,5.957H7.47V39.241H5.725ZM22.562,13.746a3.1,3.1,0,1,0,3.1-3.1A3.1,3.1,0,0,0,22.562,13.746Zm4.765,0a1.668,1.668,0,1,1-1.668-1.668,1.668,1.668,0,0,1,1.668,1.668Z" transform="translate(0 0)" fill="#3f5146"/>
  </g>
</svg>
