<svg xmlns="http://www.w3.org/2000/svg" xmlns:xlink="http://www.w3.org/1999/xlink" width="389" height="535" viewBox="0 0 389 535">
  <defs>
    <clipPath id="clip-path">
      <rect id="Rectangle_3466" data-name="Rectangle 3466" width="389" height="535" transform="translate(6637 8201)" fill="#fff"/>
    </clipPath>
  </defs>
  <g id="Mask_Group_22" data-name="Mask Group 22" transform="translate(-6637 -8201)" clip-path="url(#clip-path)">
    <rect id="Rectangle_3465" data-name="Rectangle 3465" width="442.364" height="565.482" transform="translate(6401.373 8185.61)" fill="#ead065"/>
    <path id="Path_22130" data-name="Path 22130" d="M-5760.843-5919.7c-5.547-9.909-4.966-20.8-4.529-29.008,1.124-21.1,9.114-31.747,7.11-33.354-5.395-4.326-65.177,71.414-88.049,100.5-24.232,30.818-49.583,60.637-73.045,92.134-40.927,54.942-61.705,89.028-97.471,92.509-10.785,1.05-18.452-1.1-25.883-2.942-15.211-3.77-26.681-5.115-28.772-5.612-29.791-7.077-105.546-4.12-150.808-6.031-19.6-.828-65.775-11.393-158.121-32.52-29.255-6.693-53.32-12.59-71.5-35.254-18.9-23.56-21.542-52.979-22.974-71.325-5.114-65.5,24.72-106.69,12.458-116.171-12.2-9.434-48.976,25.739-52.035,28.7-33.9,32.822-46.161,74.5-47.433,79.007-11.272,39.959-3.785,67.13-19.894,76.243-6.969,3.942-13.8,1.933-23.815-.415a459.518,459.518,0,0,0-80.618-11.145,58.054,58.054,0,0,0-37.229,16.584c-4.239,4.228-12.192,12.159-14.272,24.229-.974,5.65-1.938,19.627,17,44.119,17.03,22.021,34.83,32.731,51.13,43.247,35.415,22.848,69.239,44.67,100.189,77.2,21.966,23.086,19.349,27.25,38.667,45.474a217.66,217.66,0,0,0,20.514,17.1c-39.808-15.229-65.752-35.067-83.4-53.844-10.7-11.392-19.426-23.533-34.038-37.551a241.025,241.025,0,0,0-19.454-16.71c-42.476-33.707-118.2-93.8-108.535-135.158,3.257-13.934,17.007-29.162,23.416-32.531a91.628,91.628,0,0,1,12.763-4.739,45.841,45.841,0,0,1,4.936-.907c11.817-1.666,34.107-8.091,42.961-15.5,22.885-19.154,24.777-27.026,27.418-36.137,6.47-22.319-31.242-65.859-66.86-63.634-12.161.759-15.683,4.056-44.649,21.2-23.127,13.688-7.517,5.646-72.568,37.4-24.764,12.087-41.627,20.81-56.279,25.469a189.579,189.579,0,0,0-20.229,7.558c-7.76,3.412-12.947,6.747-40.758,19.266-43.913,19.765-38.022,18.529-50.827,23.145-21.563,7.77-10.995,1.726-37.023,17.05a127.759,127.759,0,0,0-15.567,10.595c-15.115,11.953-31.377,25.2-30.979,43.86.441,20.691,18.012,38.16,25.284,42.716,9.918,6.21,21.336,14.655,24.673,15.425,47.8,11.014,54.332-31.634,95.28-20.405,12.72,3.488,12.76,8.659,44.3,37.078,0,0,32.042,28.867,90.722,69.46a399.352,399.352,0,0,0,50.824,29.674c-13.425,13.19-14.068,32.045-15.766,56.548-2.358,34.042-6.66,69.262-4.155,103.862.81,11.192,6.159,43.264,14.9,43.753,6.191.347,8.809-15.509,26.8-46.509,8.036-13.848,14.975-23.542,23.669-35.689,7.966-11.129,19.273-26.927,34.8-43.92a345.962,345.962,0,0,1,39.142-36.658,521.737,521.737,0,0,0,53.722,9.435,507.637,507.637,0,0,0,129.629-1.582c41.82,1.338,69.674-7.739,87.825-16.85,10.2-5.117,25.412-14.261,38.9-7.826,13.854,6.606,17.623,25.881,25.769,24.205,6.074-1.25,9.708-13.146,10.075-14.348,2.666-8.729-.4-12.651,2.9-16.871,1.442-1.845,3.54-3.027,16.747-4.666,8.635-1.071,12.953-1.607,16.685-1.583,22.234.14,40.217,17.444,42.11,14.814,1.792-2.488-15.916-15.737-12.868-26.354,1.589-5.535,8.133-7.963,11.151-9.083,58.044-21.567,87.067-32.35,87.5-32.464,21.295-5.615,37.052-10.612,52.737-15.588,56.07-17.785,60.813-23.657,75.58-20.866,17.768,3.357,21.158,13.8,58.7,49.939,9.356,9.008,65.042,62.62,72.442,55.712,6.007-5.606-29.235-38.4-35.639-96.6-4.65-42.266,7.959-79.105,12.026-90.623,6.2-17.557,15.076-33.863,32.829-66.478,15.994-29.385,15.506-25.338,24.1-42.222,26.839-52.731,22.878-77.249,43.232-85.663,17.225-7.12,38.959.314,39.9-4.1C-5742.622-5905.341-5753.977-5907.428-5760.843-5919.7Z" transform="matrix(0.695, -0.719, 0.719, 0.695, 15300.277, 7670.267)" fill="#76a578"/>
    <g id="Group_900" data-name="Group 900" transform="matrix(0.857, 0.515, -0.515, 0.857, 9877.812, 11699.375)">
      <g id="Group_897" data-name="Group 897" transform="translate(-4536.464 -1117.088)">
        <g id="Group_896" data-name="Group 896" transform="translate(0 0)">
          <path id="Path_22131" data-name="Path 22131" d="M-4521.44-1090.995a30.841,30.841,0,0,0-8.352,6.5c-14.108,15.8-1.63,39.349-.524,41.36l17.564-2.016-11.675,10.581a43.232,43.232,0,0,0,5.448,12.115,51.572,51.572,0,0,0,16.627,15.79,272.77,272.77,0,0,0,33.438-12.888c5.843-2.71,11.268-5.484,16.281-8.247a80.864,80.864,0,0,1-24.347,18.908c-7.868,3.955-18.211,7.513-18.446,12.977a12.966,12.966,0,0,0,1.992,6.253,16.774,16.774,0,0,0,4.461,4.856l38.012-31.159-31.788,44.344a130.659,130.659,0,0,1,35.229,28.974l41.823-26.686c-5.5,2.454-17.6,8.68-25.8,21.079a46.755,46.755,0,0,0-7.1,17.564c23.621.638,45.032,20.906,67.173,13.464a57.572,57.572,0,0,1,13.645-28.958q-.967,6.115-2.166,12.468-1.682,8.886-3.638,17.234a76.56,76.56,0,0,0,12.277-5.024,70.835,70.835,0,0,0,30.931-31.354,134.255,134.255,0,0,1,28.23,16.271c16.32,12.372,22.476,23.47,32.184,22.213,5.2-.674,10.152-4.73,10.263-8.341.159-5.207-9.764-8.984-15.72-11.493-11.82-4.979-27.772-13.281-46.035-27.917,6.308-4.826,17.426-14.672,23.637-29.961,3-7.377,5.95-14.645,4.068-23.544-1.981-9.366-10.89-18.1-28.625-35.182-4.373-4.212-8.077-7.61-10.582-9.874q-7.545,11.312-16.34,23.214c-4.43,5.97-7.772,4.413-12.186,9.919,1.5-7.484,2.863-8.949,6.955-18.455a137.147,137.147,0,0,1,8.541-16.6,157.692,157.692,0,0,0-17.433-12.032c-13.5-8.052-28.194-16.821-36.936-12.639-2.033.973-3.594,2.573-7.621,13.092a208.057,208.057,0,0,0-7.829,24.993c-.661-13.322.526-22.836,1.913-29.433.551-2.627,1.568-6.86-1.13-10.42-3.185-4.2-9.784-5.144-13.4-5.4q-3.2,8.792-6.4,17.583l-3.2-18.427a32.242,32.242,0,0,0-12.145-9.024,38.949,38.949,0,0,0-14.817-3.157q-2.732,8.158-5.464,16.316-2.106-8.927-4.214-17.855c-3.595-.787-27.767-5.738-46.039,6.948A39.642,39.642,0,0,0-4521.44-1090.995Z" transform="translate(4536.464 1110.617)" fill="#c65454"/>
        </g>
      </g>
      <path id="Path_22132" data-name="Path 22132" d="M-4477.128-863.457a42.294,42.294,0,0,0,3.373,8.235,45.333,45.333,0,0,0,4.975,7.372c.952,1.139,1.939,2.249,2.994,3.294s2.136,2.062,3.272,3.015a55.6,55.6,0,0,0,7.234,5.17l-.1-.013q6.231-1.925,12.369-4.138t12.151-4.733a250.465,250.465,0,0,0,23.493-11.3l1.222-.669-.924,1.044a80.1,80.1,0,0,1-11.986,11.108,75.651,75.651,0,0,1-14.069,8.314c-2.467,1.151-4.958,2.242-7.366,3.48a37.078,37.078,0,0,0-3.507,2.018,13.312,13.312,0,0,0-3.008,2.6,5.594,5.594,0,0,0-.958,1.673,4.233,4.233,0,0,0-.2,1.885,9.652,9.652,0,0,0,.432,1.928,14.767,14.767,0,0,0,.739,1.857,16.026,16.026,0,0,0,5.086,6.081l-.368.009,36.6-29.869,1.708-1.395-1.28,1.8-30.425,42.664-.081-.368a131.113,131.113,0,0,1,34.583,28.445l-.212-.032,40.439-25.373-40.264,25.65-.12.076-.093-.109a130.706,130.706,0,0,0-34.585-28.217l-.244-.139.163-.229,30.356-42.712.429.4-36.591,29.876-.181.147-.187-.138a16.613,16.613,0,0,1-5.265-6.313,15.426,15.426,0,0,1-.766-1.931,10.335,10.335,0,0,1-.454-2.047,4.835,4.835,0,0,1,.229-2.135,6.177,6.177,0,0,1,1.057-1.847,13.871,13.871,0,0,1,3.144-2.712,37.435,37.435,0,0,1,3.564-2.045c2.433-1.246,4.929-2.336,7.391-3.481a75.044,75.044,0,0,0,13.983-8.238,81.029,81.029,0,0,0,11.943-11l.3.375a250.689,250.689,0,0,1-23.579,11.223q-6.032,2.5-12.187,4.692c-4.1,1.467-8.24,2.812-12.407,4.068l-.054.016-.049-.029a55.836,55.836,0,0,1-7.224-5.241q-1.7-1.447-3.262-3.048c-1.051-1.056-2.034-2.175-2.98-3.324a45.344,45.344,0,0,1-4.933-7.423A42.351,42.351,0,0,1-4477.128-863.457Z" transform="translate(-40.709 -176.044)" fill="#2b2b2b"/>
      <path id="Path_22133" data-name="Path 22133" d="M-4064.921-928.485a76.9,76.9,0,0,0,10.931-10.172,65.222,65.222,0,0,0,8.55-12.214c.613-1.084,1.135-2.214,1.676-3.335.283-.554.5-1.14.748-1.709s.492-1.143.719-1.722c.908-2.321,1.82-4.641,2.545-7.02.376-1.185.68-2.39.95-3.6.112-.61.252-1.216.329-1.831l.133-.92.088-.925a25.633,25.633,0,0,0-.4-7.392,22.711,22.711,0,0,0-2.623-6.9,46.212,46.212,0,0,0-4.246-6.1,148.273,148.273,0,0,0-10.187-10.915c-3.544-3.5-7.157-6.939-10.76-10.387l-10.963-10.168.416-.053q-5.862,8.873-12.074,17.508-1.553,2.158-3.127,4.3a17.387,17.387,0,0,1-3.68,3.922,52.2,52.2,0,0,1-4.6,2.711,14.666,14.666,0,0,0-3.865,3.451l-.768.963.229-1.209c.291-1.52.621-3.037,1.05-4.532a38.6,38.6,0,0,1,1.582-4.382c.6-1.427,1.245-2.828,1.87-4.236s1.247-2.815,1.846-4.233c1.2-2.845,2.488-5.659,3.883-8.415s2.887-5.466,4.47-8.12l.071.388q-4.894-3.888-10.1-7.368-2.6-1.741-5.26-3.38c-1.775-1.088-3.573-2.154-5.366-3.222-3.59-2.127-7.2-4.216-10.916-6.1-1.856-.943-3.741-1.831-5.665-2.616a40.557,40.557,0,0,0-5.9-1.961,22.623,22.623,0,0,0-3.047-.537,15.325,15.325,0,0,0-3.075-.047,10.989,10.989,0,0,0-2.97.681,5.563,5.563,0,0,0-2.457,1.677,13.857,13.857,0,0,0-1.664,2.579c-.48.917-.921,1.859-1.334,2.813-.832,1.907-1.586,3.852-2.322,5.8a197.93,197.93,0,0,0-7.3,23.924l-.277,1.169-.066-1.2c-.125-2.235-.218-4.473-.248-6.712s0-4.478.094-6.716a97.324,97.324,0,0,1,1.429-13.347c.192-1.1.435-2.2.636-3.294a15.907,15.907,0,0,0,.28-3.321,9.429,9.429,0,0,0-.657-3.248,8.809,8.809,0,0,0-1.832-2.761,11.066,11.066,0,0,0-2.668-1.992,17.582,17.582,0,0,0-3.076-1.309,29.8,29.8,0,0,0-6.579-1.223,29.813,29.813,0,0,1,6.593,1.179,17.6,17.6,0,0,1,3.1,1.292,11.131,11.131,0,0,1,2.7,1.988,8.929,8.929,0,0,1,1.872,2.782,9.518,9.518,0,0,1,.691,3.287,16.146,16.146,0,0,1-.259,3.354c-.2,1.1-.429,2.2-.614,3.3a97.18,97.18,0,0,0-1.333,13.325c-.077,2.233-.086,4.467-.053,6.7s.141,4.465.273,6.7l-.343-.029a198.48,198.48,0,0,1,7.218-24c.73-1.959,1.479-3.911,2.308-5.835.413-.963.854-1.916,1.339-2.85a14.2,14.2,0,0,1,1.716-2.677,5.616,5.616,0,0,1,1.2-1.1,7.3,7.3,0,0,1,1.442-.73,11.534,11.534,0,0,1,3.108-.727,15.766,15.766,0,0,1,3.177.036,23.245,23.245,0,0,1,3.117.545,41.1,41.1,0,0,1,5.979,1.978c1.944.79,3.841,1.682,5.709,2.627,3.735,1.891,7.36,3.981,10.956,6.106,1.8,1.067,3.592,2.128,5.378,3.22s3.544,2.223,5.283,3.385q5.216,3.487,10.146,7.383l.205.162-.134.226q-2.36,3.965-4.439,8.088c-1.386,2.747-2.663,5.543-3.854,8.383-.6,1.422-1.22,2.836-1.849,4.245s-1.271,2.81-1.871,4.222a37.959,37.959,0,0,0-1.562,4.311c-.424,1.468-.753,2.966-1.042,4.474l-.537-.246a15.289,15.289,0,0,1,4.026-3.584,52.291,52.291,0,0,0,4.556-2.675,16.808,16.808,0,0,0,3.563-3.794q1.574-2.138,3.127-4.292,6.215-8.616,12.083-17.475l.181-.272.236.219,10.962,10.193c3.6,3.448,7.2,6.908,10.733,10.428a148.308,148.308,0,0,1,10.176,10.991,46.492,46.492,0,0,1,4.262,6.178,23.082,23.082,0,0,1,2.638,7.026,25.969,25.969,0,0,1,.376,7.494l-.094.936-.138.93c-.081.622-.225,1.233-.339,1.848-.277,1.221-.588,2.435-.974,3.625-.746,2.388-1.675,4.708-2.6,7.023-.232.579-.49,1.149-.734,1.724s-.475,1.156-.763,1.711c-.55,1.121-1.082,2.252-1.7,3.336a65.4,65.4,0,0,1-8.655,12.183A76.953,76.953,0,0,1-4064.921-928.485Z" transform="translate(-251.116 -42.953)" fill="#2b2b2b"/>
      <g id="Group_899" data-name="Group 899" transform="translate(-4322.325 -955.94)">
        <g id="Group_898" data-name="Group 898">
          <path id="Path_22134" data-name="Path 22134" d="M-3854.314-597.27" transform="translate(3854.314 597.27)" fill="none"/>
        </g>
      </g>
      <path id="Path_22135" data-name="Path 22135" d="M-4189.941-647.9a64.194,64.194,0,0,0-11.021,6.265,55.654,55.654,0,0,0-4.956,3.952l-.595.524-.572.548-1.142,1.1-1.092,1.148-.544.575c-.18.193-.347.4-.521.6a48.226,48.226,0,0,0-7.032,10.483,43.926,43.926,0,0,0-3.845,12l-.206-.253a59.665,59.665,0,0,1,16.67,3.312c5.39,1.786,10.617,3.99,15.891,6.035a89.159,89.159,0,0,0,16.157,4.962,38.8,38.8,0,0,0,8.385.64,30.123,30.123,0,0,0,8.252-1.467l-.213.255a52.259,52.259,0,0,1,4.491-14.977,57.458,57.458,0,0,1,8.536-13.1l.654-.758-.161.984-1.181,7.21c-.4,2.4-.765,4.811-1.224,7.2-.884,4.79-1.879,9.559-2.946,14.311l-.295-.273a70.136,70.136,0,0,0,12.864-5.263,66.889,66.889,0,0,0,11.572-7.7l1.338-1.114,1.286-1.174c.424-.4.87-.771,1.273-1.189l1.23-1.233c.2-.207.415-.407.612-.62l.589-.642,1.178-1.285,1.125-1.331.563-.667c.183-.225.358-.457.537-.686a68.242,68.242,0,0,0,7.484-11.752,68.345,68.345,0,0,1-7.368,11.842l-.532.693-.558.674-1.113,1.346-1.168,1.3-.584.651c-.2.216-.405.419-.607.629l-1.222,1.25c-.4.425-.846.8-1.265,1.208l-1.28,1.192-1.333,1.133a66.139,66.139,0,0,1-11.578,7.82,70.517,70.517,0,0,1-12.909,5.37l-.381.118.086-.392c1.045-4.751,1.991-9.523,2.874-14.307.454-2.39.813-4.8,1.207-7.2l1.165-7.2.494.226a56.885,56.885,0,0,0-8.424,12.981,51.636,51.636,0,0,0-4.411,14.809l-.025.194-.187.061a30.527,30.527,0,0,1-8.422,1.484,39.386,39.386,0,0,1-8.515-.666,89.731,89.731,0,0,1-16.257-5.023c-5.278-2.06-10.492-4.269-15.853-6.057a59.339,59.339,0,0,0-16.519-3.382l-.249-.009.042-.244a44.362,44.362,0,0,1,3.95-12.089,47.384,47.384,0,0,1,7.158-10.5c.177-.2.346-.4.529-.595l.554-.572,1.107-1.143,1.157-1.092.58-.544.6-.52a56.062,56.062,0,0,1,5.012-3.912A64.312,64.312,0,0,1-4189.941-647.9Z" transform="translate(-215.932 -323.931)" fill="#2b2b2b"/>
      <path id="Path_22136" data-name="Path 22136" d="M-4401.23-1103.377l-6.019,17.241-.11.313-.062-.327-3.452-18.1.036.077a31.026,31.026,0,0,0-5.485-5.115,34.806,34.806,0,0,0-3.151-2.049q-1.636-.927-3.357-1.689a37.578,37.578,0,0,0-7.146-2.3,39.564,39.564,0,0,0-7.454-.877l.246-.174-5.172,15.981-.3.917-.234-.936-4.38-17.558.22.215a69.985,69.985,0,0,0-7.627-1.237,75.687,75.687,0,0,0-7.717-.442,66.268,66.268,0,0,0-7.714.4,56.978,56.978,0,0,0-7.6,1.34,44.126,44.126,0,0,0-14.07,6.127,37.426,37.426,0,0,0-10.728,10.911l-.04.061-.063.034a27.846,27.846,0,0,0-9.934,8.611,24.241,24.241,0,0,0-2.993,5.888,27.158,27.158,0,0,0-1.364,6.48,39.636,39.636,0,0,0,1.259,13.2,55.854,55.854,0,0,0,4.85,12.409l-.156-.08,17.3-1.756.231-.023-.172.154-11.435,10.239,11.333-10.35.059.131-17.281,1.922-.105.012-.051-.092a56.145,56.145,0,0,1-4.95-12.467,40.037,40.037,0,0,1-1.345-13.341,27.671,27.671,0,0,1,1.354-6.6,24.374,24.374,0,0,1,3.03-6.029,28.4,28.4,0,0,1,10.107-8.8l-.1.1a38.012,38.012,0,0,1,10.871-11.1,44.738,44.738,0,0,1,14.246-6.237,61.733,61.733,0,0,1,15.466-1.755,76.107,76.107,0,0,1,7.778.459,70.418,70.418,0,0,1,7.69,1.261l.175.04.045.175,4.348,17.566-.53-.019,5.216-15.967.059-.179.188.005a40.007,40.007,0,0,1,7.54.929,38.066,38.066,0,0,1,7.219,2.365c1.154.522,2.287,1.1,3.387,1.727a35.362,35.362,0,0,1,3.175,2.09,31.424,31.424,0,0,1,5.521,5.206l.029.034.007.043,3.294,18.13-.171-.013Z" transform="translate(-13.032 0)" fill="#2b2b2b"/>
      <path id="Path_22137" data-name="Path 22137" d="M-3854.314-616.728a138.8,138.8,0,0,1,17.562,8.929q4.218,2.557,8.23,5.438c2.673,1.918,5.26,3.955,7.781,6.069s4.961,4.32,7.373,6.551,4.809,4.477,7.382,6.486a25.106,25.106,0,0,0,4.074,2.654c.178.1.36.182.545.261s.366.168.552.244c.376.14.748.294,1.135.4.38.129.774.2,1.163.295a11.34,11.34,0,0,0,1.188.153,11.7,11.7,0,0,0,4.723-.649c.193-.054.375-.142.563-.213s.376-.141.557-.23c.36-.176.73-.336,1.074-.544a12.894,12.894,0,0,0,1.986-1.351,10.9,10.9,0,0,0,1.658-1.713,6.285,6.285,0,0,0,1.054-2.078,2.7,2.7,0,0,0,.113-.562,3.209,3.209,0,0,0,.035-.567,3.878,3.878,0,0,0-.2-1.119,6.142,6.142,0,0,0-1.213-1.987,16.3,16.3,0,0,0-3.785-2.981,45.493,45.493,0,0,0-4.334-2.27c-1.483-.691-2.991-1.333-4.5-1.972q-1.136-.477-2.266-.974t-2.254-1q-4.5-2.031-8.861-4.338a193.705,193.705,0,0,1-16.935-10.1q-8.172-5.518-15.834-11.733,7.754,6.08,16,11.476a194.751,194.751,0,0,0,16.988,9.93q4.377,2.247,8.862,4.271,1.118.51,2.25.992c.752.327,1.5.649,2.263.965,1.515.635,3.032,1.276,4.528,1.967a46.093,46.093,0,0,1,4.4,2.287,16.863,16.863,0,0,1,3.933,3.085,6.764,6.764,0,0,1,1.338,2.19,4.528,4.528,0,0,1,.23,1.3,3.823,3.823,0,0,1-.039.66,3.214,3.214,0,0,1-.127.643,6.91,6.91,0,0,1-1.15,2.292,11.361,11.361,0,0,1-1.755,1.823,13.582,13.582,0,0,1-2.085,1.41c-.36.215-.747.382-1.124.564-.188.092-.388.158-.582.239s-.387.164-.589.22a12.3,12.3,0,0,1-4.97.666,11.841,11.841,0,0,1-1.253-.166c-.41-.1-.824-.178-1.222-.313-.406-.112-.793-.273-1.187-.421-.194-.08-.382-.171-.574-.255s-.38-.173-.564-.272a25.709,25.709,0,0,1-4.162-2.725c-2.6-2.044-4.985-4.314-7.4-6.538s-4.826-4.449-7.316-6.582-5.053-4.181-7.7-6.116-5.372-3.766-8.157-5.5A138.784,138.784,0,0,0-3854.314-616.728Z" transform="translate(-468.011 -339.212)" fill="#2b2b2b"/>
    </g>
    <g id="Group_902" data-name="Group 902" transform="matrix(0.174, 0.985, -0.985, 0.174, 5375.639, 13233.288)">
      <g id="Group_901" data-name="Group 901" transform="translate(-4454.485 -2370.303)">
        <path id="Path_22138" data-name="Path 22138" d="M-3883.735-2217.412c-3.742-6.22-8.952-11.351-14.483-16.469-6.48-6-15.042-8.189-24.3-8.292-7.109-.079-15.144,2.059-21.52,4.657-6.94,2.828-13.417,7.089-17.424,12.76-3.8,5.372-6.17,12.934-6.771,19.166-.666,6.909,1.714,14,3.895,20.605,3.771,11.417,7.679,24.991-.836,35.537-7.872,9.75-25.614,6.229-33.318-2-3.97-4.242-4.94-9.01-5.171-14.229-.224-5.08-.55-10.4.474-15.421a154.855,154.855,0,0,1,4.253-17.146,49.506,49.506,0,0,0,2.805-13.185c.111-3.335-1.729-6.76-3.606-9.6-2.271-3.437-5.708-5.489-9.241-7.911-3.62-2.481-7.75-3.168-11.483-3.834-12.793-2.285-26.758-4.778-39.345.649-17.494,7.543-28.984,28.945-25.5,45.046,1,4.638,3.508,10.04.118,14.915-3.9,5.611-12.9,6.625-15.3,6.894-15.415,1.736-35.27-7.021-37.3-18.868-1.4-8.133,6.082-14.962,15.446-23.512,17.491-15.971,27.462-14.129,35.313-24.506,9.642-12.745,9.951-35.81-6.437-48.74-17.368-13.7-46.36-10.4-59.7-.319-4.43,3.348-4.211,5.234-22.459,25.519-8.28,9.2-10.067,10.742-13.078,11.316-15.916,3.033-42.2-28.157-35.1-37.649,3.771-5.039,11.844-1.329,21.894-7.5,18.338-11.257,14.34-38.713,14.053-40.5a47.748,47.748,0,0,0-18.1-30.308c-11.2-8.664-24.448-9.256-28.645-9.451-2.116-.1-24.63-.866-37.54,12.09-9.084,9.117-3.5,15.083-14.364,28.314-4.484,5.463-11.2,13.642-21.986,14.612-9.332.839-18.739-3.985-23.808-9.527-6.127-6.7-6.352-15.008-13.151-26.729a32.307,32.307,0,0,0-4.031-5.612c-6.761-7.535-16.605-11.967-27.676-12.781-11.468-.844-21.187-1.813-32.329.912-8.155,1.995-17.774,1.914-24.922,6.327-17.312,10.69-22.681,28.826-18.943,46.1,5.764,26.642,26.755,58.774,62.832,55.633,11.025-.96,22.7-2.645,29.212,6.465,2.729,3.819,7.548,7.835,7.7,12.389.134,3.919-2.25,7-6.272,8.785-5.884,2.606-14.046,1.731-20.343,3.172-6.675,1.528-13.874,4.435-20.227,6.808-14.23,5.312-22.269,11.889-23.7,25.349-1.552,14.592,8.978,34.694,26.218,39.827,6.042,1.8,14.489,1.746,20.848,2.342a22.846,22.846,0,0,0,13.184-2.447c14.838-7.875,30.251-15.813,44.42-24.84,9.158-5.834,13.919-16.551,26.016-18.872,6.4-1.229,13.9-2.669,19.951.262,2.322,1.125,4.354,2.966,6.544,4.267,2.08,1.236,5.3,2.362,6.989,4,8.314,8.058,6.1,18.482,2.307,27.251-6.005,13.884-24.8,18.14-38.377,25.009-13.672,6.92-32.916,17.508-31.018,33.246,1.228,10.18,4.741,21.955,12.247,29.992,7.209,7.719,13.542,11.5,24.634,14.013a233.762,233.762,0,0,0,28.664,4.73c8.16.786,13.221.047,20.378-2.827,13.513-5.425,20.636-18.292,29.086-28.307,11.236-13.318,5.577-16.641,13.828-27.574,6.177-8.187,14.022-18.583,23.533-17.633,9.627.961,17.494,13.2,15.99,22.511-.231,1.434-2.048,4.522-5.675,10.636-3.794,6.4-8.476,12.781-11.263,19.562-1.5,3.64-2.093,7.518-3.033,11.281-.919,3.682-2.53,7.189-3.431,10.867a60.157,60.157,0,0,0-1.3,10.621c-.361,5.654.817,10.847,2.122,16.4,1,4.261,2.466,7.567,6.518,10.514a34.494,34.494,0,0,0,11.406,5.165c10.477,2.876,21.895,5.315,32.874,3.715,5.711-.833,9.551-3.026,13.649-6.481,4.412-3.72,8.938-7.442,12.913-11.509,4.277-4.375,6.549-9.788,9.36-14.876a133.64,133.64,0,0,1,11.884-18.1c3.04-3.843,6.862-7.144,10.531-10.544,3.285-3.044,6.292-5.925,10.739-7.776,4.953-2.062,12.363-3.626,15.893,1.071,2.175,2.9,3.074,6.5,4.209,9.752,1.751,5,2.628,10.054,3.868,15.156,2.148,8.835,8.051,21.5,17.583,29.562,20.548,17.375,53.266,11.933,57.641,11.148,10.163-1.824,23.073-4.141,28.735-12.853,7.644-11.763-5.59-23.382-7.572-42.787-1.089-10.669,1.084-25.106,14.085-43.059,2.279-2.75,4.476-5.494,5.885-7.478.332-.469,1.4-2.034,3.053-4.033a111.118,111.118,0,0,1,8.914-9.538,117.046,117.046,0,0,0,9.379-11.287c5.554-7.438,13.017-14.208,17.494-22.175,4.281-7.62,7.135-14.927,6.987-23.466C-3875.412-2201.669-3879.172-2209.829-3883.735-2217.412Z" transform="translate(4454.485 2370.303)" fill="#3f5146"/>
      </g>
    </g>
    <g id="Group_905" data-name="Group 905" transform="matrix(0.993, 0.122, -0.122, 0.993, 12321.463, 10897.341)">
      <g id="Group_903" data-name="Group 903" transform="translate(-5855.371 -2198.123)">
        <path id="Path_22139" data-name="Path 22139" d="M-5585.155-1732.362c-2.154,6.877-1.031,11.81.008,19.758a80.348,80.348,0,0,1,1.744,25.4c-1.389,15.055-1.4,31.045,1.025,46.043.516,3.2,2.218,5.258,3.982,8.033,1.781,2.8,2.609,5.949,4.563,8.7,3.095,4.35,8.951,10.111,13.994,12.835,10.191,5.506,20.7,15.138,33.725,14.878,3.294-.066,8.057.294,11.091-.382a31.05,31.05,0,0,0,13.613-7.023c35.939-30.419,53.908-45.629,53.278-60.371-1.178-27.54-41.639-46.914-45.637-48.829-15.33-7.341-49.487-18.591-60.156-24.877a80.927,80.927,0,0,0-9.848-4.872c-5.186-2.292-13.241-6.119-15.238-5.913C-5586.156-1748.25-5584.45-1734.609-5585.155-1732.362Z" transform="translate(5610.576 1866.31)" fill="#f7e2c4"/>
        <path id="Path_22140" data-name="Path 22140" d="M-5678.7-2114.561c5.923-1.524,10.992-4.25,16.853-5.861a60.516,60.516,0,0,0,18.251-8.227c2.868-1.812,6-3.459,8.805-5.323,3.509-2.334,5.074-5.584,7.818-8.4,5.169-5.305,13.281-8.266,19.028-13.293,5.472-4.787,11.189-9.766,16.991-14.167,5.986-4.542,9.944-10.517,16.5-14.6,7.3-4.54,17.052-9.139,26.321-9.379,4.7-.122,9.268-.826,13.964-.966,6.761-.2,13.636-2.623,20.447-1.621,7.138,1.05,13.205,1.728,19.9,4.426,4.758,1.918,7.942,4.282,11.931,7.07,4.663,3.26,8.95,5.383,12.607,9.629,3.563,4.137,4.735,8.779,7.054,13.34,1.839,3.618,4.3,7.1,5.851,10.811,3.136,7.52,5.672,16.855,3.183,24.4-1,3.019-.146,5.839-1.116,8.849-1.273,3.952-3.248,7.228-4.208,11.327-1.984,8.471-6.585,17.1-11.774,24.527-6.291,9.008-18.126,15.938-28.785,20.984-6.564,3.108-11.6,5.619-19.282,6.888a101.835,101.835,0,0,1-18.417,1.081,94.023,94.023,0,0,1-25.337-3.528c-7.178-2.148-14.761-2.833-21.8-5.478a349.865,349.865,0,0,1-37.9-17.35c-2.191-1.133-4.343-1.444-6.494-2.849-4.055-2.647-7.356-6.362-11.324-9.153a63.267,63.267,0,0,0-12.355-7.052c-4.044-1.755-6.256-3.885-9.487-6.48-2.5-2.006-10.665-5.954-11.384-8.911" transform="translate(5678.697 2196.64)" fill="#c65454"/>
      </g>
      <g id="Group_904" data-name="Group 904" transform="translate(-5918.115 -2198.65)">
        <path id="Path_22141" data-name="Path 22141" d="M-5596.054-1710.82a26.784,26.784,0,0,0-1.046,4.866,28.9,28.9,0,0,0-.111,4.976c.095,1.659.293,3.311.512,4.959l.679,4.943v-.007a67.78,67.78,0,0,1,1.275,6.722q.483,3.387.688,6.808t.135,6.843c-.03,1.141-.075,2.282-.153,3.421s-.18,2.275-.271,3.41q-.558,6.812-.687,13.647c-.077,4.554-.032,9.11.2,13.657s.65,9.085,1.27,13.594c.153,1.127.335,2.252.5,3.375a12.047,12.047,0,0,0,.4,1.625,12.9,12.9,0,0,0,.634,1.552c.984,2.024,2.436,3.8,3.553,5.825,1.1,2.024,1.876,4.18,2.992,6.142.275.492.582.964.9,1.427.334.457.667.915,1.021,1.357q1.052,1.336,2.2,2.593a55.17,55.17,0,0,0,4.881,4.747,36.11,36.11,0,0,0,5.52,3.957c4.012,2.186,7.783,4.772,11.646,7.181a62.1,62.1,0,0,0,12.135,6.188,33.683,33.683,0,0,0,3.269.962,30.441,30.441,0,0,0,3.353.6c2.256.278,4.541.117,6.822.193,1.14.019,2.278.034,3.417.014a27.556,27.556,0,0,0,3.4-.233,27.142,27.142,0,0,0,6.5-2,31.279,31.279,0,0,0,3.029-1.561,32.976,32.976,0,0,0,2.835-1.891c.915-.675,1.784-1.408,2.652-2.147l2.605-2.213,10.408-8.872c6.913-5.941,13.807-11.913,20.4-18.208,3.284-3.156,6.5-6.391,9.468-9.837,1.48-1.726,2.906-3.5,4.206-5.362a38.533,38.533,0,0,0,3.438-5.855,22.266,22.266,0,0,0,1.952-6.452,17.02,17.02,0,0,0,.121-3.367l-.056-.846c-.019-.282-.059-.562-.087-.843-.051-.563-.151-1.12-.235-1.679a35.84,35.84,0,0,0-4.927-12.568,58.734,58.734,0,0,0-8.494-10.6,94,94,0,0,0-10.334-8.877,126.639,126.639,0,0,0-11.368-7.539,125.922,125.922,0,0,0-12.085-6.325c-16.662-7.363-34.022-13.092-50.735-20.426-2.081-.934-4.149-1.9-6.159-2.991-1-.557-1.972-1.149-2.967-1.7s-2-1.079-3.029-1.573c-2.049-.992-4.143-1.895-6.22-2.834s-4.149-1.888-6.242-2.79c-1.046-.451-2.1-.894-3.157-1.308a28.362,28.362,0,0,0-3.23-1.092,4.045,4.045,0,0,0-3.251.463,5.9,5.9,0,0,0-2.2,2.521,13.488,13.488,0,0,0-1.059,3.231,28.2,28.2,0,0,0-.466,3.38c-.1,1.135-.143,2.274-.179,3.412l-.061,1.709A8.527,8.527,0,0,1-5596.054-1710.82Zm-.05-.016a8.467,8.467,0,0,0,.189-1.689l.057-1.708c.034-1.139.079-2.279.171-3.416a28.426,28.426,0,0,1,.461-3.39,13.533,13.533,0,0,1,1.058-3.252,5.986,5.986,0,0,1,2.229-2.562,4.767,4.767,0,0,1,1.611-.592c.142-.025.284-.044.428-.058a2.667,2.667,0,0,1,.436.011,7.021,7.021,0,0,1,.846.158,28.538,28.538,0,0,1,3.246,1.089c1.063.413,2.115.853,3.163,1.3,2.095.9,4.173,1.838,6.256,2.764s4.182,1.814,6.243,2.8q1.547.734,3.05,1.557c1,.547,1.982,1.135,2.977,1.679,2.007,1.07,4.077,2.022,6.162,2.938,4.173,1.826,8.413,3.5,12.661,5.151s8.511,3.264,12.773,4.881,8.524,3.239,12.77,4.9,8.474,3.382,12.636,5.264a126.473,126.473,0,0,1,12.142,6.343,127.372,127.372,0,0,1,11.423,7.563,92.261,92.261,0,0,1,10.387,8.939,59.285,59.285,0,0,1,8.549,10.714,36.344,36.344,0,0,1,4.97,12.754c.083.568.184,1.134.235,1.707.028.286.068.571.087.857l.055.86a17.474,17.474,0,0,1-.131,3.455,22.514,22.514,0,0,1-2.013,6.581,39.03,39.03,0,0,1-3.5,5.909c-1.319,1.871-2.76,3.649-4.254,5.377-3,3.448-6.231,6.677-9.533,9.824s-6.7,6.192-10.123,9.2-6.88,5.986-10.349,8.945l-10.434,8.843-2.613,2.205c-.869.736-1.746,1.471-2.667,2.147a33.288,33.288,0,0,1-2.857,1.893,31.534,31.534,0,0,1-3.051,1.562,28.2,28.2,0,0,1-6.54,2.011,27.7,27.7,0,0,1-3.419.242c-1.141.023-2.282.01-3.422-.006s-2.278-.032-3.416-.013a28.617,28.617,0,0,1-3.425-.167,30.753,30.753,0,0,1-3.377-.593,34.015,34.015,0,0,1-3.29-.961,62.5,62.5,0,0,1-12.214-6.147c-3.885-2.394-7.659-4.953-11.67-7.111a36.407,36.407,0,0,1-5.6-3.969,55.61,55.61,0,0,1-4.942-4.757q-1.167-1.259-2.23-2.611c-.359-.447-.7-.91-1.036-1.373s-.646-.959-.927-1.462c-1.143-2-1.923-4.163-3.006-6.144s-2.553-3.755-3.573-5.839a13.481,13.481,0,0,1-.66-1.61,12.362,12.362,0,0,1-.417-1.693c-.172-1.131-.353-2.256-.5-3.389-.608-4.526-1.006-9.077-1.231-13.636s-.258-9.126-.141-13.687.379-9.118.783-13.662c.1-1.136.209-2.271.3-3.4s.138-2.271.175-3.409q.094-3.413-.089-6.828t-.642-6.8a63.785,63.785,0,0,0-1.245-6.714v-.006l-.666-4.945c-.215-1.649-.41-3.3-.5-4.966a29.038,29.038,0,0,1,.123-4.987A26.99,26.99,0,0,1-5596.1-1710.836Z" transform="translate(5681.407 1850.98)" fill="#2b2b2b"/>
        <path id="Path_22142" data-name="Path 22142" d="M-5640.388-2117.445c5.65-1.428,10.873-4.12,16.5-5.686,1.4-.392,2.8-.787,4.178-1.243s2.742-.956,4.084-1.51a64.069,64.069,0,0,0,7.785-3.893c1.26-.724,2.492-1.489,3.746-2.235s2.525-1.45,3.789-2.169,2.521-1.445,3.75-2.217a18.8,18.8,0,0,0,1.771-1.239,21.084,21.084,0,0,0,1.61-1.443c2.047-2.037,3.717-4.464,5.915-6.421.532-.5,1.1-.961,1.67-1.424.288-.227.583-.441.875-.661s.589-.432.89-.638c1.194-.843,2.435-1.612,3.683-2.364,2.5-1.5,5.051-2.9,7.508-4.439q1.845-1.153,3.583-2.455c1.14-.883,2.252-1.829,3.377-2.75,4.49-3.7,9.009-7.374,13.681-10.854,1.166-.875,2.359-1.709,3.487-2.61s2.225-1.855,3.3-2.828c2.151-1.948,4.216-4,6.416-5.922a42.7,42.7,0,0,1,7.078-5.152,83.793,83.793,0,0,1,7.755-4.042,58.659,58.659,0,0,1,8.193-3.069,37.243,37.243,0,0,1,8.618-1.518l1.1-.044c.362-.008.725-.01,1.087-.024.725-.02,1.449-.06,2.174-.1,1.45-.087,2.9-.206,4.349-.317s2.9-.217,4.361-.273l2.181-.067.542-.02.542-.038c.361-.025.723-.049,1.083-.089,2.888-.274,5.752-.811,8.647-1.147a37.964,37.964,0,0,1,4.364-.3c.365-.013.73.014,1.1.019s.729.039,1.094.068l.546.046.543.077c.362.051.725.1,1.082.168,2.864.5,5.741.956,8.586,1.586a47.14,47.14,0,0,1,8.338,2.59c.668.291,1.335.587,1.988.911s1.3.669,1.923,1.043a36.468,36.468,0,0,1,3.622,2.446c2.323,1.762,4.478,3.721,6.811,5.456,1.156.882,2.322,1.753,3.451,2.676a31.03,31.03,0,0,1,3.2,2.983,21.055,21.055,0,0,1,2.616,3.507,23.3,23.3,0,0,1,1.839,3.97c.995,2.745,1.633,5.594,2.614,8.324s2.283,5.339,3.353,8.052a33.2,33.2,0,0,1,1.358,4.159c.376,1.407.713,2.826.99,4.258a48.313,48.313,0,0,1,.967,8.686,33.15,33.15,0,0,1-.225,4.374l-.062.545c-.022.181-.059.361-.087.541l-.185,1.082-.248,1.069c-.044.178-.079.358-.129.534l-.159.526c-.11.349-.2.7-.328,1.048l-.393,1.027c-.127.348-.269.67-.383,1.011s-.214.684-.3,1.032c-.346,1.4-.449,2.849-.694,4.294a14.423,14.423,0,0,1-.516,2.145,20.389,20.389,0,0,1-.837,2.034c-.607,1.329-1.285,2.62-1.951,3.912s-1.324,2.585-1.9,3.913-1.016,2.7-1.517,4.079a70.444,70.444,0,0,1-3.594,7.976c-1.363,2.579-2.858,5.086-4.451,7.528s-3.3,4.81-5.072,7.121a46.262,46.262,0,0,1-5.979,6.4,81.582,81.582,0,0,1-14.353,9.968c-2.541,1.429-5.138,2.756-7.764,4.019q-1.972.943-3.956,1.851c-1.32.611-2.643,1.219-3.979,1.8a61.057,61.057,0,0,1-8.223,3.015c-1.409.392-2.837.718-4.274.986s-2.886.465-4.337.629a85.678,85.678,0,0,1-8.736.5q-4.375.036-8.741-.188a84.513,84.513,0,0,1-17.28-2.624c-1.412-.372-2.806-.821-4.187-1.282s-2.764-.864-4.165-1.238c-2.8-.744-5.646-1.37-8.466-2.113a50.883,50.883,0,0,1-8.278-2.849q-4-1.758-7.923-3.68c-5.23-2.563-10.36-5.322-15.419-8.2q-3.795-2.158-7.541-4.4l-1.873-1.12a19.3,19.3,0,0,0-1.891-1.053,36.694,36.694,0,0,1-3.967-1.85,14.447,14.447,0,0,1-1.757-1.33c-.561-.47-1.092-.973-1.619-1.477-1.045-1.02-2.039-2.085-3.036-3.143s-2-2.11-3.065-3.09-2.2-1.886-3.345-2.784-2.318-1.748-3.531-2.543-2.465-1.532-3.743-2.22c-.64-.347-1.287-.666-1.934-1.009a19.808,19.808,0,0,1-1.877-1.13,25.549,25.549,0,0,1-3.371-2.787c-.527-.5-1.043-1.016-1.561-1.527l-.778-.764c-.261-.255-.519-.505-.8-.737-1.118-.922-2.321-1.746-3.491-2.61s-2.338-1.737-3.423-2.711a13.46,13.46,0,0,1-1.518-1.572,5.684,5.684,0,0,1-.611-.908,2.957,2.957,0,0,1-.355-1.036l.052-.006a2.893,2.893,0,0,0,.355,1.013,5.668,5.668,0,0,0,.611.895,13.311,13.311,0,0,0,1.52,1.553c1.087.964,2.256,1.831,3.433,2.683s2.381,1.67,3.515,2.593c.283.232.548.487.809.738l.784.76c.521.508,1.04,1.017,1.569,1.514a25.359,25.359,0,0,0,3.365,2.746,19.657,19.657,0,0,0,1.866,1.107c.64.335,1.3.655,1.941,1a48.729,48.729,0,0,1,7.329,4.754c.577.445,1.145.9,1.709,1.361s1.125.93,1.662,1.425c1.08.984,2.087,2.04,3.09,3.093s2,2.114,3.038,3.123c.524.5,1.053,1,1.608,1.458a14.284,14.284,0,0,0,1.723,1.3,36.756,36.756,0,0,0,3.941,1.82,19.7,19.7,0,0,1,1.924,1.062l1.875,1.113q3.756,2.219,7.55,4.37c5.063,2.859,10.2,5.6,15.425,8.136q3.92,1.906,7.918,3.645a50.409,50.409,0,0,0,8.216,2.8c2.809.732,5.654,1.341,8.475,2.089,1.409.376,2.815.771,4.2,1.246,1.377.458,2.753.9,4.156,1.27a84,84,0,0,0,17.172,2.6,109.75,109.75,0,0,0,17.387-.322c1.439-.163,2.876-.367,4.3-.625s2.832-.589,4.226-.977a61.37,61.37,0,0,0,8.153-2.981c5.3-2.371,10.6-4.781,15.665-7.626a81.105,81.105,0,0,0,14.278-9.882c4.39-3.8,7.753-8.6,10.995-13.406,1.594-2.426,3.09-4.916,4.454-7.477a70.1,70.1,0,0,0,3.6-7.915c.5-1.354.94-2.755,1.538-4.093s1.25-2.641,1.923-3.931,1.35-2.574,1.957-3.89a20.2,20.2,0,0,0,.83-1.995,14.127,14.127,0,0,0,.51-2.092c.246-1.421.354-2.884.713-4.315.091-.356.192-.711.314-1.059s.27-.693.393-1.028l.39-1.01c.125-.338.217-.688.327-1.032l.159-.518c.049-.173.085-.351.128-.526l.249-1.055.185-1.069c.029-.178.065-.355.089-.535l.063-.539a32.862,32.862,0,0,0,.237-4.334,48,48,0,0,0-.942-8.638c-.273-1.426-.6-2.84-.976-4.243a32.808,32.808,0,0,0-1.34-4.134c-1.057-2.7-2.357-5.315-3.336-8.066s-1.612-5.6-2.595-8.33a23.174,23.174,0,0,0-1.813-3.941,20.886,20.886,0,0,0-2.586-3.481,30.772,30.772,0,0,0-3.171-2.972c-1.122-.922-2.285-1.794-3.439-2.68-2.331-1.747-4.493-3.7-6.811-5.455a33.427,33.427,0,0,0-7.5-4.365,46.93,46.93,0,0,0-8.31-2.565c-2.838-.623-5.712-1.077-8.58-1.566a28.2,28.2,0,0,0-8.659-.039c-2.882.348-5.743.9-8.648,1.186-.362.042-.727.068-1.09.094l-.546.041-.547.023-2.181.076c-1.45.062-2.9.175-4.348.291s-2.9.242-4.353.336c-.728.044-1.455.087-2.184.11-.364.016-.729.019-1.094.029l-1.084.048a36.841,36.841,0,0,0-8.523,1.539c-1.393.4-2.76.882-4.118,1.388-1.349.53-2.691,1.079-4.007,1.688a83.231,83.231,0,0,0-7.709,4.032,42.226,42.226,0,0,0-7,5.112c-2.183,1.91-4.243,3.965-6.4,5.925-1.079.98-2.176,1.945-3.326,2.847s-2.342,1.744-3.5,2.613c-4.667,3.465-9.187,7.126-13.682,10.818-1.127.92-2.231,1.858-3.394,2.755q-1.759,1.311-3.619,2.47c-2.474,1.547-5.031,2.94-7.522,4.431-1.245.747-2.479,1.51-3.664,2.343-.6.4-1.171.85-1.75,1.283-.561.456-1.128.9-1.655,1.4-2.169,1.913-3.842,4.323-5.929,6.385a21.053,21.053,0,0,1-1.644,1.461,19.151,19.151,0,0,1-1.807,1.253c-1.238.771-2.5,1.5-3.771,2.209s-2.539,1.419-3.793,2.151-2.492,1.5-3.757,2.221a62.725,62.725,0,0,1-7.833,3.869c-1.351.547-2.724,1.04-4.109,1.487s-2.792.834-4.194,1.217c-5.611,1.521-10.861,4.179-16.529,5.571Z" transform="translate(5713.172 2198.65)" fill="#2b2b2b"/>
        <path id="Path_22143" data-name="Path 22143" d="M-5918.092-2005.05c2.348,1.1,4.877,1.807,7.187,3.027,1.17.555,2.368,1.051,3.578,1.517.6.235,1.219.446,1.823.709s1.19.546,1.772.835a34.247,34.247,0,0,0,3.529,1.606q1.818.712,3.614,1.477c2.4,1.013,4.754,2.116,7.108,3.219,1.178.551,2.339,1.136,3.519,1.67s2.375,1.046,3.565,1.571,2.376,1.065,3.535,1.659,2.315,1.191,3.436,1.855q.84.5,1.653,1.041c.54.367,1.071.735,1.616,1.089,1.084.715,2.177,1.419,3.247,2.161s2.169,1.42,3.271,2.113c.55.347,1.1.7,1.63,1.08l.788.577a9.386,9.386,0,0,0,.8.526c1.108.651,2.322,1.119,3.492,1.708.293.145.582.3.868.469s.558.35.831.531q.813.552,1.582,1.165a22.5,22.5,0,0,1,2.843,2.715q.649.741,1.224,1.544a12.9,12.9,0,0,1,1.053,1.682,12.1,12.1,0,0,1,.718,1.844,5.055,5.055,0,0,0,.962,1.575c.409.484.87.939,1.313,1.427s.857.972,1.3,1.453c.874.963,1.762,1.908,2.571,2.961a30.72,30.72,0,0,1,2.061,3.346c1.319,2.232,2.585,4.513,3.952,6.705.681,1.1,1.429,2.153,2.177,3.218s1.5,2.125,2.232,3.2a62.444,62.444,0,0,1,4.065,6.669c.606,1.153,1.171,2.324,1.727,3.5l.833,1.764a4.186,4.186,0,0,1,.292.939c.061.321.1.642.183.956l-.051.013c-.087-.315-.141-.637-.21-.953a4.046,4.046,0,0,0-.311-.91l-.882-1.737q-.882-1.737-1.812-3.447c-.623-1.137-1.28-2.255-1.985-3.342s-1.439-2.156-2.184-3.219-1.508-2.113-2.268-3.167-1.528-2.11-2.23-3.212-1.372-2.219-2.026-3.343l-1.97-3.366a30.316,30.316,0,0,0-2.031-3.283c-.778-1.006-1.674-1.956-2.536-2.926-.435-.479-.869-.983-1.289-1.462s-.89-.939-1.316-1.451a5.543,5.543,0,0,1-1.042-1.742,11.634,11.634,0,0,0-.68-1.79,12.554,12.554,0,0,0-1-1.625c-.371-.524-.767-1.031-1.181-1.521a22.113,22.113,0,0,0-2.749-2.7q-.746-.614-1.54-1.169a13.434,13.434,0,0,0-1.644-1c-1.141-.6-2.356-1.085-3.482-1.768a9.755,9.755,0,0,1-.818-.554l-.775-.588c-.522-.381-1.06-.743-1.6-1.1-1.084-.711-2.2-1.394-3.255-2.151s-2.15-1.455-3.231-2.177l-1.619-1.086q-.812-.534-1.653-1.023a58.24,58.24,0,0,0-6.993-3.4c-1.2-.5-2.4-.988-3.6-1.505s-2.372-1.073-3.553-1.612q-3.533-1.643-7.106-3.189-1.786-.774-3.592-1.5a34.721,34.721,0,0,1-3.551-1.647c-.579-.295-1.159-.579-1.746-.845s-1.192-.488-1.8-.737c-1.207-.49-2.4-1.011-3.571-1.591-.585-.293-1.153-.6-1.742-.866s-1.184-.526-1.784-.775c-1.2-.5-2.41-.983-3.564-1.585Z" transform="translate(5918.115 2055.787)" fill="#2b2b2b"/>
        <path id="Path_22144" data-name="Path 22144" d="M-5668.859-1887.931c-.075-.092-.146-.185-.212-.281l.085.055a11.487,11.487,0,0,1-1.2.1,6.749,6.749,0,0,1-1.2-.048,10.947,10.947,0,0,0-1.2-.147,11.9,11.9,0,0,0-1.208.016,9.124,9.124,0,0,1-1.216-.031c-.2-.015-.4-.042-.606-.063s-.4-.066-.6-.11a6.106,6.106,0,0,1-2.244-.968l.022-.047c.792.187,1.554.342,2.331.473l1.163.212c.39.066.783.125,1.176.209a7.317,7.317,0,0,0,1.19.151,8.151,8.151,0,0,0,1.2-.078,7.229,7.229,0,0,1,1.2-.012,9.723,9.723,0,0,1,1.2.146l.074.014.012.041q.048.168.084.342Z" transform="translate(5741.271 1970.484)" fill="#2b2b2b"/>
      </g>
    </g>
    <g id="Group_910" data-name="Group 910" transform="matrix(-0.454, -0.891, 0.891, -0.454, 6526.365, 3070.735)">
      <g id="Group_907" data-name="Group 907" transform="translate(-4923.938 -2320.08)">
        <g id="Group_906" data-name="Group 906" transform="translate(0)">
          <path id="Path_22145" data-name="Path 22145" d="M-4525.41-2296.225a62.331,62.331,0,0,1,17-2.413c20.21.2,45.359,11.419,50.707,25.377,7.787,20.324-33.574,27.753-48.1,70.186-14.388,42.024,1.341,78.872,1.341,78.872,7.006,16.315,20.418,35.11,11.844,47.913-.874,1.305-4.7,6.608-9.187,6.047-7.772-.968-9.591-18.467-14.723-18.927-8.433-.757-11.645,45.768-21.6,45.57-5.782-.113-12.74-15.972-14.042-29.647-2.277-23.945,12.8-41.072,18.768-47.127-14.226,12.979-32.267,27.219-40.4,22.927-3.747-1.977-4.11-7.219-4.283-9.68-1.547-22.167,28.461-38.963,27.45-39.96-1.251-1.241-41.287,30.761-50.034,24.784-2.929-2-1.454-7.643-.538-11.141,3.818-14.576,15.88-20.761,33.8-36.165,13.377-11.5,22.917-22.038,21.873-22.992-2.021-1.841-41.372,33.881-54.048,26.278-4.752-2.852-3.886-10.67-3.761-11.677,1.907-15.325,22.555-19.182,41.073-33.649,22.718-17.748,32.356-44.217,28.16-47.146-5.455-3.809-46.525,23.6-71.988,63.507-22.95,35.967-28,73.906-29.572,86.631-5.3,43.021,3.077,77.593-13.782,82.483-3.908,1.133-10.007.9-13.445-1.961-9.048-7.531,3.74-30.489,1.505-31.378-2.114-.842-10.78,20.822-18.02,19.519-4.417-.8-8.2-10.111-7.2-18.249,2.057-16.728,23.984-25.722,22.489-27.584-1.748-2.177-28.682,13.991-36.415,7.779-3.377-2.714-1.679-8.566-1.454-9.346,1.833-6.313,7.992-8.323,25.562-17.68,16.508-8.8,16.406-9.865,16.253-10.137-.708-1.244-10.169.856-16.612,2.712-16.386,4.723-22.331,10.5-25.667,8.418-3.242-2.023-2.581-10.574,1.945-17.005,7.386-10.5,19.358-7.239,38.152-19.477,4.763-3.1,9.684-6.367,13.812-12.136,6.637-9.273,6.831-18.8,6.935-23.06-10.62,7.165-23.331,14.773-45.77,30-29.224,19.833-43.906,29.878-47.351,36.283-17.689,32.913-26.994,54.851-26.994,54.851-.783,1.846-2.98,7.079-6.894,7.225-5,.185-9.793-8.043-10.033-8.467-7.472-13.121.243-29.558,3.33-36.13,3.335-7.106,7.042-11.927,5.479-13.1-1.3-.973-5.263,1.33-10.413,4.472-14.646,8.927-21.967,13.389-25.573,16.524-21.764,18.928-16.136,37.437-32.17,41-6.13,1.363-14.191.263-17.852-3.72-5.01-5.454-.315-14.736,1.66-18.643,7.571-14.975,22.621-21.9,22.28-22.276-.37-.415-19.517,6.675-40.8,22.79-5.224,3.953-11.3,9-21.352,10.3-2.026.261-14.317,1.847-19.1-3.917-4.567-5.494.667-14.079,1.432-15.337,5.494-9.015,15.99-12.2,30.936-16.515,32.881-9.5,49.729-13.867,49.2-16.039-.77-3.161-36.883,3.787-46.818-9.275-3.926-5.159-3.511-13.109.876-16.607,5.771-4.6,15.1,1.123,36.825,4.279a159.715,159.715,0,0,0,48.31-.589c13.142-2.337,29.115-7.33,28.327-10.575-.951-3.927-25.048.641-54.874-9.752-17.139-5.973-39.491-18.042-38.17-27.037.909-6.17,12.787-8.821,16.529-9.656,31.71-7.085,52.349,16.451,90.121,16.943,11.265.149,21.161-2.913,40.963-8.9,40.412-12.2,76.064-32.642,73.65-36.793-1.6-2.746-20.872-.189-35.536,6.988-4.533,2.221-6.611,2.459-14.63,7.915-4.13,2.814-12.586,9-23.708,7.916-7.105-.694-15.584-4.387-16.149-8.466-1.11-8.023,28.7-15.411,28.524-15.743s-27.9,7.063-54.1,12.154c-9.49,1.845-20.426,3.712-26.074-1.349-2.2-1.976-3.8-5.18-3.192-8.044,2.062-9.756,28.865-11.945,32.337-12.161-2.1.1-13.758.769-36.938,5.437-12.312,2.479-19.567,4.412-25.421.686-3.591-2.285-6.805-6.8-5.744-10.286,2.68-8.8,31.377-7.2,31.224-9.229-.186-2.542-44.908,1.238-56.234-15.428-3.959-5.829-4.474-15.1.225-18.319,3.491-2.39,9.17-.991,11.475-.394,28.076,7.263,91.717,32.221,131.341,38.3,3.884.6,64.8,9.3,101.885-16.744.774-.543,12.563-8.846,27.945-20.316C-4550.937-2284.691-4541.823-2292.13-4525.41-2296.225Z" transform="translate(4915.02 2298.641)" fill="#e2a460"/>
        </g>
      </g>
      <g id="Group_909" data-name="Group 909" transform="translate(-4649.11 -2191.381)">
        <g id="Group_908" data-name="Group 908">
          <path id="Path_22146" data-name="Path 22146" d="M-4109.765-1921.549" transform="translate(4109.765 1921.549)" fill="none"/>
        </g>
      </g>
      <path id="Path_22147" data-name="Path 22147" d="M-3868.391-2213.873a14.048,14.048,0,0,1,.927,6.126,14.3,14.3,0,0,1-1.934,5.891,24.734,24.734,0,0,1-1.732,2.6c-.633.828-1.31,1.62-2.007,2.394-1.406,1.538-2.9,2.988-4.438,4.4-3.07,2.815-6.258,5.5-9.369,8.262s-6.165,5.6-9.05,8.6a87.854,87.854,0,0,0-14.733,20.042q-1.461,2.755-2.691,5.625c-.82,1.91-1.581,3.846-2.245,5.816a118.247,118.247,0,0,0-3.354,12.011,123.166,123.166,0,0,0-2.029,12.3,121.324,121.324,0,0,0-.73,12.448,130.975,130.975,0,0,0,2.176,24.814c.382,2.043.8,4.081,1.281,6.1s1,4.035,1.581,6.031,1.212,3.977,1.928,5.924c.346.978.767,1.921,1.177,2.879s.844,1.9,1.28,2.844c1.743,3.777,3.6,7.5,5.379,11.272a119.415,119.415,0,0,1,4.867,11.524,50.864,50.864,0,0,1,1.719,6.031,29.681,29.681,0,0,1,.7,6.245c.012.526-.042,1.052-.061,1.577-.042.525-.121,1.047-.18,1.571-.109.516-.192,1.038-.323,1.549l-.217.762-.108.381c-.042.125-.092.247-.138.372a13.41,13.41,0,0,1-.606,1.464l-.345.714c-.122.234-.268.456-.4.684a17.072,17.072,0,0,1-1.835,2.572,16.657,16.657,0,0,1-2.255,2.224,9.713,9.713,0,0,1-2.762,1.6,5.861,5.861,0,0,1-3.213.256,6.414,6.414,0,0,1-2.858-1.48,17.216,17.216,0,0,1-3.692-5.117c-.964-1.863-1.776-3.787-2.611-5.692-.417-.952-.839-1.9-1.295-2.828a18.194,18.194,0,0,0-1.543-2.655,6.162,6.162,0,0,0-1-1.1,2.577,2.577,0,0,0-1.25-.616,2.056,2.056,0,0,0-1.324.261,4.407,4.407,0,0,0-1.107.942,12.805,12.805,0,0,0-1.617,2.578c-.452.923-.848,1.878-1.214,2.846-.725,1.939-1.348,3.921-1.927,5.916-1.158,3.992-2.168,8.031-3.239,12.057s-2.168,8.053-3.6,11.987a33.808,33.808,0,0,1-2.613,5.726,10.935,10.935,0,0,1-2,2.5,5.024,5.024,0,0,1-1.408.874,3.262,3.262,0,0,1-1.676.2,3.9,3.9,0,0,1-.82-.191,3.911,3.911,0,0,1-.383-.16,2.98,2.98,0,0,1-.371-.181,6.429,6.429,0,0,1-.688-.439,6.469,6.469,0,0,1-.633-.5,14.93,14.93,0,0,1-2.129-2.365,33.668,33.668,0,0,1-3.166-5.44,64.873,64.873,0,0,1-4.142-11.828,62.258,62.258,0,0,1-1.868-12.392,55.015,55.015,0,0,1,.09-6.278,56.549,56.549,0,0,1,.832-6.223,55.653,55.653,0,0,1,1.548-6.084,55.385,55.385,0,0,1,2.207-5.876,69.6,69.6,0,0,1,14.126-20.581l.448.463c-4.187,3.823-8.459,7.558-12.92,11.069-2.231,1.753-4.5,3.457-6.853,5.058a67.708,67.708,0,0,1-7.308,4.4,34,34,0,0,1-3.92,1.731,19.425,19.425,0,0,1-4.18,1.063,9.353,9.353,0,0,1-4.347-.383,4.677,4.677,0,0,1-.511-.225,5.444,5.444,0,0,1-.5-.251,6.541,6.541,0,0,1-.911-.649,7.017,7.017,0,0,1-1.452-1.673,10.236,10.236,0,0,1-.96-1.971,16.167,16.167,0,0,1-.583-2.092,30.105,30.105,0,0,1-.493-4.267,26.425,26.425,0,0,1,.985-8.511,34.115,34.115,0,0,1,3.376-7.865,49.287,49.287,0,0,1,4.938-6.973,84.831,84.831,0,0,1,12.357-11.721c1.11-.884,2.235-1.748,3.354-2.614.557-.434,1.118-.867,1.643-1.317.13-.113.258-.227.374-.343.057-.058.112-.115.157-.17a.79.79,0,0,0,.052-.072c.013-.017.013-.037,0,.01-.026.043.057.231.139.239.049.021.052.01.034.014a.948.948,0,0,0-.18.047,4.177,4.177,0,0,0-.45.2c-1.222.63-2.412,1.419-3.6,2.182s-2.36,1.558-3.537,2.346c-4.7,3.155-9.41,6.317-14.224,9.315-2.407,1.5-4.84,2.96-7.315,4.349s-5,2.707-7.6,3.867c-1.3.578-2.623,1.115-3.977,1.573a21.978,21.978,0,0,1-4.182,1.021,10.016,10.016,0,0,1-2.189.056,5.22,5.22,0,0,1-2.148-.649,3.928,3.928,0,0,1-1.535-1.676,6.221,6.221,0,0,1-.576-2.149,15.918,15.918,0,0,1,.276-4.314c.257-1.41.6-2.789.969-4.162a30.8,30.8,0,0,1,1.382-4.057,28.866,28.866,0,0,1,1.928-3.83,34.5,34.5,0,0,1,2.417-3.537c.88-1.124,1.818-2.2,2.794-3.237a80.571,80.571,0,0,1,6.239-5.81c4.336-3.664,8.826-7.117,13.2-10.711s8.665-7.282,12.8-11.141q3.1-2.892,6.092-5.9c1.982-2.015,3.93-4.068,5.741-6.227.451-.541.892-1.089,1.309-1.651a11.037,11.037,0,0,0,1.106-1.737,1.594,1.594,0,0,0,.135-.414c.006-.054-.009-.083,0-.058s.04.021-.006.016a1.281,1.281,0,0,0-.4.09,4.632,4.632,0,0,0-.459.2,18.9,18.9,0,0,0-1.809,1.043c-2.368,1.524-4.659,3.2-6.965,4.836-4.6,3.3-9.223,6.589-13.982,9.676-2.38,1.542-4.793,3.037-7.261,4.44a79.139,79.139,0,0,1-7.6,3.85,32.9,32.9,0,0,1-8.166,2.5,12.853,12.853,0,0,1-4.314-.047,7.235,7.235,0,0,1-3.826-2.03,9.177,9.177,0,0,1-2.1-3.78,16.687,16.687,0,0,1-.648-4.25,18.233,18.233,0,0,1,1.606-8.375,19.534,19.534,0,0,1,2.272-3.643,27.32,27.32,0,0,1,2.967-3.09,49.5,49.5,0,0,1,6.93-4.966c2.421-1.484,4.905-2.852,7.385-4.219s4.963-2.727,7.41-4.146a103.053,103.053,0,0,0,14.017-9.514,86.568,86.568,0,0,0,11.952-11.988,88.239,88.239,0,0,0,9.457-14.046,67.921,67.921,0,0,0,3.565-7.684c.507-1.318.964-2.655,1.343-4.013a24.165,24.165,0,0,0,.817-4.136,9.7,9.7,0,0,0,0-2.089,2.8,2.8,0,0,0-.78-1.811,1.9,1.9,0,0,0-.9-.37,4.8,4.8,0,0,0-.509-.046c-.173.007-.345,0-.517.019a10.337,10.337,0,0,0-2.053.41,28.2,28.2,0,0,0-3.935,1.533c-1.28.6-2.531,1.256-3.763,1.949a121.511,121.511,0,0,0-14.051,9.5c-4.48,3.46-8.789,7.142-12.943,10.99s-8.149,7.868-11.976,12.042a190.974,190.974,0,0,0-20.7,26.895,191.033,191.033,0,0,1,20.626-26.959q5.725-6.28,11.948-12.083c4.145-3.863,8.448-7.559,12.923-11.036a121.723,121.723,0,0,1,14.051-9.56c1.234-.7,2.489-1.364,3.774-1.968a28.454,28.454,0,0,1,3.969-1.559,10.528,10.528,0,0,1,2.1-.425c.179-.017.363-.014.543-.021a5.038,5.038,0,0,1,.548.048,2.172,2.172,0,0,1,1.036.426,2.233,2.233,0,0,1,.63.926,4.4,4.4,0,0,1,.254,1.063,9.981,9.981,0,0,1,.009,2.151,24.5,24.5,0,0,1-.814,4.19c-.379,1.371-.834,2.718-1.341,4.045a68.153,68.153,0,0,1-3.56,7.731,88.337,88.337,0,0,1-9.47,14.119,86.987,86.987,0,0,1-11.985,12.06,103.433,103.433,0,0,1-14.056,9.573c-2.45,1.426-4.934,2.793-7.412,4.162s-4.955,2.741-7.361,4.221a49.044,49.044,0,0,0-6.858,4.929,26.863,26.863,0,0,0-2.906,3.037,19.046,19.046,0,0,0-2.208,3.552,17.748,17.748,0,0,0-1.549,8.158,16.237,16.237,0,0,0,.634,4.125,8.688,8.688,0,0,0,1.989,3.573,6.722,6.722,0,0,0,3.568,1.882,12.357,12.357,0,0,0,4.141.035,32.409,32.409,0,0,0,8.028-2.48,78.674,78.674,0,0,0,7.544-3.835c2.454-1.4,4.856-2.894,7.227-4.435,4.742-3.084,9.346-6.379,13.948-9.68,2.308-1.644,4.594-3.315,6.989-4.858a19.4,19.4,0,0,1,1.869-1.077,5.147,5.147,0,0,1,.517-.22,1.751,1.751,0,0,1,.63-.123.584.584,0,0,1,.455.235.675.675,0,0,1,.1.453,2.078,2.078,0,0,1-.184.594,11.466,11.466,0,0,1-1.168,1.844c-.427.575-.873,1.131-1.329,1.678-1.828,2.182-3.782,4.243-5.771,6.266s-4.033,3.991-6.106,5.925c-4.146,3.871-8.438,7.582-12.825,11.173s-8.868,7.06-13.184,10.711a79.837,79.837,0,0,0-6.188,5.768c-.964,1.025-1.888,2.086-2.754,3.193a33.945,33.945,0,0,0-2.371,3.474,28.279,28.279,0,0,0-1.886,3.754,30.15,30.15,0,0,0-1.353,3.979c-.366,1.36-.705,2.734-.955,4.111a15.32,15.32,0,0,0-.267,4.138,5.6,5.6,0,0,0,.515,1.932,3.289,3.289,0,0,0,1.29,1.412,4.61,4.61,0,0,0,1.888.563,9.381,9.381,0,0,0,2.049-.056,21.36,21.36,0,0,0,4.057-.995c1.329-.45,2.634-.98,3.92-1.553,2.573-1.15,5.076-2.463,7.54-3.845s4.888-2.841,7.288-4.338c4.8-2.993,9.5-6.152,14.2-9.31,1.177-.788,2.354-1.576,3.542-2.352s2.369-1.553,3.665-2.223a4.895,4.895,0,0,1,.523-.228,1.527,1.527,0,0,1,.335-.082.613.613,0,0,1,.3.037.44.44,0,0,1,.254.454.628.628,0,0,1-.1.253,1.472,1.472,0,0,1-.1.143c-.068.082-.135.153-.2.22-.135.135-.271.256-.409.375-.549.472-1.11.9-1.67,1.341-1.12.869-2.24,1.73-3.346,2.611a84.208,84.208,0,0,0-12.254,11.633,48.658,48.658,0,0,0-4.867,6.879,33.615,33.615,0,0,0-3.312,7.708,25.739,25.739,0,0,0-.965,8.294,29.422,29.422,0,0,0,.478,4.166,15.469,15.469,0,0,0,.554,2,9.552,9.552,0,0,0,.895,1.84,6.343,6.343,0,0,0,1.318,1.521,5.868,5.868,0,0,0,.816.583,4.724,4.724,0,0,0,.449.225,4.08,4.08,0,0,0,.459.2,8.7,8.7,0,0,0,4.032.348,18.784,18.784,0,0,0,4.034-1.026,33.4,33.4,0,0,0,3.847-1.7,67,67,0,0,0,7.238-4.357c2.333-1.589,4.6-3.283,6.819-5.028,4.444-3.494,8.708-7.218,12.889-11.031l.447.463a68.955,68.955,0,0,0-14.007,20.384,54.585,54.585,0,0,0-2.187,5.811,55.038,55.038,0,0,0-1.534,6.014,56.019,56.019,0,0,0-.826,6.15,54.583,54.583,0,0,0-.092,6.205,61.639,61.639,0,0,0,1.843,12.271,64.324,64.324,0,0,0,4.1,11.717,33.042,33.042,0,0,0,3.1,5.342,14.36,14.36,0,0,0,2.039,2.269,5.021,5.021,0,0,0,2.577,1.332,2.653,2.653,0,0,0,1.388-.166,4.417,4.417,0,0,0,1.23-.766,10.364,10.364,0,0,0,1.882-2.361,33.182,33.182,0,0,0,2.566-5.621c1.418-3.9,2.511-7.915,3.586-11.933s2.084-8.062,3.249-12.069c.583-2,1.209-4,1.945-5.957.373-.979.775-1.949,1.241-2.895a13.3,13.3,0,0,1,1.7-2.7,4.95,4.95,0,0,1,1.263-1.064,2.622,2.622,0,0,1,1.682-.322,3.132,3.132,0,0,1,1.519.741,6.662,6.662,0,0,1,1.092,1.2,18.668,18.668,0,0,1,1.589,2.74c.461.942.884,1.9,1.3,2.853.833,1.91,1.639,3.826,2.587,5.664a16.723,16.723,0,0,0,3.559,4.964,5.888,5.888,0,0,0,2.623,1.37,5.336,5.336,0,0,0,2.933-.233,9.209,9.209,0,0,0,2.616-1.515,16.126,16.126,0,0,0,2.188-2.152,16.56,16.56,0,0,0,1.791-2.5c.129-.221.271-.435.389-.662l.335-.691a12.982,12.982,0,0,0,.59-1.418c.044-.12.094-.238.134-.36l.106-.37.212-.739c.129-.5.209-1,.317-1.506.058-.51.136-1.019.178-1.531.018-.514.073-1.027.061-1.542a29.161,29.161,0,0,0-.684-6.144,50.277,50.277,0,0,0-1.693-5.977,118.945,118.945,0,0,0-4.831-11.487c-1.769-3.766-3.623-7.5-5.363-11.284-.436-.947-.86-1.9-1.279-2.854s-.833-1.917-1.181-2.9c-.719-1.961-1.346-3.952-1.928-5.954s-1.108-4.021-1.577-6.053-.9-4.073-1.276-6.123a131.376,131.376,0,0,1-2.142-24.887,119.966,119.966,0,0,1,.763-12.479,123.634,123.634,0,0,1,2.068-12.329,118.5,118.5,0,0,1,3.4-12.03c.672-1.974,1.44-3.914,2.268-5.827s1.733-3.794,2.715-5.633A88.02,88.02,0,0,1-3896.1-2175.7c2.9-2.995,5.957-5.827,9.082-8.58s6.315-5.43,9.391-8.235c1.538-1.4,3.039-2.847,4.447-4.379.7-.771,1.376-1.561,2.011-2.385a24.665,24.665,0,0,0,1.737-2.589,14.266,14.266,0,0,0,1.947-5.875A14.038,14.038,0,0,0-3868.391-2213.873Z" transform="translate(-601.347 -77.276)" fill="#2b2b2b"/>
      <path id="Path_22148" data-name="Path 22148" d="M-4477.312-2173.455a1.591,1.591,0,0,0-.765-.65,5.3,5.3,0,0,0-.964-.337,13.565,13.565,0,0,0-2.017-.332,34.719,34.719,0,0,0-4.088-.117,72.774,72.774,0,0,0-8.15.707,94.385,94.385,0,0,0-15.935,3.644c-1.3.425-2.582.876-3.852,1.371s-2.553.979-3.843,1.425-2.57.91-3.825,1.438-2.489,1.105-3.7,1.722c-2.44,1.218-4.784,2.606-7.176,3.934-1.2.65-2.416,1.288-3.669,1.844-.618.3-1.26.539-1.889.81-.643.237-1.279.495-1.931.706a32.453,32.453,0,0,1-8.045,1.655,27.866,27.866,0,0,1-8.192-.64,32.387,32.387,0,0,1-7.715-2.842,20.141,20.141,0,0,1-3.458-2.265,10.754,10.754,0,0,1-1.479-1.475,5.813,5.813,0,0,1-1.04-1.849,3.47,3.47,0,0,1-.015-2.154,5.238,5.238,0,0,1,1.089-1.832,13.56,13.56,0,0,1,3.282-2.548,44.353,44.353,0,0,1,7.527-3.319,145.833,145.833,0,0,1,15.819-4.325c.664-.153,1.334-.3,1.984-.466l.234-.066c.035-.01.075-.024.092-.031.012.1.014-.251-.11.323.317.337.165.114.2.18a4.594,4.594,0,0,0-.463.039c-.333.04-.67.087-1.006.136-1.346.2-2.693.419-4.04.638l-8.082,1.326q-8.083,1.322-16.18,2.564t-16.218,2.33q-4.06.543-8.126,1.039c-2.711.327-5.427.65-8.158.86a57.39,57.39,0,0,1-8.228.129,27.77,27.77,0,0,1-4.1-.558,19.99,19.99,0,0,1-2.009-.545,15.65,15.65,0,0,1-1.934-.8,10.949,10.949,0,0,1-3.351-2.524,10.623,10.623,0,0,1-2.1-3.638,7.689,7.689,0,0,1-.241-4.22,7.223,7.223,0,0,1,2.255-3.577,14.859,14.859,0,0,1,3.5-2.283,28.824,28.824,0,0,1,3.86-1.5,55.845,55.845,0,0,1,8.035-1.794c2.709-.418,5.436-.7,8.166-.893s5.465-.3,8.209-.283l-.01.651c-4.192-.076-8.4.106-12.6.345s-8.392.593-12.579,1-8.368.888-12.544,1.4-8.345,1.13-12.567,1.423a32.782,32.782,0,0,1-6.362-.1c-.264-.038-.53-.063-.793-.113l-.787-.165-.393-.083c-.13-.033-.258-.076-.387-.113l-.771-.232c-.257-.078-.5-.2-.752-.292a7,7,0,0,1-.74-.323,11.816,11.816,0,0,1-1.4-.8,12.741,12.741,0,0,1-2.47-2.062,14.786,14.786,0,0,1-1.946-2.559,10.924,10.924,0,0,1-1.257-2.977,6.141,6.141,0,0,1,.006-3.265,5.48,5.48,0,0,1,1.856-2.692,11.106,11.106,0,0,1,2.8-1.6,28.027,28.027,0,0,1,6.167-1.57,97.661,97.661,0,0,1,12.627-.852c2.1-.044,4.213-.046,6.305-.147.522-.028,1.044-.064,1.555-.131a5.616,5.616,0,0,0,.741-.144,1.143,1.143,0,0,0,.3-.125.217.217,0,0,0,.056-.049c-.009,0,.008.013,0,0a.577.577,0,0,0-.2-.156,2.436,2.436,0,0,0-.333-.142c-.235-.083-.484-.151-.735-.213-.5-.122-1.018-.218-1.533-.308-2.067-.349-4.158-.6-6.244-.881s-4.176-.548-6.261-.85c-4.169-.6-8.329-1.3-12.447-2.213a85.267,85.267,0,0,1-12.137-3.544,48.124,48.124,0,0,1-5.754-2.636,29.312,29.312,0,0,1-5.223-3.576,17.851,17.851,0,0,1-4.011-4.88,17.928,17.928,0,0,1-1.944-6,18.146,18.146,0,0,1-.18-3.16,15.17,15.17,0,0,1,.405-3.138,11.086,11.086,0,0,1,1.139-2.949,7.525,7.525,0,0,1,2.077-2.369,7.071,7.071,0,0,1,2.9-1.22,11.976,11.976,0,0,1,3.152-.135,25.35,25.35,0,0,1,6.144,1.4,25.316,25.316,0,0,0-6.146-1.365,11.932,11.932,0,0,0-3.139.152,7.007,7.007,0,0,0-2.867,1.225,7.446,7.446,0,0,0-2.041,2.355,10.98,10.98,0,0,0-1.111,2.929,15.047,15.047,0,0,0-.385,3.116,18.019,18.019,0,0,0,.2,3.136,17.762,17.762,0,0,0,1.959,5.938,17.658,17.658,0,0,0,4,4.8,29.069,29.069,0,0,0,5.2,3.517,47.89,47.89,0,0,0,5.736,2.588,86.839,86.839,0,0,0,12.109,3.47c4.109.894,8.261,1.58,12.427,2.168,2.083.295,4.17.564,6.258.829s4.179.518,6.265.863c.522.09,1.043.185,1.563.309a7.993,7.993,0,0,1,.781.224,2.807,2.807,0,0,1,.393.167.907.907,0,0,1,.392.345.448.448,0,0,1,.013.382.657.657,0,0,1-.1.145.676.676,0,0,1-.11.091,1.546,1.546,0,0,1-.424.189,6,6,0,0,1-.808.161c-.533.071-1.062.109-1.59.139-2.113.109-4.217.118-6.321.169a97.257,97.257,0,0,0-12.557.887,27.518,27.518,0,0,0-6.042,1.557,10.579,10.579,0,0,0-2.658,1.526,4.928,4.928,0,0,0-1.669,2.428,5.587,5.587,0,0,0,.011,2.973,10.47,10.47,0,0,0,1.2,2.814,14.226,14.226,0,0,0,1.873,2.456,12.186,12.186,0,0,0,2.368,1.973,11.325,11.325,0,0,0,1.336.765,6.676,6.676,0,0,0,.707.307c.24.091.472.2.719.279l.741.221c.124.036.246.077.371.108l.38.079.759.158c.254.048.513.071.77.108a32.193,32.193,0,0,0,6.246.09c4.181-.294,8.35-.917,12.529-1.433s8.367-1,12.56-1.418,8.394-.765,12.6-1.017,8.421-.432,12.65-.36l-.01.651c-2.716-.01-5.442.1-8.156.29s-5.424.478-8.11.9a55.237,55.237,0,0,0-7.935,1.78,28.117,28.117,0,0,0-3.767,1.464,14.285,14.285,0,0,0-3.34,2.17,6.544,6.544,0,0,0-2.058,3.239,7.021,7.021,0,0,0,.223,3.847,9.967,9.967,0,0,0,1.965,3.406,10.3,10.3,0,0,0,3.148,2.373,15.017,15.017,0,0,0,1.847.765,19.352,19.352,0,0,0,1.94.528,27.1,27.1,0,0,0,4.005.549,56.79,56.79,0,0,0,8.134-.12c2.713-.206,5.421-.524,8.13-.848s5.416-.67,8.121-1.029q8.115-1.078,16.209-2.311t16.177-2.546l8.083-1.318c1.348-.218,2.7-.436,4.05-.635.339-.049.678-.1,1.023-.137a4.524,4.524,0,0,1,.556-.041c.075.072-.026-.158.32.21-.138.614-.187.276-.21.394-.062.026-.1.038-.149.052l-.258.072c-.673.171-1.337.313-2,.465a145.337,145.337,0,0,0-15.775,4.257,43.893,43.893,0,0,0-7.449,3.254,13.088,13.088,0,0,0-3.17,2.441,4.76,4.76,0,0,0-1,1.657,2.99,2.99,0,0,0,.009,1.872,7.249,7.249,0,0,0,2.365,3.116,19.706,19.706,0,0,0,3.374,2.224,31.956,31.956,0,0,0,7.6,2.828,27.467,27.467,0,0,0,8.073.657,32.085,32.085,0,0,0,7.957-1.611,46.839,46.839,0,0,0,7.448-3.306c2.388-1.307,4.754-2.69,7.208-3.9,1.223-.612,2.465-1.187,3.73-1.708s2.556-.978,3.847-1.421,2.571-.9,3.844-1.4,2.569-.934,3.87-1.353a94.446,94.446,0,0,1,15.979-3.558,72.845,72.845,0,0,1,8.162-.66,34.7,34.7,0,0,1,4.092.14,13.608,13.608,0,0,1,2.018.344,5.291,5.291,0,0,1,.963.343A1.6,1.6,0,0,1-4477.312-2173.455Z" transform="translate(-162.329 -55.794)" fill="#2b2b2b"/>
      <path id="Path_22149" data-name="Path 22149" d="M-4685.419-1967.413a110.773,110.773,0,0,0,12.551-2.578c2.063-.557,4.107-1.178,6.112-1.912,1-.369,1.993-.764,2.961-1.209a18.308,18.308,0,0,0,2.787-1.544,5.993,5.993,0,0,0,1.177-1.043,1.535,1.535,0,0,0,.423-1.38,1.808,1.808,0,0,0-1.129-.935,9.31,9.31,0,0,0-1.521-.431,62,62,0,0,0-6.349-.76c-4.258-.354-8.523-.7-12.77-1.218a142.384,142.384,0,0,1-25.1-5.257,133.8,133.8,0,0,1-23.626-9.992,98.7,98.7,0,0,1-10.926-6.764,51.478,51.478,0,0,1-4.988-4.079,23.274,23.274,0,0,1-4.154-4.965,9.8,9.8,0,0,1-1.216-3.058,5.809,5.809,0,0,1,.3-3.316,7.353,7.353,0,0,1,1.975-2.66,14.227,14.227,0,0,1,2.7-1.843,30.849,30.849,0,0,1,6.022-2.349c2.067-.6,4.172-1.045,6.277-1.431a55.857,55.857,0,0,1,12.835-.9,63.249,63.249,0,0,1,12.712,1.98c8.33,2.134,16.21,5.573,24.131,8.75,3.96,1.6,7.938,3.149,11.98,4.511a115.308,115.308,0,0,0,12.3,3.453,94.06,94.06,0,0,0,12.629,1.885,63.028,63.028,0,0,0,12.739-.154l.794-.086.791-.109c.527-.075,1.055-.14,1.581-.223,1.051-.175,2.1-.335,3.15-.542,2.1-.381,4.18-.845,6.261-1.313,4.159-.961,8.3-2.03,12.432-3.107s8.274-2.145,12.381-3.311,8.195-2.409,12.254-3.734q12.179-3.978,24.031-8.884,5.916-2.459,11.716-5.185c3.86-1.827,7.675-3.752,11.388-5.858,1.854-1.055,3.685-2.154,5.446-3.354.879-.6,1.742-1.227,2.559-1.906a15.636,15.636,0,0,0,1.174-1.07,5.922,5.922,0,0,0,.965-1.23,1.658,1.658,0,0,0,.225-.7.771.771,0,0,0-.274-.616,3.328,3.328,0,0,0-1.4-.612,16.043,16.043,0,0,0-3.16-.333,48.866,48.866,0,0,0-6.384.35,90.256,90.256,0,0,0-12.576,2.4,82.683,82.683,0,0,0-12.111,4.162,82.694,82.694,0,0,1,12.09-4.243,90.349,90.349,0,0,1,12.578-2.483,49.013,49.013,0,0,1,6.407-.393,16.24,16.24,0,0,1,3.208.319,3.512,3.512,0,0,1,1.509.658,1.017,1.017,0,0,1,.357.8,1.885,1.885,0,0,1-.249.814,6.144,6.144,0,0,1-1,1.292,16.06,16.06,0,0,1-1.186,1.1c-.823.693-1.688,1.328-2.568,1.939-1.763,1.219-3.593,2.333-5.446,3.4-3.712,2.133-7.529,4.07-11.388,5.916s-7.771,3.579-11.714,5.236q-11.832,4.964-24.033,8.984-6.092,2.013-12.262,3.785c-4.113,1.182-8.257,2.237-12.388,3.333s-8.275,2.157-12.444,3.126c-2.087.472-4.177.94-6.285,1.326-1.051.209-2.111.372-3.168.549-.53.084-1.062.151-1.593.226l-.8.111-.8.088a63.655,63.655,0,0,1-12.859.172,94.651,94.651,0,0,1-12.717-1.883,116,116,0,0,1-12.378-3.457c-4.062-1.363-8.054-2.914-12.022-4.51-7.928-3.188-15.78-6.625-24.038-8.75a62.622,62.622,0,0,0-12.581-1.976,55.208,55.208,0,0,0-12.691.872c-2.1.383-4.18.824-6.222,1.41a30.254,30.254,0,0,0-5.9,2.293,13.626,13.626,0,0,0-2.586,1.759,6.751,6.751,0,0,0-1.821,2.438,5.208,5.208,0,0,0-.268,2.978,9.23,9.23,0,0,0,1.142,2.87,22.7,22.7,0,0,0,4.044,4.839,51.032,51.032,0,0,0,4.927,4.039,98.183,98.183,0,0,0,10.839,6.764,133.281,133.281,0,0,0,23.5,10.041,141.983,141.983,0,0,0,25.013,5.332c4.236.545,8.492.916,12.75,1.3a62.16,62.16,0,0,1,6.371.8,9.48,9.48,0,0,1,1.556.452,3.4,3.4,0,0,1,.726.394,1.384,1.384,0,0,1,.516.676,1.347,1.347,0,0,1-.041.85,2.447,2.447,0,0,1-.428.712,6.158,6.158,0,0,1-1.222,1.069,18.515,18.515,0,0,1-2.824,1.54c-.977.441-1.975.831-2.981,1.193-2.015.721-4.067,1.329-6.135,1.872A110.794,110.794,0,0,1-4685.419-1967.413Z" transform="translate(-116.761 -185.882)" fill="#2b2b2b"/>
      <path id="Path_22150" data-name="Path 22150" d="M-4431.827-1930.774c-5.224,3.259-10.531,6.382-15.823,9.529s-10.579,6.3-15.837,9.5c-10.527,6.383-20.942,12.953-31.356,19.52-5.2,3.3-10.387,6.609-15.5,10.024-2.553,1.714-5.092,3.452-7.566,5.271a68.027,68.027,0,0,0-7.094,5.832,17.859,17.859,0,0,0-2.881,3.488l-2.346,3.975c-1.57,2.646-3.1,5.316-4.646,7.977q-4.6,8-9.042,16.1t-8.706,16.28c-1.414,2.732-2.811,5.474-4.169,8.232-.342.688-.664,1.381-1.017,2.078a22.807,22.807,0,0,1-1.161,2.032,10.438,10.438,0,0,1-3.292,3.383,5.121,5.121,0,0,1-4.7.3,11.4,11.4,0,0,1-3.791-2.8,25.7,25.7,0,0,1-2.851-3.694c-.421-.655-.82-1.316-1.187-2.013l-.505-1.055c-.172-.35-.3-.719-.453-1.078a25.022,25.022,0,0,1-1.687-9.132,36.467,36.467,0,0,1,1.212-9.2,57.24,57.24,0,0,1,3.063-8.745c1.237-2.832,2.659-5.57,4.135-8.278.749-1.35,1.535-2.677,2.333-3.994s1.611-2.625,2.345-3.967a10.324,10.324,0,0,0,.906-2.068,1.511,1.511,0,0,0,0-1,.922.922,0,0,0-.814-.428,6,6,0,0,0-2.17.469c-.714.263-1.413.578-2.1.907-2.764,1.333-5.433,2.876-8.134,4.351l-8.078,4.475c-2.688,1.5-5.371,3.008-8.028,4.562a74.11,74.11,0,0,0-7.739,5.024,74.278,74.278,0,0,1,7.7-5.1c2.644-1.579,5.314-3.111,7.989-4.636l8.038-4.548c2.688-1.5,5.34-3.065,8.111-4.433.694-.339,1.4-.66,2.128-.933a6.283,6.283,0,0,1,2.314-.5,1.592,1.592,0,0,1,.626.151,1.1,1.1,0,0,1,.492.472,1.841,1.841,0,0,1,.032,1.26,10.664,10.664,0,0,1-.929,2.157c-.736,1.364-1.547,2.673-2.334,3.995s-1.566,2.646-2.3,3.992c-1.456,2.7-2.861,5.443-4.074,8.26a56.708,56.708,0,0,0-2.992,8.682,35.925,35.925,0,0,0-1.149,9.067,26.175,26.175,0,0,0,.416,4.543,23.813,23.813,0,0,0,1.249,4.377c.149.349.274.709.443,1.049l.494,1.027c.352.664.75,1.322,1.162,1.961a25,25,0,0,0,2.789,3.6,10.816,10.816,0,0,0,3.582,2.648,4.571,4.571,0,0,0,2.117.375,4.091,4.091,0,0,0,.533-.06l.523-.129a5.627,5.627,0,0,0,.985-.455,9.837,9.837,0,0,0,3.076-3.189,22.3,22.3,0,0,0,1.125-1.977c.341-.677.667-1.381,1.009-2.071q2.036-4.151,4.162-8.252,4.238-8.21,8.688-16.308t9.076-16.094c1.55-2.661,3.087-5.33,4.663-7.975l2.354-3.974a18.464,18.464,0,0,1,2.987-3.609,68.543,68.543,0,0,1,7.17-5.877c2.489-1.824,5.036-3.56,7.6-5.273,5.126-3.419,10.333-6.709,15.552-9.977,10.451-6.514,20.9-13.036,31.464-19.362q7.932-4.733,15.924-9.361C-4442.414-1924.488-4437.08-1927.562-4431.827-1930.774Z" transform="translate(-216.085 -263.756)" fill="#2b2b2b"/>
      <path id="Path_22151" data-name="Path 22151" d="M-4818.737-1771.015a73.244,73.244,0,0,0-5.289,5.2,63.454,63.454,0,0,0-4.641,5.786,73.67,73.67,0,0,0-7.166,12.966c-1.02,2.255-1.977,4.539-3.076,6.762-.543,1.115-1.147,2.2-1.8,3.26a21.8,21.8,0,0,1-2.26,2.968,16.156,16.156,0,0,1-2.877,2.384,16.034,16.034,0,0,1-1.651.883c-.286.124-.561.276-.856.377l-.88.319a9.171,9.171,0,0,1-.895.27c-.3.081-.6.17-.9.244-.61.128-1.219.26-1.837.341a24.612,24.612,0,0,1-3.722.275c-.623.017-1.245-.029-1.867-.055-.62-.059-1.243-.1-1.858-.205-.619-.075-1.228-.216-1.839-.338-.6-.158-1.211-.3-1.8-.516a14.181,14.181,0,0,1-3.383-1.616,10.36,10.36,0,0,1-1.463-1.195,7.5,7.5,0,0,1-1.192-1.471,8.839,8.839,0,0,1-1.248-3.553,13,13,0,0,1-.1-1.883,16.422,16.422,0,0,1,.168-1.872,28.193,28.193,0,0,1,2.219-7.122,55.26,55.26,0,0,1,3.453-6.6,47.738,47.738,0,0,1,4.443-5.985,60.552,60.552,0,0,1,11.124-9.875c1.019-.711,2.056-1.394,3.1-2.059.519-.333,1.059-.66,1.545-1a1.558,1.558,0,0,0,.15-.12c.071.034-.1-.155.048.3.208.114.084.033.093.06a2.963,2.963,0,0,0-.4.089c-.288.081-.579.177-.868.277-2.313.823-4.576,1.832-6.813,2.872-4.473,2.1-8.839,4.423-13.108,6.914s-8.436,5.156-12.495,7.975q-3.044,2.116-6,4.35c-1.969,1.489-3.907,3.037-5.943,4.468a44.1,44.1,0,0,1-6.426,3.807,34.029,34.029,0,0,1-7.065,2.453,43.118,43.118,0,0,1-7.406.995,33.357,33.357,0,0,1-7.473-.395,17.91,17.91,0,0,1-3.63-1.031,10.809,10.809,0,0,1-3.241-2,8.014,8.014,0,0,1-2.149-3.171,9.608,9.608,0,0,1-.532-3.782,15.327,15.327,0,0,1,.672-3.725,23.331,23.331,0,0,1,1.384-3.5,23.622,23.622,0,0,1,1.89-3.246c.177-.259.344-.526.53-.779l.588-.736.589-.735.648-.683a27.661,27.661,0,0,1,5.885-4.636,46.537,46.537,0,0,1,6.712-3.277q3.46-1.391,7.007-2.522c2.358-.768,4.729-1.49,7.1-2.2l28.474-8.452c4.739-1.426,9.481-2.848,14.165-4.424,1.17-.4,2.335-.805,3.486-1.244a28.172,28.172,0,0,0,3.355-1.478,6.2,6.2,0,0,0,.744-.475c.222-.163.434-.393.445-.52a.062.062,0,0,0,0-.038c0-.011-.005-.022-.013-.033s-.035-.051-.06-.082a1.487,1.487,0,0,0-.13-.091l-.174-.08a4.587,4.587,0,0,0-.838-.2,27.124,27.124,0,0,0-3.66-.179c-2.466.006-4.942.095-7.418.143s-4.956.081-7.436.037a74.807,74.807,0,0,1-14.805-1.5,30.04,30.04,0,0,1-7.058-2.448,14.756,14.756,0,0,1-5.7-4.825,13.721,13.721,0,0,1-2.293-7.1,14.034,14.034,0,0,1,.372-3.745,10.643,10.643,0,0,1,1.512-3.451,8.6,8.6,0,0,1,2.723-2.613,8.409,8.409,0,0,1,.847-.437,8.978,8.978,0,0,1,.9-.319,9.953,9.953,0,0,1,1.859-.359,18.448,18.448,0,0,1,3.747.094c1.238.142,2.462.359,3.679.6,2.434.482,4.842,1.057,7.256,1.6s4.83,1.074,7.256,1.554c4.852.959,9.74,1.75,14.659,2.267s9.865.788,14.812.854a153.4,153.4,0,0,0,29.553-2.357,153.519,153.519,0,0,1-29.555,2.525q-7.429-.057-14.835-.772c-4.932-.49-9.832-1.255-14.7-2.188-2.433-.467-4.854-.992-7.271-1.53s-4.827-1.1-7.251-1.574c-1.212-.234-2.428-.445-3.65-.581a18.066,18.066,0,0,0-3.663-.083,9.518,9.518,0,0,0-1.779.35,8.571,8.571,0,0,0-.851.305,7.957,7.957,0,0,0-.8.416,8.164,8.164,0,0,0-2.578,2.492,10.219,10.219,0,0,0-1.441,3.317,13.645,13.645,0,0,0-.347,3.62,13.262,13.262,0,0,0,2.235,6.846,14.262,14.262,0,0,0,5.528,4.647,29.524,29.524,0,0,0,6.944,2.382,74.326,74.326,0,0,0,14.7,1.444c2.47.036,4.941.008,7.414-.047s4.946-.142,7.43-.151a27.507,27.507,0,0,1,3.751.182,5.132,5.132,0,0,1,.962.235c.083.034.166.075.248.114a1.753,1.753,0,0,1,.247.176.775.775,0,0,1,.256.672,1.119,1.119,0,0,1-.285.559,2.728,2.728,0,0,1-.385.351,6.82,6.82,0,0,1-.818.525,28.717,28.717,0,0,1-3.432,1.518c-1.161.444-2.332.856-3.505,1.255-4.7,1.587-9.441,3.015-14.181,4.446l-28.466,8.482c-2.37.711-4.734,1.435-7.083,2.2s-4.676,1.592-6.96,2.513a45.918,45.918,0,0,0-6.616,3.237,27.1,27.1,0,0,0-5.737,4.526l-.631.662-.572.713-.572.713c-.181.245-.342.5-.514.756a22.9,22.9,0,0,0-1.845,3.162,18.348,18.348,0,0,0-2,6.959,8.942,8.942,0,0,0,.488,3.522,7.345,7.345,0,0,0,1.973,2.915,10.151,10.151,0,0,0,3.044,1.879,17.265,17.265,0,0,0,3.5,1,32.721,32.721,0,0,0,7.325.393,42.5,42.5,0,0,0,7.295-.972,33.384,33.384,0,0,0,6.938-2.4,43.453,43.453,0,0,0,6.338-3.747c2.017-1.413,3.951-2.955,5.931-4.449s3.99-2.945,6.026-4.358q6.114-4.236,12.543-7.988c4.286-2.492,8.666-4.827,13.164-6.921,2.254-1.038,4.522-2.042,6.876-2.872.3-.1.593-.2.9-.285a3.269,3.269,0,0,1,.5-.106c.083.024.045-.072.319.083.208.52-.066.4-.038.486a1.927,1.927,0,0,1-.212.17c-.529.367-1.052.679-1.575,1.013-1.044.659-2.077,1.334-3.09,2.036a60.038,60.038,0,0,0-11.063,9.759,47.142,47.142,0,0,0-4.419,5.913,54.925,54.925,0,0,0-3.444,6.537,27.814,27.814,0,0,0-2.21,7.007,16,16,0,0,0-.169,1.823,12.525,12.525,0,0,0,.087,1.821,8.441,8.441,0,0,0,1.182,3.4,7.1,7.1,0,0,0,1.134,1.407,9.994,9.994,0,0,0,1.4,1.154,13.84,13.84,0,0,0,3.292,1.583c.576.209,1.172.354,1.765.512.6.121,1.2.262,1.81.338.606.1,1.219.148,1.831.208.614.027,1.228.077,1.843.064a24.316,24.316,0,0,0,3.677-.252c.61-.077,1.212-.2,1.814-.326.3-.071.594-.157.891-.235a9.054,9.054,0,0,0,.883-.261l.867-.309c.292-.1.562-.245.844-.365a15.9,15.9,0,0,0,1.625-.858,15.946,15.946,0,0,0,2.839-2.326,21.558,21.558,0,0,0,2.248-2.92c.65-1.047,1.257-2.122,1.8-3.23,1.107-2.209,2.079-4.487,3.111-6.738a73.79,73.79,0,0,1,7.249-12.946,63.63,63.63,0,0,1,4.678-5.766A73.307,73.307,0,0,1-4818.737-1771.015Z" transform="translate(0 -336.545)" fill="#2b2b2b"/>
      <path id="Path_22152" data-name="Path 22152" d="M-4210.39-1981.883a187.662,187.662,0,0,0-16.243,31.029l-.845,2.023c-.277.676-.521,1.365-.784,2.046l-1.55,4.1c-.5,1.371-.954,2.762-1.434,4.142l-.709,2.074c-.243.689-.438,1.394-.66,2.09l-1.293,4.188-1.18,4.221c-.407,1.4-.752,2.823-1.107,4.24s-.723,2.831-1.031,4.259q-1.987,8.537-3.305,17.209-1.347,8.662-2.1,17.4c-.5,5.821-.819,11.658-1.044,17.5s-.353,11.686-.555,17.532a157.5,157.5,0,0,1-1.336,17.514,39.3,39.3,0,0,1-2.171,8.546,18.208,18.208,0,0,1-2.1,3.918c-.208.31-.455.591-.685.886-.253.275-.49.565-.765.82a11.259,11.259,0,0,1-1.738,1.422,11.613,11.613,0,0,1-1.979,1.061,13.806,13.806,0,0,1-2.135.68,19.175,19.175,0,0,1-4.425.445,18.01,18.01,0,0,1-4.408-.6,11.1,11.1,0,0,1-4.027-1.953,8.392,8.392,0,0,1-2.625-3.642,13.535,13.535,0,0,1-.809-4.392,25.119,25.119,0,0,1,.282-4.425,43.785,43.785,0,0,1,.867-4.328c.711-2.853,1.634-5.641,2.578-8.409.466-1.384.955-2.765,1.346-4.153.1-.347.185-.7.248-1.039a5.021,5.021,0,0,0,.067-.506,1.233,1.233,0,0,0-.03-.414c-.018-.042-.025-.057-.026-.049s-.005,0-.036,0a.92.92,0,0,0-.335.2,5.361,5.361,0,0,0-.706.751c-.885,1.121-1.663,2.366-2.451,3.591l-2.356,3.7a60.463,60.463,0,0,1-5.2,7.111,17.369,17.369,0,0,1-3.306,2.992,7.119,7.119,0,0,1-2.075.967,4.185,4.185,0,0,1-2.345-.042,5.668,5.668,0,0,1-1.983-1.193,9.683,9.683,0,0,1-1.481-1.713,17.436,17.436,0,0,1-1.993-3.989,25.415,25.415,0,0,1-1.455-8.724,22.045,22.045,0,0,1,.483-4.42,22.683,22.683,0,0,1,1.379-4.226,29.715,29.715,0,0,1,4.8-7.424,49.584,49.584,0,0,1,6.384-6.086c2.28-1.853,4.691-3.533,7.087-5.2.6-.419,1.192-.839,1.765-1.277.285-.219.566-.443.823-.678a3.807,3.807,0,0,0,.354-.36.9.9,0,0,0,.192-.316c.008-.032,0-.006,0-.014s-.016-.005-.018-.016a.47.47,0,0,1-.053-.024,1.178,1.178,0,0,0-.414-.037,5.725,5.725,0,0,0-1.017.167c-.69.17-1.38.394-2.065.632-2.74.969-5.441,2.1-8.167,3.16s-5.467,2.1-8.26,3a48.925,48.925,0,0,1-8.571,2.068,17.137,17.137,0,0,1-4.455.058,8.492,8.492,0,0,1-2.192-.588,5.507,5.507,0,0,1-1.891-1.317,5.535,5.535,0,0,1-1.164-1.988,8.039,8.039,0,0,1-.407-2.235,14.429,14.429,0,0,1,.547-4.432c.05-.179.1-.359.159-.535l.194-.529.194-.529c.069-.175.164-.339.246-.508a6.963,6.963,0,0,1,.549-.985,8,8,0,0,1,.653-.919c.248-.281.468-.59.739-.847l.805-.78c.575-.47,1.143-.953,1.757-1.364a67.085,67.085,0,0,1,7.628-4.4c2.6-1.342,5.217-2.647,7.821-3.973,5.208-2.654,10.4-5.334,15.484-8.212,1.268-.723,2.525-1.461,3.752-2.241.606-.4,1.219-.792,1.779-1.234a4.094,4.094,0,0,0,.734-.689c.021-.028.047-.059.046-.073s.022-.044.013-.021c0,0,.018.039,0,.025s-.007-.019-.032-.032a.5.5,0,0,1-.067-.043l-.1-.036a1.48,1.48,0,0,0-.224-.059,9.015,9.015,0,0,0-2.111,0c-.719.063-1.439.161-2.158.272-1.437.225-2.868.5-4.294.81a116.755,116.755,0,0,0-16.785,4.906c-2.73,1.032-5.409,2.187-8.084,3.368-1.342.583-2.679,1.182-4.076,1.666a10.807,10.807,0,0,1-2.17.538,3.588,3.588,0,0,1-2.255-.4,3.767,3.767,0,0,1-1.473-1.748,7.3,7.3,0,0,1-.567-2.175,14.892,14.892,0,0,1,.229-4.426,22.817,22.817,0,0,1,3.351-8.13,20.082,20.082,0,0,1,2.812-3.408,19.055,19.055,0,0,1,3.519-2.671,39.17,39.17,0,0,1,8.115-3.382c2.789-.888,5.593-1.71,8.348-2.677a81.993,81.993,0,0,0,8.11-3.291,78.4,78.4,0,0,0,7.683-4.194c2.479-1.544,4.947-3.117,7.259-4.9a38.033,38.033,0,0,0,6.3-6.047,36.215,36.215,0,0,0,4.686-7.372c.155-.331.317-.658.466-.991l.418-1.012c.294-.669.512-1.367.766-2.052a38.742,38.742,0,0,0,1.152-4.225,48.978,48.978,0,0,0,1-8.7,49,49,0,0,1-.955,8.709,38.754,38.754,0,0,1-1.134,4.237c-.251.687-.466,1.388-.757,2.059l-.415,1.016c-.147.334-.309.663-.462,1a36.31,36.31,0,0,1-4.665,7.415,38.141,38.141,0,0,1-6.3,6.1c-2.312,1.8-4.776,3.387-7.251,4.944a78.522,78.522,0,0,1-7.686,4.243,82.317,82.317,0,0,1-8.121,3.341c-2.758.983-5.563,1.82-8.342,2.719a39.126,39.126,0,0,0-8.032,3.374,18.657,18.657,0,0,0-3.445,2.63,19.744,19.744,0,0,0-2.75,3.351,22.431,22.431,0,0,0-3.271,7.994,14.47,14.47,0,0,0-.213,4.3,6.848,6.848,0,0,0,.538,2.05,3.34,3.34,0,0,0,1.3,1.552,3.153,3.153,0,0,0,1.987.339,10.388,10.388,0,0,0,2.076-.523c1.366-.476,2.7-1.077,4.037-1.662,2.67-1.187,5.359-2.356,8.1-3.4a117.258,117.258,0,0,1,16.844-4.971c1.432-.311,2.871-.6,4.322-.827.726-.114,1.455-.215,2.192-.282a9.389,9.389,0,0,1,2.262,0,2.072,2.072,0,0,1,.3.08l.157.061c.056.033.111.068.165.1a.81.81,0,0,1,.154.165.43.43,0,0,1,.084.277.53.53,0,0,1-.058.239.626.626,0,0,1-.094.16,4.4,4.4,0,0,1-.849.816c-.587.466-1.2.865-1.819,1.27-1.238.792-2.5,1.538-3.771,2.266-5.091,2.9-10.291,5.579-15.5,8.241-2.6,1.329-5.221,2.637-7.815,3.978a66.655,66.655,0,0,0-7.552,4.362c-.6.4-1.148.87-1.705,1.325l-.769.747c-.26.246-.465.538-.7.8a7.4,7.4,0,0,0-.614.867,6.358,6.358,0,0,0-.516.927c-.076.16-.167.313-.231.478l-.183.5-.184.5c-.056.171-.1.343-.153.516a13.842,13.842,0,0,0-.522,4.238,5.985,5.985,0,0,0,1.412,3.832,6.033,6.033,0,0,0,3.713,1.707,16.536,16.536,0,0,0,4.29-.063,48.3,48.3,0,0,0,8.455-2.05c2.771-.9,5.5-1.932,8.22-3s5.416-2.193,8.189-3.176c.7-.242,1.4-.472,2.126-.652a6.321,6.321,0,0,1,1.143-.186,1.765,1.765,0,0,1,.669.077,1.477,1.477,0,0,1,.193.1,1.061,1.061,0,0,1,.18.173.667.667,0,0,1,.113.506,1.41,1.41,0,0,1-.335.63,4.578,4.578,0,0,1-.413.423c-.282.258-.573.49-.867.717-.589.45-1.187.873-1.787,1.295-2.4,1.675-4.789,3.343-7.046,5.181a48.906,48.906,0,0,0-6.292,6.007,29.106,29.106,0,0,0-4.683,7.257,22.9,22.9,0,0,0-.405,16.871,16.818,16.818,0,0,0,1.911,3.838,6.625,6.625,0,0,0,3.12,2.657,3.521,3.521,0,0,0,1.98.034,6.482,6.482,0,0,0,1.881-.879,16.765,16.765,0,0,0,3.178-2.877,59.929,59.929,0,0,0,5.15-7.029l2.357-3.695c.794-1.231,1.567-2.473,2.5-3.647a5.977,5.977,0,0,1,.8-.842,1.463,1.463,0,0,1,.61-.333.685.685,0,0,1,.491.079.689.689,0,0,1,.3.377,1.771,1.771,0,0,1,.066.67,5.442,5.442,0,0,1-.077.58c-.068.375-.162.736-.261,1.093-.4,1.425-.892,2.8-1.36,4.188-.945,2.764-1.864,5.533-2.57,8.355a43.215,43.215,0,0,0-.859,4.267,24.537,24.537,0,0,0-.28,4.316,12.929,12.929,0,0,0,.766,4.195,7.784,7.784,0,0,0,2.435,3.387,10.516,10.516,0,0,0,3.809,1.846,17.429,17.429,0,0,0,4.258.587,18.6,18.6,0,0,0,4.282-.426,13.2,13.2,0,0,0,2.039-.647,10.977,10.977,0,0,0,1.88-1.006,10.629,10.629,0,0,0,1.651-1.349c.262-.242.489-.519.731-.781.219-.282.457-.55.656-.848a17.637,17.637,0,0,0,2.034-3.793,39.12,39.12,0,0,0,2.148-8.417,156.931,156.931,0,0,0,1.376-17.445c.218-5.84.359-11.687.6-17.532s.572-11.688,1.092-17.517q.388-4.371.919-8.729t1.226-8.691q1.352-8.672,3.36-17.226c.315-1.429.69-2.843,1.052-4.26s.715-2.837,1.129-4.24l1.2-4.221,1.314-4.187c.225-.7.424-1.4.67-2.089l.72-2.073c.486-1.379.943-2.769,1.455-4.139l1.571-4.1c.266-.681.514-1.369.795-2.044l.855-2.02A187.731,187.731,0,0,1-4210.39-1981.883Z" transform="translate(-407.057 -230.09)" fill="#2b2b2b"/>
      <path id="Path_22153" data-name="Path 22153" d="M-4636.733-2302.563c8,2.138,15.866,4.728,23.728,7.312s15.7,5.26,23.543,7.894q11.76,3.981,23.562,7.827c7.882,2.519,15.768,5.031,23.72,7.313,3.963,1.188,7.963,2.242,11.952,3.333,1,.281,2,.521,3,.773l3.009.751,3.009.751c1,.255,2.017.452,3.024.681a153.951,153.951,0,0,0,24.458,3.847,195.975,195.975,0,0,0,24.771.366c4.125-.212,8.246-.53,12.343-1.052s8.174-1.187,12.211-2.047c4.031-.884,8.021-1.951,11.942-3.232a97.005,97.005,0,0,0,11.438-4.686,74.808,74.808,0,0,0,10.555-6.4l2.448-1.884c.808-.639,1.6-1.312,2.394-1.97l4.756-3.986q9.489-8,18.818-16.191c3.111-2.727,6.2-5.478,9.35-8.172s6.351-5.331,9.727-7.747a63.852,63.852,0,0,1,10.752-6.263,59.659,59.659,0,0,1,5.8-2.272c.982-.336,1.985-.609,2.976-.917,1-.29,1.994-.559,3-.825a58.033,58.033,0,0,1,6.09-1.3,46.78,46.78,0,0,1,6.207-.529,53.859,53.859,0,0,1,6.22.261c2.065.2,4.123.487,6.157.891a78.77,78.77,0,0,1,11.971,3.331,77.753,77.753,0,0,1,11.3,5.156c1.8,1.021,3.564,2.115,5.267,3.295a50.828,50.828,0,0,1,4.871,3.852,30.456,30.456,0,0,1,7.552,9.754,30.41,30.41,0,0,0-7.608-9.692,50.627,50.627,0,0,0-4.886-3.811c-1.707-1.167-3.471-2.246-5.277-3.251a77.526,77.526,0,0,0-11.3-5.067,78.494,78.494,0,0,0-11.948-3.238c-2.027-.388-4.075-.666-6.129-.86a53.5,53.5,0,0,0-6.178-.237,46.388,46.388,0,0,0-6.152.549,57.606,57.606,0,0,0-6.042,1.31c-1,.269-1.995.542-2.985.834-.983.309-1.979.584-2.953.922a59.344,59.344,0,0,0-5.746,2.276,63.339,63.339,0,0,0-10.645,6.255c-3.347,2.414-6.527,5.058-9.66,7.754s-6.224,5.449-9.333,8.182q-9.324,8.2-18.806,16.222l-4.754,3.994c-.8.66-1.583,1.332-2.4,1.977l-2.47,1.906a75.467,75.467,0,0,1-10.643,6.47,97.68,97.68,0,0,1-11.516,4.735,124.26,124.26,0,0,1-12.011,3.265c-4.061.86-8.158,1.524-12.272,2.042s-8.253.833-12.394,1.041a196.578,196.578,0,0,1-24.851-.4,154.551,154.551,0,0,1-24.54-3.891c-1.01-.231-2.027-.429-3.03-.687l-3.013-.756-3.013-.756c-1-.252-2.011-.5-3.006-.782-3.99-1.108-7.99-2.178-11.952-3.382-7.951-2.313-15.831-4.857-23.707-7.406q-11.791-3.895-23.536-7.921c-7.829-2.686-15.647-5.4-23.489-8.05S-4628.75-2300.372-4636.733-2302.563Z" transform="translate(-192.228)" fill="#2b2b2b"/>
    </g>
  </g>
</svg>
