<svg xmlns="http://www.w3.org/2000/svg" width="176" height="65" viewBox="0 0 176 65">
  <g id="向量圖智慧型物件" transform="translate(-108.259 -135.258)">
    <g id="Group_752" data-name="Group 752">
      <g id="Group_749" data-name="Group 749">
        <path id="Path_21748" data-name="Path 21748" d="M108.818,189.222a.535.535,0,0,1-.393-.167.569.569,0,0,1,0-.8.538.538,0,0,1,.393-.167h4.475a.071.071,0,0,0,.08-.08.525.525,0,0,1,.166-.381.536.536,0,0,1,.393-.167h.933a.536.536,0,0,1,.392.167.526.526,0,0,1,.167.381.071.071,0,0,0,.079.08h4.475a.539.539,0,0,1,.394.167.569.569,0,0,1,0,.8.536.536,0,0,1-.394.167h-4.435c-.08,0-.119.036-.119.107v.107c0,.071.039.111.119.12h3.877a.474.474,0,0,1,.339.134.451.451,0,0,1,.139.341.472.472,0,0,1-.139.348.459.459,0,0,1-.339.141H109.378a.459.459,0,0,1-.339-.141.471.471,0,0,1-.14-.348.45.45,0,0,1,.14-.341.474.474,0,0,1,.339-.134h3.876a.106.106,0,0,0,.12-.12v-.107q0-.107-.12-.107Zm.027,10.768a.562.562,0,0,1-.413-.174.584.584,0,0,1,0-.83.562.562,0,0,1,.413-.174h4.462a.1.1,0,0,0,.107-.107v-.134c0-.081-.036-.121-.107-.121h-3.582a.5.5,0,0,1-.353-.147.473.473,0,0,1-.153-.355.5.5,0,0,1,.507-.5h3.582c.071,0,.107-.04.107-.12v-.188c0-.071-.04-.107-.12-.107q-1.266.053-3.81.107a.584.584,0,0,1-.4-.154.52.52,0,0,1-.186-.368.51.51,0,0,1,.133-.381.475.475,0,0,1,.373-.167l1.545-.04a.229.229,0,0,0,.186-.08q.159-.187.267-.322c.044-.062.031-.093-.04-.093h-1.718a.378.378,0,0,1-.266-.113.364.364,0,0,1-.12-.274.047.047,0,0,0-.053-.054h-.12a.762.762,0,0,1-.552-.227.736.736,0,0,1-.234-.548v-.375a.738.738,0,0,1,.234-.549.765.765,0,0,1,.552-.227h10.63a.756.756,0,0,1,.553.234.746.746,0,0,1,.233.542v.375a.737.737,0,0,1-.233.548.763.763,0,0,1-.553.227h-.12a.047.047,0,0,0-.053.054.382.382,0,0,1-.113.267.363.363,0,0,1-.273.12H118.9c-.018,0-.026.007-.026.02a.048.048,0,0,0,.013.034c.1.071.238.182.42.334s.3.254.366.308a.409.409,0,0,1,.153.421.437.437,0,0,1-.286.354l-.226.08a1.224,1.224,0,0,1-1.239-.24.288.288,0,0,0-.186-.054q-.8.054-2.384.147a.106.106,0,0,0-.12.12v.268a.109.109,0,0,0,.106.12h3.41a.494.494,0,0,1,.353.147.486.486,0,0,1,0,.709.494.494,0,0,1-.353.147h-3.41c-.07,0-.106.04-.106.121v.134a.094.094,0,0,0,.106.107h4.463a.589.589,0,0,1,0,1.177Zm1.6-9.163h7.912a.733.733,0,0,1,.546.234.759.759,0,0,1,.227.542v.481a.751.751,0,0,1-.227.549.743.743,0,0,1-.546.227h-7.912a.775.775,0,0,1-.773-.776V191.6a.775.775,0,0,1,.773-.776m-.239,3.692H118.6a.12.12,0,0,0,.133-.12v-.094c0-.08-.045-.12-.133-.12H110.2a.12.12,0,0,0-.133.12v.094a.12.12,0,0,0,.133.12m6.926-2.6v-.147a.121.121,0,0,0-.12-.134h-5.234c-.072,0-.107.045-.107.134v.147c0,.08.035.121.107.121h5.234a.107.107,0,0,0,.12-.121m-3.929,4.04q1.092-.04,3.477-.147c.018,0,.031-.011.04-.034a.041.041,0,0,0-.013-.053c-.018-.014-.047-.034-.087-.06a.613.613,0,0,1-.086-.067.358.358,0,0,0-.213-.067h-2.745a.268.268,0,0,0-.2.081c-.026.035-.067.087-.12.154s-.084.105-.093.113c-.018.036,0,.063.04.081" fill="#3f5146"/>
        <path id="Path_21749" data-name="Path 21749" d="M124.653,192.62a.827.827,0,0,1-.246-.549.816.816,0,0,1,.179-.575.673.673,0,0,1,.5-.248.654.654,0,0,1,.526.194q.359.348.959,1a.869.869,0,0,1,.22.575.95.95,0,0,1-.194.6.647.647,0,0,1-.985.013q-.4-.455-.959-1.017m.347,6.969a.919.919,0,0,1-.373-.482.907.907,0,0,1,.013-.629,25.245,25.245,0,0,0,.946-2.7.668.668,0,0,1,.36-.448.7.7,0,0,1,.573-.033h.013a.85.85,0,0,1,.473.415.835.835,0,0,1,.061.629,27.863,27.863,0,0,1-.986,3.01.652.652,0,0,1-.973.294Zm.746-9.324q-.773-.815-.8-.856a.782.782,0,0,1-.233-.521.739.739,0,0,1,.173-.542.637.637,0,0,1,.479-.248.66.66,0,0,1,.5.187q.293.268.812.83a.8.8,0,0,1,.22.548.926.926,0,0,1-.193.589.643.643,0,0,1-.958.013m1.651,1.672a.491.491,0,0,1-.387-.141.542.542,0,0,1-.173-.368V191.4a.511.511,0,0,1,.133-.381.5.5,0,0,1,.36-.181.143.143,0,0,0,.133-.067,1.356,1.356,0,0,1,.113-.134,1.334,1.334,0,0,0,.113-.134.116.116,0,0,0,0-.174q-.174-.186-.546-.561a.735.735,0,0,1-.134-.923l.107-.173a.263.263,0,0,1,.2-.141.25.25,0,0,1,.226.074c.028.027.05.027.067,0q.213-.347.386-.642a.667.667,0,0,1,.313-.281.568.568,0,0,1,.419-.026.4.4,0,0,1,.266.247.385.385,0,0,1-.026.368q-.44.722-.626,1c-.044.053-.04.121.014.2.053.053.1.058.146.013s.231-.334.587-.843a.544.544,0,0,1,.746-.214.38.38,0,0,1,.246.248.405.405,0,0,1-.047.354q-.093.134-.706.95c-.009.019.009.04.053.067a.621.621,0,0,1,.532.026.6.6,0,0,1,.333.415q.08.308.28,1.177a.466.466,0,0,1-.053.341.451.451,0,0,1-.266.221c-.027.009-.04.04-.04.094q.053.4.133,1.324a.5.5,0,0,1-.1.341.428.428,0,0,1-.293.181.387.387,0,0,1-.313-.08.38.38,0,0,1-.146-.281q-.041-.642-.134-1.217a.437.437,0,0,1,.373-.468c.053,0,.071-.027.053-.08a.165.165,0,0,1-.013-.067.156.156,0,0,0-.013-.067.135.135,0,0,0-.147-.107l-.253.013a.106.106,0,0,0-.119.12v1.833a.562.562,0,0,1-.167.4.544.544,0,0,1-.8,0,.561.561,0,0,1-.167-.4V192c0-.071-.04-.107-.12-.107Zm.18,2.214a.465.465,0,0,1-.333.073.381.381,0,0,1-.279-.187.426.426,0,0,1-.06-.334q.107-.509.187-1.123a.466.466,0,0,1,.16-.3.406.406,0,0,1,.306-.1.457.457,0,0,1,.3.167.438.438,0,0,1,.1.314,11.876,11.876,0,0,1-.187,1.218.436.436,0,0,1-.193.274m.166,1.425a.541.541,0,0,1-.159-.395.5.5,0,0,1,.159-.381.533.533,0,0,1,.373-.147h7.46a.774.774,0,0,1,.552.221.716.716,0,0,1,.234.542v.963a.738.738,0,0,1-.234.549.764.764,0,0,1-.552.227h-5.927a.126.126,0,0,0-.133.107c-.018.053-.031.1-.04.134a.1.1,0,0,0,.02.087.091.091,0,0,0,.073.047h6.474a.659.659,0,0,1,.519.227.584.584,0,0,1,.133.535,2.554,2.554,0,0,1-.7,1.592,2.9,2.9,0,0,1-1.711.375q-.92,0-2.3-.067a.683.683,0,0,1-.44-.188.638.638,0,0,1-.2-.455.514.514,0,0,1,.167-.415.54.54,0,0,1,.419-.161q.92.054,1.9.054a2.04,2.04,0,0,0,.62-.06.438.438,0,0,0,.233-.287c.018-.071-.009-.112-.08-.12h-5.368a.1.1,0,0,0-.106.08.585.585,0,0,1-.679.455l-.52-.04a.6.6,0,0,1-.466-.261.585.585,0,0,1-.08-.515q.133-.468.359-1.392a.976.976,0,0,1,.334-.562.9.9,0,0,1,.6-.227h5.742a.116.116,0,0,0,.133-.107v-.134q0-.12-.133-.12h-6.3a.511.511,0,0,1-.373-.16m1.066-4.9q-.066.067.054.067l.44-.027c.071,0,.1-.041.094-.121-.01-.036-.027-.1-.054-.187s-.048-.156-.066-.2a.059.059,0,0,0-.04-.033.056.056,0,0,0-.053.02c-.035.053-.1.134-.187.241s-.151.187-.187.24m4.383-1.846a.447.447,0,0,1,.327.14.461.461,0,0,1,.14.335.471.471,0,0,1-.134.334.442.442,0,0,1-.333.14h-2.318a.468.468,0,0,1-.333-.14.456.456,0,0,1,0-.669.468.468,0,0,1,.333-.14Zm-.16-.214h-2.011a.4.4,0,0,1-.294-.12.437.437,0,0,1,0-.6.4.4,0,0,1,.294-.121h2.011a.424.424,0,0,1,.3.121.422.422,0,0,1,0,.6.422.422,0,0,1-.3.12m-2.011,2.261a.4.4,0,0,1-.294-.12.437.437,0,0,1,0-.6.4.4,0,0,1,.294-.12h2.011a.421.421,0,0,1,.3.12.422.422,0,0,1,0,.6.422.422,0,0,1-.3.12Zm0,1.1a.388.388,0,0,1-.294-.126.438.438,0,0,1,0-.6.39.39,0,0,1,.294-.127h2.011a.428.428,0,0,1,0,.856Zm-.414,1.579v-.549a.759.759,0,0,1,.233-.555.738.738,0,0,1,.54-.234h1.292a.8.8,0,0,1,.786.789v.549a.72.72,0,0,1-.233.542.778.778,0,0,1-.553.221H131.38a.754.754,0,0,1-.546-.221.729.729,0,0,1-.227-.542m1.053-.414v.174c0,.071.039.107.12.107h.519a.094.094,0,0,0,.106-.107v-.174q0-.12-.106-.12h-.519a.106.106,0,0,0-.12.12m4.516-3.09a.655.655,0,0,1,.526.034.625.625,0,0,1,.339.407q.133.495.293,1.177a.462.462,0,0,1-.053.341.448.448,0,0,1-.266.221c-.035.009-.053.04-.053.094q.107.9.146,1.4a.478.478,0,0,1-.1.328.442.442,0,0,1-.312.18.364.364,0,0,1-.306-.087.416.416,0,0,1-.147-.3q-.04-.642-.133-1.244a.428.428,0,0,1,.1-.315.444.444,0,0,1,.286-.167c.044,0,.058-.031.039-.093a.081.081,0,0,1-.013-.054.147.147,0,0,0-.014-.067.126.126,0,0,0-.133-.107l-.266.013a.106.106,0,0,0-.12.12v1.833a.574.574,0,0,1-.16.4.513.513,0,0,1-.393.174.556.556,0,0,1-.407-.174.55.55,0,0,1-.173-.4V192a.1.1,0,0,0-.107-.107l-.546.04a.508.508,0,0,1-.392-.141.524.524,0,0,1-.18-.368V191.4a.5.5,0,0,1,.14-.381.526.526,0,0,1,.366-.181.129.129,0,0,0,.12-.067q.027-.04.107-.134c.053-.062.093-.107.119-.134a.114.114,0,0,0,0-.174q-.359-.388-.533-.561a.863.863,0,0,1-.219-.435.75.75,0,0,1,.073-.488l.107-.173a.265.265,0,0,1,.206-.141.261.261,0,0,1,.233.074c.026.027.044.027.053,0q.36-.561.4-.642a.558.558,0,0,1,.719-.307.442.442,0,0,1,.267.254.4.4,0,0,1-.014.361q-.36.589-.64,1c-.044.053-.04.121.013.2.054.053.1.058.147.013q.265-.361.6-.843a.544.544,0,0,1,.746-.214.382.382,0,0,1,.233.248.406.406,0,0,1-.046.354q-.213.335-.693.95a.078.078,0,0,0,.04.067m-1.6,3.745a.477.477,0,0,1-.532.361.384.384,0,0,1-.273-.18.411.411,0,0,1-.06-.328,10.487,10.487,0,0,0,.173-1.084.457.457,0,0,1,.16-.287.407.407,0,0,1,.307-.1.455.455,0,0,1,.3.167.432.432,0,0,1,.1.314,10.494,10.494,0,0,1-.173,1.137m1.519-3.076c.071,0,.1-.041.094-.121q-.013-.053-.053-.187c-.026-.089-.05-.156-.067-.2a.058.058,0,0,0-.04-.033.056.056,0,0,0-.053.02c-.035.053-.1.134-.186.241l-.2.24q-.066.067.067.067Z" fill="#3f5146"/>
        <path id="Path_21750" data-name="Path 21750" d="M141.514,193.931a.794.794,0,0,1-.372-1.044,26.573,26.573,0,0,0,1.452-4.186.817.817,0,0,1,.353-.5.8.8,0,0,1,.592-.127l.174.027a.7.7,0,0,1,.493.321.738.738,0,0,1,.107.575c-.018.062-.043.167-.074.314s-.056.253-.073.314.009.107.08.107h2.078a.094.094,0,0,0,.107-.107v-1.137a.758.758,0,0,1,.234-.555.736.736,0,0,1,.539-.234h.32a.73.73,0,0,1,.545.234.769.769,0,0,1,.227.555v1.137c0,.072.04.107.12.107h3.49a.783.783,0,0,1,0,1.565h-3.49c-.08,0-.12.035-.12.107v2.167a.107.107,0,0,0,.12.121h2.837a.741.741,0,0,1,.533.22.746.746,0,0,1,0,1.07.74.74,0,0,1-.533.221h-2.837c-.08,0-.12.035-.12.107v2.782a.106.106,0,0,0,.12.12h3.943a.767.767,0,0,1,.553.227.732.732,0,0,1,.233.542.8.8,0,0,1-.786.782H141.913a.8.8,0,0,1-.786-.782.733.733,0,0,1,.233-.542.767.767,0,0,1,.553-.227h4.409c.072,0,.107-.04.107-.12v-2.782a.094.094,0,0,0-.107-.107h-2.57a.717.717,0,0,1-.527-.221.759.759,0,0,1,.527-1.29h2.57c.072,0,.107-.04.107-.121V191.4a.094.094,0,0,0-.107-.107h-2.544a.146.146,0,0,0-.146.107q-.359,1.057-.906,2.274a.7.7,0,0,1-.433.4.747.747,0,0,1-.593-.047Z" fill="#3f5146"/>
        <path id="Path_21751" data-name="Path 21751" d="M158.175,193.516a.677.677,0,0,1-.526.081.7.7,0,0,1-.447-.321.746.746,0,0,1-.106-.548,32.3,32.3,0,0,0,.493-3.772.643.643,0,0,1,.233-.482.635.635,0,0,1,.506-.154.729.729,0,0,1,.472.241.671.671,0,0,1,.173.5q-.013.214-.039.629a.094.094,0,0,0,.107.107h.119a.108.108,0,0,0,.12-.107V188.5a.75.75,0,0,1,.227-.549.743.743,0,0,1,.547-.227h.2a.743.743,0,0,1,.546.227.751.751,0,0,1,.226.549v1.191c0,.071.04.107.12.107h.32a.756.756,0,1,1,0,1.511h-.32a.107.107,0,0,0-.12.121v2.876c0,.072.035.1.106.081a1.889,1.889,0,0,0,.193-.054,1.529,1.529,0,0,1,.206-.053.622.622,0,0,1,.533.08.561.561,0,0,1,.253.468v.121a.045.045,0,0,0,.02.04c.013.009.029,0,.047-.014a12.012,12.012,0,0,0,2.584-4.227c.018-.062-.014-.094-.094-.094h-.586a.155.155,0,0,0-.16.107,13.439,13.439,0,0,1-1.386,2.394.58.58,0,0,1-.486.247.629.629,0,0,1-.512-.221l-.054-.053a.958.958,0,0,1-.239-.582.87.87,0,0,1,.173-.609,13.308,13.308,0,0,0,1.719-3.705.9.9,0,0,1,.366-.508.833.833,0,0,1,.593-.147l.147.013a.655.655,0,0,1,.559.856c-.018.062-.049.154-.093.274s-.076.212-.093.274.009.107.08.107h3.983a.766.766,0,0,1,.553.228.681.681,0,0,1,.22.535q-.028,1.859-.067,3.211t-.106,2.448q-.066,1.1-.12,1.806a9,9,0,0,1-.167,1.224,5.79,5.79,0,0,1-.22.789,1.116,1.116,0,0,1-.286.435.765.765,0,0,1-.347.194,2.3,2.3,0,0,1-.432.033q-.746,0-1.745-.04a.78.78,0,0,1-.56-.254.919.919,0,0,1-.253-.576v-.026a.68.68,0,0,1,.746-.709q.4.027.986.027c.134,0,.239-.084.32-.254a4.915,4.915,0,0,0,.226-1.2q.106-.95.2-2.836c0-.017,0-.027-.014-.027a.039.039,0,0,0-.026.013,14.076,14.076,0,0,1-3.956,5.565.8.8,0,0,1-.58.174.81.81,0,0,1-.553-.281l-.106-.093a.669.669,0,0,1-.167-.535.744.744,0,0,1,.273-.508,12.952,12.952,0,0,0,2.858-3.33,16.041,16.041,0,0,0,1.818-4.334c.018-.08-.009-.12-.079-.12h-.533a.17.17,0,0,0-.16.107,16.5,16.5,0,0,1-1.459,3.2,12,12,0,0,1-1.951,2.521.7.7,0,0,1-.546.194.77.77,0,0,1-.533-.248l-.08-.08a.718.718,0,0,1-.186-.509.092.092,0,0,0-.027-.067.045.045,0,0,0-.053-.013,1.017,1.017,0,0,1-.107.04q-.4.12-.519.147a.138.138,0,0,0-.12.147v3.277a.726.726,0,0,1-.226.542.753.753,0,0,1-.546.221h-.2a.742.742,0,0,1-.547-.227.733.733,0,0,1-.227-.535v-2.849c0-.071-.04-.1-.12-.081-.134.027-.333.065-.6.114s-.462.087-.586.114a.689.689,0,0,1-.546-.12.637.637,0,0,1-.266-.488.834.834,0,0,1,.159-.576.751.751,0,0,1,.506-.314l1.346-.294c.062-.009.1-.054.106-.134V191.43a.106.106,0,0,0-.12-.121h-.279c-.062,0-.1.04-.12.121q-.147,1.07-.279,1.645a.667.667,0,0,1-.306.441" fill="#3f5146"/>
        <path id="Path_21752" data-name="Path 21752" d="M174.969,194.747a.793.793,0,0,1-.58-.113.893.893,0,0,1-.366-.475.6.6,0,0,1,.053-.522.611.611,0,0,1,.44-.308,18.4,18.4,0,0,0,3.636-.976c.08-.036.094-.085.04-.147l-.452-.4a.637.637,0,0,1-.207-.5.622.622,0,0,1,.234-.488.914.914,0,0,1,.586-.2.784.784,0,0,1,.56.214q.226.2.733.668a.122.122,0,0,0,.187.014,8.825,8.825,0,0,0,2.131-1.766c.018-.036,0-.062-.04-.08h-2.93a.419.419,0,0,0-.213.053,19.286,19.286,0,0,1-3.49,1.739.9.9,0,0,1-.62-.006.856.856,0,0,1-.473-.408.6.6,0,0,1-.026-.521.638.638,0,0,1,.386-.374,16.552,16.552,0,0,0,4.4-2.274,1.353,1.353,0,0,1,1.332-.254l.227.08a.382.382,0,0,1,.259.274.341.341,0,0,1-.113.368.057.057,0,0,0-.013.04.024.024,0,0,0,.027.026h2.545a.613.613,0,0,1,.44.181.6.6,0,0,1,.186.448,1.869,1.869,0,0,1-.36,1.151q-2.557,3.531-8.512,4.561m10.55-1.471a.684.684,0,0,1,.666.669,2.18,2.18,0,0,1-.359,1.244,10.568,10.568,0,0,1-3.63,3.144,17.522,17.522,0,0,1-5.495,1.819.9.9,0,0,1-1.012-.615l-.014-.027a.625.625,0,0,1,.06-.542.646.646,0,0,1,.46-.3,18.689,18.689,0,0,0,4.009-1.124c.062-.027.064-.069.006-.127s-.138-.136-.239-.234-.18-.17-.234-.214a.658.658,0,0,1-.227-.515.641.641,0,0,1,.24-.515l.039-.04a.833.833,0,0,1,.573-.214.807.807,0,0,1,.573.227l.772.736a.152.152,0,0,0,.187.027,9.408,9.408,0,0,0,2.331-1.953c.044-.063.03-.094-.04-.094h-3.023a.4.4,0,0,0-.213.067,20.694,20.694,0,0,1-3.93,2.007.918.918,0,0,1-1.132-.415.586.586,0,0,1-.046-.521.62.62,0,0,1,.38-.375,16.643,16.643,0,0,0,4.875-2.582,1.3,1.3,0,0,1,1.306-.281l.306.093a.379.379,0,0,1,.246.254.3.3,0,0,1-.1.334.041.041,0,0,0-.006.04.031.031,0,0,0,.033.027Z" fill="#3f5146"/>
        <path id="Path_21753" data-name="Path 21753" d="M190.058,196.78l-.146-.334a1.462,1.462,0,0,1,.053-1.378,13.253,13.253,0,0,0,1.252-3.531c.018-.071-.013-.107-.094-.107h-.465a.7.7,0,0,1-.527-.227.736.736,0,0,1-.219-.528.728.728,0,0,1,.226-.529.714.714,0,0,1,.52-.228h.532a.106.106,0,0,0,.12-.12v-1.3a.736.736,0,0,1,.233-.548.763.763,0,0,1,.553-.227h.08a.774.774,0,0,1,.773.776v1.3c0,.08.035.12.107.12h.4a.7.7,0,0,1,.533.228.761.761,0,0,1,0,1.057.7.7,0,0,1-.533.227h-.279q-.107,0-.066.094.293.629,1.186,2.648a1.158,1.158,0,0,1-.187,1.311.427.427,0,0,1-.406.154.4.4,0,0,1-.34-.261l-.373-.949a.038.038,0,0,0-.027-.013c-.009,0-.013.009-.013.027v4.936a.717.717,0,0,1-.233.542.762.762,0,0,1-.54.22h-.08a.764.764,0,0,1-.553-.227.723.723,0,0,1-.233-.535v-3.839c-.009-.008-.022-.008-.04,0a11.431,11.431,0,0,1-.533,1.271.331.331,0,0,1-.339.2.382.382,0,0,1-.34-.227m3.956,1.659a6.754,6.754,0,0,0,1.585-.762q.066-.067,0-.067h-.946a.562.562,0,0,1-.413-.174.574.574,0,0,1-.173-.422.553.553,0,0,1,.173-.414.573.573,0,0,1,.413-.167h2.185a.573.573,0,0,1,.413.167.563.563,0,0,1,.173.422,1.6,1.6,0,0,1-.333,1.056,3.7,3.7,0,0,1-.6.575c-.018.018-.022.033-.013.047a.06.06,0,0,0,.053.02q.626.04.946.04a.755.755,0,0,0,.34-.04c.031-.027.046-.12.046-.281v-2.247a.106.106,0,0,0-.119-.12h-2.4a.624.624,0,0,1-.459-.194.615.615,0,0,1,0-.9.625.625,0,0,1,.459-.194h3.45a1.017,1.017,0,0,1,.62.2,1.331,1.331,0,0,1,.42.508,4.438,4.438,0,0,0,.266.5c.035.071.08.08.133.027a6.256,6.256,0,0,0,.772-.776.884.884,0,0,1,.526-.294.82.82,0,0,1,.58.107.706.706,0,0,1,.306.475.6.6,0,0,1-.146.529,10.982,10.982,0,0,1-1.146,1.1.091.091,0,0,0-.013.134,8.465,8.465,0,0,0,1.132.977.755.755,0,0,1,.307.495.782.782,0,0,1-.12.575l-.079.107a.742.742,0,0,1-.514.3.634.634,0,0,1-.552-.167,8.943,8.943,0,0,1-1.665-2.02.046.046,0,0,0-.034-.013c-.013,0-.019.009-.019.027v1.525a1.082,1.082,0,0,1-.28.877,1.985,1.985,0,0,1-1.132.221q-.412,0-1.292-.04a.775.775,0,0,1-.553-.248.9.9,0,0,1-.246-.555l-.013-.24c0-.072-.04-.085-.12-.041a9.29,9.29,0,0,1-1.172.682.793.793,0,0,1-.613.02.871.871,0,0,1-.467-.395l-.026-.027a.609.609,0,0,1-.019-.535.621.621,0,0,1,.379-.375m3.45-6.581c.08,0,.12-.035.12-.107v-.267c0-.071-.04-.107-.12-.107h-2.038a.525.525,0,0,1-.393-.174.569.569,0,0,1-.167-.408.547.547,0,0,1,.56-.555h2.038q.12,0,.12-.107v-.241a.106.106,0,0,0-.12-.12h-2.357a.646.646,0,0,1-.487-.2.679.679,0,0,1-.193-.488.622.622,0,0,1,.2-.475.676.676,0,0,1,.48-.187h.772c.054,0,.071-.031.054-.094a.5.5,0,0,1,.039-.462.479.479,0,0,1,.373-.261l.187-.027a.914.914,0,0,1,.639.127.979.979,0,0,1,.413.488.237.237,0,0,0,.013.053.146.146,0,0,0,.027.053.187.187,0,0,0,.173.121h1.532a.171.171,0,0,0,.159-.121.155.155,0,0,0,.027-.04.118.118,0,0,0,.013-.053.918.918,0,0,1,.394-.5.945.945,0,0,1,.633-.14l.146.013a.532.532,0,0,1,.413.254.54.54,0,0,1,.054.495c-.018.063,0,.094.066.094h.48a.672.672,0,0,1,.487.187.636.636,0,0,1,.193.475.667.667,0,0,1-.2.488.65.65,0,0,1-.479.2h-2.144c-.071,0-.106.04-.106.12v.241a.094.094,0,0,0,.106.107h2.1a.548.548,0,0,1,.393.161.527.527,0,0,1,.167.394.571.571,0,0,1-.167.408.528.528,0,0,1-.393.174h-2.1a.094.094,0,0,0-.106.107v.267a.094.094,0,0,0,.106.107H201.9a.651.651,0,0,1,.64.649.631.631,0,0,1-.186.461.617.617,0,0,1-.453.187h-6.886a.625.625,0,0,1-.46-.194.614.614,0,0,1-.193-.448.661.661,0,0,1,.653-.656Zm-.852,1.378a35.622,35.622,0,0,1,3.663.428.522.522,0,0,1,.36.254.467.467,0,0,1,.053.428.675.675,0,0,1-.3.374.7.7,0,0,1-.486.094,33.494,33.494,0,0,0-3.61-.428.455.455,0,0,1-.359-.2.468.468,0,0,1-.08-.4.791.791,0,0,1,.76-.548" fill="#3f5146"/>
        <path id="Path_21754" data-name="Path 21754" d="M206.506,195.281a.622.622,0,0,1-.4-.267.655.655,0,0,1-.107-.482q.32-1.845.52-3.638a.6.6,0,0,1,.22-.415.575.575,0,0,1,.446-.134.6.6,0,0,1,.373.174c.018.018.033.022.046.013a.044.044,0,0,0,.02-.04V188.5a.74.74,0,0,1,.233-.549.766.766,0,0,1,.553-.227h.2a.72.72,0,0,1,.539.227.762.762,0,0,1,.22.549V190a.057.057,0,0,0,.033.047.062.062,0,0,0,.061.007.45.45,0,0,1,.186-.094.583.583,0,0,1,.453.08.627.627,0,0,1,.279.375q.173.682.28,1.163c.008.019.019.027.033.027s.024-.009.033-.027a24.152,24.152,0,0,0,.679-2.849.814.814,0,0,1,.32-.508.7.7,0,0,1,.559-.134l.067.014a.8.8,0,0,1,.519.314.724.724,0,0,1,.146.582q-.039.294-.159.856c-.019.071.018.107.106.107h.906c.071,0,.106-.041.106-.121V188.5a.739.739,0,0,1,.234-.549.765.765,0,0,1,.552-.227h.267a.763.763,0,0,1,.552.227.738.738,0,0,1,.234.549v1.338c0,.08.035.121.106.121h2.091a.731.731,0,0,1,.546.234.762.762,0,0,1,.227.548.735.735,0,0,1-.233.542.752.752,0,0,1-.54.227h-2.091c-.071,0-.106.04-.106.121v2.14c0,.081.035.12.106.12h1.8a.7.7,0,0,1,.532.227.762.762,0,0,1,0,1.057.7.7,0,0,1-.532.227h-1.8a.094.094,0,0,0-.106.107v2.608a.094.094,0,0,0,.106.107h2.251a.733.733,0,0,1,.546.234.763.763,0,0,1,.226.548.754.754,0,0,1-.233.549.739.739,0,0,1-.539.234H210.9a.731.731,0,0,1-.546-.234.775.775,0,0,1,0-1.1.732.732,0,0,1,.546-.234h2.971a.094.094,0,0,0,.106-.107V195.51a.094.094,0,0,0-.106-.107h-2.145a.712.712,0,0,1-.54-.234.769.769,0,0,1-.22-.542v-.535a.181.181,0,0,0-.107-.174l-.094-.04a.743.743,0,0,1-.492-.6.142.142,0,0,0-.12-.12.616.616,0,0,1-.333-.16.6.6,0,0,1-.186-.321q-.053-.268-.24-1.124a.013.013,0,0,0-.026,0v7.825a.738.738,0,0,1-.22.542.73.73,0,0,1-.539.221h-.2a.766.766,0,0,1-.553-.227.726.726,0,0,1-.233-.535v-7.237l-.013-.013q-.147,1.271-.387,2.675a.55.55,0,0,1-.26.395.582.582,0,0,1-.46.087m5.275-1.5c-.017.071.009.107.08.107h2.012c.071,0,.106-.04.106-.12v-2.14c0-.081-.035-.121-.106-.121h-1.265a.135.135,0,0,0-.147.107,21.088,21.088,0,0,1-.679,2.167" fill="#3f5146"/>
        <path id="Path_21755" data-name="Path 21755" d="M223.86,192.58a.754.754,0,0,1-.566-.034.762.762,0,0,1-.393-.421.627.627,0,0,1,.027-.535.693.693,0,0,1,.4-.361q1.331-.468,2.184-.856a.865.865,0,0,1,.613-.04.727.727,0,0,1,.453.388l.239.468a.13.13,0,0,0,.161.081q2.4-.562,2.65-1.659c.018-.063-.013-.094-.093-.094h-.773a.322.322,0,0,0-.213.067,7.492,7.492,0,0,1-.573.508,1.038,1.038,0,0,1-.619.194,1.119,1.119,0,0,1-.62-.207l-.026-.027a.571.571,0,0,1-.213-.468.559.559,0,0,1,.227-.468A8.224,8.224,0,0,0,227.8,188.1a1.394,1.394,0,0,1,1.239-.535l.426.041a.362.362,0,0,1,.28.2.3.3,0,0,1-.014.334c-.018.045-.009.067.026.067h4.489a.628.628,0,0,1,.459.194.619.619,0,0,1,.193.448,1.908,1.908,0,0,1-.373,1.2,6.306,6.306,0,0,1-.546.6.844.844,0,0,1-.586.234.959.959,0,0,1-.613-.194l-.014-.014a.574.574,0,0,1-.232-.468.628.628,0,0,1,.206-.495l.12-.121c.018-.009.022-.024.014-.046s-.023-.033-.04-.033h-1.319c-.08,0-.111.031-.093.094a1.749,1.749,0,0,0,.812,1.257,6.677,6.677,0,0,0,2.331.829.616.616,0,0,1,.426.315.581.581,0,0,1,.027.515.828.828,0,0,1-.413.455.88.88,0,0,1-.6.08.045.045,0,0,0-.06.02.135.135,0,0,0-.02.073v4.027a.727.727,0,0,1-.226.542.755.755,0,0,1-.546.221h-.719c-.01,0-.013.007-.013.02s0,.02.013.02q1.345.442,2.171.8a.625.625,0,0,1,.266.909.8.8,0,0,1-.465.348.826.826,0,0,1-.586-.027,33.134,33.134,0,0,0-3.143-1.2.567.567,0,0,1-.333-.308.513.513,0,0,1,0-.455c.018-.062,0-.1-.053-.107h-2.638c-.044,0-.058.027-.04.08a.532.532,0,0,1,.066.421.445.445,0,0,1-.266.328,16.615,16.615,0,0,1-3.4,1.284.81.81,0,0,1-.579-.053.905.905,0,0,1-.419-.428.552.552,0,0,1-.007-.495.541.541,0,0,1,.38-.321,23.316,23.316,0,0,0,2.371-.776.037.037,0,0,0,.014-.027c0-.009-.009-.013-.027-.013h-.959a.756.756,0,0,1-.546-.221.726.726,0,0,1-.227-.542v-3.96a.725.725,0,0,1,.227-.541.754.754,0,0,1,.546-.221h1.159a.043.043,0,0,0,.041-.027.058.058,0,0,0,0-.053,1.509,1.509,0,0,1-.187-.268l-.066-.134c-.036-.071-.084-.089-.146-.053q-.706.293-1.732.655m.44-4.589q.559.188,1.252.455a.6.6,0,0,1,.373.375.594.594,0,0,1-.04.535.788.788,0,0,1-.446.375.846.846,0,0,1-.592,0c-.089-.036-.216-.085-.38-.147s-.317-.123-.46-.181-.279-.109-.412-.154a.579.579,0,0,1-.353-.347.559.559,0,0,1,.033-.5.857.857,0,0,1,.44-.388.837.837,0,0,1,.586-.027m7.765,5.886v-.227c0-.071-.04-.107-.119-.107H226c-.08,0-.12.036-.12.107v.227c0,.071.04.107.12.107h5.941c.079,0,.119-.036.119-.107m0,1.418v-.241c0-.071-.04-.107-.119-.107H226c-.08,0-.12.036-.12.107v.241a.107.107,0,0,0,.12.121h5.941a.106.106,0,0,0,.119-.121m0,1.418v-.227a.106.106,0,0,0-.119-.121H226a.106.106,0,0,0-.12.121v.227c0,.071.04.107.12.107h5.941c.079,0,.119-.035.119-.107m-1.732-5.431a7.156,7.156,0,0,1-2.411,1.15.038.038,0,0,1,.013.027h4.089a.032.032,0,0,0,.027-.053,4.663,4.663,0,0,1-1.545-1.11.122.122,0,0,0-.174-.014" fill="#3f5146"/>
        <path id="Path_21756" data-name="Path 21756" d="M239.734,191.55a.688.688,0,0,1-.526-.221.738.738,0,0,1-.206-.522.729.729,0,0,1,.732-.729h3.3a.7.7,0,0,1,.526.214.716.716,0,0,1,.206.515.725.725,0,0,1-.213.522.693.693,0,0,1-.519.221Zm.32-2.047a.655.655,0,0,1-.492-.207.686.686,0,0,1-.2-.495.684.684,0,0,1,.693-.689H242.9a.691.691,0,0,1,.486,1.184.661.661,0,0,1-.486.207Zm-.693,9.953v-2.649a.775.775,0,0,1,.773-.776h2.73a.733.733,0,0,1,.546.234.758.758,0,0,1,.226.542v2.127a.741.741,0,0,1-.233.549.751.751,0,0,1-.54.227h-1.918a.059.059,0,0,0-.067.067.407.407,0,0,1-.126.308.438.438,0,0,1-.313.12h-.306a.766.766,0,0,1-.547-.214.7.7,0,0,1-.227-.535m.786-5.953a.638.638,0,0,1-.466-.2.65.65,0,0,1-.2-.475.661.661,0,0,1,.193-.475.63.63,0,0,1,.473-.2H242.9a.636.636,0,0,1,.466.2.664.664,0,0,1,0,.95.638.638,0,0,1-.466.2Zm0,1.926a.638.638,0,0,1-.466-.2.65.65,0,0,1-.2-.475.617.617,0,0,1,.193-.462.655.655,0,0,1,.473-.187H242.9a.661.661,0,0,1,.466.187.608.608,0,0,1,.2.462.651.651,0,0,1-.2.475.638.638,0,0,1-.466.2Zm.733,2.047v.8a.106.106,0,0,0,.12.12h1.132c.071,0,.111-.04.12-.12v-.8a.12.12,0,0,0-.12-.134H241a.12.12,0,0,0-.12.134M251.5,196.1a.879.879,0,0,1,.386.335.849.849,0,0,1,.134.508,7.268,7.268,0,0,1-.5,2.548,1.106,1.106,0,0,1-.992.7,2.447,2.447,0,0,1-.493-.04.95.95,0,0,1-.386-.2,1.051,1.051,0,0,1-.313-.448,5.779,5.779,0,0,1-.234-.843,9.387,9.387,0,0,1-.172-1.3q-.054-.743-.1-1.887t-.067-2.555q-.02-1.411-.02-3.338c0-.08-.036-.12-.106-.12h-1.465c-.072,0-.107.04-.107.12v1.271q0,1.03-.04,1.913c0,.071.04.112.12.12h.386a.776.776,0,0,1,.773.769.752.752,0,0,1-.233.549.741.741,0,0,1-.54.234h-.492c-.089,0-.134.036-.134.107a11.511,11.511,0,0,1-.6,2.836,7.809,7.809,0,0,1-1.2,2.113.667.667,0,0,1-1.026.013l-.133-.147a.859.859,0,0,1-.22-.568.9.9,0,0,1,.207-.6,5.925,5.925,0,0,0,.859-1.558,8.936,8.936,0,0,0,.433-2.08c.018-.08-.013-.12-.093-.12h-.293a.713.713,0,0,1-.539-.234.774.774,0,0,1-.22-.549.741.741,0,0,1,.227-.542.728.728,0,0,1,.533-.228h.386a.106.106,0,0,0,.12-.12q.026-1.15.027-1.913v-1.271a.106.106,0,0,0-.12-.12h-.426a.706.706,0,0,1-.526-.227.738.738,0,0,1-.22-.529.726.726,0,0,1,.227-.528.714.714,0,0,1,.52-.228h4.862a.741.741,0,0,1,.545.228.732.732,0,0,1,.227.535q.014,9.163.24,9.163a4.248,4.248,0,0,0,.2-1.418.408.408,0,0,1,.207-.335.39.39,0,0,1,.393-.027" fill="#3f5146"/>
        <path id="Path_21757" data-name="Path 21757" d="M255.2,197.93l-.027-.254a.5.5,0,0,1,.1-.374.517.517,0,0,1,.326-.214c.045-.018.067-.045.067-.08V189.65a.047.047,0,0,0-.054-.053.335.335,0,0,1-.253-.113.367.367,0,0,1-.106-.261v-.388a.752.752,0,0,1,.746-.749h2.9a.722.722,0,0,1,.479.181.708.708,0,0,1,.253.448c.008.062.058.1.146.12a.392.392,0,0,1,.173.134c.035.036.062.036.08,0l.426-.856a.787.787,0,0,1,.38-.381.664.664,0,0,1,.52-.04.544.544,0,0,1,.353.327.61.61,0,0,1-.014.482q-.333.683-.786,1.5a.162.162,0,0,0,.013.187.826.826,0,0,1,.093.121.844.844,0,0,0,.093.12c.054.054.1.049.133-.013q.32-.535.706-1.311a.844.844,0,0,1,.466-.434.868.868,0,0,1,.626-.02l.147.04a.082.082,0,0,0,.106-.027.337.337,0,0,1,.273-.16.316.316,0,0,1,.287.12,2.246,2.246,0,0,1,.146.174c.062.08.107.138.133.174a.084.084,0,0,0,.147-.013q.054-.081.4-.856a.7.7,0,0,1,.366-.374.75.75,0,0,1,.539-.04.541.541,0,0,1,.353.328.571.571,0,0,1-.02.488q-.361.762-.786,1.512a.162.162,0,0,0,.013.187.781.781,0,0,1,.094.121.814.814,0,0,0,.094.12c.008.018.028.027.06.027a.1.1,0,0,0,.073-.027q.412-.7.773-1.431a.787.787,0,0,1,.4-.368.713.713,0,0,1,.533-.02.542.542,0,0,1,.34.321.529.529,0,0,1-.02.468q-.467.9-.8,1.445c-.008.035.009.058.054.067l.133-.027a.805.805,0,0,1,.593.094.7.7,0,0,1,.34.482q.306,1.3.4,1.873a.691.691,0,0,1-.1.515.623.623,0,0,1-.419.3l-.133.027a.464.464,0,0,1-.4-.081.535.535,0,0,1-.226-.348.1.1,0,0,0-.094-.067l-2.8.254a.035.035,0,0,0-.04.04.289.289,0,0,1-.04.221.278.278,0,0,1-.173.14l-.173.027a.1.1,0,0,0-.066.093v1.5a5.614,5.614,0,0,1-.506,2.588,3.454,3.454,0,0,1-1.585,1.5,1.114,1.114,0,0,1-.679.08,1.334,1.334,0,0,1-.626-.307l-.173-.174a.429.429,0,0,1-.133-.428.451.451,0,0,1,.293-.348,3.223,3.223,0,0,0,1.292-.843c.044-.062.026-.1-.054-.107h-.932a.74.74,0,0,1-.546-.227.748.748,0,0,1-.227-.548v-1.94a.74.74,0,0,1,.22-.542.711.711,0,0,1,.519-.221.764.764,0,0,1,.753.762v1.164a.106.106,0,0,0,.12.121h.533a.106.106,0,0,0,.119-.121c0-.036,0-.1.007-.2s.006-.169.006-.214V195a.652.652,0,0,1,.2-.488.68.68,0,0,1,.492-.194c.072,0,.1-.031.081-.094-.036-.179-.062-.321-.081-.428a.133.133,0,0,0-.146-.107l-2.61.241a.6.6,0,0,1-.6-.268.043.043,0,0,0-.041-.027.024.024,0,0,0-.026.027v5.792a.69.69,0,0,1-.2.508.676.676,0,0,1-.5.2.7.7,0,0,1-.506-.2.679.679,0,0,1-.207-.508v-1.19q0-.107-.107-.081-.506.121-1.678.348a.659.659,0,0,1-.553-.114.647.647,0,0,1-.273-.489m1.838-8.213v1.23c0,.072.04.107.119.107h.534c.079,0,.119-.035.119-.107v-1.23a.106.106,0,0,0-.119-.121h-.534a.106.106,0,0,0-.119.121m0,2.769v1.284a.106.106,0,0,0,.119.12h.534a.106.106,0,0,0,.119-.12v-1.284a.106.106,0,0,0-.119-.12h-.534a.106.106,0,0,0-.119.12m0,2.823v1.351a.094.094,0,0,0,.04.073.078.078,0,0,0,.079.02c.063-.018.153-.04.274-.067s.206-.049.26-.067a.131.131,0,0,0,.119-.134v-1.177c0-.071-.04-.107-.119-.107h-.534c-.079,0-.119.035-.119.107m3.316-3.638q-.72-.95-1.052-1.338v-.013l-.013-.014a.043.043,0,0,0-.041-.007.032.032,0,0,0-.026.033v2.515a.045.045,0,0,0,.02.04c.014.009.024.009.034,0a.666.666,0,0,1,.492-.294.192.192,0,0,0,.159-.094c.036-.044.178-.254.427-.629a.166.166,0,0,0,0-.2m1.145.709c-.044.062-.031.093.04.093l.719-.053c.08,0,.111-.045.094-.134-.018-.107-.049-.252-.094-.435s-.071-.305-.08-.368-.045-.071-.08-.027q-.187.321-.6.923m.826-1.324c-.009.036.009.058.053.067l.186-.04a.746.746,0,0,1,.593.087.709.709,0,0,1,.34.462c.026.1.06.247.1.448s.074.341.1.422a.134.134,0,0,0,.147.107l.134-.013a.2.2,0,0,0,.173-.094c.036-.044.177-.254.426-.629a.148.148,0,0,0,0-.188q-.839-1.1-1.438-1.792c-.054-.053-.1-.045-.147.027q-.439.762-.666,1.137m2.624,3.264a.733.733,0,0,1,.546.234.755.755,0,0,1,.226.542v1.458c0,.08.036.12.107.12h.559c.071,0,.107-.04.107-.12v-1.324a.751.751,0,0,1,.226-.549.737.737,0,0,1,.54-.228.715.715,0,0,1,.533.228.763.763,0,0,1,.219.549v2.715a.74.74,0,0,1-.219.542.715.715,0,0,1-.526.221h-.32a.481.481,0,0,1-.453-.455.059.059,0,0,0-.066-.067h-.6c-.071,0-.107.04-.107.121v1.137a.717.717,0,0,1-.233.542.759.759,0,0,1-.539.221h-.133a.731.731,0,0,1-.54-.221.738.738,0,0,1-.22-.542v-4.347a.749.749,0,0,1,.227-.548.727.727,0,0,1,.533-.227Zm.759-1.926q-.053.08.054.08l.8-.053a.1.1,0,0,0,.074-.04.1.1,0,0,0,.02-.094c-.009-.045-.038-.176-.087-.395s-.086-.381-.113-.488a.059.059,0,0,0-.04-.033.055.055,0,0,0-.053.02q-.08.134-.653,1" fill="#3f5146"/>
        <path id="Path_21758" data-name="Path 21758" d="M272.617,199.923a.673.673,0,0,1-.513-.22.735.735,0,0,1-.207-.521.7.7,0,0,1,.214-.516.691.691,0,0,1,.506-.214H273c.08,0,.12-.036.12-.107v-2.381a.726.726,0,0,1,.226-.542.756.756,0,0,1,.546-.221h8.365a.758.758,0,0,1,.547.221.727.727,0,0,1,.226.542v2.381c0,.071.041.107.12.107h.387a.683.683,0,0,1,.512.214.717.717,0,0,1,.207.516.728.728,0,0,1-.213.521.683.683,0,0,1-.506.22Zm9.031-6.394q.333,0,.393-.067a.7.7,0,0,0,.06-.375v-.134a.12.12,0,0,0-.12-.134h-2.345a.2.2,0,0,0-.173.134,4.139,4.139,0,0,1-1.558,2.06.734.734,0,0,1-.593.121.794.794,0,0,1-.513-.335l-.08-.12a.935.935,0,0,1-.146-.495.142.142,0,0,0-.02-.074.046.046,0,0,0-.06-.02.112.112,0,0,0-.053.013h-2.384c-.062,0-.094.027-.094.08a.588.588,0,0,1-.174.421.551.551,0,0,1-.412.181h-.32a.732.732,0,0,1-.546-.234.769.769,0,0,1-.227-.555v-5.056a.757.757,0,0,1,.234-.555.737.737,0,0,1,.539-.234H276.4a.711.711,0,0,1,.54.234.784.784,0,0,1,.219.555v4.28c0,.018.014.032.041.04a.058.058,0,0,0,.066-.013,3.811,3.811,0,0,0,.786-2.608v-1.846a.739.739,0,0,1,.233-.549.752.752,0,0,1,.54-.227H283.1a.733.733,0,0,1,.546.234.755.755,0,0,1,.227.542v4.04q0,.762-.034,1.144a1.189,1.189,0,0,1-.207.615.669.669,0,0,1-.406.28,4.231,4.231,0,0,1-.753.047q-.494,0-1.372-.04a.719.719,0,0,1-.507-.221.806.806,0,0,1-.227-.5.639.639,0,0,1,.653-.656c.382.018.591.027.626.027m-6.047-3.063v-.789c0-.071-.04-.107-.12-.107h-1.4c-.08,0-.12.036-.12.107v.789c0,.071.04.107.12.107h1.4c.08,0,.12-.036.12-.107m0,2.193v-.776a.106.106,0,0,0-.12-.12h-1.4a.106.106,0,0,0-.12.12v.776a.106.106,0,0,0,.12.12h1.4a.106.106,0,0,0,.12-.12m-.786,4v1.686c0,.071.04.107.119.107h1.012a.094.094,0,0,0,.107-.107V196.66c0-.08-.035-.12-.107-.12h-1.012a.106.106,0,0,0-.119.12m2.65,0v1.686a.1.1,0,0,0,.107.107h1.012a.1.1,0,0,0,.107-.107V196.66c0-.08-.035-.12-.107-.12h-1.012q-.107,0-.107.12m2.251-7.117v.308c0,.072.04.107.12.107h2.144c.08,0,.12-.036.12-.107v-.308c0-.071-.039-.111-.12-.12h-2.144c-.08.009-.12.049-.12.12m2.264,2.154a.106.106,0,0,0,.12-.12v-.361a.12.12,0,0,0-.12-.134h-2.144c-.08,0-.12.045-.12.134v.361c0,.08.035.12.106.12ZM280.1,196.66v1.686a.094.094,0,0,0,.106.107h1.013c.08,0,.12-.036.12-.107V196.66a.106.106,0,0,0-.12-.12h-1.013c-.071,0-.106.04-.106.12" fill="#3f5146"/>
      </g>
      <g id="Group_751" data-name="Group 751">
        <path id="Path_21759" data-name="Path 21759" d="M155.263,138.526H130.789a5.253,5.253,0,0,0,0,10.506h5.85a1.159,1.159,0,0,1,1.156,1.161v24.966a5.354,5.354,0,0,0,5.33,5.39,5.243,5.243,0,0,0,5.131-5.252v-25.1a1.159,1.159,0,0,1,1.156-1.161h5.85a5.253,5.253,0,0,0,0-10.506" fill="#3f5146"/>
        <rect id="Rectangle_3320" data-name="Rectangle 3320" width="11.078" height="13.33" transform="translate(232.309 170.641) rotate(-65.924)" fill="#3f5146"/>
        <path id="Path_21760" data-name="Path 21760" d="M260.04,170.606l-4.545-10.145L243.39,165.93l1.036,2.313h0l0,0a4.294,4.294,0,0,0,1.614,8.2,4.238,4.238,0,0,0,1.891-.381l0,0h0v0Z" fill="#ead065"/>
        <path id="Path_21761" data-name="Path 21761" d="M247.916,168.243l0,0L235.8,162.8l-3.488,7.84,12.12,5.438,0,0a4.234,4.234,0,0,0,1.892.376,4.294,4.294,0,0,0,1.593-8.208" fill="#3f5146"/>
        <path id="Path_21762" data-name="Path 21762" d="M252.581,142.525a6.6,6.6,0,0,0-2.981-3.258,7.071,7.071,0,0,0-9.845,3.376l-13.964,31.9a4.285,4.285,0,0,0,3.908,6.012h1.136a4.268,4.268,0,0,0,3.919-2.587l9.494-22.08a2.079,2.079,0,0,1,3.822,0l9.559,22.092a4.272,4.272,0,0,0,3.918,2.58h1.135a4.289,4.289,0,0,0,3.911-6.017Z" fill="#3f5146"/>
        <path id="Path_21763" data-name="Path 21763" d="M250.7,166.028l-1.263-2.816-6.052,2.737,0,.006a1.538,1.538,0,0,0,1.136,2.859c.042-.017.078-.041.119-.061l0,.011Z" fill="#ead065"/>
        <path id="Path_21764" data-name="Path 21764" d="M213.076,149.939a5.943,5.943,0,0,0-5.93,5.955v18.815a5.93,5.93,0,1,0,11.86,0V155.895a5.943,5.943,0,0,0-5.93-5.955" fill="#3f5146"/>
        <path id="Path_21765" data-name="Path 21765" d="M213.076,135.258a6.237,6.237,0,0,0-6.195,6.221c0,3.413,6.195,10.057,6.195,10.057s6.195-6.644,6.195-10.057a6.238,6.238,0,0,0-6.195-6.221m0,7.524a1.723,1.723,0,1,1,1.716-1.723,1.72,1.72,0,0,1-1.716,1.723" fill="#ead065"/>
        <g id="Group_750" data-name="Group 750">
          <path id="Path_21766" data-name="Path 21766" d="M187,154.528a8.026,8.026,0,0,0,0-16.052H171.843v.014c-.091,0-.181-.014-.273-.014a5.242,5.242,0,0,0-5.231,5.253v31.517a5.242,5.242,0,0,0,5.231,5.253c.092,0,.182-.009.273-.014v.014H187a12.986,12.986,0,0,0,0-25.972Zm0-9.677a1.651,1.651,0,1,1-1.644,1.651A1.648,1.648,0,0,1,187,144.852Z" fill="#3f5146"/>
          <path id="Path_21767" data-name="Path 21767" d="M182.112,167.2a5.638,5.638,0,0,0,9.786,0,5.638,5.638,0,0,0-9.786,0Z" fill="#ead065"/>
          <path id="Path_21768" data-name="Path 21768" d="M187,165.595a1.651,1.651,0,1,1-1.644,1.651A1.647,1.647,0,0,1,187,165.595Z" fill="#3f5146"/>
        </g>
      </g>
    </g>
  </g>
</svg>
