<svg id="向量圖智慧型物件" xmlns="http://www.w3.org/2000/svg" xmlns:xlink="http://www.w3.org/1999/xlink" width="195" height="87" viewBox="0 0 195 87">
  <defs>
    <clipPath id="clip-path">
      <rect id="Rectangle_3322" data-name="Rectangle 3322" width="195" height="87" fill="none"/>
    </clipPath>
  </defs>
  <g id="Group_754" data-name="Group 754">
    <g id="Group_753" data-name="Group 753" clip-path="url(#clip-path)">
      <path id="Path_21769" data-name="Path 21769" d="M40.964,4.49H7.214a7.219,7.219,0,0,0,0,14.438H15.28a1.594,1.594,0,0,1,1.594,1.6V54.834a7.372,7.372,0,0,0,7.351,7.408A7.218,7.218,0,0,0,31.3,55.023v-34.5a1.594,1.594,0,0,1,1.593-1.6h8.067a7.219,7.219,0,0,0,0-14.438" fill="#f7f8f8"/>
      <rect id="Rectangle_3321" data-name="Rectangle 3321" width="15.286" height="18.307" transform="matrix(0.408, -0.913, 0.913, 0.408, 147.216, 48.627)" fill="#f7f8f8"/>
      <path id="Path_21770" data-name="Path 21770" d="M185.457,48.578,179.19,34.636,162.5,42.151l1.428,3.179h0l0,.005a5.894,5.894,0,1,0,4.833,10.752l0,0h0v0Z" fill="#ead065"/>
      <path id="Path_21771" data-name="Path 21771" d="M168.739,45.33l0-.006-16.714-7.473-4.811,10.773L163.93,56.1l0-.005a5.894,5.894,0,1,0,4.806-10.764" fill="#f7f8f8"/>
      <path id="Path_21772" data-name="Path 21772" d="M175.17,9.986a9.082,9.082,0,0,0-4.111-4.478,9.767,9.767,0,0,0-13.577,4.64L138.225,53.988a5.892,5.892,0,0,0,5.389,8.262h1.567a5.886,5.886,0,0,0,5.4-3.557l13.093-30.344a2.872,2.872,0,0,1,5.272-.006L182.133,58.7a5.891,5.891,0,0,0,5.4,3.547H189.1a5.9,5.9,0,0,0,5.393-8.27Z" fill="#f7f8f8"/>
      <path id="Path_21773" data-name="Path 21773" d="M172.572,42.286l-1.741-3.869-8.346,3.761,0,.008a2.115,2.115,0,0,0,1.566,3.929c.058-.022.108-.056.164-.084l.007.015Z" fill="#ead065"/>
      <path id="Path_21774" data-name="Path 21774" d="M120.692,20.175a8.182,8.182,0,0,0-8.179,8.185V54.217a8.178,8.178,0,1,0,16.356,0V28.36a8.181,8.181,0,0,0-8.178-8.185" fill="#f7f8f8"/>
      <path id="Path_21775" data-name="Path 21775" d="M120.692,0a8.587,8.587,0,0,0-8.543,8.549c0,4.691,8.543,13.822,8.543,13.822s8.542-9.131,8.542-13.822A8.587,8.587,0,0,0,120.692,0m0,10.34a2.368,2.368,0,1,1,2.367-2.367,2.367,2.367,0,0,1-2.367,2.367" fill="#ead065"/>
      <path id="Path_21776" data-name="Path 21776" d="M15.972,76.822a.5.5,0,0,1-.364-.153.523.523,0,0,1,0-.741.5.5,0,0,1,.364-.154h4.141a.065.065,0,0,0,.074-.073.484.484,0,0,1,.154-.352.5.5,0,0,1,.364-.154h.864a.5.5,0,0,1,.363.154.485.485,0,0,1,.155.352.065.065,0,0,0,.073.073H26.3a.5.5,0,0,1,.365.154.526.526,0,0,1,0,.741.5.5,0,0,1-.365.153H22.2c-.073,0-.11.035-.11.1v.1q0,.1.11.11h3.587a.443.443,0,0,1,.315.123.416.416,0,0,1,.129.315.442.442,0,0,1-.444.45H16.489a.424.424,0,0,1-.314-.129.432.432,0,0,1-.129-.32.416.416,0,0,1,.129-.315.439.439,0,0,1,.314-.123h3.587a.1.1,0,0,0,.111-.11v-.1c0-.065-.037-.1-.111-.1ZM16,86.754a.543.543,0,0,1,0-1.087h4.13a.087.087,0,0,0,.1-.1v-.123q0-.11-.1-.11H16.81a.458.458,0,0,1-.327-.137.433.433,0,0,1-.142-.326.446.446,0,0,1,.135-.326.453.453,0,0,1,.333-.137h3.316c.065,0,.1-.037.1-.111v-.173c0-.065-.037-.1-.111-.1q-1.172.049-3.526.1a.537.537,0,0,1-.369-.141.475.475,0,0,1-.172-.34.465.465,0,0,1,.122-.352.442.442,0,0,1,.346-.154l1.429-.037a.213.213,0,0,0,.172-.074c.1-.115.181-.214.247-.3.041-.056.03-.087-.037-.087h-1.59a.354.354,0,0,1-.247-.1.334.334,0,0,1-.111-.252c0-.035-.016-.05-.049-.05h-.111a.7.7,0,0,1-.511-.21.676.676,0,0,1-.216-.506v-.346a.676.676,0,0,1,.216-.506.706.706,0,0,1,.511-.209h9.836a.7.7,0,0,1,.512.215.688.688,0,0,1,.216.5v.346a.68.68,0,0,1-.216.506.708.708,0,0,1-.512.21h-.11a.043.043,0,0,0-.05.05.35.35,0,0,1-.1.247.338.338,0,0,1-.253.109H25.3c-.017,0-.025.007-.025.019a.04.04,0,0,0,.012.031c.091.067.22.168.388.309s.281.234.339.283a.375.375,0,0,1,.142.388.4.4,0,0,1-.265.327l-.209.074a1.137,1.137,0,0,1-1.147-.222.27.27,0,0,0-.172-.05q-.74.049-2.207.137a.1.1,0,0,0-.111.11V84.3a.1.1,0,0,0,.1.111H25.3a.457.457,0,0,1,.326.137.447.447,0,0,1,0,.652.457.457,0,0,1-.326.137H22.148c-.065,0-.1.037-.1.11v.123a.088.088,0,0,0,.1.1h4.13a.543.543,0,0,1,0,1.087ZM17.476,78.3H24.8a.685.685,0,0,1,.505.215.7.7,0,0,1,.21.5v.443a.717.717,0,0,1-.715.716H17.476a.717.717,0,0,1-.715-.716v-.443a.717.717,0,0,1,.715-.716m-.222,3.4h7.766a.11.11,0,0,0,.123-.111V81.51c0-.072-.042-.11-.123-.11H17.254a.111.111,0,0,0-.123.11V81.6a.111.111,0,0,0,.123.111m6.41-2.393v-.136a.112.112,0,0,0-.111-.123H18.708c-.066,0-.1.042-.1.123v.136c0,.073.033.111.1.111h4.844a.1.1,0,0,0,.111-.111M20.028,83.04q1.01-.037,3.217-.136c.016,0,.029-.011.037-.031a.039.039,0,0,0-.012-.05l-.079-.055a.69.69,0,0,1-.081-.061.326.326,0,0,0-.2-.063h-2.54a.249.249,0,0,0-.184.075c-.024.033-.061.081-.111.142s-.077.1-.086.105q-.026.049.037.073" fill="#f7f8f8"/>
      <path id="Path_21777" data-name="Path 21777" d="M30.626,79.957a.767.767,0,0,1-.227-.506.748.748,0,0,1,.166-.531.618.618,0,0,1,.463-.228.605.605,0,0,1,.487.178q.332.321.887.927a.8.8,0,0,1,.2.529.874.874,0,0,1-.179.555.6.6,0,0,1-.912.013c-.248-.281-.544-.591-.888-.937m.321,6.426a.853.853,0,0,1-.345-.445.828.828,0,0,1,.012-.579,23.12,23.12,0,0,0,.875-2.493.612.612,0,0,1,.333-.412.642.642,0,0,1,.53-.032h.012a.8.8,0,0,1,.438.382.765.765,0,0,1,.056.579,25.765,25.765,0,0,1-.913,2.776.575.575,0,0,1-.388.352.583.583,0,0,1-.511-.08Zm.691-8.6q-.715-.752-.741-.79a.721.721,0,0,1-.215-.48.676.676,0,0,1,.16-.5.589.589,0,0,1,.444-.228.608.608,0,0,1,.461.172q.272.248.752.765a.738.738,0,0,1,.2.506.857.857,0,0,1-.178.542.6.6,0,0,1-.887.013m1.528,1.542a.455.455,0,0,1-.358-.129.5.5,0,0,1-.16-.338v-.025a.494.494,0,0,1,.455-.518.132.132,0,0,0,.123-.061,1.162,1.162,0,0,1,.106-.123,1.469,1.469,0,0,0,.1-.123.107.107,0,0,0,0-.161q-.16-.173-.505-.517a.676.676,0,0,1-.123-.851l.1-.161a.244.244,0,0,1,.184-.131.235.235,0,0,1,.209.068c.026.025.046.025.062,0,.132-.213.251-.411.358-.591a.629.629,0,0,1,.29-.26.528.528,0,0,1,.388-.024.369.369,0,0,1,.247.228.353.353,0,0,1-.025.339q-.406.667-.579.925a.146.146,0,0,0,.012.186c.05.049.095.054.135.012s.214-.308.543-.777a.5.5,0,0,1,.69-.2.346.346,0,0,1,.228.227.373.373,0,0,1-.044.327q-.086.124-.652.876c-.009.017.007.037.048.062a.58.58,0,0,1,.494.023A.558.558,0,0,1,35.8,78q.073.283.259,1.085a.432.432,0,0,1-.049.315.417.417,0,0,1-.247.2c-.024.009-.038.037-.038.087.033.247.074.653.123,1.221a.463.463,0,0,1-.092.315.4.4,0,0,1-.271.166.363.363,0,0,1-.29-.073.353.353,0,0,1-.134-.26c-.025-.395-.067-.77-.124-1.122a.4.4,0,0,1,.345-.431c.049,0,.065-.025.049-.074a.155.155,0,0,1-.012-.061.141.141,0,0,0-.012-.062.124.124,0,0,0-.135-.1l-.234.012a.1.1,0,0,0-.111.111v1.69a.518.518,0,0,1-.154.37.507.507,0,0,1-.74,0,.518.518,0,0,1-.154-.37V79.388c0-.064-.038-.1-.111-.1Zm.167,2.042a.432.432,0,0,1-.309.067.351.351,0,0,1-.259-.173.392.392,0,0,1-.056-.308c.066-.312.123-.658.172-1.035a.43.43,0,0,1,.149-.278.38.38,0,0,1,.283-.093.426.426,0,0,1,.278.155.4.4,0,0,1,.092.29,10.907,10.907,0,0,1-.172,1.122.41.41,0,0,1-.178.253m.153,1.314a.5.5,0,0,1-.147-.366.455.455,0,0,1,.147-.351.5.5,0,0,1,.345-.135h6.9a.719.719,0,0,1,.511.2.658.658,0,0,1,.216.5v.888a.672.672,0,0,1-.216.5.705.705,0,0,1-.511.211H35.249a.118.118,0,0,0-.124.1c-.016.051-.029.092-.037.124a.09.09,0,0,0,.019.081.082.082,0,0,0,.067.042h5.991a.617.617,0,0,1,.481.209.543.543,0,0,1,.123.5,2.35,2.35,0,0,1-.648,1.467A2.682,2.682,0,0,1,39.538,87q-.85,0-2.132-.062A.636.636,0,0,1,37,86.766a.588.588,0,0,1-.183-.419.47.47,0,0,1,.154-.382.5.5,0,0,1,.388-.148q.851.049,1.761.049a1.939,1.939,0,0,0,.575-.055.409.409,0,0,0,.216-.267c.015-.064-.008-.1-.074-.109H34.867a.1.1,0,0,0-.1.073.54.54,0,0,1-.629.418l-.481-.036a.562.562,0,0,1-.432-.24.543.543,0,0,1-.073-.476q.122-.431.332-1.283a.9.9,0,0,1,.31-.52.839.839,0,0,1,.553-.209h5.314a.108.108,0,0,0,.123-.1V82.94c0-.073-.042-.109-.123-.109H33.831a.481.481,0,0,1-.345-.148m.986-4.515c-.041.041-.024.061.05.061l.406-.024c.066,0,.095-.037.087-.11-.009-.034-.024-.091-.05-.173s-.045-.144-.061-.186a.051.051,0,0,0-.037-.03.052.052,0,0,0-.05.017c-.033.049-.091.123-.172.222a2.753,2.753,0,0,0-.173.222m4.056-1.7a.414.414,0,0,1,.3.129.424.424,0,0,1,.129.309.434.434,0,0,1-.123.308.412.412,0,0,1-.309.129H36.383a.435.435,0,0,1-.308-.129.417.417,0,0,1,0-.617.43.43,0,0,1,.308-.129Zm-.148-.2h-1.86a.367.367,0,0,1-.272-.112.4.4,0,0,1,0-.555.37.37,0,0,1,.272-.111h1.86a.394.394,0,0,1,.277.111.387.387,0,0,1,0,.555.39.39,0,0,1-.277.112m-1.86,2.085a.367.367,0,0,1-.272-.112.4.4,0,0,1,0-.555.366.366,0,0,1,.272-.111h1.86a.389.389,0,0,1,.277.111.387.387,0,0,1,0,.555.39.39,0,0,1-.277.112Zm0,1.011a.354.354,0,0,1-.272-.118.4.4,0,0,1,0-.555.357.357,0,0,1,.272-.117h1.86a.379.379,0,0,1,.277.117.387.387,0,0,1,0,.555.376.376,0,0,1-.277.118Zm-.383,1.455v-.506a.7.7,0,0,1,.216-.512.683.683,0,0,1,.5-.216h1.2a.736.736,0,0,1,.726.728v.506a.668.668,0,0,1-.215.5.727.727,0,0,1-.511.2h-1.2a.7.7,0,0,1-.505-.2.671.671,0,0,1-.21-.5m.974-.382V80.6c0,.065.037.1.111.1H37.7a.086.086,0,0,0,.1-.1v-.161c0-.073-.033-.111-.1-.111h-.481a.1.1,0,0,0-.111.111m4.178-2.849a.609.609,0,0,1,.488.031A.575.575,0,0,1,42.09,78q.122.456.271,1.085a.428.428,0,0,1-.049.315.414.414,0,0,1-.247.2c-.033.009-.05.037-.05.087.066.552.112.982.135,1.3a.44.44,0,0,1-.093.3.417.417,0,0,1-.288.166.346.346,0,0,1-.283-.081.388.388,0,0,1-.137-.278c-.024-.395-.066-.777-.122-1.147a.389.389,0,0,1,.093-.29.4.4,0,0,1,.264-.154c.041,0,.054-.03.037-.086a.079.079,0,0,1-.011-.05A.14.14,0,0,0,41.6,79.3a.117.117,0,0,0-.123-.1l-.246.012a.1.1,0,0,0-.112.111v1.69a.533.533,0,0,1-.148.37.475.475,0,0,1-.364.16.516.516,0,0,1-.376-.16.508.508,0,0,1-.16-.37V79.388a.088.088,0,0,0-.1-.1l-.505.038A.469.469,0,0,1,39.1,79.2a.478.478,0,0,1-.167-.338v-.025a.456.456,0,0,1,.129-.352.49.49,0,0,1,.338-.166.121.121,0,0,0,.111-.061,1.283,1.283,0,0,1,.1-.123c.049-.058.086-.1.11-.123a.105.105,0,0,0,0-.161c-.222-.239-.387-.411-.493-.517a.792.792,0,0,1-.2-.4.685.685,0,0,1,.067-.45l.1-.161a.261.261,0,0,1,.406-.062q.037.038.049,0c.222-.345.345-.542.37-.591a.518.518,0,0,1,.665-.284.411.411,0,0,1,.248.234.366.366,0,0,1-.013.333q-.333.543-.591.925c-.042.049-.037.112.012.186.049.049.094.054.135.012q.248-.333.554-.777a.5.5,0,0,1,.691-.2.348.348,0,0,1,.216.227.379.379,0,0,1-.043.327q-.2.309-.642.876a.076.076,0,0,0,.037.062m-1.479,3.453a.415.415,0,0,1-.178.259.422.422,0,0,1-.314.073.348.348,0,0,1-.253-.166.375.375,0,0,1-.056-.3,9.529,9.529,0,0,0,.16-1,.426.426,0,0,1,.149-.265.38.38,0,0,1,.283-.093.424.424,0,0,1,.278.155.392.392,0,0,1,.091.29,9.407,9.407,0,0,1-.16,1.048M41.215,78.2c.065,0,.095-.037.087-.11-.008-.034-.024-.091-.05-.173s-.046-.144-.061-.186a.051.051,0,0,0-.038-.03.05.05,0,0,0-.049.017c-.033.049-.09.123-.172.222s-.145.172-.185.222-.019.061.062.061Z" fill="#f7f8f8"/>
      <path id="Path_21778" data-name="Path 21778" d="M46.229,81.165a.716.716,0,0,1-.369-.413.7.7,0,0,1,.024-.55,24.519,24.519,0,0,0,1.343-3.861.754.754,0,0,1,.327-.463.742.742,0,0,1,.548-.117l.161.025a.645.645,0,0,1,.455.3.68.68,0,0,1,.1.53c-.017.058-.04.154-.068.29s-.052.233-.068.291.008.1.073.1h1.923a.086.086,0,0,0,.1-.1V76.144a.7.7,0,0,1,.217-.512.679.679,0,0,1,.5-.216h.3a.678.678,0,0,1,.5.216.709.709,0,0,1,.21.512v1.049c0,.066.037.1.112.1h3.228a.738.738,0,0,1,.727.722.738.738,0,0,1-.727.722H52.615c-.075,0-.112.033-.112.1v2a.1.1,0,0,0,.112.111H55.24a.693.693,0,0,1,.494.2.687.687,0,0,1,0,.987.686.686,0,0,1-.494.2H52.615c-.075,0-.112.034-.112.1V85a.1.1,0,0,0,.112.11h3.648a.712.712,0,0,1,.511.21.675.675,0,0,1,.215.5.736.736,0,0,1-.726.722H46.6a.738.738,0,0,1-.727-.722.676.676,0,0,1,.216-.5.71.71,0,0,1,.511-.21h4.08c.067,0,.1-.036.1-.11V82.436a.087.087,0,0,0-.1-.1H48.3a.662.662,0,0,1-.487-.2.7.7,0,0,1,.487-1.19h2.379c.067,0,.1-.037.1-.111v-2a.087.087,0,0,0-.1-.1H48.324a.135.135,0,0,0-.135.1q-.332.976-.837,2.1a.654.654,0,0,1-.4.364.7.7,0,0,1-.548-.043Z" fill="#f7f8f8"/>
      <path id="Path_21779" data-name="Path 21779" d="M61.648,80.783a.632.632,0,0,1-.487.073.647.647,0,0,1-.414-.3.687.687,0,0,1-.1-.506,29.45,29.45,0,0,0,.455-3.479.6.6,0,0,1,.217-.445.585.585,0,0,1,.469-.142.671.671,0,0,1,.436.222.622.622,0,0,1,.161.463q-.012.2-.038.579a.088.088,0,0,0,.1.1h.111a.1.1,0,0,0,.11-.1v-1.1a.715.715,0,0,1,.715-.715h.185a.713.713,0,0,1,.714.715v1.1c0,.066.038.1.111.1h.3a.679.679,0,0,1,.5.2.7.7,0,0,1,0,.987.678.678,0,0,1-.5.2h-.3a.1.1,0,0,0-.111.111V81.51c0,.066.033.092.1.074a1.579,1.579,0,0,0,.178-.05,1.47,1.47,0,0,1,.192-.049.58.58,0,0,1,.493.074.515.515,0,0,1,.234.432V82.1a.041.041,0,0,0,.018.037c.012.008.026,0,.044-.013a11.062,11.062,0,0,0,2.391-3.9c.016-.058-.013-.087-.087-.087h-.542a.145.145,0,0,0-.149.1,12.309,12.309,0,0,1-1.282,2.208.537.537,0,0,1-.45.227.581.581,0,0,1-.474-.2l-.05-.05a.871.871,0,0,1-.221-.535.8.8,0,0,1,.16-.563,12.256,12.256,0,0,0,1.59-3.416.829.829,0,0,1,.338-.468.773.773,0,0,1,.548-.137l.137.013a.6.6,0,0,1,.45.27.591.591,0,0,1,.067.519c-.017.057-.045.142-.087.253s-.069.2-.086.253.008.1.073.1h3.687a.7.7,0,0,1,.51.21.622.622,0,0,1,.2.492q-.026,1.714-.062,2.962t-.1,2.256Q72.051,83.646,72,84.3a8.228,8.228,0,0,1-.154,1.13,5.368,5.368,0,0,1-.2.727,1.021,1.021,0,0,1-.265.4.7.7,0,0,1-.321.179,2.116,2.116,0,0,1-.4.031q-.691,0-1.616-.037a.725.725,0,0,1-.518-.234.846.846,0,0,1-.235-.531V85.94a.629.629,0,0,1,.691-.655c.247.017.55.024.913.024.123,0,.222-.077.3-.234a4.561,4.561,0,0,0,.209-1.11q.1-.875.184-2.614c0-.017,0-.025-.012-.025a.035.035,0,0,0-.024.012,13.006,13.006,0,0,1-3.66,5.132.742.742,0,0,1-.537.16.75.75,0,0,1-.512-.259l-.1-.087a.614.614,0,0,1-.154-.493.691.691,0,0,1,.252-.469,11.939,11.939,0,0,0,2.645-3.072,14.734,14.734,0,0,0,1.682-4c.017-.075-.007-.112-.073-.112H69.6a.157.157,0,0,0-.149.1A15.148,15.148,0,0,1,68.1,81.2,11.086,11.086,0,0,1,66.3,83.522a.657.657,0,0,1-.506.177.714.714,0,0,1-.492-.227l-.074-.075a.656.656,0,0,1-.172-.469.083.083,0,0,0-.025-.06.038.038,0,0,0-.048-.013.852.852,0,0,1-.1.037c-.247.075-.406.12-.481.137a.128.128,0,0,0-.111.136v3.023a.668.668,0,0,1-.209.5.7.7,0,0,1-.505.2h-.185a.684.684,0,0,1-.505-.21.672.672,0,0,1-.21-.492V83.559c0-.066-.037-.091-.11-.075-.125.025-.309.06-.555.105s-.428.081-.543.105a.634.634,0,0,1-.505-.111.587.587,0,0,1-.246-.45.762.762,0,0,1,.148-.531.7.7,0,0,1,.469-.29l1.244-.271c.058-.008.091-.049.1-.123v-3.06a.1.1,0,0,0-.11-.111H62.3c-.058,0-.1.038-.112.111q-.136.988-.259,1.518a.615.615,0,0,1-.283.407" fill="#f7f8f8"/>
      <path id="Path_21780" data-name="Path 21780" d="M77.19,81.917a.734.734,0,0,1-.536-.1.816.816,0,0,1-.339-.438.557.557,0,0,1,.048-.482.57.57,0,0,1,.408-.283,17.04,17.04,0,0,0,3.365-.9c.073-.033.088-.078.037-.136l-.418-.37a.585.585,0,0,1-.193-.463.577.577,0,0,1,.217-.451.846.846,0,0,1,.541-.185.724.724,0,0,1,.519.2q.209.184.677.617a.115.115,0,0,0,.174.011A8.2,8.2,0,0,0,83.661,77.3c.015-.034,0-.058-.038-.075H80.912a.392.392,0,0,0-.2.05,17.824,17.824,0,0,1-3.23,1.6.831.831,0,0,1-.573-.005.8.8,0,0,1-.438-.377.552.552,0,0,1-.024-.48.588.588,0,0,1,.359-.346,15.344,15.344,0,0,0,4.067-2.1,1.255,1.255,0,0,1,1.233-.233l.209.073a.356.356,0,0,1,.241.253.317.317,0,0,1-.1.34.044.044,0,0,0-.013.037.022.022,0,0,0,.024.025h2.354a.568.568,0,0,1,.409.166.553.553,0,0,1,.171.413,1.715,1.715,0,0,1-.334,1.061Q82.7,80.967,77.19,81.917m9.763-1.356a.632.632,0,0,1,.615.616,2.01,2.01,0,0,1-.332,1.148,9.783,9.783,0,0,1-3.36,2.9A16.21,16.21,0,0,1,78.791,86.9a.832.832,0,0,1-.936-.568l-.012-.023a.578.578,0,0,1,.055-.5.6.6,0,0,1,.426-.277A17.309,17.309,0,0,0,82.033,84.5c.058-.023.059-.063.006-.117s-.127-.124-.22-.215-.168-.156-.217-.2a.606.606,0,0,1-.209-.476.589.589,0,0,1,.221-.475l.037-.037a.769.769,0,0,1,.53-.2.744.744,0,0,1,.531.21l.714.678a.143.143,0,0,0,.174.024,8.713,8.713,0,0,0,2.157-1.8c.04-.058.028-.087-.038-.087h-2.8a.371.371,0,0,0-.2.061,19.183,19.183,0,0,1-3.636,1.851.848.848,0,0,1-.593.006.827.827,0,0,1-.454-.389A.531.531,0,0,1,78,82.855a.569.569,0,0,1,.349-.345,15.394,15.394,0,0,0,4.511-2.382,1.213,1.213,0,0,1,1.21-.259l.283.087a.347.347,0,0,1,.227.234.277.277,0,0,1-.093.308.038.038,0,0,0-.006.038.029.029,0,0,0,.031.024Z" fill="#f7f8f8"/>
      <path id="Path_21781" data-name="Path 21781" d="M91.153,83.793l-.134-.309a1.343,1.343,0,0,1,.049-1.27,12.229,12.229,0,0,0,1.159-3.256c.015-.066-.013-.1-.088-.1h-.431a.651.651,0,0,1-.487-.21.68.68,0,0,1,.006-.975.66.66,0,0,1,.481-.209H92.2a.1.1,0,0,0,.111-.111v-1.2a.676.676,0,0,1,.216-.506.707.707,0,0,1,.51-.209h.075a.713.713,0,0,1,.714.715v1.2c0,.074.033.111.1.111H94.3a.649.649,0,0,1,.493.209.7.7,0,0,1,0,.975.647.647,0,0,1-.493.21h-.259c-.066,0-.087.03-.062.087q.272.58,1.1,2.443A1.065,1.065,0,0,1,94.9,82.6a.4.4,0,0,1-.377.142.372.372,0,0,1-.314-.24l-.344-.877a.039.039,0,0,0-.025-.012c-.008,0-.012.008-.012.025v4.552a.656.656,0,0,1-.216.5.7.7,0,0,1-.5.2h-.075a.7.7,0,0,1-.51-.21.662.662,0,0,1-.216-.492V82.646c-.008-.008-.02-.008-.038,0a10.26,10.26,0,0,1-.493,1.171.306.306,0,0,1-.314.186.356.356,0,0,1-.315-.21m3.661,1.529a6.245,6.245,0,0,0,1.467-.7c.041-.041.041-.062,0-.062h-.875a.518.518,0,0,1-.382-.16.53.53,0,0,1-.161-.388.51.51,0,0,1,.161-.382.524.524,0,0,1,.382-.154h2.021a.524.524,0,0,1,.382.154.511.511,0,0,1,.16.388,1.477,1.477,0,0,1-.307.975,3.45,3.45,0,0,1-.555.53q-.026.024-.012.043a.053.053,0,0,0,.049.019c.386.023.678.037.875.037a.728.728,0,0,0,.315-.037c.029-.025.043-.111.043-.26V83.25a.1.1,0,0,0-.111-.112H96.047a.577.577,0,0,1-.425-.177.567.567,0,0,1,0-.828.582.582,0,0,1,.425-.178h3.192a.947.947,0,0,1,.575.186,1.228,1.228,0,0,1,.388.468,3.8,3.8,0,0,0,.247.457c.033.066.073.073.122.025a5.733,5.733,0,0,0,.715-.717.817.817,0,0,1,.487-.27.763.763,0,0,1,.537.1.658.658,0,0,1,.283.438.552.552,0,0,1-.135.487,10.187,10.187,0,0,1-1.06,1.011.083.083,0,0,0-.013.123,7.918,7.918,0,0,0,1.047.9.7.7,0,0,1,.284.457.721.721,0,0,1-.111.531l-.073.1a.691.691,0,0,1-.476.278.59.59,0,0,1-.51-.155A8.3,8.3,0,0,1,100,84.507a.04.04,0,0,0-.031-.012c-.012,0-.017.009-.017.025v1.406a1,1,0,0,1-.259.808,1.843,1.843,0,0,1-1.048.2c-.255,0-.653-.013-1.2-.037a.715.715,0,0,1-.51-.229.819.819,0,0,1-.228-.512l-.013-.222c0-.065-.037-.078-.11-.037a8.47,8.47,0,0,1-1.086.629.734.734,0,0,1-.566.018.807.807,0,0,1-.432-.363l-.024-.025a.559.559,0,0,1-.017-.493.574.574,0,0,1,.35-.346m3.193-6.069c.074,0,.111-.033.111-.1v-.247c0-.064-.037-.1-.111-.1H96.121a.485.485,0,0,1-.364-.161.523.523,0,0,1-.155-.376.492.492,0,0,1,.149-.363.5.5,0,0,1,.37-.149h1.886c.074,0,.111-.033.111-.1V77.44a.1.1,0,0,0-.111-.111H95.826a.6.6,0,0,1-.451-.185.626.626,0,0,1-.177-.452.574.574,0,0,1,.184-.438.628.628,0,0,1,.444-.171h.714c.05,0,.066-.03.05-.087a.46.46,0,0,1,.037-.425.441.441,0,0,1,.344-.242l.173-.024a.857.857,0,0,1,.592.117.9.9,0,0,1,.382.45.2.2,0,0,0,.012.05.124.124,0,0,0,.024.049.172.172,0,0,0,.16.112h1.418a.159.159,0,0,0,.148-.112.149.149,0,0,0,.025-.037.107.107,0,0,0,.011-.049.848.848,0,0,1,.365-.463.877.877,0,0,1,.585-.129l.135.012a.516.516,0,0,1,.432.691c-.017.057,0,.087.061.087h.444a.626.626,0,0,1,.45.171.591.591,0,0,1,.178.438.617.617,0,0,1-.185.452.6.6,0,0,1-.443.185H99.955c-.066,0-.1.037-.1.111v.221a.087.087,0,0,0,.1.1H101.9a.506.506,0,0,1,.363.149.481.481,0,0,1,.154.363.522.522,0,0,1-.154.376.483.483,0,0,1-.363.161H99.955a.087.087,0,0,0-.1.1v.247a.087.087,0,0,0,.1.1h2.158a.575.575,0,0,1,.412.173.569.569,0,0,1,.179.425.584.584,0,0,1-.172.426.571.571,0,0,1-.419.172H95.739a.584.584,0,0,1-.426-.178.569.569,0,0,1-.178-.414.611.611,0,0,1,.6-.6Zm-.789,1.27a33.152,33.152,0,0,1,3.389.4.48.48,0,0,1,.333.233.433.433,0,0,1,.049.4.624.624,0,0,1-.277.346.659.659,0,0,1-.45.087,30.871,30.871,0,0,0-3.34-.4.418.418,0,0,1-.332-.185.428.428,0,0,1-.074-.37.657.657,0,0,1,.271-.37.671.671,0,0,1,.432-.137" fill="#f7f8f8"/>
      <path id="Path_21782" data-name="Path 21782" d="M106.374,82.41a.571.571,0,0,1-.37-.247.6.6,0,0,1-.1-.443q.3-1.7.482-3.355a.545.545,0,0,1,.2-.382.533.533,0,0,1,.413-.123.56.56,0,0,1,.345.16c.016.016.031.02.043.013a.041.041,0,0,0,.018-.038V76.156a.68.68,0,0,1,.216-.506.708.708,0,0,1,.511-.209h.185a.665.665,0,0,1,.5.209.7.7,0,0,1,.2.506v1.381a.049.049,0,0,0,.03.043.056.056,0,0,0,.057.007.407.407,0,0,1,.171-.087.55.55,0,0,1,.421.073.582.582,0,0,1,.257.346c.108.419.194.778.26,1.074.008.017.018.024.032.024s.021-.007.031-.024a22.19,22.19,0,0,0,.629-2.627.751.751,0,0,1,.3-.469.651.651,0,0,1,.518-.123l.062.012a.739.739,0,0,1,.48.291.668.668,0,0,1,.137.536c-.024.181-.074.443-.148.789-.017.066.016.1.1.1h.838c.066,0,.1-.037.1-.111V76.156a.676.676,0,0,1,.216-.506.711.711,0,0,1,.511-.209h.247a.711.711,0,0,1,.511.209.676.676,0,0,1,.216.506V77.39c0,.074.033.111.1.111h1.935a.675.675,0,0,1,.505.216.7.7,0,0,1,.21.506.674.674,0,0,1-.216.5.693.693,0,0,1-.5.209h-1.935c-.066,0-.1.037-.1.112v1.973c0,.075.033.111.1.111h1.664a.649.649,0,0,1,.493.21.7.7,0,0,1,0,.975.649.649,0,0,1-.493.21h-1.664a.087.087,0,0,0-.1.1v2.405a.088.088,0,0,0,.1.1h2.083a.685.685,0,0,1,.505.215.71.71,0,0,1,.209.507.7.7,0,0,1-.216.506.688.688,0,0,1-.5.216h-6.731a.682.682,0,0,1-.505-.216.715.715,0,0,1,0-1.012.681.681,0,0,1,.505-.215h2.749a.088.088,0,0,0,.1-.1V82.621a.087.087,0,0,0-.1-.1h-1.985a.659.659,0,0,1-.5-.216.709.709,0,0,1-.2-.5v-.493a.168.168,0,0,0-.1-.16l-.087-.037a.687.687,0,0,1-.456-.556.129.129,0,0,0-.111-.111.572.572,0,0,1-.308-.148.546.546,0,0,1-.172-.3c-.033-.164-.108-.51-.223-1.037,0-.007,0-.011-.012-.011a.01.01,0,0,0-.011.011v7.218a.68.68,0,0,1-.2.5.672.672,0,0,1-.5.2h-.185a.7.7,0,0,1-.511-.21.666.666,0,0,1-.216-.492V79.513L107.4,79.5q-.136,1.173-.358,2.467a.506.506,0,0,1-.24.364.535.535,0,0,1-.425.08m4.881-1.381c-.016.066.009.1.074.1h1.861c.066,0,.1-.036.1-.111V79.044c0-.075-.033-.112-.1-.112H112.02a.126.126,0,0,0-.137.1,19.437,19.437,0,0,1-.629,2" fill="#f7f8f8"/>
      <path id="Path_21783" data-name="Path 21783" d="M122.432,79.919a.713.713,0,0,1-.887-.42A.578.578,0,0,1,121.57,79a.648.648,0,0,1,.371-.332q1.23-.431,2.02-.789a.8.8,0,0,1,.567-.037.664.664,0,0,1,.42.357l.222.432a.118.118,0,0,0,.148.073q2.219-.518,2.452-1.529c.018-.057-.01-.087-.087-.087h-.714a.3.3,0,0,0-.2.062,6.855,6.855,0,0,1-.53.469.953.953,0,0,1-.573.178,1.031,1.031,0,0,1-.575-.192l-.022-.023a.524.524,0,0,1-.2-.432.518.518,0,0,1,.209-.432,7.406,7.406,0,0,0,1-.937,1.289,1.289,0,0,1,1.147-.493l.394.038a.334.334,0,0,1,.26.185.281.281,0,0,1-.013.308c-.017.041-.008.062.024.062h4.155a.583.583,0,0,1,.425.178.572.572,0,0,1,.177.414,1.756,1.756,0,0,1-.344,1.11,5.816,5.816,0,0,1-.506.555.78.78,0,0,1-.541.216.9.9,0,0,1-.567-.179l-.012-.012a.524.524,0,0,1-.215-.431.581.581,0,0,1,.189-.457l.112-.111q.023-.012.012-.043c-.008-.021-.021-.032-.038-.032h-1.22c-.073,0-.1.03-.086.087a1.612,1.612,0,0,0,.751,1.159,6.2,6.2,0,0,0,2.159.766.567.567,0,0,1,.393.29.537.537,0,0,1,.025.475.767.767,0,0,1-.382.419.815.815,0,0,1-.555.073.042.042,0,0,0-.055.019.12.12,0,0,0-.018.067v3.714a.673.673,0,0,1-.21.5.7.7,0,0,1-.506.2h-.665q-.012,0-.012.018c0,.013,0,.019.012.019q1.245.407,2.01.74a.577.577,0,0,1,.247.838.745.745,0,0,1-.432.321.762.762,0,0,1-.542-.025,30.808,30.808,0,0,0-2.91-1.109.519.519,0,0,1-.308-.284.467.467,0,0,1,0-.419c.016-.058,0-.091-.049-.1h-2.442c-.04,0-.052.025-.037.074a.489.489,0,0,1,.062.388.412.412,0,0,1-.247.3,15.414,15.414,0,0,1-3.142,1.185.758.758,0,0,1-.537-.049.836.836,0,0,1-.389-.395.508.508,0,0,1-.006-.457.5.5,0,0,1,.351-.3A21.883,21.883,0,0,0,124.2,84.9a.04.04,0,0,0,.012-.025c0-.008-.009-.012-.025-.012H123.3a.7.7,0,0,1-.505-.2.674.674,0,0,1-.208-.5V80.511a.669.669,0,0,1,.208-.5.7.7,0,0,1,.505-.2h1.073a.04.04,0,0,0,.038-.024.068.068,0,0,0,0-.049,1.44,1.44,0,0,1-.173-.247l-.062-.123c-.032-.066-.078-.083-.135-.049-.434.18-.97.381-1.6.6m.408-4.233c.344.116.731.256,1.157.421a.59.59,0,0,1,.31.838.741.741,0,0,1-.414.346.789.789,0,0,1-.547,0l-.354-.136c-.152-.058-.293-.113-.424-.166s-.26-.1-.382-.143a.531.531,0,0,1-.326-.32.509.509,0,0,1,.029-.457.79.79,0,0,1,.409-.357.777.777,0,0,1,.542-.027m7.185,5.43v-.21c0-.066-.037-.1-.11-.1h-5.5c-.074,0-.11.034-.11.1v.21c0,.065.036.1.11.1h5.5c.073,0,.11-.032.11-.1m0,1.307V82.2c0-.066-.037-.1-.11-.1h-5.5c-.074,0-.11.033-.11.1v.222a.1.1,0,0,0,.11.111h5.5a.1.1,0,0,0,.11-.111m0,1.307v-.209a.1.1,0,0,0-.11-.111h-5.5a.1.1,0,0,0-.11.111v.209c0,.067.036.1.11.1h5.5c.073,0,.11-.032.11-.1m-1.6-5.008a6.671,6.671,0,0,1-2.231,1.06.039.039,0,0,1,.012.024h3.784c.017,0,.026-.005.031-.018a.027.027,0,0,0-.005-.031,4.342,4.342,0,0,1-1.43-1.024.112.112,0,0,0-.16-.012" fill="#f7f8f8"/>
      <path id="Path_21784" data-name="Path 21784" d="M137.123,78.969a.641.641,0,0,1-.486-.2.682.682,0,0,1-.192-.482.672.672,0,0,1,.677-.671h3.057a.66.66,0,0,1,.678.671.666.666,0,0,1-.2.482.645.645,0,0,1-.481.2Zm.3-1.887a.612.612,0,0,1-.456-.191.635.635,0,0,1-.184-.458.613.613,0,0,1,.184-.45.623.623,0,0,1,.456-.186h2.639a.623.623,0,0,1,.456.186.614.614,0,0,1,.184.45.625.625,0,0,1-.191.458.616.616,0,0,1-.45.191Zm-.641,9.178V83.818a.719.719,0,0,1,.716-.717h2.525a.675.675,0,0,1,.505.216.7.7,0,0,1,.21.5v1.961a.683.683,0,0,1-.216.507.7.7,0,0,1-.5.209h-1.775a.055.055,0,0,0-.062.061.375.375,0,0,1-.117.284.4.4,0,0,1-.289.111h-.282a.711.711,0,0,1-.506-.2.648.648,0,0,1-.21-.493m.727-5.49a.63.63,0,0,1-.616-.622.61.61,0,0,1,.179-.438.584.584,0,0,1,.437-.185h2.552a.592.592,0,0,1,.431.185.622.622,0,0,1-.431,1.06Zm0,1.777a.588.588,0,0,1-.431-.185.6.6,0,0,1-.185-.438.567.567,0,0,1,.179-.425.606.606,0,0,1,.437-.173h2.552a.614.614,0,0,1,.431.173.558.558,0,0,1,.185.425.6.6,0,0,1-.185.438.592.592,0,0,1-.431.185Zm.677,1.888v.74a.1.1,0,0,0,.111.11h1.047c.066,0,.1-.037.112-.11v-.74a.113.113,0,0,0-.112-.124h-1.047a.113.113,0,0,0-.111.124m9.825-1.271a.807.807,0,0,1,.482.778,6.713,6.713,0,0,1-.463,2.349,1.026,1.026,0,0,1-.919.648,2.362,2.362,0,0,1-.456-.037.885.885,0,0,1-.358-.187.952.952,0,0,1-.289-.413,5.412,5.412,0,0,1-.217-.777,8.883,8.883,0,0,1-.159-1.2q-.049-.685-.093-1.739c-.029-.7-.049-1.489-.061-2.357s-.019-1.893-.019-3.078c0-.073-.033-.111-.1-.111H144c-.066,0-.1.038-.1.111v1.172q0,.95-.037,1.764c0,.066.037.1.11.111h.359a.716.716,0,0,1,0,1.431h-.457c-.081,0-.123.033-.123.1a10.526,10.526,0,0,1-.554,2.614,7.154,7.154,0,0,1-1.109,1.949.618.618,0,0,1-.949.012l-.122-.136a.787.787,0,0,1-.2-.524.835.835,0,0,1,.192-.549,5.431,5.431,0,0,0,.795-1.438,8.139,8.139,0,0,0,.4-1.919q.024-.11-.086-.11h-.272a.662.662,0,0,1-.5-.216.715.715,0,0,1-.2-.506.717.717,0,0,1,.7-.71h.358a.1.1,0,0,0,.111-.111q.024-1.061.025-1.764V77.155a.1.1,0,0,0-.112-.111h-.394a.653.653,0,0,1-.487-.209.682.682,0,0,1-.2-.488.718.718,0,0,1,.691-.7h4.5a.691.691,0,0,1,.505.21.681.681,0,0,1,.21.493q.011,8.451.221,8.45a3.845,3.845,0,0,0,.184-1.307.378.378,0,0,1,.193-.309.357.357,0,0,1,.363-.024" fill="#f7f8f8"/>
      <path id="Path_21785" data-name="Path 21785" d="M151.432,84.853l-.024-.234a.457.457,0,0,1,.094-.346.479.479,0,0,1,.3-.2c.042-.017.063-.042.063-.073V77.218a.044.044,0,0,0-.05-.05.3.3,0,0,1-.233-.105.332.332,0,0,1-.1-.241v-.358a.694.694,0,0,1,.69-.69h2.687a.667.667,0,0,1,.444.167.646.646,0,0,1,.233.413c.008.057.054.095.135.11a.363.363,0,0,1,.16.123c.034.034.058.034.075,0,.13-.262.263-.525.393-.789a.732.732,0,0,1,.351-.352.618.618,0,0,1,.482-.037.5.5,0,0,1,.326.3.558.558,0,0,1-.013.445q-.307.63-.725,1.381a.146.146,0,0,0,.011.173.63.63,0,0,1,.086.11.834.834,0,0,0,.087.111c.05.05.091.046.123-.012q.3-.492.654-1.209a.779.779,0,0,1,.432-.4.811.811,0,0,1,.579-.018l.135.037a.077.077,0,0,0,.1-.024.308.308,0,0,1,.253-.148.29.29,0,0,1,.265.111,1.686,1.686,0,0,1,.135.16c.058.073.1.127.123.16a.078.078,0,0,0,.135-.011q.049-.075.37-.79a.654.654,0,0,1,.339-.346.7.7,0,0,1,.5-.038.5.5,0,0,1,.327.3.529.529,0,0,1-.018.451q-.333.7-.728,1.395a.15.15,0,0,0,.012.172.65.65,0,0,1,.087.111.738.738,0,0,0,.087.11c.008.017.028.025.056.025a.088.088,0,0,0,.067-.025c.255-.428.494-.868.714-1.32a.733.733,0,0,1,.371-.338.656.656,0,0,1,.493-.018.5.5,0,0,1,.315.3.5.5,0,0,1-.018.432q-.432.826-.74,1.331c-.008.034.007.054.049.062l.123-.024a.75.75,0,0,1,.549.086.648.648,0,0,1,.314.445q.283,1.2.369,1.727a.636.636,0,0,1-.092.475.575.575,0,0,1-.388.277l-.123.025a.436.436,0,0,1-.371-.074.5.5,0,0,1-.209-.321.087.087,0,0,0-.087-.061l-2.589.233c-.024,0-.037.012-.037.038a.3.3,0,0,1-.2.333l-.16.024a.086.086,0,0,0-.062.086v1.381a5.164,5.164,0,0,1-.469,2.388,3.2,3.2,0,0,1-1.466,1.388,1.045,1.045,0,0,1-.63.074,1.248,1.248,0,0,1-.58-.283l-.16-.161a.4.4,0,0,1-.123-.395.416.416,0,0,1,.271-.321,2.993,2.993,0,0,0,1.2-.777c.041-.057.025-.09-.05-.1h-.862a.715.715,0,0,1-.715-.715V82.349a.675.675,0,0,1,.2-.5.656.656,0,0,1,.479-.2.678.678,0,0,1,.488.2.666.666,0,0,1,.21.5v1.073a.1.1,0,0,0,.11.112h.494a.1.1,0,0,0,.11-.112c0-.033,0-.094.007-.184s.006-.157.006-.2v-.888a.6.6,0,0,1,.185-.45.628.628,0,0,1,.455-.179c.065,0,.091-.029.074-.086-.034-.165-.058-.3-.074-.395a.125.125,0,0,0-.135-.1l-2.415.222a.562.562,0,0,1-.555-.248.042.042,0,0,0-.038-.024.022.022,0,0,0-.024.024V86.26a.636.636,0,0,1-.184.469.628.628,0,0,1-.463.185.647.647,0,0,1-.469-.185.63.63,0,0,1-.192-.469v-1.1c0-.066-.033-.09-.1-.074q-.469.112-1.554.321a.612.612,0,0,1-.511-.105.6.6,0,0,1-.253-.451m1.7-7.574v1.135c0,.066.037.1.11.1h.494c.073,0,.11-.033.11-.1V77.279a.1.1,0,0,0-.11-.111h-.494a.1.1,0,0,0-.11.111m0,2.554v1.184a.1.1,0,0,0,.11.11h.494a.1.1,0,0,0,.11-.11V79.833a.1.1,0,0,0-.11-.111h-.494a.1.1,0,0,0-.11.111m0,2.6v1.246a.087.087,0,0,0,.037.067.072.072,0,0,0,.073.018c.058-.015.143-.037.253-.061a2.332,2.332,0,0,0,.241-.062.118.118,0,0,0,.11-.122V82.436c0-.066-.037-.1-.11-.1h-.494c-.073,0-.11.033-.11.1m3.07-3.355q-.666-.878-.974-1.234v-.012l-.012-.013a.042.042,0,0,0-.038-.006.029.029,0,0,0-.024.032v2.318a.039.039,0,0,0,.018.037c.013.009.022.009.032,0a.621.621,0,0,1,.456-.27.179.179,0,0,0,.147-.087c.034-.041.165-.236.4-.58a.151.151,0,0,0,0-.185m1.059.654c-.041.058-.03.086.038.086l.665-.049c.073,0,.1-.042.087-.123-.016-.1-.046-.231-.087-.4s-.065-.282-.073-.339-.042-.065-.074-.024q-.174.3-.555.851m.765-1.221c-.009.033.008.054.049.062l.172-.038a.693.693,0,0,1,.549.081.654.654,0,0,1,.314.426c.025.09.056.227.093.413a3.726,3.726,0,0,0,.093.388.123.123,0,0,0,.135.1l.124-.011a.188.188,0,0,0,.159-.087c.034-.041.164-.236.4-.58a.138.138,0,0,0,0-.173q-.778-1.011-1.332-1.653c-.05-.05-.095-.041-.136.025q-.4.7-.615,1.048m2.429,3.01a.682.682,0,0,1,.505.216.7.7,0,0,1,.209.5v1.345c0,.074.033.11.1.11h.519c.066,0,.1-.036.1-.11V82.361a.715.715,0,0,1,.709-.716.663.663,0,0,1,.493.21.7.7,0,0,1,.2.506v2.5a.686.686,0,0,1-.2.5.664.664,0,0,1-.488.2h-.3a.444.444,0,0,1-.419-.419.056.056,0,0,0-.062-.062h-.555c-.065,0-.1.037-.1.112v1.048a.66.66,0,0,1-.216.5.7.7,0,0,1-.5.2h-.124a.7.7,0,0,1-.7-.7v-4.01a.691.691,0,0,1,.21-.506.676.676,0,0,1,.493-.21Zm.7-1.776c-.033.05-.017.073.05.073l.739-.049a.088.088,0,0,0,.068-.037.1.1,0,0,0,.018-.087c-.008-.041-.036-.162-.08-.364s-.079-.352-.1-.451a.059.059,0,0,0-.038-.031.05.05,0,0,0-.049.019q-.073.124-.6.925" fill="#f7f8f8"/>
      <path id="Path_21786" data-name="Path 21786" d="M167.554,86.692a.623.623,0,0,1-.475-.2.675.675,0,0,1-.192-.481.649.649,0,0,1,.2-.475.643.643,0,0,1,.469-.2h.358c.073,0,.11-.033.11-.1v-2.2a.673.673,0,0,1,.21-.5.7.7,0,0,1,.505-.2h7.741a.7.7,0,0,1,.505.2.669.669,0,0,1,.21.5v2.2c0,.066.037.1.111.1h.358a.635.635,0,0,1,.474.2.66.66,0,0,1,.192.475.671.671,0,0,1-.2.481.634.634,0,0,1-.469.2Zm8.357-5.9c.206,0,.328-.02.365-.062a.645.645,0,0,0,.054-.344v-.125a.11.11,0,0,0-.11-.122h-2.17a.183.183,0,0,0-.16.122,3.817,3.817,0,0,1-1.442,1.9.68.68,0,0,1-.549.111.732.732,0,0,1-.475-.309l-.073-.11a.857.857,0,0,1-.136-.457.136.136,0,0,0-.019-.068.042.042,0,0,0-.055-.017.123.123,0,0,0-.05.011h-2.206c-.058,0-.087.025-.087.074a.543.543,0,0,1-.161.388.512.512,0,0,1-.381.167h-.3a.677.677,0,0,1-.505-.216.711.711,0,0,1-.21-.512V76.564a.7.7,0,0,1,.216-.512.685.685,0,0,1,.5-.216h3.094a.659.659,0,0,1,.5.216.72.72,0,0,1,.2.512v3.948c0,.016.013.029.038.037a.052.052,0,0,0,.061-.012,3.5,3.5,0,0,0,.727-2.405v-1.7a.68.68,0,0,1,.216-.506.7.7,0,0,1,.5-.21h3.958a.682.682,0,0,1,.505.216.7.7,0,0,1,.209.5v3.725q0,.7-.031,1.054a1.081,1.081,0,0,1-.192.568.618.618,0,0,1-.375.259,3.978,3.978,0,0,1-.7.044c-.3,0-.727-.013-1.269-.037a.669.669,0,0,1-.469-.2.746.746,0,0,1-.209-.462.589.589,0,0,1,.6-.6c.354.016.546.024.579.024m-5.6-2.825v-.727c0-.066-.037-.1-.111-.1h-1.295c-.073,0-.11.034-.11.1v.727c0,.066.037.1.11.1H170.2c.074,0,.111-.033.111-.1m0,2.024v-.716a.1.1,0,0,0-.111-.111h-1.295a.1.1,0,0,0-.11.111v.716a.1.1,0,0,0,.11.11H170.2a.1.1,0,0,0,.111-.11m-.727,3.688v1.555c0,.066.037.1.111.1h.937a.087.087,0,0,0,.1-.1V83.681q0-.11-.1-.11H169.7a.1.1,0,0,0-.111.11m2.453,0v1.555a.087.087,0,0,0,.1.1h.937a.087.087,0,0,0,.1-.1V83.681c0-.073-.032-.11-.1-.11h-.937q-.1,0-.1.11m2.082-6.563V77.4c0,.065.039.1.112.1h1.985q.11,0,.11-.1v-.284q0-.1-.11-.11h-1.985c-.073.008-.112.045-.112.11m2.1,1.987a.1.1,0,0,0,.11-.112V78.66a.11.11,0,0,0-.11-.122h-1.985c-.073,0-.112.041-.112.122v.333c0,.075.034.112.1.112Zm-1.738,4.576v1.555a.087.087,0,0,0,.1.1h.938c.073,0,.11-.033.11-.1V83.681a.1.1,0,0,0-.11-.11h-.938q-.1,0-.1.11" fill="#f7f8f8"/>
      <path id="Path_21787" data-name="Path 21787" d="M84.738,26.483a11.03,11.03,0,0,0,0-22.06H63.83v.019c-.125-.006-.25-.019-.377-.019a7.216,7.216,0,0,0-7.214,7.219V54.956a7.217,7.217,0,0,0,7.214,7.219c.127,0,.252-.013.377-.019v.019H84.738a17.846,17.846,0,0,0,0-35.692m0-13.3a2.269,2.269,0,1,1-2.267,2.269,2.269,2.269,0,0,1,2.267-2.269" fill="#f7f8f8"/>
      <path id="Path_21788" data-name="Path 21788" d="M77.99,43.9a7.788,7.788,0,0,0,13.5,0,7.788,7.788,0,0,0-13.5,0" fill="#ead065"/>
      <path id="Path_21789" data-name="Path 21789" d="M84.738,41.691a2.268,2.268,0,1,1-2.267,2.269,2.268,2.268,0,0,1,2.267-2.269" fill="#f7f8f8"/>
    </g>
  </g>
</svg>
