<svg xmlns="http://www.w3.org/2000/svg" width="45.194" height="40.38" viewBox="0 0 45.194 40.38">
  <g id="mapicon" transform="translate(0 -27.272)">
    <path id="Path_55" data-name="Path 55" d="M45.184,66.87l-2.6-14.354c0-.009,0-.018,0-.026l-.944-5.2a.663.663,0,0,0-.33-.461l-1.354-.754h0l-4.28-2.382h0l-3.3-1.838h0a.658.658,0,0,0-.078-.037l-.026-.008c-.019-.007-.037-.013-.056-.018l-.033-.006-.051-.009-.035,0-.05,0-.036,0-.049,0-.036.006-.048.011-.035.011-.046.017-.035.015-.015.007-1.515.79a12.9,12.9,0,0,0,1.7-6.086,9.279,9.279,0,1,0-18.558,0,12.939,12.939,0,0,0,1.73,6.147l-1.633-.851-.016-.007-.034-.015-.046-.018-.035-.011-.048-.011-.036-.006-.049,0-.036,0-.049,0-.037,0-.049.008-.035.007c-.018,0-.036.011-.054.017l-.028.009a.668.668,0,0,0-.078.037h0L3.892,46.83a.663.663,0,0,0-.33.461L1.145,60.614a.673.673,0,0,0-.028.1L.011,66.87a.663.663,0,0,0,.924.723l10.7-4.8,10.691,4.8h0l0,0,.018.007.03.011.029.01.019.005.025.006.042.008.02,0,.014,0a.653.653,0,0,0,.067,0H22.6a.66.66,0,0,0,.08-.006h.01l.015,0a.632.632,0,0,0,.062-.014l.017,0h0l.005,0a.657.657,0,0,0,.076-.028l10.7-4.8,10.7,4.8.032.012.031.012.042.012.026.007.051.008.018,0a.655.655,0,0,0,.071,0h0a.672.672,0,0,0,.1-.008l.022,0a.647.647,0,0,0,.094-.024l.006,0a.614.614,0,0,0,.061-.024l.017-.01c.017-.008.033-.018.049-.028s.032-.02.047-.031l.016-.011c.012-.009.022-.02.033-.029L45,67.457a.635.635,0,0,0,.056-.063l.01-.012a.663.663,0,0,0,.053-.084c0-.008.008-.017.012-.025a.68.68,0,0,0,.028-.066c0-.011.007-.023.011-.034s.011-.042.015-.063,0-.024.006-.037a.674.674,0,0,0,0-.068c0-.011,0-.022,0-.033A.616.616,0,0,0,45.184,66.87Zm-4.8-19.033.844,4.646c0,.008,0,.016,0,.024l1.12,6.173L33.72,48.654l5.805-1.3Zm-6.86-3.819-.68.159-.044-.562Zm-1.447,7.435-2.77-2.163a.664.664,0,0,0-.673-.085l-5.371,2.338v-.727a31.154,31.154,0,0,0,2.406-2.2l5.984-2.629Zm-.617-7.965.085,1.094-3.738,1.642q.557-.69,1.038-1.373Zm-17.726,0,2.75,1.433q.611.859,1.339,1.73c.425.508.849.979,1.256,1.411l-5.637-.807ZM11,61.62,1.541,65.867l.783-4.362a.66.66,0,0,0,.026-.1L3.1,57.244l8.585-4.538Zm.812-10.479L3.406,55.584l.409-2.257.011-.058,8.153-4.3Zm.289-3.733-7.974,4.2.684-3.773,7.583-4.221L12.2,46.077Zm.228,14.242.628-8.109,7.836,11.91Zm9.606,3.123L13.123,51.381l.217-2.8,7.319,1.047c.552.512,1,.893,1.275,1.12v1.059l-5.316-.637a.663.663,0,0,0-.639,1.014l5.955,9.386Zm0-5.68-4.086-6.44,4.086.489Zm.706-9.486c-1.675-1.413-7.952-7.105-7.952-13.056a7.953,7.953,0,1,1,15.905,0C30.593,42.5,24.315,48.194,22.64,49.607Zm.621,16.356V63.019l1.983,2.054ZM26.53,64.5l-3.27-3.386V52.99L28.8,50.579l3.414,2.666.651,8.405Zm6.418-18.979,2.3-.538,1.631.908.9.5L33.1,47.434ZM34.2,61.62l-.518-6.686L42.2,65.214Zm-.7-8.979-.18-2.328-.008-.1,9.506,11.042.61,3.361Z" transform="translate(0 0)" fill="#3f5146"/>
    <path id="Path_56" data-name="Path 56" d="M214.967,94.066c.106-.022.21-.049.313-.079l.08-.023a4.071,4.071,0,0,0,.662-.274l.072-.037c.087-.047.171-.1.254-.151s.166-.109.245-.169a4.14,4.14,0,0,0,.353-.3,4.1,4.1,0,0,0,1.212-2.161c0-.009,0-.017,0-.026a4.1,4.1,0,0,0-4.021-4.9h0a4.087,4.087,0,0,0-2.886,1.191c-.013.011-.026.023-.039.036a4.072,4.072,0,0,0-1.126,2.238l0,.014c-.009.057-.016.115-.022.173,0,.011,0,.022,0,.033-.005.054-.009.109-.013.164,0,.014,0,.029,0,.043q-.005.1-.005.207h0a4.087,4.087,0,0,0,1.192,2.887c.011.013.022.025.035.037A4.073,4.073,0,0,0,213.5,94.1l.016,0c.057.009.114.016.171.022l.036,0c.054.005.108.009.162.012l.045,0q.1.005.207.005a4.1,4.1,0,0,0,.792-.078Zm-.975-1.247c-.044,0-.088-.006-.132-.01h-.01a2.777,2.777,0,0,1-2.481-2.756h0q0-.072,0-.142v0q0-.069.01-.138v0a2.773,2.773,0,1,1,2.758,3.06q-.071,0-.142,0Z" transform="translate(-191.502 -53.499)" fill="#3f5146"/>
  </g>
</svg>
