<svg id="向量圖智慧型物件" xmlns="http://www.w3.org/2000/svg" xmlns:xlink="http://www.w3.org/1999/xlink" width="127" height="128" viewBox="0 0 127 128">
  <defs>
    <clipPath id="clip-path">
      <rect id="Rectangle_3333" data-name="Rectangle 3333" width="127" height="128" fill="none"/>
    </clipPath>
  </defs>
  <g id="Group_768" data-name="Group 768">
    <g id="Group_767" data-name="Group 767" clip-path="url(#clip-path)">
      <path id="Path_21830" data-name="Path 21830" d="M111.477,88.2A53.632,53.632,0,0,0,65.731,10.788L63.216,15.5l-3.073-4.657A53.633,53.633,0,0,0,15.763,88.6l5.1.089L18.286,93.04a53.495,53.495,0,0,0,90.928-.737l-2.443-4.012Z" fill="#00784a"/>
      <path id="Path_21831" data-name="Path 21831" d="M63.668,113.96a49.3,49.3,0,1,1,49.277-49.28,49.3,49.3,0,0,1-49.277,49.28" fill="#ffc400"/>
      <path id="Path_21832" data-name="Path 21832" d="M63.1,15.322,20.629,88.6h86.292Z" fill="#00784a"/>
      <path id="Path_21833" data-name="Path 21833" d="M63.362,113.992S62.432,63,20.971,40.013c0,0,42.8,24.212,85.558-.149,0,0-42.766,24.5-43.167,74.129" fill="#00784a"/>
      <path id="Path_21834" data-name="Path 21834" d="M63.362,113.992S62.432,63,20.971,40.013c0,0,42.8,24.212,85.558-.149C106.529,39.864,63.763,64.362,63.362,113.992Z" fill="none" stroke="#00784a" stroke-width="2.618"/>
      <path id="Path_21835" data-name="Path 21835" d="M63.166,90.753S59.955,66.992,40.184,50.716c0,0,25.49,9.193,48.072-.451,0,0-20.473,16.075-25.09,40.488" fill="#fff"/>
      <path id="Path_21836" data-name="Path 21836" d="M46.807,105.722H44.048v-.7c.7,0,1.2-.05,1.505-.05a3.217,3.217,0,0,0,1.152-.3.805.805,0,0,0,.453-.352c.05-.1.1-.15.1-.2h1.907v5.175H46.807Z" fill="#00784a"/>
      <path id="Path_21837" data-name="Path 21837" d="M52.578,108.133v-.1c0-.352.353-.7,1-.955a6.744,6.744,0,0,1,2.609-.4,7.74,7.74,0,0,1,2.711.4c.652.252.954.6.954.955v.1H57.646a.466.466,0,0,0-.352-.452,2.4,2.4,0,0,0-1.1-.2,2.279,2.279,0,0,0-1.1.2c-.252.1-.4.251-.4.452Z" fill="#00784a"/>
      <path id="Path_21838" data-name="Path 21838" d="M52.177,110.344a1.226,1.226,0,0,1,.451-.7,2.816,2.816,0,0,1,1.305-.5,2.444,2.444,0,0,1-1.054-.555,1.169,1.169,0,0,1-.3-.452h2.107c0,.2.15.354.4.452a2.262,2.262,0,0,0,1.1.2,2.381,2.381,0,0,0,1.1-.2.466.466,0,0,0,.352-.452h2.209a1.066,1.066,0,0,1-.25.452,2.045,2.045,0,0,1-1.1.5,3.156,3.156,0,0,1,1.3.552,1.232,1.232,0,0,1,.453.7H57.9a.679.679,0,0,0-.451-.6,4.365,4.365,0,0,0-1.256-.2,4.065,4.065,0,0,0-1.254.2.625.625,0,0,0-.4.6Z" fill="#00784a"/>
      <path id="Path_21839" data-name="Path 21839" d="M52.177,110.344v.1c0,.4.352.8,1.055,1.106A6.749,6.749,0,0,0,56.09,112a8.4,8.4,0,0,0,3.062-.453c.752-.3,1.1-.7,1.1-1.106v-.1H57.9a.676.676,0,0,1-.451.6,2.983,2.983,0,0,1-1.256.2,2.826,2.826,0,0,1-1.254-.2.621.621,0,0,1-.4-.6Z" fill="#00784a"/>
      <path id="Path_21840" data-name="Path 21840" d="M65.674,108.333c0-.5.351-.9,1.1-1.256a6.332,6.332,0,0,1,2.809-.552c1.807,0,3.011.35,3.665,1.054a1.884,1.884,0,0,1,.451.753H71.446c0-.3-.152-.5-.5-.7a2.75,2.75,0,0,0-1.254-.25,2.838,2.838,0,0,0-1,.148.8.8,0,0,0-.652.8Z" fill="#00784a"/>
      <path id="Path_21841" data-name="Path 21841" d="M65.674,108.333v.052c0,.551.351.953,1.054,1.255a6.57,6.57,0,0,0,2.509.4,7.32,7.32,0,0,0,1.6-.15,2.445,2.445,0,0,0,.652-.252,1.51,1.51,0,0,1-1.906,1.407,2.6,2.6,0,0,1-.953-.1.733.733,0,0,1-.453-.4H65.926c.1.452.5.805,1.2,1.006a6.871,6.871,0,0,0,2.359.35c1.857,0,3.111-.4,3.815-1.2a2.265,2.265,0,0,0,.551-1.554,1.919,1.919,0,0,0-.151-.807H71.446c0,.353-.3.653-.8.755a2.871,2.871,0,0,1-.9.15,2.81,2.81,0,0,1-1.3-.252.646.646,0,0,1-.4-.653Z" fill="#00784a"/>
      <path id="Path_21842" data-name="Path 21842" d="M75.258,107.58a2.032,2.032,0,0,1-.149-.753,2.544,2.544,0,0,1,.149-.954,2.091,2.091,0,0,1,.754-1.105,4.154,4.154,0,0,1,1.355-.6,6.9,6.9,0,0,1,1.906-.2,7.436,7.436,0,0,1,2.609.351c.653.251,1.054.552,1.1.955H80.679c0-.052-.051-.151-.2-.252a2.1,2.1,0,0,0-1.1-.25,2.06,2.06,0,0,0-1.6.552,1.886,1.886,0,0,0-.4.9,3.286,3.286,0,0,1,1-.3,5.257,5.257,0,0,1,1.3-.1,6.136,6.136,0,0,1,2.559.453c.7.3,1,.7,1,1.2v.1H80.93v-.051a.749.749,0,0,0-.5-.653,2.43,2.43,0,0,0-1.254-.25,3.28,3.28,0,0,0-1.053.149c-.453.151-.655.4-.655.753v.051Z" fill="#00784a"/>
      <path id="Path_21843" data-name="Path 21843" d="M75.258,107.58a2.488,2.488,0,0,0,.7.906,5.216,5.216,0,0,0,3.264.8,6.785,6.785,0,0,0,3.06-.552,1.685,1.685,0,0,0,.954-1.157H80.93a.8.8,0,0,1-.452.653,2.668,2.668,0,0,1-1.2.253,2.49,2.49,0,0,1-1.3-.3c-.352-.15-.5-.351-.5-.6Z" fill="#00784a"/>
      <path id="Path_21844" data-name="Path 21844" d="M6.04,61.864l.2-2.191L.25,59.119l.105-1.152,5.993.553.2-2.19.991.091-.51,5.533Z" fill="#00784a"/>
      <path id="Path_21845" data-name="Path 21845" d="M2.858,64.166l1.853.644a9.022,9.022,0,0,0,1.189.347v.019q-.524.178-1.284.467l-1.73.674ZM7.064,65.8l-.016-1.244L0,61.947l.016,1.225,1.882.663L1.935,66.7l-1.861.742L.09,68.727Z" fill="#00784a"/>
      <rect id="Rectangle_3330" data-name="Rectangle 3330" width="7.012" height="1.158" transform="matrix(0.996, -0.092, 0.092, 0.996, 0.261, 69.776)" fill="#00784a"/>
      <path id="Path_21846" data-name="Path 21846" d="M8.993,79.869l-7.23-.437-.228-1.163,4.91-2.423c.095-.044.231-.111.409-.2l0-.02-.45-.01L.942,75.227l-.235-1.2,6.541-3.093L7.476,72.1l-5.13,2.243,0,.017a5.334,5.334,0,0,1,.716.027l4.928.36.266,1.36L4.364,78a11.283,11.283,0,0,1-1.239.536l0,.018c.1-.005.372-.005.828,0l4.814.179Z" fill="#00784a"/>
      <path id="Path_21847" data-name="Path 21847" d="M5.757,82.994l1.962.037a8.856,8.856,0,0,0,1.239-.039l.005.019q-.442.332-1.075.843L6.451,85.03Zm4.507.251-.4-1.177-7.509-.3.4,1.159,1.993.049.925,2.715L4.126,86.975l.414,1.212Z" fill="#00784a"/>
      <path id="Path_21848" data-name="Path 21848" d="M7.417,94.281l-.494-1.037,3.061-4.991a3.032,3.032,0,0,1,.181-.245L10.138,88c-.2.124-.345.209-.432.248L5.5,90.257,5.042,89.3l6.329-3.023.494,1.035L8.98,91.943c-.071.119-.215.329-.431.631l.025.009a7.344,7.344,0,0,1,.711-.371l4-1.912.456.958Z" fill="#00784a"/>
      <path id="Path_21849" data-name="Path 21849" d="M17.5,98.93,15.46,95.946l-1.6,1.1,1.758,2.574-.813.556L13.047,97.6l-2.555,1.749-.652-.956,5.788-3.963,2.691,3.941Z" fill="#00784a"/>
      <path id="Path_21850" data-name="Path 21850" d="M18.175,106.149a1.934,1.934,0,0,1-1.961-.705,1.985,1.985,0,0,1-.52-1.522,2.8,2.8,0,0,1,1.088-1.855,2.761,2.761,0,0,1,2.009-.816,2,2,0,0,1,1.4.745,1.938,1.938,0,0,1,.517,1.665,2.907,2.907,0,0,1-1.063,1.692,3.312,3.312,0,0,1-1.473.8m3.621-2.227a3.186,3.186,0,0,0-.85-2.577,3.123,3.123,0,0,0-2.527-1.214,3.778,3.778,0,0,0-2.4,1.021,3.774,3.774,0,0,0-1.391,2.38,3.144,3.144,0,0,0,.833,2.542,3.219,3.219,0,0,0,2.432,1.233,3.755,3.755,0,0,0,2.526-1.037,3.752,3.752,0,0,0,1.381-2.347" fill="#00784a"/>
      <path id="Path_21851" data-name="Path 21851" d="M24.581,109.255a3.476,3.476,0,0,1-.968-.683l-1.147-1.04,1.371-1.518,1.254,1.137a3.09,3.09,0,0,1,.668.772.958.958,0,0,1-1.178,1.332m-.684,2.709a4.015,4.015,0,0,0-.076-2.069l.013-.014a2.531,2.531,0,0,0,1.058.469,1.7,1.7,0,0,0,1.655-.6,2,2,0,0,0,.487-.953,1.616,1.616,0,0,0-.15-1.1,4.441,4.441,0,0,0-.984-1.15l-2.254-2.04-4.7,5.2.857.777,2.032-2.247.518.469a1.59,1.59,0,0,1,.562.845,6.066,6.066,0,0,1-.122,1.632l-.27,1.766,1.041.942Z" fill="#00784a"/>
      <path id="Path_21852" data-name="Path 21852" d="M28.83,117.686l-4.284-3.08,4.09-5.7,4.16,2.99-.579.808L29,110.389,27.909,111.9l3.011,2.165-.58.808-3.011-2.165-1.265,1.764,3.344,2.4Z" fill="#00784a"/>
      <path id="Path_21853" data-name="Path 21853" d="M35.841,119.4a1.9,1.9,0,0,1-1.195.949,2.905,2.905,0,0,1-2.253-.438,2.914,2.914,0,0,1-1.55-1.787,2.466,2.466,0,0,1,.206-1.707l1.02.468a1.6,1.6,0,0,0,.824,2.178,2.014,2.014,0,0,0,1.143.305.894.894,0,0,0,.772-.474.807.807,0,0,0-.037-.867,6.087,6.087,0,0,0-.893-.966,6.321,6.321,0,0,1-1.142-1.3,1.7,1.7,0,0,1-.023-1.749,1.723,1.723,0,0,1,1.2-.882,2.787,2.787,0,0,1,1.93.409,3.106,3.106,0,0,1,1.37,1.344,1.979,1.979,0,0,1-.086,1.809l-1.036-.5a1.286,1.286,0,0,0-.711-1.773,2.075,2.075,0,0,0-.948-.3.763.763,0,0,0-.728.376.678.678,0,0,0,.02.7,4.831,4.831,0,0,0,.905.984,6.144,6.144,0,0,1,1.218,1.379,1.766,1.766,0,0,1-.006,1.842" fill="#00784a"/>
      <path id="Path_21854" data-name="Path 21854" d="M43.327,118.329l-2.016-.873-2.391,5.528-1.06-.46L40.249,117l-2.016-.874.395-.913,5.094,2.208Z" fill="#00784a"/>
      <path id="Path_21855" data-name="Path 21855" d="M47.174,121.539a3.4,3.4,0,0,1-1.166-.208l-1.479-.455.6-1.957,1.617.5a3.076,3.076,0,0,1,.931.416.957.957,0,0,1-.5,1.706m.526,2.745a4.027,4.027,0,0,0-.943-1.842l.005-.017a2.528,2.528,0,0,0,1.157-.024,1.7,1.7,0,0,0,1.243-1.249,1.99,1.99,0,0,0,.039-1.068,1.616,1.616,0,0,0-.6-.936,4.449,4.449,0,0,0-1.377-.624l-2.9-.894-2.063,6.71,1.106.34.89-2.9.668.2a1.591,1.591,0,0,1,.868.528,6.084,6.084,0,0,1,.579,1.53l.5,1.715,1.343.413Z" fill="#00784a"/>
      <path id="Path_21856" data-name="Path 21856" d="M56.353,120.555l-3.391,3.494-.541,2.913-1.128-.21.542-2.914-1.851-4.468,1.353.251,1.03,2.663c.056.148.144.377.26.69l.515-.575,1.905-2.086Z" fill="#00784a"/>
      <path id="Path_21857" data-name="Path 21857" d="M63.116,123.817a3.434,3.434,0,0,1-1.178.112l-1.548-.04.054-2.046,1.69.045a3.067,3.067,0,0,1,1.01.151.958.958,0,0,1-.029,1.778m1.244,2.5a4.023,4.023,0,0,0-1.4-1.522v-.018a2.5,2.5,0,0,0,1.108-.334,1.708,1.708,0,0,0,.863-1.537,2.008,2.008,0,0,0-.25-1.04,1.62,1.62,0,0,0-.831-.739,4.427,4.427,0,0,0-1.494-.23l-3.037-.08-.185,7.017,1.156.031.079-3.032.7.019a1.582,1.582,0,0,1,.978.275,5.994,5.994,0,0,1,.969,1.317l.945,1.517,1.4.037Z" fill="#00784a"/>
      <path id="Path_21858" data-name="Path 21858" d="M71.828,127.451l-5.253.451-.6-6.993,5.1-.438.084.99-3.951.339.16,1.858,3.693-.317.085.991-3.694.317.185,2.163,4.1-.351Z" fill="#00784a"/>
      <path id="Path_21859" data-name="Path 21859" d="M78.259,124.186a1.909,1.909,0,0,1-.288,1.5,3.568,3.568,0,0,1-4.335.784,2.449,2.449,0,0,1-.953-1.43l1.078-.31a1.752,1.752,0,0,0,.439.753,1.731,1.731,0,0,0,1.6.366,2.009,2.009,0,0,0,1.068-.511.9.9,0,0,0,.278-.864.809.809,0,0,0-.592-.635,6.02,6.02,0,0,0-1.306-.152,6.364,6.364,0,0,1-1.714-.247,1.7,1.7,0,0,1-1.154-1.314,1.729,1.729,0,0,1,.338-1.449,2.788,2.788,0,0,1,1.732-.947,3.117,3.117,0,0,1,1.916.13,1.973,1.973,0,0,1,1.108,1.429l-1.11.3a1.284,1.284,0,0,0-1.693-.884,2.075,2.075,0,0,0-.917.387.762.762,0,0,0-.308.762.681.681,0,0,0,.473.521,4.909,4.909,0,0,0,1.327.157,6.114,6.114,0,0,1,1.823.255,1.765,1.765,0,0,1,1.191,1.4" fill="#00784a"/>
      <path id="Path_21860" data-name="Path 21860" d="M85.267,124.168l-5.031,1.582-2.1-6.7,4.884-1.535.3.948-3.783,1.191.559,1.778,3.536-1.112.3.949-3.536,1.112.649,2.07,3.929-1.234Z" fill="#00784a"/>
      <path id="Path_21861" data-name="Path 21861" d="M87.092,120.35l-.135-1.959a8.946,8.946,0,0,0-.147-1.231l.018-.009q.369.414.933,1l1.3,1.328Zm-.148-4.515-1.134.5.366,7.513,1.119-.5-.129-1.992,2.621-1.162,1.414,1.424,1.17-.52Z" fill="#00784a"/>
      <path id="Path_21862" data-name="Path 21862" d="M94.664,114.995a3.492,3.492,0,0,1-.94.72l-1.333.788-1.039-1.763,1.457-.86a3.161,3.161,0,0,1,.934-.409.959.959,0,0,1,.92,1.524m2.38,1.458a4.012,4.012,0,0,0-1.995-.542l-.009-.016a2.537,2.537,0,0,0,.761-.873,1.7,1.7,0,0,0-.084-1.761,2.006,2.006,0,0,0-.762-.75,1.631,1.631,0,0,0-1.1-.185,4.432,4.432,0,0,0-1.389.6l-2.616,1.545,3.563,6.046,1-.587-1.541-2.612.6-.355a1.579,1.579,0,0,1,.974-.286,6.067,6.067,0,0,1,1.519.6l1.6.785,1.21-.715Z" fill="#00784a"/>
      <path id="Path_21863" data-name="Path 21863" d="M103.134,111.308a3.355,3.355,0,0,1,.307,1.461,2.762,2.762,0,0,1-1.223,2.134,2.957,2.957,0,0,1-2.621.627,3.963,3.963,0,0,1-2.154-1.556,3.773,3.773,0,0,1-.883-2.679,3.12,3.12,0,0,1,1.311-2.191,2.643,2.643,0,0,1,3.459-.061l-.744.916a1.644,1.644,0,0,0-2.151-.034,1.783,1.783,0,0,0-.773,1.779,3.433,3.433,0,0,0,.72,1.532,3.487,3.487,0,0,0,1.353,1.181,1.862,1.862,0,0,0,2.293-2.685Z" fill="#00784a"/>
      <path id="Path_21864" data-name="Path 21864" d="M109.635,108.143l-.826.8-2.215-2.3-2.331,2.25,2.215,2.3-.831.8-4.869-5.053.832-.8,1.965,2.038,2.331-2.251-1.964-2.038.826-.8Z" fill="#00784a"/>
      <rect id="Rectangle_3331" data-name="Rectangle 3331" width="1.157" height="7.015" transform="matrix(0.626, -0.78, 0.779, 0.627, 107.204, 100.206)" fill="#00784a"/>
      <path id="Path_21865" data-name="Path 21865" d="M117.694,97.643l-.644.95-5.85-.122c-.111-.006-.212-.016-.3-.03l.005.025c.209.112.355.194.432.247l3.859,2.619-.6.878-5.8-3.938.642-.95,5.449.151c.139,0,.391.019.761.053l-.006-.025c-.153-.081-.379-.224-.68-.429l-3.67-2.49.6-.878Z" fill="#00784a"/>
      <path id="Path_21866" data-name="Path 21866" d="M119.318,90.35a1.907,1.907,0,0,1,.987,1.166,3.577,3.577,0,0,1-2.1,3.874,2.455,2.455,0,0,1-1.711-.151l.434-1.037a1.754,1.754,0,0,0,.861.128,1.734,1.734,0,0,0,1.288-1.019,2.022,2.022,0,0,0,.269-1.154.9.9,0,0,0-.5-.758.8.8,0,0,0-.864.064,6.175,6.175,0,0,0-.936.924,6.357,6.357,0,0,1-1.265,1.184,1.69,1.69,0,0,1-1.745.078,1.729,1.729,0,0,1-.919-1.172,2.8,2.8,0,0,1,.348-1.945,3.125,3.125,0,0,1,1.3-1.414,1.975,1.975,0,0,1,1.807.03l-.464,1.053a1.284,1.284,0,0,0-1.749.767,2.1,2.1,0,0,0-.274.957.763.763,0,0,0,.4.719.673.673,0,0,0,.7-.045,4.86,4.86,0,0,0,.952-.935,6.167,6.167,0,0,1,1.34-1.262,1.764,1.764,0,0,1,1.84-.052" fill="#00784a"/>
      <path id="Path_21867" data-name="Path 21867" d="M118.015,82.892l-.809,2.045,5.6,2.218-.426,1.075-5.6-2.216-.809,2.046-.924-.368,2.041-5.166Z" fill="#00784a"/>
      <rect id="Rectangle_3332" data-name="Rectangle 3332" width="1.158" height="7.012" transform="matrix(0.298, -0.954, 0.954, 0.299, 117.261, 81.793)" fill="#00784a"/>
      <path id="Path_21868" data-name="Path 21868" d="M120.126,74.723l-.5,2.142,5.861,1.369-.261,1.126-5.862-1.369-.5,2.144-.968-.226,1.26-5.412Z" fill="#00784a"/>
      <path id="Path_21869" data-name="Path 21869" d="M123.769,68.833a4.848,4.848,0,0,1,2.057.584,3.161,3.161,0,0,1-.566,4.815,4.569,4.569,0,0,1-2.12.1l-3.879-.466.137-1.149,3.917.471a3.749,3.749,0,0,0,1.486-.026,1.4,1.4,0,0,0,.888-1.318,1.419,1.419,0,0,0-.5-1.467,3.553,3.553,0,0,0-1.454-.395l-3.955-.476.136-1.139Z" fill="#00784a"/>
      <path id="Path_21870" data-name="Path 21870" d="M121.007,62.2l-.024,2.2,6.016.069-.013,1.157-6.018-.069-.024,2.2-.994-.011.063-5.556Z" fill="#00784a"/>
      <path id="Path_21871" data-name="Path 21871" d="M126.465,55.646l.485,5.255-6.982.645-.47-5.1.989-.091.365,3.952,1.856-.171-.342-3.7.989-.092.341,3.7,2.16-.2-.379-4.106Z" fill="#00784a"/>
      <path id="Path_21872" data-name="Path 21872" d="M1.7,44.865,2.23,44.2c.067-.09.123-.127.167-.112.025.009.057.05.1.119a1.856,1.856,0,0,0,.279.782,10.186,10.186,0,0,1,.785,2.282l-.748.675A8.148,8.148,0,0,0,1.7,44.865m1.983.153.532-.666c.061-.093.114-.131.159-.116a.2.2,0,0,1,.09.106A2.554,2.554,0,0,0,5,45.409q.235.36.451.746l4.819,1.7-.319.907-3.9-1.373c.152.353.292.713.418,1.086l-.731.682A11.6,11.6,0,0,0,3.68,45.019m-.846-1.673L4.316,39.13l.812.287L3.646,43.632ZM5.17,44.938l1.858-5.282.8.281-.575,1.634,3.67,1.293a.9.9,0,0,1,.651.668,3.237,3.237,0,0,1-.307,1.718L10.2,45.3l.324-.92q.171-.485-.092-.62l-3.518-1.24-.947,2.7Z" fill="#00784a"/>
      <path id="Path_21873" data-name="Path 21873" d="M6.487,35.152l2.148-3.535.693.421-.752,1.239L10.259,34.3l.71-1.168.693.421-.71,1.17,2.155,1.314c.15-.561.289-1.122.41-1.683l.679.412q-.249,1.322-.987,4.064.111.185.06.271c-.036.057-.1.067-.183.03l-.959-.3c.049-.119.1-.228.154-.33l-3.8-2.312.451-.643c.082-.122.15-.168.2-.137a.5.5,0,0,1,.13.268l3.315,2.018c.1-.264.188-.528.267-.788L8.12,34.027l-.94,1.547Zm2.055-5.016.626-.7c.085-.074.156-.094.214-.058s.074.155.033.349q.392.382.672.716l1.66-2.735.707.43-.3.5a11.444,11.444,0,0,1,1.878,1.673,7.8,7.8,0,0,1,1.041,1.424,3.02,3.02,0,0,1,.181.38,10,10,0,0,0,2.484-.854L18,32.27a10.614,10.614,0,0,1-2.414.72c.047.179.091.365.129.562a14.442,14.442,0,0,1,.112,2.294l-1.075.241a9.427,9.427,0,0,0,.091-1.912,4.663,4.663,0,0,0-.2-1.123.864.864,0,0,1-.113-.009,8.06,8.06,0,0,1-3.236-.852l.349-.73a6.934,6.934,0,0,0,2.642.725,6.06,6.06,0,0,0-.944-1.293,11.472,11.472,0,0,0-1.648-1.51l-1.071,1.763a6.314,6.314,0,0,1,.764,1.667l-.892.3a5.457,5.457,0,0,0-.744-1.655,7.2,7.2,0,0,0-1.213-1.327" fill="#00784a"/>
      <path id="Path_21874" data-name="Path 21874" d="M13.6,23.422l1.261-1.349c-.026-.09-.029-.146-.006-.171l.963-.146L16.9,24.206a2.977,2.977,0,0,1,1.978.637,2.226,2.226,0,0,1,.764,1.321,1.384,1.384,0,0,1-.381,1.186l-.886-.333a1.2,1.2,0,0,0,.269-.92,1.3,1.3,0,0,0-.428-.663,3.1,3.1,0,0,0-1.861-.529l-1.06-2.134-.817.874L20.41,29.2l-.6.643-6.513-6.1Zm3.223-3.982.673-.618c.119-.118.21-.146.274-.088.034.033.046.136.032.306l.462.434,1.629-1.744,1.656,1.552-.61.654-1.064-1L17.2,21.8l1.065,1-.6.643L16.01,21.882l1.595-1.707ZM18.278,22.2l2.06-2.2.581.542-2.06,2.2Zm.352,2.147,3.922-4.2.58.544-1.181,1.264,1.8,1.68q.272.255.491.019l.22-.235a.385.385,0,0,0,.116-.346,1.9,1.9,0,0,0-.421-.655l.775-.488a2.137,2.137,0,0,1,.569,1.1,1,1,0,0,1-.295.758l-.522.559q-.682.728-1.21.235l-2.119-1.984-.53.566a4.317,4.317,0,0,1,1.266,1.916,4.019,4.019,0,0,1-.339,2.411l-.9-.033a3.779,3.779,0,0,0,.433-1.953,3.266,3.266,0,0,0-1.053-1.7l-1.017,1.088Z" fill="#00784a"/>
      <path id="Path_21875" data-name="Path 21875" d="M28.95,13.08l-.345-.488.934-.659.344.487Zm-3.543,3.337,5.585-3.948L29.2,9.925l-1.65,1.166-.115-.166c.037-.132.043-.218.015-.256q-.064-.09-.264.025l-.7.409.348.494-.892.632-.116-.165a.5.5,0,0,0-.008-.291c-.035-.049-.114-.033-.238.047l-.675.4.349.493-1.637,1.157Zm1.934-2.2L27,13.73l.892-.63.343.486Zm-1.609,1.137-.343-.486.919-.651.344.487Zm-1.012-1.435.92-.65.324.459-.919.652Zm2.5-1.768.324.46-.892.631-.325-.46Zm1.649-1.167.325.459-.933.661-.325-.46Zm3.412,1.991-.393-.554-6.76,4.78.99,1.4a6.427,6.427,0,0,1,.783,1.529,5.885,5.885,0,0,1,.256,1.481l.978-.149a7.755,7.755,0,0,0-.393-1.682,7.2,7.2,0,0,0-.908-1.686l-.6-.847Zm-4.493,4.434,4.328-3.059-.344-.487-4.327,3.059Zm.038,1.393.821-.579.742,1.051q-.527.5-1.084.976l.623.569c.061.063.113.08.157.049s.079-.121.072-.248q1.62-1.661,2.337-2.478l-.412-.583q-.521.568-1.079,1.122l-.667-.946,1.224-.865a2.769,2.769,0,0,0,.982.328,5.8,5.8,0,0,0,1.4.046q.729-.1,1.818-.337l.324-1.005a14.776,14.776,0,0,1-1.807.525c.068-.252.127-.5.178-.74.132-.094.185-.159.157-.2a.236.236,0,0,0-.116-.077l-.709-.115.788-.558-.392-.553L27.435,18.25Zm4.852-3.43a7.025,7.025,0,0,1-.121,1.156,2.7,2.7,0,0,1-1.3-.151Z" fill="#00784a"/>
      <path id="Path_21876" data-name="Path 21876" d="M37.361,7.642l2.3-1,.027.946-1.715.748Zm-.384-.7-.425.184A9.845,9.845,0,0,0,34.944,6.2l-.324.768a6.35,6.35,0,0,1,1.01.557l-1.457.635.317.729,2-.87.608.69-1.706.745.318.729,3.023-1.317.231.53-2.691,1.174.31.715,2.692-1.174.219.5L35.78,12.234l.317.729,3.162-1.377a7.407,7.407,0,0,1-.878,1.184,15.448,15.448,0,0,1-1.987,1.71l1.055.408a9.624,9.624,0,0,0,1.56-1.5,9.758,9.758,0,0,0,1-1.6l.854,1.964.85-.37-.859-1.976a8,8,0,0,0,1.675.346,10.2,10.2,0,0,0,2.117,0l.535-1.188A18.017,18.017,0,0,1,42.8,10.9a7.851,7.851,0,0,1-1.687-.12l3.245-1.414-.317-.73-3.7,1.612-.219-.5,2.691-1.173-.31-.714L39.817,9.029,39.585,8.5l2.994-1.3-.317-.729-1.677.73-.027-.945,1.909-.832-.318-.73-1.328.579.2-.963a.239.239,0,0,0,.067-.249c-.017-.037-.081-.056-.191-.06l-.739-.062-.19,1.708-.544.237-.5-1.144a.46.46,0,0,0,.051-.287c-.024-.055-.106-.057-.243,0l-.742.257.658,1.515-.9.389-.5-1.143a.456.456,0,0,0,.05-.286c-.024-.056-.105-.057-.243,0l-.743.258Z" fill="#00784a"/>
      <path id="Path_21877" data-name="Path 21877" d="M50.294,7.688q.128-.273.247-.586l2.332-.488a5.121,5.121,0,0,1-.562,1.1q-.957-.058-2.017-.021M53.97,1.1a.5.5,0,0,0,.228,0c.026-.007.033-.035.023-.087-.018-.086-.053-.136-.1-.155L53.29.3A34.411,34.411,0,0,1,47.522,2l-1.142.238.732.659q1.575-.329,2.882-.663l.137.648L46.272,3.7l.162.777,3.18-.665a6.794,6.794,0,0,1-.808.653A17.913,17.913,0,0,1,46.39,5.83l.933.534A15.362,15.362,0,0,0,49.513,4.9a9.008,9.008,0,0,0,.863-.839l.267,1.28.907-.189-.284-1.36a14.2,14.2,0,0,0,1.436.531,12.641,12.641,0,0,0,2.165.381l.516-.92a11.025,11.025,0,0,1-2.051-.135A8.057,8.057,0,0,1,52.067,3.3l2.952-.617-.163-.78-3.818.8L50.892,2q1.2-.323,2.151-.667a5.041,5.041,0,0,1,.665-.21A1.834,1.834,0,0,1,53.97,1.1M47.1,7.823l2.312-.483a9.662,9.662,0,0,1-.822,1.519l.993.233a7.081,7.081,0,0,0,.352-.628c.571-.016,1.13-.011,1.678.019a4.957,4.957,0,0,1-1.124.668,15.225,15.225,0,0,1-2.8.9,4.333,4.333,0,0,1,.721.7,16.377,16.377,0,0,0,2.773-.992,5.185,5.185,0,0,0,1.557-1.2,15.226,15.226,0,0,1,3.04.69l.293-.956a14.464,14.464,0,0,0-2.759-.522A7.3,7.3,0,0,0,53.878,6.4l1.84-.384-.159-.763-4.7.984c.035-.124.072-.245.109-.363a.193.193,0,0,0,.085-.18c-.008-.04-.051-.064-.129-.077l-.912-.189a9.5,9.5,0,0,1-.274,1.044l-2.8.585Z" fill="#00784a"/>
      <path id="Path_21878" data-name="Path 21878" d="M61.481,1.545l0-.764L65.285.768l0,.763Zm-.925.749,5.662-.023L66.209,0,60.547.025Zm-.393,4.991,1.388-.006a9.117,9.117,0,0,1-2.31.794l.766.752a14.451,14.451,0,0,0,2.25-.876c.133-.033.2-.077.2-.131a.194.194,0,0,0-.081-.139l-.575-.4,3.23-.012-.644.385a11.976,11.976,0,0,0,2.138,1.188l.962-.758a13.226,13.226,0,0,1-2.2-.816l1.358,0-.018-4.492-6.489.026Zm.957-.767,0-.513,4.552-.019,0,.513Zm-.008-1.757,4.553-.018,0,.512-4.553.02Zm0-1.226,4.552-.019,0,.514-4.553.019Z" fill="#00784a"/>
      <path id="Path_21879" data-name="Path 21879" d="M73.063,3.95l2.322.465-.205,1.024-.64-.128a6.484,6.484,0,0,0-.2-1.014l-.74.015a6.78,6.78,0,0,1,.178.848l-.924-.184Zm1.186-2.4a15.735,15.735,0,0,1-2.785.385l.586.764a19.308,19.308,0,0,0,2.827-.5q.752-.218,1.556-.5A10.8,10.8,0,0,0,77.925,3,17.216,17.216,0,0,0,80.1,4.272l.8-.73a13.223,13.223,0,0,1-1.969-.919A10,10,0,0,1,77.2,1.433c.126-.017.194-.05.205-.1s-.027-.122-.116-.189L76.626.732a13.676,13.676,0,0,1-2.378.817m0,1.438,3.628.729L78,3.1,74.371,2.37ZM71.808,5.743l.86.172.049-.244L78.334,6.8l-.049.244.859.173.534-2.665L72.342,3.078Zm4.369-1.168,2.5.5L78.473,6.1l-1.041-.21.321-.3c.114-.025.179-.077.2-.156.006-.033-.03-.077-.108-.135l-.528-.4-.714.832L75.973,5.6ZM71.949,9.337l.909.182.062-.308,3.895.781-.055.277.909.182.625-3.12L72.581,6.186Zm1.193-1.231,3.895.782-.1.486-3.894-.782Zm.22-1.1,3.9.781-.107.537-3.9-.781Z" fill="#00784a"/>
      <path id="Path_21880" data-name="Path 21880" d="M84.243,5.094l1.592.679.889-2.092.722.384c.137.073.189.147.156.22-.015.037-.086.076-.212.117l-.733,1.722,1.36.58-.331.777L86.4,6.932a7.577,7.577,0,0,0,.574,2.839l-.871.2a9.259,9.259,0,0,1-.338-1.752l-1.7,3.991-.823-.352,1.434-3.37c-.094.085-.184.159-.27.225A10.181,10.181,0,0,1,82.749,9.84L82.236,9.1a8.7,8.7,0,0,0,1.782-1.133A10.918,10.918,0,0,0,85.43,6.519l-1.517-.648Zm4.337,1.85,1.443.616.891-2.094.716.382c.135.073.187.146.156.22-.015.037-.089.074-.224.113L90.831,7.9l1.553.662-.331.778-1.479-.633a.242.242,0,0,1-.064,0,12.591,12.591,0,0,0,.477,4.481l-.957.193a17.268,17.268,0,0,1-.3-2.886l-1.484,3.491-.808-.344,1.493-3.51c-.233.2-.466.4-.7.566a11.065,11.065,0,0,1-2.057,1.189l-.522-.726a9.476,9.476,0,0,0,2.2-1.216A10.3,10.3,0,0,0,89.6,8.3l-1.35-.575Z" fill="#00784a"/>
      <path id="Path_21881" data-name="Path 21881" d="M98.587,12.459l2.055,1.431-.789.52-1.536-1.068Zm.392-.7L98.6,11.5a9.744,9.744,0,0,0-.06-1.854l-.822.126a6.473,6.473,0,0,1,.056,1.155l-1.3-.907-.453.652,1.792,1.246-.269.884L96.01,11.738l-.453.653,2.707,1.882-.331.477-2.409-1.675-.445.638,2.411,1.677-.311.45-3.328-2.315-.454.653,2.834,1.97a7.279,7.279,0,0,1-1.469-.126,15.468,15.468,0,0,1-2.5-.794l.208,1.113a8.193,8.193,0,0,0,3.979.547L95.229,18.65l.762.529,1.227-1.769a8.041,8.041,0,0,0,.585,1.608,10.345,10.345,0,0,0,1.112,1.8l1.292-.169A18.118,18.118,0,0,1,98.674,18.8a7.884,7.884,0,0,1-.783-1.5l2.907,2.021.453-.654-3.311-2.3.312-.45,2.411,1.678.444-.64L98.7,15.28l.331-.477,2.683,1.865.455-.653-1.5-1.046.79-.52,1.708,1.188.453-.653-1.188-.828.921-.339a.233.233,0,0,0,.246-.074c.024-.034.008-.1-.049-.194l-.335-.662-1.552.736-.487-.34.71-1.024a.454.454,0,0,0,.271-.106c.034-.05-.007-.119-.124-.21l-.61-.5-.941,1.356-.8-.557.711-1.026a.448.448,0,0,0,.27-.105c.034-.05-.008-.119-.126-.21l-.61-.5Z" fill="#00784a"/>
      <path id="Path_21882" data-name="Path 21882" d="M103.748,21.961l.913.962-.865.822-.913-.962Zm3.573-4.295,1.8,1.9.552-.525-1.8-1.9Zm-1.288.615,2.381,2.509.576-.547-2.381-2.511Zm-.717,1.29,1.8,1.9.553-.524-1.8-1.9Zm-1.008.959,1.8,1.9.551-.525-1.8-1.9Zm-2.938,2.525.582.613.379-.36.913.962-.313.3.582.613,2.28-2.169-2.074-2.186Zm6.946-1.838,1.731,1.823q-1.043,1.106-1.685,1.922a9.137,9.137,0,0,0-1.5,2.816q-.23.912,0,1.153.319.337,2.183-.577l-.067-.992c-.775.518-1.191.745-1.247.688s-.042-.206.042-.44a8.88,8.88,0,0,1,1.187-1.921,24.047,24.047,0,0,1,1.721-1.985l1.435,1.512.574-.547-1.453-1.533q.511-.513,1.088-1.06a.415.415,0,0,0,.307-.071c.054-.052.051-.128-.008-.23l-.5-.787q-.833.789-1.518,1.484l-1.71-1.8Zm-1.684,1.474.527.553-1.628,1.547c-.269-.17-.529-.348-.775-.541l-.466.736c-.059.073-.067.132-.026.176a.268.268,0,0,0,.247.042q1.529.749,2.267,1.074l.532-.505q-.52-.242-1.017-.518l1.458-1.385.545.576.553-.525-1.666-1.757Zm5.712-.25a6.51,6.51,0,0,1-.042,1.594l.837.049A8.338,8.338,0,0,0,113.1,22.5Z" fill="#00784a"/>
      <path id="Path_21883" data-name="Path 21883" d="M113.665,29.476l.5.818-.7.436-.5-.816Zm2.837-2.715-4.616,2.862,1.634,2.643q-.819.495-1.291.742a5.506,5.506,0,0,0,.623-.98l-.332-.327a4.558,4.558,0,0,1-.8,1.064l.322.331a1.392,1.392,0,0,1-.274.111.858.858,0,0,1-.53.08c-.132-.021-.328-.242-.59-.668l-.522.8a1.859,1.859,0,0,0,.8.811,1.251,1.251,0,0,0,.943-.122,18.632,18.632,0,0,0,2.743-1.523l-.72-1.163.7-.437.572.925.62-.384-.571-.924.661-.411.57.924.606-.375-.571-.923.733-.454.7,1.129.648-.4Zm-2.218,2.331.661-.409.5.816-.66.409Zm1.266-.785.731-.453.507.816-.732.455Zm-6.088,2.4.333.6c.471-.322,1-.668,1.595-1.036l-.3-.479q-.883.524-1.631.917m2-.245a10.836,10.836,0,0,1-1.159,1.05l.419.45a9.812,9.812,0,0,0,1.118-1.119Zm.527.62a6.965,6.965,0,0,1-.947,1.014l.4.459a6.539,6.539,0,0,0,.92-1.091Zm5.077-.259-.233.808a9.088,9.088,0,0,0,2.494,1.07,6.056,6.056,0,0,0-.205,1.157,7.588,7.588,0,0,0,.1,1.551l.971.061a6.089,6.089,0,0,1-.269-1.277,5.245,5.245,0,0,1,.027-1.331c.061.009.126.019.2.031a.121.121,0,0,0,.167.04c.029-.019.037-.075.025-.17l-.14-.706a6.862,6.862,0,0,1-3.128-1.234m-.237,1.663,1.629,2.635.621-.384L117.447,32.1Zm-3.033.983,1.158,1.874,2.07-1.283-1.16-1.872Zm.978.291.915-.567.358.577-.916.567Zm.4,1.935,1.159,1.875,2.069-1.283-1.16-1.874Zm.979.291.914-.567.356.577-.914.568Zm-3.523-1.478a3.7,3.7,0,0,1-1.251-.112l-.1.824a5,5,0,0,0,1.323.115.34.34,0,0,0,.054-.01,6.883,6.883,0,0,0-.235.844l.826.246a4.693,4.693,0,0,1,.171-1.231q.185-.045.391-.112c.135.1.236.138.3.1s.063-.1.036-.191l-.314-.775a4.613,4.613,0,0,1-1.2.3m1.271,2.15a3.9,3.9,0,0,1-1.439-.281l-.119.783a4.469,4.469,0,0,0,1.5.266.545.545,0,0,0,.078.011,5.031,5.031,0,0,0-.208.484,5.689,5.689,0,0,0-.163.9l.9.153a2.03,2.03,0,0,1-.02-.78,3.746,3.746,0,0,1,.243-.85,4.218,4.218,0,0,0,.522-.11q.2.159.3.1c.039-.024.049-.081.025-.17l-.315-.738a3.959,3.959,0,0,1-1.3.227" fill="#00784a"/>
      <path id="Path_21884" data-name="Path 21884" d="M120.36,40.681l.469-.17.73,2.028-1.51.545-.731-2.027,1.042-.376M124,42.575a.071.071,0,0,0,.1.048.329.329,0,0,0,.177-.16l.408-.823a6.81,6.81,0,0,1-.957-1.174c-.191-.31-.383-.634-.577-.977l.014-.758-3.11,1.125a24.577,24.577,0,0,1-2.922.905,6.8,6.8,0,0,1-1.383.168c-.222,0-.511-.024-.865-.06l-.219.935a8.263,8.263,0,0,0,1.364.021,10.988,10.988,0,0,0,2-.348c.166-.054.353-.11.559-.171l1.033,2.863,2.958-1.069-1.029-2.852.937-.34q.675,1.192,1.288,2.061a1.8,1.8,0,0,1,.186.339Zm1.589,4.266c.021.056.056.076.107.057a.293.293,0,0,0,.171-.179l.411-.813a7.932,7.932,0,0,1-.991-1.267q-.319-.527-.635-1.106l.015-.672-2.7.975a16.314,16.314,0,0,1-3.191.886,5.134,5.134,0,0,1-1.573-.063,8.157,8.157,0,0,1-1.032-.312l-.218.935a6.394,6.394,0,0,0,1.584.337,7.568,7.568,0,0,0,2.246-.148q.781-.207,1.941-.606l.492,1.365-5.05,1.824.315.874,5.05-1.826.368,1.024.764-.275-1.18-3.269,1.541-.556q.708,1.253,1.337,2.191a2.022,2.022,0,0,1,.2.368Z" fill="#00784a"/>
    </g>
  </g>
</svg>
