<svg id="向量圖智慧型物件" xmlns="http://www.w3.org/2000/svg" xmlns:xlink="http://www.w3.org/1999/xlink" width="138" height="68" viewBox="0 0 138 68">
  <defs>
    <clipPath id="clip-path">
      <rect id="Rectangle_3342" data-name="Rectangle 3342" width="138" height="68" fill="none"/>
    </clipPath>
  </defs>
  <g id="Group_774" data-name="Group 774">
    <g id="Group_773" data-name="Group 773" clip-path="url(#clip-path)">
      <path id="Path_22015" data-name="Path 22015" d="M69.769,9.678a162.227,162.227,0,0,0,0,48.164s3.4-19.984,0-48.164" fill="#b368a9"/>
      <path id="Path_22016" data-name="Path 22016" d="M77.815,1.758A1.759,1.759,0,1,1,76.056,0a1.758,1.758,0,0,1,1.759,1.758" fill="#b368a9"/>
      <path id="Path_22017" data-name="Path 22017" d="M69.891,19.307S67.377,2.738,75.421.227c0,0-6.018,3.679-5.53,19.08" fill="#b368a9"/>
      <path id="Path_22018" data-name="Path 22018" d="M70.8,14.407c6.537.225,11.681,4.821,11.494,10.267-.141,4.111-3.283,7.527-7.626,8.859,6.007-.28,10.835-4.325,11.012-9.444.187-5.446-4.958-10.042-11.495-10.268a13.917,13.917,0,0,0-4.547.594c.382-.019.771-.022,1.162-.009" fill="#b368a9"/>
      <path id="Path_22019" data-name="Path 22019" d="M77.739,33.424c6.476,3.39,9.19,10.977,6.059,16.948a12.266,12.266,0,0,1-12.487,6.2c6.216,2.574,13.276.391,16.219-5.222,3.132-5.972.42-13.56-6.059-16.952a14.188,14.188,0,0,0-4.912-1.522c.4.164.79.344,1.179.55" fill="#b368a9"/>
      <path id="Path_22020" data-name="Path 22020" d="M96.948,7.213a125.4,125.4,0,0,0,0,48.164s4.419-19.984,0-48.164" fill="#00adee"/>
      <path id="Path_22021" data-name="Path 22021" d="M93.26,57.543l3.727-3.723,3.724,3.723Z" fill="#00adee"/>
      <path id="Path_22022" data-name="Path 22022" d="M110.286,7.213a139.87,139.87,0,0,0,0,50.9s4.418-21.117,0-50.9" fill="#587abb"/>
      <path id="Path_22023" data-name="Path 22023" d="M131.285,15.009a70.765,70.765,0,0,0-27.119,0s11.253,2.481,27.119,0" fill="#587abb"/>
      <path id="Path_22024" data-name="Path 22024" d="M128.973,30.289c-.446-1.381-2.488-1.959-4.563-1.291-.112.036-.22.076-.327.118.006-.115.012-.23.012-.348,0-2.177-1.178-3.941-2.631-3.941s-2.629,1.764-2.629,3.941c0,.1,0,.205.01.307-.094-.037-.189-.074-.288-.107-2.068-.69-4.115-.133-4.577,1.243s.842,3.052,2.91,3.742c.112.037.223.069.334.1-.074.088-.146.178-.216.273-1.293,1.753-1.392,3.873-.221,4.732s3.167.138,4.458-1.617c.07-.095.134-.191.2-.287.062.1.125.194.194.289,1.274,1.767,3.26,2.51,4.44,1.664s1.1-2.968-.171-4.735c-.068-.1-.141-.187-.213-.276.112-.029.224-.06.335-.1,2.076-.669,3.394-2.329,2.947-3.711m-7.527,4.578a2.437,2.437,0,1,1,2.44-2.437,2.44,2.44,0,0,1-2.44,2.437" fill="#587abb"/>
      <path id="Path_22025" data-name="Path 22025" d="M52.334,55.783H49.046V54.537a5.384,5.384,0,0,1-4.326,1.695,5.5,5.5,0,0,1-4.585-2.212,8.215,8.215,0,0,1-1.716-5.186,7.639,7.639,0,0,1,1.749-5.065,5.579,5.579,0,0,1,4.482-2.092,5.488,5.488,0,0,1,4.4,1.728V42.127h3.287Zm-2.907-6.846a4.584,4.584,0,0,0-1.073-3.128,3.714,3.714,0,0,0-5.486-.035,5.261,5.261,0,0,0,.017,6.345,3.53,3.53,0,0,0,2.768,1.209,3.475,3.475,0,0,0,2.735-1.174,4.685,4.685,0,0,0,1.038-3.216" fill="#50b748"/>
      <path id="Path_22026" data-name="Path 22026" d="M60.65,36.366a2.01,2.01,0,1,1-.588-1.382,1.895,1.895,0,0,1,.588,1.382m-.277,19.4H57.015V42.106h3.358Z" fill="#50b748"/>
      <path id="Path_22027" data-name="Path 22027" d="M0,5.431s18.223-8.179,31.709,6c0,0-17.186,9.271-31.709-6" fill="#50b748"/>
      <path id="Path_22028" data-name="Path 22028" d="M63.419,5.431s-18.224-8.179-31.71,6c0,0,17.186,9.271,31.71-6" fill="#50b748"/>
      <rect id="Rectangle_3341" data-name="Rectangle 3341" width="3.483" height="48.54" transform="translate(29.948 11.422)" fill="#50b748"/>
      <path id="Path_22029" data-name="Path 22029" d="M33.424,11.87a1.742,1.742,0,1,1-1.743-1.706,1.724,1.724,0,0,1,1.743,1.706" fill="#50b748"/>
      <path id="Path_22030" data-name="Path 22030" d="M1.208,68s17.6-12.09,53.178-8.975C82.45,61.481,118.38,67.633,138,47.668c0,0-12.1,22.53-68.212,16.3C18.829,58.315,1.208,68,1.208,68" fill="#50b748"/>
    </g>
  </g>
</svg>
