<svg xmlns="http://www.w3.org/2000/svg" xmlns:xlink="http://www.w3.org/1999/xlink" width="123" height="122" viewBox="0 0 123 122">
  <defs>
    <clipPath id="clip-path">
      <rect id="Rectangle_3340" data-name="Rectangle 3340" width="123" height="122" fill="none"/>
    </clipPath>
  </defs>
  <g id="向量圖智慧型物件" style="isolation: isolate">
    <g id="Group_772" data-name="Group 772">
      <g id="Group_771" data-name="Group 771" clip-path="url(#clip-path)">
        <path id="Path_21954" data-name="Path 21954" d="M46.525,33.082a.873.873,0,0,1-1.413-.379.769.769,0,1,1,1.413.379" fill="#1f4f25" fill-rule="evenodd"/>
        <path id="Path_21955" data-name="Path 21955" d="M115.842,37.632a5.148,5.148,0,0,0-7.629,4.076c-.1,1.51.621,2.746,1.036,4.076a57.5,57.5,0,0,1,2.166,11.186A44.97,44.97,0,0,1,109.909,72.9,51.287,51.287,0,0,1,97.948,94.32c-.348.37-.77,1.046-1.413.664-.439-.647.23-1.165.565-1.517A47.673,47.673,0,0,0,109.626,69.1a4.728,4.728,0,0,0-4.709-2.275c-2.721.42-3.718,2.54-4.521,4.929A39.956,39.956,0,0,1,78.641,95.647a71.923,71.923,0,0,0-6.781,3.318,31.219,31.219,0,0,0-8.1,7.11c-.764.9-1.521,1.828-2.355,2.749-2.841-3.789-5.737-7.2-9.983-9.764a60.716,60.716,0,0,0-6.687-3.223A41.112,41.112,0,0,1,22.98,73.085a31.459,31.459,0,0,0-1.318-3.7,5,5,0,0,0-5.274-2.56c-1.039.172-2.9,1.441-3.014,2.37a10.759,10.759,0,0,0,.377,1.991c.156.744.446,1.477.565,1.9a48.159,48.159,0,0,0,11.49,20.286c.365.389.988.916.659,1.612-.664.359-1.038-.274-1.413-.664A48.058,48.058,0,0,1,11.678,64.933a51.668,51.668,0,0,1,1.6-17.727c.168-.574.285-1.224.471-1.8A11.173,11.173,0,0,0,14.786,41.9a5.2,5.2,0,0,0-5.745-4.929c-2.845.338-3.983,2.671-4.8,5.214A61.884,61.884,0,0,0,1.6,53.368,50.691,50.691,0,0,0,1.036,61.8a58.115,58.115,0,0,0,8.1,28.913,59.181,59.181,0,0,0,23.828,22.846,60.035,60.035,0,0,0,45.112,4.929,60.226,60.226,0,0,0,32.775-23.225,57.65,57.65,0,0,0,6.687-11.944A65.41,65.41,0,0,0,121.4,68.63,56.649,56.649,0,0,0,119.233,43.6c-.758-2.4-1.453-4.809-3.391-5.972" fill="#9ecc37"/>
        <path id="Path_21956" data-name="Path 21956" d="M118.856,39.149a6.6,6.6,0,0,0-9.889-1.612,6.168,6.168,0,0,0-1.884,5.214,15.2,15.2,0,0,0,.847,2.749,47.034,47.034,0,0,1,1.884,21.993,7.033,7.033,0,0,0-2.826-1.612,6.277,6.277,0,0,0-6.687,3.034,23.785,23.785,0,0,0-1.319,3.507C95.2,82.681,87.7,90.155,78.076,94.7c-2.212,1.044-4.38,1.912-6.5,3.033A28.631,28.631,0,0,0,61.5,106.738a29.974,29.974,0,0,0-10.077-9.006c-2.093-1.114-4.256-2.014-6.5-3.033A39.47,39.47,0,0,1,24.11,72.8c-.421-1.082-.688-2.35-1.224-3.507a6.3,6.3,0,0,0-7.064-3.413,6.833,6.833,0,0,0-2.166,1.233c-.125.092-.428.546-.565.19a49.786,49.786,0,0,1,1.789-21.519c.286-.869.761-1.656.942-2.465a6.169,6.169,0,0,0-4.144-7.11A6.618,6.618,0,0,0,4.05,39.244a16.112,16.112,0,0,0-.754,2.18A62.336,62.336,0,0,0,0,58.013v6.161C1.445,82.5,8.727,95.217,19.024,104.937a63.5,63.5,0,0,0,17.989,11.85A60.7,60.7,0,0,0,61.688,122a60.076,60.076,0,0,0,24.487-5.309,60.854,60.854,0,0,0,24.958-19.907A59.7,59.7,0,0,0,123,63.7V58.487a66.032,66.032,0,0,0-2.637-15.072,25.363,25.363,0,0,0-1.507-4.266M121.4,68.63a65.417,65.417,0,0,1-3.861,14.693,57.657,57.657,0,0,1-6.687,11.944,60.507,60.507,0,0,1-42.193,25.121,59.5,59.5,0,0,1-35.695-6.825A59.182,59.182,0,0,1,9.135,90.718a58.116,58.116,0,0,1-8.1-28.913A50.694,50.694,0,0,1,1.6,53.368,61.875,61.875,0,0,1,4.238,42.183c.82-2.543,1.958-4.876,4.8-5.214A5.2,5.2,0,0,1,14.786,41.9a11.173,11.173,0,0,1-1.036,3.507c-.186.578-.3,1.227-.471,1.8a51.665,51.665,0,0,0-1.6,17.726A48.06,48.06,0,0,0,25.052,94.32c.375.389.749,1.022,1.413.663.329-.7-.294-1.223-.659-1.612a48.159,48.159,0,0,1-11.49-20.286c-.119-.419-.409-1.152-.565-1.9a10.763,10.763,0,0,1-.377-1.991c.117-.93,1.975-2.2,3.014-2.37a5,5,0,0,1,5.274,2.56,31.459,31.459,0,0,1,1.318,3.7A41.113,41.113,0,0,0,44.736,95.836a60.719,60.719,0,0,1,6.687,3.223c4.246,2.568,7.142,5.976,9.983,9.764.833-.921,1.59-1.853,2.355-2.749a31.219,31.219,0,0,1,8.1-7.11,71.994,71.994,0,0,1,6.781-3.318A39.954,39.954,0,0,0,100.4,71.758c.8-2.389,1.8-4.51,4.521-4.929a4.727,4.727,0,0,1,4.709,2.275A47.673,47.673,0,0,1,97.1,93.467c-.335.351-1,.869-.565,1.517.644.382,1.065-.294,1.413-.663A51.29,51.29,0,0,0,109.909,72.9a44.971,44.971,0,0,0,1.507-15.926,57.492,57.492,0,0,0-2.166-11.186c-.415-1.33-1.136-2.567-1.036-4.076a5.148,5.148,0,0,1,7.629-4.076c1.937,1.163,2.632,3.569,3.391,5.972A56.649,56.649,0,0,1,121.4,68.63" fill="#1e6796"/>
        <path id="Path_21957" data-name="Path 21957" d="M83.162,46.164c2.25-.853,3.87,1.048,5.933.664a2.864,2.864,0,0,0,1.978-2.749c.034-1.034-.5-1.991-.377-3.128.139-.049.237-.14.377-.19h.188c-.355,1.978,1.259,3.093,1.13,4.929a2.989,2.989,0,0,1-2.731,2.655c-2.607.2-4.139-2.109-6.5-2.18" fill="#1f4f25" fill-rule="evenodd"/>
        <path id="Path_21958" data-name="Path 21958" d="M85.516,41.614c1.747-.343,1.674,2.213.282,2.275a1.148,1.148,0,0,1-.282-2.275" fill="#1f4f25" fill-rule="evenodd"/>
        <path id="Path_21959" data-name="Path 21959" d="M28.631,64.554c.071.616-.209.948-.188,1.517.059,1.607,1.951,3.32.471,4.455.787-2.078-1.77-4.1-.282-5.972" fill="#1f4f25" fill-rule="evenodd"/>
        <path id="Path_21960" data-name="Path 21960" d="M29.949,64.933c.848-.283,1.139.132,1.224.569a.961.961,0,1,1-1.884.379c-.056-.581.166-.783.659-.948" fill="#1f4f25" fill-rule="evenodd"/>
        <path id="Path_21961" data-name="Path 21961" d="M33.811,67.682c.444.08-.168.535-.094.853-.086,1.921-.182,3.4-1.224,4.361-1.818,1.677-5.355.4-5.839-1.9.95.257,1.336,1.491,2.26,1.9a3.359,3.359,0,0,0,3.108-.19c1.319-.9,1.041-2.465,1.224-3.981a2.33,2.33,0,0,1,.377-1.043Z" fill="#1f4f25" fill-rule="evenodd"/>
        <path id="Path_21962" data-name="Path 21962" d="M32.869,73.749c.519-.066,1,.067.848,1.422-.1.858-1.1,2.473-1.978,2.275-1.413-.319.077-3.152.565-3.507a1.4,1.4,0,0,1,.565-.19" fill="#1f4f25" fill-rule="evenodd"/>
        <path id="Path_21963" data-name="Path 21963" d="M84.009,76.4a.873.873,0,1,1-1.6.569.921.921,0,0,1,1.6-.569" fill="#1f4f25" fill-rule="evenodd"/>
        <path id="Path_21964" data-name="Path 21964" d="M35.224,77.731c.6,1.544-.11,3.828-1.978,3.792-.915-1.438.165-4.195,1.978-3.792" fill="#1f4f25" fill-rule="evenodd"/>
        <path id="Path_21965" data-name="Path 21965" d="M36.259,81.428c1.806-.277,1.074,4-.565,3.7-1.53-.279-.481-3.536.565-3.7" fill="#1f4f25" fill-rule="evenodd"/>
        <path id="Path_21966" data-name="Path 21966" d="M90.884,82.944c-.277.8-.965,1.177-1.413,1.8a1.027,1.027,0,0,1-.565-1.327c.21-.834,1.206-.77,1.978-.474" fill="#1f4f25" fill-rule="evenodd"/>
        <path id="Path_21967" data-name="Path 21967" d="M72.99,83.039c.526-.138.894-.041,1.036.474.432,1.568-1.854,1.484-1.7.19.03-.245.038-.5.659-.664" fill="#1f4f25" fill-rule="evenodd"/>
        <path id="Path_21968" data-name="Path 21968" d="M44.547,89.959c.519.679.227,1.87-.659,1.706-.936-.173-.782-2.341.659-1.706" fill="#1f4f25" fill-rule="evenodd"/>
        <path id="Path_21969" data-name="Path 21969" d="M46.525,91.476c.646-.335,1.011.055,1.036.569.079,1.645-2.456.168-1.036-.569" fill="#1f4f25" fill-rule="evenodd"/>
        <path id="Path_21970" data-name="Path 21970" d="M77.7,46.827a16.151,16.151,0,0,0,1.6-.758c.238.215-.124.628-.188.853,2.446-.692,3.953.49,5.557,1.422a24.18,24.18,0,0,1,3.014,1.9,14.279,14.279,0,0,0,5.745,6.541,8.97,8.97,0,0,0,5.839,1.706A36.144,36.144,0,0,1,92.3,81.333c.218-2.136-1.672-4.562-1.413-6.446.126-.911,1.252-1.069,1.6-2.085a.713.713,0,0,0,.094-1.422c-1.233-.069-.695,2.74-2.26,2.465a5.482,5.482,0,0,1,0-1.706c.184-.615.77-.766.753-1.232a.873.873,0,0,0-1.7-.19,5.118,5.118,0,0,1-.094,3.128c-.717-.163-.8-.969-1.225-1.422.594-1.616-1.5-1.856-1.6-.663-.092,1.135,1.882,1.32,1.789,2.654a.261.261,0,0,0-.189.284c-1.128.508-1.03-.974-1.884-1.043a.853.853,0,0,0-.753,1.327c.572.754,2.615-.107,3.39.664a8.72,8.72,0,0,1,.848,1.706c.38.787.79,1.119.848,1.706.15,1.528-1.1,2.428-3.2,1.991-1.186-.247-2.435-1.8-3.2-2.654.273-.65.8-.709.848-1.422a1.865,1.865,0,0,0-3.485-.853c-4.581-.993-7.7,1.478-8.005,5.688-1.243.209-2.2.575-2.355,1.517a1.923,1.923,0,0,0,1.507,2.085c.463.044.976-.3,1.413-.19.678.175.931,1.514,1.13,2.18a7.271,7.271,0,0,1,.471,2.749c-.52.658-.927,1.611-1.884,1.612-.762,0-1.389-.754-1.884-1.232-.517-.5-1.7-1.381-1.789-2.37-.093-1.044.959-1.907.848-2.654a.8.8,0,0,0-1.507-.19c.013.811.436,1.028.094,1.8-1.665-.054-.871-2.671-2.26-2.844s-1.56,1.963.094,1.991c.332.616,1.229,1.3.565,2.085a2.2,2.2,0,0,1-1.225-.379c-.3-.625-.349-1.269-1.036-1.327a.974.974,0,0,0-.377,1.9c.275.085.555-.113.848-.095A4.207,4.207,0,0,1,68,89.391c.062.327-.321.479-.565.663a2.329,2.329,0,0,1-.753.474c-.727.127-1.614-.325-1.7.664a.945.945,0,0,0,1.884.095c.737-.288,1.308-1.214,2.166-1.233.78-.016,1.928,1.048,2.825,1.8.349.293.811.683,1.224,1.043.624.543.9,1.333,2.072,1.043.948-.234,1.249-2.3,2.26-2.37.7-.051,1.089.594,1.318,1.232-6.125,3.281-16.491,5.233-25.617,3.128.073-.895-.017-1.626-.565-1.9.232-.43.7-.621.942-1.043-.976-.034-1.716.168-2.731.1.357.209,1,.131,1.413.284a9.681,9.681,0,0,1-2.072.474,6.127,6.127,0,0,0,1.7,1.043c-.557.085-1.358-.4-2.072-.474-.292.206.8.729.471.664a16.591,16.591,0,0,1-2.354-.758c.99-1.206,1.01-3.566-.659-4.266-.416-.175-1.024-.135-1.507-.284a22.82,22.82,0,0,1-3.391-1.706c.361.833.24,2.154-.565,2.18-.992.033-1.215-2.138-.188-2.559-.375-.761-1.181-1.086-1.507-1.9-.3.757-.258,1.638-1.13,1.611-1.2-.037-1.405-2.909,0-3.128A29.642,29.642,0,0,1,36.354,74.7c-.025-.447.029-.885,0-1.327a29.238,29.238,0,0,0-1.318-5.783c-.717-2.55-1.819-4.5-3.861-5.4a5.708,5.708,0,0,0-1.7-.569,2.531,2.531,0,0,0-2.26,2.275A10.1,10.1,0,0,0,28.16,69.2c-.337.1-.482-.4-.659-.664a8.349,8.349,0,0,1-1.13-4.171c-1.11.915-.9,3.261-1.318,4.834-2.45-7.111-1.157-17.73,1.6-23.7,1.346,1.023,1,2.576,1.319,4.076a13.745,13.745,0,0,0,1.413,3.507c.705,1.3,1.7,2.1,2.26,3.318v1.232c.293.35.465-.221.753-.19a1.753,1.753,0,0,0,.471.758c.98-.445,1.467-1.562,1.978-2.464a6.1,6.1,0,0,0,.565-5.119c-.482-1.316-1.363-2.291-1.6-3.982-.056-.4-.357-1.089.189-1.422.488.43.289,1.132.377,1.612.377,2.065,1.942,3.174,1.978,5.688.019,1.361-.558,2.261-.565,3.792.4.12.489-.9,1.13-.853.271.179.219.829.094,1.137,2.3-.443,2.465-3.312,3.2-5.783.15-.5.461-1.037.565-1.517a33.8,33.8,0,0,0,.189-4.55c.039-.5.341-1.014.094-1.517-1.62.039-1.652,1.809-3.108,1.8-.883,0-1.72-1.173-2.26-1.9a11.444,11.444,0,0,1-1.507-2.559,8.682,8.682,0,0,0,3.014,2.37c1.221.43,1.9.1,3.014-.569a7.463,7.463,0,0,0,2.543-1.8c.391-.582.393-1.473.942-1.991a6.665,6.665,0,0,1,1.036-.474c1.9-.959,5.086-2.457,6.31-4.076.506-.67.878-2.371-.377-2.844-.367-.118-.765.249-1.225.19-1.076-.14-1.834-1.974-3.3-2.181-.6-.085-1.251.288-1.79.19-.42-.076-.614-.512-1.13-.853-2.206-.166-3.127.961-3.2,2.939a9.106,9.106,0,0,0-3.673,1.8c-.491.389-1,1.055-1.7.948-.363-.186.158-.534.189-.569a18.046,18.046,0,0,1,1.789-1.517,37.726,37.726,0,0,1,23.074-9.2C72.033,22.375,80.877,27.3,87.4,32.892c-.262.715-.387,1.569-1.036,1.9-.381-1.355-1.01-2.46-1.413-3.792-.183,2.107.2,3.473-.565,4.835a11.068,11.068,0,0,1-1.224,1.421c-.423.48-.832.978-1.225,1.422-.752.852-2.179,1.836-2.355,2.939-.11.691.428,1.455.377,2.18-.089,1.274-1.593,1.921-2.26,3.033M64.043,23.508c-.833.262-1.38,1.2-1.978,1.9-.867,1.006-1.365,1.363-1.413,2.655-.367.647-1.277.478-1.978.664a4.933,4.933,0,0,0-3.2,3.033,10.545,10.545,0,0,0-2.731,2.465,15.568,15.568,0,0,0-2.26,2.939c-.158.327-.2.741-.377,1.043-.35.587-1.25,1-1.7,1.706-.466.736-.882,1.828-.377,2.56a8.77,8.77,0,0,0,1.413-1.9c.267-.372,1.251-1.7,1.7-1.706.718-.012,1.321,1.312,1.789,1.9a9.2,9.2,0,0,0,1.884,1.8c1.359-2.3,2.421-4.894,4.426-6.541,2.019,1.823,3.032,4.659,5.086,6.446,1.576-.752,2.632-2.027,3.956-3.033,1.278,1.083,2.253,2.472,3.673,3.412a10.363,10.363,0,0,0,1.413-4.739c-.056-2.376-1.334-4.078-1.036-6.257a5.416,5.416,0,0,1,.848-1.99c.473-.568,1.026-.642,1.036-1.137.011-.518-1.123-1.482-1.224-1.8a7.107,7.107,0,0,1-2.072.19c-.5-.11-.568-.447-.942-.569a4.294,4.294,0,0,1-2.825-1.422.926.926,0,0,0,0-.758,3.533,3.533,0,0,0-3.108-.853M46.149,46.069c.337.2,1.153-.086,1.318.284-.511.212-.725.724-1.224.948,0,.409.469.349.471.758a5.257,5.257,0,0,1-1.036.758c1.577.393.925,1.729.188,2.844a46.255,46.255,0,0,1-3.579,4.929c.3.112.711.107.942.285a5.711,5.711,0,0,0-.188,1.042,2.379,2.379,0,0,1,.377,2.56,14.011,14.011,0,0,1-1.789,2.464,26.181,26.181,0,0,0-1.789,2.56c.13.217.47.223.565.474-.322.245-.731.4-.848.853a1.087,1.087,0,0,1,.848.19c-.064.441-.493.515-.471,1.043a1.874,1.874,0,0,1,1.036,0c-.058,1.174-.915,1.544-1.413,2.275.455.557,1.243.678,2.355.569,1.849-.182,4.956-.72,5.086-2.18-.473-.061-1.191.124-1.507-.095.224-.343.553-.581.565-1.137a3.27,3.27,0,0,1-1.884-.379,8.091,8.091,0,0,0,3.2-2.749c1.359-1.78,2.943-3.7,3.2-6.351-.634.183-1.643-.011-2.26.189.175-.356.823-.652.659-1.042-.65-.389-1.825-.249-2.26-.853,3.6-.925,5.794-3.268,6.31-7.3-.418-.142-1.811.284-1.978-.379a1.993,1.993,0,0,0,.565-.948,2.2,2.2,0,0,1-1.13-.19,22.749,22.749,0,0,0,3.673-4.361c-1.069-1.167-2.07-2.4-3.2-3.507-1.581,2.169-3.262,4.238-4.8,6.446m32.4,21.993c-.295-.462-.873-.638-.942-1.327.2-.187.626-.073.848,0-.051-.486-.464-.607-.565-1.043.238-.393,1.085-.172,1.507-.379a47.379,47.379,0,0,1-5.18-6.067A5.163,5.163,0,0,1,72.9,56.781a11.64,11.64,0,0,0,2.26.095c-.079-.457-.464-.608-.377-1.233.5.188.851-.086,1.413-.095-.839-1.307-2.129-2.21-2.92-3.6a27.546,27.546,0,0,1-1.978-4.55c.545-.075.805.138,1.319.095-.039-.531-.777-.859-.659-1.233.578-.011.966.668,1.507.379-.153-.354-.736-.773-.659-1.042a3.019,3.019,0,0,1,.942-.19,56.758,56.758,0,0,0-5.368-5.214c-1.293.785-2.384,1.771-3.673,2.56a16.787,16.787,0,0,0,2.449,3.223c.354.328.854.438,1.13.853-.31.351-1.153.167-1.6.379-.243.19.409.277.377.569-.768.238-1.268.746-2.355.663-.142,3.244,1.915,5.085,3.673,6.731.25.127.723.03.848.284A3.757,3.757,0,0,1,68,55.928c-.023.53.73.779.659,1.042a20.525,20.525,0,0,1-4.332.284,14.265,14.265,0,0,0,2.731,5.025c1.247,1.333,3.021,2.144,3.955,3.792a8.374,8.374,0,0,1-1.884-.1c-.054.782.822.626.942,1.232-.116.389-.622.386-.753.759.182,1.282,2.082,1,3.673,1.138a17.522,17.522,0,0,0,5.557-.095c-.061-.539-.7-.5-.848-.948.305-.078.815.118.848,0M43.982,50.335a.9.9,0,0,1,.282.758c-.73,1.093-2.22,1.838-2.072,3.508a2.183,2.183,0,0,0,1.036.19c.523-.735,1.1-1.553,1.6-2.37a9.939,9.939,0,0,0,1.319-2.56,3.6,3.6,0,0,0-2.166.474M40.309,64.08c.877-1.424,1.923-2.678,2.731-4.171-.623-.025-1.658.035-1.978,0a2.506,2.506,0,0,0,.282-.759c-.2-.147-.522-.169-.565-.474-.06-.35.341-.724.094-.948-1.121,1.343-1.715,4.615-.565,6.351m10.36,7.3c.061,3.763-.123,7.77.094,11.375a8.255,8.255,0,0,0,2.731,1.8A10.646,10.646,0,0,0,56.6,85.883c-.055-4.776,0-10.206,0-15.072,0-.515.217-1.453-.283-1.517-2.232.344-3.543,1.616-5.651,2.085m8.382-1.8c-.132,7.3-.686,15.087-.282,22.277.1,1.715-.017,3.759,1.318,4.55.944-.379,1.235-1.677,2.166-1.612.86.06.6,1.148,1.695,1.138-.736-3.268-1.592-6.372-.942-9.764a18.979,18.979,0,0,1,1.13-3.128,17.364,17.364,0,0,0,1.225-3.128c.462-2.986-.508-5.385-.377-8.437-1.991-.713-4.038-1.37-5.933-2.18ZM40.309,71.664c.284,2.341,2.733,3.173,4.05,4.74a28.407,28.407,0,0,1,1.507,2.559,10.238,10.238,0,0,0,1.413,1.706c.032.03.325.469.471.19-.016-3.081-.15-6.042-.188-9.1h-1.7a6.616,6.616,0,0,0,.848-1.517c-1.7.909-4.33.887-6.4,1.422m25.052-.095c.22,2.148-.08,4.821,1.13,5.972.277-.986,1.27-1.679,1.413-2.844.115-.941-.327-1.983-.189-3.223-.613-.537-1.611-.05-2.354.1m3.391,1.137c.406.062.528-.164.753-.285.063-.758-.211-1.177-.942-1.137a8.9,8.9,0,0,0,.189,1.422m-20.72-.758c.206,2.578.041,6.252.094,9.29A7.6,7.6,0,0,0,50.2,82.565v-10.9a8.271,8.271,0,0,0-2.166.284m-5.368,9.1a16.271,16.271,0,0,1-4.8-2.275,6.578,6.578,0,0,0,4.8,2.275m0,1.043a17.608,17.608,0,0,1-4.8-2.275,6.7,6.7,0,0,0,4.8,2.275m.471.853c-1.3.013-2.533-.547-3.485-.569.884.385,2.337,1.065,3.485.569m-.282,1.138a13.644,13.644,0,0,1-3.2-.664,3.116,3.116,0,0,0,3.2.664m6.31,6.636c.079.268.109.585.188.853a11.34,11.34,0,0,1,1.978.095c.551.046,1.191-.151,1.319.19a7.232,7.232,0,0,0-2.731.285.465.465,0,0,1,.188.474c1.315.242,2.8-.147,4.238-.095.254-.787.723-1.357.942-2.18-2.161,0-4.059.275-6.122.379" fill="#1f4f25" fill-rule="evenodd"/>
        <path id="Path_21971" data-name="Path 21971" d="M10.957,78.485l-.579.225L9.4,76.165l-1.142.444.906,2.358-.579.225L7.68,76.835l-1.245.485L7.427,79.9l-.579.225-1.23-3.2,4.123-1.6Z" fill="#1e6796"/>
        <path id="Path_21972" data-name="Path 21972" d="M11.513,79.757,9.278,83.1l3.1-1.43.274.6L8.641,84.125l-.308-.676L10.6,80.042,7.444,81.5l-.274-.6,4.018-1.856Z" fill="#1e6796"/>
        <path id="Path_21973" data-name="Path 21973" d="M13.716,84.294l.131.245a2.039,2.039,0,0,1,.257.927,1.728,1.728,0,0,1-.294.944,2.579,2.579,0,0,1-.991.853,2.613,2.613,0,0,1-1.173.348,1.922,1.922,0,0,1-1-.21,1.58,1.58,0,0,1-.639-.653L9.823,86.4l-.8-1.492,3.892-2.11Zm-3.833.9.487.91a1.736,1.736,0,0,0,.592.719,1.285,1.285,0,0,0,.654.128,2.08,2.08,0,0,0,.891-.275,2.03,2.03,0,0,0,.683-.558,1.257,1.257,0,0,0,.23-.641,1.69,1.69,0,0,0-.25-.891l-.487-.91Z" fill="#1e6796"/>
        <path id="Path_21974" data-name="Path 21974" d="M16.8,89.529l-.526.332-1.44-2.313-1.038.655,1.334,2.142-.526.332-1.334-2.142-1.131.713L13.6,91.6l-.526.332-1.81-2.908,3.746-2.363Z" fill="#1e6796"/>
        <path id="Path_21975" data-name="Path 21975" d="M17.563,90.651l-2.032,3.3,3.684-1.035.431.59-3.565,2.632-.389-.533,2.4-1.771-3.037.895-.389-.534,1.767-2.807-2.479,1.831-.389-.533,3.565-2.632Z" fill="#1e6796"/>
        <rect id="Rectangle_3336" data-name="Rectangle 3336" width="4.421" height="0.662" transform="translate(16.692 96.851) rotate(-39.427)" fill="#1e6796"/>
        <path id="Path_21976" data-name="Path 21976" d="M22.362,96.588a2.237,2.237,0,0,1,.592,1.129,1.36,1.36,0,0,1-.389,1.313l-.444-.488a.716.716,0,0,0,.2-.7,1.677,1.677,0,0,0-.415-.835,1.532,1.532,0,0,0-1.088-.518,1.794,1.794,0,0,0-1.731,1.59,1.642,1.642,0,0,0,.419,1.144,1.354,1.354,0,0,0,.887.471.911.911,0,0,0,.749-.25l.444.488a1.528,1.528,0,0,1-1.139.433,2.03,2.03,0,0,1-1.4-.72,2.2,2.2,0,0,1-.643-1.5,2.228,2.228,0,0,1,.806-1.673,2.262,2.262,0,0,1,1.71-.632,2.1,2.1,0,0,1,1.444.743" fill="#1e6796"/>
        <path id="Path_21977" data-name="Path 21977" d="M26.6,100.715a2.256,2.256,0,0,1,.558.661,1.413,1.413,0,0,1,.155.679,1.353,1.353,0,0,1-.386.777l-.5-.432a.665.665,0,0,0,.173-.681,1.444,1.444,0,0,0-.407-.529,1.723,1.723,0,0,0-.715-.414.468.468,0,0,0-.484.14q-.2.232.067.691.441.788.725,1.306a1.9,1.9,0,0,1,.292.908.855.855,0,0,1-.21.562,1.038,1.038,0,0,1-.6.368,1.53,1.53,0,0,1-.756-.067,2.689,2.689,0,0,1-.849-.538,3.206,3.206,0,0,1-.713-.832,1.29,1.29,0,0,1-.157-.74,1.611,1.611,0,0,1,.431-.855l.5.432a.737.737,0,0,0-.2.8,2.117,2.117,0,0,0,.548.726,1.679,1.679,0,0,0,.83.433.5.5,0,0,0,.474-.156q.184-.223-.138-.8-.385-.717-.705-1.267a2.027,2.027,0,0,1-.271-.751.84.84,0,0,1,.241-.652.95.95,0,0,1,.586-.331,1.413,1.413,0,0,1,.715.061,2.6,2.6,0,0,1,.8.5" fill="#1e6796"/>
        <path id="Path_21978" data-name="Path 21978" d="M29.922,103.4l.247.181a1.38,1.38,0,0,1,.417.5,1,1,0,0,1,.124.552,1.518,1.518,0,0,1-.28.781,1.256,1.256,0,0,1-.531.425,1.08,1.08,0,0,1-.656.065,1.454,1.454,0,0,1-.58-.232l-.213-.156-1.059-.774L26.3,106.247l-.532-.389,2.6-3.6Zm-2.169.834,1.059.774a1.149,1.149,0,0,0,.648.267.52.52,0,0,0,.437-.253.622.622,0,0,0,.122-.572,1.183,1.183,0,0,0-.462-.545l-1.025-.75Z" fill="#1e6796"/>
        <path id="Path_21979" data-name="Path 21979" d="M34.322,106.249l-.322.534-2.317-1.418-.636,1.053,2.146,1.313-.322.534-2.146-1.313L30.03,108.1l2.352,1.439-.322.533-2.914-1.783,2.3-3.8Z" fill="#1e6796"/>
        <path id="Path_21980" data-name="Path 21980" d="M36.658,107.4a2.224,2.224,0,0,1,.958.836,1.361,1.361,0,0,1,.11,1.366l-.59-.292a.718.718,0,0,0-.065-.722,1.667,1.667,0,0,0-.688-.627,1.528,1.528,0,0,0-1.2-.086,1.587,1.587,0,0,0-.914.865,1.567,1.567,0,0,0-.127,1.249,1.634,1.634,0,0,0,.8.914,1.353,1.353,0,0,0,1,.115.917.917,0,0,0,.608-.507l.59.292a1.537,1.537,0,0,1-.9.819,2.024,2.024,0,0,1-1.564-.16,2.189,2.189,0,0,1-1.139-1.162,2.233,2.233,0,0,1,.148-1.854,2.273,2.273,0,0,1,1.365-1.213,2.088,2.088,0,0,1,1.613.166" fill="#1e6796"/>
        <rect id="Rectangle_3337" data-name="Rectangle 3337" width="4.421" height="0.661" transform="matrix(0.385, -0.923, 0.923, 0.385, 37.146, 112.561)" fill="#1e6796"/>
        <path id="Path_21981" data-name="Path 21981" d="M43.247,110.116l-.206.589-2.558-.907-.407,1.163,2.369.84-.206.589-2.369-.84-.444,1.267,2.6.92-.206.589-3.216-1.14,1.469-4.2Z" fill="#1e6796"/>
        <path id="Path_21982" data-name="Path 21982" d="M45.643,110.736a2.234,2.234,0,0,1,.79.346,1.4,1.4,0,0,1,.436.541,1.36,1.36,0,0,1-.007.868l-.636-.167a.666.666,0,0,0-.143-.689,1.432,1.432,0,0,0-.6-.295,1.723,1.723,0,0,0-.823-.055.471.471,0,0,0-.373.34q-.077.3.363.59.741.512,1.223.852a1.876,1.876,0,0,1,.659.686.852.852,0,0,1,.058.6,1.046,1.046,0,0,1-.379.6,1.537,1.537,0,0,1-.708.275,2.682,2.682,0,0,1-1-.106,3.182,3.182,0,0,1-1-.431,1.281,1.281,0,0,1-.464-.595,1.617,1.617,0,0,1,.012-.959l.636.167a.738.738,0,0,0,.167.8,2.09,2.09,0,0,0,.81.409,1.672,1.672,0,0,0,.935.021.505.505,0,0,0,.358-.35c.044-.189-.113-.406-.473-.655q-.66-.473-1.187-.825a2.007,2.007,0,0,1-.572-.554.842.842,0,0,1-.069-.692.957.957,0,0,1,.381-.557,1.416,1.416,0,0,1,.668-.262,2.588,2.588,0,0,1,.939.1" fill="#1e6796"/>
        <path id="Path_21983" data-name="Path 21983" d="M51.557,111.959l.221.032a1.7,1.7,0,0,1,1.03.465,1.151,1.151,0,0,1,.239.981,1.266,1.266,0,0,1-.734,1.026,1.491,1.491,0,0,1-.629.089q.039.062.086.142.347.681.626,1.133a4.694,4.694,0,0,0,.574.833l-.819-.119q-.127-.024-.356-.452-.334-.612-.662-1.217a2.991,2.991,0,0,0-.277-.424l-.941-.137-.268,1.865-.65-.094.632-4.4ZM50,113.694l1.179.171a1.98,1.98,0,0,0,.855-.005.594.594,0,0,0,.359-.517.546.546,0,0,0-.143-.494,1.482,1.482,0,0,0-.785-.272l-1.278-.186Z" fill="#1e6796"/>
        <path id="Path_21984" data-name="Path 21984" d="M57.037,112.489l-.045.623-2.7-.2-.089,1.229,2.505.184-.045.623-2.505-.184-.1,1.341,2.745.2-.045.623-3.4-.25.322-4.438Z" fill="#1e6796"/>
        <path id="Path_21985" data-name="Path 21985" d="M59.642,112.493a2.228,2.228,0,0,1,.848.15,1.4,1.4,0,0,1,.549.424,1.358,1.358,0,0,1,.195.846l-.657-.013a.664.664,0,0,0-.3-.636,1.435,1.435,0,0,0-.648-.147,1.728,1.728,0,0,0-.813.14.473.473,0,0,0-.284.418q-.006.307.489.49.839.323,1.387.541a1.872,1.872,0,0,1,.8.512.853.853,0,0,1,.194.567,1.051,1.051,0,0,1-.23.67,1.542,1.542,0,0,1-.625.434,2.684,2.684,0,0,1-.995.131,3.175,3.175,0,0,1-1.076-.183,1.277,1.277,0,0,1-.59-.469,1.615,1.615,0,0,1-.211-.936l.657.013a.736.736,0,0,0,.349.743,2.093,2.093,0,0,0,.882.207,1.673,1.673,0,0,0,.914-.2.505.505,0,0,0,.267-.424q0-.29-.612-.525-.751-.305-1.346-.523a2,2,0,0,1-.685-.4.84.84,0,0,1-.228-.657.959.959,0,0,1,.241-.631,1.422,1.422,0,0,1,.589-.412,2.582,2.582,0,0,1,.936-.126" fill="#1e6796"/>
        <path id="Path_21986" data-name="Path 21986" d="M65.386,112.331l.035.623-2.707.154.069,1.23,2.508-.143.035.623-2.508.143.076,1.342,2.748-.157.035.623-3.4.194-.25-4.443Z" fill="#1e6796"/>
        <path id="Path_21987" data-name="Path 21987" d="M69.593,116.324l-.6-1.151-1.9.23-.333,1.264-.653.079,1.243-4.633.7-.085,2.2,4.215Zm-2.328-1.571,1.41-.171-.9-1.728Z" fill="#1e6796"/>
        <path id="Path_21988" data-name="Path 21988" d="M71.773,111.428l.219-.042a1.7,1.7,0,0,1,1.125.1,1.146,1.146,0,0,1,.543.85,1.273,1.273,0,0,1-.363,1.21,1.5,1.5,0,0,1-.567.29l.128.106q.548.531.958.867a4.656,4.656,0,0,0,.812.6l-.813.156q-.128.019-.483-.311l-1.019-.935a2.918,2.918,0,0,0-.4-.31l-.934.179.35,1.852-.646.123-.826-4.371Zm-.909,2.149,1.17-.224a1.975,1.975,0,0,0,.806-.285.6.6,0,0,0,.172-.606.543.543,0,0,0-.294-.42,1.475,1.475,0,0,0-.83,0l-1.268.243Z" fill="#1e6796"/>
        <path id="Path_21989" data-name="Path 21989" d="M75.83,110.436a2.208,2.208,0,0,1,1.268-.01,1.349,1.349,0,0,1,.98.952l-.634.173a.711.711,0,0,0-.523-.5,1.648,1.648,0,0,0-.928-.013,1.537,1.537,0,0,0-.958.735,1.6,1.6,0,0,0-.118,1.257,1.557,1.557,0,0,0,.725,1.021,1.618,1.618,0,0,0,1.2.152,1.361,1.361,0,0,0,.824-.577.926.926,0,0,0,.123-.785l.634-.173a1.553,1.553,0,0,1-.141,1.217,2.037,2.037,0,0,1-1.279.92,2.166,2.166,0,0,1-1.617-.114,2.219,2.219,0,0,1-1.106-1.489,2.294,2.294,0,0,1,.228-1.818,2.1,2.1,0,0,1,1.319-.949" fill="#1e6796"/>
        <path id="Path_21990" data-name="Path 21990" d="M82.25,113.056l-.643-1.806L79.519,112l.643,1.806-.619.224-1.492-4.189.619-.224.639,1.8,2.088-.754-.639-1.8.619-.223,1.492,4.189Z" fill="#1e6796"/>
        <rect id="Rectangle_3338" data-name="Rectangle 3338" width="0.657" height="4.45" transform="matrix(0.908, -0.418, 0.418, 0.908, 83.578, 107.672)" fill="#1e6796"/>
        <path id="Path_21991" data-name="Path 21991" d="M85.454,106.78l3.442,2.063-1.589-3.033.582-.308,2.056,3.926-.654.347-3.5-2.093,1.62,3.093-.581.308-2.062-3.936Z" fill="#1e6796"/>
        <path id="Path_21992" data-name="Path 21992" d="M89.912,104.178a2.235,2.235,0,0,1,.79-.346,1.384,1.384,0,0,1,.69.048,1.347,1.347,0,0,1,.627.6l-.555.355a.657.657,0,0,0-.6-.364,1.434,1.434,0,0,0-.621.238,1.736,1.736,0,0,0-.6.569.475.475,0,0,0-.007.506q.163.259.676.136.877-.2,1.453-.32a1.867,1.867,0,0,1,.948-.018.845.845,0,0,1,.473.365,1.053,1.053,0,0,1,.176.687,1.563,1.563,0,0,1-.283.709,2.716,2.716,0,0,1-.757.662,3.179,3.179,0,0,1-1,.446,1.265,1.265,0,0,1-.749-.063,1.6,1.6,0,0,1-.689-.663l.555-.355a.729.729,0,0,0,.7.425,2.088,2.088,0,0,0,.849-.318,1.686,1.686,0,0,0,.652-.674.509.509,0,0,0-.011-.5q-.159-.242-.8-.1-.794.163-1.409.312a1.988,1.988,0,0,1-.792.044.831.831,0,0,1-.55-.421.96.96,0,0,1-.145-.66,1.436,1.436,0,0,1,.265-.671,2.6,2.6,0,0,1,.711-.626" fill="#1e6796"/>
        <path id="Path_21993" data-name="Path 21993" d="M95.194,101.213l-1.31.99,2.282,3.059-.525.4L93.359,102.6l-1.31.99-.373-.5,3.144-2.376Z" fill="#1e6796"/>
        <rect id="Rectangle_3339" data-name="Rectangle 3339" width="0.657" height="4.45" transform="matrix(0.768, -0.64, 0.64, 0.768, 95.144, 100.403)" fill="#1e6796"/>
        <path id="Path_21994" data-name="Path 21994" d="M99.292,97.519l-1.2,1.117,2.575,2.814-.483.448L97.6,99.085,96.4,100.2l-.42-.459,2.892-2.682Z" fill="#1e6796"/>
        <path id="Path_21995" data-name="Path 21995" d="M99.557,96.336l2.063,1.951a.953.953,0,0,0,.766.311,1.373,1.373,0,0,0,.82-.48,1.239,1.239,0,0,0,.373-.807.989.989,0,0,0-.361-.738l-2.063-1.951.45-.482,2.063,1.951a1.591,1.591,0,0,1,.583,1.143,1.878,1.878,0,0,1-.593,1.311,2.013,2.013,0,0,1-1.328.73,1.556,1.556,0,0,1-1.162-.507l-2.063-1.951Z" fill="#1e6796"/>
        <path id="Path_21996" data-name="Path 21996" d="M104.791,91.23l-1.036,1.276,2.943,2.421-.416.512-2.943-2.421L102.3,94.294l-.48-.4,2.488-3.065Z" fill="#1e6796"/>
        <path id="Path_21997" data-name="Path 21997" d="M106.478,87.792l.5.364L105.4,90.375l1,.717,1.462-2.056.5.364L106.9,91.456l1.086.782,1.6-2.253.5.364-1.985,2.79-3.595-2.59Z" fill="#1e6796"/>
        <path id="Path_21998" data-name="Path 21998" d="M111.055,88.852a.811.811,0,0,1,.266.294.673.673,0,0,1,.071.391.666.666,0,0,1-.067.287l-.3-.195a.461.461,0,0,0,.024-.231.426.426,0,0,0-.2-.23l-.2.317L110,89.063l.41-.634Z" fill="#1e6796"/>
        <path id="Path_21999" data-name="Path 21999" d="M108.8,83.972a2.224,2.224,0,0,1,.9-.9,1.338,1.338,0,0,1,1.362-.011l-.333.571a.7.7,0,0,0-.72.013,1.668,1.668,0,0,0-.671.645,1.554,1.554,0,0,0-.172,1.2,1.589,1.589,0,0,0,.79.98,1.538,1.538,0,0,0,1.228.218,1.627,1.627,0,0,0,.964-.739,1.376,1.376,0,0,0,.187-.992.922.922,0,0,0-.458-.647l.333-.571a1.542,1.542,0,0,1,.746.968,2.062,2.062,0,0,1-.272,1.558,2.077,2.077,0,0,1-3.06.775,2.284,2.284,0,0,1-1.1-1.459,2.125,2.125,0,0,1,.282-1.608" fill="#1e6796"/>
        <path id="Path_22000" data-name="Path 22000" d="M110.594,81.4a2.423,2.423,0,0,1,.281-1.3,2.473,2.473,0,0,1,.734-.919,1.933,1.933,0,0,1,.965-.374,2.513,2.513,0,0,1,1.36.28,2.376,2.376,0,0,1,.92.792,1.932,1.932,0,0,1,.327.989,2.486,2.486,0,0,1-.28,1.252,2.614,2.614,0,0,1-.826,1,1.839,1.839,0,0,1-.967.326,2.419,2.419,0,0,1-1.2-.284,2.5,2.5,0,0,1-.98-.809,1.956,1.956,0,0,1-.338-.955m.847.564a2.044,2.044,0,0,0,.764.608,1.727,1.727,0,0,0,.878.2,1.237,1.237,0,0,0,.7-.249,1.775,1.775,0,0,0,.563-.687,1.869,1.869,0,0,0,.217-.9,1.291,1.291,0,0,0-.221-.679,1.746,1.746,0,0,0-.7-.583,1.958,1.958,0,0,0-.86-.214,1.388,1.388,0,0,0-.812.252,1.649,1.649,0,0,0-.538.66,1.93,1.93,0,0,0-.217.875,1.336,1.336,0,0,0,.228.715" fill="#1e6796"/>
        <path id="Path_22001" data-name="Path 22001" d="M117.313,76.61l-1.293-.037-.736,1.777.929.915-.253.611-3.393-3.37.271-.654,4.729.148Zm-2.505,1.265.547-1.319-1.936-.064Z" fill="#1e6796"/>
        <path id="Path_22002" data-name="Path 22002" d="M10.962,25.541a.494.494,0,0,1,.365-.24.617.617,0,0,1,.412.105l.972.691a.583.583,0,0,1,.225.357.529.529,0,0,1-.091.424L9.572,31.542a.508.508,0,0,1-.776.135l-.972-.691a.52.52,0,0,1-.232-.362.473.473,0,0,1,.1-.419l.876-1.249-.248-.176a.229.229,0,0,1-.111-.152.268.268,0,0,1,.2-.291.206.206,0,0,1,.189.04l.248.177.935-1.332-.248-.177a.228.228,0,0,1-.111-.152.267.267,0,0,1,.2-.291.206.206,0,0,1,.189.04l.248.176Zm-2.078,3.64-.769,1.1a.215.215,0,0,0-.057.2.26.26,0,0,0,.118.156l.255.181.915-1.3Zm.779.554-.915,1.3.228.162a.37.37,0,0,0,.213.079.231.231,0,0,0,.174-.116l.769-1.1Zm.438-2.289-.935,1.332.462.328.935-1.332Zm3.635-.984a.211.211,0,0,1,.182.036.222.222,0,0,1,.1.153.309.309,0,0,1-.059.187l-3.51,5a.287.287,0,0,0,.079.462l.965.686a5.156,5.156,0,0,1,1.627,1.791.254.254,0,0,1-.006.214.234.234,0,0,1-.137.121.266.266,0,0,1-.326-.169A5.1,5.1,0,0,0,11.085,33.3l-.966-.686a.645.645,0,0,1-.3-.4.59.59,0,0,1,.137-.475l3.627-5.17a.267.267,0,0,1,.151-.111M10.88,28l-.935,1.332.469.333.935-1.332Zm-.035-.628.935-1.332-.255-.181a.27.27,0,0,0-.184-.047.309.309,0,0,0-.193.143l-.764,1.09Zm3.258.142a.23.23,0,0,1,.134-.1.217.217,0,0,1,.172.049.226.226,0,0,1,.1.142.206.206,0,0,1-.037.171l-2.984,4.254a.28.28,0,0,1-.151.111.217.217,0,0,1-.172-.05.225.225,0,0,1-.1-.142.283.283,0,0,1,.054-.18Zm-2.472.417.764-1.089a.428.428,0,0,0,.064-.225.456.456,0,0,0-.135-.19l-.228-.162L11.162,27.6Zm3.634.742a.26.26,0,0,1,.082-.191.236.236,0,0,1,.177-.061.213.213,0,0,1,.171.08c.122.149.066.7-.153,1.618a4.371,4.371,0,0,0,1.491-1.3.318.318,0,0,1,.186-.117.266.266,0,0,1,.167.056.347.347,0,0,1,.1.165.3.3,0,0,1-.076.2,5.405,5.405,0,0,1-.73.76l-.127.107a5.987,5.987,0,0,1-3.321,1.228l-.54.77,1.248.887L14,32.744A9.413,9.413,0,0,0,14.55,31.5a.293.293,0,0,1,.126-.15.193.193,0,0,1,.181-.007.346.346,0,0,1,.152.108.2.2,0,0,1,.011.205,14.32,14.32,0,0,1-1.349,2.733.258.258,0,0,1-.144.116.287.287,0,0,1-.189-.04.2.2,0,0,1-.1-.147A5.318,5.318,0,0,1,13.72,33.3l-1.3-.926-.375.534a.243.243,0,0,1-.157.107.217.217,0,0,1-.172-.05.206.206,0,0,1-.09-.137.245.245,0,0,1,.047-.185l3.5-4.99a.222.222,0,0,1,.141-.1.209.209,0,0,1,.165.044.225.225,0,0,1,.1.142.209.209,0,0,1-.03.176L13.6,30.692a7.017,7.017,0,0,0,1.357-.315,6.976,6.976,0,0,0,.308-1.705" fill="#1e6796"/>
        <path id="Path_22003" data-name="Path 22003" d="M17.985,21.79a.271.271,0,0,1,.087.191.342.342,0,0,1-.069.17.4.4,0,0,1-.165.087.308.308,0,0,1-.193-.092l-.675-.654a10.331,10.331,0,0,1-.431,1.835c-.385,1.1-.7,1.7-.928,1.767a.274.274,0,0,1-.174-.039c-.146-.118-.165-.231-.06-.353A8.335,8.335,0,0,0,16.5,21.506l-2,2.088a.233.233,0,0,1-.358.007.271.271,0,0,1-.075-.167.265.265,0,0,1,.08-.182l2.231-2.333-.517-.5a12.389,12.389,0,0,1-1.934,1.924.208.208,0,0,1-.169-.081.287.287,0,0,1-.069-.173.234.234,0,0,1,.08-.182c.6-.595,1.271-1.317,2.031-2.161a18.326,18.326,0,0,0,1.61-2.014.228.228,0,0,1,.147-.117.293.293,0,0,1,.186.039.286.286,0,0,1,.11.154c.069.173-.4.825-1.426,1.957l-.24.287.529.513,2.231-2.333a.205.205,0,0,1,.16-.081.255.255,0,0,1,.175.075.275.275,0,0,1,.081.173.193.193,0,0,1-.062.175L17.365,20.6a9,9,0,0,0,3.07-1.237.334.334,0,0,1,.22-.046.251.251,0,0,1,.139.112.226.226,0,0,1,.028.192.333.333,0,0,1-.128.159,9.655,9.655,0,0,1-3.408,1.333Zm2.876,1.8,2.289-1.462a.254.254,0,0,1,.2-.034.235.235,0,0,1,.151.1.37.37,0,0,1,.039.192.293.293,0,0,1-.134.165l-2.7,1.7a6.982,6.982,0,0,1-.782,1.565,10.644,10.644,0,0,1-1.338,1.57.238.238,0,0,1-.2.088.216.216,0,0,1-.18-.069.339.339,0,0,1-.081-.185.3.3,0,0,1,.092-.206,8.758,8.758,0,0,0,1.807-2.343l-1.759,1.067a.241.241,0,0,1-.18-.045.264.264,0,0,1-.128-.16.33.33,0,0,1-.01-.186,6.279,6.279,0,0,0,.105-1.09l0-.162-1.394,1.457a.237.237,0,0,1-.166.088.263.263,0,0,1-.181-.081.253.253,0,0,1-.075-.167.246.246,0,0,1,.074-.176L18,23.436l-.074-.768a.279.279,0,0,1,.05-.2.25.25,0,0,1,.166-.087.222.222,0,0,1,.186.039,1.463,1.463,0,0,1,.118.551l2.594-2.712a.205.205,0,0,1,.16-.081.239.239,0,0,1,.175.075.277.277,0,0,1,.081.173.189.189,0,0,1-.069.17l-.609.637a5.711,5.711,0,0,1,.08,2.355m-2.364.033v.6a2.412,2.412,0,0,0,.015.805.082.082,0,0,0,.09,0l1.7-1.09a4.982,4.982,0,0,0,.076-2.285Z" fill="#1e6796"/>
        <path id="Path_22004" data-name="Path 22004" d="M23.272,13.332a9.784,9.784,0,0,1-.525,1.278l2.39-1.8a.236.236,0,0,1,.177-.06.256.256,0,0,1,.16.1.275.275,0,0,1,.052.183.219.219,0,0,1-.1.168L22.953,15.07a.241.241,0,0,1-.182.053.226.226,0,0,1-.159-.114l-.041-.054c-.614,1.059-1,1.616-1.161,1.642a.178.178,0,0,1-.179-.056.442.442,0,0,1-.1-.16A.228.228,0,0,1,21.2,16.2a10.979,10.979,0,0,0,1.7-3.177.744.744,0,0,1,.258-.333.694.694,0,0,1,.361-.166,12.446,12.446,0,0,0,3.5-.923c.066-.039.123-.061.179-.029a.392.392,0,0,1,.159.156.221.221,0,0,1,.019.166c-.044.1-.359.24-.918.438a13.362,13.362,0,0,1-2.756.648.417.417,0,0,0-.255.1.547.547,0,0,0-.175.26m.479,4.492a.6.6,0,0,1-.471.132.651.651,0,0,1-.349-.256l-.628-.843a.51.51,0,0,1-.125-.437.547.547,0,0,1,.231-.4L26.6,12.858a.523.523,0,0,1,.446-.124.632.632,0,0,1,.387.25l.628.842a.649.649,0,0,1,.125.437.6.6,0,0,1-.243.4Zm.855-2.844L22.83,16.321a.2.2,0,0,0-.11.178.264.264,0,0,0,.058.19l.41.55a.42.42,0,0,0,.2.156c.058.02.122-.007.2-.063l1.776-1.341Zm-1.328,1.332a.188.188,0,0,1-.042-.17.246.246,0,0,1,.1-.168.208.208,0,0,1,.192-.039c.621.083.988.221,1.087.368a.244.244,0,0,1,.015.19.337.337,0,0,1-.122.134.24.24,0,0,1-.211,0,3.552,3.552,0,0,0-.837-.217.34.34,0,0,1-.179-.1m2.784,3.834a.558.558,0,0,1-.476.126.576.576,0,0,1-.351-.245l-.947-1.271a.527.527,0,0,1-.118-.442.571.571,0,0,1,.236-.391l3.423-2.585a.534.534,0,0,1,.44-.131.653.653,0,0,1,.393.245l.947,1.271a.618.618,0,0,1,.113.435.564.564,0,0,1-.238.4ZM28.6,16.2l-.238-.319a.264.264,0,0,0-.4-.034l-3.139,2.371a.193.193,0,0,0-.11.178.273.273,0,0,0,.063.2l.238.319Zm-2.015-1.133.9-.683a.385.385,0,0,0,.13-.194.4.4,0,0,0-.074-.241l-.41-.55a.262.262,0,0,0-.172-.1.31.31,0,0,0-.228.077L25,14.684l.755,1.013.689-.52-.091.005a.31.31,0,0,1-.161-.1.284.284,0,0,1-.037-.205,4.147,4.147,0,0,0,.05-.527,1.469,1.469,0,0,1,.084-.595.2.2,0,0,1,.162-.08.252.252,0,0,1,.184.063.323.323,0,0,1,.076.187l-.03.469-.044.564ZM25.307,19.3l.193.258a.376.376,0,0,0,.2.15.211.211,0,0,0,.2-.056l3.139-2.371a.282.282,0,0,0,.056-.435l-.193-.258Z" fill="#1e6796"/>
        <path id="Path_22005" data-name="Path 22005" d="M30.905,10.153l-.66.342c.285.818.348,1.33.214,1.495a.236.236,0,0,1-.169.078.185.185,0,0,1-.163-.04.34.34,0,0,1-.093-.219,6.212,6.212,0,0,0-.66-2.181L29.207,9.3a.313.313,0,0,1-.033-.213.282.282,0,0,1,.127-.142.29.29,0,0,1,.177-.025.282.282,0,0,1,.164.154l.166.325.268.635.608-.315L30.009,8.4a.229.229,0,0,1-.029-.186.264.264,0,0,1,.134-.146.266.266,0,0,1,.181-.018.208.208,0,0,1,.149.124L31.12,9.5l.661-.342a.227.227,0,0,1,.177-.025.243.243,0,0,1,.141.128.276.276,0,0,1,.021.19A.208.208,0,0,1,32,9.585l-.661.342.908,1.775a4.669,4.669,0,0,1,.422-.716.225.225,0,0,1,.182.021.291.291,0,0,1,.141.128c.043.121-.122.484-.486,1.074l1.3,2.546a.271.271,0,0,1,.021.209.342.342,0,0,1-.119.138.4.4,0,0,1-.185.029.31.31,0,0,1-.153-.15l-1.175-2.3a4.472,4.472,0,0,1-.931,1.113.25.25,0,0,1-.189-.055.263.263,0,0,1-.1-.17.188.188,0,0,1,.062-.175c.32-.376.614-.787.9-1.2Zm2.57,1.44a.233.233,0,0,1-.341-.11.253.253,0,0,1-.017-.182.265.265,0,0,1,.134-.146l2.717-1.408-.5-.982-2.807,1.455a.262.262,0,0,1-.2.025.252.252,0,0,1-.134-.132.268.268,0,0,1-.029-.186.264.264,0,0,1,.134-.146l1.689-.875-.529-1.035-1.486.77a.24.24,0,0,1-.189.021.264.264,0,0,1-.145-.135.271.271,0,0,1-.017-.182.244.244,0,0,1,.127-.142l1.486-.77-.329-.642a.229.229,0,0,1-.029-.186.263.263,0,0,1,.134-.146.249.249,0,0,1,.181-.017.208.208,0,0,1,.149.124l.328.642,1.6-.828a.206.206,0,0,1,.177-.025.258.258,0,0,1,.141.127.277.277,0,0,1,.021.19.191.191,0,0,1-.116.145l-1.6.829.529,1.035,1.921-1a.206.206,0,0,1,.177-.025.264.264,0,0,1,.145.135.253.253,0,0,1,.017.182.192.192,0,0,1-.115.146l-.8.416.5.982.683-.354a.235.235,0,0,1,.185-.029.241.241,0,0,1,.141.127.275.275,0,0,1,.021.19.219.219,0,0,1-.123.149l-.683.354.908,1.775a1.462,1.462,0,0,1,.2.758,1.04,1.04,0,0,1-.667.719,5.222,5.222,0,0,1-1.077.29.257.257,0,0,1-.215-.032.236.236,0,0,1-.085-.166.225.225,0,0,1,.051-.179.279.279,0,0,1,.18-.093,2.85,2.85,0,0,0,1.2-.451.31.31,0,0,0,.087-.294,1.081,1.081,0,0,0-.121-.348l-.9-1.753Zm.608.354a.239.239,0,0,1-.013-.194.235.235,0,0,1,.127-.142.286.286,0,0,1,.2-.01,6.333,6.333,0,0,1,1.394.664.357.357,0,0,1,.123.166.257.257,0,0,1-.024.194.215.215,0,0,1-.15.116.294.294,0,0,1-.2-.047,4.876,4.876,0,0,0-1.287-.623.224.224,0,0,1-.168-.124" fill="#1e6796"/>
        <path id="Path_22006" data-name="Path 22006" d="M42.226,10.932a.236.236,0,0,1-.163.328.254.254,0,0,1-.179-.005.309.309,0,0,1-.126-.174L40.482,7.023c-.465.888-.832,1.353-1.078,1.387a.277.277,0,0,1-.186-.056.294.294,0,0,1-.094-.184c-.026-.054-.017-.11.056-.187a8.144,8.144,0,0,0,1.16-1.743.371.371,0,0,1,.086-.179,13.873,13.873,0,0,0,.465-1.307l-.008-.024-2.334.745a.262.262,0,0,1-.2-.008.253.253,0,0,1-.11-.152.269.269,0,0,1,0-.188A.262.262,0,0,1,38.4,5L41,4.175l.121-.77a.233.233,0,0,1,.1-.165A.191.191,0,0,1,41.4,3.2a.248.248,0,0,1,.167.08.231.231,0,0,1,.043.192l-.08.533,3.822-1.219a.236.236,0,0,1,.187,0,.3.3,0,0,1,.107.34.219.219,0,0,1-.146.127l-4.088,1.3-.343,1.161,3.758-1.2a.7.7,0,0,1,.539.024.728.728,0,0,1,.351.441l1.163,3.694a1.108,1.108,0,0,1,.025.643,1.167,1.167,0,0,1-.706.626,4.443,4.443,0,0,1-1.148.206.286.286,0,0,1-.221-.054.311.311,0,0,1-.091-.176.285.285,0,0,1,.062-.2.245.245,0,0,1,.2-.091,5.538,5.538,0,0,0,.993-.165A.65.65,0,0,0,46.4,9.13a.776.776,0,0,0-.033-.444l-.207-.656-4.4,1.4Zm3.3-4.919-.234-.745a.43.43,0,0,0-.168-.223.416.416,0,0,0-.286-.007L41.116,6.224a.421.421,0,0,0-.24.166.352.352,0,0,0,.012.29l.232.737Zm.487,1.547-.342-1.085-4.4,1.4.342,1.086Z" fill="#1e6796"/>
        <path id="Path_22007" data-name="Path 22007" d="M52.117,5.407l-2.6.39a.262.262,0,0,1-.194-.04.266.266,0,0,1-.094-.175.255.255,0,0,1,.042-.178.263.263,0,0,1,.174-.095l2.6-.389-.312-2.109-2.279.342a5.842,5.842,0,0,1-.673,1.733.3.3,0,0,1-.182.156.2.2,0,0,1-.188-.058.256.256,0,0,1-.094-.175.461.461,0,0,1,.077-.226,5.324,5.324,0,0,0,.717-2.994.285.285,0,0,1,.063-.207.2.2,0,0,1,.159-.075.286.286,0,0,1,.187.049q.151.158.011,1.287l2.129-.319-.188-1.269A.228.228,0,0,1,51.5.869a.264.264,0,0,1,.174-.095.268.268,0,0,1,.177.042.208.208,0,0,1,.1.165l.188,1.269,2.914-.437a.237.237,0,0,1,.184.033.264.264,0,0,1,.094.175.253.253,0,0,1-.042.178.218.218,0,0,1-.164.1l-2.913.437.312,2.109,2.688-.4a.237.237,0,0,1,.184.033.3.3,0,0,1,.084.168.323.323,0,0,1-.032.185.219.219,0,0,1-.164.1l-2.688.4.356,2.4,3.34-.5a.237.237,0,0,1,.184.033.23.23,0,0,1,.093.166.278.278,0,0,1-.041.186.241.241,0,0,1-.165.094L49.2,8.792A.3.3,0,0,1,49,8.761a.261.261,0,0,1-.086-.176.234.234,0,0,1,.033-.177.263.263,0,0,1,.174-.095l3.348-.5Z" fill="#1e6796"/>
        <path id="Path_22008" data-name="Path 22008" d="M59.537,2.23l-.76.013-.108.622c-.124.648-.27,1.016-.4,1.069a.253.253,0,0,1-.314-.114.334.334,0,0,1,0-.221A7.19,7.19,0,0,0,58.389.805l0-.238a.288.288,0,0,1,.064-.2.286.286,0,0,1,.176-.079.324.324,0,0,1,.17.065.278.278,0,0,1,.079.2l0,.238-.051.953.7-.012L59.5.25a.228.228,0,0,1,.056-.179A.255.255,0,0,1,59.735,0a.273.273,0,0,1,.179.065.21.21,0,0,1,.079.177l.025,1.487.743-.013a.229.229,0,0,1,.17.056A.244.244,0,0,1,61,1.95a.276.276,0,0,1-.064.18.212.212,0,0,1-.168.079l-.743.013.04,2.362.694-.411a.208.208,0,0,1,.185-.046.238.238,0,0,1,.154.108.248.248,0,0,1,.045.186c-.015.119-.382.355-1.069.7l.043,2.557a.27.27,0,0,1-.073.2.34.34,0,0,1-.176.071.4.4,0,0,1-.17-.056.312.312,0,0,1-.071-.2L59.59,5.348a4.267,4.267,0,0,1-1.352.431.285.285,0,0,1-.129-.151.234.234,0,0,1,.005-.187.224.224,0,0,1,.15-.122c.437-.143.873-.3,1.317-.5Zm3.65-.828a7.441,7.441,0,0,1-.907,3.27,7.383,7.383,0,0,1-1.232,1.551.336.336,0,0,1-.184.105.261.261,0,0,1-.178-.056.228.228,0,0,1-.015-.365,7.883,7.883,0,0,0,1.265-1.586A7.134,7.134,0,0,0,62.7,1.411l-.751.013-.134.538c-.313.94-.6,1.455-.861,1.536a.211.211,0,0,1-.17-.048.256.256,0,0,1-.112-.16c-.035-.05-.019-.11.039-.179a4.692,4.692,0,0,0,.82-1.952l.016-.051V1.082a5.855,5.855,0,0,0,.062-.825.256.256,0,0,1,.081-.18.233.233,0,0,1,.177-.046.285.285,0,0,1,.17.074A.229.229,0,0,1,62.1.291l-.057.638L64.824.881a.67.67,0,0,1,.424.137.642.642,0,0,1,.2.311,21.928,21.928,0,0,1-.015,4.1,4.936,4.936,0,0,1-.254,1.475,1.367,1.367,0,0,1-.73.76A1.523,1.523,0,0,1,63.7,7.8c-.626-.04-1-.153-1.095-.321a.306.306,0,0,1-.012-.212c.039-.145.165-.2.352-.15a1.776,1.776,0,0,0,1.259.08,1.128,1.128,0,0,0,.538-.638,7.717,7.717,0,0,0,.222-1.865l.028-2.788a.649.649,0,0,0-.1-.381.4.4,0,0,0-.323-.147l-.211,0v.076a10.21,10.21,0,0,1-.072,1.251v.059a7.567,7.567,0,0,1-1.606,3.86l-.05.06c-.638.708-1.1,1.064-1.367,1.052a.308.308,0,0,1-.145-.116.228.228,0,0,1,.087-.35l.492-.357.042-.035A6.958,6.958,0,0,0,63.88,1.467V1.39Z" fill="#1e6796"/>
        <path id="Path_22009" data-name="Path 22009" d="M68.429,7.581A.574.574,0,0,1,68,7.334a.619.619,0,0,1-.071-.421l.354-2.627c-.246.309-.413.475-.5.472a.244.244,0,0,1-.179-.067.267.267,0,0,1-.07-.173.286.286,0,0,1,.076-.187c.306-.378.577-.744.822-1.105a.432.432,0,0,1,.112-.2A7.592,7.592,0,0,0,69.3,1.165l-.9-.124a.261.261,0,0,1-.175-.092.246.246,0,0,1-.043-.186A.275.275,0,0,1,68.272.6a.257.257,0,0,1,.192-.034L70.973.9a.277.277,0,0,1,.169.075.267.267,0,0,1,.042.194.238.238,0,0,1-.09.159.219.219,0,0,1-.186.052l-1.121-.153a14.362,14.362,0,0,1-.637,1.628l1,.136a.537.537,0,0,1,.4.227.68.68,0,0,1,.1.451l-.478,3.545a.651.651,0,0,1-.215.391.585.585,0,0,1-.45.119Zm.739-4.221a.206.206,0,0,0-.211.048.251.251,0,0,0-.092.176l-.429,3.183a.426.426,0,0,0,.034.253.251.251,0,0,0,.192.095l.719.1a.448.448,0,0,0,.228-.046.4.4,0,0,0,.116-.224l.429-3.183a.267.267,0,0,0-.05-.2.309.309,0,0,0-.216-.107ZM72.3,4.722a5.051,5.051,0,0,1-1.572,3.13c-.219.168-.38.231-.471.21a.252.252,0,0,1-.148-.106l-.033-.073c-.024-.072.118-.241.4-.468a4.446,4.446,0,0,0,1.344-2.758l-.8-.11a.3.3,0,0,1-.176-.084.308.308,0,0,1-.034-.193.274.274,0,0,1,.081-.16.262.262,0,0,1,.193-.042l.812.111L72.256,1.5,71.7,1.425a.28.28,0,0,1-.168-.083.266.266,0,0,1-.042-.194.237.237,0,0,1,.09-.159.24.24,0,0,1,.185-.043l3.7.505a.22.22,0,0,1,.2.268.274.274,0,0,1-.091.168.234.234,0,0,1-.177.045l-.511-.07-.361,2.678.7.1a.239.239,0,0,1,.168.083.268.268,0,0,1,.035.185.325.325,0,0,1-.082.169.241.241,0,0,1-.185.043l-.7-.1-.486,3.6a.269.269,0,0,1-.1.183.308.308,0,0,1-.176.045.4.4,0,0,1-.168-.083.312.312,0,0,1-.04-.211l.486-3.6Zm2.107-2.928-1.673-.228-.361,2.678,1.673.229Z" fill="#1e6796"/>
        <path id="Path_22010" data-name="Path 22010" d="M77.774,6.333a.28.28,0,0,1-.179-.135l-.013-.191a.286.286,0,0,1,.122-.14.306.306,0,0,1,.213,0l2.05.634.167-.491.089-.292a.3.3,0,0,1,.122-.167.284.284,0,0,1,.192-.021.3.3,0,0,1,.141.115.277.277,0,0,1,.013.217L80.6,6.15l-.167.491,1.864.577a.654.654,0,0,1,.4.345.615.615,0,0,1,.027.461L82.121,10a.555.555,0,0,0,0,.408.636.636,0,0,0,.329.226l.3.092a.485.485,0,0,0,.413-.023.621.621,0,0,0,.233-.328l.29-.95a.322.322,0,0,1,.1-.164.2.2,0,0,1,.2-.026.221.221,0,0,1,.163.13.315.315,0,0,1,0,.2l-.337,1.1a1.135,1.135,0,0,1-.226.392.838.838,0,0,1-.832.178l-.581-.18a.853.853,0,0,1-.58-.588.81.81,0,0,1,.018-.492l.58-1.9a.383.383,0,0,0,0-.266.375.375,0,0,0-.242-.19L80.259,7.1A3.46,3.46,0,0,1,77.934,9.28a4.629,4.629,0,0,1-1.445.077.323.323,0,0,1-.21-.065.2.2,0,0,1-.087-.178.28.28,0,0,1,.068-.192.26.26,0,0,1,.2-.08,4.507,4.507,0,0,0,1.411-.079l.59-.226A3.178,3.178,0,0,0,79.8,6.96Zm3.253-2.612a3.521,3.521,0,0,1-.477.955,1.922,1.922,0,0,1-1.579.8,5.038,5.038,0,0,1-1.319-.133.294.294,0,0,1-.187-.111.2.2,0,0,1-.034-.179c.034-.167.123-.228.305-.19A3.03,3.03,0,0,0,79.7,4.822a2.09,2.09,0,0,0,.857-1.246l-1.332-.412a.443.443,0,0,0-.371.028.459.459,0,0,0-.193.287l-.179.585a.277.277,0,0,1-.132.173l-.189.012a.262.262,0,0,1-.139-.123.3.3,0,0,1-.008-.207l.223-.731a.743.743,0,0,1,.381-.5.794.794,0,0,1,.611-.033l2.517.779L81.883,3a.228.228,0,0,1,.109-.153.262.262,0,0,1,.2-.01.268.268,0,0,1,.142.115.211.211,0,0,1,.02.193l-.134.439,2.558.791a.631.631,0,0,1,.352.207.561.561,0,0,1,.135.282c.067.243-.079.607-.442,1.072a.264.264,0,0,1-.176.114A.217.217,0,0,1,84.471,6a.226.226,0,0,1-.041-.359c.239-.291.344-.489.307-.6a.444.444,0,0,0-.314-.275l-1.436-.444L82.509,5.9a.275.275,0,0,0,.02.282.42.42,0,0,0,.19.13l1.081.334c.484.15.762.111.823-.092.1-.317.178-.5.242-.53a.287.287,0,0,1,.233.019.193.193,0,0,1,.113.151l-.07.316a1.07,1.07,0,0,1-.609.78,1.324,1.324,0,0,1-.519-.063l-1.493-.462a.828.828,0,0,1-.46-.347.712.712,0,0,1-.038-.6l.5-1.632Z" fill="#1e6796"/>
        <path id="Path_22011" data-name="Path 22011" d="M86.6,9.076a.255.255,0,0,1-.146-.124.231.231,0,0,1-.016-.171.316.316,0,0,1,.142-.165A7.556,7.556,0,0,0,88.165,7.46a11.382,11.382,0,0,0,1.271-1.605.245.245,0,0,1,.352-.075.253.253,0,0,1,.111.154.266.266,0,0,1-.056.2,8.032,8.032,0,0,1-1.266,1.54L86.12,12.459a.3.3,0,0,1-.149.142.321.321,0,0,1-.192-.033.314.314,0,0,1-.123-.131.273.273,0,0,1,.029-.2L87.6,8.5c-.5.43-.843.623-1,.579m2.733,5.057a.261.261,0,0,1-.149.142A.338.338,0,0,1,89,14.254a.363.363,0,0,1-.122-.131.31.31,0,0,1,.033-.212l1.249-2.43a10.9,10.9,0,0,1-1.518.587c-1.1.315-1.753.4-1.94.243a.341.341,0,0,1-.084-.188.247.247,0,0,1,.078-.189.262.262,0,0,1,.2-.077,7.977,7.977,0,0,0,3.259-.905l-2-1.042a.263.263,0,0,1-.134-.146.282.282,0,0,1,.029-.186.322.322,0,0,1,.134-.131.26.26,0,0,1,.192.033l2.219,1.155.4-.777-1.327-.691a.717.717,0,0,1-.353-.385.534.534,0,0,1,.052-.451l.694-1.351a.577.577,0,0,1,.876-.281l3.194,1.663a.561.561,0,0,1,.316.365.933.933,0,0,1-.09.489l-.694,1.351a.577.577,0,0,1-.329.307.6.6,0,0,1-.471-.044l-1.44-.749-.4.777,2.212,1.151a.235.235,0,0,1,.134.127.265.265,0,0,1-.025.2.237.237,0,0,1-.137.12.218.218,0,0,1-.193-.014L91.015,11.4a8.515,8.515,0,0,0,1.2,3.121.287.287,0,0,1,.031.217.312.312,0,0,1-.119.158.239.239,0,0,1-.2.031.3.3,0,0,1-.172-.147,9.5,9.5,0,0,1-1.17-3.086Zm1.5-6.937a.323.323,0,0,0-.26-.03.331.331,0,0,0-.157.177l-.508.988a.421.421,0,0,0-.072.288.344.344,0,0,0,.175.177l2.842,1.479a.334.334,0,0,0,.489-.156l.508-.989a.364.364,0,0,0,.033-.25.37.37,0,0,0-.209-.2Z" fill="#1e6796"/>
        <path id="Path_22012" data-name="Path 22012" d="M94.179,17.1a.308.308,0,0,1-.177.119.278.278,0,0,1-.177-.062.284.284,0,0,1-.1-.156.366.366,0,0,1,.078-.2l2.235-2.9a.774.774,0,0,1,.448-.317.677.677,0,0,1,.554.2l3.374,2.635a.687.687,0,0,1,.285.448.718.718,0,0,1-.154.546l-1.8,2.329a1.03,1.03,0,0,1-.518.381,1.071,1.071,0,0,1-.846-.22,4.333,4.333,0,0,1-.767-.793.271.271,0,0,1-.069-.215.235.235,0,0,1,.094-.163.282.282,0,0,1,.2-.061.237.237,0,0,1,.189.115,4.825,4.825,0,0,0,.619.666.647.647,0,0,0,.457.142.761.761,0,0,0,.351-.275l.2-.255-3.734-2.917Zm4.769,1.574.512-.664L95.726,15.1l-.512.665Zm.807-1.047.316-.409a.409.409,0,0,0,.075-.264.365.365,0,0,0-.144-.242l-3.161-2.469a.379.379,0,0,0-.277-.1.328.328,0,0,0-.232.163l-.311.4Zm-3.539-5.012a.327.327,0,0,1-.129-.165.3.3,0,0,1,.042-.193.265.265,0,0,1,.155-.1.315.315,0,0,1,.212.058l.8.582a13.045,13.045,0,0,0,1.608-.174l-1.767-1.38a.307.307,0,0,1-.11-.162.263.263,0,0,1,.067-.184.231.231,0,0,1,.151-.1.261.261,0,0,1,.188.061l2.674,2.088.279-.362a.226.226,0,0,1,.155-.1.261.261,0,0,1,.188.061.269.269,0,0,1,.092.158.21.21,0,0,1-.049.188l-.28.362,2.54,1.984a.221.221,0,0,1,.042.334.272.272,0,0,1-.162.1.234.234,0,0,1-.175-.05l-3.314-2.589a13.922,13.922,0,0,1-1.526.206l3.134,2.254a3.16,3.16,0,0,1-.133-.825.181.181,0,0,1,.13-.113.231.231,0,0,1,.2.017.2.2,0,0,1,.116.155,7.569,7.569,0,0,1,.429,2.7.236.236,0,0,1-.159.081.242.242,0,0,1-.187-.049.266.266,0,0,1-.083-.183,11.307,11.307,0,0,0-.174-1.147Z" fill="#1e6796"/>
        <path id="Path_22013" data-name="Path 22013" d="M104.284,23.789l-1.36,1.236a.277.277,0,0,1-.213.079.372.372,0,0,1-.169-.087.251.251,0,0,1,.031-.383l1.36-1.236L102.2,21.461a.706.706,0,0,1-.2-.48.532.532,0,0,1,.207-.417l2.394-2.176a.645.645,0,0,1,.464-.193.67.67,0,0,1,.46.246l1.737,1.936.777-.706a.235.235,0,0,1,.183-.075.269.269,0,0,1,.187.094.277.277,0,0,1,.069.178.226.226,0,0,1-.088.194l-.777.706,1.777,1.98a.533.533,0,0,1,.162.46.812.812,0,0,1-.243.427l-2.394,2.176a.565.565,0,0,1-.427.171.616.616,0,0,1-.42-.214Zm.96-4.915a.35.35,0,0,0-.221-.12.3.3,0,0,0-.214.1l-2.1,1.908a.369.369,0,0,0-.156.245.3.3,0,0,0,.09.227l1.647,1.835,2.6-2.364Zm2,2.226-2.6,2.364,1.607,1.791a.333.333,0,0,0,.262.128.357.357,0,0,0,.25-.1l2.1-1.908a.36.36,0,0,0,.119-.223.394.394,0,0,0-.13-.26Z" fill="#1e6796"/>
        <path id="Path_22014" data-name="Path 22014" d="M111.8,26.1a.285.285,0,0,1,.159.109.193.193,0,0,1,.027.184.34.34,0,0,1-.116.165,19.688,19.688,0,0,1-4.6,2.174.31.31,0,0,1-.2,0,.291.291,0,0,1-.133-.146.21.21,0,0,1,0-.184.31.31,0,0,1,.172-.14,18.175,18.175,0,0,0,4.492-2.106.225.225,0,0,1,.2-.055m1.373.872a.283.283,0,0,1,.159.109.3.3,0,0,1,.034.18.262.262,0,0,1-.13.174L108.449,30.5a.546.546,0,0,0-.288.336.587.587,0,0,0,.063.383l.045.1a6.557,6.557,0,0,0,1.467,2.142l.058.043c.171.081.43.016.772-.2a4.074,4.074,0,0,1,1.113-.614.236.236,0,0,1,.148.107.408.408,0,0,1,.046.182.348.348,0,0,1-.142.171l-1.231.79a1.175,1.175,0,0,1-.434.168.608.608,0,0,1-.49-.109,4.17,4.17,0,0,1-1.068-1.259,5.1,5.1,0,0,1-.893-1.885,1.036,1.036,0,0,1,.535-.736l4.826-3.1a.279.279,0,0,1,.2-.055m1.327,1.083a.194.194,0,0,1,.17.063.257.257,0,0,1,.1.169.312.312,0,0,1-.079.192,17.9,17.9,0,0,1-3.5,3.09.267.267,0,0,1-.187.069.281.281,0,0,1-.178-.107.208.208,0,0,1-.041-.175.263.263,0,0,1,.118-.177,16.99,16.99,0,0,0,3.414-3.017.261.261,0,0,1,.183-.107m.467,2.6a.255.255,0,0,1,.177.058.259.259,0,0,1,.1.169.308.308,0,0,1-.067.194,20.657,20.657,0,0,1-3.793,3.683.289.289,0,0,1-.187.069.309.309,0,0,1-.181-.1.217.217,0,0,1-.053-.178.289.289,0,0,1,.121-.188,19.382,19.382,0,0,0,3.7-3.593.323.323,0,0,1,.185-.119" fill="#1e6796"/>
      </g>
    </g>
  </g>
</svg>
