<svg id="向量圖智慧型物件" xmlns="http://www.w3.org/2000/svg" xmlns:xlink="http://www.w3.org/1999/xlink" width="117" height="117" viewBox="0 0 117 117">
  <defs>
    <clipPath id="clip-path">
      <rect id="Rectangle_3335" data-name="Rectangle 3335" width="117" height="117" fill="none"/>
    </clipPath>
  </defs>
  <g id="Group_770" data-name="Group 770">
    <g id="Group_769" data-name="Group 769" clip-path="url(#clip-path)">
      <path id="Path_21885" data-name="Path 21885" d="M116.914,58.5A58.414,58.414,0,1,1,58.5.084,58.414,58.414,0,0,1,116.914,58.5" fill="#fff"/>
      <path id="Path_21886" data-name="Path 21886" d="M58.5,117A58.5,58.5,0,1,1,117,58.5,58.567,58.567,0,0,1,58.5,117M58.5.532A57.968,57.968,0,1,0,116.469,58.5,58.033,58.033,0,0,0,58.5.532" fill="#1a1311"/>
      <path id="Path_21887" data-name="Path 21887" d="M104.354,57.748A45.169,45.169,0,1,1,59.185,12.579a45.169,45.169,0,0,1,45.169,45.169" fill="#fff"/>
      <path id="Path_21888" data-name="Path 21888" d="M47.416,101.062s-1.028-12.417,0-21.239c1.456-7.021,3.939-15.327,7.536-18.5-1.284,5.4-1.883,9.249-1.883,9.249A62.973,62.973,0,0,0,52.9,84.363c.77,7.108,2.484,14.473,4.71,18.327-1.285-.257-8.565-.771-10.192-1.627" fill="#fff"/>
      <path id="Path_21889" data-name="Path 21889" d="M54.952,60.9a17.739,17.739,0,0,1,12.932-7.45A87.886,87.886,0,0,1,83.9,54.989c2.485.428,9.678,2.741,16.785-2.912A24.925,24.925,0,0,1,94.26,65.35a29.588,29.588,0,0,1-13.274,5.824c-4.88.771-12.246,1.028-16.355,2.655s-10.192,2.74-11.648,9.334A60.843,60.843,0,0,1,54.952,60.9" fill="#fff"/>
      <path id="Path_21890" data-name="Path 21890" d="M6.155,71.854a2.348,2.348,0,0,1,.677-.687A3.563,3.563,0,0,1,7.871,70.7,3.458,3.458,0,0,1,9,70.558a2.313,2.313,0,0,1,.928.23,2.029,2.029,0,0,1,.7.576,2.822,2.822,0,0,1,.529,1.886,2,2,0,0,1-.294.859,2.331,2.331,0,0,1-.671.684,3.547,3.547,0,0,1-1.039.466,3.535,3.535,0,0,1-1.121.145,2.385,2.385,0,0,1-.946-.23,1.968,1.968,0,0,1-.7-.581,2.77,2.77,0,0,1-.532-1.885,2.085,2.085,0,0,1,.291-.854m1.908-.474a2.339,2.339,0,0,0-1.353.844,1.645,1.645,0,0,0,.662,2.344,2.348,2.348,0,0,0,1.595.011,2.306,2.306,0,0,0,1.354-.853A1.645,1.645,0,0,0,9.663,71.4a2.317,2.317,0,0,0-1.6-.015" fill="#1a1311"/>
      <path id="Path_21891" data-name="Path 21891" d="M9.432,66.521a4.186,4.186,0,0,1,.349.555,2.2,2.2,0,0,1,.2.589,2.292,2.292,0,0,1,.022.769,1.542,1.542,0,0,1-.249.65,1.671,1.671,0,0,1-.539.5,2.6,2.6,0,0,1-.841.3,2.033,2.033,0,0,1-1.541-.23,1.806,1.806,0,0,1-.781-1.236,2.329,2.329,0,0,1-.03-.651,3.359,3.359,0,0,1,.113-.613l.7-.134.006.033a2.442,2.442,0,0,0-.233.664,1.669,1.669,0,0,0-.006.623,1.082,1.082,0,0,0,.524.781,1.615,1.615,0,0,0,1.12.108,1.621,1.621,0,0,0,.987-.5,1.077,1.077,0,0,0,.2-.926,1.638,1.638,0,0,0-.125-.381,1.832,1.832,0,0,0-.2-.331,2.853,2.853,0,0,0-.2-.23,2.118,2.118,0,0,0-.172-.166l-.006-.034Z" fill="#1a1311"/>
      <path id="Path_21892" data-name="Path 21892" d="M7.378,62.91l.325,2.8a1.615,1.615,0,0,0,.6-.177,1.166,1.166,0,0,0,.393-.338,1.151,1.151,0,0,0,.2-.449,1.7,1.7,0,0,0,.019-.545,2.132,2.132,0,0,0-.245-.763,1.91,1.91,0,0,0-.37-.523l0-.034.7-.081a5.37,5.37,0,0,1,.3.633,2.684,2.684,0,0,1,.174.7,2.056,2.056,0,0,1-.34,1.535,1.939,1.939,0,0,1-1.393.7A2.1,2.1,0,0,1,6.2,66.027a1.75,1.75,0,0,1-.7-1.274,1.549,1.549,0,0,1,.31-1.238,1.821,1.821,0,0,1,1.228-.565Zm-.417.679a1.14,1.14,0,0,0-.75.344.991.991,0,0,0-.187.792,1.115,1.115,0,0,0,.4.783,1.18,1.18,0,0,0,.793.258Z" fill="#1a1311"/>
      <path id="Path_21893" data-name="Path 21893" d="M9.053,58.984l.024.64-.407.016c.041.056.1.131.171.225a1.62,1.62,0,0,1,.176.276,1.867,1.867,0,0,1,.146.364,1.927,1.927,0,0,1,.071.487,1.224,1.224,0,0,1-.309.889,1.151,1.151,0,0,1-.859.392,1.2,1.2,0,0,1-.71-.16,1.242,1.242,0,0,1-.444-.516,2.858,2.858,0,0,1-.241-.83c-.047-.325-.089-.674-.122-1.048l-.1,0a.773.773,0,0,0-.361.09.562.562,0,0,0-.217.23.915.915,0,0,0-.093.332,2.737,2.737,0,0,0-.012.4,2.687,2.687,0,0,0,.088.561,4.229,4.229,0,0,0,.218.636v.035l-.653.024c-.039-.123-.083-.3-.133-.539a4.213,4.213,0,0,1-.088-.7,3.236,3.236,0,0,1,.04-.705,1.353,1.353,0,0,1,.208-.527,1.011,1.011,0,0,1,.4-.345,1.493,1.493,0,0,1,.615-.136Zm-.918.676L7.072,59.7c.017.2.045.426.077.691a3.483,3.483,0,0,0,.123.627,1.043,1.043,0,0,0,.261.439.706.706,0,0,0,.951-.064.928.928,0,0,0,.143-.612,1.465,1.465,0,0,0-.154-.615,2.893,2.893,0,0,0-.337-.508" fill="#1a1311"/>
      <path id="Path_21894" data-name="Path 21894" d="M9.19,54.795l-.028.643-2.176-.095a3.726,3.726,0,0,0-.494.01.893.893,0,0,0-.367.1.524.524,0,0,0-.224.237,1.093,1.093,0,0,0-.089.414,1.361,1.361,0,0,0,.107.557,2.95,2.95,0,0,0,.307.565l2.854.124-.028.643-3.821-.166.027-.643.425.019a2.606,2.606,0,0,1-.362-.639,1.63,1.63,0,0,1-.111-.667,1.184,1.184,0,0,1,.413-.928,1.594,1.594,0,0,1,1.089-.279Z" fill="#1a1311"/>
      <path id="Path_21895" data-name="Path 21895" d="M9.88,47.552c.031.132.06.254.09.362a3.192,3.192,0,0,1,.078.42,3.791,3.791,0,0,1,.03.466,2.844,2.844,0,0,1-.051.539A3.077,3.077,0,0,1,9.7,50.3a2.039,2.039,0,0,1-.621.69,2.206,2.206,0,0,1-.9.36,3.352,3.352,0,0,1-1.179-.024,3.319,3.319,0,0,1-1.078-.375,2.28,2.28,0,0,1-.735-.654,2.133,2.133,0,0,1-.359-.863A2.876,2.876,0,0,1,4.828,48.4a3.488,3.488,0,0,1,.244-.789,4.393,4.393,0,0,1,.505-.833l.791.143-.009.051a3.011,3.011,0,0,0-.653.731,2.445,2.445,0,0,0-.316.844,1.842,1.842,0,0,0,0,.709,1.539,1.539,0,0,0,.285.613,1.779,1.779,0,0,0,.573.477,2.838,2.838,0,0,0,.866.289,2.635,2.635,0,0,0,.936.021,1.876,1.876,0,0,0,.687-.257,1.493,1.493,0,0,0,.468-.485,1.876,1.876,0,0,0,.239-.643,2.526,2.526,0,0,0,0-.934,2.658,2.658,0,0,0-.355-.878l.009-.046Z" fill="#1a1311"/>
      <path id="Path_21896" data-name="Path 21896" d="M9.429,43.333a2.145,2.145,0,0,1,1.3.849,1.8,1.8,0,0,1-.674,2.484,2.151,2.151,0,0,1-1.55.073,2.15,2.15,0,0,1-1.3-.847,1.8,1.8,0,0,1,.674-2.483,2.148,2.148,0,0,1,1.552-.075m-.174.641a1.744,1.744,0,0,0-1.142-.009,1.091,1.091,0,0,0-.426,1.566,1.762,1.762,0,0,0,.99.568,1.741,1.741,0,0,0,1.128,0,1.069,1.069,0,0,0,.428-1.561,1.737,1.737,0,0,0-.979-.569" fill="#1a1311"/>
      <path id="Path_21897" data-name="Path 21897" d="M12.6,40.112l-.218.606-2.048-.743a3.79,3.79,0,0,0-.475-.14.9.9,0,0,0-.378-.017.518.518,0,0,0-.285.158,1.059,1.059,0,0,0-.208.369,1.328,1.328,0,0,0-.067.563,2.842,2.842,0,0,0,.125.631l2.685.974-.22.605-3.6-1.3.218-.6.4.144a2.587,2.587,0,0,1-.153-.719,1.611,1.611,0,0,1,.092-.67,1.185,1.185,0,0,1,.674-.76,1.589,1.589,0,0,1,1.121.061Z" fill="#1a1311"/>
      <path id="Path_21898" data-name="Path 21898" d="M13.115,36.24a1.038,1.038,0,0,1,.6.748,1.876,1.876,0,0,1-.181,1.217,2.911,2.911,0,0,1-.413.667,3.471,3.471,0,0,1-.447.451l-.658-.3.013-.031a2.526,2.526,0,0,0,.612-.467,2.064,2.064,0,0,0,.419-.6,1.369,1.369,0,0,0,.15-.662.462.462,0,0,0-.3-.4.437.437,0,0,0-.366-.023,1.168,1.168,0,0,0-.388.374c-.057.074-.125.173-.212.3s-.168.232-.246.329a1.34,1.34,0,0,1-.652.49.982.982,0,0,1-.666-.07A1.036,1.036,0,0,1,10.024,38a1.066,1.066,0,0,1-.218-.423,1.409,1.409,0,0,1-.031-.549,2.147,2.147,0,0,1,.187-.643,2.963,2.963,0,0,1,.363-.6,2.614,2.614,0,0,1,.426-.448l.627.283-.014.032a2.3,2.3,0,0,0-.525.419,2.037,2.037,0,0,0-.4.579,1.214,1.214,0,0,0-.124.6.437.437,0,0,0,.267.387.433.433,0,0,0,.385.013,1.149,1.149,0,0,0,.37-.344c.074-.1.153-.207.239-.329s.159-.225.222-.3a1.361,1.361,0,0,1,.605-.486.928.928,0,0,1,.712.056" fill="#1a1311"/>
      <path id="Path_21899" data-name="Path 21899" d="M14.341,32.383l-1.348,2.474a1.621,1.621,0,0,0,.591.2,1.131,1.131,0,0,0,.936-.3,1.67,1.67,0,0,0,.33-.434,2.142,2.142,0,0,0,.24-.764,1.964,1.964,0,0,0,0-.641l.017-.031.616.336a5.163,5.163,0,0,1-.117.693,2.643,2.643,0,0,1-.258.669,2.051,2.051,0,0,1-1.164,1.059,1.937,1.937,0,0,1-1.542-.232,2.1,2.1,0,0,1-1.062-1.161,1.745,1.745,0,0,1,.16-1.447,1.548,1.548,0,0,1,.967-.832,1.818,1.818,0,0,1,1.329.246Zm-.732.314a1.141,1.141,0,0,0-.811-.151.984.984,0,0,0-.61.54,1.116,1.116,0,0,0-.126.868,1.184,1.184,0,0,0,.5.667Z" fill="#1a1311"/>
      <path id="Path_21900" data-name="Path 21900" d="M15.013,28.947l-.018.028a2.22,2.22,0,0,0-.192.21,2.847,2.847,0,0,0-.184.262,1.325,1.325,0,0,0-.2.556,2.623,2.623,0,0,0,0,.634l2.291,1.457-.344.543L13.14,30.584l.346-.543.477.3a3.191,3.191,0,0,1-.007-.8,1.486,1.486,0,0,1,.213-.573,2.036,2.036,0,0,1,.138-.2c.031-.04.08-.1.148-.173Z" fill="#1a1311"/>
      <path id="Path_21901" data-name="Path 21901" d="M16.742,25.376l2.168,3.51-.383.522-3.993-1.024.414-.563,3.154.846-1.758-2.749Z" fill="#1a1311"/>
      <path id="Path_21902" data-name="Path 21902" d="M22.069,25.022l-.418.486-.309-.266q-.011.1-.027.281a1.546,1.546,0,0,1-.059.322,1.845,1.845,0,0,1-.14.366,2.071,2.071,0,0,1-.279.407,1.227,1.227,0,0,1-.83.441,1.153,1.153,0,0,1-.9-.3,1.2,1.2,0,0,1-.413-.6,1.239,1.239,0,0,1,.026-.679,2.806,2.806,0,0,1,.388-.772c.185-.272.392-.556.622-.851l-.076-.065a.754.754,0,0,0-.325-.178.551.551,0,0,0-.315.02.909.909,0,0,0-.294.18,2.846,2.846,0,0,0-.282.286,2.681,2.681,0,0,0-.318.472,4.282,4.282,0,0,0-.273.615l-.022.025-.5-.426c.056-.117.145-.279.27-.486a4.084,4.084,0,0,1,.41-.572,3.14,3.14,0,0,1,.509-.49A1.361,1.361,0,0,1,19.034,23a1.017,1.017,0,0,1,.523.017,1.491,1.491,0,0,1,.544.319Zm-1.132-.127-.808-.7c-.118.157-.257.343-.413.56a3.624,3.624,0,0,0-.336.544,1.031,1.031,0,0,0-.106.5.6.6,0,0,0,.234.428.611.611,0,0,0,.5.172.925.925,0,0,0,.521-.352,1.475,1.475,0,0,0,.3-.556,2.809,2.809,0,0,0,.1-.6" fill="#1a1311"/>
      <path id="Path_21903" data-name="Path 21903" d="M24.145,22.842a3.372,3.372,0,0,1-.22.337,2.607,2.607,0,0,1-.245.294,1.183,1.183,0,0,1-.848.416,1.417,1.417,0,0,1-.935-.49l-1.452-1.423-.3.31-.386-.379.3-.31-.786-.77.452-.46.784.769.931-.949.385.378-.928.949,1.245,1.219c.142.141.258.248.345.321a.773.773,0,0,0,.293.153.466.466,0,0,0,.288-.007.967.967,0,0,0,.327-.244,1.2,1.2,0,0,0,.2-.267,2.251,2.251,0,0,0,.118-.229l.024-.024Z" fill="#1a1311"/>
      <path id="Path_21904" data-name="Path 21904" d="M22.061,18.734l-.53.5-.456-.487.53-.5Zm3.02,3.288-.469.44L22,19.669l.471-.44Z" fill="#1a1311"/>
      <path id="Path_21905" data-name="Path 21905" d="M27.146,17.735a2.15,2.15,0,0,1,.575,1.441,1.8,1.8,0,0,1-1.978,1.646,2.155,2.155,0,0,1-1.311-.83,2.161,2.161,0,0,1-.578-1.441,1.8,1.8,0,0,1,1.978-1.646,2.156,2.156,0,0,1,1.315.829m-.511.425A1.746,1.746,0,0,0,25.7,17.5a1.092,1.092,0,0,0-1.246,1.037,1.752,1.752,0,0,0,.484,1.034,1.739,1.739,0,0,0,.92.653,1.071,1.071,0,0,0,1.246-1.032,1.731,1.731,0,0,0-.474-1.029" fill="#1a1311"/>
      <path id="Path_21906" data-name="Path 21906" d="M31.591,16.917l-.527.369L29.815,15.5a3.729,3.729,0,0,0-.309-.387.911.911,0,0,0-.3-.232.519.519,0,0,0-.324-.034,1.075,1.075,0,0,0-.383.183,1.338,1.338,0,0,0-.377.422,2.838,2.838,0,0,0-.261.589L29.5,18.381l-.527.369-2.193-3.132.527-.37.244.348a2.642,2.642,0,0,1,.286-.677,1.643,1.643,0,0,1,.462-.494,1.185,1.185,0,0,1,.987-.236,1.589,1.589,0,0,1,.883.694Z" fill="#1a1311"/>
      <path id="Path_21907" data-name="Path 21907" d="M37.99,13.36l-.643.33-1.095-1.034-1.96,1.01.206,1.493-.612.315L33.2,10.093l.8-.414ZM35.8,12.235,33.859,10.42l.349,2.635Z" fill="#1a1311"/>
      <path id="Path_21908" data-name="Path 21908" d="M41.315,12.018l-.6.243-.15-.371a2.353,2.353,0,0,1-.4.565,1.6,1.6,0,0,1-.556.37,1.3,1.3,0,0,1-1.206-.078,2.362,2.362,0,0,1-.925-1.2,2.5,2.5,0,0,1-.2-.854,2,2,0,0,1,.1-.741,1.586,1.586,0,0,1,.9-.941,2.009,2.009,0,0,1,.518-.143,2.479,2.479,0,0,1,.527,0l-.625-1.535.6-.243Zm-.952-.629-.828-2.033a2.508,2.508,0,0,0-.492.027,2.133,2.133,0,0,0-.432.128,1.019,1.019,0,0,0-.639.667,1.678,1.678,0,0,0,.125,1.1,1.9,1.9,0,0,0,.607.872.827.827,0,0,0,.825.046A1.37,1.37,0,0,0,40,11.876a2.333,2.333,0,0,0,.367-.487" fill="#1a1311"/>
      <path id="Path_21909" data-name="Path 21909" d="M47.59,10.1l-.619.177-.6-2.094c-.046-.157-.1-.308-.153-.452a1,1,0,0,0-.192-.325.516.516,0,0,0-.278-.153.967.967,0,0,0-.429.044,1.2,1.2,0,0,0-.483.279,3.337,3.337,0,0,0-.426.48q.031.073.067.171c.024.066.045.132.064.2l.673,2.354-.618.177L44,8.861a4.746,4.746,0,0,0-.153-.457,1.01,1.01,0,0,0-.192-.324.514.514,0,0,0-.277-.151.992.992,0,0,0-.428.046,1.2,1.2,0,0,0-.474.271,3.263,3.263,0,0,0-.417.465l.785,2.746-.619.176L41.173,7.956l.619-.177.116.409a2.858,2.858,0,0,1,.471-.54,1.486,1.486,0,0,1,.575-.311,1.262,1.262,0,0,1,.683-.024,1.014,1.014,0,0,1,.515.326,3.191,3.191,0,0,1,.554-.651,1.648,1.648,0,0,1,.622-.329,1.107,1.107,0,0,1,1,.111,1.69,1.69,0,0,1,.581.943Z" fill="#1a1311"/>
      <path id="Path_21910" data-name="Path 21910" d="M48.413,5.449l-.712.14-.128-.655.712-.14Zm.821,4.389-.631.124-.738-3.752.631-.125Z" fill="#1a1311"/>
      <path id="Path_21911" data-name="Path 21911" d="M53.432,9.2l-.637.087L52.5,7.129a3.764,3.764,0,0,0-.1-.485.891.891,0,0,0-.161-.343.519.519,0,0,0-.272-.179,1.085,1.085,0,0,0-.425-.014,1.361,1.361,0,0,0-.529.2,2.823,2.823,0,0,0-.5.4L50.9,9.543l-.639.086L49.749,5.84l.639-.086.057.42A2.642,2.642,0,0,1,51.01,5.7a1.631,1.631,0,0,1,.636-.227,1.182,1.182,0,0,1,.986.244A1.587,1.587,0,0,1,53.1,6.741Z" fill="#1a1311"/>
      <path id="Path_21912" data-name="Path 21912" d="M54.812,4.627l-.723.054-.051-.666.723-.055Zm.3,4.455-.641.049-.288-3.815.642-.047Z" fill="#1a1311"/>
      <path id="Path_21913" data-name="Path 21913" d="M58.889,7.84a1.04,1.04,0,0,1-.413.869,1.89,1.89,0,0,1-1.175.363,2.864,2.864,0,0,1-.781-.083,3.419,3.419,0,0,1-.6-.207L55.9,8.06h.035a2.546,2.546,0,0,0,.687.348,2.111,2.111,0,0,0,.717.119A1.349,1.349,0,0,0,58,8.375a.463.463,0,0,0,.23-.438A.436.436,0,0,0,58.1,7.6a1.173,1.173,0,0,0-.5-.187c-.09-.018-.211-.039-.36-.063s-.282-.05-.4-.08a1.34,1.34,0,0,1-.723-.375.962.962,0,0,1-.224-.629,1.029,1.029,0,0,1,.086-.448,1.071,1.071,0,0,1,.288-.379,1.392,1.392,0,0,1,.481-.267,2.185,2.185,0,0,1,.66-.109,2.947,2.947,0,0,1,.7.068,2.656,2.656,0,0,1,.588.19L58.7,6l-.034,0a2.305,2.305,0,0,0-.606-.293,2.05,2.05,0,0,0-.7-.109,1.216,1.216,0,0,0-.593.149.476.476,0,0,0-.078.76,1.138,1.138,0,0,0,.471.184c.118.025.252.049.4.073s.27.046.37.066a1.369,1.369,0,0,1,.7.337.925.925,0,0,1,.259.665" fill="#1a1311"/>
      <path id="Path_21914" data-name="Path 21914" d="M61.609,9.011a3.352,3.352,0,0,1-.4.064,2.84,2.84,0,0,1-.382.017,1.188,1.188,0,0,1-.879-.349,1.412,1.412,0,0,1-.266-1.02l.076-2.033-.435-.016.021-.541.435.017.04-1.1.643.024-.04,1.1,1.328.05-.021.542L60.4,5.715l-.065,1.741c-.007.2-.009.358,0,.471a.789.789,0,0,0,.085.321.466.466,0,0,0,.2.208.981.981,0,0,0,.4.079,1.3,1.3,0,0,0,.33-.034,2.151,2.151,0,0,0,.249-.069l.035,0Z" fill="#1a1311"/>
      <path id="Path_21915" data-name="Path 21915" d="M64.845,6.2l-.035,0a2.614,2.614,0,0,0-.272-.076c-.09-.018-.2-.033-.318-.045a1.326,1.326,0,0,0-.585.079,2.61,2.61,0,0,0-.563.29l-.25,2.7-.642-.059.352-3.808.642.059-.054.563a3.144,3.144,0,0,1,.714-.373,1.484,1.484,0,0,1,.608-.073,2.4,2.4,0,0,1,.24.031c.05.011.123.028.222.054Z" fill="#1a1311"/>
      <path id="Path_21916" data-name="Path 21916" d="M67.743,9.814l-.633-.1.064-.4c-.062.029-.147.07-.254.123a1.6,1.6,0,0,1-.306.12,1.925,1.925,0,0,1-.384.071,2.036,2.036,0,0,1-.494-.025,1.222,1.222,0,0,1-.811-.476,1.154,1.154,0,0,1-.217-.919A1.2,1.2,0,0,1,65,7.54a1.253,1.253,0,0,1,.593-.334,2.886,2.886,0,0,1,.862-.074c.328.016.678.045,1.051.085l.017-.1a.781.781,0,0,0-.019-.37.562.562,0,0,0-.183-.258.9.9,0,0,0-.307-.157,2.833,2.833,0,0,0-.393-.09,2.728,2.728,0,0,0-.568-.024,4.519,4.519,0,0,0-.665.09L65.354,6.3l.1-.646c.129-.014.312-.023.554-.025a4.019,4.019,0,0,1,.7.049,3.294,3.294,0,0,1,.684.177,1.353,1.353,0,0,1,.475.307,1.01,1.01,0,0,1,.262.454,1.534,1.534,0,0,1,.013.63Zm-.485-1.031.168-1.051c-.2-.02-.426-.039-.693-.059a3.575,3.575,0,0,0-.64,0,1.037,1.037,0,0,0-.481.171.707.707,0,0,0-.122.944.925.925,0,0,0,.572.26,1.45,1.45,0,0,0,.632-.032,2.867,2.867,0,0,0,.564-.231" fill="#1a1311"/>
      <path id="Path_21917" data-name="Path 21917" d="M70.69,10.444a3.654,3.654,0,0,1-.4-.012,2.813,2.813,0,0,1-.379-.055,1.178,1.178,0,0,1-.8-.506,1.413,1.413,0,0,1-.073-1.053l.456-1.982-.425-.1.122-.528.423.1.246-1.072.627.143-.245,1.072,1.3.3-.122.527-1.3-.3-.388,1.7c-.045.2-.076.35-.093.462a.789.789,0,0,0,.023.33.463.463,0,0,0,.158.241.949.949,0,0,0,.378.151,1.243,1.243,0,0,0,.329.028,2.27,2.27,0,0,0,.258-.019l.033.007Z" fill="#1a1311"/>
      <path id="Path_21918" data-name="Path 21918" d="M71.86,10.81l-.619-.171,1.017-3.687.619.171Zm1.229-4.293-.7-.193.176-.643.7.193Z" fill="#1a1311"/>
      <path id="Path_21919" data-name="Path 21919" d="M76.592,10.333a2.149,2.149,0,0,1-.929,1.243,1.8,1.8,0,0,1-2.436-.829A2.14,2.14,0,0,1,73.252,9.2a2.148,2.148,0,0,1,.927-1.244,1.8,1.8,0,0,1,2.436.828,2.156,2.156,0,0,1-.023,1.554m-.628-.214a1.749,1.749,0,0,0,.08-1.139,1.089,1.089,0,0,0-1.535-.523,1.741,1.741,0,0,0-.63.952,1.746,1.746,0,0,0-.076,1.126,1.071,1.071,0,0,0,1.532.524,1.741,1.741,0,0,0,.629-.941" fill="#1a1311"/>
      <path id="Path_21920" data-name="Path 21920" d="M79.612,13.7l-.59-.258.871-2a3.839,3.839,0,0,0,.171-.465.913.913,0,0,0,.039-.377.516.516,0,0,0-.139-.294,1.061,1.061,0,0,0-.355-.232,1.336,1.336,0,0,0-.557-.1,2.788,2.788,0,0,0-.639.084L77.27,12.681l-.59-.258,1.532-3.5.589.257-.171.389a2.649,2.649,0,0,1,.728-.109,1.613,1.613,0,0,1,.662.137,1.187,1.187,0,0,1,.718.719,1.591,1.591,0,0,1-.132,1.115Z" fill="#1a1311"/>
      <path id="Path_21921" data-name="Path 21921" d="M82.148,13.915l-1.889,1.548-.444-.23,1.561-1.717Z" fill="#1a1311"/>
      <path id="Path_21922" data-name="Path 21922" d="M88.23,13.41a2.321,2.321,0,0,1-.036.965,3.528,3.528,0,0,1-.451,1.044,3.483,3.483,0,0,1-.74.87,2.291,2.291,0,0,1-.839.456,2.01,2.01,0,0,1-.907.05,2.81,2.81,0,0,1-1.663-1.034,2.016,2.016,0,0,1-.364-.833,2.312,2.312,0,0,1,.035-.957,3.876,3.876,0,0,1,1.18-1.909,2.377,2.377,0,0,1,.854-.468,1.973,1.973,0,0,1,.906-.043,2.6,2.6,0,0,1,.922.362,2.558,2.558,0,0,1,.742.672,2.055,2.055,0,0,1,.361.826m-1.087,1.638a2.34,2.34,0,0,0,.428-1.537,1.643,1.643,0,0,0-2.07-1.282A2.351,2.351,0,0,0,84.315,13.3a2.307,2.307,0,0,0-.423,1.544,1.644,1.644,0,0,0,2.059,1.275,2.32,2.32,0,0,0,1.191-1.069" fill="#1a1311"/>
      <path id="Path_21923" data-name="Path 21923" d="M89.435,19.575A4.192,4.192,0,0,1,88.8,19.4a2.1,2.1,0,0,1-.544-.3,2.249,2.249,0,0,1-.537-.553,1.57,1.57,0,0,1-.254-.65,1.653,1.653,0,0,1,.064-.731,2.587,2.587,0,0,1,.417-.787,2.031,2.031,0,0,1,1.293-.87,1.8,1.8,0,0,1,1.411.387,2.315,2.315,0,0,1,.462.461,3.423,3.423,0,0,1,.33.528l-.43.573-.026-.02a2.46,2.46,0,0,0-.277-.648,1.652,1.652,0,0,0-.416-.464,1.08,1.08,0,0,0-.913-.222,1.988,1.988,0,0,0-1.287,1.713,1.073,1.073,0,0,0,.475.819,1.647,1.647,0,0,0,.349.2,1.678,1.678,0,0,0,.37.11,2.773,2.773,0,0,0,.3.035,2.119,2.119,0,0,0,.239.007l.027.02Z" fill="#1a1311"/>
      <path id="Path_21924" data-name="Path 21924" d="M93.374,20.851,91.248,19a1.607,1.607,0,0,0-.324.533,1.173,1.173,0,0,0-.062.516,1.153,1.153,0,0,0,.157.464,1.7,1.7,0,0,0,.353.416,2.118,2.118,0,0,0,.7.4,1.954,1.954,0,0,0,.627.139l.025.022-.46.529a5.417,5.417,0,0,1-.652-.262,2.7,2.7,0,0,1-.6-.4,2.053,2.053,0,0,1-.782-1.365,1.942,1.942,0,0,1,.556-1.455,2.109,2.109,0,0,1,1.365-.787,1.752,1.752,0,0,1,1.378.468,1.552,1.552,0,0,1,.6,1.124,1.825,1.825,0,0,1-.527,1.244Zm-.15-.783a1.136,1.136,0,0,0,.322-.759.977.977,0,0,0-.4-.712,1.114,1.114,0,0,0-.821-.31,1.19,1.19,0,0,0-.759.343Z" fill="#1a1311"/>
      <path id="Path_21925" data-name="Path 21925" d="M94.766,24.871l-.448-.457.289-.286c-.067-.014-.159-.031-.278-.051a1.683,1.683,0,0,1-.315-.085,1.943,1.943,0,0,1-.354-.173,2.013,2.013,0,0,1-.381-.312,1.22,1.22,0,0,1-.369-.866,1.155,1.155,0,0,1,.371-.868,1.22,1.22,0,0,1,.633-.36,1.258,1.258,0,0,1,.676.085,2.868,2.868,0,0,1,.737.452q.381.311.794.693l.072-.07a.769.769,0,0,0,.2-.309.557.557,0,0,0,.007-.316.916.916,0,0,0-.152-.309,3.061,3.061,0,0,0-.262-.305,2.751,2.751,0,0,0-.444-.356,4.423,4.423,0,0,0-.589-.324l-.024-.024.467-.459c.113.066.267.17.464.311a3.917,3.917,0,0,1,.535.457,3.187,3.187,0,0,1,.445.55,1.343,1.343,0,0,1,.2.529,1.022,1.022,0,0,1-.059.52,1.491,1.491,0,0,1-.364.514Zm.222-1.116.761-.746c-.146-.133-.319-.286-.523-.459a3.521,3.521,0,0,0-.512-.382,1.034,1.034,0,0,0-.49-.149.705.705,0,0,0-.659.687.938.938,0,0,0,.305.549,1.438,1.438,0,0,0,.529.349,2.816,2.816,0,0,0,.589.15" fill="#1a1311"/>
      <path id="Path_21926" data-name="Path 21926" d="M97.5,28.082l-.413-.494L98.759,26.2a3.8,3.8,0,0,0,.361-.341.9.9,0,0,0,.2-.318.518.518,0,0,0,.007-.326,1.041,1.041,0,0,0-.213-.367,1.318,1.318,0,0,0-.453-.34,2.743,2.743,0,0,0-.607-.212l-2.194,1.826-.414-.494,2.942-2.446.412.494-.326.272a2.571,2.571,0,0,1,.7.229,1.652,1.652,0,0,1,.532.418,1.2,1.2,0,0,1,.317.965,1.6,1.6,0,0,1-.619.938Z" fill="#1a1311"/>
      <path id="Path_21927" data-name="Path 21927" d="M101.581,34.161l-.384-.612.938-1.179L100.962,30.5l-1.469.333-.367-.584,5.3-1.139.48.766Zm.935-2.277L104.16,29.8l-2.6.572Z" fill="#1a1311"/>
      <path id="Path_21928" data-name="Path 21928" d="M106.9,34.221l-.017-.031c-.014-.072-.04-.164-.074-.275a1.611,1.611,0,0,0-.114-.28.834.834,0,0,0-.445-.443.915.915,0,0,0-.672.148l-.114.062.546,1.022-.477.256L105,33.676,102.1,35.226l-.3-.567,2.895-1.552-.206-.383.477-.255.206.383.111-.059a1.477,1.477,0,0,1,1.082-.194,1.266,1.266,0,0,1,.785.69,3,3,0,0,1,.165.352c.043.109.078.21.108.3Z" fill="#1a1311"/>
      <path id="Path_21929" data-name="Path 21929" d="M107.96,36.453l-.015-.03a2.781,2.781,0,0,0-.062-.278,1.722,1.722,0,0,0-.1-.286.824.824,0,0,0-.425-.462.915.915,0,0,0-.677.117l-.118.057.5,1.046-.487.234-.492-1.028-2.963,1.417-.278-.58,2.962-1.418-.189-.392.489-.233.189.392.113-.055a1.479,1.479,0,0,1,1.09-.146,1.265,1.265,0,0,1,.753.725,3.345,3.345,0,0,1,.149.36c.038.109.069.212.093.306Z" fill="#1a1311"/>
      <path id="Path_21930" data-name="Path 21930" d="M104.907,41.419l-.239-.594.377-.152c-.057-.038-.136-.09-.238-.154a1.582,1.582,0,0,1-.258-.2,1.936,1.936,0,0,1-.262-.294,2.061,2.061,0,0,1-.232-.435,1.217,1.217,0,0,1-.01-.941,1.148,1.148,0,0,1,.676-.659,1.2,1.2,0,0,1,.722-.09,1.243,1.243,0,0,1,.591.336,2.868,2.868,0,0,1,.508.7q.233.435.469.944l.092-.037a.753.753,0,0,0,.307-.206.575.575,0,0,0,.128-.289.949.949,0,0,0-.025-.345,3.18,3.18,0,0,0-.123-.382,2.805,2.805,0,0,0-.275-.5,4.5,4.5,0,0,0-.419-.525l-.013-.031.606-.245c.08.1.181.258.309.463a4.143,4.143,0,0,1,.319.628,3.235,3.235,0,0,1,.2.677,1.379,1.379,0,0,1-.018.566,1,1,0,0,1-.254.457,1.521,1.521,0,0,1-.533.337Zm.634-.946.988-.4q-.128-.267-.307-.624a3.579,3.579,0,0,0-.328-.549,1.044,1.044,0,0,0-.4-.324.707.707,0,0,0-.873.382.937.937,0,0,0,.073.623,1.433,1.433,0,0,0,.355.526,2.828,2.828,0,0,0,.489.364" fill="#1a1311"/>
      <path id="Path_21931" data-name="Path 21931" d="M105.442,43.015l-.206-.61,3.624-1.224.2.61Zm4.243-1.388-.232-.688.633-.214.231.688Z" fill="#1a1311"/>
      <path id="Path_21932" data-name="Path 21932" d="M109.436,45.471l-.01-.032a2.225,2.225,0,0,0-.03-.282,2.7,2.7,0,0,0-.072-.312,1.314,1.314,0,0,0-.286-.517,2.545,2.545,0,0,0-.475-.419l-2.609.75-.178-.619,3.676-1.056.177.618-.542.156a3.13,3.13,0,0,1,.606.53,1.469,1.469,0,0,1,.289.539c.03.107.049.186.058.236s.019.125.031.227Z" fill="#1a1311"/>
      <path id="Path_21933" data-name="Path 21933" d="M108.191,49.158a1.037,1.037,0,0,1-.933-.238,1.888,1.888,0,0,1-.584-1.083,2.782,2.782,0,0,1-.069-.783,3.4,3.4,0,0,1,.086-.627l.705-.156.007.033a2.585,2.585,0,0,0-.21.741,2.1,2.1,0,0,0,.023.727,1.339,1.339,0,0,0,.278.62.458.458,0,0,0,.472.141.431.431,0,0,0,.305-.2,1.153,1.153,0,0,0,.086-.531c0-.094,0-.215-.005-.365s-.006-.286,0-.411a1.331,1.331,0,0,1,.229-.782.975.975,0,0,1,.575-.343,1.033,1.033,0,0,1,.455,0,1.072,1.072,0,0,1,.428.209,1.427,1.427,0,0,1,.355.421,2.177,2.177,0,0,1,.234.627,3.02,3.02,0,0,1,.068.7,2.661,2.661,0,0,1-.073.614l-.672.149-.007-.033a2.24,2.24,0,0,0,.168-.652,2.018,2.018,0,0,0-.026-.7,1.218,1.218,0,0,0-.26-.552.438.438,0,0,0-.445-.151.433.433,0,0,0-.317.221,1.16,1.16,0,0,0-.09.5c0,.123,0,.258.006.408s.008.274.007.376a1.352,1.352,0,0,1-.2.751.931.931,0,0,1-.6.382" fill="#1a1311"/>
      <path id="Path_21934" data-name="Path 21934" d="M108.29,56.226c-.064-.121-.125-.23-.18-.327a3.337,3.337,0,0,1-.183-.386,4.394,4.394,0,0,1-.147-.443,2.876,2.876,0,0,1-.087-.534,3.108,3.108,0,0,1,.075-1.017,2.066,2.066,0,0,1,.425-.826,2.236,2.236,0,0,1,.784-.578,3.386,3.386,0,0,1,1.147-.275,3.3,3.3,0,0,1,1.137.089,2.276,2.276,0,0,1,.877.447,2.163,2.163,0,0,1,.568.743,2.878,2.878,0,0,1,.254,1,3.5,3.5,0,0,1-.034.826,4.493,4.493,0,0,1-.276.933l-.8.064,0-.052a3.018,3.018,0,0,0,.445-.873,2.413,2.413,0,0,0,.091-.9,1.863,1.863,0,0,0-.18-.684,1.539,1.539,0,0,0-.43-.521,1.8,1.8,0,0,0-.676-.315,2.854,2.854,0,0,0-.913-.06,2.616,2.616,0,0,0-.91.218,1.862,1.862,0,0,0-.6.423,1.494,1.494,0,0,0-.33.587,1.919,1.919,0,0,0-.069.684,2.505,2.505,0,0,0,.24.9,2.616,2.616,0,0,0,.565.759l0,.049Z" fill="#1a1311"/>
      <path id="Path_21935" data-name="Path 21935" d="M109.892,60.194a2.144,2.144,0,0,1-1.478-.468,1.8,1.8,0,0,1-.018-2.574,2.524,2.524,0,0,1,2.953-.021,1.8,1.8,0,0,1,.019,2.574,2.152,2.152,0,0,1-1.475.49m0-.664a1.746,1.746,0,0,0,1.1-.3,1.089,1.089,0,0,0-.011-1.62,2.216,2.216,0,0,0-2.2.017,1.066,1.066,0,0,0,.008,1.617,1.734,1.734,0,0,0,1.1.285" fill="#1a1311"/>
      <path id="Path_21936" data-name="Path 21936" d="M107.713,64.114l.049-.641.423.032a3.145,3.145,0,0,1-.348-.651,1.549,1.549,0,0,1-.087-.665,1.205,1.205,0,0,1,.438-.909,1.554,1.554,0,0,1,1.1-.254l2.476.186-.047.641-2.173-.162a3.885,3.885,0,0,0-.5-.01.9.9,0,0,0-.361.09.557.557,0,0,0-.238.222,1.055,1.055,0,0,0-.1.422,1.386,1.386,0,0,0,.089.553,2.5,2.5,0,0,0,.289.577l2.848.213-.049.641Z" fill="#1a1311"/>
      <path id="Path_21937" data-name="Path 21937" d="M107.087,68.291l.1-.636,2.15.345a3.724,3.724,0,0,0,.493.047.887.887,0,0,0,.374-.054.517.517,0,0,0,.251-.21,1.064,1.064,0,0,0,.135-.4,1.327,1.327,0,0,0-.04-.564,2.838,2.838,0,0,0-.241-.6l-2.819-.452.1-.636,3.776.606-.1.635-.419-.067a2.667,2.667,0,0,1,.286.677,1.653,1.653,0,0,1,.033.674,1.194,1.194,0,0,1-.517.875,1.6,1.6,0,0,1-1.114.151Z" fill="#1a1311"/>
      <path id="Path_21938" data-name="Path 21938" d="M106.442,72.093a4.155,4.155,0,0,1-.089-.65,2.181,2.181,0,0,1,.059-.617,2.278,2.278,0,0,1,.3-.71,1.544,1.544,0,0,1,.5-.49,1.655,1.655,0,0,1,.7-.23,2.548,2.548,0,0,1,.887.073,2.026,2.026,0,0,1,1.31.846,1.8,1.8,0,0,1,.2,1.448,2.323,2.323,0,0,1-.242.605,3.309,3.309,0,0,1-.356.512l-.7-.168.008-.033a2.449,2.449,0,0,0,.486-.509,1.7,1.7,0,0,0,.263-.566,1.081,1.081,0,0,0-.156-.926,1.985,1.985,0,0,0-2.081-.509,1.074,1.074,0,0,0-.566.76,1.644,1.644,0,0,0-.044.4,1.767,1.767,0,0,0,.045.384,2.866,2.866,0,0,0,.086.291c.034.093.064.166.09.223l-.009.033Z" fill="#1a1311"/>
      <path id="Path_21939" data-name="Path 21939" d="M105.833,73.248l.182-.617,3.666,1.088-.183.617Zm4.267,1.309.206-.7.64.19-.206.7Z" fill="#1a1311"/>
      <rect id="Rectangle_3334" data-name="Rectangle 3334" width="0.644" height="5.328" transform="matrix(0.319, -0.948, 0.948, 0.319, 105.297, 74.899)" fill="#1a1311"/>
      <path id="Path_21940" data-name="Path 21940" d="M32.451,43.534A14.113,14.113,0,0,1,22.625,34.8C19.054,46.826,24.86,54.754,33.188,59.66a38.965,38.965,0,0,1,13.8,12.809,35.036,35.036,0,0,1,6.226-12.3c.111-.781.192-1.543.229-2.272.143-8.527-13.559-12.3-20.99-14.36" fill="#1a1311"/>
      <path id="Path_21941" data-name="Path 21941" d="M47.543,60.968l.9.227a3.028,3.028,0,0,1-1.018,1.69,2.808,2.808,0,0,1-1.8.582,3.247,3.247,0,0,1-1.788-.447,2.81,2.81,0,0,1-1.048-1.3,4.629,4.629,0,0,1-.359-1.824,4.006,4.006,0,0,1,.405-1.852,2.779,2.779,0,0,1,1.154-1.2,3.376,3.376,0,0,1,1.649-.412,2.794,2.794,0,0,1,1.716.519,2.694,2.694,0,0,1,.968,1.462l-.885.209a2.1,2.1,0,0,0-.686-1.081,1.826,1.826,0,0,0-1.131-.338,2.187,2.187,0,0,0-1.31.376,1.97,1.97,0,0,0-.739,1.008,4.051,4.051,0,0,0-.214,1.3,4.148,4.148,0,0,0,.253,1.515,1.886,1.886,0,0,0,.786.967,2.2,2.2,0,0,0,1.154.319,1.934,1.934,0,0,0,1.28-.435,2.236,2.236,0,0,0,.71-1.294" fill="#fff"/>
      <path id="Path_21942" data-name="Path 21942" d="M12.556,88.3a.38.38,0,0,1-.007-.313,2.09,2.09,0,0,1,.08-.378.621.621,0,0,1,.1-.168,2.59,2.59,0,0,1,.284-.44,1.444,1.444,0,0,1,.429-.369,1.427,1.427,0,0,1,.546-.182,3.6,3.6,0,0,1,.48-.088,1.333,1.333,0,0,0,.538-.314,1.733,1.733,0,0,0,.4-.62,1.787,1.787,0,0,1,.269-.612.54.54,0,0,1,.378-.284.143.143,0,0,1,.175.05c.048.025.058.109.03.252s-.061.274-.095.39a2.209,2.209,0,0,0-.058.226,1.344,1.344,0,0,1-.239.772,1,1,0,0,1-.728.364,3.8,3.8,0,0,0-.86.19.86.86,0,0,0-.509.473h.183c.105-.019.278-.042.517-.069s.423-.052.557-.076a1.032,1.032,0,0,1,.276-.027c.052.007.124.014.219.019a2.5,2.5,0,0,1,.357.05c.142.029.266.052.367.066a1.436,1.436,0,0,1,.277.065,6.251,6.251,0,0,0-.7.342,7.59,7.59,0,0,1-1.135.489,5.465,5.465,0,0,1-1.215.322,1.872,1.872,0,0,1-.722-.05.213.213,0,0,1-.2-.08m6.921,4a2.2,2.2,0,0,1-.438-.4,3.629,3.629,0,0,1-.43-.452l-.175-.232c-.073.024-.151.052-.233.084s-.189.073-.316.124a2.715,2.715,0,0,0-.306.139,1.581,1.581,0,0,0-.2.128,1.844,1.844,0,0,1,.335.476c.088.177.092.295.015.354q-.138.058-.342-.153a1.584,1.584,0,0,1-.38-.444c-.092.038-.2.089-.32.15l-.448.222a1.8,1.8,0,0,1-.466.168.651.651,0,0,1-.324-.006.63.63,0,0,1-.357-.233.732.732,0,0,1-.1-.56A4.206,4.206,0,0,1,15.085,91a.994.994,0,0,0,.109-.4,1.174,1.174,0,0,1-.509.109.491.491,0,0,1-.423-.138c-.087-.116-.039-.214.145-.292a1.26,1.26,0,0,1,.648-.168,4.84,4.84,0,0,0-.379-.444,1.28,1.28,0,0,1-.244-.477.349.349,0,0,1,.2-.376,4,4,0,0,1,.549-.3.284.284,0,0,1-.018-.146.67.67,0,0,1,.061-.251.468.468,0,0,1,.146-.2.2.2,0,0,1,.138-.059.3.3,0,0,1,.211-.022.506.506,0,0,1,.241.138.891.891,0,0,1,.236.164,1.63,1.63,0,0,1,.135.149,2.079,2.079,0,0,1,.269-.066l.4-.073c.161-.029.3-.049.411-.059a1.252,1.252,0,0,0,.281-.05.666.666,0,0,1,.2-.285.238.238,0,0,1,.284.015q.167.1.32.215a1.142,1.142,0,0,0,.278.156l.05.007c.019-.014.054-.009.1.014.053-.009.082,0,.088.026a.158.158,0,0,0,.028.069c-.043.063.027.177.213.342a7.307,7.307,0,0,1,.655.691.7.7,0,0,1,.169.83,1.538,1.538,0,0,1-.714.627c.039.092.092.2.161.335a2.99,2.99,0,0,1,.175.415,1.092,1.092,0,0,1,.055.437,1.959,1.959,0,0,1-.069.393c-.039.03-.107.019-.2-.028m-3.125-1.159c-.069-.07-.149-.146-.241-.229a1.71,1.71,0,0,1-.227-.241,1.027,1.027,0,0,1-.16-.153l-.12.023a.241.241,0,0,0-.1.051,2.354,2.354,0,0,0,.045.422.743.743,0,0,0,.211.342.378.378,0,0,0,.353.076,1.677,1.677,0,0,0,.412-.149.71.71,0,0,1-.175-.143m-.067-1.452a.642.642,0,0,0,.3-.087c.024-.05-.011-.115-.1-.2-.113-.068-.232-.146-.358-.232a1.915,1.915,0,0,1-.341.029c-.127.034-.2.075-.226.124q-.088.066.029.16a1.814,1.814,0,0,0,.248.269,2.166,2.166,0,0,1,.452-.065m1.064,1.294a.591.591,0,0,0,.27-.248.283.283,0,0,0-.066-.269l-.321-.306a2.6,2.6,0,0,0-.492.073c-.153.039-.236.109-.251.212a.413.413,0,0,0,.16.334,2.857,2.857,0,0,0,.313.357,1.925,1.925,0,0,0,.386-.154m-.215-5.622a3.466,3.466,0,0,0,.279-.233.638.638,0,0,0,.186-.3,2.431,2.431,0,0,1,.073-.327.387.387,0,0,1,.466-.168.975.975,0,0,1,.6.5.944.944,0,0,1,.14.852.632.632,0,0,1-.473.4.5.5,0,0,1-.379.1.928.928,0,0,1-.429-.269,2.052,2.052,0,0,0-.393-.342.428.428,0,0,0-.386-.029,1.861,1.861,0,0,1,.313-.19m1.817,4.783c.059-.043.136-.1.232-.175l.19-.234A.631.631,0,0,1,19.5,89.6a.629.629,0,0,0-.1-.378,1.434,1.434,0,0,0-.587-.356,3.47,3.47,0,0,0-.761-.225,1.359,1.359,0,0,0-.444.015.332.332,0,0,1-.084.04.229.229,0,0,0-.1.076.116.116,0,0,0-.029.113.289.289,0,0,0,.04.085.316.316,0,0,0,.27.116,2.79,2.79,0,0,0,.378-.1.649.649,0,0,1,.393-.022.5.5,0,0,1,.226.241.353.353,0,0,1,.022.3.464.464,0,0,1-.2.219.128.128,0,0,0-.044.214,1.994,1.994,0,0,0,.332.321l.146-.11M21.7,89.134a.9.9,0,0,1-.463.052c-.2-.019-.364-.039-.5-.058-.151-.039-.243-.061-.277-.065a.4.4,0,0,0,.145-.474,1.267,1.267,0,0,0-.642-.52,6.467,6.467,0,0,0-.932-.393,1.088,1.088,0,0,1-.452-.206.375.375,0,0,1-.139-.216.524.524,0,0,1,.036-.346.392.392,0,0,1,.178-.247.218.218,0,0,1,.2-.036,2.44,2.44,0,0,0,.407-.125,3.8,3.8,0,0,0,.5-.215,3.88,3.88,0,0,1,.5-.216,1.331,1.331,0,0,1,.386-.153c.053-.01.116.034.189.131a1.045,1.045,0,0,1,.027.459.8.8,0,0,1-.186.481c-.1.107-.191.15-.266.13a.191.191,0,0,0-.157,0c-.029.021-.032.07-.007.142l.109.145a.147.147,0,0,0,.094.066,1.328,1.328,0,0,0,.336.295c.15.1.319.222.506.371a1.542,1.542,0,0,1,.4.447,1.386,1.386,0,0,1,.154.386.221.221,0,0,1-.153.16" fill="#1a1311"/>
      <path id="Path_21943" data-name="Path 21943" d="M27.1,99.064a3.807,3.807,0,0,1-.688-.3c-.3-.154-.545-.282-.731-.383a2.442,2.442,0,0,0-.358-.172l-.362.408q-.364.407-1.012,1a2.434,2.434,0,0,1-.931.634c-.205.012-.289-.1-.251-.321a2.858,2.858,0,0,1,.16-.589,3.187,3.187,0,0,1,.373-.692,6.542,6.542,0,0,1,.492-.635c.146-.162.275-.308.388-.435a.772.772,0,0,0-.174-.106c-.08-.039-.164-.08-.252-.127s-.169-.085-.239-.115a1.345,1.345,0,0,0-.184-.067,2.279,2.279,0,0,0-.444-.1,2.169,2.169,0,0,1-.553-.2.562.562,0,0,1-.318-.382.983.983,0,0,1,.01-.478,2.166,2.166,0,0,0-.328.122c-.134.059-.285.128-.452.206a2.228,2.228,0,0,0-.43.154c-.136.043-.253.084-.354.124a.314.314,0,0,1-.318-.136.946.946,0,0,1-.136-.586.927.927,0,0,1,.2-.63.5.5,0,0,1,.372-.254,1.236,1.236,0,0,0,.414-.192,4.1,4.1,0,0,0,.751-.624,6.023,6.023,0,0,0,.63-.707c.108-.2.148-.331.119-.407s0-.184.1-.327a.852.852,0,0,1,.39-.384q.251-.117.322-.006a.351.351,0,0,1-.02.324,1.113,1.113,0,0,0-.092.405q-.023.272-.057.584a.691.691,0,0,1-.23.477,1.8,1.8,0,0,1-.454.18.627.627,0,0,0-.24.079,3.274,3.274,0,0,0-.336.213,3.523,3.523,0,0,0-.333.265c-.091.083-.151.142-.183.178-.164.147-.188.247-.073.3a1.624,1.624,0,0,0,.867-.153q.7-.233,1.1-.412a3.107,3.107,0,0,0,.426-.206c.169-.044.273-.032.312.034.019.051-.093.177-.34.38s-.459.371-.641.5a1.152,1.152,0,0,0-.3.2c0,.018.041.045.121.083a3.5,3.5,0,0,1,.334.2.913.913,0,0,1,.229.18c.027.042.017.072-.033.092s-.031.062.059.126a2.955,2.955,0,0,0,.53.253,3.48,3.48,0,0,0,.608.248q.238.115.263.088l.021-.079a.479.479,0,0,0,.059-.093.57.57,0,0,1,.071-.108c.024-.027.045-.05.061-.067a2.3,2.3,0,0,1-.293-.164,1.4,1.4,0,0,1-.384-.391,1.036,1.036,0,0,1-.193-.44.54.54,0,0,1,.046-.325.216.216,0,0,1,.23-.038.712.712,0,0,1,.367.108,1.774,1.774,0,0,0,.37.16.551.551,0,0,0,.285.008q-.055-.049-.178-.182a2.185,2.185,0,0,1-.267-.385,1,1,0,0,1-.153-.4.319.319,0,0,1,.064-.236c.017-.018.068-.021.154-.009a1.415,1.415,0,0,1,.342.11c.142.094.254.169.336.225a.689.689,0,0,0,.2.1c.052.015.21.039.469.076a6.7,6.7,0,0,0,1.008.045,2.1,2.1,0,0,0,.894-.155q.224-.142.177-.281c-.031-.093-.009-.146.069-.159a.689.689,0,0,1,.381.145.979.979,0,0,1,.386.416.9.9,0,0,1,.1.433.56.56,0,0,1-.149.331.759.759,0,0,1-.387.215c-.189.028-.35.046-.487.053s-.241.014-.309.018a1.284,1.284,0,0,1,.109.535c-.009.155-.107.23-.3.224a1.262,1.262,0,0,1-.55-.149,3.184,3.184,0,0,1-.4-.157c-.017.018.013.076.088.175a2.783,2.783,0,0,1,.169.467c.054.194.031.312-.07.352a.688.688,0,0,1-.444-.1c-.054-.013-.114-.027-.183-.04a.521.521,0,0,0-.231.013.384.384,0,0,0-.2.115c-.048.054-.089.1-.121.135l.081.073a.31.31,0,0,0,.133.069.266.266,0,0,0,.142,0,.664.664,0,0,1,.115-.02c.017-.017.078.014.186.092a2.65,2.65,0,0,1,.426.452,1.717,1.717,0,0,1,.331.587c.044.17.042.281-.007.336-.033.036-.127.033-.284-.009m-1.7-5.7a.67.67,0,0,1-.5-.152,2.26,2.26,0,0,1-.435-.387,1.24,1.24,0,0,1-.248-.27c-.019-.017-.012-.051.019-.1a.982.982,0,0,1,.22-.219,2.394,2.394,0,0,0,.281-.261.332.332,0,0,0,.1-.225c-.022-.085.035-.115.175-.088a1.2,1.2,0,0,1,.537.381,1.069,1.069,0,0,1,.348.65.739.739,0,0,1-.149.55.646.646,0,0,1-.354.124m1.616,1.2a.917.917,0,0,1-.308.018.475.475,0,0,1-.284-.009.668.668,0,0,1-.187-.119.5.5,0,0,1-.263-.525.8.8,0,0,1,.349-.665q.367-.305.556-.187a.348.348,0,0,1,.127.405c-.029.105.028.2.172.3a1.564,1.564,0,0,0,.48.281q.266.14.118.252a1.745,1.745,0,0,1-.581.214,1.009,1.009,0,0,0-.178.035" fill="#1a1311"/>
      <path id="Path_21944" data-name="Path 21944" d="M36,105.578a1.772,1.772,0,0,1-.824-.249q-.595-.283-.94-.486l-.408-.238c-.058.051-.128.109-.207.175a1.2,1.2,0,0,1-.313.175,1.938,1.938,0,0,0-.329.166,1.523,1.523,0,0,0-.267.1,1.936,1.936,0,0,1,.348.414c.11.149.239.337.388.564.114.237.215.448.3.639s.157.357.212.5c.068.124.084.217.047.28s-.142.029-.319-.1a2.274,2.274,0,0,1-.5-.376,2.108,2.108,0,0,0-.278-.246,1.393,1.393,0,0,0-.209-.291,3.037,3.037,0,0,0-.3-.427,2.669,2.669,0,0,0-.367-.383,2.271,2.271,0,0,0-.265-.2,4.752,4.752,0,0,1-.836.061,2.359,2.359,0,0,1-1.059-.281,2.168,2.168,0,0,1-.852-.708,3.493,3.493,0,0,1-.377-.726,1.534,1.534,0,0,1-.047-.28c0-.088.019-.13.074-.125a.214.214,0,0,1,.207.078.784.784,0,0,1,.2.159,2.008,2.008,0,0,0,.291.3q.22.128.537.271a2.708,2.708,0,0,0,.542.19,2.3,2.3,0,0,1,.451.095,2.679,2.679,0,0,0-.343-.242.551.551,0,0,1-.237-.244.3.3,0,0,1,.052-.307c.078-.109.17-.231.277-.366-.1-.028-.213-.068-.351-.12a2.974,2.974,0,0,0-.5-.229,4,4,0,0,0-.505-.147c-.15-.031-.273-.061-.369-.089a.368.368,0,0,1-.147,0c-.064-.009-.134-.022-.21-.038a.448.448,0,0,1-.2-.094,1.132,1.132,0,0,0-.149-.108.542.542,0,0,1-.108-.464c.037-.161.184-.279.439-.355a.684.684,0,0,1,.593.03.34.34,0,0,1,.182.338c-.012.022.027.052.118.089s.241.092.454.161a2.223,2.223,0,0,0,.483.113.52.52,0,0,0,.225.047c-.021-.012-.031-.046-.026-.1a.34.34,0,0,1-.055-.159,1.148,1.148,0,0,0-.024-.14l-.027-.1a.319.319,0,0,1,.014-.2.5.5,0,0,1,.16-.2,1.253,1.253,0,0,1,.239-.156,1.9,1.9,0,0,0,.147-.145.584.584,0,0,1,.18-.128.942.942,0,0,1,.3-.079.844.844,0,0,0,.344-.01.331.331,0,0,0,.248-.066,1.083,1.083,0,0,1-.225-.047l-.289-.083q-.176-.059-.3-.093a.765.765,0,0,1-.191-.07.347.347,0,0,1-.228-.26.667.667,0,0,1,.05-.519.741.741,0,0,1,.385-.407.6.6,0,0,1,.428-.046.285.285,0,0,0,.113.023l.2.119a.331.331,0,0,1,.146.149,1.3,1.3,0,0,1,.048.133c-.012.021.037.057.148.107a2.033,2.033,0,0,0,.538.124c.248.033.436.059.567.078a.516.516,0,0,0,.252,0,.742.742,0,0,0,.146-.1.238.238,0,0,0,.092-.157c-.009-.033-.05-.058-.126-.074l-.225-.046a1.852,1.852,0,0,1-.635-.287.233.233,0,0,1-.047-.386A.891.891,0,0,1,33.517,99a2.909,2.909,0,0,1,.615-.043,1.144,1.144,0,0,0,.58-.019,2.607,2.607,0,0,1,.6-.091.412.412,0,0,1,.405.279,4.274,4.274,0,0,1,.171.648,1.21,1.21,0,0,1-.005.334.223.223,0,0,1-.176.192.477.477,0,0,1-.3.079,1.412,1.412,0,0,1-.307-.052,1.377,1.377,0,0,1,.149.213,1.052,1.052,0,0,0,.244.269,1.179,1.179,0,0,0,.277.247c.071.07.133.133.184.192.113.093.135.177.066.248a1.227,1.227,0,0,1-.624.058,6.371,6.371,0,0,1-.844-.071,1.848,1.848,0,0,1-.357-.038l-.035.062-.056.095c-.025.042-.045.079-.065.11l-.045.079c.063.036.187.1.371.194a3.3,3.3,0,0,1,.64.458,1.739,1.739,0,0,1,.468.569.451.451,0,0,1,.014.409c-.024.041-.156.05-.393.023a4.334,4.334,0,0,1-.852-.2q-.5-.163-.548-.362-.039-.149.26-.228a.466.466,0,0,0,.185-.1.2.2,0,0,0-.025-.246.812.812,0,0,0-.224-.195,1.015,1.015,0,0,1-.207-.078c-.07.072-.146.154-.228.246l-.238.408q-.116.271-.176.446a2.09,2.09,0,0,0-.1.321l.093.055c.021.012.054,0,.1-.027.025-.042.043-.073.055-.095a.294.294,0,0,1,.024-.112.244.244,0,0,1,.183-.168.526.526,0,0,1,.432.125.879.879,0,0,1,.358.4.393.393,0,0,1,.01.343,4.559,4.559,0,0,0,.52.156,2.931,2.931,0,0,1,.637.245,1.445,1.445,0,0,1,.511.425,1.543,1.543,0,0,1,.253.506c.056.145.017.235-.115.27m-3.769-3.3c-.146.056-.312.112-.5.171s-.355.116-.5.172a3.647,3.647,0,0,1-.367.123.561.561,0,0,0,.175.06,1.052,1.052,0,0,0,.239.1c.1.028.181.05.257.066a1.414,1.414,0,0,0,.193.028.567.567,0,0,0,.043-.144,1.373,1.373,0,0,1,.08-.248c.039-.089.079-.123.121-.1.033-.009.075.016.125.073a.156.156,0,0,0,.126.073c.054,0,.114-.039.18-.126a1.186,1.186,0,0,0,.147-.252,1.358,1.358,0,0,1,.066-.151c-.113.047-.24.1-.386.155m-.14,2.047a.916.916,0,0,0,.279-.153c.08-.066.081-.128,0-.188a1.041,1.041,0,0,0-.291-.149,1.5,1.5,0,0,1-.267.1.43.43,0,0,0-.212.109q-.061.069.006.172a.646.646,0,0,0,.225.194c.065-.017.151-.044.258-.081" fill="#1a1311"/>
      <path id="Path_21945" data-name="Path 21945" d="M43.86,111.712a.665.665,0,0,1-.219-.036,1.944,1.944,0,0,1-.258-.2,1.847,1.847,0,0,1-.213-.226,1.878,1.878,0,0,0-.136-.162q-.1-.149-.241-.311a2.943,2.943,0,0,0-.337-.422c-.141-.15-.27-.284-.384-.4a2.961,2.961,0,0,0-.263-.243,1.364,1.364,0,0,1-.349-.445c-.057-.134-.009-.22.146-.258a1.658,1.658,0,0,1,.53-.031c.191.04.348.066.471.083a.389.389,0,0,1-.027-.144c0-.065,0-.136,0-.213s.024-.108.069-.091a.4.4,0,0,0,.114.116c.039.115.134.1.289-.056a3.294,3.294,0,0,0,.426-1.029,7.893,7.893,0,0,0,.284-1.288,1.687,1.687,0,0,0,.009-.593.748.748,0,0,0-.35-.1,4.212,4.212,0,0,0-.846,0,5.063,5.063,0,0,0-.807.111c-.168.045-.25.095-.243.149-.015.046.038.077.161.093a2.5,2.5,0,0,0,.587-.031q.426-.009.691,0a.641.641,0,0,1,.368.163c.03.062-.022.121-.156.177a1.785,1.785,0,0,1-.663.083,5.562,5.562,0,0,1-.754.014,1.084,1.084,0,0,0-.328,0,.327.327,0,0,0-.129.322c.03.1.183.158.46.175s.525.038.748.061a1,1,0,0,1,.426.106q.011.082-.208.16a2.659,2.659,0,0,1-.709.106c-.328.018-.592.024-.8.019a3.359,3.359,0,0,0-.386,0,.42.42,0,0,0-.111.329c.018.1.141.15.367.163a1.625,1.625,0,0,0,.6-.066,3.5,3.5,0,0,0,.352-.13c.007-.024.088-.033.241-.033a.944.944,0,0,1,.471.141c.16.093.194.181.1.265a1.1,1.1,0,0,1-.474.2c-.161.022-.353.06-.576.113a7.315,7.315,0,0,0-.779.312,8.04,8.04,0,0,0-.721.371,1.883,1.883,0,0,0-.44.389,1.365,1.365,0,0,0-.255.183,2.131,2.131,0,0,1-.358.262,1.13,1.13,0,0,1-.426.125,1.631,1.631,0,0,1-.288-.059c-.039-.039-.109-.115-.212-.225a1.7,1.7,0,0,1-.268-.4c-.076-.154-.067-.253.024-.3a.421.421,0,0,1,.3.024,1.129,1.129,0,0,0,.449.038,2.007,2.007,0,0,0,.7-.261,4.482,4.482,0,0,0,.624-.365,3.075,3.075,0,0,1,.393-.251,1.167,1.167,0,0,0-.178-.041c-.073-.012-.16-.022-.259-.031s-.189-.012-.264-.012a.579.579,0,0,1-.184-.025.306.306,0,0,1-.23-.117.363.363,0,0,1-.027-.316,2.483,2.483,0,0,0,.065-.362c.023-.069.026-.113.006-.132s0-.083.064-.19.151-.295.268-.563.213-.478.291-.631c.062-.184.1-.288.105-.31a.333.333,0,0,1,.07-.208.579.579,0,0,1,.3-.205.507.507,0,0,1,.329-.062.407.407,0,0,1,.2.087c.007.055.052.076.132.065a1.838,1.838,0,0,0,.34-.1c.145-.054.265-.1.358-.148l.184-.091c-.023-.008-.05-.042-.08-.1-.016-.031-.038-.078-.069-.139l-.068-.139a.149.149,0,0,0-.115,0,.174.174,0,0,0-.138.01.773.773,0,0,1-.174.057,1.326,1.326,0,0,1-.2.028.459.459,0,0,1-.132-.007c-.131.007-.244-.1-.338-.306a1.138,1.138,0,0,1,.033-.835,1.026,1.026,0,0,1,.511-.711.933.933,0,0,1,.669-.044c.045.017.1.036.172.059a1.1,1.1,0,0,0,.253.047.794.794,0,0,0,.254.047,1.29,1.29,0,0,0,.195-.01,3.807,3.807,0,0,1,.542-.066,3.443,3.443,0,0,1,.771.05,2.36,2.36,0,0,1,.73.228,2.6,2.6,0,0,1,.442.284.77.77,0,0,1,.217.381.419.419,0,0,1-.174.344,1.619,1.619,0,0,0-.284.327.276.276,0,0,0-.019.282.108.108,0,0,1,.012.081.072.072,0,0,1-.069.091.268.268,0,0,1-.122.074.187.187,0,0,1-.1.005c-.153,0-.33-.009-.528-.025s-.44-.028-.721-.033a2.38,2.38,0,0,0-.72.082,3.275,3.275,0,0,0-.484.182,2.228,2.228,0,0,0,.713.049,4.531,4.531,0,0,1,1.082.1q.575.118.636.5a1.486,1.486,0,0,1-.125.823,6.427,6.427,0,0,0-.28.712,6.694,6.694,0,0,0-.333,1.04q-.148.6-.259,1.046c-.076.3-.132.538-.172.729.053.07.141.19.263.359a1.47,1.47,0,0,1,.3.6.544.544,0,0,1,.009.542.577.577,0,0,1-.37.181Zm-.374-7.74a1.7,1.7,0,0,0,.519-.17c.2-.06.282-.134.249-.223a.311.311,0,0,0-.27-.168,2.33,2.33,0,0,0-.356-.083,1.807,1.807,0,0,0-.564.021,1.968,1.968,0,0,0-.531.147,1.067,1.067,0,0,0-.266.218c-.078.076-.089.149-.035.218.022.085.122.132.3.14a4.347,4.347,0,0,0,.461,0l.241-.033a.716.716,0,0,0,.254-.068" fill="#1a1311"/>
      <path id="Path_21946" data-name="Path 21946" d="M57.026,108.491a1.458,1.458,0,0,1-.466.052,4.732,4.732,0,0,1-.51-.028l-.271-.034a2.157,2.157,0,0,1-.761-.372,3.234,3.234,0,0,1-.747-.773q-.375-.523-.622-.885a2.994,2.994,0,0,0-.545-.62.559.559,0,0,0-.29-.036,1.733,1.733,0,0,0-.544.243,2.462,2.462,0,0,0-.488.378,2.526,2.526,0,0,0-.215.249,1.544,1.544,0,0,0,.46-.016c.163-.028.345-.067.547-.115a2.746,2.746,0,0,1,.587,0,1.035,1.035,0,0,1,.456.168.188.188,0,0,1,.074.284c-.066.128-.282.246-.651.359a2.119,2.119,0,0,1-.967.1,1.1,1.1,0,0,1-.544-.2.1.1,0,0,0-.045-.078.231.231,0,0,0-.122-.052.385.385,0,0,1-.135-.09l-.109-.014a.611.611,0,0,1-.126.13,2.928,2.928,0,0,0-.227.191c-.07.065-.138.124-.205.176l-.142.111a.542.542,0,0,1,.105.032,1.016,1.016,0,0,0,.215.045,1.218,1.218,0,0,1,.208.1c.045.031.065.057.062.081.018.052.113.075.285.072a3.354,3.354,0,0,0,.79-.156c.355-.1.642-.188.858-.259s.356-.113.42-.13a1.3,1.3,0,0,1,.383.012,2.464,2.464,0,0,1,.659.3.8.8,0,0,1,.383.452.377.377,0,0,1-.062.342,2.657,2.657,0,0,0-.242.317c-.09.135-.195.282-.312.438a1.2,1.2,0,0,1-.412.352.416.416,0,0,1-.306.107,2.793,2.793,0,0,0-.589,0,5.292,5.292,0,0,0-.824.133q-.454.109-.793.175a3.626,3.626,0,0,1-.559.078c-.052.018-.1-.014-.135-.091a.788.788,0,0,1-.108-.307,2.673,2.673,0,0,0-.1-.381.232.232,0,0,0-.09-.158.383.383,0,0,1-.122-.2,1.335,1.335,0,0,1-.058-.412,3.074,3.074,0,0,1,.017-.42c.014-.109.024-.186.03-.234a.966.966,0,0,1-.244.189c-.085.086-.183.184-.294.293a3.455,3.455,0,0,0-.331.289l-.244.19a.51.51,0,0,1-.387.153.381.381,0,0,1-.332-.281.5.5,0,0,1-.007-.516.758.758,0,0,1,.3-.365,2.408,2.408,0,0,0,.832-.776q.6-.659,1.533-1.532a2.562,2.562,0,0,1,1.559-.867,1.043,1.043,0,0,1,.911.629,2.366,2.366,0,0,0,.365.6,5.32,5.32,0,0,0,.848.841,4.867,4.867,0,0,0,.979.674,2.34,2.34,0,0,0,.668.231.868.868,0,0,1,.23.066,1.382,1.382,0,0,1,.289.184.976.976,0,0,1,.23.212,1.158,1.158,0,0,0,.122.2c-.006.048-.051.1-.131.166m-3.43,4.778c-.1.183-.224.217-.381.1l-.387-.417c-.126-.162-.227-.237-.3-.221a4.328,4.328,0,0,0-.606.144,4,4,0,0,1-.785.121.907.907,0,0,1-.673-.194,1.1,1.1,0,0,1-.423-1.008,3.081,3.081,0,0,1,.186-.894,1.069,1.069,0,0,1,.369-.6.26.26,0,0,1,.354.1c.064.082.182.11.356.084a3.97,3.97,0,0,0,.692-.244,3.069,3.069,0,0,1,.8-.266,1.484,1.484,0,0,1,.65.082,1.726,1.726,0,0,1,.447.388.965.965,0,0,1,.189.685,4.448,4.448,0,0,1-.1.794,3.074,3.074,0,0,0-.145.569,2.976,2.976,0,0,1-.245.776m-.444-2.294a.462.462,0,0,0-.137-.367.418.418,0,0,0-.359-.064l-.452.09a1.493,1.493,0,0,1-.189.049,1.374,1.374,0,0,1-.3.071c-.128.034-.228.064-.3.09s-.141.05-.193.067a.247.247,0,0,0,.035.151.172.172,0,0,0,.136.09.355.355,0,0,0,.208-.047.382.382,0,0,0,.154-.053.992.992,0,0,0,.221-.009,2.813,2.813,0,0,0,.291.019,1.32,1.32,0,0,1,.307.039.656.656,0,0,1,.192.079c.158.093.191.184.095.268a2.031,2.031,0,0,1-.679.282,6.1,6.1,0,0,0-.764.233c-.156.078-.178.148-.064.213a.158.158,0,0,0,.1.05l.163.019a.254.254,0,0,0,.149-.018.172.172,0,0,1,.095-.024.746.746,0,0,1,.411-.058c.171,0,.319-.009.442-.018a.33.33,0,0,0,.28-.186,3.037,3.037,0,0,0,.1-.5c.018-.144.038-.3.06-.469m-1.179-2a.245.245,0,0,0-.187.032.278.278,0,0,1-.262.04.631.631,0,0,1-.22-.285,1.085,1.085,0,0,0-.051.4c-.015.121.025.193.12.217a.568.568,0,0,0,.334-.031,2.236,2.236,0,0,0,.35-.157c-.009-.124-.036-.194-.084-.213m.065-.652c0-.086-.053-.117-.154-.094a1.18,1.18,0,0,0-.309.127,1.727,1.727,0,0,1-.236.117.331.331,0,0,0,.093.14.284.284,0,0,0,.174.078.7.7,0,0,0,.221-.009l.153-.054a.975.975,0,0,0,.057-.3m1,.53-.163.126-.163.126-.1.079a.982.982,0,0,0,.222-.008.481.481,0,0,0,.3-.073c.127-.033.171-.088.131-.166a.414.414,0,0,0-.125-.163l-.1.08m.7-.738c.042-.142.016-.237-.075-.284a.449.449,0,0,0-.348-.008c-.14.044-.274.083-.4.115-.018.145-.03.241-.036.289q.021.113.109.013a3.32,3.32,0,0,0,.221-.3l.022.113a1.278,1.278,0,0,0,.007.239.223.223,0,0,0,.341.208,1.977,1.977,0,0,0,.159-.383" fill="#1a1311"/>
      <path id="Path_21947" data-name="Path 21947" d="M60.006,113.317c-.073.006-.162-.049-.267-.163a2.184,2.184,0,0,1-.275-.271.582.582,0,0,1-.085-.177,2.522,2.522,0,0,1-.217-.476,1.439,1.439,0,0,1-.076-.562,1.419,1.419,0,0,1,.142-.556,3.522,3.522,0,0,1,.187-.452,1.32,1.32,0,0,0,.028-.624,1.754,1.754,0,0,0-.3-.671,1.8,1.8,0,0,1-.369-.558.54.54,0,0,1-.034-.472.139.139,0,0,1,.137-.119c.047-.027.122.009.227.111s.2.2.277.291a2.024,2.024,0,0,0,.159.172,1.335,1.335,0,0,1,.518.62.993.993,0,0,1-.088.809,3.79,3.79,0,0,0-.305.826.856.856,0,0,0,.122.684l.1-.153c.041-.1.115-.257.222-.472s.185-.383.237-.51a1.031,1.031,0,0,1,.128-.246c.034-.039.078-.1.133-.174a2.572,2.572,0,0,1,.236-.273c.1-.1.187-.2.254-.272a1.385,1.385,0,0,1,.206-.2,5.888,5.888,0,0,0-.091.773,7.572,7.572,0,0,1-.2,1.219,5.431,5.431,0,0,1-.389,1.2,1.836,1.836,0,0,1-.433.579.211.211,0,0,1-.173.122m.011-5.44a3.362,3.362,0,0,0-.044-.362.647.647,0,0,0-.151-.318,2.361,2.361,0,0,1-.236-.239.383.383,0,0,1,.112-.483.971.971,0,0,1,.749-.236.945.945,0,0,1,.792.345.633.633,0,0,1,.081.615.5.5,0,0,1-.119.374.929.929,0,0,1-.459.216,2.009,2.009,0,0,0-.5.145.421.421,0,0,0-.233.309,1.756,1.756,0,0,1,.009-.366m7.1,1.79a2.19,2.19,0,0,1-.574.151,3.621,3.621,0,0,1-.612.117l-.291.021q-.028.111-.055.241c-.019.088-.04.2-.068.333a2.945,2.945,0,0,0-.05.332,1.7,1.7,0,0,0,0,.237,1.919,1.919,0,0,1,.584-.024c.195.022.3.083.3.18q-.027.146-.313.2a1.574,1.574,0,0,1-.579.077c-.017.1-.034.217-.047.351s-.033.3-.056.5a1.856,1.856,0,0,1-.111.483.652.652,0,0,1-.182.269.636.636,0,0,1-.388.173.734.734,0,0,1-.527-.219,4.231,4.231,0,0,1-.506-.438,1.006,1.006,0,0,0-.277-.309,1.19,1.19,0,0,1-.184.488c-.11.177-.225.27-.346.279-.144.011-.2-.083-.165-.279a1.239,1.239,0,0,1,.21-.636,4.82,4.82,0,0,0-.579.078,1.265,1.265,0,0,1-.533-.054.348.348,0,0,1-.209-.369,3.99,3.99,0,0,1,.046-.623.286.286,0,0,1-.132-.064.683.683,0,0,1-.178-.187.488.488,0,0,1-.089-.232.205.205,0,0,1,.026-.147.3.3,0,0,1,.1-.19.5.5,0,0,1,.247-.126.906.906,0,0,1,.265-.111,1.7,1.7,0,0,1,.2-.033,1.723,1.723,0,0,1,.091-.262c.04-.1.094-.225.155-.376s.12-.276.173-.378a1.27,1.27,0,0,0,.11-.263.633.633,0,0,1-.132-.319c-.007-.1.047-.174.165-.231s.235-.107.355-.153a1.121,1.121,0,0,0,.281-.148l.033-.04c0-.024.021-.05.068-.077.02-.05.044-.07.069-.06a.163.163,0,0,0,.073.013q.043.106.4.008a7.374,7.374,0,0,1,.937-.177.7.7,0,0,1,.788.308,1.521,1.521,0,0,1,.141.94c.1.018.222.032.369.045a3.032,3.032,0,0,1,.443.079,1.083,1.083,0,0,1,.4.19,2.024,2.024,0,0,1,.293.271c0,.048-.042.1-.135.155m-1.462-3.581a.891.891,0,0,1-.208.416c-.123.155-.229.284-.318.388-.114.105-.183.17-.206.2a.4.4,0,0,0-.319-.378,1.258,1.258,0,0,0-.785.258,6.424,6.424,0,0,0-.835.57,1.065,1.065,0,0,1-.419.267.375.375,0,0,1-.255,0,.521.521,0,0,1-.272-.218.4.4,0,0,1-.111-.284.221.221,0,0,1,.078-.188,2.454,2.454,0,0,0,.116-.409,3.725,3.725,0,0,0,.09-.536,4.089,4.089,0,0,1,.089-.536,1.314,1.314,0,0,1,.08-.407c.021-.05.092-.08.213-.089a1.03,1.03,0,0,1,.4.227.8.8,0,0,1,.3.416c.034.144.023.241-.034.3s-.084.1-.082.134.04.064.116.083l.181-.012a.15.15,0,0,0,.106-.045,1.331,1.331,0,0,0,.429-.122c.164-.073.361-.147.587-.225a1.554,1.554,0,0,1,.595-.1,1.333,1.333,0,0,1,.407.08.218.218,0,0,1,.052.215m-2.464,4.849a.63.63,0,0,0,.089-.3c-.028-.046-.1-.053-.221-.021-.118.058-.247.116-.39.174a1.822,1.822,0,0,1-.16.3c-.04.126-.046.21-.018.257.005.072.054.093.15.062A1.759,1.759,0,0,0,63,111.35a2.235,2.235,0,0,1,.189-.414m1.829-1.993c-.005-.072-.013-.169-.021-.29-.031-.1-.063-.19-.094-.286a.584.584,0,0,1-.049-.179.638.638,0,0,0-.374-.119,1.42,1.42,0,0,0-.617.3,3.466,3.466,0,0,0-.6.518,1.445,1.445,0,0,0-.229.381.291.291,0,0,1-.01.092.219.219,0,0,0,.009.128.117.117,0,0,0,.079.086.331.331,0,0,0,.092.012.313.313,0,0,0,.244-.164,2.759,2.759,0,0,0,.119-.373.657.657,0,0,1,.2-.343.507.507,0,0,1,.324-.059.355.355,0,0,1,.266.146.472.472,0,0,1,.075.286c0,.11.048.161.156.154a2.1,2.1,0,0,0,.449-.106l-.012-.182m-.571,2.723c-.1.019-.2.047-.323.079a1.8,1.8,0,0,1-.324.059.973.973,0,0,1-.215.052c-.021.05-.036.087-.046.113a.226.226,0,0,0-.011.11,2.371,2.371,0,0,0,.378.192.724.724,0,0,0,.4.007.379.379,0,0,0,.255-.255,1.7,1.7,0,0,0,.1-.427.693.693,0,0,1-.213.07m.408-.923a.6.6,0,0,0-.062-.361.286.286,0,0,0-.262-.091c-.144.036-.288.07-.43.1a2.468,2.468,0,0,0-.2.453c-.05.15-.037.258.042.325a.413.413,0,0,0,.369.047,2.788,2.788,0,0,0,.469-.071,1.992,1.992,0,0,0,.08-.407" fill="#1a1311"/>
      <path id="Path_21948" data-name="Path 21948" d="M76.949,106.906a3.782,3.782,0,0,1-.621.419q-.439.256-.717.408a2.494,2.494,0,0,0-.339.209c.006.024.055.2.148.525.1.352.2.815.293,1.392a2.418,2.418,0,0,1,.031,1.125c-.1.18-.236.192-.406.039a2.875,2.875,0,0,1-.409-.453,3.215,3.215,0,0,1-.381-.687,6.366,6.366,0,0,1-.267-.757c-.059-.21-.111-.4-.157-.561a.8.8,0,0,0-.183.089c-.076.047-.157.095-.244.144s-.162.1-.226.138a1.366,1.366,0,0,0-.156.119,2.306,2.306,0,0,0-.327.319,2.161,2.161,0,0,1-.468.357.564.564,0,0,1-.492.061.977.977,0,0,1-.4-.267,2.51,2.51,0,0,0-.075.343c-.021.144-.045.309-.069.492a2.155,2.155,0,0,0-.1.446c-.038.137-.067.258-.088.364a.314.314,0,0,1-.286.193,1.2,1.2,0,0,1-.991-.705.5.5,0,0,1-.013-.449,1.276,1.276,0,0,0,.063-.452,4.2,4.2,0,0,0-.119-.968,6.161,6.161,0,0,0-.254-.912c-.107-.2-.2-.3-.28-.319s-.154-.1-.222-.259a.847.847,0,0,1-.112-.535c.025-.184.081-.275.168-.275s.175.064.262.192a1.107,1.107,0,0,0,.29.3c.145.112.3.233.461.363a.7.7,0,0,1,.277.452,1.826,1.826,0,0,1-.092.48.633.633,0,0,0-.064.244,3.276,3.276,0,0,0,0,.4,3.168,3.168,0,0,0,.043.423c.021.12.037.2.051.251q.053.326.214.223t.34-.813c.118-.475.2-.856.247-1.147a3.182,3.182,0,0,0,.057-.47c.054-.167.121-.247.2-.244q.08.015.138.491c.037.317.062.587.074.811a1.176,1.176,0,0,0,.005.357c.015.009.06-.01.135-.056a3.135,3.135,0,0,1,.349-.173.872.872,0,0,1,.275-.1c.05,0,.07.025.061.077s.035.06.136.019a2.84,2.84,0,0,0,.5-.31,3.473,3.473,0,0,0,.537-.377c.151-.092.222-.15.216-.174l-.055-.06a.534.534,0,0,0-.047-.1.43.43,0,0,1-.051-.117l-.026-.088a2.042,2.042,0,0,1-.3.158,1.408,1.408,0,0,1-.535.113,1.035,1.035,0,0,1-.475-.076.532.532,0,0,1-.247-.214c-.021-.07.01-.141.09-.215a.713.713,0,0,1,.289-.25,1.791,1.791,0,0,0,.335-.226.557.557,0,0,0,.161-.234c-.047.013-.131.029-.251.05a2.152,2.152,0,0,1-.468.018.988.988,0,0,1-.422-.09.314.314,0,0,1-.165-.181c-.005-.022.019-.068.076-.133a1.425,1.425,0,0,1,.277-.229c.156-.069.281-.123.371-.161a.712.712,0,0,0,.2-.111q.061-.055.318-.354a6.6,6.6,0,0,0,.582-.824,2.106,2.106,0,0,0,.352-.835c0-.177-.046-.277-.14-.3s-.126-.071-.1-.142.14-.153.329-.244a.972.972,0,0,1,.558-.1.858.858,0,0,1,.419.147.562.562,0,0,1,.2.3.762.762,0,0,1-.028.442c-.077.174-.15.32-.217.44s-.118.209-.152.269a1.285,1.285,0,0,1,.509.2c.127.092.136.215.028.37a1.248,1.248,0,0,1-.422.383,2.917,2.917,0,0,1-.347.248c.007.023.072.03.2.021a2.775,2.775,0,0,1,.485.11c.192.059.279.143.258.25a.7.7,0,0,1-.326.317c-.04.037-.085.08-.133.132a.532.532,0,0,0-.115.2.394.394,0,0,0-.009.23l.048.175c.022-.007.058-.017.1-.03a.324.324,0,0,0,.13-.074.28.28,0,0,0,.081-.118.555.555,0,0,1,.045-.107c-.007-.023.052-.058.178-.106a2.616,2.616,0,0,1,.611-.114,1.689,1.689,0,0,1,.672.039q.25.08.279.186c.013.047-.041.125-.161.234m-5.717-1.655a.666.666,0,0,1-.4.339,2.343,2.343,0,0,1-.561.156,1.286,1.286,0,0,1-.361.063c-.024.007-.048-.017-.077-.073a.943.943,0,0,1-.065-.3,2.468,2.468,0,0,0-.069-.378.327.327,0,0,0-.134-.208c-.083-.027-.077-.092.021-.2a1.209,1.209,0,0,1,.612-.246,1.074,1.074,0,0,1,.735.059.735.735,0,0,1,.382.423.629.629,0,0,1-.087.363m1.88-.714a.966.966,0,0,1-.151.27.483.483,0,0,1-.161.234.716.716,0,0,1-.2.094.5.5,0,0,1-.585-.063.8.8,0,0,1-.371-.653q-.058-.475.143-.569a.346.346,0,0,1,.409.113c.073.08.189.086.346.017a1.538,1.538,0,0,0,.5-.253c.174-.1.266-.086.275.037a1.706,1.706,0,0,1-.134.6,1.1,1.1,0,0,0-.065.169" fill="#1a1311"/>
      <path id="Path_21949" data-name="Path 21949" d="M80.474,101.591a1.182,1.182,0,0,1,.305.273.693.693,0,0,1,.141.357,1.48,1.48,0,0,1-.061.359,3.57,3.57,0,0,0-.091.62c-.052.327-.117.73-.2,1.208a3.348,3.348,0,0,1-.381,1.013c-.106.218-.23.323-.371.314a.581.581,0,0,1-.46-.3,1.818,1.818,0,0,1-.245-.958,6.053,6.053,0,0,1,.028-1.1,4.82,4.82,0,0,0,.059-.6c.01-.087.025-.231.045-.432a3.744,3.744,0,0,1,.131-.661c.069-.24.182-.365.339-.378a.816.816,0,0,1,.464.108c.076.044.175.1.3.177m5.258-.2a2.519,2.519,0,0,1-.377.542c-.188.219-.343.395-.468.526s-.2.22-.233.263c.079.206.173.444.286.714a6.916,6.916,0,0,0,.464.906q.3.5.53.875c.154.248.293.463.414.646a.3.3,0,0,1-.143.36,1.248,1.248,0,0,1-.735-.156,4.255,4.255,0,0,1-.851-.464c-.209-.138-.334-.223-.377-.256a1.455,1.455,0,0,1-.144.278,1.787,1.787,0,0,1-.289.434.606.606,0,0,1-.388.24.455.455,0,0,1-.326-.077.805.805,0,0,1-.287-.242.53.53,0,0,1-.11-.373c.009-.141.021-.278.035-.408s.027-.239.037-.326a.326.326,0,0,0-.112.1,1.475,1.475,0,0,1-.129.148c-.053.054-.1.1-.137.132a.749.749,0,0,0-.1.114.636.636,0,0,1,.05.138.858.858,0,0,0,.084.2.586.586,0,0,0,.05.178l.067.13a1.617,1.617,0,0,1,.04.715.43.43,0,0,1-.436.388.882.882,0,0,1-.687-.261,1.6,1.6,0,0,1-.429-.6,1.036,1.036,0,0,1-.067-.17,1.289,1.289,0,0,1-.052-.22,1.4,1.4,0,0,0-.018-.195.58.58,0,0,0,.03-.179c-.01-.022-.033-.079-.066-.171a3.339,3.339,0,0,0-.15-.333,1.049,1.049,0,0,1-.118-.307c-.012-.076-.007-.12.014-.13a.474.474,0,0,1,.292-.109.667.667,0,0,1,.4.143c.147.1.276.192.384.272a1.021,1.021,0,0,0,.263.152q.111-.181.288-.475a7.533,7.533,0,0,0,.36-.7q.183-.4.3-.728c.078-.218.14-.392.181-.523-.086.044-.192.092-.315.142a.927.927,0,0,1-.374.069.524.524,0,0,1-.336-.135,1.236,1.236,0,0,1-.279-.225.769.769,0,0,1-.328-.282,1.181,1.181,0,0,1-.2-.673,1.077,1.077,0,0,1,.131-.66.569.569,0,0,1,.3-.257.955.955,0,0,0,.414-.15,2.183,2.183,0,0,0,.443-.371,2.893,2.893,0,0,1,.468-.4,1.078,1.078,0,0,1,.4-.248.885.885,0,0,1,.545-.054.478.478,0,0,1,.322.387c.024.206.035.364.037.473.011.13.039.184.083.161a.756.756,0,0,1,.359.061c.088.064.078.179-.03.342s-.214.314-.32.452-.177.228-.208.271a.177.177,0,0,0,.229.087,2.026,2.026,0,0,0,.461-.216,3.032,3.032,0,0,1,.527-.251.514.514,0,0,1,.391,0c.022.043,0,.137-.062.277m-2.27-.595a3.011,3.011,0,0,0,.052-.538c0-.206-.038-.3-.125-.284a.626.626,0,0,0-.307.239,2.221,2.221,0,0,0-.367.721.777.777,0,0,0,.023.684c.09.173.2.182.343.028a1.107,1.107,0,0,0,.287-.556c.011-.032.043-.13.1-.294m.434,1.8-.059-.114-.049-.1-.034-.066a2.1,2.1,0,0,0-.177.214q-.1.131-.207.312c-.064.142-.121.259-.168.352a.53.53,0,0,0-.072.22c-.021.067,0,.077.058.033a2.665,2.665,0,0,0,.3-.3l.314-.344a.847.847,0,0,1,.137-.132c-.01-.021-.025-.048-.041-.081m-.031.937c-.075.093-.163.2-.265.32s-.189.227-.265.321a2.872,2.872,0,0,1-.194.222,1.091,1.091,0,0,0,.149.21.539.539,0,0,0,.246.16.347.347,0,0,0,.277-.019.966.966,0,0,0,.227-.157c.064-.06.118-.074.163-.042a.781.781,0,0,1,.157.308.7.7,0,0,0,.273.372.283.283,0,0,0,.343.028c.054,0,.054-.081,0-.244a5.9,5.9,0,0,0-.317-.7,7.658,7.658,0,0,0-.415-.729c-.109-.161-.171-.252-.181-.275-.054.055-.118.129-.194.222m.31-1.591c.023.043.045.086.066.129l.059.114c.016.033.029.06.042.081a2.864,2.864,0,0,0,.217-.214c.069-.076.091-.142.064-.2s-.093-.075-.2-.064a2.755,2.755,0,0,0-.3.052l.05.1m2.738,1.746a.934.934,0,0,0-.156.018,1.306,1.306,0,0,1-.129.026.284.284,0,0,0-.089.026,1,1,0,0,1-.425-.028,1.5,1.5,0,0,1-.579-.214c-.18-.111-.242-.231-.184-.355a.6.6,0,0,1,.364-.289,1.046,1.046,0,0,1,.17-.067c.07-.022.154-.045.251-.067a.932.932,0,0,1,.245,0l.162,0a1.8,1.8,0,0,1,.326.078,1.01,1.01,0,0,1,.361.265.245.245,0,0,1,.045.325.7.7,0,0,1-.266.239c-.043.022-.075.039-.1.049" fill="#1a1311"/>
      <path id="Path_21950" data-name="Path 21950" d="M92.241,93.514a.147.147,0,0,1,.034.159.387.387,0,0,1-.125.193.586.586,0,0,1-.12.142,2.617,2.617,0,0,1-.159.267,3.449,3.449,0,0,0-.4.551,6.252,6.252,0,0,0-.309.549c-.056.123-.076.194-.062.212a3.515,3.515,0,0,0,.356-.05,4.682,4.682,0,0,1,.536-.056,1.7,1.7,0,0,1,.535.086,1.542,1.542,0,0,1,.3.137.841.841,0,0,1,.039.341.548.548,0,0,1-.136.3,2.558,2.558,0,0,1-.189.29.468.468,0,0,0-.1.221.968.968,0,0,0,.251-.153.98.98,0,0,1,.335-.106.349.349,0,0,1,.3.111,1,1,0,0,1,.19.267,2,2,0,0,0,.563.529q.4.331,1,.786a4.128,4.128,0,0,1,.864.848.823.823,0,0,1,.192.592.706.706,0,0,1-.148.164.448.448,0,0,1-.244.1.9.9,0,0,1-.222-.1.969.969,0,0,1-.164-.149,2.872,2.872,0,0,1-.367-.08,3.6,3.6,0,0,1-.548-.19c-.19-.081-.261-.172-.216-.271.026-.083.12-.142.279-.176a.125.125,0,0,0,.095-.145.976.976,0,0,0-.123-.3l-.318-.4a3.857,3.857,0,0,1-.414-.461,1.537,1.537,0,0,0-.56-.439.436.436,0,0,0-.538.057,1.611,1.611,0,0,0-.362.568,2.769,2.769,0,0,0-.162.759,1.647,1.647,0,0,0,.176.862c.136.326.268.609.4.847a3.207,3.207,0,0,1,.363.688,2.559,2.559,0,0,1,.119.79c-.042.22-.171.293-.386.217a1.151,1.151,0,0,1-.529-.37.733.733,0,0,1-.2-.4,1.514,1.514,0,0,0-.116-.466q-.119-.323-.315-.773a3.206,3.206,0,0,1-.242-.74.532.532,0,0,1,.075-.433,3.239,3.239,0,0,0,.113-.323q.075-.2.18-.563a3.729,3.729,0,0,0,.131-.594.8.8,0,0,0-.014-.338,1.4,1.4,0,0,0-.279.409,8.311,8.311,0,0,0-.348.79,1.767,1.767,0,0,1-.369.645.357.357,0,0,1-.387.1.747.747,0,0,1-.211-.2,1.136,1.136,0,0,1-.182-.46,1.978,1.978,0,0,1,.035-.541.965.965,0,0,1,.108-.274.539.539,0,0,0,.125-.193.509.509,0,0,0,.069-.264,2.477,2.477,0,0,0,0-.3c-.008-.087-.018-.158-.028-.211a6.045,6.045,0,0,0-.353.609q-.267.54-.726,1.279a2.136,2.136,0,0,1-.811.88.344.344,0,0,1-.5-.159,1.107,1.107,0,0,1-.085-.166.818.818,0,0,1-.064-.343.343.343,0,0,1,.1-.288.275.275,0,0,1,.2-.067.92.92,0,0,0,.463-.208,3.042,3.042,0,0,0,.652-.73q.318-.534.518-.927c.133-.261.222-.441.267-.54l.043-.034a.105.105,0,0,0,.02-.063.1.1,0,0,0,.034-.074l.057-.045-.257.2a1.456,1.456,0,0,1-.307.2c-.11.058-.176.033-.2-.074a1.855,1.855,0,0,1-.033-.392.287.287,0,0,0-.16-.083,2.383,2.383,0,0,0-.242-.04.184.184,0,0,1-.168-.123.517.517,0,0,1,.026-.23.8.8,0,0,1,.244-.336,1.278,1.278,0,0,1,.6-.27,1.36,1.36,0,0,1,.621.017.9.9,0,0,1,.363.223.8.8,0,0,0,.29-.279c.083-.128.2-.3.342-.505a1.852,1.852,0,0,1,.387-.449.757.757,0,0,1,.381-.164.609.609,0,0,1,.142.119m-.9,2.723a.408.408,0,0,1-.126-.04.1.1,0,0,1-.073-.034c-.05-.022-.084-.026-.1-.012-.016.137-.031.274-.045.41q0,.233.087.255c.06.017.113-.043.162-.175a2.032,2.032,0,0,0,.2-.392l-.1-.012M94.022,98.9a2.055,2.055,0,0,1-.386.772q-.321.445-.61.372t-.4-.5c-.014-.019-.011-.053.013-.1a.3.3,0,0,1,.034-.191,1.28,1.28,0,0,0,.074-.2.385.385,0,0,0,.006-.168.285.285,0,0,1-.083.043.792.792,0,0,1-.134.037,1,1,0,0,1-.145.023.18.18,0,0,0-.094.028c-.087.007-.123-.057-.108-.194a2.005,2.005,0,0,1,.4-.551c.182-.239.337-.355.466-.35s.184.095.165.264c0,.035-.013.12-.028.257a3.73,3.73,0,0,0-.024.438q-.029.256.028.211a.64.64,0,0,0,.13-.245,2.069,2.069,0,0,0,.111-.182.2.2,0,0,1,.154-.1.811.811,0,0,1,.207,0,.41.41,0,0,0,.2.022c.054-.01.059.093.018.314" fill="#1a1311"/>
      <path id="Path_21951" data-name="Path 21951" d="M100.851,88.074a2.853,2.853,0,0,1-.251.978q-.263.682-.409,1.083c-.131.269-.186.429-.164.479a1.154,1.154,0,0,0,.046.229,2.494,2.494,0,0,1,0,.336c.012.137.026.252.044.345a.566.566,0,0,1,.005.219.451.451,0,0,0,.237.057.144.144,0,0,0,.135-.1c.019-.062.052-.091.094-.086a.725.725,0,0,1,.2.073.593.593,0,0,0,.089-.163,1.922,1.922,0,0,0,.081-.265.91.91,0,0,1,.105-.268,1.646,1.646,0,0,1,.116-.166.551.551,0,0,1,.327-.106c.1.025.151.151.136.376a3.428,3.428,0,0,1-.081.576,1.317,1.317,0,0,1-.114.307c-.024.027-.047.026-.066-.008a1.328,1.328,0,0,0-.1-.133c-.047-.057-.087-.074-.12-.054a.566.566,0,0,0-.12.114,2.1,2.1,0,0,0,.437.556c.133.143.253.15.364.019a5.383,5.383,0,0,0,.267-.489,1.162,1.162,0,0,1,.3-.465q.046-.055-.129-.3a3.473,3.473,0,0,0-.527-.561,1.43,1.43,0,0,0-.629-.384c-.165-.028-.271,0-.314.092a2.478,2.478,0,0,1-.273.437c-.094.112-.146.1-.158-.037a1.535,1.535,0,0,1,.047-.483,2.173,2.173,0,0,1,.132-.412.908.908,0,0,1,.4-.475.851.851,0,0,1,.756.064,3.36,3.36,0,0,1,.741.5q.31.283.476.423c.055.048.179.167.367.356a3.13,3.13,0,0,1,.469.631c.142.246.155.4.04.461a.708.708,0,0,1-.518-.007.476.476,0,0,0-.4.138,1.187,1.187,0,0,0-.377.563,2.658,2.658,0,0,1-.4.707.829.829,0,0,1-.452.311,2.554,2.554,0,0,1-.513.045.432.432,0,0,1-.349-.15,1.287,1.287,0,0,1-.26-.313,1.077,1.077,0,0,0-.26-.313c.006.068.019.223.04.462q.037.41.044,1.081a7.509,7.509,0,0,1-.04,1.012c-.033.227-.073.352-.123.372a.294.294,0,0,1-.363-.019,1.089,1.089,0,0,1-.381-.509,1.31,1.31,0,0,1-.17-.618c.013-.149.053-.224.122-.231.034,0,.061-.091.08-.265a5.2,5.2,0,0,0-.007-.814q-.035-.553-.062-.861c-.018-.206-.028-.324-.031-.36-.045.09-.111.208-.2.354q-.107.243-.263.539c-.1.2-.191.379-.263.54s-.13.288-.173.377a.833.833,0,0,1-.38.395.432.432,0,0,1-.492-.009.444.444,0,0,1-.117-.739,6.525,6.525,0,0,1,.3-.608A2.53,2.53,0,0,1,98,92.575c.047-.057.072-.067.075-.033s.045.014.123-.062a1.92,1.92,0,0,0,.307-.48,1.774,1.774,0,0,0,.212-.677.893.893,0,0,0-.068-.485c-.044.09-.1.19-.156.3a1.054,1.054,0,0,1-.2.353.774.774,0,0,1-.317.234,1.729,1.729,0,0,1-.339.094.3.3,0,0,1-.25-.043c-.055-.047-.054-.141,0-.284a.951.951,0,0,1,.178-.325c.077-.094.132-.158.163-.2a.365.365,0,0,1-.053-.163c-.017-.093-.039-.207-.068-.343a2.555,2.555,0,0,1-.052-.305.217.217,0,0,1,.014-.131.923.923,0,0,0-.091.137c-.029.055-.062.121-.1.2a.431.431,0,0,1-.3.246.56.56,0,0,1-.211.677,1.246,1.246,0,0,1-1.119.059,1.344,1.344,0,0,1-.982-.586.525.525,0,0,1,.044-.676A.248.248,0,0,1,94.985,90a1.166,1.166,0,0,0,.229-.046.411.411,0,0,0,.208-.135,1.123,1.123,0,0,0,.147-.232c.085-.213.2-.53.344-.947a7.792,7.792,0,0,1,.655-1.376,2.234,2.234,0,0,1,.96-.976,2.013,2.013,0,0,1,.967-.187.333.333,0,0,1,.135.065.438.438,0,0,1,.1.134c.031.058.058.111.079.161.005.069.01.121.014.154a1.881,1.881,0,0,0,.076.277c.048.151.093.324.136.518a.829.829,0,0,1,.011.438c-.034.1-.085.15-.154.156a.809.809,0,0,1-.573-.053,1.084,1.084,0,0,1-.376-.458c-.071-.218-.128-.385-.173-.5a.21.21,0,0,0-.221-.161.18.18,0,0,0-.11.075.833.833,0,0,0-.122.23,1.224,1.224,0,0,0-.08.265.334.334,0,0,1-.04.132,1.859,1.859,0,0,1,.108.21c.033.075.07.163.113.262a1.557,1.557,0,0,0,.165.258,1.142,1.142,0,0,0,.127.13A1.251,1.251,0,0,1,98,88.129c.1-.06.159-.047.184.035a.658.658,0,0,1-.009.324,2.5,2.5,0,0,1-.09.305.217.217,0,0,0,.21.033,1.209,1.209,0,0,0,.326-.106.886.886,0,0,1,.327-.107.25.25,0,0,1,.185.062.445.445,0,0,0,.08-.265,1.882,1.882,0,0,0,.047-.34c.041-.125.11-.177.206-.161a.8.8,0,0,1,.34.19.294.294,0,0,0,.214.085.306.306,0,0,0,.249-.1,2.063,2.063,0,0,1,.229-.189,1.29,1.29,0,0,1,.186-.106c.1-.009.157.085.166.283M96.916,89.62c-.072-.028-.152-.064-.242-.109a.711.711,0,0,1-.192-.112l-.111-.094a1.977,1.977,0,0,0-.173.377.388.388,0,0,0,.034.385.812.812,0,0,0,.28.26c.143.056.277.106.4.147a.788.788,0,0,1-.126-.247.25.25,0,0,1,.062-.188c.047-.054.094-.111.14-.166a.347.347,0,0,0,.062-.187.2.2,0,0,1-.135-.065m.2-1.233c-.021-.033-.044-.068-.074-.11a.531.531,0,0,0-.086-.1c-.028-.023-.05-.026-.065-.007-.087-.009-.127.067-.122.23a.868.868,0,0,0,.185.487q.181.3.242.108a1.629,1.629,0,0,0-.021-.54.285.285,0,0,1-.058-.073m.924,1.7-.084-.071c-.036-.031-.064-.054-.084-.07l-.056-.047a3.034,3.034,0,0,0-.008.35,1.5,1.5,0,0,0,.043.345c.06.081.1.07.127-.036a1.137,1.137,0,0,0,.118-.424l-.056-.047m1.237-.341c-.005-.068-.014-.154-.021-.257a2.288,2.288,0,0,1-.011-.27c0-.078,0-.133,0-.168a2.565,2.565,0,0,0-.161.221.5.5,0,0,0-.1.254.321.321,0,0,0,.1.225,2.408,2.408,0,0,0,.211.2c-.005-.069-.012-.136-.018-.205m.558-1.147a1.559,1.559,0,0,0,0,.194,1.25,1.25,0,0,0-.006.232c.007.069.011.12.014.153a1.226,1.226,0,0,0,.124-.2,2.268,2.268,0,0,0,.14-.335q.061-.186-.047-.229a.411.411,0,0,0-.2.018.986.986,0,0,0-.025.17" fill="#1a1311"/>
      <path id="Path_21952" data-name="Path 21952" d="M51.9,82.707a8.486,8.486,0,0,1-4.275-.622l.393-.864a6.979,6.979,0,0,0,5.029.187l.382.868a5.763,5.763,0,0,1-1.53.431" fill="#dc000c"/>
      <path id="Path_21953" data-name="Path 21953" d="M95.4,29.791a45.433,45.433,0,0,0-30.17-17.745,46.35,46.35,0,0,0-6.391-.447,45.734,45.734,0,0,0-6.278,91.026,46.227,46.227,0,0,0,6.391.447A45.735,45.735,0,0,0,95.4,29.791M47.728,100.624c-.8-9.209.035-20.831.957-24.59a41.6,41.6,0,0,1,5.476-13.147c-3.126,10.778-1.636,23.222-1.619,23.357l.007,0c.272,6.222,3.105,13.512,4.028,15.733-1.294-.068-2.59-.187-3.871-.367a45.222,45.222,0,0,1-4.978-.985m5.359-19.411c-.162-5.186.1-13.563,2.758-20.612A19.474,19.474,0,0,1,61.1,55.967l.078-.045c6.367-3.711,18.041-1.345,25.015.069l.04.009a17.076,17.076,0,0,0,14-3.089c-3.167,14.131-14.228,17.8-23.075,18.353-7.973.288-17.264,2.979-21.612,6.259a6.97,6.97,0,0,0-2.384,3.437c-.028.082-.051.17-.077.253m50.082-17.684a44.868,44.868,0,0,1-44.216,38.516c-.466,0-.935-.009-1.4-.024-.823-1.956-5.826-14.315-3.553-20.777a6.11,6.11,0,0,1,2.084-3.021c3.638-2.746,12.529-5.77,21.123-6.082,9.427-.591,21.27-4.6,24.153-20.328l.267-1.458-1.02,1.076a15.863,15.863,0,0,1-14.2,3.705l-.04-.007c-7.1-1.439-18.976-3.846-25.636.035l-.075.041a21.33,21.33,0,0,0-6.37,5.964A40.962,40.962,0,0,0,47.83,75.822c-.924,3.773-1.762,15.313-1.007,24.561a44.715,44.715,0,0,1-32.2-49.239,44.655,44.655,0,0,1,50.464-38.08,44.7,44.7,0,0,1,38.081,50.464" fill="#1a1311"/>
    </g>
  </g>
</svg>
