<svg xmlns="http://www.w3.org/2000/svg" width="109.677" height="112" viewBox="0 0 109.677 112">
  <g id="Group_865" data-name="Group 865" transform="translate(0 -2)">
    <path id="Path_49" data-name="Path 49" d="M54.345,2S-.228,28.368,0,101.436c0,0,54.688,28.722,109.6-.688C109.605,100.748,113.971,36.064,54.345,2Z" transform="translate(0 0)" fill="#aa8420"/>
    <path id="Path_50" data-name="Path 50" d="M109.274,100.041c-.013-.07-.023-.148-.037-.22-.412,3.595-4.008,29.511-23.52,45.46h47.156S114.753,131.179,109.274,100.041Z" transform="translate(-55.045 -62.818)" fill="#00a040"/>
    <path id="Path_51" data-name="Path 51" d="M20.038,145.628H43.706c21-17.166,23.438-45.267,23.438-45.267H49.45C41.407,131.381,20.038,145.628,20.038,145.628Z" transform="translate(-12.868 -63.165)" fill="#fff"/>
    <path id="Path_52" data-name="Path 52" d="M163.736,44.175H147.7c-.725,45.248,25.133,65.372,25.133,65.372h24.514C164.976,86.258,163.736,44.175,163.736,44.175Z" transform="translate(-94.839 -27.084)" fill="#fff"/>
    <rect id="Rectangle_13" data-name="Rectangle 13" width="21.827" height="24.489" transform="translate(43.477 82.463)" fill="#fff"/>
  </g>
</svg>
