<svg id="quesmark" xmlns="http://www.w3.org/2000/svg" width="23.392" height="24.392" viewBox="0 0 23.392 24.392">
  <path id="Path_57" data-name="Path 57" d="M171.914,124.705a.914.914,0,0,0,.914-.914,1.929,1.929,0,0,1,.6-1.4,2.021,2.021,0,0,1,1.492-.563,1.973,1.973,0,0,1,.361,3.9,1.708,1.708,0,0,0-1.354,1.676v1.317a.914.914,0,1,0,1.827,0V127.5a3.809,3.809,0,1,0-3.594-6.424A3.741,3.741,0,0,0,171,123.791.914.914,0,0,0,171.914,124.705Z" transform="translate(-163.188 -114.118)" fill="#3F5146"/>
  <ellipse id="Ellipse_2" data-name="Ellipse 2" cx="1" cy="1.033" rx="1" ry="1.033" transform="translate(10.696 17.282)" fill="#3F5146"/>
  <path id="Path_58" data-name="Path 58" d="M12.212,24.379l.152-.008.143-.009.17-.014.035,0a11.412,11.412,0,0,0,7.254-3.526A12.348,12.348,0,0,0,23.372,12.9c0-.011,0-.023,0-.034,0-.049,0-.1.007-.148s0-.1.005-.148,0-.07,0-.1c0-.089,0-.178,0-.267a12.384,12.384,0,0,0-3.426-8.624,11.36,11.36,0,0,0-16.54,0A12.384,12.384,0,0,0,0,12.2c0,.089,0,.177,0,.266q0,.043,0,.086,0,.093.007.186t.008.159c0,.05.005.1.009.149s.008.118.013.178l0,.036a12.331,12.331,0,0,0,3.381,7.564,11.4,11.4,0,0,0,7.6,3.551l.033,0,.142.007.142.005.1,0c.085,0,.171,0,.256,0s.17,0,.255,0l.082,0ZM2.087,14.544,2.076,14.5q-.024-.108-.045-.217l-.011-.058q-.015-.079-.029-.158l-.015-.09q-.014-.08-.026-.161-.009-.058-.017-.117t-.019-.14q-.006-.049-.012-.1-.009-.079-.017-.159-.005-.051-.01-.1-.008-.083-.014-.167,0-.042-.006-.083c0-.066-.009-.132-.012-.2,0-.014,0-.028,0-.041q-.005-.106-.008-.213,0-.032,0-.063c0-.078,0-.156,0-.234A10.1,10.1,0,0,1,11.7,1.906,10.1,10.1,0,0,1,21.564,12.2c0,.078,0,.155,0,.233,0,.027,0,.054,0,.081,0,.049,0,.1-.005.148,0,.033,0,.067,0,.1s0,.06-.005.089a10.559,10.559,0,0,1-1.653,5.061.971.971,0,0,0-.055.1,9.9,9.9,0,0,1-5.888,4.21l-.046.011-.208.047-.056.011-.152.03-.086.016-.155.027-.112.018L13,22.4l-.094.013-.153.018-.1.011-.16.015-.08.006-.19.013-.04,0-.2.008-.061,0-.224,0-.223,0-.077,0-.142-.006-.1,0-.086-.006a9.581,9.581,0,0,1-4.853-1.724.912.912,0,0,0-.094-.057A10.337,10.337,0,0,1,2.087,14.544Z" fill="#3F5146"/>
</svg>
