<svg xmlns="http://www.w3.org/2000/svg" xmlns:xlink="http://www.w3.org/1999/xlink" width="282.978" height="280.996" viewBox="0 0 282.978 280.996">
  <defs>
    <clipPath id="clip-path">
      <rect id="Rectangle_3249" data-name="Rectangle 3249" width="227" height="224" transform="translate(714.011 1814.466) rotate(-17.157)" fill="none"/>
    </clipPath>
  </defs>
  <g id="向量圖智慧型物件" transform="translate(-714.011 -1747.502)">
    <g id="Group_732" data-name="Group 732">
      <g id="Group_731" data-name="Group 731" clip-path="url(#clip-path)">
        <path id="Path_21628" data-name="Path 21628" d="M832.727,1870.672c-.782-.455-1.488-.918-1.488-.919a42.772,42.772,0,0,1-4.946-4.014,75.032,75.032,0,0,1-12.894-14.026c-2.672-3.524-5.489-8.521-11.12-18.515a49.272,49.272,0,0,1-4.2-9.034c-1.463-4.315-2.493-7.359-1.95-11.319,1.2-8.755,9.069-14.5,9.984-15.146a54.832,54.832,0,0,1,7.287-4.066,25.961,25.961,0,0,1,4.289-1.73c2.075-.586,4.448-1.255,6.915-.576,1.092.3,1.27.61,3.565,1.375,1.142.379,2.106.639,2.756.8a19.2,19.2,0,0,1,1.966-5.832s5.288-9.977,19.364-12.837a16.613,16.613,0,0,1,1.673-.245,15.9,15.9,0,0,1,3.676.147,19.569,19.569,0,0,1,6.571,1.745,52.1,52.1,0,0,1,8.525,5.751,14.509,14.509,0,0,1,2.205,2.409,15.846,15.846,0,0,1,2.779,7.117c2.76,17.6,6.785,22.683,4.99,35.943-1.586,11.717-6.537,21.127-7.112,26.771a24.569,24.569,0,0,1-2.173,7.973c-.854,1.872-2.062,3.905-8.492,11.256-1.611,1.842-3.825,4.33-6.532,7.248-13.279-4.842-23.023-8.756-25.64-10.278" fill="#f7e2c4"/>
        <path id="Path_21629" data-name="Path 21629" d="M865.395,1884.951l-.266.07a18.332,18.332,0,0,1,.783-3.212c.793-3.768,1.453-7.557,2.235-11.327a67.37,67.37,0,0,1,7.144-19.3,92.868,92.868,0,0,1,4.681-8.1c2.043-2.94,3.576-7.164,5.8-9.962,3.612-4.556,15.106-14.93,19.561-18.729a72.367,72.367,0,0,1,15.694-9.222c4.592-1.783,8.644-1.194,13.2.331a31.594,31.594,0,0,1,5.8,2.826,12.443,12.443,0,0,1,4.046,4.062c1.757,2.466,2.385,5.213,3.638,10.7.154.674.206,1.116.243,1.364a15.885,15.885,0,0,1-.6,6.879,15.377,15.377,0,0,1-5.226,7.216c5.984.589,8.446,1.844,9.5,3.026.086.1.37.365.73.8.986,1.191,3.021,1.969,3.856,3.272,1.059,1.656,1.929,3.458,2.92,5.158a30.748,30.748,0,0,1,3.576,11.955c.208,1.678.449,3.376.6,5.058.219,2.457-.967,5.028-1.67,7.337a14.175,14.175,0,0,1-3.144,4.742,43.886,43.886,0,0,1-4.621,3.956,55.191,55.191,0,0,1-13.387,8.132,89.206,89.206,0,0,1-9.226,2.97c-2.314.7-4.721,1.236-7,2a66.886,66.886,0,0,1-9.043,2.042,42.594,42.594,0,0,1-9.831.768c-4.024-.205-8.1-.635-12.1-1.079-3.049-.339-6.111-.214-9.172-.409-6.725-.425-7.933.823-11.06.08a14.322,14.322,0,0,1-8.159-4.757" fill="#f7e2c4"/>
        <path id="Path_21630" data-name="Path 21630" d="M868.7,1920.761c1.184,3.814,1.76,5.355,2.284,6.643a36.634,36.634,0,0,0,6.75,12.5c2.766,3.213,5.33,6.588,7.915,9.946,2.393,3.109,5.211,5.862,7.706,8.9a50.883,50.883,0,0,0,15.342,12.53c2.072,1.106,3.862,2.56,5.974,3.588a43.087,43.087,0,0,0,8.921,2.767c2.762.662,5.656,1.641,8.53,1.386,3.428-.306,7.036.172,9.929-2.172a11.952,11.952,0,0,0,2.872-3.9,23.229,23.229,0,0,0,2.994-10.246,21.812,21.812,0,0,0-.434-5.708,20.306,20.306,0,0,0-3.134-7.138,20.237,20.237,0,0,0,11.2-1.583,20.968,20.968,0,0,0,6.244-4.571,27.118,27.118,0,0,0,6.218-9.792,49.086,49.086,0,0,0,1.98-8c.581-2.922-.391-5.747-.762-8.648a28.492,28.492,0,0,0-1.75-6.962c-1.021-2.567-2.965-4.6-4.756-6.654-1.289-1.479-2.1-3.489-3.822-4.54a18.2,18.2,0,0,0-4.862-1.992c-1.373-.338-2.8-.556-4.186-.853a17.131,17.131,0,0,0-2.608-.249,10.2,10.2,0,0,1-3.33-.807c-4.8-1.575-15.684-1.094-15.684-1.094-14.205.629-31.307-2.261-37.366-.432-2.175.657-4.832,1.536-4.832,1.536-6.667,2.1-6.648,2.865-10.4,3.367-6.791.906-9.071-1.3-10.9.413-2.109,1.974-.11,8.6,3.977,21.764" fill="#f7e2c4"/>
        <path id="Path_21631" data-name="Path 21631" d="M832.837,1912.385c.54.064,1.246.338,1.718-.035-4.057,2.054-7.923,4.516-11.915,6.693-2.521,1.373-4.375,3.507-6.505,5.39a17.61,17.61,0,0,0-3.622,5.416,16.169,16.169,0,0,1-3.418,4.335,41.023,41.023,0,0,0-4.066,4.478,45.2,45.2,0,0,1-3.99,3.965,51.17,51.17,0,0,0-4.21,4.317c-1.444,1.755-3.292,3.051-4.633,4.892a44.8,44.8,0,0,0-3.872,5.853,25.451,25.451,0,0,0-1.7,5.454c-.5,2.033-1.11,4.068-1.522,6.117-.394,1.965-.964,4.522-.431,6.506a56.288,56.288,0,0,0,2.773,7.277c1.043,2.444,2.339,4.971,4.807,6.184a37.856,37.856,0,0,0,7.075,2.805c1.06.28,2.158.3,3.222.553,1.285.311,2.534.823,3.826,1.1s2.629.16,3.943.391c1.195.211,2.413.309,3.62.4a15.882,15.882,0,0,0,6.51-.543,13.491,13.491,0,0,0,5.575-3.261,12.668,12.668,0,0,0,3.179-5.414,12.775,12.775,0,0,0-.565,7.9,9.539,9.539,0,0,0,.947,2.15,10.3,10.3,0,0,0,3.968,3.28c1.718.994,3.291,2.276,5.07,3.161a28.8,28.8,0,0,0,5.977,2,44.2,44.2,0,0,0,6.935,1.119c1.666.121,3.036.526,4.694.12a36.592,36.592,0,0,0,5.208-1.366c4.745-1.943,7.978-5.655,10.518-9.986,1.272-2.169,2.283-4.524,3.5-6.735,1.912-3.474,3.913-6.868,5.6-10.462a26.519,26.519,0,0,0,2.4-7.876,41.6,41.6,0,0,0,.222-11.011c-.166-1.228-.083-2.474-.251-3.7a33.941,33.941,0,0,0-1.127-4.37c-1.136-4.105-2.361-8.135-3.7-12.183-1.436-4.328-2.639-8.766-4.192-13.045a145.716,145.716,0,0,0-6.155-13.848c-1.791-3.7-4.217-7.216-5.367-11.192-.579-2-.964-4.7-3.208-5.641" fill="#f7e2c4"/>
        <path id="Path_21632" data-name="Path 21632" d="M857.082,1892.557c.812-3.215-3.4-5.887-15.614-16.749-10.211-9.075-11.087-10.6-16.217-13.709-6.906-4.183-13.027-6.012-15.451-6.364a51.8,51.8,0,0,1-5.163-.827c-.753-.187-1.521-.348-2.274-.52a8.577,8.577,0,0,0-2.008-.077,21.742,21.742,0,0,1-5.286-.934,22.231,22.231,0,0,0-4.081-.393,17.491,17.491,0,0,0-3.356-.141c-3.809.309-7.565.345-11.364.85-2.153.287-4.442.739-6.553,1.222-1.927.443-3.923.57-5.881.963-1.627.324-3.043,1.163-4.688,1.379a9.051,9.051,0,0,0-3.1,1.044c-1.446.712-2.629,2.384-3.534,3.708a21.861,21.861,0,0,0-2.468,5.327,35.338,35.338,0,0,0-1.815,6.937c-.268,1.972-1.531,11.329,4.473,17.449a15.719,15.719,0,0,0,4.89,3.349,14.618,14.618,0,0,0-4.269,3.617,13.963,13.963,0,0,0-1.983,3.323c-.732,1.788-.676,2.819-1.155,7.066-.354,3.141-.464,3.021-.5,4-.149,3.73-.178,7.345,2.286,10.4,3.155,3.92,6.373,8.537,11.031,10.855a23.056,23.056,0,0,0,7.536,2.087c4.082.479,8.022.017,12.115,0,3.955-.015,7.8-1,11.642-1.86,3.367-.754,6.786-1.393,10.126-2.259a48.563,48.563,0,0,0,8.985-3.645,61.933,61.933,0,0,0,10.5-5.963c3.3-2.466,6.056-5.478,9.239-8.057,2.76-2.235,4.984-4.779,7.533-7.224,4.153-3.982,3.739-4.459,6.145-6.761,6.275-6,9.581-5.4,10.264-8.107" fill="#f7e2c4"/>
        <path id="Path_21633" data-name="Path 21633" d="M810.143,1849.58a40.844,40.844,0,0,1-7.042-8.848,38.19,38.19,0,0,1-4.613-10.349c-.487-1.783-1.055-3.544-1.64-5.316s-1.274-3.5-1.859-5.3a26.519,26.519,0,0,1-1.188-11.287,21.544,21.544,0,0,1,4.814-10.49,42.216,42.216,0,0,1,3.88-4.26c.694-.657,1.4-1.284,2.123-1.911a14.2,14.2,0,0,1,2.461-1.784,9.049,9.049,0,0,1,3.066-1.065c1.042-.137,1.849-.192,2.77-.337.894-.13,1.754-.318,2.648-.534a11.058,11.058,0,0,1,3.027-.449,12.045,12.045,0,0,1,5.673,1.786,14.3,14.3,0,0,1,4.319,3.746l-.178.166a16.512,16.512,0,0,0-4.68-2.839,10.831,10.831,0,0,0-5.1-.986,9.1,9.1,0,0,0-2.47.613,26.264,26.264,0,0,1-2.813.769c-.921.2-1.975.372-2.787.5a6.448,6.448,0,0,0-2.181.85,31.977,31.977,0,0,0-4.1,3.366,40.994,40.994,0,0,0-3.823,3.861,23.564,23.564,0,0,0-5.1,9.293,20.081,20.081,0,0,0,.342,10.777c1.134,3.508,2.991,6.792,4.39,10.295,1.451,3.386,3.067,6.6,4.832,9.879,1.668,3.3,3.573,6.41,5.422,9.712Z" fill="#2b2b2b"/>
        <path id="Path_21634" data-name="Path 21634" d="M862.618,1883.5l-.269.081-.165.051v-.178a9.479,9.479,0,0,1,.486-2.485c.224-.781.318-1.6.478-2.423l.821-4.917c.541-3.276,1.052-6.583,1.907-9.838a65.712,65.712,0,0,1,3.22-9.552q.985-2.326,2.137-4.58l2.342-4.42c.786-1.478,1.6-2.962,2.521-4.4.479-.744.925-1.375,1.322-2.068s.79-1.411,1.17-2.141c.758-1.46,1.491-2.973,2.351-4.461a22.788,22.788,0,0,1,3.1-4.182,189.176,189.176,0,0,1,14.581-13.862l3.831-3.25a38.993,38.993,0,0,1,4.142-2.992,88.427,88.427,0,0,1,8.819-4.93,39.08,39.08,0,0,1,4.7-1.966,17,17,0,0,1,5.094-.787,20.35,20.35,0,0,1,5.066.7,29.576,29.576,0,0,1,4.81,1.637,42.584,42.584,0,0,1,4.449,2.42,12.646,12.646,0,0,1,3.6,3.634,15.816,15.816,0,0,1,2.294,4.534c.536,1.6.93,3.228,1.325,4.846l.584,2.44a24.269,24.269,0,0,1,.366,2.517,29.738,29.738,0,0,1,.187,5.083c-.065.432.057.913.028,1.379a6.888,6.888,0,0,1-.195,1.385,9.142,9.142,0,0,1-1.117,2.5,7.913,7.913,0,0,1-4.337,3.086l-.162-.184a29.663,29.663,0,0,1,2.314-4.344c.394-.644.908-1.216,1.248-1.885.2-.318.385-.649.581-.984a4.213,4.213,0,0,0,.29-.515,1.237,1.237,0,0,0,.181-.558,29.019,29.019,0,0,0-.041-4.873,23.581,23.581,0,0,0-.279-2.425l-.522-2.423c-.753-3.221-1.381-6.522-3.379-9.152a11.887,11.887,0,0,0-3.37-3.447,39.984,39.984,0,0,0-4.364-2.339,24.152,24.152,0,0,0-9.549-2.11,14.9,14.9,0,0,0-4.758.882,37.893,37.893,0,0,0-4.472,2.068,88.169,88.169,0,0,0-8.486,5.153,37.062,37.062,0,0,0-3.87,3.005l-3.686,3.357q-3.674,3.378-7.277,6.824c-2.405,2.287-4.777,4.625-7,7.028a20.459,20.459,0,0,0-2.878,3.8c-.819,1.387-1.556,2.865-2.344,4.352-.4.743-.8,1.491-1.247,2.229s-.974,1.467-1.407,2.113c-.9,1.348-1.718,2.771-2.524,4.217-1.6,2.935-3.294,5.761-4.636,8.761a71.4,71.4,0,0,0-3.468,9.234c-1.874,6.288-2.8,13.007-4.715,19.311l-.167-.127.274-.062Z" fill="#2b2b2b"/>
        <path id="Path_21635" data-name="Path 21635" d="M880.555,1948.237c2.449,3.129,5.286,5.909,7.782,9.072a53.409,53.409,0,0,0,8.262,8.327,56.919,56.919,0,0,0,4.74,3.445c.832.539,1.628,1.017,2.523,1.552s1.722,1.142,2.53,1.715a23.564,23.564,0,0,0,4.933,2.895,55.1,55.1,0,0,0,5.521,1.954c1.912.582,3.82,1.319,5.665,1.84a16.378,16.378,0,0,0,2.8.557,24.732,24.732,0,0,0,2.905.019,29.683,29.683,0,0,0,5.849-.654,12.911,12.911,0,0,0,5.287-2.269,11.16,11.16,0,0,0,3.2-4.726,27.174,27.174,0,0,0,1.467-5.661c.213-1.975.673-3.958.781-5.851a9.542,9.542,0,0,0-.231-2.775,8.88,8.88,0,0,0-.437-1.3c-.1-.246-.2-.493-.287-.745l-.123-.384-.015-.052c-.019-.062.042.126.015.049l-.036-.079-.072-.159a9.789,9.789,0,0,0-1.534-2.323,3.686,3.686,0,0,1-.277-.387,1.356,1.356,0,0,1-.212-.9,1.221,1.221,0,0,1,.762-.942,2,2,0,0,1,.653-.137,9.707,9.707,0,0,1,1.661.113,15.971,15.971,0,0,0,5.617.029,10.2,10.2,0,0,0,4.651-2.653c1.4-1.275,2.872-2.729,4.173-4.1a29.222,29.222,0,0,0,5.989-9.637,57.44,57.44,0,0,0,1.6-5.592,12,12,0,0,0,.49-2.665,17.508,17.508,0,0,0-.114-2.766l-.348-2.965c-.1-1.069-.142-1.967-.26-2.931a24.969,24.969,0,0,0-1.255-5.517,20.142,20.142,0,0,0-2.945-4.824l-.9-1.184a12.722,12.722,0,0,1-.894-1.313c-.526-.891-.959-1.757-1.49-2.486a6.015,6.015,0,0,0-2.007-1.752,18.467,18.467,0,0,0-2.569-1.3c-1.761-.723-3.754-1.164-5.639-1.755a47.617,47.617,0,0,0-5.89-.738,53.381,53.381,0,0,1-5.965-.792l.077-.231a54.318,54.318,0,0,0,5.927.543c2,.146,3.959.177,6.023.434,3.858.8,8.136,1.291,11.338,4.595.694.842,1.2,1.734,1.742,2.521a12.392,12.392,0,0,0,.831,1.118l.952,1.15a22.076,22.076,0,0,1,3.43,5.2,27.075,27.075,0,0,1,1.623,6.007c.173,1,.244,2.086.347,2.991l.4,2.94a19.641,19.641,0,0,1,.181,3.169,13.263,13.263,0,0,1-.53,3.184,59.067,59.067,0,0,1-1.693,5.845,30.658,30.658,0,0,1-6.7,10.369c-1.468,1.484-2.859,2.8-4.43,4.174a11.908,11.908,0,0,1-5.729,2.981,17.808,17.808,0,0,1-6.292-.231,10.861,10.861,0,0,0-1.316-.172c-.075-.005-.134.012-.08-.009a.569.569,0,0,0,.294-.413c.019-.219-.053-.254-.016-.2a2.048,2.048,0,0,0,.143.226,11.3,11.3,0,0,1,1.58,2.738l.072.183.035.093a1.367,1.367,0,0,1,.044.137l.008.038.085.33c.063.223.134.443.212.661a10.249,10.249,0,0,1,.422,1.542,10.84,10.84,0,0,1,.109,3.145c-.222,2.065-.789,3.94-1.071,5.9a28.163,28.163,0,0,1-1.622,5.815,13.031,13.031,0,0,1-3.459,5.018,14.981,14.981,0,0,1-5.551,2.568,36,36,0,0,1-6,1.008,25.56,25.56,0,0,1-3.078.163,17.61,17.61,0,0,1-3.1-.421c-2.027-.449-3.886-1.051-5.827-1.516a46.173,46.173,0,0,1-5.823-1.847,23.9,23.9,0,0,1-5.364-3.122c-.807-.591-1.59-1.165-2.389-1.676s-1.713-1.062-2.545-1.62a50.387,50.387,0,0,1-4.819-3.718,49.065,49.065,0,0,1-8.069-9.014c-1.136-1.6-2.334-3.186-3.522-4.785s-2.38-3.21-3.411-4.921Z" fill="#2b2b2b"/>
        <path id="Path_21636" data-name="Path 21636" d="M825.683,1991.245a2.859,2.859,0,0,0,.367,2.267c.2.344.436.7.667,1.036a5.265,5.265,0,0,0,.774.88,24.729,24.729,0,0,0,4.2,2.58,42.655,42.655,0,0,0,4.284,2.457,28.4,28.4,0,0,0,4.644,1.474c1.6.378,3.239.689,4.861.915.812.117,1.625.21,2.439.273.805.042,1.771.162,2.534.245a6.779,6.779,0,0,0,2.162-.068l2.459-.537a16.052,16.052,0,0,0,4.466-1.55,21,21,0,0,0,7.19-6.341,37.221,37.221,0,0,0,2.673-4.163c.8-1.46,1.544-2.966,2.371-4.442,1.644-2.929,3.333-5.818,4.789-8.818a27.72,27.72,0,0,0,2.975-9.355,46.181,46.181,0,0,0,.1-9.823q-.068-.6-.16-1.2c-.069-.447-.112-.9-.14-1.334-.057-.866-.08-1.673-.2-2.4a43.207,43.207,0,0,0-1.313-4.69l-3.027-9.526c-1.009-3.16-2.062-6.413-3.015-9.588-.946-3.2-1.993-6.31-3.228-9.379s-2.617-6.1-3.991-9.156c-1.3-3.03-3-5.92-4.307-9.09a24.36,24.36,0,0,1-1.419-4.894c-.349-1.572-.911-3.233-2.426-3.977l.1-.224c6.295,11.407,13.892,22.892,17.773,35.952l1.48,4.8c.5,1.585,1.021,3.156,1.471,4.788l2.815,9.686a37.771,37.771,0,0,1,1.235,5.01c.108.928.088,1.8.108,2.6.01.406.028.783.07,1.167.047.432.085.861.115,1.292a42.472,42.472,0,0,1-.711,10.185,31.283,31.283,0,0,1-3.558,9.535c-1.564,2.978-3.261,5.876-4.835,8.821-1.521,2.935-2.735,6.128-4.619,9a22.156,22.156,0,0,1-7.327,7.348,18.87,18.87,0,0,1-2.421,1.159,18.1,18.1,0,0,1-2.555.733l-2.469.558a8.464,8.464,0,0,1-2.862.075c-.909-.114-1.611-.221-2.487-.285-.864-.082-1.721-.195-2.573-.333-1.7-.289-3.363-.68-5.022-1.133a26.231,26.231,0,0,1-4.877-1.827,34.619,34.619,0,0,1-4.281-2.842,21.4,21.4,0,0,1-4.092-3.094,6.04,6.04,0,0,1-.777-1.092c-.2-.378-.4-.742-.579-1.145a3.192,3.192,0,0,1-.089-2.589Z" fill="#2b2b2b"/>
        <path id="Path_21637" data-name="Path 21637" d="M753.088,1896.785a58.148,58.148,0,0,0-3.429,8.877c-.464,1.526-.632,2.962-1.02,4.677a16.769,16.769,0,0,0-.2,4.513c.068,3.138.4,6.231,2.193,8.485l3.079,3.592c1.049,1.188,2.069,2.382,3.184,3.461a22.924,22.924,0,0,0,3.545,2.938,16.746,16.746,0,0,0,4.172,1.923,27.476,27.476,0,0,0,9.372,1.088c1.6-.074,3.2-.187,4.8-.319,1.613-.152,3.228-.149,4.784-.394a65.944,65.944,0,0,0,9.274-2.378c3.076-.917,6.133-1.88,9.214-2.751a43.357,43.357,0,0,0,8.556-3.911,87.472,87.472,0,0,0,8.156-4.854,49.493,49.493,0,0,0,7.063-6.146c1.143-1.118,2.3-2.26,3.52-3.358,1.258-1.1,2.34-2.069,3.466-3.214,1.11-1.117,2.192-2.291,3.312-3.458s2.3-2.257,3.335-3.416c1.071-1.134,1.922-2.4,3.066-3.683a31.259,31.259,0,0,1,3.65-3.309c2.636-1.95,5.1-3.864,7.721-5.772l.165.181c-1.158,1.111-2.338,2.205-3.523,3.3l-1.777,1.648c-.593.527-1.2,1.036-1.78,1.578a29.849,29.849,0,0,0-3.228,3.4c-.907,1.175-1.748,2.65-2.825,3.9-1.036,1.283-2.163,2.456-3.192,3.64-1.054,1.188-2.1,2.412-3.2,3.614-.553.6-1.115,1.2-1.709,1.773s-1.224,1.132-1.779,1.652c-1.141,1.069-2.244,2.2-3.367,3.354a45.642,45.642,0,0,1-7.473,6.408,89.721,89.721,0,0,1-8.512,4.781,40.372,40.372,0,0,1-9.084,3.74c-3.134.775-6.29,1.46-9.43,2.19a84.406,84.406,0,0,1-9.515,1.91c-1.635.183-3.245.187-4.835.313-1.6.1-3.2.281-4.819.369a33.584,33.584,0,0,1-9.77-.568,18.054,18.054,0,0,1-4.7-1.772,22.8,22.8,0,0,1-4.064-2.923,41.612,41.612,0,0,1-3.431-3.512l-1.583-1.824c-.534-.628-1.005-1.154-1.58-1.892a11.638,11.638,0,0,1-2.056-4.807,25.868,25.868,0,0,1-.3-4.966,16.4,16.4,0,0,1,.527-5c.215-.651.374-1.489.594-2.267s.471-1.574.762-2.34a44.153,44.153,0,0,1,4.454-8.589Z" fill="#2b2b2b"/>
        <path id="Path_21638" data-name="Path 21638" d="M833.862,1865.746c-2.151-1.662-4.275-3.362-6.467-4.884a20.49,20.49,0,0,0-3.372-1.975c-1.147-.511-2.434-.857-3.772-1.35-.662-.246-1.316-.517-1.95-.821-.613-.279-1.205-.575-1.822-.836-1.215-.552-2.461-1.024-3.7-1.5a67.035,67.035,0,0,0-7.609-2.376,21.923,21.923,0,0,0-3.9-.581,33.2,33.2,0,0,1-4.116-.541l-1.992-.367a8.448,8.448,0,0,0-1.934.045,21.863,21.863,0,0,1-4.151-.342c-.684-.1-1.352-.3-1.98-.329a15.624,15.624,0,0,0-1.989.039c-1.391.1-2.758-.026-4.043.16l-8,1.463a68.56,68.56,0,0,0-7.778,2.03l-1.91.638c-.642.226-1.35.45-2.018.622-1.351.351-2.672.624-3.906,1-1.126.313-2.228,1.024-3.674,1.574a9.781,9.781,0,0,1-1.117.336,6.6,6.6,0,0,0-.813.253,9.867,9.867,0,0,0-1.588.842A7.293,7.293,0,0,0,748,1861.4a19.7,19.7,0,0,0-1.695,3.393c-.227.589-.418,1.194-.589,1.81l-.491,1.955a4.349,4.349,0,0,0-.217,1.577c.047.614.147,1.275.226,1.976.039.337.071.741.092,1.057s.051.636.088.956c.073.639.176,1.282.294,1.928.229,1.294.531,2.6.822,3.926.59,2.633.985,5.368,1.786,7.8a17.867,17.867,0,0,0,4.579,6.4l-.152.192a16.74,16.74,0,0,1-5.552-6.11,32.265,32.265,0,0,1-1.375-3.922l-1.136-3.9c-.37-1.292-.761-2.6-1.09-3.949q-.241-1.012-.414-2.06c-.056-.349-.106-.7-.146-1.056s-.074-.626-.128-.957c-.1-.637-.234-1.308-.326-2.037a6.642,6.642,0,0,1,.224-2.426l.449-1.987c.173-.692.372-1.379.614-2.059a19.072,19.072,0,0,1,1.9-3.864,9.377,9.377,0,0,1,3.154-3.4,12.085,12.085,0,0,1,2.041-.991,8.86,8.86,0,0,1,1.141-.319,7.01,7.01,0,0,0,.84-.226c1.113-.363,2.351-1.109,3.861-1.506,1.379-.371,2.731-.608,4.018-.9.653-.148,1.254-.292,1.9-.487l1.987-.552a52.556,52.556,0,0,1,8.117-1.541c2.733-.319,5.395-.559,8.129-.919,1.422-.149,2.782.062,4.1-.036a16.59,16.59,0,0,1,2.084-.012c.732.066,1.382.23,2.044.317a16.362,16.362,0,0,0,3.969.2,10.4,10.4,0,0,1,2.126-.159l2.046.2a32.536,32.536,0,0,0,4,.181,23.874,23.874,0,0,1,4.193.278,40.406,40.406,0,0,1,8.03,2.163c1.3.484,2.567,1.032,3.817,1.619.629.282,1.245.606,1.86.9.587.289,1.168.582,1.768.839,1.18.522,2.523.919,3.808,1.624a19.07,19.07,0,0,1,3.449,2.438c1.053.9,2.042,1.842,2.991,2.823s1.889,1.963,2.783,2.989Z" fill="#2b2b2b"/>
        <path id="Path_21639" data-name="Path 21639" d="M830.566,1790.747a19.438,19.438,0,0,0,1.938-2.626c.7-.9,1.312-1.743,1.952-2.64a51.062,51.062,0,0,1,4.038-5.321,33.261,33.261,0,0,1,5.216-4.353,20.035,20.035,0,0,1,6.205-3.018,14.5,14.5,0,0,1,6.953-.014,30.9,30.9,0,0,1,6.414,2.062c1.044.526,1.9,1.178,2.852,1.756.935.592,1.849,1.213,2.771,1.826a43.3,43.3,0,0,1,5.311,4.09,17.082,17.082,0,0,1,3.952,5.607,26.637,26.637,0,0,1,1.8,6.555,66.885,66.885,0,0,1,.995,13.3c-.042,1.136-.113,2.183-.111,3.241s.04,2.131.085,3.207c.111,2.153.311,4.326.458,6.526.073,1.116.152,2.161.135,3.355-.032,1.156-.187,2.263-.325,3.346-.322,2.131-.29,4.344-.494,6.526h-.245c-.132-1.1-.237-2.192-.341-3.29a21.933,21.933,0,0,1-.158-3.321c.018-1.1.046-2.182-.04-3.219-.093-1-.31-2.126-.453-3.189-.333-2.157-.677-4.333-.906-6.55-.125-1.109-.2-2.229-.231-3.357s0-2.276.01-3.331a88.631,88.631,0,0,0-.661-12.9,29.479,29.479,0,0,0-1.331-6.183,17.176,17.176,0,0,0-3.119-5.408,40.762,40.762,0,0,0-10.307-7.878,21.942,21.942,0,0,0-6.3-1.434,13.191,13.191,0,0,0-6.137.619,25.213,25.213,0,0,0-5.571,2.862c-.892.583-1.765,1.213-2.628,1.869a21.792,21.792,0,0,0-2.444,2.013c-1.524,1.459-2.89,3.165-4.379,4.811-.721.827-1.561,1.635-2.335,2.365a13.67,13.67,0,0,1-2.43,2.287Z" fill="#2b2b2b"/>
        <path id="Path_21640" data-name="Path 21640" d="M808.8,1932.293c-1.646,1.629-3.066,3.366-4.571,5.165a28.966,28.966,0,0,1-2.532,2.458l-2.568,2.293c-.854.762-1.687,1.53-2.475,2.32-.413.4-.746.764-1.182,1.223-.428.441-.871.851-1.314,1.243-.881.789-1.778,1.488-2.568,2.23-.4.376-.747.744-1.119,1.156l-1.148,1.286a27.954,27.954,0,0,0-4.093,5.277,59.513,59.513,0,0,0-2.522,6.334,48.4,48.4,0,0,0-1.979,6.557,9.175,9.175,0,0,0-.156,3.264,25.244,25.244,0,0,0,.954,3.2c1.813,4.1,2.824,9.109,6.89,10.514a33.762,33.762,0,0,0,6.207,2.407c.923.231,2.13.279,3.421.65,1.206.345,2.277.773,3.282,1.054a17.571,17.571,0,0,0,3.214.468l3.466.552a21.783,21.783,0,0,0,6.557.353,18.024,18.024,0,0,0,6.155-2.28,33.486,33.486,0,0,0,2.8-1.949c.518-.348,1-.591,1.481-.922a8.942,8.942,0,0,1,1.555-.84l.106.22a9.965,9.965,0,0,0-1.334,1.051c-.42.388-.923.75-1.316,1.109a22.294,22.294,0,0,1-2.6,2.359,21.745,21.745,0,0,1-3.052,1.867,14.2,14.2,0,0,1-3.44,1.275,21.6,21.6,0,0,1-7.236.1c-1.161-.115-2.443-.295-3.4-.407a19.46,19.46,0,0,1-3.642-.446c-1.226-.323-2.3-.778-3.311-1.061-.929-.289-2.059-.328-3.37-.7a36.055,36.055,0,0,1-6.591-2.818,16.867,16.867,0,0,1-1.615-.928,7.437,7.437,0,0,1-1.48-1.331,12.017,12.017,0,0,1-1.914-3.23,33.259,33.259,0,0,1-1.14-3.329c-.341-1.1-.681-2.211-.975-3.341a26.209,26.209,0,0,1-.718-3.47,11.907,11.907,0,0,1,.391-3.569c.549-2.275,1.345-4.41,2.033-6.615.339-1.1.676-2.2.982-3.307a30.568,30.568,0,0,1,1.056-3.355,27.523,27.523,0,0,1,3.769-6.015l1.08-1.351a12.97,12.97,0,0,1,1.244-1.357c.878-.846,1.792-1.579,2.654-2.292.429-.361.84-.723,1.224-1.1.367-.366.826-.839,1.25-1.227.875-.805,1.787-1.544,2.69-2.27,1.789-1.467,3.743-2.77,5.4-4.224a40.421,40.421,0,0,1,5.343-4.443Z" fill="#2b2b2b"/>
        <path id="Path_21641" data-name="Path 21641" d="M944.759,1837.228a13.433,13.433,0,0,1,5.061-.02,10.283,10.283,0,0,1,2.53.81,6.71,6.71,0,0,1,1.2.777,5.281,5.281,0,0,1,.527.541,4.7,4.7,0,0,1,.389.532c.881,1.393,1.748,2.747,2.718,4.137a16.52,16.52,0,0,0,3.306,3.557,7.259,7.259,0,0,1,1.576,2.069,24.88,24.88,0,0,1,1.074,2.3,29.331,29.331,0,0,1,1.449,4.819,46.488,46.488,0,0,1,.743,4.906c.169,1.6.366,3.217.487,4.867a12.769,12.769,0,0,1-.9,5.208l-.829,2.291-.189.552c-.077.218-.163.457-.259.669a10.5,10.5,0,0,1-.644,1.22,22.648,22.648,0,0,1-3.289,3.987,48.266,48.266,0,0,1-3.874,3.16,58.606,58.606,0,0,1-8.191,5.6,53.346,53.346,0,0,1-9.089,4.154c-1.588.528-3.18.964-4.75,1.393s-3.113.889-4.725,1.3c-1.589.41-3.153.79-4.664,1.251a42.817,42.817,0,0,1-4.84,1.235c-1.626.325-3.245.583-4.843.854-1.619.281-3.278.511-4.936.647a40.956,40.956,0,0,1-5.009.11c-1.674-.084-3.286-.225-4.924-.379-3.248-.29-6.526-.769-9.7-1.125-1.59-.146-3.207-.2-4.839-.27-1.627-.049-3.3-.2-4.879-.291a38.208,38.208,0,0,0-4.812.069,13.771,13.771,0,0,1-5-.171,15.314,15.314,0,0,1-4.592-1.871,16.393,16.393,0,0,1-3.669-3.27l.183-.162a16.411,16.411,0,0,0,3.764,2.97,14.606,14.606,0,0,0,4.5,1.571,12.874,12.874,0,0,0,4.713-.09,34.7,34.7,0,0,1,4.946-.273c1.669.031,3.25.121,4.88.112,1.624.009,3.265,0,4.923.094,3.309.254,6.5.583,9.741.8,1.609.11,3.245.206,4.825.244a39.444,39.444,0,0,0,4.747-.228c1.586-.161,3.152-.406,4.735-.712,1.606-.305,3.2-.591,4.759-.933a41.857,41.857,0,0,0,4.593-1.264c1.6-.506,3.2-.909,4.755-1.33,1.54-.406,3.1-.9,4.676-1.336,1.565-.445,3.109-.887,4.6-1.4a57.775,57.775,0,0,0,16.547-9.31,46.925,46.925,0,0,0,3.717-2.944,20.44,20.44,0,0,0,2.94-3.462,8.035,8.035,0,0,0,.5-.92c.073-.156.126-.3.187-.46l.212-.594.853-2.266a10.491,10.491,0,0,0,.831-4.271c-.1-1.579-.267-3.176-.418-4.8-.144-1.59-.347-3.154-.64-4.7a27.292,27.292,0,0,0-1.243-4.5,23.016,23.016,0,0,0-.934-2.122c-.378-.7-.637-1.315-1.045-2.016-.781-1.357-1.794-2.753-2.661-4.117a24.538,24.538,0,0,0-3.55-3.3c-1.934-1.812-5.173-2.449-8.268-3.65Z" fill="#2b2b2b"/>
        <path id="Path_21642" data-name="Path 21642" d="M842.549,1883.823a4.434,4.434,0,0,1-.861-.089c-.285-.024-.568-.049-.852-.088-.36-.05-2.44-.279-4.4-.714-3.392-.752-4.528-1.662-5.074-1.1-.39.4-.19,1.258.028,1.754.655,1.484,2.347,1.694,6.265,3.232,1.19.466,2.126.877,2.651,1.111-1.057.662-2.37.853-3.445,1.488a31.958,31.958,0,0,1-4.344,1.952l-4.163,1.682c-.519.21-1.716.418-2.018.838-.916,1.273,1.829.747,2.158.687a16.619,16.619,0,0,0,3.5-.971c1.385-.565,2.773-1.121,4.158-1.681a11.756,11.756,0,0,1,2.627-1.042c.089.828-1.036,1.918-1.513,2.564a14.756,14.756,0,0,1-2.777,2.568,29.824,29.824,0,0,1-2.43,1.869c-.191.124-2.087,1.03-2.007,1.29,1.868.893,4.433.433,6.331-.111.992-.286,1.768-.886,2.72-1.245a5.968,5.968,0,0,0,1.427-.707c.187-.135.384-.44.643-.307.436.227-.017,1.535-.139,1.849a14.7,14.7,0,0,1-1.2,2.209c-1.257,2.1-3.182,3.876-4.141,6.184.355.583,1.506.181,2.055.061a7.113,7.113,0,0,0,3.051-1.353,13.537,13.537,0,0,0,1.846-1.831c.419-.519.877-1.473,1.564-1.7.772.463.249,1.974.085,2.6a16.093,16.093,0,0,1-1.6,3.7,26.461,26.461,0,0,1-1.918,3.181,18.472,18.472,0,0,0-2.2,2.71,6.258,6.258,0,0,0,2.607-.722,10.86,10.86,0,0,0,3.917-2.524,23.945,23.945,0,0,0,2.451-3.252c.305-.451,1.041-2,1.642-2.112.546.895-.1,2.088-.307,2.977-.308,1.343-.552,2.666-.944,3.992-.479,1.627-1.558,2.9-2.2,4.456a5.79,5.79,0,0,0-.365,1.373,4.456,4.456,0,0,0-.172,1.059c.3.969,1.906-.081,2.3-.4a8.33,8.33,0,0,0,2.16-2.955,18.178,18.178,0,0,0,.76-2.637c.247-.885.585-1.72.893-2.581a14.014,14.014,0,0,1,.624-1.507c.219-.443.342-1.222.782-1.459a6.048,6.048,0,0,1,1.081,3.077c.242,1.642.278,3.322.461,4.972a40.77,40.77,0,0,1,.135,6.592,3.3,3.3,0,0,0,1.057-1.454,18.864,18.864,0,0,0,1.205-3.774,27.4,27.4,0,0,0,.378-2.792,2.062,2.062,0,0,1,.382-1.262c.578.068,1.206,1.219,1.409,1.54.7,1.113,1.214,2.328,1.907,3.448.478.773.927,1.559,1.4,2.336a2.912,2.912,0,0,0,1.054,1.232c.472-.364.583-1.307.743-1.87.184-.644.355-1.37.482-2.029.342-1.755-.053-3.635-.153-5.4-.042-.762.1-1.62-.014-2.367-.041-.263-.178-.486-.228-.741-.058-.295.074-.522-.134-.8a26.691,26.691,0,0,1,5.445,5.876c.629.891,1.279,1.712,1.945,2.572.544.7.907,1.152,1.934.913.872-.2,1.079-1.124,1.155-1.929a7.476,7.476,0,0,0-.549-2.74,24.96,24.96,0,0,0-.821-2.491c-.578-1.411-1.522-2.565-2.151-3.933a7.7,7.7,0,0,1-.771-2.011c.385.12.611.471.9.726a9.857,9.857,0,0,0,1.236.913c1.254.8,2.518,1.635,3.8,2.39a13.022,13.022,0,0,0,3.811,1.563,18.676,18.676,0,0,0,3.532.142c.315,0,1.667.018,1.73-.337.067-.383-.828-.976-1.108-1.117a15.317,15.317,0,0,1-2.757-1.78c-1.02-.8-2.15-1.488-3.208-2.248a6.068,6.068,0,0,1-1.638-1.372,11.048,11.048,0,0,1-1.027-2.063c-.166-.389-.468-.9.118-1.074.4-.115.97.447,1.254.642.441.3.88.584,1.346.849a17.638,17.638,0,0,0,7.1,2.676,13.292,13.292,0,0,0,3.593-.234c.764-.143,1.607-.057,2.343-.261a31.332,31.332,0,0,1-8.031-3.24,11.781,11.781,0,0,1-2.947-2.545,7.557,7.557,0,0,1-1.233-1.548c.512-.344,1.817.5,2.308.645a14.162,14.162,0,0,0,4.58.383c1.861-.072,5.079-.419,6.315-2.1-.512-.632-2.543-.67-3.257-.86-1.43-.382-2.759-1.024-4.18-1.421-1.884-.526-4.019-.676-5.3-2.335a10.43,10.43,0,0,1,2.182.312,7.911,7.911,0,0,0,3.241-.187,8.664,8.664,0,0,0,3.229-1.14c.314-.211,1.8-1.079,1.823-1.508a5.26,5.26,0,0,0-1.584-.013,29.137,29.137,0,0,1-3,.032c-1.1-.061-2.81-.092-3.758-.745.115-.322,1.476-.52,1.606-.573a18.785,18.785,0,0,0,3.356-2.007,24.4,24.4,0,0,0,2.689-2.209c.239-.221,1.072-.746,1-1.07a8.44,8.44,0,0,0-3.357.665c-1.436.407-2.878.777-4.305,1.22-1.083.336-2.168.675-3.27.947-.455.113-1.358.485-1.741-.005.193-.287.687-.471.974-.653.632-.4,1.29-.8,1.9-1.236a10.121,10.121,0,0,0,3.066-3.7,17.513,17.513,0,0,0,1.7-5.2c.09-.471.634-2.82.012-3.279-.292.061-.767.957-.924,1.168a33.969,33.969,0,0,1-2.458,2.9,17.9,17.9,0,0,1-3.476,3.207,7.458,7.458,0,0,1-1.35.856c-.489.154-.734.021-.71-.6a3.949,3.949,0,0,1,.471-1.227,11.707,11.707,0,0,0,.74-2.2,15.437,15.437,0,0,0,.3-6.067,26.625,26.625,0,0,0-1.167-3.955,1.044,1.044,0,0,0-.8-.969,10.668,10.668,0,0,0-.417,2.083,12.248,12.248,0,0,1-1.7,3.986,10.679,10.679,0,0,1-3.2,3.779c.2-.794.507-1.556.723-2.345a8.171,8.171,0,0,0-.23-4.6,22.169,22.169,0,0,0-1.749-4.29c-.308-.571-.659-1.712-1.419-1.8a2.236,2.236,0,0,0-.48,1.169c-.189,1.1-.27,2.216-.475,3.317-.218,1.189-.476,2.368-.789,3.537a7.611,7.611,0,0,1-.786,2.245c-.628.928-1.039.558-1.232-.353a40.449,40.449,0,0,0-1.022-4.272,9.337,9.337,0,0,0-3.185-4.586c-.664-.464-1.826-1.4-2.061-.175a11.938,11.938,0,0,0-.025,2.443c.02.958-.013,1.91-.048,2.868-.038,1.022.139,3.967-.932,4.652-.687-.26-.943-1.052-1.262-1.644a20.294,20.294,0,0,0-2.948-4,9.386,9.386,0,0,0-2.631-2.277c-.49-.25-1.4-.814-1.939-.451a7.176,7.176,0,0,0,.454,2.28c.246.992.748,1.924,1.083,2.891.6,1.733.956,3.545,1.5,5.3.286.921.844,1.8,1.061,2.732.671,2.882-4.838-.252-5.633-.7a43.688,43.688,0,0,1-5.435-3.8c-.6-.476-1.636-1.578-2.453-1.748-.529.746.606,2.2.924,2.866a9.4,9.4,0,0,0,2.084,2.709,20.119,20.119,0,0,0,2.165,1.7c1.1.844,1.956,1.587,2.523,2.095a15.148,15.148,0,0,1-6.059-2.078c-.957-.594-2.638-1.8-3.228-1.325a2.721,2.721,0,0,0-.5,1.184,16.851,16.851,0,0,0,2.12,2.77c2.1,2.032,4.861,1.84,4.836,2.653-.009.325-.464.7-.855.781" fill="#ead065"/>
        <path id="Path_21643" data-name="Path 21643" d="M877.821,1867.053c-.669-1.257-1.255-2.478-1.865-3.673l-.048-.179c-.046-.125-.108-.186-.121-.176s.01.039-.052.036l1.155-.586a8.32,8.32,0,0,0-.173,1.166,7.764,7.764,0,0,1-.273,1.562,8.286,8.286,0,0,1-1.478,2.731c-.608.777-1.255,1.531-1.9,2.285a11.915,11.915,0,0,1-2.2,2.076l-.835.542.245-.982c.143-.572.271-1.149.377-1.731a6.318,6.318,0,0,0,.154-1.658,11.322,11.322,0,0,0-.719-3.1,25.152,25.152,0,0,0-1.341-3.071l-.383-.737-.219-.425-.194-.417a4,4,0,0,0-.275-.551c-.081-.12-.033-.029.171-.018l1.114-.459a.914.914,0,0,0-.258.4c-.078.231-.15.644-.226.958-.167.671-.328,1.345-.516,2.011a16.517,16.517,0,0,1-.719,1.985c-.278.651-.551,1.3-.881,1.925l-.236-.063c-.03-.717,0-1.412.018-2.1s.115-1.352.1-2.056c.006-.694.041-1.385.069-2.075.031-.365.023-.637.088-1.08a3.152,3.152,0,0,1,.608-1.45l.438-.528.676.069a2.367,2.367,0,0,1,1.608.937,5.638,5.638,0,0,1,.6.986l.183.382.19.359.4.85a21.131,21.131,0,0,1,1.144,3.545,8.288,8.288,0,0,1,.107,3.878,8.127,8.127,0,0,1-.645,1.778c-.241.543-.46,1.092-.665,1.647l-.589-.438a5.051,5.051,0,0,0,1.882-1.921,15.3,15.3,0,0,0,1.152-2.576c.335-.88.615-1.71.832-2.508a11.512,11.512,0,0,0,.278-1.249,5.867,5.867,0,0,1,.45-1.625l.383-.79.773.2a1.97,1.97,0,0,1,1.072.736,2,2,0,0,1,.364,1.064l-.048-.18a12.956,12.956,0,0,1,.469,4.239Z" fill="#2b2b2b"/>
        <path id="Path_21644" data-name="Path 21644" d="M879.814,1897.614a6.27,6.27,0,0,0,3.1.681,18.09,18.09,0,0,0,3.182-.316c1.054-.2,2.033-.676,3.065-.772,1.055-.153,2.045-.125,3.2-.35l.2.143a2.965,2.965,0,0,1-1.143,1.629,6.767,6.767,0,0,1-1.608.928,8.554,8.554,0,0,1-3.545.362,14.149,14.149,0,0,1-3.519-.419,6.333,6.333,0,0,1-3.087-1.7Z" fill="#2b2b2b"/>
        <path id="Path_21645" data-name="Path 21645" d="M864.351,1909.647a20.288,20.288,0,0,1,5.424,4.676l2.237,2.7a7.529,7.529,0,0,0,.955,1.07c.065.03.032.02.17.017a1.224,1.224,0,0,0,.226-.046.176.176,0,0,0,.048-.026,1.647,1.647,0,0,0,.23-.813,3.051,3.051,0,0,0-.121-1.316l-.86-3.308a17.224,17.224,0,0,0-1.368-3.074,15.746,15.746,0,0,1-.718-1.661,7.245,7.245,0,0,1-.549-1.822l-.073-.692.642.225a1.859,1.859,0,0,1,.765.566,3.757,3.757,0,0,0,.5.486,11.41,11.41,0,0,0,1.181.849c.849.519,1.688,1.056,2.552,1.551a14.52,14.52,0,0,0,2.625,1.313,8.485,8.485,0,0,0,2.717.609c.915.03,1.89-.105,2.923-.154.233-.013.46-.031.664-.064.178-.015.453-.111.317-.073-.049.041-.188.06-.349.426a.735.735,0,0,0-.01.5c.049.129.04.083-.005.053a2.764,2.764,0,0,0-.41-.3,1.891,1.891,0,0,0-.216-.113l-.36-.173c-.239-.119-.477-.248-.711-.381a16.086,16.086,0,0,1-1.357-.868c-.449-.319-.808-.6-1.2-.86l-1.225-.795-1.286-.837a11.988,11.988,0,0,1-1.335-.942,4.259,4.259,0,0,1-.709-.794,7.518,7.518,0,0,1-.463-.772c-.273-.517-.469-1.011-.66-1.451a3.092,3.092,0,0,1-.334-1.173,1.674,1.674,0,0,1,.162-.769,1.646,1.646,0,0,1,.557-.645,1.925,1.925,0,0,1,.514-.245,1.813,1.813,0,0,1,.364-.073,1.954,1.954,0,0,1,.348,0,2.6,2.6,0,0,1,1.29.586l.315.254.089.068.145.1c.758.511,1.581,1.049,2.428,1.531a15.783,15.783,0,0,0,5.192,2.068,11.406,11.406,0,0,0,2.813.1,10.272,10.272,0,0,1,1.552-.078,7.525,7.525,0,0,0,1.424-.007l-.01.673a37.1,37.1,0,0,1-5.567-2.663c-1.779-1.011-3.525-2.071-5.229-3.2l.133-.205c1.743,1.049,3.525,2.032,5.334,2.962a36.8,36.8,0,0,0,5.539,2.433l.982.306-.991.365a8.312,8.312,0,0,1-1.554.335c-.486.069-.88.191-1.422.314a12.865,12.865,0,0,1-3.17.349,15.157,15.157,0,0,1-6.115-1.714l-1.375-.69c-.452-.254-.909-.542-1.363-.815l-.171-.1-.215-.152-.277-.2c-.123-.111-.331-.14-.04-.071a.615.615,0,0,0,.161,0,.812.812,0,0,0,.181-.034.566.566,0,0,0,.176-.086.94.94,0,0,0,.406-.774c-.042-.284.017-.032.149.232.2.474.373.9.564,1.269a4.684,4.684,0,0,0,.3.51,1.616,1.616,0,0,0,.283.321c.236.211.644.486,1.088.818l1.184.858,1.243.9c.425.313.836.668,1.188.944.369.291.741.559,1.127.807l.594.357.3.173a4.175,4.175,0,0,1,.428.269,4.525,4.525,0,0,1,.746.651,2,2,0,0,1,.416.666,1.283,1.283,0,0,1,.009.864,1.2,1.2,0,0,1-.6.684,2.717,2.717,0,0,1-1.141.243c-.294.012-.567,0-.834-.009-.967-.063-2-.07-3.078-.244a14.421,14.421,0,0,1-5.617-2.686c-.827-.569-1.68-1.1-2.522-1.639a12.155,12.155,0,0,1-1.276-.862c-.427-.309-.805-.811-1.038-.822l.57-.466a4.978,4.978,0,0,0,.644,1.46,14.623,14.623,0,0,0,.9,1.451,18,18,0,0,1,1.937,3.1,16.651,16.651,0,0,1,.673,1.7c.182.582.375,1.038.569,1.682a5.294,5.294,0,0,1,.21,2.145,4.436,4.436,0,0,1-.268,1.109,2.6,2.6,0,0,1-.906,1.186,2.394,2.394,0,0,1-.75.334,3.274,3.274,0,0,1-.643.1,2.339,2.339,0,0,1-1.5-.425,6.819,6.819,0,0,1-1.319-1.59c-.678-.965-1.374-1.961-1.967-2.923a35.373,35.373,0,0,0-4.277-5.437Z" fill="#2b2b2b"/>
        <path id="Path_21646" data-name="Path 21646" d="M845.724,1874.549a26.186,26.186,0,0,1-4.5-2.223c-.717-.456-1.408-.828-2.127-1.382-.331-.248-.646-.484-.954-.674a2.078,2.078,0,0,0-.769-.331l.9-.351c.055-.051.037-.084.066.046a2.436,2.436,0,0,0,.21.489c.212.4.5.751.837,1.356a7.662,7.662,0,0,0,1.782,2.166,8.414,8.414,0,0,0,1.1.883c.43.3.9.614,1.331.945.837.7,1.688,1.385,2.493,2.117l2.393,2.181-3.111-.52a17.321,17.321,0,0,1-5.828-2c-.9-.526-1.681-1.128-2.511-1.556a1.82,1.82,0,0,0-1.079-.294c-.041-.009-.175.176-.258.368-.044.1-.084.2-.121.31l-.052.163-.022.083-.009.04-.005.021,0,.008a.366.366,0,0,1-.2.251.377.377,0,0,1-.4-.039l.525-.511a10.374,10.374,0,0,0,2.82,3.122,7.344,7.344,0,0,0,1.883.8c.691.21,1.316.257,2.2.573a1.6,1.6,0,0,1,.405.239,1.064,1.064,0,0,1,.369.707,1.372,1.372,0,0,1-.43,1.057,2.322,2.322,0,0,1-.662.485,1.946,1.946,0,0,1-.447.156,1.793,1.793,0,0,1-.524.01c-.586-.043-1.478,0-2.175-.091-1.482-.126-2.959-.242-4.448-.445-.745-.131-1.491-.292-2.223-.479-.705-.171-1.515-.429-1.981-.493-.086-.011-.115.023.04-.02a.605.605,0,0,0,.333-.263c.052-.158.007.047.08.24.155.457.254.546.717.828.97.516,2.527.881,3.881,1.392,1.4.487,2.783,1.055,4.154,1.624l2.307.955-2.132,1.16c-1.5.811-2.857.973-3.853,1.5a24.758,24.758,0,0,1-3.93,1.546l-3.893,1.264c-.669.194-1.28.4-1.995.585a5.716,5.716,0,0,0-1.865.547l-.195-.148a4.731,4.731,0,0,1,1.855-1.034c.571-.266,1.205-.615,1.8-.917l3.686-1.791a34.664,34.664,0,0,0,3.5-1.843c1.365-.856,2.789-1.126,3.636-1.734l.174,2.114c-1.363-.446-2.689-.979-4.068-1.387-.688-.208-1.378-.42-2.085-.66a13.331,13.331,0,0,1-2.26-.913,3.9,3.9,0,0,1-1.218-1.012,3.793,3.793,0,0,1-.679-1.476,2.865,2.865,0,0,1,.139-1.9,1.91,1.91,0,0,1,1.11-.986,2.376,2.376,0,0,1,1.123-.062c.973.2,1.539.454,2.245.651.675.2,1.35.384,2.036.538l4.234.737c.744.157,1.322.185,2.182.345-.038.072.191.007.335-.1.074-.031.062-.123.044.118a.323.323,0,0,0,.128.237c-.007,0,.007-.015-.06-.045-.46-.244-1.287-.45-1.97-.736a8.5,8.5,0,0,1-2.031-1.127,7.891,7.891,0,0,1-1.616-1.629,18.181,18.181,0,0,1-1.265-1.787l.524-.51a.365.365,0,0,0-.394-.051.349.349,0,0,0-.2.24l0-.012.006-.025.013-.049.027-.095.055-.19c.039-.126.082-.252.135-.378a1.38,1.38,0,0,1,.627-.771,1.476,1.476,0,0,1,.988-.026,6.367,6.367,0,0,1,.765.269c.96.405,1.79.962,2.664,1.3a16.208,16.208,0,0,0,5.525,1.127l-.718,1.66c-.874-.577-1.7-1.2-2.543-1.815-.417-.311-.836-.585-1.286-.884a7.851,7.851,0,0,1-1.375-1.124,9.6,9.6,0,0,1-2.13-2.825c-.15-.338-.489-.856-.737-1.411a3.979,3.979,0,0,1-.321-1.008,1.893,1.893,0,0,1,.333-1.474l.373-.477.524.125a3.635,3.635,0,0,1,1.438.746c.366.284.68.582.981.862.539.508,1.218,1.061,1.832,1.575,1.258,1.049,2.541,2.051,3.889,3.015Z" fill="#2b2b2b"/>
        <path id="Path_21647" data-name="Path 21647" d="M865.4,1867.265a9.866,9.866,0,0,1-.215,1.754,3.324,3.324,0,0,1-.378.9,1.727,1.727,0,0,1-.379.456.944.944,0,0,1-1,.152,1.345,1.345,0,0,1-.586-.588,3.02,3.02,0,0,1-.224-.511l-.262-.847-.478-1.622a15.919,15.919,0,0,0-1.13-2.97,9.741,9.741,0,0,0-1.786-2.408c-.18-.166-.343-.321-.538-.476-.239-.187-.438-.349-.621-.475-.153-.13-.376-.2-.226-.2a.558.558,0,0,0,.312-.2c.035-.082,0-.041-.03.016a26.283,26.283,0,0,0-.358,3.222c-.129,1.166-.191,2.264-.221,3.42a15.628,15.628,0,0,1-.158,1.756,2.734,2.734,0,0,1-.891,1.783l-.159.128-.241-.086a2.715,2.715,0,0,1-1.36-1.332,11.935,11.935,0,0,0-.841-1.271,21.842,21.842,0,0,0-2.052-2.271,21.228,21.228,0,0,0-2.189-2,7.033,7.033,0,0,0-1.2-.66,2.3,2.3,0,0,0-.5-.179c-.132-.031-.036.063.208-.079l.526-.888a2.832,2.832,0,0,0,.172.841l.392,1.224c.2.682.578,1.438.921,2.339a51.167,51.167,0,0,1,1.288,5.141,9.888,9.888,0,0,0,.315,1.13l.448,1.25a4.552,4.552,0,0,1,.29,1.626,1.613,1.613,0,0,1-.609,1.211,1.708,1.708,0,0,1-1.126.3,4.481,4.481,0,0,1-1.486-.407,9.787,9.787,0,0,1-1.222-.632,19.01,19.01,0,0,1-2.191-1.529l.123-.212c.83.3,1.639.617,2.465.854a6.888,6.888,0,0,0,2.293.4c.136-.012.2-.081.111-.051-.1.047-.116.135-.125.051a4.8,4.8,0,0,0-.346-.886l-.6-1.138a9.592,9.592,0,0,1-.535-1.329c-.6-1.694-.985-3.389-1.564-4.87-.262-.727-.668-1.531-.959-2.519l-.318-1.281a4.94,4.94,0,0,1-.167-1.726l.062-.6.464-.292a2.112,2.112,0,0,1,1.745-.22,4.6,4.6,0,0,1,.976.412,9.212,9.212,0,0,1,1.514.978,15.4,15.4,0,0,1,2.248,2.522,20.287,20.287,0,0,1,1.766,2.781,13.735,13.735,0,0,1,.7,1.5c.188.472.371.86.681.992l-.4.04a1.848,1.848,0,0,0,.614-1.184,8.4,8.4,0,0,0,.163-1.634c0-1.116-.028-2.287-.115-3.393-.041-.573-.081-1.106-.176-1.67a7.3,7.3,0,0,1-.087-1.907,1.659,1.659,0,0,1,.291-.764,1.394,1.394,0,0,1,1.04-.58,2.561,2.561,0,0,1,1.367.357c.307.167.568.344.794.486a5.947,5.947,0,0,1,.794.6,10.826,10.826,0,0,1,3.213,6.566l.233,1.714.093.819c-.006.213.159.45,0,.348-.146-.053-.277.033-.2.02a.6.6,0,0,0,.216-.154,2.528,2.528,0,0,0,.445-.583c.27-.453.475-.994.728-1.519Z" fill="#2b2b2b"/>
        <path id="Path_21648" data-name="Path 21648" d="M893.626,1895.841a3.151,3.151,0,0,0-1.562-.421c-.581-.065-1.132-.049-1.8-.167-1.2-.237-2.324-.665-3.413-.989s-2.168-.484-3.4-.788a6.249,6.249,0,0,1-3.463-2.074l-1.246-1.584,2.066-.009a8.27,8.27,0,0,1,1.609.155l.729.151a3.881,3.881,0,0,0,.565.088,9.241,9.241,0,0,0,2.521-.307,8.1,8.1,0,0,0,2.387-.74l.244-.137.318-.194.575-.356c.18-.118.355-.238.495-.349l.16-.137c.03.018.008-.107-.055.3l.722.985a2.066,2.066,0,0,0-.745-.092,10.443,10.443,0,0,1-1.115-.027l-2.2-.124a18.581,18.581,0,0,1-2.183-.288,5.323,5.323,0,0,1-2.221-.874l-.338-.252.155-.308a.884.884,0,0,1,.517-.485,2.611,2.611,0,0,1,.384-.133c.242-.065.473-.109.7-.148l.319-.055a1.94,1.94,0,0,0,.237-.088c.2-.082.393-.168.587-.263a21.925,21.925,0,0,0,2.231-1.4,19.618,19.618,0,0,0,2.055-1.651l.985-.94c.179-.149.345-.282.483-.42a1.34,1.34,0,0,0,.166-.189c.048-.049.008-.1.022.062l.38.345a7.416,7.416,0,0,0-2.992.734l-3.142,1.052-3.167,1.071-1.561.513a4.665,4.665,0,0,1-1.011.239,2.2,2.2,0,0,1-.79-.064,1.721,1.721,0,0,1-.888-.59l-.457-.6.408-.606a2.278,2.278,0,0,1,.758-.707l.481-.283.844-.583a12.7,12.7,0,0,0,1.627-1.217,10.4,10.4,0,0,0,2.156-3.251,18.3,18.3,0,0,0,1.168-3.88c.126-.677.273-1.444.35-2.063a8.385,8.385,0,0,0,.068-.9,1.758,1.758,0,0,0-.017-.3c.009-.037-.052,0,.228.25l1.039.24c.4-.106.4-.195.445-.213.019-.02.006-.008-.012.011a2.166,2.166,0,0,0-.16.22c-.136.188-.224.391-.482.728l-1.089,1.29c-.741.852-1.461,1.711-2.231,2.487a15.093,15.093,0,0,1-2.635,2.28l-.387.241c-.07.038-.175.107-.281.181-.221.149-.459.323-.771.5a2.719,2.719,0,0,1-.585.246,1.713,1.713,0,0,1-.875.034,1.231,1.231,0,0,1-.634-.387,1.315,1.315,0,0,1-.268-.517,2.046,2.046,0,0,1-.052-.669l0-.092.01-.042a4.875,4.875,0,0,1,.625-1.488l-.037.075a15.047,15.047,0,0,0,1.256-3.974,16.413,16.413,0,0,0,.272-4.27l.242-.044a14.532,14.532,0,0,1,.481,4.421,14.743,14.743,0,0,1-.828,4.467l-.037.075a3.3,3.3,0,0,0-.3,1.044l.014-.133c0,.085.027.165.029.135a.32.32,0,0,0-.081-.159.617.617,0,0,0-.288-.187c-.174-.031-.122-.016-.07-.045l.154-.094,1.233-.951a15.587,15.587,0,0,0,2.127-2.151c.713-.812,1.331-1.664,1.973-2.485l.976-1.228c.081-.087.222-.38.39-.642a5.135,5.135,0,0,1,.307-.445,2.526,2.526,0,0,1,.262-.289,1.612,1.612,0,0,1,.788-.427l.579-.153.462.393a2.1,2.1,0,0,1,.727,1.2,4.138,4.138,0,0,1,.1.79,7.85,7.85,0,0,1-.063,1.285c-.11.827-.248,1.494-.391,2.251a16.85,16.85,0,0,1-1.466,4.448,12.735,12.735,0,0,1-2.851,3.89,14,14,0,0,1-1.935,1.348l-.995.623-.484.248c-.107.048-.156.119-.069,0l-.05-1.21a.408.408,0,0,0-.211-.139c-.046-.009-.025.006.031,0a2.978,2.978,0,0,0,.606-.113l1.628-.39,3.213-.733,3.245-.734a8.22,8.22,0,0,1,3.468-.47l.339.062.041.283a.815.815,0,0,1-.189.675,2.145,2.145,0,0,1-.289.3c-.189.168-.382.3-.551.433l-1,.864a21.4,21.4,0,0,1-2.149,1.672,22.473,22.473,0,0,1-2.278,1.5q-.3.172-.616.33a2.364,2.364,0,0,1-.385.163l-.339.082c-.211.051-.417.106-.6.171a1.691,1.691,0,0,0-.244.1c-.074.011-.1.128.011-.068l-.181-.558a4.411,4.411,0,0,0,1.815.455,18.259,18.259,0,0,0,2.094.031l2.089-.117a9.22,9.22,0,0,0,1.027-.088,3.957,3.957,0,0,1,1.388.041l.824.194-.1.791a1.525,1.525,0,0,1-.388.92,3.344,3.344,0,0,1-.349.36,8.018,8.018,0,0,1-.64.518l-.614.435-.281.2c-.117.084-.241.162-.364.237a10.006,10.006,0,0,1-3.028,1.018,11.088,11.088,0,0,1-3.154.258,6.094,6.094,0,0,1-.844-.153l-.667-.159a7.284,7.284,0,0,0-1.227-.194l.82-1.593a4.594,4.594,0,0,0,2.38,1.592c1.015.372,2.244.633,3.361,1.149,1.11.479,2.125,1.025,3.179,1.441.467.172,1.092.276,1.661.437a3.073,3.073,0,0,1,1.643.865Z" fill="#2b2b2b"/>
        <path id="Path_21649" data-name="Path 21649" d="M839.714,1899.646a29.117,29.117,0,0,1-2.564,3.056,16.334,16.334,0,0,0-2.276,3.063l.031-.591c-.009-.058-.041-.041.113-.023a2.316,2.316,0,0,0,.523-.02l1.339-.225a7.135,7.135,0,0,0,2.368-.828,16.319,16.319,0,0,0,2.075-1.584,5.086,5.086,0,0,0,.424-.432l.481-.543a3.372,3.372,0,0,1,1.649-1.079l.426-.112.388.288a1.823,1.823,0,0,1,.631.851,2.222,2.222,0,0,1,.118.833,4.143,4.143,0,0,1-.252,1.2c-.257.683-.469,1.179-.778,1.824a21.666,21.666,0,0,1-2.11,3.248,25.6,25.6,0,0,1-2.48,2.952,26.1,26.1,0,0,0-2.649,2.294l-.662-1.5a3.59,3.59,0,0,0,1.5-.085c.583-.138,1.257-.285,1.81-.433a11.3,11.3,0,0,0,3.264-1.439,18.167,18.167,0,0,0,2.783-2.413l.654-.682.6-.709a9.081,9.081,0,0,1,.685-.729,2,2,0,0,1,1.054-.6l.271-.048.119.276a2.633,2.633,0,0,1-.24,2.2,14.43,14.43,0,0,0-.791,1.77c-.486,1.228-.926,2.438-1.451,3.681a32.944,32.944,0,0,1-2.23,3.292,6.578,6.578,0,0,0-.836,1.605c-.047.142-.088.286-.128.432-.066.226-.12.353-.172.507a2.712,2.712,0,0,0-.108.375c0,.083,0-.148.006-.087,0,.016,0-.026-.023-.036-.123-.083.079,0,.325-.095a4,4,0,0,0,.769-.312,5.311,5.311,0,0,0,1.369-1.041,9.172,9.172,0,0,0,1.125-1.4,7.2,7.2,0,0,0,.789-1.558,16.887,16.887,0,0,1,.747-1.846l.88-1.806c.279-.6.665-1.216,1-1.825l.191-.336.23-.444a2.493,2.493,0,0,1,1.217-1.219l.81-.376.548.8a5.4,5.4,0,0,1,.83,2.259,15.752,15.752,0,0,1,.127,2.074c.009,1.342-.089,2.634-.13,3.875-.022,1.2-.046,2.622-.191,3.9-.145,1.309-.351,2.605-.6,3.888l-1.805-1.444a4.815,4.815,0,0,0,1.076-1.4,18.061,18.061,0,0,0,1.1-2.17,17.834,17.834,0,0,0,.789-2.355l.353-1.184a5.823,5.823,0,0,1,.255-.789,2.532,2.532,0,0,1,.734-.978l.5-.389.516.145a2.174,2.174,0,0,1,1.19.808,4.784,4.784,0,0,1,.474.745c.124.235.228.467.322.68l.274.629c.367.887.644,1.746.937,2.543.286.763.663,1.606,1,2.433l.518,1.236a1.759,1.759,0,0,0,.419.7l-.908-.015c.074.028.4-.479.6-1l.722-1.595a8.53,8.53,0,0,0,.883-3.168c.148-1.134.172-2.3.426-3.511a12.1,12.1,0,0,0,.348-1.672,4.578,4.578,0,0,0-.07-.843c0-.383.18-.6.05-.809l.21-.126c.237.318.053.717.115.9a4.185,4.185,0,0,1,.2.88,12.065,12.065,0,0,1-.144,1.786c-.1,1.1.024,2.275,0,3.468a12.4,12.4,0,0,1-.159,1.829,9.353,9.353,0,0,1-.507,1.781l-.58,1.656a7.844,7.844,0,0,1-.352.9,2.386,2.386,0,0,1-.861,1.025l-.421.272-.487-.287a3.16,3.16,0,0,1-1.181-1.4l-.594-1.2c-.389-.805-.795-1.567-1.2-2.452-.383-.854-.683-1.686-1.039-2.435l-.288-.585c-.094-.192-.183-.363-.275-.519a2.39,2.39,0,0,0-.26-.374c-.062-.093-.147-.056.124.028l1.012-.244-.489,1.85a19.858,19.858,0,0,1-.807,2.595,20.5,20.5,0,0,1-1.193,2.507,10.6,10.6,0,0,1-.8,1.228,3.916,3.916,0,0,1-1.5,1.257l-2.3,1.06.495-2.505c.242-1.222.44-2.448.581-3.676.158-1.255.223-2.383.287-3.736.084-1.308.217-2.562.245-3.773a5.73,5.73,0,0,0-.467-3.076l1.357.428c.2-.121.028-.041-.087.2l-.233.418c-.084.16-.258.412-.312.5-.317.524-.662,1-.965,1.566l-.93,1.67a15.56,15.56,0,0,0-.815,1.742,7.971,7.971,0,0,1-1.105,1.861,10.918,10.918,0,0,1-1.464,1.543,6.843,6.843,0,0,1-1.854,1.177,5.425,5.425,0,0,1-1.084.336,2.706,2.706,0,0,1-.672.046,1.359,1.359,0,0,1-.877-.386,1.229,1.229,0,0,1-.257-.459,1.038,1.038,0,0,1-.026-.566,3.639,3.639,0,0,1,.2-.556l.174-.408c.056-.165.118-.332.186-.5a7.632,7.632,0,0,1,1.091-1.792,24.116,24.116,0,0,0,2.332-3.078c.542-1.137.988-2.389,1.487-3.578.372-1.223,1.411-2.491,1-3.37l.391.228a1.375,1.375,0,0,0-.533.4,7.7,7.7,0,0,0-.58.689c-.194.248-.362.494-.591.772l-.625.726a19.416,19.416,0,0,1-2.733,2.81,12.567,12.567,0,0,1-3.535,1.936c-.658.235-1.218.4-1.858.613a5.45,5.45,0,0,1-2.267.279l-1.539-.183.877-1.321A18.56,18.56,0,0,1,838.3,1910a26.429,26.429,0,0,0,2.234-2.741,21.407,21.407,0,0,0,1.975-2.9c.237-.459.521-1.092.7-1.556a2.421,2.421,0,0,0,.157-.6c.007-.172-.007-.03.113.034l.813.176a1.578,1.578,0,0,0-.655.464l-.475.486a6.938,6.938,0,0,1-.584.544,14.576,14.576,0,0,1-2.5,1.682,8.784,8.784,0,0,1-2.984.83c-.524.047-.9.08-1.459.112a3.6,3.6,0,0,1-.881-.065,1.407,1.407,0,0,1-1.019-.76l-.144-.324.176-.268a14.913,14.913,0,0,1,2.8-2.988c1-.876,2.027-1.694,2.949-2.632Z" fill="#2b2b2b"/>
        <path id="Path_21650" data-name="Path 21650" d="M825.411,1894.26a1.117,1.117,0,0,0-.119.4.255.255,0,0,0,.2.223,2.464,2.464,0,0,0,.8-.024,13.815,13.815,0,0,0,1.652-.434,18.492,18.492,0,0,0,3.14-1.268c1.041-.532,2.105-1.01,3.159-1.515.564-.257.954-.462,1.5-.754a6.247,6.247,0,0,1,1.99-.743l1.111-.176.115,1.167a2.581,2.581,0,0,1-.248,1.349,5.594,5.594,0,0,1-.491.847c-.343.479-.712.888-.951,1.221a13.144,13.144,0,0,1-2.416,2.363c-.789.62-1.69,1.278-2.53,1.911l-.32.24a2.591,2.591,0,0,1-.4.272l-.692.354-.627.325-.245.145c-.018.012-.061.043-.029.013l.007-.014a.594.594,0,0,0,.082-.108l.034-.064.057-.141a.964.964,0,0,0,0-.629l-.584-.673a5.928,5.928,0,0,0,2.808.5,16.494,16.494,0,0,0,3.173-.447,14.256,14.256,0,0,0,1.536-.608,7.993,7.993,0,0,1,.877-.3c.274-.073.535-.148.785-.237a4.128,4.128,0,0,0,.685-.319,1.262,1.262,0,0,1,.526-.275.559.559,0,0,1,.618.416,1.657,1.657,0,0,1-.137.956,6.2,6.2,0,0,1-.374.792,3.218,3.218,0,0,0,.053-1.582c-.042-.062-.06-.012-.038-.006,0,.01-.079.089-.174.208a3.607,3.607,0,0,1-.765.6c-.266.163-.538.3-.8.432a7.832,7.832,0,0,0-.693.405,14.794,14.794,0,0,1-1.552.912,14.111,14.111,0,0,1-3.554.983,7.283,7.283,0,0,1-3.942-.429l-.436-.186-.147-.486a1.277,1.277,0,0,1,.011-.724.785.785,0,0,1,.078-.183l.061-.1a1.6,1.6,0,0,1,.137-.186l.077-.081a2.833,2.833,0,0,1,.266-.233c.144-.112.272-.2.4-.281.246-.161.481-.3.714-.436l.672-.367.514-.4,2.343-1.863a11.243,11.243,0,0,0,2.033-1.869c.375-.487.708-.833.966-1.185.281-.307.422-.725.408-.586l1.226.99a30.653,30.653,0,0,0-2.977,1.082c-1.107.37-2.2.764-3.323,1.1a14.45,14.45,0,0,1-3.54.744,9.978,9.978,0,0,1-1.809.051,2.175,2.175,0,0,1-.925-.234.445.445,0,0,1-.22-.467,1.138,1.138,0,0,1,.245-.384" fill="#2b2b2b"/>
        <path id="Path_21651" data-name="Path 21651" d="M814.906,1892.809c-3.409,7.832,6.35,1.156,1.07.216" fill="#ead065"/>
        <path id="Path_21652" data-name="Path 21652" d="M821.056,1906.23c-1.519,2.612,1.2,5.744,3.473,2.839,2-2.549-.742-5.575-3.193-2.952" fill="#ead065"/>
        <path id="Path_21653" data-name="Path 21653" d="M835.343,1917.985c-.351.048-.616.012-.96.088-.551,2.271,2.025,3.46,3,1.042.876-2.175-1.491-3.6-2.943-1.739" fill="#ead065"/>
        <path id="Path_21654" data-name="Path 21654" d="M839.821,1933.706c-1.069,2.035.623,6.454,2.505,3.359,1.157-1.9-1.361-5.415-3.347-3.02" fill="#ead065"/>
        <path id="Path_21655" data-name="Path 21655" d="M852.095,1927.771c-.666,2.478,2.5,3.613,3.2,1.324a1.476,1.476,0,1,0-2.861-.489" fill="#ead065"/>
        <path id="Path_21656" data-name="Path 21656" d="M864.059,1936.244c-.513,5.821,5.748-2.036.561-.227" fill="#ead065"/>
        <path id="Path_21657" data-name="Path 21657" d="M873.854,1924.028c-.062,2.24,2.56,6.082,4.52,3.2,1.58-2.323-1.443-3.582-3.257-2.349" fill="#ead065"/>
        <path id="Path_21658" data-name="Path 21658" d="M880.731,1913.923c-.432,1.531.615,3.731,2.412,2.272,1.854-1.5-.709-4.076-2.412-2.272" fill="#ead065"/>
        <path id="Path_21659" data-name="Path 21659" d="M891.77,1911.034c-.12,2.19.8,3.955,2.935,4.348,1.95-2.413,1.041-5.575-2.309-4.086" fill="#ead065"/>
        <path id="Path_21660" data-name="Path 21660" d="M892.049,1901.8a4.648,4.648,0,0,0,.162,2.09c2.843.626,2.614-3.865-.105-2.82" fill="#ead065"/>
        <path id="Path_21661" data-name="Path 21661" d="M897.973,1892.994c-.878,2.949,3.634,3.673,3.195-.035a4.018,4.018,0,0,0-3.195.035" fill="#ead065"/>
        <path id="Path_21662" data-name="Path 21662" d="M892.352,1883.255c-.98,1.868,1.058,3.582,1.744,1.132.633-2.266-1.825-2.4-2.471-.513" fill="#ead065"/>
        <path id="Path_21663" data-name="Path 21663" d="M894.038,1873.808c-.328,1.65,1.288,2.822,2.663,1.541,2.072-1.932-.448-3.882-2.445-2.6" fill="#ead065"/>
        <path id="Path_21664" data-name="Path 21664" d="M880.1,1864.508c-1.56,5.655,5.221-1.307.281-.112" fill="#ead065"/>
        <path id="Path_21665" data-name="Path 21665" d="M885.4,1857.5c-.1,1.608,1.343,3.964,3.022,2.189,1.892-2-1.787-4.251-2.909-1.91" fill="#ead065"/>
        <path id="Path_21666" data-name="Path 21666" d="M871.781,1854.562c-.4,1.741,2.464,3.284,2.862.632a1.678,1.678,0,0,0-3.09-1.189" fill="#ead065"/>
        <path id="Path_21667" data-name="Path 21667" d="M860.32,1855.3c-.893,1.822,1.3,3.091,2.377,1,1.058-2.048-.625-3.706-2.667-2.507" fill="#ead065"/>
        <path id="Path_21668" data-name="Path 21668" d="M844.834,1850.2a2.567,2.567,0,1,0,4.571,2.333c1.843-3.229-2.208-5.752-4.238-3.114" fill="#ead065"/>
        <path id="Path_21669" data-name="Path 21669" d="M836.035,1863.817c-.223,1.531,1.419,4.79,2.992,2.887,1.607-1.945-1.732-3.132-3.158-2.494" fill="#ead065"/>
        <path id="Path_21670" data-name="Path 21670" d="M824.24,1882.8c-.044,1.6,1.829,4.347,3.23,2.286,1.13-1.659-1.031-2.559-2.327-1.678" fill="#ead065"/>
        <path id="Path_21671" data-name="Path 21671" d="M823.757,1869.16c-.12,2.191.8,3.955,2.935,4.348,1.95-2.413,1.041-5.575-2.309-4.086" fill="#ead065"/>
        <path id="Path_21672" data-name="Path 21672" d="M815.249,1893.647c.1.951.011,1.843.137,2.507a.926.926,0,0,0,.113.354c.046.073.074-.01-.016-.085s-.131-.083-.087-.1a1.359,1.359,0,0,0,.278-.1,3.931,3.931,0,0,0,1.354-1c.109-.152.268-.184.141-.479a3.179,3.179,0,0,0-.849-.882,2.137,2.137,0,0,1,1.523.04,1.551,1.551,0,0,1,.727.722,1.831,1.831,0,0,1,.127,1.074,3.134,3.134,0,0,1-.8,1.569,3.973,3.973,0,0,1-1.358.974,3.109,3.109,0,0,1-.958.239,2.037,2.037,0,0,1-1.318-.375,1.8,1.8,0,0,1-.654-1.164,2.376,2.376,0,0,1,.052-.918,4.485,4.485,0,0,1,1.587-2.379" fill="#2b2b2b"/>
        <path id="Path_21673" data-name="Path 21673" d="M821.494,1907.124a6.205,6.205,0,0,0,.843,2.756c.1.336.4.841.96.774a1.5,1.5,0,0,0,1.093-1.112,3.842,3.842,0,0,0,.112-1.39,1.942,1.942,0,0,0-.4-.831,1.118,1.118,0,0,0-.689-.476,3.728,3.728,0,0,0-1.658.185l-.162-.149a2.527,2.527,0,0,1,1.473-1.728,2.585,2.585,0,0,1,2.732.54,2.948,2.948,0,0,1,.783,2.579,2.981,2.981,0,0,1-1.242,2.008,10.342,10.342,0,0,1-1.859,1.057,2.53,2.53,0,0,1-2.456-.17,2.572,2.572,0,0,1,.275-4.154Z" fill="#2b2b2b"/>
        <path id="Path_21674" data-name="Path 21674" d="M835.7,1918.931c-.311.324-.678.465-.824.652l.524-.51a4.675,4.675,0,0,0,.306.823c.117.17.032.4.175.729a.519.519,0,0,0,.846.113,1.329,1.329,0,0,0,.249-1.069,2.015,2.015,0,0,0-.189-.793c-.108-.166-.2-.2-.254-.316a.689.689,0,0,0-.437-.337,2.377,2.377,0,0,0-1.229.057l-.173-.133a1.856,1.856,0,0,1,.908-1.5,2.242,2.242,0,0,1,2.15-.045,2.315,2.315,0,0,1,1.2,1.838,2.533,2.533,0,0,1-.493,1.825,4.923,4.923,0,0,1-1.334,1.044,3.305,3.305,0,0,1-1.707.441,1.743,1.743,0,0,1-1.576-1.193,2.22,2.22,0,0,1,.209-1.81l.319-.53.2.019a2.036,2.036,0,0,1,1.095.475Z" fill="#2b2b2b"/>
        <path id="Path_21675" data-name="Path 21675" d="M840.262,1934.593c.266,1.249.647,2,.758,2.893.016.426-.016,1,.315,1.126.35.075.706-.44.77-.954a2.692,2.692,0,0,0-.213-1.136,5.071,5.071,0,0,0-.57-.927,2.579,2.579,0,0,0-.548-.649,1.659,1.659,0,0,0-1.365,0l-.17-.139a1.89,1.89,0,0,1,1.512-1.592,2.61,2.61,0,0,1,2.369.862,3.371,3.371,0,0,1,.833,2.112,2.5,2.5,0,0,1-.829,2.11,9.985,9.985,0,0,1-.8.607,2.093,2.093,0,0,1-1.019.408,2.59,2.59,0,0,1-1.985-1.134,2.8,2.8,0,0,1-.339-1.982,2.356,2.356,0,0,1,1.087-1.71Z" fill="#2b2b2b"/>
        <path id="Path_21676" data-name="Path 21676" d="M852.543,1928.637c.578,1.083.966,1.124,1.211,1.513.094.224.365.652.742.6a.655.655,0,0,0,.493-.821,1.151,1.151,0,0,0-.324-.724c-.125-.059-.2.008-.283-.06a.857.857,0,0,0-.456-.194,1.5,1.5,0,0,0-1.039.506l-.219-.028a1.617,1.617,0,0,1,.176-1.829,2.145,2.145,0,0,1,2.1-.73,2.226,2.226,0,0,1,1.683,1.635,1.942,1.942,0,0,1-.53,1.9,4.723,4.723,0,0,1-1.37,1.013,2.545,2.545,0,0,1-1.87.329,1.87,1.87,0,0,1-1.211-1.535,1.687,1.687,0,0,1,.683-1.634Z" fill="#2b2b2b"/>
        <path id="Path_21677" data-name="Path 21677" d="M864.512,1937.09a4.01,4.01,0,0,1,.732.918c.126.26.29.4.151.441-.067.023-.24.084-.236.206s.144.207.272.184a.687.687,0,0,0,.481-.687l.031-.83c0-.1-.033-.167-.065-.143-.042,0-.033.252.15.409.213.158.284.116.28.054a.663.663,0,0,0-.257-.18c-.26-.133-.622-.271-1.05-.505l-.073-.207a2.07,2.07,0,0,1,.889-1,1.692,1.692,0,0,1,.741-.217,1.534,1.534,0,0,1,1.18.441,1.562,1.562,0,0,1,.442,1.328,2.019,2.019,0,0,1-.311.816,1.927,1.927,0,0,1-1.056.835,4.027,4.027,0,0,0-1.088.53,1.977,1.977,0,0,1-.7.374,1.229,1.229,0,0,1-1.075-.275,1.449,1.449,0,0,1-.42-1.439,1.789,1.789,0,0,1,.762-1.071Z" fill="#2b2b2b"/>
        <path id="Path_21678" data-name="Path 21678" d="M874.308,1924.869a14.445,14.445,0,0,1,1.753,2.539c.156.425.269,1.026.693,1.254a.733.733,0,0,0,1.048-.465,4.287,4.287,0,0,0,.29-1.2c-.043-.3-.146-.195-.217-.357a3.252,3.252,0,0,0-2.35-.835l-.124-.181a2.7,2.7,0,0,1,3.99-.777,2.263,2.263,0,0,1,.807,1.252,2.459,2.459,0,0,1-.087,1.423,2.783,2.783,0,0,1-1.519,1.582,2.987,2.987,0,0,1-2.068.224,4.706,4.706,0,0,1-1.917-.8,2.874,2.874,0,0,1-.887-1.723,2.577,2.577,0,0,1,.369-1.942Z" fill="#2b2b2b"/>
        <path id="Path_21679" data-name="Path 21679" d="M881.18,1914.79a13.135,13.135,0,0,1,1.047,1.725.832.832,0,0,0,.04.372.371.371,0,0,0,.386.217.807.807,0,0,0,.423-1.378c-.108-.113-.264-.182-.368-.3-.2-.219-.387-.679-1.552-.594l-.161-.15a1.659,1.659,0,0,1,1.075-1.378,2.25,2.25,0,0,1,2.017.22,2.366,2.366,0,0,1,1.032,1.777,1.821,1.821,0,0,1-.843,1.784c-.544.294-.94.441-1.409.69a2.411,2.411,0,0,1-.88.288,1.639,1.639,0,0,1-1.059-.255,1.859,1.859,0,0,1-.743-1.626,1.78,1.78,0,0,1,.784-1.454Z" fill="#2b2b2b"/>
        <path id="Path_21680" data-name="Path 21680" d="M892.223,1911.878a13.681,13.681,0,0,1,.774,1.284l.55,1a7.451,7.451,0,0,0,.432,1.114,1.293,1.293,0,0,0,1.137.578l-.363.133a3.733,3.733,0,0,0,.247-1.638,2.2,2.2,0,0,0-.194-1.115c-.046-.116-.071-.172-.1-.257a.568.568,0,0,0-.276-.29,5.572,5.572,0,0,0-1.643-.451l-.09-.2a2.61,2.61,0,0,1,1.929-1.176,1.793,1.793,0,0,1,.707.048,2.041,2.041,0,0,1,.722.287,2.328,2.328,0,0,1,.969,1.2,3.334,3.334,0,0,1-.209,2.483,5.485,5.485,0,0,1-1.47,1.581l-.206.191-.158-.057a13.388,13.388,0,0,0-1.56-.462,2.591,2.591,0,0,1-1.562-.96,2.924,2.924,0,0,1-.45-1.7,2.633,2.633,0,0,1,.6-1.6Z" fill="#2b2b2b"/>
        <path id="Path_21681" data-name="Path 21681" d="M892.5,1902.669a6.25,6.25,0,0,1,.726.934,1.136,1.136,0,0,1,.173.9l-.655-.621c.127.129.3.408.5.474a.329.329,0,0,0,.3.012.319.319,0,0,0,.213-.181.637.637,0,0,0-.034-.576l-.191-.388a.906.906,0,0,1-.1-.132.214.214,0,0,1-.087-.081c-.042-.034,0-.084.012-.163.051-.178-.211-.505-.872-.835l-.079-.2a1.559,1.559,0,0,1,2.029-.779,1.854,1.854,0,0,1,1.023.909,2.235,2.235,0,0,1,.179,1.224,1.847,1.847,0,0,1-.471,1.066,2.484,2.484,0,0,1-.944.583,2.908,2.908,0,0,1-.443.172c-.143.065-.28.131-.426.189a3.667,3.667,0,0,1-.992.406l-.073.016-.583-.64a1.355,1.355,0,0,1-.226-1.17,1.658,1.658,0,0,1,.8-1.171Z" fill="#2b2b2b"/>
        <path id="Path_21682" data-name="Path 21682" d="M898.422,1893.862a3.613,3.613,0,0,0,.86,1.144.531.531,0,0,1,.224.3,1.078,1.078,0,0,0,.378.524c.444.3.957-.193.825-.662l-.327-1.244.652.894a4.958,4.958,0,0,1-1.1-.346c-.421-.154-.9-.328-1.573-.545l-.087-.2a2.484,2.484,0,0,1,1.617-1.239,2.631,2.631,0,0,1,2.1.279l.677.432-.025.461a2.806,2.806,0,0,1-.8,2.1,5.775,5.775,0,0,1-1.972,1.014,2.221,2.221,0,0,1-1.27.091,1.635,1.635,0,0,1-.976-.9,1.678,1.678,0,0,1,.584-2.176Z" fill="#2b2b2b"/>
        <path id="Path_21683" data-name="Path 21683" d="M892.792,1884.143c.364,1.018.77,1.2.7,1.4a.547.547,0,0,0-.1.29c0,.134.151.183.271.129.26-.128.3-.548.193-.892a1.515,1.515,0,0,0-.377-.657c-.141-.033,0,.227.051.168.045-.118-.546-.3-1.458.17l-.209-.071a1.843,1.843,0,0,1,1.913-2.429,1.887,1.887,0,0,1,1.7,1.548,1.852,1.852,0,0,1-.451,1.593,13.714,13.714,0,0,0-.879,1.094,1.52,1.52,0,0,1-.759.557,1.407,1.407,0,0,1-1.126-.147,1.6,1.6,0,0,1-.674-1.659,1.5,1.5,0,0,1,1.015-1.19Z" fill="#2b2b2b"/>
        <path id="Path_21684" data-name="Path 21684" d="M894.489,1874.666c.656.968,1.083.882,1.2,1.129a.653.653,0,0,0,.776.378.922.922,0,0,0,.549-.9c-.115-.834-.368-.592-.59-.813a3.042,3.042,0,0,0-1.768-.788l-.12-.184a2.184,2.184,0,0,1,3.044-1.07,2.263,2.263,0,0,1,1.2,1.726,1.807,1.807,0,0,1-.738,1.755c-.46.342-.841.539-1.214.877a2.279,2.279,0,0,1-1.644.776,1.709,1.709,0,0,1-1.448-1.313,1.5,1.5,0,0,1,.529-1.618Z" fill="#2b2b2b"/>
        <path id="Path_21685" data-name="Path 21685" d="M880.55,1865.375a3.112,3.112,0,0,1,.545,1.007c.08.262.169.494.046.543-.062.037-.225-.018-.358.072s-.007.211.1.208c.248,0,.441-.29.477-.612s.051-.615.083-.8c.008-.1-.013-.167-.037-.181-.04,0-.078.13.052.35s.355.256.359.2c.025-.045-.043-.127-.152-.2-.207-.163-.536-.342-.917-.621l-.053-.213a1.877,1.877,0,0,1,.943-.892,1.441,1.441,0,0,1,.781-.108,1.5,1.5,0,0,1,1.109.722,1.576,1.576,0,0,1,.131,1.263,2.148,2.148,0,0,1-.388.685,1.843,1.843,0,0,1-1.079.669,3.66,3.66,0,0,0-1.084.41,1.148,1.148,0,0,1-1.731-.42,1.381,1.381,0,0,1,.015-1.315,1.816,1.816,0,0,1,.943-.823Z" fill="#2b2b2b"/>
        <path id="Path_21686" data-name="Path 21686" d="M885.851,1858.342a13.413,13.413,0,0,1,1.475,1.786,1.5,1.5,0,0,0,.144.41.408.408,0,0,0,.438.179.93.93,0,0,0,.636-.9.841.841,0,0,0-.333-.634c-.135-.114-.339-.189-.51-.307a2.956,2.956,0,0,0-.579-.355,1.482,1.482,0,0,0-1.169.137l-.2-.095a1.641,1.641,0,0,1,.834-1.686,2.418,2.418,0,0,1,2.134-.111,2.547,2.547,0,0,1,1.415,1.621,2.062,2.062,0,0,1,.026,1.154,1.993,1.993,0,0,1-.576.881c-.518.392-.914.635-1.4.946a2.383,2.383,0,0,1-.925.36,1.844,1.844,0,0,1-1.1-.184,2.077,2.077,0,0,1-.992-1.546,2,2,0,0,1,.461-1.672Z" fill="#2b2b2b"/>
        <path id="Path_21687" data-name="Path 21687" d="M872.231,1855.424c.666.846,1.116.7,1.342,1.078.078.2.294.575.6.451a.651.651,0,0,0,.186-.885,2,2,0,0,0-.432-.7c-.137-.1-.218-.034-.3-.11a1.788,1.788,0,0,0-1.64-.354l-.183-.121c-.122-1.184,1.342-2.157,2.681-1.706a2.184,2.184,0,0,1,1.388,1.546,1.948,1.948,0,0,1-.331,1.689,9.272,9.272,0,0,1-.939,1.2,1.986,1.986,0,0,1-1.714.684,1.761,1.761,0,0,1-1.3-1.2,1.4,1.4,0,0,1,.429-1.627Z" fill="#2b2b2b"/>
        <path id="Path_21688" data-name="Path 21688" d="M860.762,1856.185a1.94,1.94,0,0,0,.57.936c.177.124.228.014.23.178a.489.489,0,0,0,.7.285.91.91,0,0,0,.353-.978,3.319,3.319,0,0,0-.308-.843c-.117-.182-.248-.2-.291-.274-.042-.2-.5-.57-1.587-.764l-.112-.189a1.951,1.951,0,0,1,1.166-1.16,2.165,2.165,0,0,1,1.959.246,2.25,2.25,0,0,1,.926,1.821,2.107,2.107,0,0,1-.625,1.6,14.365,14.365,0,0,0-1.013,1.076,2,2,0,0,1-1.6.961,1.65,1.65,0,0,1-1.452-1.508,1.435,1.435,0,0,1,.89-1.479Z" fill="#2b2b2b"/>
        <path id="Path_21689" data-name="Path 21689" d="M845.278,1851.079a3.716,3.716,0,0,0,1.44,2.664,1.572,1.572,0,0,0,1.439.6,1.554,1.554,0,0,0,1.079-1.31,3.471,3.471,0,0,0-.092-1.522,2.248,2.248,0,0,0-.692-.906,2.424,2.424,0,0,0-2.855-.292l-.175-.133a2.492,2.492,0,0,1,1.645-1.847,3.107,3.107,0,0,1,2.781.385,3.231,3.231,0,0,1,1.361,2.5,3.11,3.11,0,0,1-.916,2.4,7.065,7.065,0,0,1-1.886,1.389,3.382,3.382,0,0,1-2.538.358,2.646,2.646,0,0,1-1.677-2.092,2.369,2.369,0,0,1,.883-2.284Z" fill="#2b2b2b"/>
        <path id="Path_21690" data-name="Path 21690" d="M836.486,1864.669a6.966,6.966,0,0,1,1.383,2.065c.06.342.059.858.362,1.012s.6-.179.655-.572c.074-.43-.071-.688-.141-.641-.058.02-.2-.041-.431-.2s-.513-.368-.845-.572a6.015,6.015,0,0,0-1.213-.612l-.09-.2a2.16,2.16,0,0,1,1.505-.9,2.984,2.984,0,0,1,1.777.234,2.379,2.379,0,0,1,1.333,1.8,1.772,1.772,0,0,1-.248,1.2,2.134,2.134,0,0,1-.721.669,2.868,2.868,0,0,1-1.732.49,3.273,3.273,0,0,1-1.733-.675,2.227,2.227,0,0,1-.643-1.511,2.046,2.046,0,0,1,.564-1.614Z" fill="#2b2b2b"/>
        <path id="Path_21691" data-name="Path 21691" d="M824.692,1883.643c.778.714,1.227,1.049,1.429,1.654.057.3.048.787.32.961s.567-.034.6-.367a2.761,2.761,0,0,0,.033-.8c-.091-.148-.138.134-.084.076-.021-.131-.457-.638-1.445-.827l-.125-.181a1.992,1.992,0,0,1,3.086-.786,1.851,1.851,0,0,1,.674,1.055,2.015,2.015,0,0,1-1.349,2.371,2.743,2.743,0,0,1-1.625.126,3.923,3.923,0,0,1-1.543-.509,1.854,1.854,0,0,1-.656-1.306,1.8,1.8,0,0,1,.462-1.474Z" fill="#2b2b2b"/>
        <path id="Path_21692" data-name="Path 21692" d="M824.211,1870a13.39,13.39,0,0,1,.774,1.284l.55,1a7.478,7.478,0,0,0,.433,1.114,1.292,1.292,0,0,0,1.136.579l-.363.133a3.736,3.736,0,0,0,.248-1.638,2.207,2.207,0,0,0-.195-1.115c-.046-.116-.071-.172-.1-.257a.562.562,0,0,0-.276-.29,5.6,5.6,0,0,0-1.643-.451l-.091-.2a2.613,2.613,0,0,1,1.93-1.175,1.823,1.823,0,0,1,.706.047,2.043,2.043,0,0,1,.722.288,2.32,2.32,0,0,1,.969,1.2A3.334,3.334,0,0,1,828.8,1873a5.473,5.473,0,0,1-1.47,1.581l-.206.191-.158-.057a13.608,13.608,0,0,0-1.56-.462,2.588,2.588,0,0,1-1.562-.959,2.923,2.923,0,0,1-.45-1.7,2.63,2.63,0,0,1,.6-1.6Z" fill="#2b2b2b"/>
      </g>
    </g>
  </g>
</svg>
