<svg xmlns="http://www.w3.org/2000/svg" xmlns:xlink="http://www.w3.org/1999/xlink" width="815.237" height="342.32" viewBox="0 0 815.237 342.32">
  <defs>
    <clipPath id="clip-path">
      <rect id="Rectangle_3234" data-name="Rectangle 3234" width="342.32" height="815.237" fill="none"/>
    </clipPath>
  </defs>
  <g id="向量圖智慧型物件" transform="matrix(0, -1, 1, 0, 0, 342.32)" opacity="0.431">
    <g id="Group_698" data-name="Group 698">
      <g id="Group_697" data-name="Group 697" clip-path="url(#clip-path)">
        <path id="Path_18232" data-name="Path 18232" d="M339.19,815.2l-3.5-.229a344.026,344.026,0,0,0-7.433-97.474c-9.051-40.522-24.05-73-31.258-88.609-7.176-15.537-12.794-25.661-17.751-34.594-6.567-11.833-12.239-22.054-19.643-40.95a354.2,354.2,0,0,1-19.517-66.762c-4.544-24.784-4.9-43.545-5.192-58.62-.454-23.7-.753-39.356-16.922-57.879-5.783-6.624-14.521-16.633-30.775-25.287-14.9-7.935-30.242-11.538-42.564-14.434-14.721-3.459-26.348-6.191-29.941-14.575-2.043-4.766-.727-10.539,4.024-17.646,14-20.951,42.531-29.339,72.736-38.22,30.437-8.949,61.91-18.2,85-40.669,8.574-8.342,28.162-30.717,24.883-58.222-4.715-39.545-53.016-64.1-67.709-70.68-17.446-7.818-30.4-9.881-42.931-11.875-12.325-1.963-23.965-3.817-39.245-10.646-29.164-13.036-51.077-35.3-65.129-66.187L89.514.189C103.2,30.272,124.521,51.953,152.884,64.63c14.857,6.641,26.276,8.458,38.365,10.384,12.755,2.031,25.943,4.131,43.814,12.139,15.116,6.773,64.821,32.089,69.753,73.46,3.464,29.054-16.971,52.439-25.917,61.145-23.71,23.07-57.042,32.871-86.451,41.519-29.578,8.7-57.515,16.911-70.811,36.805-3.985,5.962-5.235,10.782-3.716,14.325,2.9,6.759,13.763,9.313,27.521,12.544,12.521,2.942,28.1,6.6,43.41,14.752,16.823,8.956,25.816,19.259,31.767,26.076,17.009,19.483,17.318,35.646,17.785,60.112.286,14.948.643,33.552,5.136,58.056a350.942,350.942,0,0,0,19.331,66.117c7.319,18.679,12.939,28.8,19.445,40.529,4.987,8.985,10.639,19.17,17.869,34.824,7.259,15.719,22.364,48.427,31.5,89.315A347.522,347.522,0,0,1,339.19,815.2" fill="#76a578"/>
        <path id="Path_18233" data-name="Path 18233" d="M341.7,815.176l-3.5-.186a420.366,420.366,0,0,0-6.066-97.564c-7.387-40.552-19.624-73.044-25.5-88.658-5.854-15.543-10.437-25.671-14.48-34.605a328.178,328.178,0,0,1-16.01-40.928,415.828,415.828,0,0,1-15.9-66.713c-3.7-24.759-3.995-43.507-4.23-58.57-.371-23.754-.617-39.448-13.829-58.008-4.708-6.613-11.822-16.607-25.032-25.231-12.1-7.9-24.566-11.49-34.584-14.377-12.1-3.485-21.654-6.238-24.6-14.664-1.632-4.673-.563-10.365,3.272-17.4,11.45-21.006,34.778-29.417,59.476-38.322,24.77-8.93,50.382-18.166,69.159-40.571,7-8.354,23-30.769,20.315-58.39-1.7-17.486-10.506-34.07-26.17-49.291a138.74,138.74,0,0,0-28.981-21.415c-14.161-7.781-24.685-9.836-34.863-11.823-9.648-1.884-19.625-3.832-32.153-10.7C164.181,54.7,146.284,32.411,134.824,1.521L138.109.305c11.159,30.076,28.518,51.74,51.6,64.388,12.049,6.6,21.322,8.414,31.14,10.331,10.441,2.039,21.239,4.147,35.878,12.192,12.345,6.783,52.933,32.124,56.95,73.434,2.813,28.939-13.829,52.283-21.114,60.977-19.385,23.13-46.624,32.951-70.657,41.616-24.054,8.673-46.774,16.866-57.588,36.7-3.288,6.033-4.311,10.935-3.041,14.572,2.348,6.717,10.7,9.123,22.262,12.454,10.242,2.951,22.99,6.623,35.53,14.809,13.765,8.986,21.109,19.3,25.97,26.132,13.844,19.447,14.1,35.573,14.476,59.983.234,14.959.525,33.578,4.193,58.106a412.488,412.488,0,0,0,15.776,66.166,325.348,325.348,0,0,0,15.865,40.551c4.066,8.983,8.674,19.166,14.568,34.814,5.917,15.71,18.229,48.4,25.672,89.264a423.825,423.825,0,0,1,6.118,98.377" fill="#76a578"/>
        <path id="Path_18234" data-name="Path 18234" d="M341.836,815.157l-3.5-.146a534.9,534.9,0,0,0-4.759-97.651c-5.794-40.573-15.393-73.088-20.005-88.713-4.591-15.55-8.184-25.681-11.355-34.618a386.365,386.365,0,0,1-12.543-40.9,512.651,512.651,0,0,1-12.457-66.661,521.341,521.341,0,0,1-3.313-58.52c-.291-23.815-.484-39.549-10.872-58.165-3.687-6.607-9.259-16.592-19.582-25.189-9.424-7.849-19.149-11.423-26.964-14.295-9.576-3.519-17.139-6.3-19.451-14.74-1.254-4.577-.419-10.182,2.553-17.136,8.991-21.042,27.337-29.481,46.759-38.415,19.363-8.906,39.387-18.116,54.068-40.464,5.5-8.374,18.07-30.846,15.954-58.59-3.025-39.693-33.827-64.2-43.2-70.77-11.021-7.726-19.217-9.768-27.144-11.742-7.614-1.9-15.489-3.858-25.387-10.779C201.92,54.571,187.874,32.278,178.893,1.4l3.366-.977c8.751,30.09,22.341,51.747,40.393,64.369,9.366,6.549,16.585,8.347,24.226,10.25,8.237,2.053,16.754,4.173,28.309,12.273,9.686,6.79,41.535,32.147,44.677,73.37,2.2,28.818-10.821,52.1-16.52,60.778-15.233,23.186-36.642,33.035-55.532,41.723C228.2,272.206,211.27,280,202.81,299.8c-2.612,6.114-3.418,11.1-2.4,14.837,1.836,6.7,8.315,9.083,17.282,12.378,8.067,2.966,18.108,6.656,28,14.891,10.822,9.013,16.585,19.34,20.4,26.174,10.82,19.39,11.017,35.477,11.316,59.826a518.291,518.291,0,0,0,3.29,58.156,509.1,509.1,0,0,0,12.376,66.218,383.038,383.038,0,0,0,12.446,40.582c3.185,8.979,6.8,19.157,11.413,34.8,4.637,15.7,14.283,48.384,20.112,89.209a538.318,538.318,0,0,1,4.792,98.291" fill="#76a578"/>
        <path id="Path_18235" data-name="Path 18235" d="M341.929,815.143l-3.5-.119a659.269,659.269,0,0,0-3.859-97.71,734.225,734.225,0,0,0-16.213-88.756c-3.72-15.556-6.633-25.69-9.2-34.629-3.4-11.816-6.33-22.021-10.155-40.878a620.582,620.582,0,0,1-10.086-66.622c-2.348-24.718-2.533-43.442-2.682-58.487-.236-23.861-.392-39.624-8.832-58.292-2.989-6.609-7.5-16.6-15.854-25.182-7.593-7.805-15.1-11.213-21.73-14.219-7.51-3.407-14-6.35-15.865-14.774-1-4.507-.326-10.047,2.058-16.938,7.285-21.046,22.185-29.505,37.96-38.462,15.651-8.886,31.834-18.075,43.713-40.394,4.467-8.392,14.672-30.918,12.953-58.753-2.456-39.776-27.4-64.289-34.992-70.855-8.866-7.671-15.457-9.7-21.829-11.657-6.217-1.912-12.645-3.888-20.727-10.864C227.9,54.45,216.52,32.165,209.251,1.314l3.412-.8c7.1,30.117,18.1,51.781,32.712,64.391C252.9,71.4,258.7,73.181,264.841,75.068c6.72,2.067,13.67,4.2,23.093,12.357,7.849,6.792,33.656,32.149,36.2,73.286,1.774,28.725-8.75,51.957-13.355,60.613-12.357,23.216-29.74,33.085-45.076,41.793-15.843,9-29.526,16.765-36.379,36.563-2.137,6.175-2.793,11.233-1.949,15.035,1.491,6.718,6.425,8.956,13.893,12.344,6.567,2.979,14.741,6.687,22.795,14.967,8.779,9.025,13.446,19.348,16.534,26.181,8.743,19.338,8.9,35.394,9.143,59.7.148,14.978.333,33.619,2.666,58.189a617.3,617.3,0,0,0,10.032,66.258c3.8,18.721,6.713,28.864,10.089,40.608,2.58,8.976,5.5,19.149,9.242,34.782a737.169,737.169,0,0,1,16.286,89.167,662.755,662.755,0,0,1,3.88,98.231" fill="#76a578"/>
        <path id="Path_18236" data-name="Path 18236" d="M342.023,815.129l-3.5-.09a867.587,867.587,0,0,0-2.932-97.772c-3.568-40.629-9.477-73.166-12.317-88.8-2.826-15.566-5.038-25.7-6.99-34.649-2.577-11.808-4.8-22-7.7-40.846-1.6-10.416-5.362-34.806-7.654-66.58-1.781-24.7-1.921-43.414-2.034-58.451-.18-23.91-.3-39.707-6.729-58.441-2.273-6.619-5.706-16.621-12.049-25.21-5.732-7.76-11.4-11.144-16.393-14.13-5.751-3.436-10.717-6.4-12.127-14.771-.746-4.43-.238-9.9,1.555-16.722,5.523-21.013,16.862-29.492,28.867-38.469,11.856-8.866,24.116-18.034,33.134-40.348a144.878,144.878,0,0,0,9.862-58.945c-1.87-39.892-20.827-64.429-26.593-71-6.67-7.6-11.394-9.515-16.4-11.539-4.778-1.936-9.718-3.936-15.916-10.982-11.524-13.1-20.161-35.359-25.672-66.161L243.88.606c5.4,30.164,13.76,51.854,24.855,64.466,5.651,6.424,10,8.185,14.6,10.049,5.16,2.09,10.5,4.25,17.714,12.475,5.954,6.786,25.535,32.116,27.458,73.143a148.491,148.491,0,0,1-10.113,60.42c-9.383,23.22-22.612,33.112-34.282,41.839-12,8.974-22.366,16.725-27.578,36.556-1.64,6.244-2.142,11.375-1.489,15.251,1.142,6.774,4.853,8.991,10.47,12.347,5.019,3,11.265,6.731,17.414,15.056,6.663,9.022,10.2,19.331,12.543,26.152,6.616,19.274,6.736,35.3,6.919,59.551.112,14.986.252,33.637,2.025,58.225,2.282,31.634,6.024,55.926,7.622,66.3,2.887,18.734,5.1,28.883,7.664,40.633,1.959,8.974,4.178,19.144,7.016,34.77,2.849,15.687,8.778,48.331,12.36,89.12a871.089,871.089,0,0,1,2.944,98.169" fill="#76a578"/>
        <path id="Path_18237" data-name="Path 18237" d="M342.123,815.114l-3.5-.061c.566-33.082-.091-66-1.95-97.838-2.374-40.645-6.306-73.206-8.195-88.853-1.881-15.576-3.353-25.72-4.652-34.669-1.712-11.8-3.191-21.988-5.119-40.812-1.066-10.4-3.563-34.766-5.087-66.534-1.183-24.681-1.277-43.384-1.352-58.412-.12-23.967-.2-39.8-4.494-58.616-1.517-6.643-3.808-16.679-8.042-25.3a40.99,40.99,0,0,0-10.839-14.063c-3.842-3.452-7.16-6.434-8.083-14.666-.487-4.349-.151-9.741,1.027-16.482,3.654-20.912,11.2-29.394,19.184-38.373,7.878-8.858,16.022-18.018,22.034-40.385a211.447,211.447,0,0,0,6.583-59.176c-1.248-40.046-13.891-64.655-17.734-71.242-4.4-7.53-7.477-9.408-10.74-11.394-3.237-1.972-6.585-4.01-10.748-11.126-7.643-13.066-13.372-35.268-17.028-65.991l3.479-.413c3.6,30.243,9.174,51.99,16.574,64.637,3.716,6.354,6.548,8.078,9.546,9.9,3.492,2.127,7.1,4.325,11.943,12.62,3.95,6.768,16.935,32.028,18.21,72.9a215.086,215.086,0,0,1-6.7,60.191c-6.226,23.167-15.03,33.067-22.8,41.8-7.979,8.971-14.869,16.72-18.352,36.652-1.12,6.409-1.447,11.476-1,15.49.775,6.909,3.229,9.114,6.943,12.452a44.559,44.559,0,0,1,11.642,15.123c4.414,8.986,6.76,19.261,8.312,26.06,4.381,19.194,4.461,35.181,4.583,59.379.074,15,.168,33.657,1.348,58.262,1.52,31.674,4.009,55.97,5.072,66.346,1.921,18.751,3.4,28.907,5.1,40.666,1.3,8.969,2.776,19.134,4.662,34.751,1.894,15.683,5.835,48.317,8.215,89.07,1.865,31.925,2.523,64.931,1.956,98.1" fill="#76a578"/>
        <path id="Path_18238" data-name="Path 18238" d="M342.2,815.1l-3.5-.037c.348-33.1-.056-66.036-1.2-97.889-1.46-40.645-3.88-73.234-5.043-88.9-1.157-15.58-2.062-25.727-2.862-34.678-1.052-11.793-1.961-21.977-3.147-40.79-.656-10.4-2.191-34.758-3.127-66.5-.728-24.666-.786-43.361-.832-58.383-.074-24.011-.122-39.874-2.773-58.759-.937-6.673-2.353-16.746-4.973-25.419a44.079,44.079,0,0,0-6.683-14.111c-2.441-3.565-4.368-6.381-4.923-14.427a95.2,95.2,0,0,1,.629-16.293c2.233-20.769,6.855-29.219,11.749-38.165,4.858-8.881,9.882-18.065,13.6-40.539a339.024,339.024,0,0,0,4.063-59.364c-.771-40.2-8.578-64.9-10.953-71.513-2.706-7.54-4.578-9.394-6.56-11.355-2.015-2-4.1-4.058-6.657-11.166-4.68-13.006-8.19-35.137-10.433-65.778l3.5-.255c2.219,30.324,5.663,52.143,10.235,64.849C314.585,72,316.3,73.7,318.122,75.5c2.172,2.151,4.417,4.373,7.392,12.659,2.42,6.741,10.377,31.9,11.158,72.628a342.738,342.738,0,0,1-4.109,60c-3.812,23.061-9.213,32.936-13.979,41.648-4.927,9.006-9.182,16.785-11.34,36.86a91.961,91.961,0,0,0-.617,15.679c.489,7.1,2.1,9.443,4.319,12.69a47.7,47.7,0,0,1,7.146,15.076c2.7,8.93,4.136,19.164,5.086,25.936,2.686,19.129,2.735,35.088,2.809,59.242.046,15,.1,33.67.83,58.29.934,31.683,2.467,56,3.122,66.382,1.182,18.767,2.09,28.931,3.141,40.7.8,8.964,1.707,19.124,2.865,34.73,1.164,15.682,3.588,48.316,5.051,89.029,1.146,31.906,1.551,64.9,1.2,98.051" fill="#76a578"/>
        <path id="Path_18239" data-name="Path 18239" d="M338.926,815.237l-3.49-.307a258.17,258.17,0,0,0-9.984-97.315c-12.162-40.478-32.33-72.941-42.022-88.541-9.65-15.532-17.208-25.655-23.875-34.584-8.84-11.838-16.473-22.062-26.44-40.972-5.509-10.451-18.409-34.926-26.282-66.836-6.125-24.828-6.609-43.616-7-58.712-.63-24.453-1.01-39.212-22.732-57.708a135.73,135.73,0,0,0-41.578-25.386c-20.155-7.977-40.855-11.592-57.488-14.5-20.374-3.558-35.094-6.129-39.869-14.41-2.836-4.92-1.062-10.818,5.423-18.029,18.741-20.843,56.991-29.2,97.487-38.053,41.047-8.971,83.491-18.249,114.672-40.8,11.523-8.334,37.851-30.668,33.469-57.988-6.334-39.486-71.475-64.087-91.289-70.687-23.585-7.856-41.082-9.927-58-11.929-16.514-1.955-32.112-3.8-52.552-10.592C48.276,54.9,18.879,32.672,0,1.826L2.99,0c18.435,30.121,47.2,51.844,85.492,64.567,20.1,6.678,35.528,8.5,51.859,10.437,17.1,2.024,34.772,4.116,58.7,12.085,20.286,6.757,87,32.023,93.641,73.454,4.69,29.239-22.827,52.663-34.874,61.378-31.774,22.981-74.581,32.338-115.979,41.386C101.9,272.034,64.182,280.277,46.2,300.28c-5.268,5.859-6.947,10.549-4.992,13.943,3.956,6.861,18.731,9.442,37.436,12.708,16.79,2.932,37.685,6.581,58.175,14.69A138.923,138.923,0,0,1,179.378,367.6c22.912,19.51,23.329,35.731,23.962,60.283.383,14.927.862,33.505,6.9,57.964,7.77,31.5,20.532,55.705,25.98,66.043,9.84,18.668,17.4,28.79,26.148,40.51,6.71,8.986,14.315,19.172,24.043,34.832,9.772,15.729,30.105,48.458,42.4,89.381a261.634,261.634,0,0,1,10.117,98.628" fill="#76a578"/>
      </g>
    </g>
  </g>
</svg>
