<svg xmlns="http://www.w3.org/2000/svg" xmlns:xlink="http://www.w3.org/1999/xlink" width="337" height="173" viewBox="0 0 337 173">
  <defs>
    <clipPath id="clip-path">
      <rect id="Rectangle_3324" data-name="Rectangle 3324" width="337" height="173" fill="none"/>
    </clipPath>
  </defs>
  <g id="向量圖智慧型物件" transform="translate(-53 -2316)">
    <g id="向量圖智慧型物件-2" data-name="向量圖智慧型物件" transform="translate(53 2316)">
      <g id="Group_758" data-name="Group 758">
        <g id="Group_757" data-name="Group 757" clip-path="url(#clip-path)">
          <path id="Path_21820" data-name="Path 21820" d="M337,31.827c-15.2,0-22.778-6.96-30.1-13.691-6.779-6.229-13.183-12.114-26.061-12.114s-19.282,5.884-26.061,12.114c-7.325,6.731-14.9,13.691-30.1,13.691s-22.778-6.96-30.1-13.691c-6.78-6.229-13.184-12.114-26.062-12.114s-19.284,5.884-26.064,12.114c-7.325,6.731-14.9,13.691-30.1,13.691s-22.78-6.96-30.105-13.691C75.453,11.906,69.05,6.022,56.17,6.022S36.885,11.906,30.105,18.136C22.779,24.867,15.2,31.827,0,31.827V25.8c12.88,0,19.284-5.884,26.064-12.114C33.39,6.959,40.965,0,56.17,0s22.779,6.96,30.1,13.691C93.055,19.919,99.459,25.8,112.34,25.8S131.622,19.919,138.4,13.69C145.728,6.959,153.3,0,168.507,0s22.778,6.96,30.1,13.691c6.78,6.229,13.184,12.114,26.063,12.114s19.282-5.884,26.06-12.114C258.058,6.959,265.632,0,280.835,0s22.777,6.96,30.1,13.691C317.717,19.919,324.121,25.8,337,25.8Z" fill="#f7e2c4"/>
          <path id="Path_21821" data-name="Path 21821" d="M337,173c-15.2,0-22.778-6.96-30.1-13.691-6.779-6.229-13.183-12.113-26.061-12.113s-19.282,5.883-26.061,12.113c-7.325,6.731-14.9,13.691-30.1,13.691s-22.778-6.96-30.1-13.691c-6.78-6.229-13.184-12.113-26.062-12.113s-19.284,5.884-26.064,12.113c-7.325,6.731-14.9,13.691-30.1,13.691s-22.78-6.96-30.105-13.691C75.453,153.08,69.05,147.2,56.17,147.2s-19.284,5.884-26.064,12.113C22.779,166.04,15.2,173,0,173v-6.023c12.88,0,19.284-5.884,26.064-12.114,7.325-6.73,14.9-13.69,30.105-13.69s22.779,6.96,30.1,13.69c6.781,6.229,13.185,12.114,26.065,12.114s19.283-5.884,26.063-12.114c7.325-6.73,14.9-13.69,30.1-13.69s22.778,6.96,30.1,13.69c6.78,6.229,13.184,12.114,26.063,12.114s19.282-5.883,26.06-12.114c7.325-6.73,14.9-13.69,30.1-13.69s22.777,6.96,30.1,13.69c6.779,6.229,13.183,12.114,26.062,12.114Z" fill="#f7e2c4"/>
          <path id="Path_21822" data-name="Path 21822" d="M337,137.707c-15.2,0-22.778-6.96-30.1-13.691-6.779-6.229-13.183-12.113-26.061-12.113s-19.282,5.884-26.061,12.113c-7.325,6.731-14.9,13.691-30.1,13.691s-22.778-6.96-30.1-13.691c-6.78-6.229-13.184-12.113-26.062-12.113s-19.284,5.884-26.064,12.113c-7.325,6.731-14.9,13.691-30.1,13.691s-22.78-6.96-30.105-13.691C75.453,117.786,69.05,111.9,56.17,111.9s-19.284,5.884-26.064,12.113C22.779,130.747,15.2,137.707,0,137.707v-6.023c12.88,0,19.284-5.884,26.064-12.114,7.325-6.73,14.9-13.69,30.105-13.69s22.779,6.96,30.1,13.69c6.781,6.229,13.185,12.114,26.065,12.114S131.622,125.8,138.4,119.57c7.325-6.73,14.9-13.69,30.1-13.69s22.778,6.96,30.1,13.69c6.78,6.229,13.184,12.114,26.063,12.114s19.282-5.883,26.06-12.114c7.325-6.73,14.9-13.69,30.1-13.69s22.777,6.96,30.1,13.69c6.779,6.229,13.183,12.114,26.062,12.114Z" fill="#f7e2c4"/>
          <path id="Path_21823" data-name="Path 21823" d="M337,102.413c-15.2,0-22.778-6.96-30.1-13.691-6.779-6.229-13.183-12.114-26.061-12.114s-19.282,5.884-26.061,12.114c-7.325,6.731-14.9,13.691-30.1,13.691s-22.778-6.96-30.1-13.691c-6.78-6.229-13.184-12.114-26.062-12.114s-19.284,5.884-26.064,12.114c-7.325,6.731-14.9,13.691-30.1,13.691s-22.78-6.96-30.105-13.691C75.453,82.493,69.05,76.609,56.17,76.609S36.885,82.493,30.105,88.722C22.779,95.453,15.2,102.413,0,102.413V96.39c12.88,0,19.284-5.884,26.064-12.114,7.325-6.731,14.9-13.691,30.105-13.691s22.779,6.96,30.1,13.691C93.055,90.506,99.459,96.39,112.34,96.39s19.283-5.884,26.063-12.114c7.325-6.731,14.9-13.691,30.1-13.691s22.778,6.96,30.1,13.691c6.78,6.229,13.184,12.114,26.063,12.114s19.282-5.884,26.06-12.114c7.325-6.731,14.9-13.691,30.1-13.691s22.777,6.96,30.1,13.691C317.717,90.506,324.121,96.39,337,96.39Z" fill="#f7e2c4"/>
          <path id="Path_21824" data-name="Path 21824" d="M337,67.12c-15.2,0-22.778-6.96-30.1-13.691-6.779-6.229-13.183-12.114-26.061-12.114S261.554,47.2,254.774,53.429c-7.325,6.731-14.9,13.691-30.1,13.691s-22.778-6.96-30.1-13.691c-6.78-6.229-13.184-12.114-26.062-12.114S149.223,47.2,142.443,53.429c-7.325,6.731-14.9,13.691-30.1,13.691S89.56,60.16,82.234,53.429C75.453,47.2,69.05,41.315,56.17,41.315S36.885,47.2,30.105,53.429C22.779,60.16,15.2,67.12,0,67.12V61.1c12.88,0,19.284-5.884,26.064-12.114,7.325-6.731,14.9-13.691,30.105-13.691s22.779,6.96,30.1,13.691C93.055,55.213,99.459,61.1,112.34,61.1s19.283-5.884,26.063-12.114c7.325-6.731,14.9-13.691,30.1-13.691s22.778,6.96,30.1,13.691c6.78,6.229,13.184,12.114,26.063,12.114s19.282-5.884,26.06-12.114c7.325-6.731,14.9-13.691,30.1-13.691s22.777,6.96,30.1,13.691C317.717,55.213,324.121,61.1,337,61.1Z" fill="#f7e2c4"/>
        </g>
      </g>
    </g>
    <path id="Color_Overlay" data-name="Color Overlay" d="M359.9,2475.309c-6.78-6.229-13.183-12.113-26.061-12.113s-19.282,5.884-26.06,12.113c-7.326,6.731-14.9,13.691-30.1,13.691s-22.778-6.96-30.1-13.691c-6.781-6.229-13.184-12.113-26.062-12.113s-19.283,5.884-26.064,12.113c-7.325,6.731-14.9,13.691-30.1,13.691s-22.78-6.96-30.106-13.691c-6.781-6.229-13.184-12.113-26.064-12.113s-19.284,5.884-26.065,12.113C75.779,2482.04,68.2,2489,53,2489v-6.023c12.88,0,19.284-5.884,26.065-12.114,7.325-6.73,14.9-13.69,30.105-13.69s22.779,6.96,30.1,13.69c6.781,6.23,13.185,12.114,26.066,12.114s19.283-5.884,26.062-12.114c7.326-6.73,14.9-13.69,30.105-13.69s22.777,6.96,30.1,13.69c6.781,6.23,13.184,12.114,26.063,12.114s19.282-5.883,26.06-12.114c7.325-6.73,14.9-13.69,30.1-13.69s22.778,6.96,30.1,13.69c6.779,6.23,13.182,12.114,26.061,12.114V2489C374.8,2489,367.222,2482.04,359.9,2475.309Zm0-35.293c-6.78-6.229-13.183-12.112-26.061-12.112s-19.282,5.883-26.06,12.112c-7.326,6.731-14.9,13.691-30.1,13.691s-22.778-6.96-30.1-13.691c-6.781-6.229-13.184-12.112-26.062-12.112s-19.283,5.884-26.064,12.112c-7.325,6.731-14.9,13.691-30.1,13.691s-22.78-6.96-30.106-13.691c-6.781-6.229-13.184-12.112-26.064-12.112s-19.284,5.884-26.065,12.112c-7.326,6.731-14.9,13.691-30.1,13.691v-6.023c12.88,0,19.284-5.884,26.065-12.113,7.325-6.73,14.9-13.691,30.105-13.691s22.779,6.96,30.1,13.691c6.781,6.229,13.185,12.113,26.066,12.113s19.283-5.884,26.062-12.113c7.326-6.73,14.9-13.691,30.105-13.691s22.777,6.96,30.1,13.691c6.781,6.229,13.184,12.113,26.063,12.113s19.282-5.883,26.06-12.113c7.325-6.73,14.9-13.691,30.1-13.691s22.778,6.96,30.1,13.691c6.779,6.229,13.182,12.113,26.061,12.113v6.023C374.8,2453.706,367.222,2446.746,359.9,2440.015Zm0-35.294c-6.78-6.229-13.183-12.113-26.061-12.113s-19.282,5.884-26.06,12.113c-7.326,6.731-14.9,13.692-30.1,13.692s-22.778-6.961-30.1-13.692c-6.781-6.229-13.184-12.113-26.062-12.113s-19.283,5.884-26.064,12.113c-7.325,6.731-14.9,13.692-30.1,13.692s-22.78-6.961-30.106-13.692c-6.781-6.229-13.184-12.113-26.064-12.113s-19.284,5.884-26.065,12.113c-7.326,6.731-14.9,13.692-30.1,13.692v-6.023c12.88,0,19.284-5.885,26.065-12.114,7.325-6.731,14.9-13.691,30.105-13.691s22.779,6.96,30.1,13.691c6.781,6.229,13.185,12.114,26.066,12.114s19.283-5.885,26.062-12.114c7.326-6.731,14.9-13.691,30.105-13.691s22.777,6.96,30.1,13.691c6.781,6.229,13.184,12.114,26.063,12.114s19.282-5.885,26.06-12.114c7.325-6.731,14.9-13.691,30.1-13.691s22.778,6.96,30.1,13.691c6.779,6.229,13.182,12.114,26.061,12.114v6.023C374.8,2418.414,367.222,2411.453,359.9,2404.722Zm0-35.292c-6.78-6.23-13.183-12.114-26.061-12.114s-19.282,5.884-26.06,12.114c-7.326,6.731-14.9,13.691-30.1,13.691s-22.778-6.96-30.1-13.691c-6.781-6.23-13.184-12.114-26.062-12.114s-19.283,5.884-26.064,12.114c-7.325,6.731-14.9,13.691-30.1,13.691s-22.78-6.96-30.106-13.691c-6.781-6.23-13.184-12.114-26.064-12.114s-19.284,5.884-26.065,12.114c-7.326,6.731-14.9,13.691-30.1,13.691V2377.1c12.88,0,19.284-5.884,26.065-12.114,7.325-6.731,14.9-13.691,30.105-13.691s22.779,6.96,30.1,13.691c6.781,6.23,13.185,12.114,26.066,12.114s19.283-5.884,26.062-12.114c7.326-6.731,14.9-13.691,30.105-13.691s22.777,6.96,30.1,13.691c6.781,6.23,13.184,12.114,26.063,12.114s19.282-5.884,26.06-12.114c7.325-6.731,14.9-13.691,30.1-13.691s22.778,6.96,30.1,13.691c6.779,6.23,13.182,12.114,26.061,12.114v6.023C374.8,2383.12,367.222,2376.16,359.9,2369.429Zm0-35.293c-6.78-6.23-13.183-12.114-26.061-12.114s-19.282,5.884-26.06,12.114c-7.326,6.731-14.9,13.691-30.1,13.691s-22.778-6.96-30.1-13.691c-6.781-6.23-13.184-12.114-26.062-12.114s-19.283,5.884-26.064,12.114c-7.325,6.731-14.9,13.691-30.1,13.691s-22.78-6.96-30.106-13.691c-6.781-6.23-13.184-12.114-26.064-12.114s-19.284,5.884-26.065,12.114c-7.326,6.731-14.9,13.691-30.1,13.691V2341.8c12.88,0,19.284-5.884,26.065-12.114,7.279-6.689,14.8-13.6,29.819-13.69h.572c15.013.086,22.539,7,29.818,13.69,6.781,6.23,13.185,12.114,26.066,12.114s19.283-5.884,26.062-12.114c7.28-6.689,14.8-13.6,29.819-13.69h.572c15.012.086,22.537,7,29.816,13.69,6.781,6.23,13.184,12.114,26.063,12.114s19.282-5.884,26.06-12.114c7.279-6.689,14.8-13.6,29.816-13.69h.572c15.013.086,22.538,7,29.817,13.69,6.779,6.23,13.182,12.114,26.061,12.114v6.023C374.8,2347.826,367.222,2340.867,359.9,2334.136Z" fill="#f7e2c4"/>
  </g>
</svg>
