<svg id="向量圖智慧型物件" xmlns="http://www.w3.org/2000/svg" xmlns:xlink="http://www.w3.org/1999/xlink" width="229" height="193" viewBox="0 0 229 193">
  <defs>
    <clipPath id="clip-path">
      <rect id="Rectangle_3243" data-name="Rectangle 3243" width="229" height="193" fill="none"/>
    </clipPath>
  </defs>
  <g id="Group_720" data-name="Group 720">
    <g id="Group_719" data-name="Group 719" clip-path="url(#clip-path)">
      <path id="Path_21560" data-name="Path 21560" d="M223.349,103.895c-4.512-4.388-9.423-3.759-18.537-10.24a11.316,11.316,0,0,1-4.283-5.1,11.789,11.789,0,0,1,.029-7.577c2.066-7.495-10.918-31.448-33.831-46.988-19.1-12.955-40.091-16.662-53.579-16.243a212.612,212.612,0,0,0-28.819,3.54c-6.622,1.244-9.934,1.866-11.771,2.541-23.265,8.553-35.9,44.449-27.964,53.684,1.057,1.231,1.528,3.222,2.719,4.547,2.953,3.285,7.382,5.98,10.686,8.847,7.34,6.372,10.779,13.333,9.206,23.725l.549,4.718-1.024-3.2c-.769,5.82-.82,10.94-6.84,12.88-2.682.865-5.138,1.28-6.058,4.315-.7,2.32-.2,4.169,1.02,5.122,1.364,1.067,3.519.416,4.514.151a24.234,24.234,0,0,1,7.98-.642c1.213.491,3.952.669,8.8,1.907,3.095.789,3.939,1.218,5.308.768,1.116-.367,2.025-1.134,4.38-4.766,2.516-3.882,2.783-5.017,4.158-6.99a23.8,23.8,0,0,1,6.358-5.983c6.6-4.955,7.226-15.466,9.841-22.877,5.163-14.627,20.537-24.156,31.353-27.121,8.86-2.43,17.36-1.2,23.731.588a28.169,28.169,0,0,0-8.516.139,32.041,32.041,0,0,0-9.382,3.37c-2.865,1.513-6.966,3.68-9.96,7.883-5.363,7.53-3.613,16.61-3.4,17.628,1.4,6.723,5.787,11.825,11.334,18.276,3.84,4.467,7.333,7.576,6.507,8.921-.557.906-2.589.218-10.048.473-2.576.089-3.854.221-5.051,1.142-1.644,1.262-2.205,3.291-2.611,4.753-.574,2.072-.928,3.256-.358,4.22.413.7,1.466,1.676,10.744,1.6,4.893-.039,5.021-.315,8.961-.2,2.265.066,3.587.2,6.111.119.506-.014,2.82-.092,5.626-.453,7.584-.978,11.377-1.466,14.076-3.672,2.938-2.4,5.426-6.833,6.7-10.43.548-1.543.677-2.381,1.556-3.051,3.468-2.647,12.968,1.629,13.064,5.481.039,1.6-2.738,3.8-8.29,8.219a22.924,22.924,0,0,1-2.933,2.257c-13.834,5.14-25.171,8.792-32.722,11.114-10.3,3.168-31.279,9.306-50.56,21.273-4.493,2.788-10.136,6.664-9.977,11.666a9.058,9.058,0,0,0,6.428,7.972c2.328.566,3.793-.461,10.3-3.84,3.7-1.923,7.615-3.787,15.437-7.519,7.532-3.59,9.378-4.144,10.227-4.384a41.19,41.19,0,0,1,12.568-1.47c7.361.084,17-4.713,36.289-14.308,23.6-11.743,20.163-12.869,31.766-18.441a23.748,23.748,0,0,0,9.154-7.156,23.358,23.358,0,0,0,3.7-7.758c1.757-6.5,1.666-17.27-4.672-23.436" fill="#e2a460"/>
      <path id="Path_21561" data-name="Path 21561" d="M105.076,101.322c1.739-11.84.52-14.058,2.413-18.131,5.027-10.824,22.2-12.412,28.685-13.082,16.4-1.7,30.291,3.575,30.216,3.994-.045.246-4.864-1.4-11.231-.935-8.415.619-25.3,5.362-29.218,19.873-2.836,10.507,2.078,22.61,12.3,30.009a67.378,67.378,0,0,1-16.528.23,68.337,68.337,0,0,1-20.095-5.411,139.722,139.722,0,0,0,3.458-16.547" fill="#3f5146"/>
      <path id="Path_21562" data-name="Path 21562" d="M71.5,14.261c.406-1.407.965-2.991.226-4.256-.234-.4-.582-.725-.814-1.126a2.438,2.438,0,0,1,1.375-3.405,7.322,7.322,0,0,0-5.041-1.528,21.767,21.767,0,0,0-5.267,1.079q-2.216.647-4.429,1.3A34.172,34.172,0,0,0,46.025,4.66l-1.989-.911A19.1,19.1,0,0,0,39.868,2.22a13.511,13.511,0,0,0-3.82-.131A23.463,23.463,0,0,0,23.45,7.2c-2.764.657-5.167,1.388-7.15,2.065a12.915,12.915,0,0,0-4.585-3.249,8.776,8.776,0,0,0-4.033-.832,6.222,6.222,0,0,0-5.6,6.134c.1,3.988,4.054,7.084,4.193,11.071L4.533,27.251C3,35.53,1.711,44.973,6.627,51.692a28.124,28.124,0,0,0,6.948,6.144c4.514,3.143,9.277,6.365,11.956,11.3,1.918,3.53,1.718,4.657,4.024,6.786.508.47,5.282,4.762,9.344,2.877a6.626,6.626,0,0,0,3.12-3.5c1.185-.932,2.57-2.06,4.094-3.381l-1.165,2.04a14.593,14.593,0,0,0,2.176-2.926c2.14-1.9,4.514-4.147,6.994-6.761,1.547-1.63,3.032-3.194,4.44-4.718A37.033,37.033,0,0,0,70.165,48.464c2.666-4.219,2.838-8.807,2.277-13.335A37.039,37.039,0,0,0,70.824,20.3a18.232,18.232,0,0,1,.673-6.038" fill="#e2a460"/>
      <path id="Path_21563" data-name="Path 21563" d="M6.294,34.66C8.886,37.582,14,24.07,14.646,22.17c.635-1.877,2.465-4.563-.368-5.292-3.308-.85-5.26,5.255-5.453,7.629" fill="#f7e2c4"/>
      <path id="Path_21564" data-name="Path 21564" d="M8.824,24.508l.009-.031c.015-.055.028-.109.037-.163Z" fill="#f7e2c4"/>
      <path id="Path_21565" data-name="Path 21565" d="M9.362,22.886c0-.156.056-.439-.082-.484.015.1.026.2.032.294-.105.011-.149.189-.164.349l.042-.177c0,.049.059.032.056.079-.115.258-.052.344-.19.577l0-.015-.021.2c-.025.06-.036.032-.04.011a3.87,3.87,0,0,1-.107.552c.092-.178.095-.53.221-.7v.014c.033-.234.206-.475.255-.705" fill="#f7e2c4"/>
      <path id="Path_21566" data-name="Path 21566" d="M8.993,23.723l0-.016a.039.039,0,0,0,0,.016" fill="#f7e2c4"/>
      <path id="Path_21567" data-name="Path 21567" d="M14.134,18.2l.038-.088a.149.149,0,0,0-.038.088" fill="#f7e2c4"/>
      <path id="Path_21568" data-name="Path 21568" d="M11.848,17.671l.017,0c-.059-.1-.049-.068-.017,0" fill="#f7e2c4"/>
      <path id="Path_21569" data-name="Path 21569" d="M9.72,31.23l-.107,0c.083.032.108.023.107,0" fill="#f7e2c4"/>
      <path id="Path_21570" data-name="Path 21570" d="M7.736,34.491l0,0Z" fill="#f7e2c4"/>
      <path id="Path_21571" data-name="Path 21571" d="M9.454,33.658l.054.031c-.022-.027-.039-.034-.054-.031" fill="#f7e2c4"/>
      <path id="Path_21572" data-name="Path 21572" d="M8.543,34.667a.728.728,0,0,0-.105.054.137.137,0,0,0,.105-.054" fill="#f7e2c4"/>
      <path id="Path_21573" data-name="Path 21573" d="M7.754,34.457a.165.165,0,0,1-.017.034.105.105,0,0,0,.017-.034" fill="#f7e2c4"/>
      <path id="Path_21574" data-name="Path 21574" d="M10.787,32.129,11,32.2a.8.8,0,0,0-.217-.068" fill="#f7e2c4"/>
      <path id="Path_21575" data-name="Path 21575" d="M8.3,34.92a.164.164,0,0,0-.085.011A.1.1,0,0,0,8.3,34.92" fill="#f7e2c4"/>
      <path id="Path_21576" data-name="Path 21576" d="M9.458,22.64a.773.773,0,0,0-.036.123.262.262,0,0,0,.036-.123" fill="#f7e2c4"/>
      <path id="Path_21577" data-name="Path 21577" d="M14.584,25.657a.869.869,0,0,0,.111.071.151.151,0,0,0-.111-.071" fill="#f7e2c4"/>
      <path id="Path_21578" data-name="Path 21578" d="M12.592,29.566l0,.017.05,0Z" fill="#f7e2c4"/>
      <path id="Path_21579" data-name="Path 21579" d="M13.156,28.416l.053.043a.188.188,0,0,0-.053-.043" fill="#f7e2c4"/>
      <path id="Path_21580" data-name="Path 21580" d="M12.355,30.534a.346.346,0,0,0,.056.08Z" fill="#f7e2c4"/>
      <path id="Path_21581" data-name="Path 21581" d="M11.618,31.2c.1.006.149.083.2.159.237-.139,0-.351.331-.453l-.174.037a.347.347,0,0,1,.329-.488l.055.076c-.113-.224.368-.244.238-.382-.14,0-.169-.086-.318-.054l-.021-.429.355.141-.015-.227c-.164-.026.242-.179-.09-.344.18-.038.246.169.362.27-.048-.147.11-.085-.044-.273l.365.051-.085-.361c.024.028.055.022.078.048-.21-.243.322-.222-.077-.591a.208.208,0,0,0,.052.032c-.218-.2.074-.317.166-.368,0-.162-.3-.2-.434-.269.268-.349.194-.234-.07-.741.525-.007.593.537,1.014.421a.694.694,0,0,1-.276-.6,2.426,2.426,0,0,1,.883-.407l-.305-.107-.054-.324.372.326c-.084-.083-.217-.29-.328-.435-.149-.372.728.121.355-.273l.105.02c-.206-.161-.045-.3-.049-.536l.366.227-.141.1c.413.084.028-.242.1-.36-.079-.187-.432-.249-.52-.367.037-.041-.052-.158.078-.152.17-.068.475.172.63.276-.368-.263-.3-.276-.378-.567.2.064.279.114.305.158a.577.577,0,0,0-.266-.235l.262.013c.439-.13-.651-.544-.407-.8.188.163.049-.284.345-.284.026.133.62.169.843.326.244-.2-.448-.278-.469-.516l.483.268c-.15-.278-.257-.148-.344-.407.127.108.168-.042.292.137a4,4,0,0,1,.215-.4l-.491-.188c-.032-.09.2-.036.295-.022,0,.031-.033.067.033.086.456.08-.2-.214.229-.157-.165-.037-.392-.095-.386-.193.289.144.331-.024.459.021-.227-.029-.023-.22-.34-.368.266-.012.221.129.381.2-.343-.242.095-.383-.087-.558l.073.024c-.184-.211-.162-.422-.406-.787l.249.191c.211-.188-.53-.373-.454-.56.385.189.081-.33.5-.086a1.9,1.9,0,0,0-.58-.538c.261-.045.49.384.651.263l-.162-.237.229.032c-.161-.053-.137-.211-.269-.235.271.04.474.008.673.062-.052-.137.239-.273.012-.427l.132.008c-.241-.1-.255-.2-.274-.288s-.058-.185-.316-.213l.277-.084c-.054-.205-.579-.117-.712-.171-.031-.058-.1-.114-.065-.185.36.129.368-.2.491-.334a.579.579,0,0,0-.146-.22.359.359,0,0,0-.333-.053c.273-.058.409-.243.568-.037.188-.181.083-.263-.056-.316s-.323-.071-.408-.174l.155-.164c-.432-.165-.648.189-.949.46a1,1,0,0,1,.389-.5.548.548,0,0,0-.358-.24,1.894,1.894,0,0,1-.421-.085.3.3,0,0,1,.167-.352c-.3.1-.673-.144-.87.292.077-.172-.1-.145-.208-.214,0,.1-.015.22-.027.207-.165.221-.446.386-.646.308l.026-.148c-.211.041-.3.261-.371.432s-.121.351-.379.325c-.115-.032-.125-.33-.256-.232.023.17.231.4.037.456l-.16-.218.075.295c.193.123.292-.06.343.221-.28-.091.061.266-.277.168a1.138,1.138,0,0,0-.122-.333.4.4,0,0,0-.386.341.514.514,0,0,1-.369.374c.028.294-.111.527-.052.738a1.263,1.263,0,0,1-.45-.419c-.122.154.263.487-.08.434.208.225-.1.538.229.756-.074-.031-.1.167-.2-.1-.011.27-.45.146-.5.256-.02.063.242.031.179.164-.021.01-.055,0-.077.01l.052.085c-.1.021-.132-.13-.214-.175-.146.167.049.4-.038.629l-.034-.059c-.037.075-.077.149-.109.227l-.011-.02.025.226-.069-.032c0,.051.043.077.026.14L9.695,21.2a.481.481,0,0,1,.038.457l-.043.009c.02.1.035.2.048.3-.133.11-.1-.227-.156.059l-.119-.116c-.011.212-.1.219-.1.367.083-.042.113-.135.146-.05-.206.109-.046.256-.056.41.027-.074.05-.121,0-.192.032-.076.077-.01.1-.055l-.031-.13.105,0,.006-.208c.109.047.088-.165.181-.054.007-.144.133-.186.055-.346.12-.057.031.168.087.081a4.147,4.147,0,0,1,.775-1.5l.048.083c-.047-.082-.072-.175-.11-.24.188-.021.581-.215.38-.471.027-.006.052.041.065.063.074-.173.462-.321.607-.509-.233-.3.433-.133.089-.516l.05.1c-.177-.032-.2-.317-.277-.435.318.179.209.171.514.33l-.163-.015.236.176c-.172-.339-.011-.418.169-.388.179.013.347.079.232-.2.011.031.045.069.055.1.2.068.018-.266.036-.4a.985.985,0,0,1,.138.354c.114.019.169-.089.245-.2.074-.079.172-.151.286-.046,0-.24-.108-.285-.083-.477a.372.372,0,0,1,.114.351c.119.215.185.158.3.067.114-.032.276-.1.327.133.2-.208.147-.355.435-.443-.113.146-.18.579-.293.556l-.077.176c.188.116.127.221.527-.177-.283.307-.031.072-.189.24.037-.033.048-.045.069-.064.267-.212-.011.035.033,0l-.064.039a.793.793,0,0,1,.234-.1,1.116,1.116,0,0,1-.242.116l.276-.105c.012.032-.344.117-.28.128l.217-.061c-.14.053.177.056-.143.1-.064.006-.038,0-.05-.006-.46.067.151.11-.087.226l.492.022c.134.142-.112.061-.281.036-.01.074-.162.056-.247.151a.973.973,0,0,0,.305.114l-.145.086-.243-.135c.653.35-.221.42.355.768-.163.029-.255-.171-.353-.153-.383.111.227.718-.21.8-.48.214-.343.759-.741,1.157l.131.037c-.078.107-.145.189-.208.262.261.173.061.317.35.557a2.086,2.086,0,0,1-.325-.132c0,.135.09.317-.108.325l-.094-.08c-.174.238-.316.605-.131.836,0,.1-.229.014-.389-.019-.069.149.02.3.171.5a.891.891,0,0,1-.257.021l.279.178c-.066.048-.253-.083-.35-.063.271.385-.156.538-.2.717l.156.035c.088.116-.168.168-.285.025-.3.263.274.686.019,1.106-.538-.156-.008.472-.6.294.073.253-.2.28.078.555-.058-.021-.088-.015-.086-.05-.234-.014-.169.305-.108.558l-.167-.063c.325.227.094.511.408.737-.084-.013-.13-.1-.182-.158-.364-.05.087.246-.041.34-.078-.049-.19-.055-.24-.111-.521.256-.175,1.156-.645,1.588-.076.148.338.105.228.292-.173-.018-.259-.252-.374-.158.144.186.09.2.02.312-.085-.072-.157-.085-.187-.2-.145.009.1.417-.189.435a.362.362,0,0,1,.163.142c.139.331-.438.344-.316.434,0,0,0,.092.058.044-.037.073-.121.16-.235.073.05.076.139.171.123.236l-.127-.113c.015.052.086.141.088.184l.11,0c-.154.019.039.347-.217.189l.008-.033-.187.093c.073.124.14.247.055.333-.27-.115-.176.242-.273.356L9.139,32.1c.061.178-.123.41-.061.389-.05.1-.171.2-.21.106,0,.109-.089.28,0,.4l-.241.046c.16.26-.251.255-.043.439-.084.061-.119,0-.188.031a.476.476,0,0,1-.174.41L8.2,33.914c-.1.1-.118.325-.255.467L7.832,34.3c-.052.094-.011.2-.1.236-.027,0-.014-.019,0-.042a.461.461,0,0,1-.231.157.888.888,0,0,1-.3.263c-.108-.036.149-.075.052-.116a1,1,0,0,1-.609.048c-.017-.01.011-.006.025-.01-.023.064-.465-.221-.378-.177-.043-.047-.089-.1.052.063.05.053.191.208.225.235l.022-.012c.276.129-.027.1.343.241l-.077-.039a1.189,1.189,0,0,1,.214.051c.025.019-.029.011-.062.01a.791.791,0,0,0,.323-.047c.02.032.012.052-.054.076.312-.018-.071-.073.282-.13.073.01-.009.045-.05.076a.487.487,0,0,0,.415-.178c.04.062-.074.1.086.083-.048-.021-.095-.068,0-.121-.009.086.105,0,.2-.036a.051.051,0,0,1-.026-.082c.034-.037.091-.033.148-.076H8.179c.09-.163.253-.118.386-.171a.082.082,0,0,1-.023.064c.133-.059.326-.083.39-.267l0,.019c.16-.3-.206-.056-.021-.4.1-.074.26.305.358,0-.175.032-.078-.306-.023-.464l.1.288c.048-.047.067-.178.113-.189L9.4,33.628c-.189-.129.161-.142.115-.323.179.31.117.278.359.492-.057-.191-.109-.392.057-.536l.1.285c.259-.176.124-.67.037-.994.151.171.276.137.373.319l.126-.242.165.194c-.147-.224.077-.228-.223-.392.021.048.057.065.017.1-.082-.059-.233-.207-.144-.315.125-.032.083.116.181.145-.069-.147.129-.033.1-.162l-.176-.01c-.135-.157.077-.133.037-.261.018.137.138.167.269.2l-.027-.009c.027-.062-.052-.211.078-.187l.221.195-.129-.191c.053-.012.16.018.171.1.337-.164-.558-.31-.1-.512.1.062.143.137.022.2.149.1.258.136.381.078l.031.016c.125-.172.3-.39.185-.611" fill="#f7e2c4"/>
      <path id="Path_21582" data-name="Path 21582" d="M11.433,31.812c-.066.093-.124.171-.116.227.063.011.288-.137.116-.227" fill="#f7e2c4"/>
      <path id="Path_21583" data-name="Path 21583" d="M14.682,16.11a.548.548,0,0,0,.061-.025Z" fill="#f7e2c4"/>
      <path id="Path_21584" data-name="Path 21584" d="M13.545,16.108a.148.148,0,0,0,.06.081c0-.078-.017-.137-.06-.081" fill="#f7e2c4"/>
      <path id="Path_21585" data-name="Path 21585" d="M14.982,24.44l0,0Z" fill="#f7e2c4"/>
      <path id="Path_21586" data-name="Path 21586" d="M16.874,19.708a.715.715,0,0,0-.347-.221c.024.063.115.134.347.221" fill="#f7e2c4"/>
      <path id="Path_21587" data-name="Path 21587" d="M16.1,21.383l.052.056a.1.1,0,0,0-.052-.056" fill="#f7e2c4"/>
      <path id="Path_21588" data-name="Path 21588" d="M15.093,24.768c-.11-.124-.061-.218-.111-.328.049.1-.143.174.111.328" fill="#f7e2c4"/>
      <path id="Path_21589" data-name="Path 21589" d="M12.437,16.849c0-.074,0-.139.007-.21a1.317,1.317,0,0,0-.035.164Z" fill="#f7e2c4"/>
      <path id="Path_21590" data-name="Path 21590" d="M13.268,16.45c.047.043.2-.105.144-.205a.6.6,0,0,1-.144.205" fill="#f7e2c4"/>
      <path id="Path_21591" data-name="Path 21591" d="M16.013,18.2l.247,0-.2-.055Z" fill="#f7e2c4"/>
      <path id="Path_21592" data-name="Path 21592" d="M59.656,16.963c-1.814-.941-6.112-3.172-9.775-1.483a4.005,4.005,0,0,0-1.993,1.666c-1.405,2.625,1.335,6.719,4.05,7.907,2.022.884,4.453.355,6.53,1.021a15.49,15.49,0,0,1,5.812,3.582c5.731,5.718,2.383,17.224,2.907,17.291.565.073,6.542-13.1-.065-23.283a19.906,19.906,0,0,0-7.466-6.7" fill="#f7e2c4"/>
      <path id="Path_21593" data-name="Path 21593" d="M40.774,76.379A6.794,6.794,0,0,1,37.707,80a6.383,6.383,0,0,1-4.81.234,14.126,14.126,0,0,1-4.3-2.3A10.5,10.5,0,0,1,25.39,74.2c-.7-1.484-1.284-2.922-2.064-4.294a20.549,20.549,0,0,0-2.731-3.772,45.482,45.482,0,0,0-7.186-6.108,57.913,57.913,0,0,1-7.628-5.97,17.924,17.924,0,0,1-4.691-8.638,31.324,31.324,0,0,1-.48-9.74,84.653,84.653,0,0,1,1.5-9.525l.011-.053.017-.046,1.894-4.981-.039.227a8.8,8.8,0,0,0-.958-3.575c-.548-1.171-1.23-2.309-1.825-3.532A10.316,10.316,0,0,1,.02,10.227,6.3,6.3,0,0,1,1.164,6.211,6.912,6.912,0,0,1,4.423,3.663a6.682,6.682,0,0,1,4.086-.1,13.935,13.935,0,0,1,3.671,1.663,13.456,13.456,0,0,1,2.976,2.662,13.685,13.685,0,0,0-6.748-3.91,6.161,6.161,0,0,0-3.76.256A6.482,6.482,0,0,0,1.809,6.64a5.461,5.461,0,0,0-.9,3.525,9.431,9.431,0,0,0,1.2,3.577c.6,1.151,1.319,2.277,1.934,3.5A9.938,9.938,0,0,1,5.22,21.272l.006.109-.044.118-1.839,5,.028-.1a83.68,83.68,0,0,0-1.392,9.387,29.961,29.961,0,0,0,.536,9.294,16.584,16.584,0,0,0,4.258,8.011,57.054,57.054,0,0,0,7.4,5.886,41.284,41.284,0,0,1,7.276,6.407,21.6,21.6,0,0,1,2.759,4.049c.761,1.427,1.337,2.973,1.961,4.388a9.778,9.778,0,0,0,2.884,3.543,13.513,13.513,0,0,0,4,2.392,6,6,0,0,0,4.532-.011,6.811,6.811,0,0,0,3.189-3.369" fill="#2b2b2b"/>
      <path id="Path_21594" data-name="Path 21594" d="M55.736,6.778A35.592,35.592,0,0,0,46.41,2.711a34.909,34.909,0,0,0-9.972-1.242,15.014,15.014,0,0,0-4.832.861c-1.573.525-3.141,1.262-4.742,1.883-3.185,1.294-6.39,2.538-9.655,3.651,3.016-1.67,6.092-3.208,9.189-4.7,1.549-.746,3.081-1.5,4.739-2.146A15.982,15.982,0,0,1,36.393,0,30.156,30.156,0,0,1,46.747,1.622a26.063,26.063,0,0,1,8.989,5.156" fill="#2b2b2b"/>
      <path id="Path_21595" data-name="Path 21595" d="M55.763,6c1.407-.547,2.829-1.043,4.251-1.534,1.43-.474,2.836-.977,4.313-1.387a13.872,13.872,0,0,1,4.65-.6,7.663,7.663,0,0,1,4.549,1.745l1,.862-1.292.382A1.793,1.793,0,0,0,72.1,6.712a1.773,1.773,0,0,0-.033.873,2.126,2.126,0,0,0,.47.828,3.872,3.872,0,0,1,.723,1.3A3.925,3.925,0,0,1,73.4,11.2a10.543,10.543,0,0,1-.655,2.567,20.2,20.2,0,0,0-1.049,4.763,21.854,21.854,0,0,0,.09,4.958,16.44,16.44,0,0,1-.84-4.988,17.9,17.9,0,0,1,.668-5.081,11.184,11.184,0,0,0,.474-2.3,2.607,2.607,0,0,0-.126-.985,2.842,2.842,0,0,0-.535-.852,5.8,5.8,0,0,1-.415-.577,3.126,3.126,0,0,1-.327-.768,3.209,3.209,0,0,1,.023-1.6,3.132,3.132,0,0,1,2.149-2.259l-.29,1.243a6.64,6.64,0,0,0-3.7-1.485,14.575,14.575,0,0,0-4.277.326L60.2,5.128c-1.472.311-2.947.619-4.434.875" fill="#2b2b2b"/>
      <path id="Path_21596" data-name="Path 21596" d="M71.589,28.029c.6,2.406,1.153,4.82,1.542,7.287a25.784,25.784,0,0,1,.125,7.532,17.1,17.1,0,0,1-2.77,7.111,32.469,32.469,0,0,1-4.947,5.734,44.054,44.054,0,0,1-6,4.577c-1.062.672-2.149,1.3-3.248,1.9s-2.233,1.14-3.3,1.7a8.454,8.454,0,0,0-2.746,2.151,23.162,23.162,0,0,0-2.022,3.023c-.642,1.056-1.273,2.131-1.976,3.162a13.8,13.8,0,0,1-2.428,2.831A27.459,27.459,0,0,0,47.591,68.7a23.123,23.123,0,0,1,1.9-3.274,9.232,9.232,0,0,1,2.936-2.551c1.094-.646,2.179-1.215,3.24-1.827s2.1-1.258,3.117-1.941a44.625,44.625,0,0,0,5.759-4.49,32.243,32.243,0,0,0,4.8-5.438,16.663,16.663,0,0,0,2.792-6.525,27.7,27.7,0,0,0,.289-7.261c-.143-2.454-.554-4.9-.83-7.365" fill="#2b2b2b"/>
      <path id="Path_21597" data-name="Path 21597" d="M69.583,23.9a5.274,5.274,0,0,1,2.244-1.274,18.86,18.86,0,0,1,2.541-.581c1.717-.274,3.452-.4,5.163-.611a18.978,18.978,0,0,0,2.529-.469L84.6,20.4c1.7-.361,3.4-.706,5.107-1.009a144.772,144.772,0,0,1,20.723-2.126A68.612,68.612,0,0,1,131.1,20.224a104.561,104.561,0,0,1,19.361,7.82c6.121,3.285,12.122,6.785,17.91,10.637a113.4,113.4,0,0,1,16.349,12.931A59.535,59.535,0,0,1,197.17,68.28a35.925,35.925,0,0,1,3.359,20.277,35.832,35.832,0,0,0-.574-10.288,38.144,38.144,0,0,0-3.432-9.673,58.831,58.831,0,0,0-12.583-16.168,122.6,122.6,0,0,0-16.306-12.635c-5.761-3.784-11.761-7.226-17.856-10.455A103.113,103.113,0,0,0,130.729,21.5a71.056,71.056,0,0,0-20.282-3.119,145.5,145.5,0,0,0-20.625,1.707c-1.711.248-3.414.538-5.115.845l-2.547.49a19.57,19.57,0,0,1-2.588.4c-1.733.154-3.46.23-5.174.443a18.8,18.8,0,0,0-2.541.47A5.209,5.209,0,0,0,69.583,23.9" fill="#2b2b2b"/>
      <path id="Path_21598" data-name="Path 21598" d="M204.472,88.828a2.754,2.754,0,0,0,.648,2.258,8.929,8.929,0,0,0,1.75,1.676c1.293.979,2.725,1.774,4.047,2.733a68.227,68.227,0,0,1,7.5,6.277,34.4,34.4,0,0,1,3.408,3.536,17.732,17.732,0,0,1,2.439,4.285,24.318,24.318,0,0,1,1.423,4.717,29.306,29.306,0,0,1,.587,4.891,27.876,27.876,0,0,1-1.269,9.758,21.688,21.688,0,0,1-5.038,8.49,28.666,28.666,0,0,1-8.123,5.621,83.18,83.18,0,0,0-8.323,4.987c-5.395,3.6-10.622,7.567-16.494,10.585-.743.358-1.48.728-2.228,1.075-.762.319-1.512.666-2.285.961-1.569.587-3.081,1.1-4.567,1.7a91.83,91.83,0,0,0-8.7,4.272c-2.859,1.547-5.708,3.146-8.657,4.593a49.294,49.294,0,0,1-9.228,3.578c-.814.179-1.625.372-2.442.534-.829.107-1.655.242-2.487.322-.834.033-1.683.079-2.5.1-.806,0-1.611.006-2.415.039a40.193,40.193,0,0,0-18.386,4.929c-1.394.765-2.833,1.608-4.29,2.357s-2.931,1.473-4.412,2.166c-2.95,1.39-5.966,2.694-8.846,4.1-1.412.731-2.815,1.589-4.324,2.314A11.366,11.366,0,0,1,96.268,193a8.3,8.3,0,0,1-7.548-6.43,7.674,7.674,0,0,1-.148-2.641,8.029,8.029,0,0,1,.759-2.532,16.67,16.67,0,0,1,3.013-4.072,33.131,33.131,0,0,1,3.744-3.272,48.189,48.189,0,0,1,4.076-2.784,91.513,91.513,0,0,1,8.582-4.788c11.76-5.824,24.346-9.484,36.59-13.869,12.171-4.723,24.908-7.741,37.094-12.357-6.021,2.5-12.248,4.469-18.435,6.506-3.1,1.015-6.192,2.03-9.264,3.1-3.076,1.056-6.086,2.282-9.149,3.423-12.222,4.53-24.752,8.311-36.33,14.2a90.56,90.56,0,0,0-8.426,4.817,40.5,40.5,0,0,0-7.571,5.9,15.454,15.454,0,0,0-2.767,3.748,6.776,6.776,0,0,0-.63,2.118,6.392,6.392,0,0,0,.131,2.2,7.216,7.216,0,0,0,2.287,3.756,6.583,6.583,0,0,0,4.02,1.634,10.1,10.1,0,0,0,4.367-1.2c1.427-.692,2.806-1.539,4.283-2.312,2.972-1.46,5.938-2.75,8.877-4.147,1.467-.693,2.921-1.405,4.352-2.156s2.808-1.555,4.266-2.363a42.408,42.408,0,0,1,9.2-3.72,43.035,43.035,0,0,1,9.823-1.377c.825-.031,1.648-.034,2.473-.031l2.38-.085c.787-.074,1.573-.2,2.36-.3.78-.151,1.556-.335,2.334-.5,6.206-1.61,11.864-4.922,17.6-7.988a93.18,93.18,0,0,1,8.847-4.3c1.536-.615,3.111-1.147,4.595-1.7.75-.283,1.481-.62,2.222-.926l2.176-1.042c5.743-2.942,10.981-6.828,16.452-10.394a84.147,84.147,0,0,1,8.483-4.964,27.709,27.709,0,0,0,7.923-5.352,20.815,20.815,0,0,0,4.916-8.1,27.378,27.378,0,0,0,1.335-9.477,28.7,28.7,0,0,0-.494-4.793,23.732,23.732,0,0,0-1.312-4.631,17.2,17.2,0,0,0-2.3-4.209,33.935,33.935,0,0,0-3.3-3.541,68.4,68.4,0,0,0-7.361-6.377c-1.292-.983-2.7-1.808-3.986-2.825a9.026,9.026,0,0,1-1.726-1.731,2.783,2.783,0,0,1-.6-2.29" fill="#2b2b2b"/>
      <path id="Path_21599" data-name="Path 21599" d="M185.365,138a4.965,4.965,0,0,0,3.172-.986,11.477,11.477,0,0,0,2.451-2.259,10.172,10.172,0,0,0,1.667-2.788,4.746,4.746,0,0,0,.33-1.461,3.855,3.855,0,0,0-.067-.677,3.487,3.487,0,0,0-.237-.669,3.637,3.637,0,0,0-2.222-1.776,18.639,18.639,0,0,0-3.264-.774c-1.139-.19-2.306-.376-3.462-.673a6.383,6.383,0,0,1-3.142-1.64,7.441,7.441,0,0,0,3.274.933c1.139.121,2.3.15,3.47.245a15.817,15.817,0,0,1,3.581.6,6.155,6.155,0,0,1,1.754.872,4.273,4.273,0,0,1,1.338,1.586,4.85,4.85,0,0,1,.326.978,5.129,5.129,0,0,1,.085,1.055,5.619,5.619,0,0,1-.474,1.918,10.047,10.047,0,0,1-2.109,3.039,10.369,10.369,0,0,1-2.95,2.121,4.67,4.67,0,0,1-3.52.36" fill="#2b2b2b"/>
      <path id="Path_21600" data-name="Path 21600" d="M41.617,77.588c1.352,1.407,1.857,3.431,3.277,4.618a41.493,41.493,0,0,0,4.4,3.591c1.546,1.115,3.107,2.223,4.651,3.4a41.9,41.9,0,0,1,4.356,3.9,27.264,27.264,0,0,1,3.592,4.658,21.068,21.068,0,0,1,3.047,11.221,28.062,28.062,0,0,1-.71,5.737A40.336,40.336,0,0,0,64.218,109a23.378,23.378,0,0,0-1.107-5.5A24.867,24.867,0,0,0,57.233,94.1a43.746,43.746,0,0,0-4.153-3.822c-1.46-1.21-3.008-2.346-4.49-3.582a33.315,33.315,0,0,1-4.221-4,8.349,8.349,0,0,1-1.5-2.535,13.424,13.424,0,0,0-1.247-2.572" fill="#2b2b2b"/>
      <path id="Path_21601" data-name="Path 21601" d="M63.755,116.224c-.024,1.416-.075,2.822-.191,4.24a15.753,15.753,0,0,1-.894,4.243A7.962,7.962,0,0,1,60,128.336a12.613,12.613,0,0,1-4.041,1.833,7.846,7.846,0,0,0-3.437,1.677,4.211,4.211,0,0,0-.967,1.531,7.088,7.088,0,0,0-.43,1.871,3.361,3.361,0,0,0,1.365,3.251,3.571,3.571,0,0,0,1.855.531,7,7,0,0,0,2.046-.339,6,6,0,0,1-2.02.744,3.987,3.987,0,0,1-2.228-.3,3.65,3.65,0,0,1-1.664-1.646,4.8,4.8,0,0,1-.5-2.274,7.4,7.4,0,0,1,.084-1.147,9.743,9.743,0,0,1,.276-1.11,5.572,5.572,0,0,1,1.177-2.067,5.958,5.958,0,0,1,1.939-1.353,17.316,17.316,0,0,1,2.07-.764,11.745,11.745,0,0,0,3.656-1.551,7.209,7.209,0,0,0,2.44-2.959c1.137-2.426,1.446-5.3,2.134-8.035" fill="#2b2b2b"/>
      <path id="Path_21602" data-name="Path 21602" d="M66.526,136.439a15.36,15.36,0,0,0-1.7,1.372,5.006,5.006,0,0,0-.7.8,1.343,1.343,0,0,0-.3.9c.1.587.833.912,1.476,1.123a14.277,14.277,0,0,0,2.094.46c1.427.227,2.879.368,4.338.535.732.087,1.458.169,2.214.327.736.157,1.44.346,2.132.476a6.735,6.735,0,0,0,2,.143,3.01,3.01,0,0,0,1.643-.717,11.34,11.34,0,0,0,2.244-3.431c.354-.677.678-1.261.985-1.923l.923-1.987a15.263,15.263,0,0,1,2.453-3.866c2.086-2.205,4.457-3.918,6.3-6.059a40.852,40.852,0,0,0,4.83-7.117,53.765,53.765,0,0,0,3.448-7.958,67.341,67.341,0,0,0,2.313-8.423A50.651,50.651,0,0,1,98.484,118a38.7,38.7,0,0,1-4.791,7.495c-1.954,2.322-4.368,4.081-6.278,6.148-1.878,1.971-2.694,4.876-4.221,7.438a12.3,12.3,0,0,1-2.653,3.768,4.216,4.216,0,0,1-2.343.947,7.846,7.846,0,0,1-2.354-.247c-.739-.17-1.442-.389-2.132-.563-.67-.169-1.4-.281-2.111-.408-1.436-.247-2.892-.459-4.339-.781a14.656,14.656,0,0,1-2.149-.646,4.445,4.445,0,0,1-1.02-.555,1.488,1.488,0,0,1-.651-1.051,1.665,1.665,0,0,1,.439-1.111,5,5,0,0,1,.8-.789,15.406,15.406,0,0,1,1.844-1.207" fill="#2b2b2b"/>
      <path id="Path_21603" data-name="Path 21603" d="M75.629,100.467c-.348,2.76.867,5.2,1.351,7.971a9.96,9.96,0,0,1-.084,4.277c-.287,1.342-.637,2.668-1,3.988a72.85,72.85,0,0,1-2.73,7.734,63.589,63.589,0,0,1-3.59,7.361c.8-2.613,1.676-5.182,2.515-7.758s1.662-5.147,2.395-7.742c.387-1.292.736-2.594,1.063-3.9a9.843,9.843,0,0,0,.343-1.879,14.047,14.047,0,0,0-.039-1.93c-.123-1.3-.408-2.64-.563-4.015a9.073,9.073,0,0,1,.343-4.109" fill="#2b2b2b"/>
      <path id="Path_21604" data-name="Path 21604" d="M103.089,117.527a20,20,0,0,0,8.257,3.612,65.217,65.217,0,0,0,9,1.347c3.032.288,6.083.416,9.141.5s6.124.077,9.213.052a57.945,57.945,0,0,1-9.2,1.093,69.35,69.35,0,0,1-9.286-.185,45.4,45.4,0,0,1-9.169-1.707,23.49,23.49,0,0,1-4.336-1.789,11.978,11.978,0,0,1-3.62-2.924" fill="#2b2b2b"/>
      <path id="Path_21605" data-name="Path 21605" d="M169.264,77.658a16.136,16.136,0,0,0-6.524-3.1,28.867,28.867,0,0,0-7.229-.532c-1.216.028-2.434.078-3.657.127l-1.838.063a14.913,14.913,0,0,0-1.766.15,17.078,17.078,0,0,0-6.513,2.76c-2.13,1.318-4.257,2.4-6.161,3.85a19,19,0,0,0-4.787,5.171,24.474,24.474,0,0,0-3.362,13.615,23.43,23.43,0,0,0,4.433,13.3c1.321,2.01,2.811,3.928,4.327,5.831,1.534,1.894,3.041,3.809,4.6,5.671l2.354,2.815c.389.476.772.963,1.139,1.471a7.992,7.992,0,0,1,.98,1.682,2.114,2.114,0,0,1,.158,1.142,1.331,1.331,0,0,1-.312.628,1.293,1.293,0,0,1-.581.338,7.451,7.451,0,0,1-1.957.145l-3.671-.1-3.66-.09a15.614,15.614,0,0,0-3.6.189,4.91,4.91,0,0,0-2.854,1.987,8.963,8.963,0,0,0-1.433,3.314,9.056,9.056,0,0,1,1.251-3.44,5.207,5.207,0,0,1,2.936-2.237,15.908,15.908,0,0,1,3.694-.367l3.673-.075,3.661-.008a7.124,7.124,0,0,0,1.685-.153c.211-.077.24-.123.278-.3a1.3,1.3,0,0,0-.133-.637,13.561,13.561,0,0,0-2.046-2.835l-2.421-2.737c-1.637-1.83-3.192-3.716-4.736-5.612s-3.07-3.829-4.45-5.887a29.942,29.942,0,0,1-3.46-6.618,23.579,23.579,0,0,1-.99-3.65,28.136,28.136,0,0,1-.337-3.743,25.86,25.86,0,0,1,3.7-14.361,20.3,20.3,0,0,1,5.154-5.47,31.171,31.171,0,0,1,3.138-2.022c1.08-.625,2.174-1.14,3.194-1.772a18.079,18.079,0,0,1,6.969-2.716,15.783,15.783,0,0,1,1.888-.11l1.828-.011c1.22-.012,2.445-.041,3.674-.021a29.419,29.419,0,0,1,7.327.872,15.98,15.98,0,0,1,3.434,1.352,16.217,16.217,0,0,1,3,2.119" fill="#2b2b2b"/>
      <path id="Path_21606" data-name="Path 21606" d="M127.169,136.162a8.613,8.613,0,0,0-.495,1.91,3.714,3.714,0,0,0,.165,1.881,2.418,2.418,0,0,0,1.228,1.283,5.454,5.454,0,0,0,1.816.458,24.687,24.687,0,0,0,3.913-.014l3.971-.275q3.986-.285,8-.318c2.686-.036,5.343.2,7.929.042,2.6-.124,5.242-.486,7.872-.791a37,37,0,0,0,7.663-1.489,11.135,11.135,0,0,0,3.306-1.86,16.641,16.641,0,0,0,2.747-2.736,20.839,20.839,0,0,0,2.16-3.275,30.331,30.331,0,0,0,1.591-3.63,21.733,21.733,0,0,1-3.173,7.334,17.169,17.169,0,0,1-2.705,3.043,11.806,11.806,0,0,1-3.508,2.189,20.8,20.8,0,0,1-3.93,1.135c-1.324.267-2.648.472-3.968.664-2.642.349-5.274.724-7.98.879-2.726.136-5.382-.113-8.01-.122-2.639-.056-5.287.018-7.938.074a48.68,48.68,0,0,1-8.04-.143,6.116,6.116,0,0,1-1.979-.683,2.9,2.9,0,0,1-1.328-1.639,5.468,5.468,0,0,1,.7-3.918" fill="#2b2b2b"/>
      <path id="Path_21607" data-name="Path 21607" d="M91.34,32.837c.336,2.408.815,4.753,1.133,7.17a27.255,27.255,0,0,1,.276,3.691,18.918,18.918,0,0,1-.494,3.731,23.183,23.183,0,0,1-1.262,3.521,28.555,28.555,0,0,1-1.808,3.227,41.516,41.516,0,0,1-4.555,5.71C85.8,57.752,87.076,55.7,88.2,53.595a29.364,29.364,0,0,0,2.634-6.52,19.089,19.089,0,0,0,.532-3.427c.069-1.145.009-2.347-.028-3.543a47.384,47.384,0,0,1,.006-7.268" fill="#2b2b2b"/>
      <path id="Path_21608" data-name="Path 21608" d="M64.5,61.939a10.709,10.709,0,0,0,4.177-.961,13.616,13.616,0,0,0,3.465-2.413c1.037-.968,2.058-2.02,3.069-3.066s2.025-2.079,2.985-3.16c.986-1.056,1.912-2.158,2.8-3.291a40.337,40.337,0,0,0,2.5-3.509,43.961,43.961,0,0,0,3.85-7.78,26.654,26.654,0,0,1-2.858,8.356,35.958,35.958,0,0,1-5.2,7.209c-1,1.086-2.034,2.142-3.1,3.157-1.078,1-2.115,2.03-3.308,2.955a12.665,12.665,0,0,1-3.941,2.21,9.245,9.245,0,0,1-4.438.294" fill="#2b2b2b"/>
      <path id="Path_21609" data-name="Path 21609" d="M110.322,76.877c2.1-.227,3.715-1.443,5.4-2.612a17.2,17.2,0,0,1,2.737-1.645,22.578,22.578,0,0,1,3.029-1.025,29.3,29.3,0,0,1,6.239-.829,30.848,30.848,0,0,1,6.231.412c-2.069.258-4.114.45-6.137.727a53.623,53.623,0,0,0-5.97,1.108A24.667,24.667,0,0,0,119,73.9a22.828,22.828,0,0,0-2.675,1.336,18.226,18.226,0,0,1-2.858,1.347,6.238,6.238,0,0,1-3.145.3" fill="#2b2b2b"/>
      <path id="Path_21610" data-name="Path 21610" d="M7,35.264a1.149,1.149,0,0,0,.978.326,1.787,1.787,0,0,0,.89-.507,8.07,8.07,0,0,0,1.321-1.712,35.757,35.757,0,0,0,2.02-3.926c.6-1.355,1.186-2.713,1.722-4.1s1.085-2.75,1.564-4.165c.28-.749.606-1.413.849-2.073a3.381,3.381,0,0,0,.3-1.756,1.013,1.013,0,0,0-.363-.523,3.532,3.532,0,0,0-.361-.2,4.19,4.19,0,0,0-.433-.144,2.112,2.112,0,0,0-1.68.281,5.157,5.157,0,0,0-1.45,1.4,11.421,11.421,0,0,0-1.111,1.852,16.727,16.727,0,0,0-.865,2.031,14.887,14.887,0,0,0-.62,2.144,11.016,11.016,0,0,1,.227-2.25,15.158,15.158,0,0,1,.592-2.2,8.049,8.049,0,0,1,2.6-3.928,3.21,3.21,0,0,1,2.592-.574,5.38,5.38,0,0,1,.638.18,4.439,4.439,0,0,1,.632.316,2.389,2.389,0,0,1,.94,1.247,4.412,4.412,0,0,1-.287,2.619c-.264.746-.585,1.434-.819,2.087a60.447,60.447,0,0,1-3.643,8.267,26.688,26.688,0,0,1-2.459,3.833A7.962,7.962,0,0,1,9.112,35.4a2.044,2.044,0,0,1-1.12.406A1.263,1.263,0,0,1,7,35.264" fill="#2b2b2b"/>
      <path id="Path_21611" data-name="Path 21611" d="M59.176,15.868a7.584,7.584,0,0,1-3.5-.273c-1.138-.3-2.245-.705-3.355-.937a4.644,4.644,0,0,0-3.144.175,3.057,3.057,0,0,0-1.87,2.19,4.714,4.714,0,0,0,.587,2.971,8.556,8.556,0,0,0,2,2.519A5.728,5.728,0,0,0,52.653,23.9a33.607,33.607,0,0,0,3.41.281,9.973,9.973,0,0,1,1.857.32,12.426,12.426,0,0,1,1.739.663,16.715,16.715,0,0,1,3.117,1.89,17.318,17.318,0,0,1,1.381,1.186A17.973,17.973,0,0,1,65.4,29.6a12.392,12.392,0,0,1,1.813,3.184,14.928,14.928,0,0,1,.835,3.52,21.868,21.868,0,0,1,.061,3.564,44.878,44.878,0,0,1-1.162,6.928l.328-3.48c.083-1.159.138-2.317.114-3.468a17.221,17.221,0,0,0-1.238-6.631,12.549,12.549,0,0,0-1.75-2.8c-.367-.41-.741-.812-1.153-1.19a15.747,15.747,0,0,0-1.3-1.053,16.273,16.273,0,0,0-2.879-1.7,10.842,10.842,0,0,0-1.534-.569,8.7,8.7,0,0,0-1.591-.257,33.1,33.1,0,0,1-3.562-.336,6.982,6.982,0,0,1-3.4-1.757,9.859,9.859,0,0,1-2.237-2.989,5.678,5.678,0,0,1-.55-3.786,3.74,3.74,0,0,1,.969-1.763,7.163,7.163,0,0,1,.77-.624c.276-.167.574-.287.86-.429a5.426,5.426,0,0,1,3.711.01c1.152.357,2.205.86,3.292,1.26a8.306,8.306,0,0,0,3.383.642" fill="#2b2b2b"/>
      <path id="Path_21612" data-name="Path 21612" d="M17.017,40.987a2.517,2.517,0,1,1-2.5,2.542,2.519,2.519,0,0,1,2.5-2.542" fill="#2b2b2b"/>
      <path id="Path_21613" data-name="Path 21613" d="M53.644,40.612a2.517,2.517,0,1,1-2.5,2.542,2.52,2.52,0,0,1,2.5-2.542" fill="#2b2b2b"/>
      <path id="Path_21614" data-name="Path 21614" d="M29.933,9.028c-6.272,5.469-3.644,18.692-.555,34.237,1.193,6,2.067,11.028,1.074,13.667-2.085,5.536-4.237,8.443-3.1,11.832,1.215,3.613,6.5,6.755,10.657,5.32,4.408-1.52,5.127-7.344,5.218-8.208.295-2.794-1.884-4.542-2.756-7.284-1.595-5.017-1.215-9.106-.565-13.824C41.852,30.653,44.689,10.06,38.4,6.887c-2.5-1.26-6.326.279-8.463,2.141" fill="#f7e2c4"/>
    </g>
  </g>
</svg>
