<svg xmlns="http://www.w3.org/2000/svg" xmlns:xlink="http://www.w3.org/1999/xlink" width="706" height="272" viewBox="0 0 706 272">
  <defs>
    <clipPath id="clip-path">
      <rect id="Rectangle_3235" data-name="Rectangle 3235" width="706" height="272" fill="none"/>
    </clipPath>
  </defs>
  <g id="向量圖智慧型物件" opacity="0.412">
    <g id="Group_700" data-name="Group 700">
      <g id="Group_699" data-name="Group 699" clip-path="url(#clip-path)">
        <path id="Path_18240" data-name="Path 18240" d="M137,272c-2.458,0-2.667-2.572-3.223-9.374-.372-4.546-.773-11.166-1.228-20.239-.851-17.007-1.79-40.78-2.782-65.949-2.373-60.092-5.845-148.061-9.718-168.615-1.177,5.95-2.692,18.5-4.169,40.078-.912,13.325-1.323,26.056-1.686,37.287-1.1,34.15-1.9,58.825-14.989,68.77-5.162,3.925-9.611,5.314-13.224,4.129-4.054-1.327-5.756-4.6-9.218-11.86-1.6-3.35-7.669-7.335-11.83-8.529-6.38-1.83-12.435,4.657-15.672,10.773-3.83,7.243-12.859,12.556-21.957,12.921a14.327,14.327,0,0,1-7.587-2.163c-2.127-1.111-3.968-2.075-6.865-1.922-3.347.172-6.662,1.872-9.852,5.054l-3-3.016c3.958-3.947,8.209-6.064,12.637-6.291a16.242,16.242,0,0,1,9.053,2.4c1.888.986,3.365,1.769,5.447,1.682,7.536-.3,15.262-4.783,18.367-10.657,4.171-7.886,11.772-15.41,20.6-12.874,5.236,1.5,12.309,6.194,14.5,10.789,3.362,7.054,4.5,8.925,6.7,9.646,1.517.5,4.365.3,9.327-3.473,11.474-8.719,12.244-32.544,13.309-65.517.364-11.267.777-24.039,1.695-37.44C114.9-.051,117.516-.034,120.08,0c2.941.03,5.264.054,8.738,60.185,1.958,33.918,3.681,77.569,5.2,116.084,1.32,33.421,2.585,65.489,3.672,81.753,4.138-22.645,11.6-74.624,9.32-92.745-.76-5.991.267-9.616,3.043-10.827,3.32-1.446,6.577,1.5,10.027,4.629,2.516,2.278,5.646,5.117,7.534,4.717,3.2-.673,4.158-11.951,5.264-25.012.594-7,1.266-14.942,2.4-23.952,1.268-10.115,2.9-19.82,4.6-27.332,2.619-11.593,3.964-12.327,5.826-12.164,2.814.246,4.225.369,11.233,75.69a27.633,27.633,0,0,0,7.444,15.9c3.879,3.967,11.241,6.189,16.019,3.174a27.78,27.78,0,0,0,5.689-5.6c3.54-4.181,7.547-8.921,13.618-6.707a13.58,13.58,0,0,1,3.985,2.546,7.726,7.726,0,0,0,3.148,1.918c3.776.727,5.719-5.563,6.382-8.3.84-3.472,3.847-7.865,7.768-9.166a6.153,6.153,0,0,1,6.06,1.1,9.148,9.148,0,0,1,2.642,4.643c1.021,3.238,2.414,6.756,5.241,9.058,2.391,1.946,6.458,2.918,9.131,1.172a8.253,8.253,0,0,0,3.233-4.579c4.21-14.837,9.836-84.4,11.684-107.258.262-3.252.464-5.73.59-7.2.489-5.712.712-8.319,3.209-8.369,2.473-.061,3.6-.067,6.2,35.182,1.442,19.6,2.811,44.814,3.66,67.449,1.353,36.079,1.371,64.623,1.384,85.464.006,8.806.01,16.638.145,22.367,1.879-9.76,4.8-26.836,8.743-51.081l.122-.747c2.425-14.923,7.471-45.977,16.293-82.868,8.588-35.9,11.67-35.467,13.7-35.194,3.117.424,3.761,4.02,6.363,26.223,1.7,14.51,4.027,34.383,8.09,53.332.594,2.773,2.4,11.213,7.149,12.439,4.087,1.057,8.167-1.644,12.486-4.505,4.856-3.213,10.358-6.858,16.375-4.585a17.456,17.456,0,0,1,3.637,2.045,17.029,17.029,0,0,0,2.337,1.414c4.4,2.031,11.884-2.324,16.3-7.52,3.73-4.392,4.593-9.195,5.224-12.7.516-2.87,1-5.58,3.637-5.788,2.761-.214,3.917,2.683,5.346,6.36,1.61,4.14,3.613,9.3,7.581,10.343,1.791.47,3.206-.089,5.168-.864a15.469,15.469,0,0,1,9.016-1.338c5.38.944,8.374,4.373,10.355,6.641a15.886,15.886,0,0,0,1.567,1.649c.92-.918,3.789-5.957,6.414-33.442,1.756-18.388,2.877-40.872,3.7-57.288.376-7.545.7-14.06,1.007-18.676.472-7.113.615-9.26,2.987-9.3,2.754-.047,2.782-.054,5.667,42.056,1.011,14.754,2.157,31.479,3.5,48.343,4.264,53.614,7.529,71.078,9.267,76.74.207-.9.425-1.925.641-2.935a194.374,194.374,0,0,1,7.052-25.583c4.339-12.371,6.728-19.181,12.624-27.248a56.152,56.152,0,0,1,11.074-11.459,61.892,61.892,0,0,0,5.346-4.775,48.064,48.064,0,0,0,4.969-6.074,57.876,57.876,0,0,0,7.221-13.66c3.005-8.069,5.592-19.752,7.873-30.061,4.244-19.172,5.464-23.286,8.731-23.286,2.062,0,4.069,1.164,5.925,15.226.3,2.3.76,5.988,1.332,10.617,2.917,23.6,9.75,78.872,13.958,88.136.691,1.52,1.193,1.82,1.431,1.862.437.074,2.148-.6,5.03-4.57,5.291-7.294,8.643-17.627,10.861-24.464,2.273-7.007,3.118-9.673,5.627-9.575,2.863.06,3.419,3.662,4.636,11.555.584,3.777,1.621,10.5,2.775,12.586a29.736,29.736,0,0,0,2.456-3.94c1.968-3.531,3.66-6.587,6.481-6.039,1.984.383,2.523,2.233,3,3.864a14.451,14.451,0,0,0,3.168,6.162,10.968,10.968,0,0,0,2.348,2.143,8.262,8.262,0,0,0,.281-.9A65.658,65.658,0,0,1,656.123,135.7c1.937-2.119,3.911-2.954,5.874-2.482a5.716,5.716,0,0,1,3.4,2.756,36.237,36.237,0,0,1,3.684,9,40.853,40.853,0,0,0,2.451,6.636c2.2,4.321,7.415,7.873,11.674,6.269,2.27-.854,3.791-2.89,5.543-5.459,3.4-4.986,5.185-6.577,7.964-7.1,2.808-.527,5.932.768,9.286,3.832l-2.869,3.145c-2.283-2.088-4.236-3.052-5.638-2.792-1.113.209-2.079.69-5.229,5.31-1.625,2.385-3.852,5.648-7.561,7.044-6.6,2.477-13.937-2.387-16.961-8.322a44.6,44.6,0,0,1-2.727-7.321,32.55,32.55,0,0,0-3.218-7.977c-.477-.759-.727-.87-.793-.886-.189-.041-.777.159-1.743,1.216a61.386,61.386,0,0,0-14.119,25.587,5.6,5.6,0,0,1-2.555,3.842c-2.977,1.573-6.22-2.06-7.286-3.253a18.37,18.37,0,0,1-4.112-7.744c-.581.877-1.248,2.074-1.719,2.917-1.92,3.445-3.749,6.694-6.581,6.458-3.876-.325-5.022-6.492-6.569-16.53-.24-1.55-.522-3.377-.811-4.951-.391,1.137-.807,2.42-1.2,3.636-2.3,7.094-5.779,17.813-11.465,25.652-3.421,4.717-6.44,6.763-9.229,6.258-2.832-.51-4.124-3.354-4.548-4.289-4.478-9.858-11.117-63.565-14.307-89.377-.57-4.613-1.024-8.286-1.327-10.581a71.64,71.64,0,0,0-1.81-9.65c-1.32,3.82-3.035,11.565-4.476,18.074-2.313,10.444-4.934,22.281-8.041,30.627a61.869,61.869,0,0,1-7.679,14.554,52.946,52.946,0,0,1-5.45,6.664,66.239,66.239,0,0,1-5.692,5.091,51.959,51.959,0,0,0-10.342,10.684c-5.524,7.558-7.7,13.768-12.04,26.136a188.081,188.081,0,0,0-6.909,25.066c-1.242,5.839-1.808,8.5-4.508,8.547-3.043.04-7.2.105-13.8-82.9-1.344-16.886-2.49-33.624-3.5-48.388-.372-5.443-.739-10.8-1.089-15.727q-.038.781-.078,1.564c-3.608,72.384-6.913,94.552-14.15,94.883-2.095.1-3.494-1.512-4.98-3.212-1.776-2.034-3.985-4.565-7.883-5.249-2.719-.478-4.663.291-6.72,1.106-2.191.866-4.677,1.849-7.814,1.019-6.064-1.6-8.607-8.14-10.463-12.916-.225-.579-.484-1.243-.742-1.859-.03.169-.061.338-.089.5-.676,3.759-1.7,9.439-6.17,14.7-4.528,5.333-13.941,12.035-21.32,8.63a20.527,20.527,0,0,1-2.941-1.756,13.958,13.958,0,0,0-2.755-1.587c-3.982-1.5-8.13,1.245-12.525,4.152-4.677,3.1-9.976,6.609-15.9,5.077-7.289-1.886-9.435-11.9-10.244-15.669-4.1-19.146-6.445-39.135-8.156-53.729-.957-8.17-1.939-16.556-2.853-20.634-2.114,4.768-5.586,16.476-8.845,30.1-8.787,36.739-13.815,67.687-16.232,82.56l-.122.747c-10.338,63.607-10.793,63.6-13.761,63.407-3.457-.2-3.558-3.181-3.579-35.372-.013-20.808-.031-49.306-1.381-85.306-1.239-33.033-3.408-67.616-5.233-86.1-2.1,25.962-7.488,92.214-11.77,107.3a12.575,12.575,0,0,1-5,6.983c-4.46,2.91-10.612,1.432-14.136-1.438-3.723-3.028-5.474-7.459-6.584-10.98a5.958,5.958,0,0,0-1.333-2.747,1.912,1.912,0,0,0-2-.331c-2.022.671-4.345,3.534-4.972,6.127-2.009,8.3-6.143,12.485-11.326,11.48a11.269,11.269,0,0,1-5.049-2.816,10.135,10.135,0,0,0-2.731-1.828c-3.126-1.141-5.424,1.331-8.914,5.459a30.772,30.772,0,0,1-6.671,6.454c-6.821,4.3-16.2,1.445-21.326-3.8a32.151,32.151,0,0,1-8.641-18.483c-1.615-17.366-5.067-54.467-7.473-67.869a250.594,250.594,0,0,0-5.723,31.808c-1.119,8.926-1.787,16.818-2.377,23.782-1.5,17.731-2.33,27.5-8.631,28.821-4.016.839-7.862-2.649-11.261-5.726-1.4-1.266-4.681-4.245-5.474-3.883-.251.109-1.133,1.58-.53,6.333C153.888,185.869,142.39,267,138.737,271.2l-.625.718-1.059.081Z" fill="#3f5146"/>
      </g>
    </g>
  </g>
</svg>
