<svg xmlns="http://www.w3.org/2000/svg" xmlns:xlink="http://www.w3.org/1999/xlink" width="1384" height="490" viewBox="0 0 1384 490">
  <defs>
    <clipPath id="clip-path">
      <rect id="矩形_4" data-name="矩形 4" width="1384" height="490" transform="translate(0 1560.08)" fill="#ead065"/>
    </clipPath>
    <clipPath id="clip-path-2">
      <rect id="Rectangle_3385" data-name="Rectangle 3385" width="522.634" height="417.992" fill="none"/>
    </clipPath>
    <clipPath id="clip-path-4">
      <rect id="Rectangle_3387" data-name="Rectangle 3387" width="334.829" height="518.65" fill="none"/>
    </clipPath>
    <clipPath id="clip-path-5">
      <rect id="Rectangle_3388" data-name="Rectangle 3388" width="307.945" height="265.137" transform="translate(178.711 1592.657) rotate(61.108)" fill="none"/>
    </clipPath>
    <clipPath id="clip-path-6">
      <rect id="Rectangle_3389" data-name="Rectangle 3389" width="224.324" height="267.613" fill="none"/>
    </clipPath>
    <clipPath id="clip-path-7">
      <rect id="Rectangle_3391" data-name="Rectangle 3391" width="205.025" height="199.806" transform="translate(1140 1844.677) rotate(46.339)" fill="none"/>
    </clipPath>
  </defs>
  <g id="Group_867" data-name="Group 867" transform="translate(7383 -6616.08)">
    <rect id="矩形_4-2" data-name="矩形 4" width="1384" height="490" transform="translate(-7383 6616.08)" fill="#ead065"/>
    <g id="Mask_Group_19" data-name="Mask Group 19" transform="translate(-7383 5056)" clip-path="url(#clip-path)">
      <g id="群組_3" data-name="群組 3" transform="translate(0 0.08)">
        <g id="向量圖智慧型物件" transform="matrix(0.748, -0.664, 0.665, 0.748, -79.802, 2027.476)">
          <g id="Group_854" data-name="Group 854">
            <g id="Group_853" data-name="Group 853" clip-path="url(#clip-path-2)">
              <path id="Path_22076" data-name="Path 22076" d="M5.772,213.658c2.907,7.049,7.262,13.021,11.915,19,5.451,7.008,13.153,10.028,21.68,10.824,6.546.611,14.14-1.123,20.245-3.481,6.645-2.566,12.988-6.727,17.177-12.606,3.967-5.569,6.817-13.628,7.914-20.368,1.216-7.474-.359-15.371-1.793-22.723-2.481-12.711-4.9-27.778,3.871-38.632,8.108-10.035,24.157-4.89,30.541,4.639,3.29,4.912,3.769,10.176,3.526,15.875-.237,5.548-.4,11.363-1.782,16.755-1.57,6.127-3.249,12.418-5.417,18.355a62.618,62.618,0,0,0-3.736,14.149c-.393,3.623,1,7.488,2.487,10.72,1.794,3.91,4.783,6.4,7.829,9.3,3.121,2.969,6.868,4.022,10.252,5.023,11.6,3.432,24.252,7.179,36.329,2.2,16.785-6.921,29.245-29.375,27.441-47.164-.52-5.124-2.358-11.191,1.193-16.248,4.087-5.822,12.472-6.26,14.705-6.377,14.362-.752,31.9,10.25,32.744,23.3.577,8.959-6.912,15.841-16.291,24.459-17.518,16.1-26.55,13.356-34.694,24.074-10,13.165-12.3,38.257,1.684,53.545,14.816,16.2,41.832,14.748,55.008,4.758,4.377-3.319,4.339-5.389,22.932-26.127,8.436-9.411,10.218-10.954,13.043-11.356,14.938-2.127,36.452,33.776,29.076,43.585-3.916,5.207-11.035.572-20.839,6.548-17.888,10.9-16.6,41.092-16.489,43.059.279,5.037,1.7,21.106,14.044,34.337,9.569,10.262,21.732,11.885,25.584,12.407,1.942.263,22.631,2.761,35.663-10.392,9.17-9.257,4.542-16.164,15.712-29.767,4.611-5.619,11.516-14.027,21.544-14.287,8.676-.224,16.928,5.724,21.117,12.133,5.065,7.746,4.547,16.809,9.793,30.074a35.936,35.936,0,0,0,3.227,6.409,35.489,35.489,0,0,0,24.4,15.959c10.5,1.765,19.374,3.539,29.884,1.395,7.692-1.569,16.553-.77,23.527-5.048,16.893-10.362,23.424-29.713,21.485-48.795-2.99-29.434-19.538-65.97-53.072-65.215-10.247.231-21.157,1.2-26.367-9.2-2.183-4.36-6.275-9.089-6.022-14.058a10.162,10.162,0,0,1,6.549-9.1c5.651-2.4,13.1-.848,19.03-1.952,6.288-1.17,13.177-3.8,19.241-5.918,13.583-4.733,21.567-11.3,24.061-25.85,2.7-15.774-5.251-38.438-20.7-45.3-5.414-2.406-13.2-2.971-19.015-4.09a18.392,18.392,0,0,0-12.368,1.69c-14.367,7.479-29.269,14.984-43.118,23.766-8.952,5.676-14.276,16.993-25.631,18.626-6.01.865-13.047,1.88-18.37-1.759-2.042-1.4-3.754-3.551-5.66-5.129-1.81-1.5-4.677-2.964-6.094-4.875-6.962-9.388-4.012-20.575.25-29.843,6.748-14.674,24.45-17.919,37.562-24.4,13.208-6.525,31.872-16.632,31.495-33.907-.244-11.176-2.456-24.256-8.674-33.561-5.974-8.937-11.481-13.525-21.488-17.078A186.021,186.021,0,0,0,367.9,68.75c-7.455-1.458-12.185-1.027-19.034,1.574C335.938,75.233,328.249,88.716,319.585,99c-11.52,13.671-6.593,17.707-15.153,29-6.409,8.458-14.549,19.2-23.233,17.461-8.792-1.758-14.976-15.667-12.778-25.691.339-1.544,2.283-4.772,6.16-11.161,4.056-6.684,8.928-13.292,12.09-20.469,1.7-3.853,2.585-8.03,3.779-12.06,1.169-3.94,2.96-7.64,4.112-11.578a77.062,77.062,0,0,0,2.126-11.47c.826-6.129.192-11.87-.526-18.008-.552-4.713-1.614-8.421-5.092-11.928a29.833,29.833,0,0,0-10.064-6.466c-9.408-3.9-19.722-7.4-29.983-6.473-5.338.485-9.069,2.589-13.148,6.048-4.393,3.724-8.889,7.444-12.908,11.577-4.326,4.449-6.892,10.175-9.928,15.507A150.867,150.867,0,0,1,202.5,62.121c-3.137,3.96-6.949,7.272-10.628,10.7-3.294,3.071-6.318,5.986-10.579,7.673-4.745,1.879-11.713,3.036-14.558-2.339-1.753-3.313-2.267-7.31-3.03-10.93-1.178-5.578-1.545-11.142-2.244-16.788-1.21-9.779-5.547-24.008-13.631-33.487C130.406-3.483,99.769.026,95.667.557,86.139,1.793,74.035,3.362,68.055,12.43,59.981,24.673,71.168,38.3,71.3,59.577c.074,11.7-3.19,27.256-16.742,45.844-2.34,2.825-4.606,5.651-6.078,7.707-.347.486-1.464,2.112-3.166,4.166a116.114,116.114,0,0,1-9.05,9.727,125.55,125.55,0,0,0-9.631,11.6C20.866,146.3,13.4,153.125,8.574,161.47,3.963,169.45.694,177.2.086,186.5c-.614,9.4,2.141,18.56,5.686,27.154" fill="#76a578"/>
            </g>
          </g>
        </g>
        <g id="向量圖智慧型物件_拷貝" data-name="向量圖智慧型物件 拷貝" transform="matrix(0.995, -0.11, 0.11, 0.994, 753.499, 1355)">
          <g id="Group_856" data-name="Group 856">
            <g id="Group_855" data-name="Group 855" clip-path="url(#clip-path-2)">
              <path id="Path_22077" data-name="Path 22077" d="M5.772,213.658c2.907,7.049,7.262,13.021,11.915,19,5.451,7.008,13.153,10.028,21.68,10.824,6.546.611,14.14-1.123,20.245-3.481,6.645-2.566,12.988-6.727,17.177-12.606,3.967-5.569,6.817-13.628,7.914-20.368,1.216-7.474-.359-15.371-1.793-22.723-2.481-12.711-4.9-27.778,3.871-38.632,8.108-10.035,24.157-4.89,30.541,4.639,3.29,4.912,3.769,10.176,3.526,15.875-.237,5.548-.4,11.363-1.782,16.755-1.57,6.127-3.249,12.418-5.417,18.355a62.618,62.618,0,0,0-3.736,14.149c-.393,3.623,1,7.488,2.487,10.72,1.794,3.91,4.783,6.4,7.829,9.3,3.121,2.969,6.868,4.022,10.252,5.023,11.6,3.432,24.252,7.179,36.329,2.2,16.785-6.921,29.245-29.375,27.441-47.164-.52-5.124-2.358-11.191,1.193-16.248,4.087-5.822,12.472-6.26,14.705-6.377,14.362-.752,31.9,10.25,32.744,23.3.577,8.959-6.912,15.841-16.291,24.459-17.518,16.1-26.55,13.356-34.694,24.074-10,13.165-12.3,38.257,1.684,53.545,14.816,16.2,41.832,14.748,55.008,4.758,4.377-3.319,4.339-5.389,22.932-26.127,8.436-9.411,10.218-10.954,13.043-11.356,14.938-2.127,36.452,33.776,29.076,43.585-3.916,5.207-11.035.572-20.839,6.548-17.888,10.9-16.6,41.092-16.489,43.059.279,5.037,1.7,21.106,14.044,34.337,9.569,10.262,21.732,11.885,25.584,12.407,1.942.263,22.631,2.761,35.663-10.392,9.17-9.257,4.542-16.164,15.712-29.767,4.611-5.619,11.516-14.027,21.544-14.287,8.676-.224,16.928,5.724,21.117,12.133,5.065,7.746,4.547,16.809,9.793,30.074a35.936,35.936,0,0,0,3.227,6.409,35.489,35.489,0,0,0,24.4,15.959c10.5,1.765,19.374,3.539,29.884,1.395,7.692-1.569,16.553-.77,23.527-5.048,16.893-10.362,23.424-29.713,21.485-48.795-2.99-29.434-19.538-65.97-53.072-65.215-10.247.231-21.157,1.2-26.367-9.2-2.183-4.36-6.275-9.089-6.022-14.058a10.162,10.162,0,0,1,6.549-9.1c5.651-2.4,13.1-.848,19.03-1.952,6.288-1.17,13.177-3.8,19.241-5.918,13.583-4.733,21.567-11.3,24.061-25.85,2.7-15.774-5.251-38.438-20.7-45.3-5.414-2.406-13.2-2.971-19.015-4.09a18.392,18.392,0,0,0-12.368,1.69c-14.367,7.479-29.269,14.984-43.118,23.766-8.952,5.676-14.276,16.993-25.631,18.626-6.01.865-13.047,1.88-18.37-1.759-2.042-1.4-3.754-3.551-5.66-5.129-1.81-1.5-4.677-2.964-6.094-4.875-6.962-9.388-4.012-20.575.25-29.843,6.748-14.674,24.45-17.919,37.562-24.4,13.208-6.525,31.872-16.632,31.495-33.907-.244-11.176-2.456-24.256-8.674-33.561-5.974-8.937-11.481-13.525-21.488-17.078A186.021,186.021,0,0,0,367.9,68.75c-7.455-1.458-12.185-1.027-19.034,1.574C335.938,75.233,328.249,88.716,319.585,99c-11.52,13.671-6.593,17.707-15.153,29-6.409,8.458-14.549,19.2-23.233,17.461-8.792-1.758-14.976-15.667-12.778-25.691.339-1.544,2.283-4.772,6.16-11.161,4.056-6.684,8.928-13.292,12.09-20.469,1.7-3.853,2.585-8.03,3.779-12.06,1.169-3.94,2.96-7.64,4.112-11.578a77.062,77.062,0,0,0,2.126-11.47c.826-6.129.192-11.87-.526-18.008-.552-4.713-1.614-8.421-5.092-11.928a29.833,29.833,0,0,0-10.064-6.466c-9.408-3.9-19.722-7.4-29.983-6.473-5.338.485-9.069,2.589-13.148,6.048-4.393,3.724-8.889,7.444-12.908,11.577-4.326,4.449-6.892,10.175-9.928,15.507A150.867,150.867,0,0,1,202.5,62.121c-3.137,3.96-6.949,7.272-10.628,10.7-3.294,3.071-6.318,5.986-10.579,7.673-4.745,1.879-11.713,3.036-14.558-2.339-1.753-3.313-2.267-7.31-3.03-10.93-1.178-5.578-1.545-11.142-2.244-16.788-1.21-9.779-5.547-24.008-13.631-33.487C130.406-3.483,99.769.026,95.667.557,86.139,1.793,74.035,3.362,68.055,12.43,59.981,24.673,71.168,38.3,71.3,59.577c.074,11.7-3.19,27.256-16.742,45.844-2.34,2.825-4.606,5.651-6.078,7.707-.347.486-1.464,2.112-3.166,4.166a116.114,116.114,0,0,1-9.05,9.727,125.55,125.55,0,0,0-9.631,11.6C20.866,146.3,13.4,153.125,8.574,161.47,3.963,169.45.694,177.2.086,186.5c-.614,9.4,2.141,18.56,5.686,27.154" fill="#76a578"/>
            </g>
          </g>
        </g>
        <g id="向量圖智慧型物件-2" data-name="向量圖智慧型物件" transform="matrix(0.309, 0.951, -0.951, 0.308, 407.483, 1392.567)">
          <g id="Group_858" data-name="Group 858">
            <g id="Group_857" data-name="Group 857" clip-path="url(#clip-path-4)">
              <path id="Path_22078" data-name="Path 22078" d="M8.99,439.639c-2.8-6.025-4.065-12.343-5.156-18.858-1.277-7.633,1.328-14.357,5.846-20.3,3.469-4.561,9.059-8.409,14.172-10.935,5.563-2.748,11.972-4.362,18.212-3.579,5.91.74,12.755,3.669,17.725,6.943,5.509,3.63,9.643,9.3,13.51,14.56,6.687,9.092,14.92,19.537,27.05,20.316,11.215.719,17.382-12.613,15.037-22.332-1.208-5.009-4.3-8.423-8.1-11.631-3.7-3.123-7.52-6.45-11.793-8.746-4.854-2.608-9.878-5.243-14.963-7.357a54.478,54.478,0,0,1-11.273-5.952c-2.556-1.887-4.209-5.064-5.407-7.922-1.449-3.46-1.281-6.845-1.342-10.509-.064-3.755,1.472-6.78,2.824-9.542,4.638-9.466,9.7-19.8,20.015-24.607,14.337-6.684,36.08-1.426,46.42,10.229,2.979,3.358,5.784,8.118,11.121,8.824,6.143.814,11.368-4.307,12.761-5.671,8.951-8.771,12.242-26.517,4.372-34.757-5.4-5.658-14.231-4.914-25.287-3.984-20.652,1.74-24.221,9.153-35.9,8.05C84.5,300.528,67.063,287.194,65.505,269.2c-1.65-19.069,15.215-35.543,29.392-38.1,4.708-.849,6.013.4,30.274.707,11.008.14,13.048-.092,14.972-1.668,10.174-8.327-.157-43.319-10.8-44.376-5.648-.562-6.875,6.742-16.487,9.505-17.539,5.043-36.134-13.6-37.33-14.833C72.463,177.286,63,166.889,61.8,151.163c-.935-12.194,5.2-20.955,7.134-23.735.976-1.4,11.576-16.15,27.693-16.747,11.342-.423,13.041,6.624,28.351,7.486,6.321.356,15.784.889,21.864-5.392,5.26-5.433,6.313-14.238,4.676-20.707-1.981-7.823-8.1-12.839-13.506-24.031a30.926,30.926,0,0,1,1.951-30.926c5.06-7.777,9.157-14.518,16.73-20C162.233,13.107,166.946,6.949,173.8,5c16.6-4.723,32.863,2.507,43.953,15.013,17.108,19.289,30.773,51.469,10.513,72.538-6.192,6.437-13.249,12.863-9.654,22.344,1.508,3.973,2.127,9.388,5.462,12.16a8.848,8.848,0,0,0,9.7,1.17c4.873-2.208,8.268-7.9,12.473-11.058,4.459-3.343,10.21-6.209,15.141-8.853,11.046-5.921,19.965-7.168,30.762-.181,11.707,7.575,21.547,26.053,16.837,40.013-1.65,4.894-5.883,10.227-8.591,14.615a16.027,16.027,0,0,1-8.378,6.936c-13.266,4.8-26.866,9.936-40.663,13.638-8.919,2.394-19.314-.87-27.057,5.451-4.1,3.345-8.9,7.261-9.706,12.824-.309,2.135.062,4.5-.049,6.659-.107,2.045-.859,4.748-.469,6.785,1.914,10.008,10.825,14.716,19.28,17.452,13.388,4.331,25.907-5.111,37.792-9.7,11.973-4.623,29.459-10.634,40.314-.2,7.02,6.752,14.1,15.89,16.4,25.371,2.207,9.107,1.9,15.348-1.723,23.865a162.305,162.305,0,0,1-10.682,20.977c-3.461,5.644-6.527,8.423-12.233,11.282-10.773,5.4-23.952,2.375-35.652,1.867-15.559-.677-15.241-6.22-27.53-7.4-9.2-.879-20.888-2-24.9,4.6-4.057,6.677,1.212,18.853,8.936,23.359,1.189.694,4.406,1.352,10.788,2.635,6.677,1.342,13.786,2.115,20.252,4.323,3.471,1.184,6.673,3.08,9.961,4.691,3.216,1.577,6.644,2.612,9.848,4.2a67.241,67.241,0,0,1,8.606,5.4c4.417,3.088,7.725,6.882,11.235,10.965,2.7,3.136,4.448,6.005,4.646,10.306a26.031,26.031,0,0,1-1.79,10.274c-3.044,8.34-6.883,17.021-13.531,23.056-3.46,3.138-7.009,4.29-11.633,4.865-4.977.62-10.013,1.311-15.034,1.45-5.4.15-10.587-1.584-15.8-2.782a131.206,131.206,0,0,0-19.466-3.072,87.389,87.389,0,0,0-13.13.5c-3.912.3-7.564.52-11.159,2.258-4,1.935-8.853,5.723-7.084,10.721,1.09,3.08,3.349,5.767,5.22,8.394,2.882,4.049,6.232,7.568,9.44,11.347,5.555,6.547,12.119,17.727,13.43,28.508,2.824,23.242-17.494,40.828-20.253,43.146-6.41,5.384-14.555,12.222-23.9,10.708-12.61-2.045-14.751-17.266-28.311-29.907-7.456-6.952-19.355-14.04-39.264-16.315-3.192-.165-6.34-.38-8.527-.649-.516-.064-2.216-.307-4.537-.426a100.79,100.79,0,0,0-11.573.065,109.444,109.444,0,0,1-13.115-.664c-8.332-.836-17.109-.068-25.3-1.9-7.835-1.753-14.729-4.225-21.055-9.328C16.659,454.16,12.41,446.984,8.99,439.639" fill="#f7e2c4"/>
              <path id="Path_22079" data-name="Path 22079" d="M214.674,195.491c-.252,2.955.585,5.9.136,8.876a19.047,19.047,0,0,0-.117,4.4,21.616,21.616,0,0,0,.559,2.12c.23.7.516,1.374.793,2.052a21.3,21.3,0,0,0,5.238,6.967,32.842,32.842,0,0,0,7.37,4.748c1.332.618,2.676,1.208,4.059,1.711a34.591,34.591,0,0,0,4.182,1.33,24.627,24.627,0,0,0,8.649.5c5.813-.657,11.243-3.14,16.561-5.64,2.665-1.269,5.325-2.578,8.067-3.759,2.757-1.177,5.536-2.187,8.35-3.163a80.559,80.559,0,0,1,8.6-2.49,47.807,47.807,0,0,1,8.92-1.261,31.658,31.658,0,0,1,9.05.9,23.005,23.005,0,0,1,8.193,4.11c.586.493,1.2.975,1.762,1.483.535.521,1.084,1.03,1.606,1.563,1.058,1.057,2.1,2.131,3.1,3.241a79.1,79.1,0,0,1,5.676,6.969,47.446,47.446,0,0,1,7.9,16.214,43.705,43.705,0,0,1,1.465,8.97,31.37,31.37,0,0,1-.894,9.123,58.843,58.843,0,0,1-2.949,8.546q-1.688,4.138-3.586,8.189t-4.047,7.984a44.978,44.978,0,0,1-4.947,7.641,24.794,24.794,0,0,1-7.233,5.769,29.283,29.283,0,0,1-8.611,3.24c-6.046,1.236-12.145.819-18.048.257l-8.82-.893c-2.879-.261-5.922-.373-8.929-.892a34.863,34.863,0,0,1-8.777-2.686,64.215,64.215,0,0,0-7.969-3.516,40.342,40.342,0,0,0-8.463-1.529,86.661,86.661,0,0,0-8.721-.616,24.614,24.614,0,0,0-8.312,1.093,8.456,8.456,0,0,0-3.312,1.981,7.426,7.426,0,0,0-1.158,1.467,8.482,8.482,0,0,0-.7,1.775,10.6,10.6,0,0,0-.339,1.935,15.116,15.116,0,0,0,.047,2.027l.109,1.023.207,1.018a18.921,18.921,0,0,0,.542,2.019,25.188,25.188,0,0,0,3.972,7.429,23.58,23.58,0,0,0,2.841,3.111c.527.456,1.068.9,1.623,1.314a12.581,12.581,0,0,0,1.651,1.023,32.68,32.68,0,0,0,4.077,1.168l4.308.983c5.727,1.346,11.574,2.183,17.405,3.668a47.8,47.8,0,0,1,8.58,2.954c2.744,1.282,5.318,2.79,7.912,4.062,2.591,1.256,5.379,2.245,8.129,3.512a50.264,50.264,0,0,1,7.807,4.582c1.234.862,2.417,1.686,3.651,2.6,1.213.913,2.372,1.892,3.483,2.915a84.14,84.14,0,0,1,6.2,6.5,30.875,30.875,0,0,1,5.344,7.4,18.367,18.367,0,0,1,1.382,9.148,33.529,33.529,0,0,1-2.092,8.838c-.983,2.811-2.037,5.61-3.29,8.334-2.492,5.425-5.742,10.683-10.465,14.6a18.016,18.016,0,0,1-8.362,3.657c-1.494.28-2.993.4-4.454.559l-4.425.436c-2.956.264-5.927.467-8.91.482a35.172,35.172,0,0,1-8.9-1.218c-2.893-.715-5.716-1.6-8.577-2.3s-5.742-1.365-8.642-1.918c-5.8-1.058-11.664-2.02-17.57-1.7-2.949.113-5.91.291-8.86.438a23.359,23.359,0,0,0-8.615,1.841,23.515,23.515,0,0,1,8.6-2.037c2.956-.213,5.9-.455,8.859-.634,5.94-.425,11.878.452,17.711,1.416,2.922.507,5.827,1.112,8.716,1.785s5.744,1.5,8.607,2.157a34.071,34.071,0,0,0,8.656,1.045c2.936-.065,5.87-.311,8.8-.623l4.4-.489c1.478-.172,2.931-.308,4.344-.586a16.572,16.572,0,0,0,7.7-3.448c4.4-3.72,7.52-8.827,9.888-14.139,1.2-2.668,2.2-5.429,3.147-8.215a31.782,31.782,0,0,0,1.915-8.411,16.5,16.5,0,0,0-1.3-8.217,29.168,29.168,0,0,0-5.107-6.874,81.939,81.939,0,0,0-6.113-6.282c-1.076-.971-2.189-1.892-3.349-2.747-1.154-.836-2.407-1.694-3.607-2.514a49.994,49.994,0,0,0-7.5-4.363c-2.63-1.2-5.435-2.185-8.18-3.5-2.723-1.326-5.267-2.807-7.894-4.021a45.6,45.6,0,0,0-8.191-2.784c-5.649-1.422-11.543-2.252-17.345-3.592l-4.348-.978a33.857,33.857,0,0,1-4.45-1.274,13.72,13.72,0,0,1-2.129-1.282c-.633-.465-1.239-.962-1.832-1.472a26.05,26.05,0,0,1-3.151-3.422,27.63,27.63,0,0,1-4.383-8.145,21.244,21.244,0,0,1-.616-2.265l-.236-1.156-.133-1.186a17.243,17.243,0,0,1-.06-2.407,13.161,13.161,0,0,1,.414-2.431,10.993,10.993,0,0,1,.922-2.347,9.877,9.877,0,0,1,1.569-2.015,10.944,10.944,0,0,1,4.212-2.57,27.041,27.041,0,0,1,9.185-1.273,89.055,89.055,0,0,1,8.981.6,42.393,42.393,0,0,1,8.973,1.612,65.964,65.964,0,0,1,8.251,3.656,32.112,32.112,0,0,0,8.139,2.518c2.827.5,5.714.615,8.724.9l8.837.924c5.836.581,11.716.973,17.318-.161a26.727,26.727,0,0,0,7.943-2.964,22.352,22.352,0,0,0,6.592-5.206,42.9,42.9,0,0,0,4.7-7.231q2.124-3.856,4.008-7.845t3.565-8.067a56.8,56.8,0,0,0,2.872-8.217,29.139,29.139,0,0,0,.861-8.488,43.354,43.354,0,0,0-1.355-8.537A45.363,45.363,0,0,0,323.8,231.3a77.053,77.053,0,0,0-5.466-6.849c-.969-1.1-1.979-2.158-3.005-3.2-.508-.529-1.041-1.032-1.559-1.548-.531-.489-1.082-.923-1.62-1.39a21.274,21.274,0,0,0-7.522-3.867,30,30,0,0,0-8.537-.928,61.475,61.475,0,0,0-17.11,3.5c-2.785.935-5.583,1.92-8.28,3.041s-5.366,2.422-8.067,3.648c-5.384,2.421-10.959,4.875-16.989,5.461a25.505,25.505,0,0,1-8.958-.663,35.446,35.446,0,0,1-4.25-1.428c-1.39-.532-2.746-1.153-4.089-1.8a33.454,33.454,0,0,1-7.43-4.961,21.686,21.686,0,0,1-5.234-7.212c-.268-.7-.542-1.394-.76-2.106a21.787,21.787,0,0,1-.524-2.183,19.254,19.254,0,0,1,.213-4.457c.511-2.93-.259-5.9.057-8.855" fill="#2b2b2b"/>
              <path id="Path_22080" data-name="Path 22080" d="M138.926,229.218a9.979,9.979,0,0,0,2.359-3.249,16.858,16.858,0,0,0,1.165-3.855,31.7,31.7,0,0,0,.217-8.052,54.579,54.579,0,0,0-3.863-15.616,42.59,42.59,0,0,0-3.683-7.131,22.63,22.63,0,0,0-2.445-3.132,10.906,10.906,0,0,0-3.041-2.4,5.4,5.4,0,0,0-3.59-.54,7.075,7.075,0,0,0-3.226,1.866,43.411,43.411,0,0,1-6.185,5.37,23.1,23.1,0,0,1-16.033,3.14A42.58,42.58,0,0,1,85.258,189.8a67.336,67.336,0,0,1-12.974-10.042,52.556,52.556,0,0,1-9.514-13.428,50.07,50.07,0,0,1-2.988-7.724,48.737,48.737,0,0,1-1.554-8.152,35.1,35.1,0,0,1,2.483-16.4,43.519,43.519,0,0,1,9.1-13.833A41.884,41.884,0,0,1,83.3,110.6a30.133,30.133,0,0,1,8.094-2.258,24.027,24.027,0,0,1,8.48.247,37.369,37.369,0,0,1,7.79,3.018,38.567,38.567,0,0,0,7.364,2.734,42.346,42.346,0,0,0,7.778,1.069,62.539,62.539,0,0,0,7.943.01,24.037,24.037,0,0,0,7.481-1.676,15.124,15.124,0,0,0,5.963-4.384c3.167-3.886,4.429-9.23,4.157-14.336a21.349,21.349,0,0,0-1.707-7.434,41.3,41.3,0,0,0-3.944-6.8,108.128,108.128,0,0,1-8.623-13.918,32.265,32.265,0,0,1,1.416-32.126A124.3,124.3,0,0,1,144.8,21.271a44.893,44.893,0,0,1,5.881-5.858c1.068-.9,2.21-1.7,3.21-2.5,1.03-.818,2.024-1.711,3.032-2.6a80.724,80.724,0,0,1,6.284-5.288,21.335,21.335,0,0,1,7.573-3.691,38.651,38.651,0,0,1,16.47-.785,43.879,43.879,0,0,1,15.4,5.748,55.251,55.251,0,0,1,12.61,10.475,95.816,95.816,0,0,1,9.775,13.07c5.683,9.241,10.014,19.554,11.063,30.441a40.5,40.5,0,0,1-1.642,16.138,35.364,35.364,0,0,1-3.4,7.385,40.672,40.672,0,0,1-4.976,6.4,40.45,40.45,0,0,0,4.807-6.5,34.973,34.973,0,0,0,3.19-7.4,40.043,40.043,0,0,0,1.332-15.954c-1.225-10.712-5.683-20.814-11.454-29.827-5.844-8.962-12.876-17.479-22.141-22.812C192.7,2.284,181.482.324,171.307,3.263c-5.043,1.256-8.947,5.039-12.927,8.669-1.008.913-2.025,1.828-3.109,2.7-1.106.891-2.177,1.646-3.177,2.494a42.532,42.532,0,0,0-5.574,5.594,122.063,122.063,0,0,0-9.068,13.24,29.9,29.9,0,0,0-1.207,29.825,105.975,105.975,0,0,0,8.507,13.6,43.435,43.435,0,0,1,4.2,7.2,23.906,23.906,0,0,1,1.94,8.286,26.206,26.206,0,0,1-.847,8.447A20.537,20.537,0,0,1,146.2,111a17.716,17.716,0,0,1-6.979,5.107,26.562,26.562,0,0,1-8.277,1.837,65.032,65.032,0,0,1-8.26-.035,44.782,44.782,0,0,1-8.255-1.17,40.992,40.992,0,0,1-7.8-2.921,35.239,35.239,0,0,0-7.279-2.873,21.608,21.608,0,0,0-7.642-.237,27.66,27.66,0,0,0-7.476,2.058,39.553,39.553,0,0,0-12.765,9.045,41.222,41.222,0,0,0-8.673,13.078,33.2,33.2,0,0,0-2.4,15.367,46.441,46.441,0,0,0,1.4,7.781,47.937,47.937,0,0,0,2.778,7.42A50.667,50.667,0,0,0,73.587,178.5,65.661,65.661,0,0,0,86.1,188.4a41.117,41.117,0,0,0,14.718,5.786,21.84,21.84,0,0,0,15.136-2.767,42.657,42.657,0,0,0,6.127-5.143,8.123,8.123,0,0,1,3.757-2.052,6.424,6.424,0,0,1,4.247.7,11.787,11.787,0,0,1,3.253,2.648,23.344,23.344,0,0,1,2.481,3.3,43.249,43.249,0,0,1,3.622,7.327,54.89,54.89,0,0,1,3.616,15.841,31.994,31.994,0,0,1-.413,8.117,17.082,17.082,0,0,1-1.269,3.863,10.066,10.066,0,0,1-2.448,3.206" fill="#2b2b2b"/>
              <path id="Path_22081" data-name="Path 22081" d="M67.507,469.071c-7.383-.627-14.819-.047-22.2-1.013-7.311-1.151-14.622-3.167-21.009-7.1a39.232,39.232,0,0,1-8.585-7.155,53.863,53.863,0,0,1-6.517-9.089,61.481,61.481,0,0,1-7.959-20.828c-.373-1.837-.751-3.616-1.024-5.511a23.751,23.751,0,0,1-.074-5.706,26.9,26.9,0,0,1,3.691-10.71A34.859,34.859,0,0,1,7.071,397.3a32.932,32.932,0,0,1,4.03-4,49.345,49.345,0,0,1,9.426-6.185,37.632,37.632,0,0,1,10.735-3.6,28.4,28.4,0,0,1,11.372.35,48.123,48.123,0,0,1,10.613,3.908,44.646,44.646,0,0,1,4.907,2.855,34.52,34.52,0,0,1,4.425,3.616c5.48,5.29,9.4,11.695,14.174,17.229a54.833,54.833,0,0,0,7.735,7.637,27.018,27.018,0,0,0,9.391,4.908c3.414.879,7.039,1.123,10.052-.438a14.914,14.914,0,0,0,6.765-7.5,22.012,22.012,0,0,0,1.478-5.034,19.691,19.691,0,0,0,.133-5.226,16.688,16.688,0,0,0-4.187-9.348,33.034,33.034,0,0,0-3.859-3.721c-1.416-1.178-2.84-2.37-4.269-3.512a48.777,48.777,0,0,0-9.076-5.964c-3.273-1.714-6.556-3.383-9.895-4.9-3.3-1.513-6.843-2.764-10.212-4.523a40.272,40.272,0,0,1-4.921-2.93,14.65,14.65,0,0,1-4.069-4.417,29.771,29.771,0,0,1-2.568-5.23,20.643,20.643,0,0,1-1.067-5.8c-.056-.958-.078-1.9-.1-2.826l-.032-1.381c-.009-.5,0-1.011.032-1.516a18.374,18.374,0,0,1,1.463-5.76c.751-1.8,1.58-3.421,2.374-5.106s1.636-3.353,2.5-5.016a58.3,58.3,0,0,1,6.126-9.552,32.086,32.086,0,0,1,8.636-7.607,31.069,31.069,0,0,1,10.866-3.8,44.158,44.158,0,0,1,11.4-.256,47.61,47.61,0,0,1,11.1,2.466,47.069,47.069,0,0,1,10.239,4.976c.781.553,1.575,1.084,2.341,1.654l2.209,1.844c.7.664,1.363,1.359,2.044,2.039s1.267,1.437,1.859,2.146c2.315,2.839,4.72,5.594,7.943,6.343a9.789,9.789,0,0,0,4.886-.153,15.648,15.648,0,0,0,4.6-2.3,22.94,22.94,0,0,0,3.947-3.535l.887-.98.8-1.065a22.191,22.191,0,0,0,1.477-2.217,30.4,30.4,0,0,0,4.048-20.555,14.876,14.876,0,0,0-4.917-8.849c-2.637-2.171-6.192-2.969-9.757-3.179a77.289,77.289,0,0,0-10.938.343,93.243,93.243,0,0,0-10.9,1.373,64.258,64.258,0,0,0-10.516,3.007c-3.438,1.242-6.826,2.9-10.626,3.662a25.533,25.533,0,0,1-11.391-.411,39.733,39.733,0,0,1-10.466-4.3,41.855,41.855,0,0,1-15.7-15.939,32.285,32.285,0,0,1-3.587-10.714,32.739,32.739,0,0,1-.362-5.661l.23-2.829c.078-.943.335-1.86.495-2.79a36.459,36.459,0,0,1,4.1-10.482,43.973,43.973,0,0,1,6.926-8.828,39.822,39.822,0,0,1,8.977-6.689,30.482,30.482,0,0,1,10.59-3.584,35.382,35.382,0,0,1,5.6.068l5.544.324c3.7.192,7.4.319,11.1.41s7.405.152,11.107.169c1.851,0,3.7-.007,5.549-.125,1.811-.142,3.782-.321,5.214-1.576-1.414,1.277-3.4,1.489-5.207,1.655-1.849.144-3.7.179-5.554.2q-5.558.055-11.113-.009c-3.7-.039-7.409-.112-11.113-.251l-5.553-.246a34.954,34.954,0,0,0-5.5.01,29.8,29.8,0,0,0-10.273,3.647,38.948,38.948,0,0,0-8.693,6.672,42.932,42.932,0,0,0-6.631,8.7,35.243,35.243,0,0,0-3.82,10.188c-.14.9-.374,1.781-.443,2.685l-.2,2.713a31.528,31.528,0,0,0,.391,5.411A30.838,30.838,0,0,0,65.9,278.338a40.313,40.313,0,0,0,15.236,15.217,38.1,38.1,0,0,0,10.044,4.033,23.8,23.8,0,0,0,10.62.312c3.488-.716,6.818-2.361,10.322-3.666a66.118,66.118,0,0,1,10.8-3.181,95.628,95.628,0,0,1,11.117-1.5,79.324,79.324,0,0,1,11.25-.436,25.29,25.29,0,0,1,5.72.911,15.332,15.332,0,0,1,5.293,2.712,17.1,17.1,0,0,1,5.732,10.138,29.757,29.757,0,0,1-.169,11.492,34.022,34.022,0,0,1-4.1,10.686,23.981,23.981,0,0,1-1.6,2.408l-.868,1.162-.972,1.083a25.255,25.255,0,0,1-4.306,3.87,17.993,17.993,0,0,1-5.3,2.65,12.177,12.177,0,0,1-6.094.192,12.651,12.651,0,0,1-5.329-2.9,36.954,36.954,0,0,1-3.9-4.212c-.6-.711-1.164-1.411-1.784-2.049l-1.894-1.88-2.063-1.712c-.721-.53-1.468-1.028-2.2-1.543a44.6,44.6,0,0,0-9.706-4.683A45.2,45.2,0,0,0,101.2,315.13c-7.123-.7-14.622.151-20.726,3.772a29.487,29.487,0,0,0-7.925,7.034,56.4,56.4,0,0,0-5.832,9.146q-1.276,2.43-2.474,4.925c-.79,1.664-1.645,3.343-2.327,4.966a15.866,15.866,0,0,0-1.29,4.963c-.029.42-.036.832-.029,1.261l.029,1.4c.017.926.035,1.836.086,2.73a18.088,18.088,0,0,0,.912,5.1,27.534,27.534,0,0,0,2.313,4.738,12.145,12.145,0,0,0,3.387,3.716,37.973,37.973,0,0,0,4.613,2.761c3.2,1.686,6.664,2.92,10.092,4.5,3.4,1.556,6.722,3.254,10.006,4.986a51.259,51.259,0,0,1,9.445,6.241c1.463,1.174,2.878,2.365,4.3,3.56a35.347,35.347,0,0,1,4.121,4,19.087,19.087,0,0,1,4.715,10.632,22.688,22.688,0,0,1-1.825,11.451,17.178,17.178,0,0,1-7.873,8.612,13.087,13.087,0,0,1-5.844,1.347,22.072,22.072,0,0,1-5.79-.788,29.214,29.214,0,0,1-10.167-5.329,55.017,55.017,0,0,1-8.025-7.981c-4.847-5.731-8.712-12.125-13.9-17.2a34.549,34.549,0,0,0-8.811-6.208,46.2,46.2,0,0,0-10.162-3.837c-7.007-1.8-14.49-.276-20.964,2.945-6.48,3.276-12.572,7.768-16.177,14.126A25.5,25.5,0,0,0,1.5,412.822a22.394,22.394,0,0,0,.027,5.381c.242,1.776.615,3.63.95,5.429a60.407,60.407,0,0,0,7.542,20.607,53.005,53.005,0,0,0,6.285,9.037,38.527,38.527,0,0,0,8.33,7.144c6.219,3.96,13.469,6.078,20.718,7.324,7.324,1.066,14.785.6,22.158,1.326" fill="#2b2b2b"/>
              <path id="Path_22082" data-name="Path 22082" d="M230.271,85.076c-2.258,1.859-4.564,3.67-6.671,5.683a21.738,21.738,0,0,0-5.184,6.866,13.022,13.022,0,0,0-.7,8.332c.674,2.9.867,5.852,1.642,8.581a10.752,10.752,0,0,0,1.76,3.7,8.3,8.3,0,0,0,3.169,2.436,9.32,9.32,0,0,0,7.837-.53,37.325,37.325,0,0,0,6.949-4.987c1.13-.936,2.28-1.879,3.522-2.743a31.284,31.284,0,0,1,3.914-2.262,162.65,162.65,0,0,1,16.392-6.6,45.6,45.6,0,0,1,8.721-2.163,25.169,25.169,0,0,1,17.54,3.9,35.018,35.018,0,0,1,6.927,5.848,43.252,43.252,0,0,1,2.875,3.5c.83,1.256,1.716,2.481,2.428,3.807.789,1.283,1.411,2.655,2.08,4,.565,1.392,1.211,2.756,1.649,4.2a41.144,41.144,0,0,1,1.989,8.81,32.623,32.623,0,0,1-.155,9.087,25.391,25.391,0,0,1-3,8.676,47.5,47.5,0,0,1-5.481,7.138l-2.948,3.259c-1,1.083-1.838,2.146-2.928,3.317a17.628,17.628,0,0,1-7.9,4.83c-.375.108-.759.205-1.137.287l-1.041.238-2.1.541-4.213,1.157-8.436,2.374-33.7,9.77-8.468,2.331c-.711.186-1.417.371-2.148.534a4.3,4.3,0,0,1-.631.105c0,.112-.646-.26-.5-.438-.049-.238.342-.523.282-.455l.164-.074.278-.1,1.06-.346,4.218-1.234c5.629-1.6,11.28-3.115,16.938-4.605L228.524,187.1l-4.157,1.369-1.015.368-.231.095-.086.042c-.1.082.261-.159.174-.371.109-.15-.437-.514-.407-.4.065-.008.291-.06.444-.1.691-.179,1.394-.387,2.09-.6l8.368-2.608,33.5-10.466c5.576-1.7,11.229-3.5,16.867-4.838a15.354,15.354,0,0,0,6.864-4.266c.9-.974,1.877-2.213,2.856-3.28l2.917-3.271a45.184,45.184,0,0,0,5.158-6.789,22.953,22.953,0,0,0,2.637-7.844,35.344,35.344,0,0,0-1.84-16.671c-.4-1.365-1.007-2.657-1.53-3.978-.626-1.277-1.2-2.579-1.94-3.8-.665-1.26-1.493-2.414-2.266-3.605a40.784,40.784,0,0,0-2.67-3.293c-3.762-4.133-8.63-7.564-14.029-8.785-5.432-1.29-11.194-.181-16.606,1.654-2.7.936-5.5,1.993-8.213,2.973-2.73,1-5.431,2.057-8.025,3.295a29.225,29.225,0,0,0-3.72,2.046c-1.176.781-2.31,1.673-3.451,2.579a38.716,38.716,0,0,1-7.39,5.056,10.861,10.861,0,0,1-9.129.386,9.706,9.706,0,0,1-3.66-2.932,11.7,11.7,0,0,1-1.9-4.21c-.724-2.943-.808-5.883-1.373-8.707a13.878,13.878,0,0,1,1.03-8.819,22.131,22.131,0,0,1,5.544-6.871c2.215-1.933,4.6-3.636,6.935-5.394" fill="#2b2b2b"/>
            </g>
          </g>
        </g>
        <g id="向量圖智慧型物件-3" data-name="向量圖智慧型物件">
          <g id="Group_860" data-name="Group 860">
            <g id="Group_859" data-name="Group 859" clip-path="url(#clip-path-5)">
              <path id="Path_22083" data-name="Path 22083" d="M-6.581,1803.3a46.728,46.728,0,0,0,8.1,9.833c3.584,3.549,8.151,4.694,13.023,4.528a27.085,27.085,0,0,0,11.18-3.417,21.31,21.31,0,0,0,8.788-8.33,29.365,29.365,0,0,0,2.994-12.029c.147-4.292-1.312-8.621-2.654-12.654-2.32-6.973-4.775-15.276-.607-22.014,3.852-6.23,13.286-4.491,17.579.41,2.213,2.527,2.864,5.454,3.139,8.677a46.252,46.252,0,0,1,.2,9.555c-.443,3.56-.937,7.22-1.731,10.716a35.424,35.424,0,0,0-1.086,8.228,12.121,12.121,0,0,0,2.179,5.852c1.3,2.072,3.163,3.255,5.093,4.667a13.349,13.349,0,0,0,6.151,2.087c6.795,1.1,14.212,2.292,20.671-1.38,8.978-5.1,14.39-18.633,12.084-28.511-.664-2.845-2.14-6.126-.5-9.227,1.888-3.57,6.59-4.42,7.842-4.646,8.056-1.459,18.755,3.468,20.173,10.749.975,5-2.757,9.411-7.431,14.934-8.727,10.319-14.025,9.427-17.847,16.044-4.7,8.126-4.178,22.408,4.821,30,9.537,8.048,24.685,5.282,31.4-1.288,2.23-2.181,2.059-3.343,11.058-16.349,4.084-5.9,4.978-6.9,6.544-7.328,8.28-2.274,23.024,16.376,19.568,22.426-1.834,3.212-6.189,1.117-11.292,5.184-9.313,7.423-6.4,24.315-6.2,25.413.522,2.815,2.488,11.752,10.413,18.307a23.766,23.766,0,0,0,15.342,5.136c1.115.01,12.978-.076,19.385-8.414,4.508-5.868,1.4-9.421,6.719-17.88,2.2-3.492,5.488-8.721,11.132-9.589,4.882-.75,9.971,2,12.8,5.306,3.421,3.993,3.783,9.129,7.7,16.214a20.167,20.167,0,0,0,17.216,10.595c6.055.236,11.2.595,16.974-1.368,4.231-1.438,9.291-1.627,12.919-4.536,8.789-7.047,11.079-18.4,8.6-29-3.816-16.344-15.8-35.708-34.681-32.868-5.768.869-11.859,2.2-15.552-3.274-1.549-2.3-4.2-4.662-4.417-7.476a5.763,5.763,0,0,1,3.04-5.594c3.016-1.758,7.335-1.419,10.6-2.467a79.729,79.729,0,0,0,10.436-4.716c7.328-3.641,11.361-7.912,11.716-16.276.386-9.069-5.743-21.247-14.96-24-3.23-.963-7.671-.72-11.032-.931a10.491,10.491,0,0,0-6.862,1.842c-7.571,5.242-15.442,10.538-22.627,16.476-4.645,3.838-6.832,10.59-13.125,12.326-3.33.919-7.23,2-10.5.334-1.253-.639-2.376-1.728-3.566-2.479-1.131-.713-2.855-1.33-3.794-2.3-4.61-4.781-3.753-11.287-2.016-16.807,2.75-8.743,12.51-11.844,19.444-16.431,6.986-4.622,16.794-11.653,15.332-21.345-.945-6.269-3.14-13.469-7.324-18.256-4.019-4.6-7.46-6.782-13.366-8.061a106.348,106.348,0,0,0-15.214-2.214,17.386,17.386,0,0,0-10.633,2.256c-6.945,3.693-10.312,11.833-14.461,18.241-5.516,8.52-2.442,10.437-6.458,17.408-3.009,5.22-6.828,11.849-11.857,11.5-5.091-.356-9.588-7.735-9.071-13.534.078-.893.943-2.849,2.67-6.723,1.807-4.053,4.081-8.121,5.346-12.385a56.657,56.657,0,0,0,1.263-7.057c.375-2.3,1.119-4.512,1.484-6.811a43.623,43.623,0,0,0,.372-6.6,39.789,39.789,0,0,0-1.6-10.094c-.652-2.612-1.521-4.621-3.737-6.344a17.015,17.015,0,0,0-6.151-2.913c-5.595-1.519-11.67-2.746-17.4-1.482a12.66,12.66,0,0,0-6.986,4.35c-2.211,2.412-4.481,4.828-6.451,7.443-2.12,2.814-3.156,6.221-4.484,9.44a85.409,85.409,0,0,1-5.716,11.5,56.647,56.647,0,0,1-5.228,6.787c-1.637,1.965-3.134,3.823-5.417,5.079-2.543,1.4-6.394,2.552-8.389-.267a23.5,23.5,0,0,1-2.5-5.931c-1.069-3.053-1.678-6.158-2.48-9.284-1.391-5.413-4.868-13.106-10.118-17.857-11.318-10.243-28.363-6.062-30.639-5.466-5.29,1.38-12.012,3.136-14.733,8.668-3.673,7.47,3.629,14.332,5.243,26.291.887,6.575.169,15.563-6.139,27-1.117,1.758-2.192,3.51-2.875,4.774-.16.3-.673,1.293-1.486,2.572a66.209,66.209,0,0,1-4.406,6.124,70.958,70.958,0,0,0-4.6,7.218c-2.7,4.741-6.427,9.116-8.546,14.158-2.026,4.822-3.312,9.415-2.983,14.7.332,5.331,2.55,10.288,5.174,14.868" fill="#f7e2c4"/>
              <path id="Path_22084" data-name="Path 22084" d="M201.207,1785.847c-1.7-.933-3.006-2.451-4.76-3.266a12.533,12.533,0,0,1-2.477-1.553,13.876,13.876,0,0,1-1.829-2.3,14.162,14.162,0,0,1-1.907-5.522,21.821,21.821,0,0,1,.134-5.85,30.971,30.971,0,0,1,1.407-5.684,16.828,16.828,0,0,1,3.038-5.08c2.605-3.029,6.032-5.1,9.349-7.067,1.671-.985,3.359-1.91,4.972-2.927s3.18-2.129,4.719-3.258a39.818,39.818,0,0,0,8.237-7.738,19.184,19.184,0,0,0,2.664-4.8,13.438,13.438,0,0,0,.741-5.309c-.045-.45-.068-.889-.129-1.348l-.24-1.4c-.173-.932-.358-1.861-.578-2.781a49.808,49.808,0,0,0-1.589-5.431,29.036,29.036,0,0,0-5.459-9.653,21.5,21.5,0,0,0-8.716-6.526,36.642,36.642,0,0,0-5.4-1.538q-2.8-.638-5.623-1.13c-1.883-.326-3.771-.6-5.666-.81a27.542,27.542,0,0,0-5.53-.216,14.172,14.172,0,0,0-5.093,1.5,16.934,16.934,0,0,0-4.452,3.027,37.676,37.676,0,0,0-6.526,9.03l-2.842,5.049c-1,1.731-2.01,3.281-2.794,4.938a20.441,20.441,0,0,0-1.685,5.145,43.075,43.075,0,0,1-1.177,5.823,28.027,28.027,0,0,1-2.578,5.471,58.875,58.875,0,0,1-3.105,5.04,18.109,18.109,0,0,1-4.283,4.526,7.085,7.085,0,0,1-6.7,1.011,11.383,11.383,0,0,1-5.027-4.067,18.437,18.437,0,0,1-2.755-5.547,17.509,17.509,0,0,1-.649-3.049c-.049-.524-.085-1.051-.095-1.581a9.386,9.386,0,0,1,.135-1.726,22.573,22.573,0,0,1,1.028-2.918l1.129-2.684c1.487-3.6,3.278-7.05,4.643-10.548a29.172,29.172,0,0,0,1.593-5.312c.342-1.826.516-3.726.844-5.7.344-1.986.884-3.848,1.231-5.67a32.1,32.1,0,0,0,.51-5.55,36.991,36.991,0,0,0-.154-5.615,52.509,52.509,0,0,0-1.012-5.57,18.566,18.566,0,0,0-1.674-5.195,10.366,10.366,0,0,0-3.739-3.658,20.405,20.405,0,0,0-5.112-2.124c-1.831-.55-3.671-1.056-5.529-1.429a25.264,25.264,0,0,0-11.121-.105,10.532,10.532,0,0,0-4.629,2.706c-1.312,1.282-2.589,2.809-3.877,4.211-1.278,1.432-2.522,2.885-3.666,4.408a21.952,21.952,0,0,0-2.714,4.932l-2.131,5.373c-.742,1.787-1.528,3.557-2.372,5.3a49.433,49.433,0,0,1-6,9.932l-3.717,4.444a15.353,15.353,0,0,1-4.365,3.777,15.3,15.3,0,0,0,4.2-3.91l3.548-4.567a49.087,49.087,0,0,0,5.664-9.985c.791-1.751,1.524-3.526,2.212-5.318l1.985-5.435a23.11,23.11,0,0,1,2.713-5.247c1.133-1.593,2.36-3.109,3.611-4.589,1.283-1.474,2.466-2.929,3.886-4.374a12.078,12.078,0,0,1,5.222-3.154,26.849,26.849,0,0,1,11.882-.111c1.94.356,3.841.846,5.719,1.377a22.308,22.308,0,0,1,5.594,2.233,12.344,12.344,0,0,1,4.5,4.3,20.449,20.449,0,0,1,1.984,5.724,55.386,55.386,0,0,1,1.147,5.782,39.334,39.334,0,0,1,.265,5.925,33.008,33.008,0,0,1-.508,5.948c-.368,1.965-.892,3.816-1.194,5.632s-.462,3.772-.818,5.738a31.513,31.513,0,0,1-1.686,5.756c-1.422,3.694-3.178,7.11-4.615,10.645l-1.1,2.653a20.867,20.867,0,0,0-.891,2.531,8.093,8.093,0,0,0-.064,1.151c.01.432.043.868.085,1.3a14.8,14.8,0,0,0,.569,2.59,15.9,15.9,0,0,0,2.387,4.75,8.843,8.843,0,0,0,3.829,3.137,4.356,4.356,0,0,0,4.262-.724,15.638,15.638,0,0,0,3.588-3.882,56.189,56.189,0,0,0,2.932-4.823,25.924,25.924,0,0,0,2.334-4.974,41.261,41.261,0,0,0,1.126-5.494,23.14,23.14,0,0,1,1.934-5.8c.877-1.827,1.987-3.511,2.922-5.116l2.859-5.015a40.068,40.068,0,0,1,7.058-9.6,19.624,19.624,0,0,1,5.106-3.434,16.724,16.724,0,0,1,5.977-1.715,29.88,29.88,0,0,1,6.039.251c1.948.227,3.885.519,5.81.863s3.839.743,5.741,1.186a39.1,39.1,0,0,1,5.733,1.674,20.966,20.966,0,0,1,5.31,3.026,28.523,28.523,0,0,1,4.286,4.222,31.23,31.23,0,0,1,5.7,10.452,51.2,51.2,0,0,1,1.563,5.684c.213.957.391,1.921.552,2.886l.223,1.452c.058.5.083,1.021.124,1.53a15.317,15.317,0,0,1-.944,6.04,20.944,20.944,0,0,1-3.005,5.229,41.386,41.386,0,0,1-8.707,7.935c-1.593,1.129-3.182,2.219-4.869,3.245-1.676,1.01-3.382,1.93-5.069,2.858-3.346,1.865-6.707,3.787-9.238,6.585a15.853,15.853,0,0,0-2.993,4.711,30.17,30.17,0,0,0-1.514,5.483,21.258,21.258,0,0,0-.283,5.667,13.75,13.75,0,0,0,1.693,5.375,13.594,13.594,0,0,0,1.686,2.283,12.284,12.284,0,0,0,2.365,1.6c1.752.9,3,2.458,4.658,3.447" fill="#2b2b2b"/>
              <path id="Path_22085" data-name="Path 22085" d="M154.622,1813.41a8.048,8.048,0,0,1,5.186.647,20.936,20.936,0,0,1,4.515,2.807,35.767,35.767,0,0,1,7.143,7.864,28.341,28.341,0,0,1,2.577,4.693,15.24,15.24,0,0,1,.842,2.583,7.813,7.813,0,0,1,.2,2.79,4.382,4.382,0,0,1-1.281,2.65,5.528,5.528,0,0,1-2.606,1.293,27.754,27.754,0,0,0-5.01,1.338,12.2,12.2,0,0,0-4.108,2.817l-.457.43-.39.494-.781.985a23.981,23.981,0,0,0-1.279,2.176,26.815,26.815,0,0,0-2.413,9.884,42.463,42.463,0,0,0,.577,10.275,32.491,32.491,0,0,0,3.528,9.569,28.452,28.452,0,0,0,6.455,7.792,21.312,21.312,0,0,0,8.91,4.393,26.541,26.541,0,0,0,10.065.292,25.434,25.434,0,0,0,9.457-3.325,17.63,17.63,0,0,0,3.814-3.116,13.641,13.641,0,0,0,2.662-4.007,22.458,22.458,0,0,0,1.183-4.845,27.01,27.01,0,0,1,1.41-5.339,29.777,29.777,0,0,1,2.535-4.92,43.018,43.018,0,0,1,3.135-4.458,17.872,17.872,0,0,1,4.226-3.821,12.137,12.137,0,0,1,5.6-1.875,15.911,15.911,0,0,1,10.734,3.695,16.137,16.137,0,0,1,3.8,4.284,28.8,28.8,0,0,1,2.291,5.031c2.352,6.59,4.782,13.317,10.566,16.874a19.418,19.418,0,0,0,9.358,3.049,79.845,79.845,0,0,0,10.412.175,27.414,27.414,0,0,0,5.006-.836c.814-.206,1.6-.484,2.523-.745.887-.251,1.765-.45,2.636-.638,3.459-.739,6.857-1.369,9.341-3.483a25.119,25.119,0,0,0,9.088-17.592,34.472,34.472,0,0,0-.636-10.247,66.387,66.387,0,0,0-3.063-9.964,53.987,53.987,0,0,0-4.732-9.3,36.931,36.931,0,0,0-6.7-7.977,25.2,25.2,0,0,0-8.917-5.339,24.862,24.862,0,0,0-10.4-1.077,25.094,25.094,0,0,1,10.532.68,25.707,25.707,0,0,1,9.271,5.184,37.853,37.853,0,0,1,7.092,7.953,55.1,55.1,0,0,1,5.115,9.359,65.632,65.632,0,0,1,3.329,10.141,36.128,36.128,0,0,1,.858,10.734,27.053,27.053,0,0,1-9.478,19.084,14.4,14.4,0,0,1-4.954,2.722,53.715,53.715,0,0,1-5.228,1.378c-.85.206-1.7.4-2.506.633-.778.222-1.655.534-2.551.768a29.993,29.993,0,0,1-5.423.941,82.056,82.056,0,0,1-10.761-.109,21.558,21.558,0,0,1-18.06-11.574,70.724,70.724,0,0,1-4.2-9.874,26.232,26.232,0,0,0-2.1-4.56,14.17,14.17,0,0,0-12.046-6.618c-3.1.174-5.834,2.1-7.94,4.667a40.259,40.259,0,0,0-2.961,4.168,26.962,26.962,0,0,0-2.327,4.441,24.359,24.359,0,0,0-1.3,4.845,24.753,24.753,0,0,1-1.373,5.377,16.139,16.139,0,0,1-3.171,4.738,20.133,20.133,0,0,1-4.367,3.531,27.9,27.9,0,0,1-10.408,3.606,28.956,28.956,0,0,1-10.982-.389,23.321,23.321,0,0,1-9.863-4.961,30.683,30.683,0,0,1-6.814-8.526,34.493,34.493,0,0,1-3.569-10.233,44.2,44.2,0,0,1-.416-10.765,28.44,28.44,0,0,1,2.765-10.451,25.93,25.93,0,0,1,1.439-2.348l.88-1.071.441-.533.513-.47a13.244,13.244,0,0,1,4.623-3.028,28.611,28.611,0,0,1,5.241-1.249,4.43,4.43,0,0,0,2.118-.945,3.316,3.316,0,0,0,1.016-1.982,10.236,10.236,0,0,0-.835-4.9,27.506,27.506,0,0,0-2.368-4.624,35.4,35.4,0,0,0-6.795-7.94,20.678,20.678,0,0,0-4.337-2.938,7.957,7.957,0,0,0-5.1-.835" fill="#2b2b2b"/>
              <path id="Path_22086" data-name="Path 22086" d="M-.161,1761.145c-2.365,4.209-5.411,8.024-7.57,12.319a36.307,36.307,0,0,0-3.858,13.724,28.087,28.087,0,0,0,3.134,13.755,45.969,45.969,0,0,0,3.529,6.206,45.953,45.953,0,0,0,4.6,5.459c.829.846,1.69,1.75,2.528,2.526a14.386,14.386,0,0,0,2.809,1.993,16.389,16.389,0,0,0,6.638,1.85c4.679.458,9.3-1.078,13.453-3.28,4.108-2.216,7.664-5.562,9.3-9.876a29.61,29.61,0,0,0,1.751-6.756,22,22,0,0,0,0-6.9c-.74-4.59-2.694-9.037-3.94-13.8a35.9,35.9,0,0,1-1.244-7.355A19.416,19.416,0,0,1,32,1763.417a14.785,14.785,0,0,1,1.825-3.487A9.005,9.005,0,0,1,36.9,1757.2a11.727,11.727,0,0,1,7.881-1,15.291,15.291,0,0,1,7.018,3.444,12.891,12.891,0,0,1,4.038,6.744,23.425,23.425,0,0,1,.591,3.771l.274,3.637a33.834,33.834,0,0,1-.239,7.461c-.318,2.4-.665,4.812-1.122,7.219-.459,2.445-1.1,4.733-1.406,7.033a24.053,24.053,0,0,0-.263,3.417,7.353,7.353,0,0,0,.663,3,17.489,17.489,0,0,0,1.6,2.909,11.316,11.316,0,0,0,2.275,2.3c.446.354.921.7,1.408,1.058l.738.544c.214.155.42.295.64.429a9.9,9.9,0,0,0,2.975,1.115c1.086.239,2.315.418,3.5.622s2.364.377,3.539.532c4.666.621,9.428.68,13.532-1.17,4.1-1.813,7.327-5.39,9.608-9.368a29.458,29.458,0,0,0,3.869-13.163,20.715,20.715,0,0,0-.806-6.776,24.572,24.572,0,0,1-.784-3.732,8.694,8.694,0,0,1,.5-4.152,8.407,8.407,0,0,1,2.554-3.364,12.246,12.246,0,0,1,3.556-1.892,19.071,19.071,0,0,1,7.663-.927,21.778,21.778,0,0,1,13.731,6.227,11.564,11.564,0,0,1,3.356,7.149,12.58,12.58,0,0,1-2.3,7.478,51.954,51.954,0,0,1-4.533,5.855,62.829,62.829,0,0,1-5.043,5.366,43.59,43.59,0,0,1-5.837,4.568,47.507,47.507,0,0,0-5.817,4.052,15.13,15.13,0,0,0-3.769,5.619,24.328,24.328,0,0,0-1.639,6.751,25.835,25.835,0,0,0,2.286,13.653,19.634,19.634,0,0,0,9.809,9.54,22.877,22.877,0,0,0,6.79,1.807,27.982,27.982,0,0,0,7.083-.222,22.638,22.638,0,0,0,12.579-6.093,22.568,22.568,0,0,0,2.077-2.89l1.979-3.036q2-3.025,4.089-5.986t4.237-5.88c.721-.969,1.446-1.937,2.23-2.861a5.669,5.669,0,0,1,2.869-2.127,5.618,5.618,0,0,0-2.79,2.193c-.752.941-1.447,1.927-2.139,2.916q-2.063,2.973-4.062,5.993c-1.338,2.006-2.663,4.023-3.948,6.063l-1.91,3.073a23.223,23.223,0,0,1-2.083,3.026A23.469,23.469,0,0,1,125,1845.753a29.078,29.078,0,0,1-7.379.388,24.086,24.086,0,0,1-7.216-1.76,21.006,21.006,0,0,1-10.668-10.094,27.472,27.472,0,0,1-2.63-14.5,26.133,26.133,0,0,1,1.671-7.278,17.014,17.014,0,0,1,4.159-6.35,48.467,48.467,0,0,1,6-4.319,41.658,41.658,0,0,0,5.512-4.428,60.559,60.559,0,0,0,4.8-5.255,49.888,49.888,0,0,0,4.262-5.641,10.431,10.431,0,0,0,1.917-6.115,9.208,9.208,0,0,0-2.737-5.651,19.424,19.424,0,0,0-12.181-5.425,14.044,14.044,0,0,0-1.694-.045,10.754,10.754,0,0,0-1.673.123,14.614,14.614,0,0,0-3.276.746,7.214,7.214,0,0,0-4.593,3.845c-.746,1.8-.244,3.991.4,6.3a23.384,23.384,0,0,1,.923,7.524,32.021,32.021,0,0,1-4.147,14.368c-2.472,4.338-5.994,8.363-10.8,10.536s-10.157,2.075-15,1.442c-1.224-.166-2.436-.356-3.637-.562s-2.368-.383-3.648-.668a12.57,12.57,0,0,1-3.775-1.453c-.3-.181-.59-.382-.863-.584l-.72-.535c-.486-.36-.985-.73-1.484-1.128a13.991,13.991,0,0,1-2.785-2.856,19.918,19.918,0,0,1-1.87-3.433,10.04,10.04,0,0,1-.852-4.022,26.587,26.587,0,0,1,.305-3.789c.343-2.489,1.021-4.856,1.457-7.15.452-2.329.8-4.692,1.128-7.071a31.152,31.152,0,0,0,.254-6.971l-.255-3.577a20.95,20.95,0,0,0-.509-3.372,10.364,10.364,0,0,0-3.245-5.5,12.843,12.843,0,0,0-5.851-2.9,9.3,9.3,0,0,0-6.233.719,8.791,8.791,0,0,0-3.82,4.923c-1.549,4.212-.94,9.006.214,13.548,1.121,4.58,3.048,9.083,3.8,14.061a24.114,24.114,0,0,1-.1,7.51,31.558,31.558,0,0,1-1.968,7.193,18.89,18.89,0,0,1-4.2,6.281,24.947,24.947,0,0,1-6.068,4.4,32.7,32.7,0,0,1-6.934,2.693,21.251,21.251,0,0,1-7.468.6,17.914,17.914,0,0,1-7.214-2.12,15.734,15.734,0,0,1-3.061-2.233c-.924-.876-1.715-1.739-2.555-2.638a46.66,46.66,0,0,1-4.6-5.71,46.831,46.831,0,0,1-3.487-6.442,28.959,28.959,0,0,1-2.918-14.231A36.725,36.725,0,0,1-8.1,1773.274c2.313-4.283,5.454-7.988,7.939-12.129" fill="#2b2b2b"/>
              <path id="Path_22087" data-name="Path 22087" d="M265.932,1819.089c-1.812.607-3.61,1.258-5.477,1.734a14.611,14.611,0,0,1-5.8.422,9.239,9.239,0,0,1-5.21-2.772c-1.292-1.336-2.837-2.466-4.175-3.976a7.82,7.82,0,0,1-1.6-2.676,6.579,6.579,0,0,1-.212-3.193,7.432,7.432,0,0,1,3.781-4.965,25.01,25.01,0,0,1,5.558-2.091c.911-.268,1.8-.537,2.643-.863a18.857,18.857,0,0,0,2.435-1.192c3.212-1.825,6.307-4.135,9.4-6.283,2.982-2.179,5.652-4.778,6.938-8.021a17.786,17.786,0,0,0,.584-10.435,23.06,23.06,0,0,0-1.772-5.106,26.549,26.549,0,0,0-2.776-4.68,22.515,22.515,0,0,0-7.994-7.077,14.512,14.512,0,0,0-4.984-1.492,30.324,30.324,0,0,0-5.459.181l-2.842.3c-.934.113-2.015.167-2.815.267a9.554,9.554,0,0,0-4.64,1.914c-2.841,2.461-5.968,4.8-8.982,7.1-6.074,4.637-12.215,9.172-18.335,13.734l-4.584,3.415-1.111.87-.2.168c.082.091.113-.625-.093-.62-.14-.2-.586-.034-.458-.069l.04-.02.132-.082.578-.389,2.314-1.668,9.216-6.8c-2.9,2.491-5.8,4.962-8.765,7.379l-2.236,1.8-.587.444-.167.116-.116.067c.1-.015-.373.15-.542-.043-.237.015-.17-.758-.078-.681a3.127,3.127,0,0,1,.319-.328l1.092-.956,4.407-3.673L231.2,1764.5c2.973-2.425,5.913-4.733,8.81-7.3a12.066,12.066,0,0,1,5.784-2.51c1.095-.151,1.925-.192,2.888-.326l2.851-.355a30.558,30.558,0,0,1,5.98-.235,17.148,17.148,0,0,1,5.946,1.728,25.14,25.14,0,0,1,9.038,7.877,29.263,29.263,0,0,1,3.017,5.153,25.724,25.724,0,0,1,1.93,5.677,23.158,23.158,0,0,1,.514,6.02,17.055,17.055,0,0,1-1.326,6c-1.633,3.881-4.763,6.732-7.933,8.972a108.4,108.4,0,0,1-9.786,6.213c-3.55,2.072-7.695,2.2-10.782,3.832a5.747,5.747,0,0,0-3.114,3.705,5.1,5.1,0,0,0,.067,2.454,6.742,6.742,0,0,0,1.234,2.245c1.118,1.421,2.609,2.655,3.9,4.13a8.346,8.346,0,0,0,4.582,2.761,14.167,14.167,0,0,0,5.575-.112c1.868-.336,3.713-.854,5.564-1.329" fill="#2b2b2b"/>
            </g>
          </g>
        </g>
        <g id="向量圖智慧型物件-4" data-name="向量圖智慧型物件" transform="matrix(-0.207, 0.978, -0.978, -0.208, 1510.666, 1756)">
          <g id="Group_862" data-name="Group 862">
            <g id="Group_861" data-name="Group 861" clip-path="url(#clip-path-6)">
              <path id="Path_22088" data-name="Path 22088" d="M93.126,0C89.484,3.247,67.762,22.679,52.5,39.6c-2.738,3.034-7.822,8.7-13.842,16.62a122.375,122.375,0,0,0-8.945,12.7c-8.06,13.826-3.47,17.305-9.721,27.613C12.513,108.863,3.378,108.127.517,118.5c-1.6,5.822.948,7.223,1.956,17.884C3.777,150.185.045,153.6.181,164.7c.144,11.855,4.617,21.823,11.637,32.77,3.169,4.943,3.1,3.739,22.374,24.7,11.311,12.295,17.184,18.354,19.664,20.294,6.449,5.049,6.3,3.4,17.079,10.962,12.076,8.474,12.282,10.558,18.131,12.439,1.793.577,15.031,4.833,25.087-2.472,7.289-5.295,8.387-13.38,8.593-15.315.142.237.5.923,1.111,1.875,6.681,10.471,20.7,12.778,21.533,12.913,20.365,3.255,37.621-16.588,38.893-18.086,3.238-3.815,2.547-4.266,11.492-21.084,8.146-15.314,10.052-17.448,13.885-24.875,2.911-5.638,11.941-23.132,14.315-42.088,1.437-11.475-1.644-23.878-7.864-48.218-7.733-30.258-11.6-45.387-19.418-54.63-13.032-15.406-33.431-26.659-45.1-28-1.553-.178-8.585-1.356-18.19-3.183a56.945,56.945,0,0,1-9.236-2.654A85.4,85.4,0,0,1,93.126,0" fill="#f7e2c4"/>
            </g>
          </g>
        </g>
        <g id="向量圖智慧型物件-5" data-name="向量圖智慧型物件">
          <g id="Group_866" data-name="Group 866">
            <g id="Group_865" data-name="Group 865" clip-path="url(#clip-path-7)">
              <path id="Path_22154" data-name="Path 22154" d="M1257.88,1989.94c-2.152-3.544-15.044-24.69-26.829-40.055-2.112-2.755-6.059-7.876-11.751-14.127a104,104,0,0,0-9.231-9.432c-10.3-8.864-13.911-5.561-21.556-12.372-9.141-8.144-7.13-15.666-15.351-19.655-4.613-2.236-6.172-.319-15.224-1.115-11.715-1.032-13.994-4.676-23.275-6.269-9.915-1.7-18.918.5-29.129,4.688-4.61,1.889-3.595,2.014-24.034,14.908-11.992,7.564-17.947,11.542-19.946,13.317-5.2,4.616-3.8,4.746-11.763,12.592-8.92,8.793-10.69,8.645-13.156,13.245-.756,1.41-6.335,11.821-1.777,21.352a18.657,18.657,0,0,0,11.465,9.539c-.22.082-.847.279-1.735.641-9.761,3.975-13.831,15.335-14.072,16.015-5.835,16.524,8.083,34,9.139,35.294,2.688,3.293,3.171,2.785,15.837,12.849,11.533,9.164,13.023,11.086,18.634,15.433,4.259,3.3,17.476,13.538,32.931,18.438,9.357,2.966,20.179,2.3,41.443.841,26.435-1.811,39.652-2.718,48.562-7.832,14.852-8.526,27.365-23.849,30.268-33.4.386-1.271,2.446-6.968,5.441-14.717a48.521,48.521,0,0,1,3.629-7.313,72.484,72.484,0,0,1,21.478-22.866" fill="#76a578"/>
              <path id="Path_22155" data-name="Path 22155" d="M1262.41,1987.985l-5.426-8.556q-2.752-4.282-5.572-8.521-5.629-8.481-11.6-16.717c-4.008-5.466-8.166-10.825-12.618-15.924-2.217-2.554-4.524-5.039-6.83-7.522a66.645,66.645,0,0,0-7.308-6.951,32.132,32.132,0,0,0-8.542-5.118c-1.546-.624-3.162-1.13-4.764-1.781a22.754,22.754,0,0,1-4.581-2.475,29.288,29.288,0,0,1-7.25-7.382c-2.01-2.843-3.234-6.122-4.913-8.948a13.144,13.144,0,0,0-3.144-3.655l-.984-.7-1.062-.589a10.407,10.407,0,0,0-2.22-.906,13.891,13.891,0,0,0-4.827-.255c-1.694.1-3.421.161-5.135.1a50.723,50.723,0,0,1-10.193-1.335,43.367,43.367,0,0,1-4.914-1.553c-1.6-.6-3.16-1.261-4.733-1.831a39.616,39.616,0,0,0-19.725-1.911,58.334,58.334,0,0,0-9.768,2.414q-2.4.8-4.754,1.728a31.286,31.286,0,0,0-4.564,2.069c-2.874,1.722-5.691,3.652-8.55,5.468l-8.587,5.458c-5.752,3.594-11.5,7.191-17.151,10.925a51.813,51.813,0,0,0-8.053,6.11,38.727,38.727,0,0,0-3.371,3.771c-1.073,1.319-2.206,2.594-3.373,3.831-2.33,2.477-4.755,4.856-7.249,7.165-1.248,1.153-2.523,2.278-3.808,3.386a30.713,30.713,0,0,0-3.643,3.477,19.873,19.873,0,0,0-2.542,4.309,32.3,32.3,0,0,0-1.706,4.743,25.239,25.239,0,0,0-.856,4.953,23.4,23.4,0,0,0-.052,2.509c.016.417.071.833.1,1.249l.057.624.115.615a18.144,18.144,0,0,0,1.5,4.746,16.821,16.821,0,0,0,2.813,4.1,19.043,19.043,0,0,0,8.407,5.139l1.089.329-1.063.418a24.391,24.391,0,0,0-2.413.969c-.385.19-.782.354-1.158.563l-1.1.663a21.765,21.765,0,0,0-3.983,3.269,31.453,31.453,0,0,0-5.814,8.547,24.463,24.463,0,0,0-2.37,9.985,33.289,33.289,0,0,0,1.479,10.226,49.126,49.126,0,0,0,4.108,9.55c.841,1.521,1.764,3,2.738,4.435a36.272,36.272,0,0,0,3.165,4.082,29.278,29.278,0,0,0,3.957,3.282l4.216,3.159q4.2,3.194,8.309,6.488t8.152,6.693c2.689,2.273,5.293,4.611,8.039,6.752a134.2,134.2,0,0,0,17.322,11.709,96.19,96.19,0,0,0,9.355,4.609q1.193.525,2.412.982c.81.311,1.614.641,2.439.906a41.644,41.644,0,0,0,4.951,1.477,53.676,53.676,0,0,0,10.277,1.2c3.472.114,6.962.028,10.453-.119,6.983-.307,13.975-.817,20.967-1.285s13.98-.969,20.938-1.631c3.475-.353,6.943-.766,10.367-1.373a51.816,51.816,0,0,0,10.007-2.69,31.264,31.264,0,0,0,4.6-2.344c1.506-.868,2.939-1.855,4.381-2.828a83.467,83.467,0,0,0,8.109-6.581,79.748,79.748,0,0,0,7.23-7.553,65.464,65.464,0,0,0,6.107-8.472l.665-1.123.6-1.154c.425-.76.76-1.558,1.114-2.349s.6-1.615.91-2.427l.926-2.474,3.7-9.892a48.147,48.147,0,0,1,4.528-9.563,72.328,72.328,0,0,1,6.112-8.62,70.607,70.607,0,0,1,7.29-7.625c1.305-1.178,2.648-2.315,4.036-3.392s2.824-2.155,4.227-3.057m.145.031c-1.486,1.089-2.859,2.091-4.229,3.207-1.367,1.095-2.687,2.249-3.968,3.442a70.237,70.237,0,0,0-7.133,7.695,71.946,71.946,0,0,0-5.932,8.646c-.879,1.512-1.707,3.051-2.445,4.63a52.126,52.126,0,0,0-1.936,4.868l-3.608,9.883-.9,2.471c-.312.829-.555,1.7-.919,2.514s-.7,1.642-1.123,2.421l-.608,1.185-.668,1.149a66.441,66.441,0,0,1-6.127,8.651,80.7,80.7,0,0,1-7.259,7.71,84.487,84.487,0,0,1-8.17,6.744c-1.458,1-2.907,2.016-4.435,2.914a32.559,32.559,0,0,1-4.745,2.469,53.085,53.085,0,0,1-10.242,2.85c-3.473.645-6.968,1.09-10.462,1.475-6.99.746-13.99,1.211-20.982,1.706-6.993.478-13.983,1-21.005,1.318-3.511.151-7.033.246-10.567.134a55.24,55.24,0,0,1-10.576-1.226,43.143,43.143,0,0,1-5.122-1.518c-.845-.271-1.664-.605-2.492-.921l-1.239-.479-1.218-.525a97.866,97.866,0,0,1-9.491-4.719,135.653,135.653,0,0,1-17.473-11.9c-2.782-2.186-5.4-4.551-8.056-6.817s-5.364-4.5-8.1-6.7-5.481-4.369-8.26-6.5l-4.187-3.179a30.339,30.339,0,0,1-4.1-3.468,37.381,37.381,0,0,1-3.253-4.259c-.984-1.477-1.913-2.99-2.76-4.55a50.261,50.261,0,0,1-4.128-9.812,34.359,34.359,0,0,1-1.441-10.573,25.457,25.457,0,0,1,2.545-10.359,32.355,32.355,0,0,1,6.052-8.744,22.67,22.67,0,0,1,4.159-3.358l1.155-.685c.392-.215.807-.386,1.21-.58a25.2,25.2,0,0,1,2.468-.976l.026.747a19.805,19.805,0,0,1-8.718-5.4,17.5,17.5,0,0,1-2.908-4.286,18.831,18.831,0,0,1-1.537-4.94l-.115-.639-.056-.645c-.032-.43-.087-.86-.1-1.291a24.294,24.294,0,0,1,.067-2.583,25.916,25.916,0,0,1,.905-5.068,32.857,32.857,0,0,1,1.766-4.825,20.419,20.419,0,0,1,2.645-4.421,31.25,31.25,0,0,1,3.727-3.522c1.29-1.1,2.565-2.213,3.815-3.354,2.5-2.287,4.934-4.646,7.261-7.1,1.157-1.236,2.273-2.5,3.336-3.821a39.286,39.286,0,0,1,3.393-3.826c.616-.592,1.236-1.17,1.882-1.733s1.339-1.068,2.027-1.57c1.378-1,2.782-1.953,4.191-2.9,5.641-3.774,11.4-7.364,17.1-11.033l8.523-5.543c2.846-1.849,5.605-3.786,8.528-5.58a32.147,32.147,0,0,1,4.662-2.175q2.364-.96,4.781-1.793a59.36,59.36,0,0,1,9.915-2.556,40.159,40.159,0,0,1,20.311,1.8c1.615.58,3.181,1.236,4.753,1.822a42.012,42.012,0,0,0,4.776,1.493,49.473,49.473,0,0,0,9.928,1.266c1.672.053,3.333-.009,5.021-.115.846-.047,1.7-.108,2.589-.093a10.393,10.393,0,0,1,2.675.381,11.651,11.651,0,0,1,2.471,1.017c.386.217.776.425,1.158.65l1.088.777a14.47,14.47,0,0,1,3.444,4.023c1.767,3.021,2.925,6.189,4.842,8.914a28.065,28.065,0,0,0,6.908,7.091,21.5,21.5,0,0,0,4.334,2.363c1.535.633,3.155,1.147,4.75,1.8a33.284,33.284,0,0,1,8.815,5.323,64.213,64.213,0,0,1,7.381,7.108c2.288,2.512,4.575,5.023,6.781,7.616,4.426,5.17,8.544,10.587,12.51,16.107,3.947,5.533,7.713,11.19,11.38,16.907q2.756,4.285,5.433,8.618l2.666,4.34,1.32,2.178c.43.724.885,1.445,1.318,2.239" fill="#2b2b2b"/>
            </g>
          </g>
        </g>
      </g>
    </g>
  </g>
</svg>
