<svg xmlns="http://www.w3.org/2000/svg" xmlns:xlink="http://www.w3.org/1999/xlink" width="1385" height="624" viewBox="0 0 1385 624">
  <defs>
    <clipPath id="clip-path">
      <rect id="imageMask" width="1385" height="624" transform="translate(534 2221)" fill="none"/>
    </clipPath>
    <clipPath id="clip-path-2">
      <rect id="Rectangle_3386" data-name="Rectangle 3386" width="453" height="514" fill="none"/>
    </clipPath>
    <clipPath id="clip-path-3">
      <path id="Path_22077" data-name="Path 22077" d="M377.148,110.542a92.252,92.252,0,0,1-22.961,1.422c-6.447-.282-12.169-.564-22.447,2.159a79.659,79.659,0,0,0-18.855,7.191c-10.464,5.7-11.73,9.707-22.489,16.684-13.375,8.675-15.18,4.924-23.5,11.611-12.966,10.418-10.849,21.34-20.795,25.141-7.135,2.728-12.2-1.374-23-4.3-13.624-3.692-29.068-.908-59.953,4.659-23.764,4.284-35.647,6.425-47.266,12.729-11.138,6.042-25.8,14-29.409,28.345-2.675,10.645,2.482,14.432,3.222,33.7.177,4.6.744,19.321-3.717,32.257C79.455,301.031,67.426,301,44.035,326.606c-18.452,20.2-30.256,41.827-29.92,53.277.24,8.217,3.305,25.716,3.305,25.715,13.337,20.531,13.737,22.416,13.99,25.348.755,8.72-5.172,8.755-5.94,21.455-.5,8.183,1.83,18.44,3.573,26.41,1.623,7.429,4.422,13.719,8.913,18.926a39.9,39.9,0,0,0,10.225,8.335c20.512,12.321,26.9,14.43,35.936,20.343,0,0,19.118,12.514,41.831,39.661a33.294,33.294,0,0,0,4.37,4.457c4.268,3.589,9.069,5.717,14.748,7.906a86.735,86.735,0,0,0,45.345,5.179c8.028-1.17,16.366-1.446,23.6-5.4,7.8-4.263,12.709-9.279,17.688-16.385,4.058-5.792,6.578-12.177,10.222-18.143,4.889-8.01,12.53-13.662,20.258-18.867,8.009-5.393,14.846-9.485,24.539-11.709a68.146,68.146,0,0,1,27.635-.8c23.418,4.361,48.707,1.709,72.091-1.9,19.039-2.934,38.581-13.011,54.225-23.581,3.926-2.653,7.735-5.626,15.324-11.612,20.049-15.814,37.9-30,57.2-50.6,23.272-24.831,26.517-35.852,27.895-39.168a74.6,74.6,0,0,0,5.391-21.735c.707-7.839,3.61-15.1,4.847-22.854,1.027-6.441,3.782-11.2,5.53-17.475,4.115-14.771,8.864-14.407,8.73-19.669-.314-12.254-17.686-15.7-16.307-24.653,1.39-9.032,20.712-16.34,20.713-16.339s17.643-20.963,20.621-44.436a47.711,47.711,0,0,0,.388-5.886V212.1c-.026-8.116-2.164-16.2-5.726-29.668-3.9-14.737-6.064-22.511-13.2-29.056-8.914-8.178-20.259-9.549-27.908-10.376-27.992-3.02-35.972,10.937-71.367,12.157,0,0-21.206.73-34.36-7.933a51.284,51.284,0,0,1-5.836-4.575c-2.162-2.567-5.3-5.039-6.764-8.048-1.129-2.324-1.582-4.4-2.956-6.64-2.642-4.3-3.67-8.567-7.679-12.133a32.737,32.737,0,0,0-14.1-7.2,29.218,29.218,0,0,0-6.744-.8c-5.32,0-10.18,1.459-17.217,2.715" fill="none"/>
    </clipPath>
    <clipPath id="clip-path-4">
      <rect id="Rectangle_3450" data-name="Rectangle 3450" width="206" height="204" fill="none"/>
    </clipPath>
    <clipPath id="clip-path-5">
      <rect id="Rectangle_3451" data-name="Rectangle 3451" width="365.635" height="453.727" fill="none"/>
    </clipPath>
    <clipPath id="clip-path-6">
      <rect id="Rectangle_3452" data-name="Rectangle 3452" width="399" height="373.999" transform="translate(0 0.001)" fill="none"/>
    </clipPath>
  </defs>
  <g id="Group_863" data-name="Group 863" transform="translate(2748 -7506.279)">
    <rect id="矩形_4_拷貝_8" data-name="矩形 4 拷貝 8" width="1385" height="624" transform="translate(-2748 7506.279)" fill="#417991"/>
    <g id="群組_4" data-name="群組 4" transform="translate(-3282 5285.279)" clip-path="url(#clip-path)">
      <g id="群組_4-2" data-name="群組 4">
        <g id="向量圖智慧型物件" transform="translate(356 2482)">
          <g id="Group_854" data-name="Group 854">
            <g id="Group_853" data-name="Group 853" clip-path="url(#clip-path-2)">
              <path id="Path_22076" data-name="Path 22076" d="M220.582,444.135c2.431,1.542.479,9.491,1.458,14.523a32.175,32.175,0,0,1,.517,4.391c.025.557.03,1.146.01,1.8-.107,3.472.957,4.9,1.717,8.022C227,484,211.129,504.5,226.105,510.862c5.182,2.2,7.807-1.137,12.337-3.665,3.955-2.208,7.517-3.6,11.008-6.6,6.013-5.169,12.273-11.211,16.591-17.766,12.92-19.612,14.674-42.091,18.479-64.238.675-3.925.811-7.84,1.344-11.693a20.615,20.615,0,0,1,1.8-7.322,17.057,17.057,0,0,0,.362-6.308c3.846-12.359,17.131,7.6,20.136,11.643,7.15,9.627,9.14,19.427,11.967,30.945,1.137,4.635,1.508,11.371,3.926,15.5,2.049,3.5,5.042,4.8,8.375,6.707,2.92,1.673,6.479,4.717,10.212,4,4.112-.792,8.981-6.538,10.467-10.188,1.564-3.844.74-7.918.967-11.875.365-6.4.25-12.716.136-19.115-.176-9.957-.115-19.951-.753-29.882-.281-4.383-.676-8.6-.767-12.985-.058-2.836-2.665-8.372.26-10.421,8.514,2.54,14.714,10.11,19.286,17.266,4.847,7.586,9.36,15.6,13.952,23.369a157.776,157.776,0,0,0,12.779,18.71c2.808,3.52,8.482,13,14.758,9.834,6.336-3.2,6-14.921,6.059-20.077.149-12.362-4.9-21.846-10.986-32.037-5.11-8.557-8.831-17.868-14.273-26.231-3.416-5.248-9-11.324-10.384-17.516,5.136-.853,15.91,7.056,19.3,10.022,2.111,1.849,4.516,4.016,6.549,5.978,2.9,2.8,5.974,4.639,9.066,7.319,4.182,3.627,8.116,7.762,12.5,11.16,1.545,1.2,6.246,4.571,8.312,4.435a4.894,4.894,0,0,0,2.277-.806c6.339-4.369.55-25.355-5.12-37.692-13.69-29.79-41.216-41.755-38.751-46.208,2.479-4.477,28.114,11.567,44.908.547,4.521-2.966,9.825-8.827,9.822-15.4,0-8.67-11.192-15.82-33.568-30.121a37.149,37.149,0,0,0-8.137-3.818l-.092-.027c-4.587-1.331-17.892-4.752-31.012-7.727-.735-.167-7.425-1.682-7.284-3.166.033-.344.424-.574,5.41-2.647a17.748,17.748,0,0,0,5.173-2.888,12.836,12.836,0,0,0,2.97-3.8c2.584-4.749,9.386-11.156,13.23-15.379,9.112-10.007,19.223-21.113,17.871-33.807-1-9.365-7.881-16.149-10.025-18.3-3.924-3.929-6.559-4.639-8.077-4.854-4.093-.581-7.534,1.372-10.382,3.051-14.827,8.738-22.4,15.184-23.623,14.094-.964-.858,2.151-5.785,4.382-9.7,5.336-9.352,18.288-32.051,11.233-45.416-2.872-5.439-9.876-10.881-13.9-9.793-.207.056-.551.162-1.222.412-1.352.505-2.611,1.164-7.733,3.43-5.283,2.338-7.926,3.506-9.773,4.091a57.889,57.889,0,0,0-6.056,2.066c-1.849.774-2.518,1.192-4.459,2.136-4.444,2.159-9,3.881-9.118,3.616-.1-.214,2.869-1.4,6.262-4.119a32.959,32.959,0,0,0,5.6-5.862c7.9-10.12,11.849-15.179,14-18.715,7.615-12.546,11.586-18.719,10.943-23.682-1.334-10.3-13.214-19.745-24.25-19.811-10.376-.061-18.644,8.169-25.594,15.09-3.472,3.457-5.153,5.22-6.449,7.168-1.825,2.744-2.7,5.028-5.626,7.678-1.241,1.126-2.522,2.287-3.291,1.948-1.593-.7.286-7.288,1.236-11.748,3.078-14.453.579-26.306-.649-32.124-1.37-6.494-3.644-16.627-11.3-20.757-1.225-.662-4.154-2.188-7.026-1.135-2.736,1-4.262,3.926-5.653,8.068-4.065,12.115-1.488,18.343-5.692,29.368-1.312,3.44-3.147,6.987-6.133,7.673-.244.056-2.12.462-3-.516-1.216-1.359.644-4.107,1.449-7.617.627-2.73.289-4.5-.876-10.7-3.03-16.122-2.922-15.755-3.017-16.09C255.77,11.872,245-1.481,240.977.133c-1.169.469-1.172,1.962-2.62,11.207-1.471,9.388-2.206,14.083-3.068,17.381-1.226,4.691-3.6,9.69-8.358,19.689-4.3,9.039-5.765,11.069-7,10.909-1.713-.222-.989-4.411-4.127-10.094-2.476-4.486-5.831-7.137-8.973-9.62-2.009-1.587-3.528-2.521-9.943-6.064-14.261-7.875-15.391-8.029-16.336-7.458-3.1,1.868-1.6,9.922.334,20.35,2.3,12.37,5.461,20.844,4.933,21.052-.427.168-2.551-5.349-6.909-14.216-1.277-2.6-4.486-9.025-8.965-16.756-6.025-10.4-5.334-7.6-9.51-15.176a53.425,53.425,0,0,0-9.074-12.127c-1.608-1.6-3.534-3.285-5.411-2.792-1.408.37-2.31,1.844-3.945,4.512a27.687,27.687,0,0,0-2.048,4.094,31.822,31.822,0,0,0-1.65,5.468,87.813,87.813,0,0,0-1.354,18.025c.406,10.92,1.755,15.867.858,16.151-1.041.329-3.337-6.2-9.35-16.726-4.17-7.3-7.434-12.93-9.6-12.306-1.692.486-2.034,4.6-2.412,9.622-.53,7.042.308,9.245.37,15.449.069,6.939-.9,11.867-2.487,19.895-1.32,6.69-2.013,10.061-3.676,11.362-5.286,4.137-16.281-.693-22.462-4.756-9.823-6.458-9.025-11.993-20.755-19.354-7.939-4.982-11.759-4.616-13.722-4.131-3.479.863-5.828,3.276-10.343,7.914-3.265,3.355-5.446,5.595-7.057,9.361a25.438,25.438,0,0,0-1.8,11.144,40.481,40.481,0,0,0,3.2,14.666A84.9,84.9,0,0,0,48.187,115.9C63.44,136.77,74.561,143.359,72.4,147.585c-1.2,2.348-4.977.982-18.553,2.841-7.359,1.009-14.747,2.07-22.841,5.625-7.274,3.195-13.585,5.966-15.921,12.333-2.1,5.717-.707,13.559,3.9,16.343,3.13,1.893,6.32.587,20.68-3.6,9.522-2.772,14.281-4.159,15.963-4.487,18.2-3.547,35.478,4.475,35.128,6.391-.128.7-2.554.293-10.364,1.687-5.132.917-5.865,1.41-12.665,2.953-10.1,2.289-10.724,1.709-16.555,3.44-6.124,1.819-12.594,3.739-12.678,6.081-.105,2.9,9.693,3.53,22.592,8.761,15.819,6.417,28.206,16.478,27.227,18.38-.188.367-.97.618-15.18-2.643-9.97-2.287-9.846-2.47-14.509-3.46-19.312-4.1-24.961-1.708-27.689.478a4.43,4.43,0,0,0-1.391,1.572c-1.142,2.43.728,5.843,12.116,18.211,5.26,5.713,7.891,8.569,9.866,10.073,8.135,6.191,14.465,6.765,14.211,8.856-.256,2.121-6.85,2.207-19.735,5.872a126.273,126.273,0,0,0-16.954,5.975c-8.03,3.555-14.137,6.258-19.96,12.3C.2,290.808-.308,299.809.1,302.4a3.507,3.507,0,0,0,1.366,2.568c1.434.834,3.519-.291,4.895-.945,3.307-1.573,7.071-1.8,10.534-2.949,6.441-2.146,9.381-1.6,19.766-3.708,12.8-2.6,19.2-3.9,26.265-6.885A26.876,26.876,0,0,1,76.165,288.3c2.284.25,4.331.473,4.947,1.821.692,1.515-.843,3.534-10.846,15.016-2.853,3.276-4.568,5.221-6.81,8.306-2.294,3.156-3.792,5.647-4.592,6.974-10.452,17.327-12.433,19.224-15.35,26.3-3.546,8.608-5.318,12.913-3.484,15.447,4.05,5.593,22.657,1.953,36.2-7.2,7.448-5.032,7.588-7.828,26.807-24.151,5.742-4.878,12.234-10.151,16.755-8.192,2.418,1.049,3.349,3.763,3.571,4.412,1.57,4.578-1.308,9.476-5.306,16.285-1.7,2.887-3.648,5.563-3.956,5.981-1.458,1.989-2.631,3.381-3.022,3.85-4.144,4.969-6.618,9.588-9.661,13.579C95.137,374.98,91.954,373.3,83.9,382.9c-4.15,4.95-6.657,8.022-5.869,11.066,1.183,4.579,9.317,7.165,16.111,6.248,7.39-1,8.972-5.572,20.491-12.006,2.993-1.671,16.5-9.216,19.037-6.323,2.65,3.025-7.434,16.608-15.376,25.1-4.8,5.13-10.13,9.282-20.6,17.377C79.462,438.459,80.9,435.722,68.1,446.034c-10.179,8.2-16.6,7.622-17.62,12.385-1.357,6.36,6.2,13.235,11.442,16.507,8.771,5.478,20.478,3.861,43.623,1.7,17.713-1.651,28.588-2.815,34.969-10.764a116.962,116.962,0,0,0,7.227-11.293c5.367-9.349,6.836-14.4,8.26-14.16.885.151,1.053,5.442,1.354,16.016a39.244,39.244,0,0,1-.963,10.862,38,38,0,0,1-1.118,3.78c-2.616,7.463-7.922,16.246-11.731,22.6-5.836,9.731-7.8,13.154-6.33,16.02.758,1.475,2.083,2.135,3.526,2.825,8.4,4.014,19.314-.781,32.169-6.426a13.113,13.113,0,0,0,2.145-1.115c3.5-2.3,3.819-5.157,8.077-12.872.808-1.463,1.681-3.029,2.983-5.085,1.894-2.994,2.939-4.158,5.548-8.958,5.044-9.281,4.112-10.392,7.311-15.934,6.677-11.567,18.412-20.018,21.609-17.991" fill="#f7e2c4"/>
            </g>
          </g>
        </g>
        <g id="向量圖智慧型物件-2" data-name="向量圖智慧型物件" transform="translate(1592 1994.999)">
          <g id="Group_856" data-name="Group 856">
            <g id="Group_855" data-name="Group 855" clip-path="url(#clip-path-3)">
              <rect id="Rectangle_3387" data-name="Rectangle 3387" width="475.954" height="2.002" transform="matrix(0.776, -0.63, 0.631, 0.776, -0.036, 458.042)" fill="#f7e2c4"/>
              <rect id="Rectangle_3388" data-name="Rectangle 3388" width="475.953" height="2.002" transform="matrix(0.776, -0.63, 0.631, 0.776, -0.036, 473.083)" fill="#f7e2c4"/>
              <rect id="Rectangle_3389" data-name="Rectangle 3389" width="475.954" height="2.002" transform="matrix(0.776, -0.63, 0.631, 0.776, -0.036, 488.125)" fill="#f7e2c4"/>
              <rect id="Rectangle_3390" data-name="Rectangle 3390" width="475.953" height="2.002" transform="matrix(0.776, -0.63, 0.631, 0.776, -0.036, 503.167)" fill="#f7e2c4"/>
              <rect id="Rectangle_3391" data-name="Rectangle 3391" width="475.954" height="2.002" transform="matrix(0.776, -0.63, 0.631, 0.776, -0.085, 518.15)" fill="#f7e2c4"/>
              <rect id="Rectangle_3392" data-name="Rectangle 3392" width="475.954" height="2.002" transform="matrix(0.776, -0.63, 0.631, 0.776, -0.036, 510.688)" fill="#f7e2c4"/>
              <rect id="Rectangle_3393" data-name="Rectangle 3393" width="475.954" height="2.002" transform="matrix(0.776, -0.63, 0.631, 0.776, -0.037, 540.771)" fill="#f7e2c4"/>
              <rect id="Rectangle_3394" data-name="Rectangle 3394" width="475.954" height="2.003" transform="matrix(0.776, -0.63, 0.631, 0.776, -0.084, 412.857)" fill="#f7e2c4"/>
              <rect id="Rectangle_3395" data-name="Rectangle 3395" width="475.954" height="2.002" transform="matrix(0.776, -0.63, 0.631, 0.776, -0.037, 585.897)" fill="#f7e2c4"/>
              <rect id="Rectangle_3396" data-name="Rectangle 3396" width="475.954" height="2.002" transform="matrix(0.776, -0.63, 0.631, 0.776, -0.036, 427.958)" fill="#f7e2c4"/>
              <rect id="Rectangle_3397" data-name="Rectangle 3397" width="475.954" height="2.002" transform="matrix(0.776, -0.63, 0.631, 0.776, -0.037, 615.981)" fill="#f7e2c4"/>
              <rect id="Rectangle_3398" data-name="Rectangle 3398" width="475.954" height="2.003" transform="matrix(0.776, -0.63, 0.631, 0.776, -0.084, 442.941)" fill="#f7e2c4"/>
              <rect id="Rectangle_3399" data-name="Rectangle 3399" width="475.954" height="2.002" transform="matrix(0.776, -0.63, 0.631, 0.776, -0.037, 646.064)" fill="#f7e2c4"/>
              <rect id="Rectangle_3400" data-name="Rectangle 3400" width="475.954" height="2.002" transform="matrix(0.776, -0.63, 0.631, 0.776, -0.037, 676.148)" fill="#f7e2c4"/>
              <rect id="Rectangle_3401" data-name="Rectangle 3401" width="475.954" height="2.002" transform="matrix(0.776, -0.63, 0.631, 0.776, -0.038, 706.232)" fill="#f7e2c4"/>
              <rect id="Rectangle_3402" data-name="Rectangle 3402" width="475.954" height="2.002" transform="matrix(0.776, -0.63, 0.631, 0.776, -0.037, 533.25)" fill="#f7e2c4"/>
              <rect id="Rectangle_3403" data-name="Rectangle 3403" width="475.954" height="2.002" transform="matrix(0.776, -0.63, 0.631, 0.776, -0.037, 563.334)" fill="#f7e2c4"/>
              <rect id="Rectangle_3404" data-name="Rectangle 3404" width="475.954" height="2.002" transform="matrix(0.776, -0.63, 0.631, 0.776, -0.037, 525.729)" fill="#f7e2c4"/>
              <rect id="Rectangle_3405" data-name="Rectangle 3405" width="475.954" height="2.002" transform="matrix(0.776, -0.63, 0.631, 0.776, -0.037, 548.292)" fill="#f7e2c4"/>
              <rect id="Rectangle_3406" data-name="Rectangle 3406" width="475.953" height="2.002" transform="matrix(0.776, -0.63, 0.631, 0.776, -0.037, 600.938)" fill="#f7e2c4"/>
              <rect id="Rectangle_3407" data-name="Rectangle 3407" width="475.953" height="2.002" transform="matrix(0.776, -0.63, 0.631, 0.776, -0.037, 631.022)" fill="#f7e2c4"/>
              <rect id="Rectangle_3408" data-name="Rectangle 3408" width="475.953" height="2.002" transform="matrix(0.776, -0.63, 0.631, 0.776, -0.037, 661.106)" fill="#f7e2c4"/>
              <rect id="Rectangle_3409" data-name="Rectangle 3409" width="475.953" height="2.002" transform="matrix(0.776, -0.63, 0.631, 0.776, -0.037, 691.189)" fill="#f7e2c4"/>
              <rect id="Rectangle_3410" data-name="Rectangle 3410" width="475.954" height="2.002" transform="matrix(0.776, -0.63, 0.631, 0.776, -0.038, 721.274)" fill="#f7e2c4"/>
              <rect id="Rectangle_3411" data-name="Rectangle 3411" width="475.953" height="2.002" transform="matrix(0.776, -0.63, 0.631, 0.776, -0.037, 570.855)" fill="#f7e2c4"/>
              <rect id="Rectangle_3412" data-name="Rectangle 3412" width="475.954" height="2.002" transform="matrix(0.776, -0.63, 0.631, 0.776, -0.037, 593.418)" fill="#f7e2c4"/>
              <rect id="Rectangle_3413" data-name="Rectangle 3413" width="475.954" height="2.002" transform="matrix(0.776, -0.63, 0.631, 0.776, -0.037, 623.502)" fill="#f7e2c4"/>
              <rect id="Rectangle_3414" data-name="Rectangle 3414" width="475.954" height="2.002" transform="matrix(0.776, -0.63, 0.631, 0.776, -0.038, 653.585)" fill="#f7e2c4"/>
              <rect id="Rectangle_3415" data-name="Rectangle 3415" width="475.954" height="2.002" transform="matrix(0.776, -0.63, 0.631, 0.776, -0.038, 683.669)" fill="#f7e2c4"/>
              <rect id="Rectangle_3416" data-name="Rectangle 3416" width="475.954" height="2.002" transform="matrix(0.776, -0.63, 0.631, 0.776, -0.038, 713.752)" fill="#f7e2c4"/>
              <rect id="Rectangle_3417" data-name="Rectangle 3417" width="475.954" height="2.002" transform="matrix(0.776, -0.63, 0.631, 0.776, -0.037, 555.813)" fill="#f7e2c4"/>
              <rect id="Rectangle_3418" data-name="Rectangle 3418" width="475.954" height="2.002" transform="matrix(0.776, -0.63, 0.631, 0.776, -0.037, 608.46)" fill="#f7e2c4"/>
              <rect id="Rectangle_3419" data-name="Rectangle 3419" width="475.954" height="2.002" transform="matrix(0.776, -0.63, 0.631, 0.776, -0.037, 638.543)" fill="#f7e2c4"/>
              <rect id="Rectangle_3420" data-name="Rectangle 3420" width="475.954" height="2.002" transform="matrix(0.776, -0.63, 0.631, 0.776, -0.037, 668.627)" fill="#f7e2c4"/>
              <rect id="Rectangle_3421" data-name="Rectangle 3421" width="475.954" height="2.002" transform="matrix(0.776, -0.63, 0.631, 0.776, -0.037, 698.711)" fill="#f7e2c4"/>
              <rect id="Rectangle_3422" data-name="Rectangle 3422" width="475.954" height="2.002" transform="matrix(0.776, -0.63, 0.631, 0.776, -0.085, 728.736)" fill="#f7e2c4"/>
              <rect id="Rectangle_3423" data-name="Rectangle 3423" width="475.954" height="2.002" transform="matrix(0.776, -0.63, 0.631, 0.776, -0.037, 578.376)" fill="#f7e2c4"/>
              <rect id="Rectangle_3424" data-name="Rectangle 3424" width="475.954" height="2.002" transform="matrix(0.776, -0.63, 0.631, 0.776, -0.085, 743.778)" fill="#f7e2c4"/>
              <rect id="Rectangle_3425" data-name="Rectangle 3425" width="475.954" height="2.002" transform="matrix(0.776, -0.63, 0.631, 0.776, -0.085, 758.82)" fill="#f7e2c4"/>
              <rect id="Rectangle_3426" data-name="Rectangle 3426" width="475.954" height="2.002" transform="matrix(0.776, -0.63, 0.631, 0.776, -0.085, 751.298)" fill="#f7e2c4"/>
              <rect id="Rectangle_3427" data-name="Rectangle 3427" width="475.954" height="2.002" transform="matrix(0.776, -0.63, 0.631, 0.776, -0.085, 736.257)" fill="#f7e2c4"/>
              <rect id="Rectangle_3428" data-name="Rectangle 3428" width="475.954" height="2.002" transform="matrix(0.776, -0.63, 0.631, 0.776, -0.085, 766.341)" fill="#f7e2c4"/>
              <rect id="Rectangle_3429" data-name="Rectangle 3429" width="475.954" height="2.002" transform="matrix(0.776, -0.63, 0.631, 0.776, -0.036, 322.664)" fill="#f7e2c4"/>
              <rect id="Rectangle_3430" data-name="Rectangle 3430" width="475.954" height="2.002" transform="matrix(0.776, -0.63, 0.631, 0.776, -0.036, 330.185)" fill="#f7e2c4"/>
              <rect id="Rectangle_3431" data-name="Rectangle 3431" width="475.954" height="2.002" transform="matrix(0.776, -0.63, 0.631, 0.776, -0.036, 337.706)" fill="#f7e2c4"/>
              <rect id="Rectangle_3432" data-name="Rectangle 3432" width="475.954" height="2.002" transform="matrix(0.776, -0.63, 0.631, 0.776, -0.036, 345.227)" fill="#f7e2c4"/>
              <rect id="Rectangle_3433" data-name="Rectangle 3433" width="475.954" height="2.002" transform="matrix(0.776, -0.63, 0.631, 0.776, -0.036, 360.269)" fill="#f7e2c4"/>
              <rect id="Rectangle_3434" data-name="Rectangle 3434" width="475.954" height="2.002" transform="matrix(0.776, -0.63, 0.631, 0.776, -0.036, 352.748)" fill="#f7e2c4"/>
              <rect id="Rectangle_3435" data-name="Rectangle 3435" width="475.954" height="2.002" transform="matrix(0.776, -0.63, 0.631, 0.776, -0.036, 382.832)" fill="#f7e2c4"/>
              <rect id="Rectangle_3436" data-name="Rectangle 3436" width="475.954" height="2.002" transform="matrix(0.776, -0.63, 0.631, 0.776, -0.036, 300.102)" fill="#f7e2c4"/>
              <rect id="Rectangle_3437" data-name="Rectangle 3437" width="475.954" height="2.002" transform="matrix(0.776, -0.63, 0.631, 0.776, -0.084, 450.462)" fill="#f7e2c4"/>
              <rect id="Rectangle_3438" data-name="Rectangle 3438" width="475.954" height="2.002" transform="matrix(0.776, -0.63, 0.631, 0.776, -0.036, 307.622)" fill="#f7e2c4"/>
              <rect id="Rectangle_3439" data-name="Rectangle 3439" width="475.954" height="2.002" transform="matrix(0.776, -0.63, 0.631, 0.776, -0.036, 315.143)" fill="#f7e2c4"/>
              <rect id="Rectangle_3440" data-name="Rectangle 3440" width="475.954" height="2.002" transform="matrix(0.776, -0.63, 0.631, 0.776, -0.036, 375.311)" fill="#f7e2c4"/>
              <rect id="Rectangle_3441" data-name="Rectangle 3441" width="475.954" height="2.002" transform="matrix(0.776, -0.63, 0.631, 0.776, -0.036, 405.395)" fill="#f7e2c4"/>
              <rect id="Rectangle_3442" data-name="Rectangle 3442" width="475.954" height="2.002" transform="matrix(0.776, -0.63, 0.631, 0.776, -0.036, 367.79)" fill="#f7e2c4"/>
              <rect id="Rectangle_3443" data-name="Rectangle 3443" width="475.954" height="2.002" transform="matrix(0.776, -0.63, 0.631, 0.776, -0.036, 390.353)" fill="#f7e2c4"/>
              <rect id="Rectangle_3444" data-name="Rectangle 3444" width="475.954" height="2.002" transform="matrix(0.776, -0.63, 0.631, 0.776, -0.084, 480.546)" fill="#f7e2c4"/>
              <rect id="Rectangle_3445" data-name="Rectangle 3445" width="475.954" height="2.002" transform="matrix(0.776, -0.63, 0.631, 0.776, -0.084, 420.378)" fill="#f7e2c4"/>
              <rect id="Rectangle_3446" data-name="Rectangle 3446" width="475.954" height="2.002" transform="matrix(0.776, -0.63, 0.631, 0.776, -0.036, 465.563)" fill="#f7e2c4"/>
              <rect id="Rectangle_3447" data-name="Rectangle 3447" width="475.954" height="2.002" transform="matrix(0.776, -0.63, 0.631, 0.776, -0.036, 397.874)" fill="#f7e2c4"/>
              <rect id="Rectangle_3448" data-name="Rectangle 3448" width="475.954" height="2.002" transform="matrix(0.776, -0.63, 0.631, 0.776, -0.036, 495.646)" fill="#f7e2c4"/>
              <rect id="Rectangle_3449" data-name="Rectangle 3449" width="475.954" height="2.002" transform="matrix(0.776, -0.63, 0.631, 0.776, -0.036, 435.479)" fill="#f7e2c4"/>
            </g>
          </g>
        </g>
        <g id="向量圖智慧型物件-3" data-name="向量圖智慧型物件" transform="translate(1491 2407)">
          <g id="Group_858" data-name="Group 858">
            <g id="Group_857" data-name="Group 857" clip-path="url(#clip-path-4)">
              <path id="Path_22078" data-name="Path 22078" d="M49.256,60.859c-1.04.358-2.948-2.125-4.683-3.034a12.311,12.311,0,0,1-1.435-.9c-.172-.125-.348-.265-.539-.427a9.355,9.355,0,0,0-2.8-1.4c-3.971-1.85-6.3-11.489-11.776-8.534-1.893,1.022-1.524,2.6-1.848,4.562a22.9,22.9,0,0,0-.657,4.866,34.689,34.689,0,0,0,1.346,9.2c2.772,8.545,9.064,14.441,14.768,20.87,1.011,1.139,2.147,2.115,3.17,3.2a7.88,7.88,0,0,1,1.756,2.287,6.544,6.544,0,0,0,1.8,1.616c2.772,4.1-6.355,3.3-8.281,3.233-4.579-.164-7.98-1.912-12.093-3.819-1.655-.768-3.753-2.266-5.562-2.53-1.533-.223-2.635.36-4,.9-1.2.472-2.954.809-3.63,2.1-.744,1.417-.19,4.245.545,5.561.775,1.386,2.187,2.113,3.314,3.126,1.822,1.637,3.736,3.113,5.674,4.608,3.015,2.327,5.983,4.733,9.1,6.915,1.376.963,2.728,1.852,4.059,2.874.861.66,3.135,1.2,3.049,2.568-2.789,1.936-6.528,1.98-9.755,1.636-3.421-.365-6.889-.931-10.3-1.416a60.32,60.32,0,0,0-8.634-.653c-1.721,0-5.9-.572-6.457,2.059-.557,2.657,3.023,5.357,4.547,6.607,3.655,3,7.691,3.756,12.186,4.373,3.774.518,7.44,1.632,11.236,2,2.382.234,5.528.018,7.707,1.084-.97,1.738-5.9,3.067-7.6,3.37-1.055.189-2.276.39-3.347.528-1.529.2-2.81.676-4.348.959-2.081.383-4.253.57-6.313,1.066-.726.175-2.854.774-3.307,1.424a1.879,1.879,0,0,0-.3.873c-.208,2.937,7.438,6.222,12.474,7.476,12.389,3.086,21.885-2.9,23.04-.535,1.109,2.27-7.625,7.805-10.545,18.175-1.121,3.981-.382,5.111.086,5.507.748.635,1.94.356,4.255-.389a65.6,65.6,0,0,0,7.886-2.941c9.772-4.8,9.651-4.714,9.806-4.823,1.493-1.053,5.688-4.21,9.706-7.418.226-.18,2.274-1.816,2.683-1.42.1.092.07.264-.5,2.249a4.75,4.75,0,0,0-.373,2.235c.031.167.124.587.216.965a7.239,7.239,0,0,1,.227.962,4.477,4.477,0,0,1-.142,1.233c-.068.408-.113.82-.176,1.229-.316,2.075,1.735,5.032,1.735,5.032,3.539,5.1,1.54,10.415,5.829,13.417,2.772,1.94,6.229,1.556,7.854,1.376a5.4,5.4,0,0,0,3.376-1.253,6.094,6.094,0,0,0,1.566-3.83c.929-6.518.812-10.319,1.429-10.425.345-.059.653,1.074,1.849,3.627a33.657,33.657,0,0,0,3.183,5.785c1.089,1.485.871.691,4.694,4.525a54.092,54.092,0,0,0,4.913,4.152c.843.647,1.52,1.132,2.252.957.989-.237,1.5-1.543,2.077-3.025a33.113,33.113,0,0,0,.99-3.594c.563-2.137.844-3.205,1.11-3.9a22.15,22.15,0,0,0,.828-2.3c.211-.737.245-1.037.427-1.843a16.065,16.065,0,0,1,1.1-3.588c.087.022-.268,1.191-.264,2.855a12.644,12.644,0,0,0,.412,3.075c1.136,4.778,1.7,7.166,2.248,8.653a34.889,34.889,0,0,0,4.458,8.927,31.509,31.509,0,0,0,8.678,8.181,12.733,12.733,0,0,0,3.225,1.641c3.125.978,5.667.174,9.034-.89,2.065-.654,3.123-1.272,3.379-2.266a2.221,2.221,0,0,0-.047-1.163c-.49-1.83-2.207-2.658-3.548-3.671-3.339-2.523-4.839-6.561-6.054-9.83-.355-.957-.606-1.853-.606-1.853a32.008,32.008,0,0,1-.759-3.912c-.378-2.356-.569-3.537-.6-3.638a12.341,12.341,0,0,1-.95-3.516c-.039-.64-.08-1.3.2-1.448.59-.308,2.107,1.827,3.212,3.176a28.575,28.575,0,0,0,9.745,7.482c2.265,1.143,5.833,2.884,8.893,1.583a3.38,3.38,0,0,0,2.015-1.828c.354-1.057-.155-2.211-1.06-3.617-2.646-4.109-5.121-4.827-7.409-8.718-.713-1.213-1.335-2.609-.827-3.665.042-.086.368-.744.869-.771.7-.038,1.072,1.174,1.928,2.253.666.84,1.274,1.162,3.4,2.294,5.535,2.947,5.4,2.892,5.523,2.943,5.118,2.151,11.674,2.125,12.152.537.139-.462-.306-.82-2.72-3.461-2.452-2.682-3.678-4.023-4.457-5.069a47.457,47.457,0,0,1-3.883-7.2c-1.673-3.443-1.929-4.368-1.587-4.7.475-.459,1.553.759,4,1.18a11.983,11.983,0,0,0,5.012-.383,25.065,25.065,0,0,0,4.183-1.521c5.754-2.379,6.069-2.679,6.124-3.1.183-1.372-2.58-2.85-6.155-4.762-4.242-2.269-7.525-3.349-7.461-3.556.052-.168,2.205.515,5.893,1.332,1.079.239,3.764.816,7.141,1.325,4.543.686,3.542.223,6.8.786a20.443,20.443,0,0,0,5.785.186c.86-.1,1.824-.27,2.125-.949.225-.509,0-1.131-.406-2.256a10.466,10.466,0,0,0-.734-1.591,12.154,12.154,0,0,0-1.238-1.8A33.566,33.566,0,0,0,190.3,132.8c-3.357-2.488-5.155-3.268-5.026-3.6.15-.39,2.645.483,7.224,1.2,3.175.5,5.634.869,5.965.074.258-.622-.887-1.706-2.3-3.019a49.717,49.717,0,0,0-4.7-3.581,34.087,34.087,0,0,1-5.346-5.5c-1.682-1.993-2.522-3.005-2.515-3.813.027-2.568,4.092-4.7,6.78-5.574,4.272-1.391,5.733.17,10.73-1.576,3.381-1.181,4.184-2.411,4.507-3.113.573-1.246.412-2.524.105-4.981a11.286,11.286,0,0,0-1.11-4.345,9.742,9.742,0,0,0-2.9-3.2,15.465,15.465,0,0,0-5.143-2.547,32.383,32.383,0,0,0-8.195-1.437c-9.87-.431-14.491,1.316-15.237-.338-.414-.919.894-1.722,3.579-6.222a30.839,30.839,0,0,0,3.77-8.167c.782-2.936,1.461-5.484.117-7.7-1.206-1.992-3.879-3.451-5.809-2.74-1.311.483-1.683,1.747-3.86,7.037-1.444,3.507-2.167,5.26-2.47,5.84-3.285,6.286-9.8,9.53-10.289,8.967-.179-.205.522-.832,1.968-3.5.951-1.752.979-2.089,2.141-4.489,1.725-3.563,2.048-3.613,2.922-5.768.918-2.264,1.889-4.656,1.209-5.241-.841-.725-3.366,2.053-8.005,4.656-5.69,3.192-11.649,4.489-11.983,3.742-.065-.144.047-.438,4.411-3.9,3.062-2.431,3.086-2.351,4.495-3.507,5.832-4.789,6.465-7.048,6.463-8.386a1.682,1.682,0,0,0-.138-.791c-.453-.922-1.918-1.179-8.327-.732a38.915,38.915,0,0,0-5.361.54c-3.789.951-5.471,2.7-6.034,2.13s.975-2.574,2.956-7.3a48.37,48.37,0,0,0,2.261-6.493c.855-3.248,1.5-5.718,1.09-8.9-.634-4.862-3.2-7.163-4.072-7.663a1.34,1.34,0,0,0-1.093-.206c-.591.229-.753,1.121-.886,1.689a34.313,34.313,0,0,1-1.633,3.851c-.9,2.437-1.76,3.185-3.609,6.791-2.278,4.444-3.418,6.666-4.212,9.492a10.271,10.271,0,0,1-2.508,4.478c-.619.623-1.175,1.18-1.724,1.043-.617-.155-.853-1.1-1.894-6.828-.3-1.634-.469-2.612-.855-4.019-.395-1.44-.781-2.483-.986-3.039-2.679-7.262-2.772-8.307-4.191-10.87-1.724-3.116-2.586-4.675-3.78-4.732-2.635-.126-5.989,6.3-6.489,12.535-.275,3.428.526,4.138.813,13.78.087,2.881.111,6.08-1.552,6.963a2.789,2.789,0,0,1-2.169.012c-1.742-.624-2.517-2.654-3.6-5.476-.457-1.2-.79-2.419-.842-2.61-.245-.911-.381-1.594-.428-1.823-.5-2.424-1.284-4.267-1.749-6.13-.961-3.848.3-4.4-.646-9.1-.487-2.422-.805-3.9-1.9-4.4-1.649-.741-4.362,1.071-5.709,3.32-1.465,2.446-.477,4.012-1.305,8.991-.215,1.294-1.185,7.132-2.655,7.2-1.535.069-3.184-6.189-3.825-10.591a64.681,64.681,0,0,1-.272-10.306c.142-8.814.616-7.73.591-14.018-.021-5,1.686-6.781.506-8.222C84,4.706,80.145,5.322,77.919,6.105,74.191,7.416,71.881,11.3,67,18.729c-3.733,5.686-5.98,9.213-5.13,13.018a44.763,44.763,0,0,0,1.647,4.857c1.51,3.837,2.668,5.483,2.257,5.851-.257.229-1.876-.985-5.105-3.423a15.007,15.007,0,0,1-3.012-2.883,14.539,14.539,0,0,1-.862-1.237,52.766,52.766,0,0,1-3.947-8.9c-1.513-4.068-2.066-5.473-3.272-5.719a2.574,2.574,0,0,0-1.685.379c-3.2,1.549-4.375,5.957-5.757,11.145a5.056,5.056,0,0,0-.179.907c-.149,1.6.628,2.373,1.916,5.489.244.59.5,1.225.806,2.106.441,1.28.54,1.871,1.35,3.8,1.567,3.725,2.122,3.712,3.012,5.991,1.86,4.759,1.583,10.284.215,10.754" fill="#f7e2c4"/>
              <path id="Path_22079" data-name="Path 22079" d="M167.778,152.75a.686.686,0,0,1,.684-.149,6.039,6.039,0,0,1,.632.17c.41.124.81.256,1.218.352a9.168,9.168,0,0,0,2.471.256,15.139,15.139,0,0,0,4.816-1.187c1.5-.634,2.984-1.549,4.485-2.336,1.484-.813,3.019-1.635,4.378-2.513a3.238,3.238,0,0,0,.411-.318c.041-.039.067-.082.039-.036-.019.063-.012.046-.023,0a1.149,1.149,0,0,0-.428-.631,9.7,9.7,0,0,0-2-1.252c-1.481-.745-3.069-1.409-4.611-2.1-1.553-.665-3.118-1.31-4.717-1.887-.809-.307-1.575-.541-2.446-.919a.891.891,0,0,1-.274-.187.48.48,0,0,1-.07-.092.511.511,0,0,1-.061-.321.5.5,0,0,1,.184-.3.61.61,0,0,1,.128-.068.648.648,0,0,1,.216-.038,2.47,2.47,0,0,1,.387.029l.651.107,1.262.237a89.939,89.939,0,0,0,10.127,1.317c.847.084,1.7.148,2.546.17s1.7.049,2.539.016a24.863,24.863,0,0,1,2.589-.016c.868.046,1.691.1,2.533.074a18.611,18.611,0,0,0,4.9-.741,1.657,1.657,0,0,0,.8-.493c.123-.181.124-.352.015-.709a10.091,10.091,0,0,0-.474-1.1,10.476,10.476,0,0,0-.572-1.075,14.5,14.5,0,0,0-3.288-3.6c-.64-.533-1.305-1.041-1.986-1.528-.34-.245-.686-.482-1.035-.716l-.525-.344-.263-.168-.132-.082-.065-.04-.067-.043a.916.916,0,0,1-.286-.321l.291.326c-1.542-.936-3.1-1.75-4.745-2.595a5.618,5.618,0,0,1-.685-.414,2.014,2.014,0,0,1-.243-.215,1.342,1.342,0,0,1-.186-.28c-.013-.029-.024-.048-.038-.085a1.092,1.092,0,0,1-.039-.172,1.079,1.079,0,0,1,.011-.36,1.038,1.038,0,0,1,.371-.546,1.225,1.225,0,0,1,.284-.139,1.209,1.209,0,0,1,.136-.042l.074-.012.152-.019a9.028,9.028,0,0,1,1.529.092l2.7.324c1.782.2,3.58.355,5.376.464a19.6,19.6,0,0,0,2.6.023,3.7,3.7,0,0,0,.539-.085c.139-.034.231-.114.167-.04-.036.039-.032.125-.034.142s0-.007-.018-.053a1.988,1.988,0,0,0-.279-.394,18.371,18.371,0,0,0-1.945-1.734,20.887,20.887,0,0,0-2.139-1.558c-.74-.471-1.554-.9-2.33-1.415a26.413,26.413,0,0,1-2.246-1.637,39.436,39.436,0,0,1-3.945-3.836c-.616-.67-1.237-1.332-1.841-2.021a12.624,12.624,0,0,1-.863-1.078,2.6,2.6,0,0,1-.538-1.3l.155-.011a2.393,2.393,0,0,0,.614,1.133c.288.339.6.661.926.975.647.63,1.32,1.242,1.987,1.858a44.545,44.545,0,0,0,4.092,3.514,25.321,25.321,0,0,0,2.245,1.442l2.384,1.316a22.384,22.384,0,0,1,2.321,1.566,19.317,19.317,0,0,1,2.18,1.819,3.378,3.378,0,0,1,.521.7,1.544,1.544,0,0,1,.18.593,1.227,1.227,0,0,1-.2.788,1.776,1.776,0,0,1-.968.661,4.947,4.947,0,0,1-.8.163,18.131,18.131,0,0,1-2.846.042c-1.828-.089-3.655-.191-5.482-.4l-2.707-.332a9.071,9.071,0,0,0-1.184-.091l-.018,0-.01,0a.364.364,0,0,0,.056-.012.444.444,0,0,0,.128-.075.647.647,0,0,0,.273-.411.63.63,0,0,0,.015-.275.639.639,0,0,0-.036-.129l-.017-.05a.445.445,0,0,0-.091-.14c.01,0-.029-.021.015.007a5.483,5.483,0,0,0,.48.293c1.568.845,3.215,1.748,4.759,2.73l.291.326a.626.626,0,0,0-.217-.279c-.058-.039,0,0,0,0l.07.045.139.091.273.181.538.369c.357.249.71.5,1.058.764.7.52,1.38,1.062,2.04,1.636a15.04,15.04,0,0,1,3.459,4.043,11.882,11.882,0,0,1,.59,1.208,11.056,11.056,0,0,1,.491,1.272,2.363,2.363,0,0,1,.1.839,1.636,1.636,0,0,1-.359.891,2.675,2.675,0,0,1-1.36.809,19.966,19.966,0,0,1-5.227.527c-.866-.012-1.745-.112-2.577-.2a18.327,18.327,0,0,0-2.529-.081c-.863.018-1.724-.013-2.579-.06s-1.708-.116-2.558-.214c-3.4-.352-6.822-.56-10.212-1.046l-1.266-.163-.618-.065a1.636,1.636,0,0,0-.251-.007c-.007,0-.019.009.058-.015a.3.3,0,0,0,.091-.052.42.42,0,0,0,.164-.268.4.4,0,0,0-.051-.284.41.41,0,0,0-.043-.063c-.094-.084-.025-.026,0-.023.713.259,1.593.492,2.4.744,1.64.5,3.283,1.033,4.883,1.677s3.167,1.29,4.74,2.072a10.121,10.121,0,0,1,2.3,1.5,2.4,2.4,0,0,1,.837,1.523,1.234,1.234,0,0,1-.082.627,1.442,1.442,0,0,1-.342.473,4.324,4.324,0,0,1-.6.462c-1.52.961-3.04,1.676-4.569,2.466-.763.387-1.53.761-2.307,1.129a24.028,24.028,0,0,1-2.4,1.034,14.371,14.371,0,0,1-5.148.932,9.669,9.669,0,0,1-2.579-.486c-.413-.138-.817-.3-1.206-.47a6.091,6.091,0,0,0-.583-.229.514.514,0,0,0-.515.032Z" fill="#2b2b2b"/>
              <path id="Path_22080" data-name="Path 22080" d="M25.392,147.523a33.063,33.063,0,0,0,6.452.689,39.725,39.725,0,0,0,6.444-.538c2.135-.341,4.223-.87,6.363-1.364.537-.122,1.081-.235,1.648-.317a4.068,4.068,0,0,1,1.894.073,1.491,1.491,0,0,1,.9.911,1.839,1.839,0,0,1-.011,1.166,5.928,5.928,0,0,1-.855,1.606c-1.327,1.83-2.778,3.414-4.07,5.148a38.1,38.1,0,0,0-3.475,5.392,26.754,26.754,0,0,0-2.326,5.919,9.98,9.98,0,0,0-.372,3.017,1.831,1.831,0,0,0,.378,1.1,1.211,1.211,0,0,0,1.042.252,17.838,17.838,0,0,0,3.049-.754q1.558-.473,3.1-.992c1.028-.345,2.048-.71,3.056-1.1.5-.2,1.007-.4,1.483-.619l1.48-.693c1.978-.914,3.936-1.87,5.9-2.81l1.472-.708.733-.354a1.31,1.31,0,0,0,.315-.192l.327-.246,2.6-1.967,5.166-3.992c.87-.654,1.7-1.352,2.615-1.994.231-.156.467-.308.719-.449a1.766,1.766,0,0,1,.949-.293.433.433,0,0,1,.207.068.406.406,0,0,1,.205.212.719.719,0,0,1,.027.369c-.023.16-.054.3-.086.431l-.2.8-.423,1.576a2.694,2.694,0,0,0-.105,1.444c.125.526.24,1.022.4,1.567a2.438,2.438,0,0,1,.027.972c-.042.286-.091.539-.122.811a12.338,12.338,0,0,0-.149,1.544,5.154,5.154,0,0,0,.309,1.455,10.324,10.324,0,0,0,.634,1.423c.125.231.254.46.39.684l.485.771-.063-.121a13.748,13.748,0,0,1,1.747,3.419,28.782,28.782,0,0,1,.948,3.648,18.33,18.33,0,0,0,.954,3.424,6.03,6.03,0,0,0,2.015,2.582,9.432,9.432,0,0,0,6.547,1.429,9.048,9.048,0,0,0,3.285-.718,3.511,3.511,0,0,0,1.691-2.4c.255-1.064.361-2.349.53-3.541.151-1.213.279-2.428.394-3.649s.2-2.431.388-3.726c.026-.165.056-.332.1-.516a2.108,2.108,0,0,1,.271-.686,1.124,1.124,0,0,1,.281-.292.948.948,0,0,1,.617-.179.819.819,0,0,1,.311.072,1.049,1.049,0,0,1,.221.125,1.328,1.328,0,0,1,.217.211,2.869,2.869,0,0,1,.337.551c.295.613.512,1.162.762,1.725a47.4,47.4,0,0,0,3.289,6.452,10.747,10.747,0,0,0,1.014,1.366c.346.352.885.768,1.339,1.189.933.845,1.812,1.722,2.677,2.609l.158.246a.618.618,0,0,0-.139-.229l.02.021.041.041.084.084.173.167.351.333.72.657q.729.652,1.481,1.28t1.518,1.241a10.682,10.682,0,0,0,1.5,1.078.87.87,0,0,0,1.141-.156,5.021,5.021,0,0,0,.9-1.509l.378-.9a7.554,7.554,0,0,0,.3-.882l.525-1.905c.354-1.273.77-2.552,1.151-3.825.1-.316.182-.639.3-.95l.38-.909a12.1,12.1,0,0,0,.605-1.847c.327-1.257.649-2.562,1.089-3.813a6.868,6.868,0,0,1,.386-.952l.026-.038c.016-.015-.005-.015.073-.067a.16.16,0,0,1,.215.037c.067.115.029.083.041.116a.728.728,0,0,1-.013.156l-.045.249-.091.484a13.2,13.2,0,0,0-.205,1.951h-.154a13.276,13.276,0,0,1,.1-1.991l.065-.493.031-.24a.585.585,0,0,0,.005-.09c.01.013-.022-.042.029.057a.151.151,0,0,0,.169.039c.058-.044.029-.024.032-.022l-.007.013a7.161,7.161,0,0,0-.3.9c-.368,1.262-.609,2.538-.876,3.851a12.557,12.557,0,0,1-.523,1.942l-.347.931c-.108.307-.173.63-.262.943-.328,1.27-.681,2.514-.987,3.8l-.455,1.929a8.62,8.62,0,0,1-.3,1l-.355.939a5.962,5.962,0,0,1-1.069,1.9,2.065,2.065,0,0,1-1.164.649,2.216,2.216,0,0,1-1.305-.214,11.235,11.235,0,0,1-1.743-1.177q-.794-.6-1.573-1.225c-.519-.416-1.034-.838-1.541-1.272l-.757-.659-.374-.338-.186-.173-.094-.088-.046-.045-.024-.022a.853.853,0,0,1-.184-.272l.158.246c-.874-.855-1.758-1.7-2.668-2.483-.457-.407-.912-.723-1.446-1.232a11.948,11.948,0,0,1-1.229-1.562,48.318,48.318,0,0,1-3.452-6.674c-.251-.561-.5-1.155-.737-1.649a2.29,2.29,0,0,0-.135-.239c-.011-.017.024.033.055.047a.629.629,0,0,0,.121.069.881.881,0,0,0,.2.046.668.668,0,0,0,.4-.114.447.447,0,0,0,.125-.124c.032-.062-.028.067-.046.177s-.052.25-.074.39c-.162,1.143-.24,2.4-.356,3.624s-.234,2.465-.381,3.7c-.073.617-.151,1.232-.243,1.846a16.41,16.41,0,0,1-.356,1.909,5.1,5.1,0,0,1-2.532,3.38,10.386,10.386,0,0,1-3.881.84,14.192,14.192,0,0,1-3.876-.2,8.874,8.874,0,0,1-3.639-1.6,7.279,7.279,0,0,1-2.419-3.2,19.57,19.57,0,0,1-.952-3.7,27.486,27.486,0,0,0-.826-3.517,13.511,13.511,0,0,0-1.509-3.182l-.063-.122a.315.315,0,0,0,.03.072l-.029-.046-.057-.092-.111-.182-.213-.367c-.139-.246-.269-.5-.394-.75a11.217,11.217,0,0,1-.641-1.585,6.04,6.04,0,0,1-.3-1.744,12.72,12.72,0,0,1,.216-1.7l.148-.8a1.612,1.612,0,0,0,.009-.651c-.134-.505-.251-1.074-.361-1.613a2.542,2.542,0,0,1-.032-.93,6.277,6.277,0,0,1,.2-.844l.47-1.569.223-.777c.035-.128.067-.257.086-.367.014-.045,0-.118.022-.036a.442.442,0,0,0,.056.081c.02.009.035,0,.018.007a1.506,1.506,0,0,0-.584.205,6.69,6.69,0,0,0-.675.4c-.876.6-1.725,1.294-2.6,1.94L63.2,160.522l-2.588,2-.323.251a1.809,1.809,0,0,1-.378.237l-.734.368-1.462.728c-1.948.973-3.9,1.936-5.836,2.942l-1.453.747c-.5.255-1,.476-1.506.7-1.009.435-2.026.841-3.051,1.229s-2.054.757-3.088,1.112a18.489,18.489,0,0,1-3.256.916,3.207,3.207,0,0,1-1-.015,2.077,2.077,0,0,1-1.02-.515,2.9,2.9,0,0,1-.8-1.874,11.168,11.168,0,0,1,.368-3.453,28.043,28.043,0,0,1,2.375-6.254,38.588,38.588,0,0,1,3.673-5.539c1.339-1.744,2.857-3.366,4.112-5.051a4.866,4.866,0,0,0,.706-1.251.682.682,0,0,0,.036-.437.3.3,0,0,0-.207-.205,3.45,3.45,0,0,0-1.34-.047c-.513.055-1.04.145-1.57.246-2.119.414-4.277.881-6.457,1.153a31.986,31.986,0,0,1-13.054-.835Z" fill="#2b2b2b"/>
              <path id="Path_22081" data-name="Path 22081" d="M102.749,51.245A48.587,48.587,0,0,0,101.4,46.5a20.364,20.364,0,0,1-1.065-4.876c-.085-1.7.17-3.321-.014-4.929a37.216,37.216,0,0,0-.867-4.8,5.174,5.174,0,0,0-.892-2.063,1.788,1.788,0,0,0-1.842-.44,6.833,6.833,0,0,0-3.579,2.735,6.241,6.241,0,0,0-.986,2.047,9.807,9.807,0,0,0-.244,2.324,40.185,40.185,0,0,1-.269,4.995c-.221,1.665-.5,3.293-.886,4.933a19.406,19.406,0,0,1-.731,2.45,6.259,6.259,0,0,1-.615,1.231,2.282,2.282,0,0,1-.591.617,1.269,1.269,0,0,1-1.154.153,1.859,1.859,0,0,1-.745-.543,4.231,4.231,0,0,1-.433-.591,9.171,9.171,0,0,1-.6-1.187,22.879,22.879,0,0,1-.846-2.4c-.48-1.611-.85-3.237-1.168-4.874a41.893,41.893,0,0,1-.7-4.972c-.115-1.678-.118-3.343-.106-5,.047-3.308.093-6.6.257-9.918.071-1.656.251-3.318.384-4.945s.179-3.26.2-4.9a24.939,24.939,0,0,1,.489-5.01c.16-.82.373-1.631.512-2.4a2.177,2.177,0,0,0-.372-1.981C83.624,1,81.913.716,80.355.765a11.313,11.313,0,0,0-4.622,1.093A12.381,12.381,0,0,0,72.14,5.03C71.1,6.288,70.167,7.641,69.251,9.005c-1.809,2.747-3.62,5.511-5.366,8.3a47.368,47.368,0,0,0-2.413,4.283,13.365,13.365,0,0,0-1.383,4.618,8.992,8.992,0,0,0,.145,2.384c.162.785.407,1.572.652,2.352.509,1.559,1.072,3.108,1.677,4.63q.46,1.141.955,2.27a24.533,24.533,0,0,1,.949,2.341,1.856,1.856,0,0,1,.066.386.734.734,0,0,1-.2.582.6.6,0,0,1-.3.136.9.9,0,0,1-.181-.013,1.088,1.088,0,0,1-.233-.074,2.883,2.883,0,0,1-.319-.171c-.38-.235-.71-.487-1.043-.741-.659-.512-1.3-1.037-1.934-1.564a48.1,48.1,0,0,1-3.76-3.29,18.659,18.659,0,0,1-2.917-4.142A69.249,69.249,0,0,1,49.9,22.06c-.553-1.545-1.074-3.129-1.724-4.568A3.069,3.069,0,0,0,47,15.937a1.12,1.12,0,0,0-.771-.035,4.658,4.658,0,0,0-.978.437,7.25,7.25,0,0,0-2.842,3.4,28.7,28.7,0,0,0-1.6,4.544c-.222.784-.426,1.579-.631,2.374l-.3,1.2c-.052.359-.158.72-.176,1.068A4.636,4.636,0,0,0,40.172,31l.977,2.266c.327.77.625,1.552.9,2.345s.58,1.577.807,2.383A37.655,37.655,0,0,0,44.5,42.563c.317.744.651,1.469,1.027,2.174s.809,1.428,1.167,2.234a22.713,22.713,0,0,1,1.484,4.909,23.033,23.033,0,0,1,.407,5.105,10.31,10.31,0,0,1-.409,2.654,3.841,3.841,0,0,1-.306.713,1.978,1.978,0,0,1-.682.751,1.383,1.383,0,0,1-.65.2,1.767,1.767,0,0,1-.589-.063,3.313,3.313,0,0,1-.762-.373,16.233,16.233,0,0,1-1.969-1.723,14.089,14.089,0,0,0-1.766-1.517c-.287-.19-.694-.489-1.033-.73a9.639,9.639,0,0,1-1.042-.8,5.592,5.592,0,0,0-1.821-1.271c-.361-.163-.768-.339-1.161-.551a6.084,6.084,0,0,1-1.156-.806A12.378,12.378,0,0,1,33.483,51.5c-1.008-1.377-1.831-2.813-2.734-4.156a11.038,11.038,0,0,0-3.088-3.377,2.894,2.894,0,0,0-1.921-.394,3.656,3.656,0,0,0-1.828.844c-.914.818-.694,2.65-1.038,4.328a24.879,24.879,0,0,0-.679,4.777A44.615,44.615,0,0,0,23.277,63.2,38.64,38.64,0,0,0,26.992,72.2c3.225,5.707,7.561,10.73,11.6,15.932l-.121.1c-4.2-5.069-8.746-9.905-12.16-15.637A39.511,39.511,0,0,1,22.3,63.456a43.3,43.3,0,0,1-1.313-9.92,25.811,25.811,0,0,1,.627-5.011c.14-.785.169-1.556.262-2.428a6.193,6.193,0,0,1,.286-1.354,3.422,3.422,0,0,1,.8-1.29,3.972,3.972,0,0,1,1.212-.82,4.041,4.041,0,0,1,.654-.262,3.841,3.841,0,0,1,.7-.173,4.313,4.313,0,0,1,2.833.527A12.254,12.254,0,0,1,31.981,46.5c.951,1.383,1.807,2.792,2.749,4.074a10.926,10.926,0,0,0,1.524,1.717,4.523,4.523,0,0,0,.867.6c.333.178.683.328,1.074.5a6.8,6.8,0,0,1,1.21.67,11.467,11.467,0,0,1,1.011.851,8.177,8.177,0,0,0,.918.7l.473.338c.156.112.3.221.515.356A15.27,15.27,0,0,1,44.311,58a15.529,15.529,0,0,0,1.744,1.533l.191.112.149.064c.067-.009,0,.008-.046.028a.579.579,0,0,0,.121-.17,2.354,2.354,0,0,0,.176-.424,8.846,8.846,0,0,0,.323-2.223,21.41,21.41,0,0,0-.395-4.735,21.1,21.1,0,0,0-1.382-4.537c-.315-.7-.723-1.389-1.117-2.151s-.744-1.53-1.068-2.305a39.436,39.436,0,0,1-1.66-4.751c-.214-.783-.5-1.539-.761-2.306s-.543-1.527-.854-2.278l-.963-2.283a6.136,6.136,0,0,1-.559-2.716,12.14,12.14,0,0,1,.231-1.369l.314-1.2c.212-.8.425-1.6.658-2.4a30.066,30.066,0,0,1,1.723-4.761,12.336,12.336,0,0,1,1.38-2.235A6.949,6.949,0,0,1,44.6,15.138,5.808,5.808,0,0,1,45.89,14.6a2.475,2.475,0,0,1,1.646.118,2.889,2.889,0,0,1,1.181,1.049,7.611,7.611,0,0,1,.644,1.19c.685,1.578,1.168,3.142,1.706,4.707a74.233,74.233,0,0,0,3.526,9.147,17.645,17.645,0,0,0,2.674,3.977,48.03,48.03,0,0,0,3.611,3.291c.624.536,1.249,1.07,1.883,1.58.316.251.639.505.956.709a1.971,1.971,0,0,0,.222.127c.018.005.075.033.059.024s-.01,0-.029.005a.225.225,0,0,0-.159.074c-.066.052-.021.084-.037,0a1.223,1.223,0,0,0-.036-.222c-.207-.72-.568-1.5-.873-2.254s-.625-1.532-.92-2.307c-.587-1.551-1.119-3.115-1.609-4.7-.242-.793-.484-1.586-.651-2.417a9.565,9.565,0,0,1-.137-2.538,13.894,13.894,0,0,1,1.465-4.8,47.923,47.923,0,0,1,2.467-4.314C65.26,14.269,67,11.478,68.8,8.709c.909-1.38,1.838-2.751,2.887-4.047A13.315,13.315,0,0,1,75.431,1.3,11.973,11.973,0,0,1,80.324.015a8.713,8.713,0,0,1,2.57.212,4.386,4.386,0,0,1,2.312,1.359,2.549,2.549,0,0,1,.639,1.3,4.666,4.666,0,0,1-.02,1.373c-.134.853-.324,1.644-.463,2.445A23.931,23.931,0,0,0,85,11.537c.017,1.654.008,3.32-.092,4.984s-.221,3.287-.292,4.926c-.139,3.273-.162,6.576-.186,9.863,0,1.642.015,3.278.138,4.89a46.02,46.02,0,0,0,.649,4.823c.3,1.6.646,3.2,1.094,4.753a21.589,21.589,0,0,0,.776,2.268,7.966,7.966,0,0,0,.5,1.024,1.719,1.719,0,0,0,.519.606c.021,0-.059.021.015-.013a1.093,1.093,0,0,0,.252-.276,5.088,5.088,0,0,0,.491-.974,18.129,18.129,0,0,0,.7-2.28c.383-1.568.677-3.192.9-4.794a44.7,44.7,0,0,0,.321-4.875,10.824,10.824,0,0,1,.334-2.576,7.261,7.261,0,0,1,1.193-2.36,9.134,9.134,0,0,1,1.824-1.861,6.193,6.193,0,0,1,2.384-1.171,2.686,2.686,0,0,1,2.69.763,5.869,5.869,0,0,1,1.033,2.443,34.177,34.177,0,0,1,.767,4.946c.132,1.689-.182,3.356-.149,4.956a20.011,20.011,0,0,0,.887,4.8,44.892,44.892,0,0,1,1.151,4.821Z" fill="#2b2b2b"/>
              <path id="Path_22082" data-name="Path 22082" d="M181.783,111.113A3.822,3.822,0,0,1,183,108.572a10.574,10.574,0,0,1,2.253-1.735,16.79,16.79,0,0,1,5.293-2.043c1.9-.366,3.807-.1,5.6-.4a17.743,17.743,0,0,0,5.186-1.715,5.361,5.361,0,0,0,1.975-1.648,4.092,4.092,0,0,0,.523-2.446c-.041-.9-.182-1.824-.3-2.752a18.012,18.012,0,0,0-.494-2.686,7.519,7.519,0,0,0-1.185-2.332,9.519,9.519,0,0,0-1.9-1.859,14.637,14.637,0,0,0-4.776-2.5,31.686,31.686,0,0,0-5.364-1.248,38.973,38.973,0,0,0-5.521-.347c-1.858-.019-3.714.038-5.571.157l-2.794.2a27.5,27.5,0,0,1-2.888.119,3.286,3.286,0,0,1-1.7-.438,1.292,1.292,0,0,1-.419-.406,1.464,1.464,0,0,1-.268-.554,1.718,1.718,0,0,1,.152-1.122,9.048,9.048,0,0,1,.811-1.3l.809-1.143c1.062-1.512,2.023-3.1,2.956-4.712A27.709,27.709,0,0,0,177.7,70.7c.293-.852.521-1.753.756-2.655a17.081,17.081,0,0,0,.5-2.658,5.969,5.969,0,0,0-.269-2.5,5.241,5.241,0,0,0-1.429-2.039,5.679,5.679,0,0,0-2.194-1.246,2.718,2.718,0,0,0-2.24.2,5.538,5.538,0,0,0-1.349,2.108c-.38.842-.74,1.707-1.1,2.571-.716,1.73-1.482,3.462-2.231,5.191-.381.863-.742,1.732-1.138,2.589a19.176,19.176,0,0,1-1.556,2.409,21.942,21.942,0,0,1-4,4.053,21.18,21.18,0,0,1-2.358,1.606,12.043,12.043,0,0,1-1.284.654,6.209,6.209,0,0,1-.7.253,2.8,2.8,0,0,1-.4.078.9.9,0,0,1-.261-.011.442.442,0,0,1-.357-.29.535.535,0,0,1,.038-.366,1.677,1.677,0,0,1,.1-.191l.193-.311.382-.589q.378-.587.73-1.188c.47-.8.922-1.621,1.319-2.456.769-1.7,1.566-3.416,2.453-5.074.438-.835.932-1.641,1.346-2.462s.735-1.7,1.082-2.573a16.24,16.24,0,0,0,.837-2.632c.081-.414.091-.947-.115-1.056-.074-.073-.262-.043-.455.026a3.816,3.816,0,0,0-.586.287c-1.547.977-3.03,2.178-4.622,3.18a37.5,37.5,0,0,1-4.959,2.723,36.946,36.946,0,0,1-5.3,1.99,15.771,15.771,0,0,1-2.816.572,3.584,3.584,0,0,1-.782-.006.953.953,0,0,1-.523-.224.6.6,0,0,1-.142-.232.5.5,0,0,1,.018-.314.945.945,0,0,1,.149-.246,10.35,10.35,0,0,1,1.059-1.026c1.428-1.238,2.889-2.409,4.355-3.586s2.981-2.272,4.366-3.509a28.635,28.635,0,0,0,3.853-3.944,7.492,7.492,0,0,0,1.269-2.28,3.422,3.422,0,0,0,.138-1.2.771.771,0,0,0-.115-.416.744.744,0,0,0-.3-.252,7.185,7.185,0,0,0-2.525-.305c-.916,0-1.845.044-2.773.1-1.852.12-3.735.263-5.578.435-.458.046-.914.1-1.346.174a11.046,11.046,0,0,0-1.28.33,18.211,18.211,0,0,0-2.517,1l-1.247.627a7.077,7.077,0,0,1-.71.321,1.6,1.6,0,0,1-.224.073,1.38,1.38,0,0,1-.276.054,1.1,1.1,0,0,1-1.264-.974,1.754,1.754,0,0,1,.039-.579,4.615,4.615,0,0,1,.262-.791c.2-.465.4-.888.612-1.314.836-1.683,1.623-3.347,2.324-5.07a47.445,47.445,0,0,0,1.838-5.224,48.284,48.284,0,0,0,1.239-5.379,14.439,14.439,0,0,0-.185-5.312,10.981,10.981,0,0,0-2.207-4.7,7.009,7.009,0,0,0-.887-.881,1.759,1.759,0,0,0-.771-.431c-.05.005.011-.009-.023.009a.95.95,0,0,0-.162.3c-.122.309-.188.781-.358,1.313a21.932,21.932,0,0,1-1.193,2.661c-.2.411-.329.771-.517,1.258-.185.457-.392.91-.619,1.348-.457.881-.966,1.675-1.431,2.472s-.916,1.6-1.341,2.421c-.854,1.662-1.724,3.328-2.515,5-.394.836-.763,1.675-1.087,2.524-.158.427-.311.854-.446,1.287s-.246.864-.411,1.358a10.8,10.8,0,0,1-3.37,4.971,2.35,2.35,0,0,1-.932.473,1.537,1.537,0,0,1-.713-.012,1.419,1.419,0,0,1-.669-.408,2.544,2.544,0,0,1-.484-.883c-.093-.259-.16-.5-.222-.74-.245-.955-.415-1.875-.594-2.8l-.5-2.772-.559-2.71c-.1-.448-.16-.912-.3-1.349l-.418-1.314c-.27-.875-.556-1.753-.888-2.64l-1.851-5.321c-.3-.885-.611-1.757-.966-2.589a27.14,27.14,0,0,0-1.243-2.452c-.45-.816-.9-1.637-1.387-2.383s-1.06-1.432-1.6-1.3a3.2,3.2,0,0,0-1.889,1.274,13.65,13.65,0,0,0-1.484,2.228,23.154,23.154,0,0,0-1.924,5.13,20.373,20.373,0,0,0-.621,5.438c.108,1.825.371,3.718.479,5.594q.19,2.819.233,5.637a20.737,20.737,0,0,1-.4,5.676,3.848,3.848,0,0,1-.665,1.331,2.21,2.21,0,0,1-1.3.791,3.447,3.447,0,0,1-2.762-.824,6.76,6.76,0,0,1-1.572-2.38c-.385-.863-.7-1.748-1.023-2.628l.145-.055c.351.868.689,1.744,1.094,2.582a6.5,6.5,0,0,0,1.564,2.235,3.1,3.1,0,0,0,2.474.674,2.3,2.3,0,0,0,1.575-1.86,20.342,20.342,0,0,0,.21-5.52c-.091-1.87-.191-3.738-.36-5.6-.145-1.868-.441-3.689-.6-5.607a21.3,21.3,0,0,1,.533-5.718,24.151,24.151,0,0,1,1.91-5.42,13.91,13.91,0,0,1,1.588-2.469c.171-.187.334-.379.513-.561.2-.171.384-.35.6-.511a3.134,3.134,0,0,1,1.587-.648,1.839,1.839,0,0,1,.964.129,2.768,2.768,0,0,1,.763.493,6.82,6.82,0,0,1,.992,1.194c.549.814,1.008,1.637,1.474,2.456a28.52,28.52,0,0,1,1.33,2.548c.391.888.716,1.783,1.034,2.667l1.912,5.283c.337.865.644,1.765.939,2.679l.45,1.362c.155.453.219.926.333,1.389l.612,2.792.527,2.759c.179.912.354,1.837.578,2.7.055.214.116.424.183.606a1.385,1.385,0,0,0,.165.354.169.169,0,0,0-.08-.045c-.014-.005-.03,0-.018,0a.946.946,0,0,0,.3-.179,9.228,9.228,0,0,0,2.833-4.235c.132-.4.25-.871.4-1.335s.3-.919.471-1.373c.341-.9.726-1.782,1.129-2.644.811-1.721,1.674-3.383,2.529-5.059.435-.845.9-1.682,1.376-2.5s.979-1.611,1.383-2.4c.2-.4.385-.8.551-1.208.149-.388.339-.909.55-1.344a21.52,21.52,0,0,0,1.109-2.466c.125-.359.175-.829.387-1.4a2.438,2.438,0,0,1,.556-.895,1.653,1.653,0,0,1,1.254-.464,3.1,3.1,0,0,1,1.705.8,8.7,8.7,0,0,1,1.1,1.1,12.551,12.551,0,0,1,2.508,5.4,16,16,0,0,1,.166,5.871,49.645,49.645,0,0,1-1.32,5.571,49.018,49.018,0,0,1-1.931,5.37c-.724,1.747-1.556,3.469-2.4,5.139-.206.416-.414.833-.585,1.231a3.412,3.412,0,0,0-.188.538,1.037,1.037,0,0,0-.022.117.3.3,0,0,0-.121-.184.664.664,0,0,0-.15-.059c-.006.009.039-.008.068-.015a.59.59,0,0,0,.109-.034,5.913,5.913,0,0,0,.573-.251l1.273-.617a19.738,19.738,0,0,1,2.718-1.033,12.3,12.3,0,0,1,1.446-.346c.491-.077.968-.124,1.442-.165,1.89-.147,3.746-.259,5.634-.352.943-.039,1.888-.07,2.845-.056a7.818,7.818,0,0,1,3,.462,1.832,1.832,0,0,1,.738.663,1.857,1.857,0,0,1,.268.92,4.49,4.49,0,0,1-.2,1.58,8.469,8.469,0,0,1-1.478,2.593,46.853,46.853,0,0,1-8.5,7.5c-1.476,1.146-2.959,2.3-4.383,3.492a10.272,10.272,0,0,0-.978.908c-.028.031-.05.071-.04.049a.266.266,0,0,0,0-.144c-.024-.064-.02-.063-.047-.086-.043-.029.043.017.121.026a2.962,2.962,0,0,0,.62.011,15.231,15.231,0,0,0,2.692-.505A36.46,36.46,0,0,0,158.5,65.144c1.589-.985,3.032-2.147,4.66-3.163a4.3,4.3,0,0,1,.676-.325,1.9,1.9,0,0,1,.407-.095.838.838,0,0,1,.487.125.981.981,0,0,1,.391.808,3.263,3.263,0,0,1-.063.758,16.57,16.57,0,0,1-.878,2.718c-.351.871-.689,1.747-1.106,2.606s-.906,1.655-1.332,2.484c-.869,1.658-1.637,3.349-2.4,5.074-.4.861-.852,1.689-1.322,2.509q-.353.613-.732,1.213l-.379.593-.176.287c-.057.067-.074.238-.08.1-.041-.112-.108-.105-.081-.108,0,.009.061,0,.089,0a2.2,2.2,0,0,0,.292-.062,5.563,5.563,0,0,0,.621-.232,11.589,11.589,0,0,0,1.215-.631,18.4,18.4,0,0,0,2.266-1.584,21.28,21.28,0,0,0,3.8-4,18.512,18.512,0,0,0,1.447-2.341c.371-.851.713-1.723,1.072-2.582.706-1.727,1.422-3.44,2.108-5.19.347-.871.69-1.744,1.065-2.62.193-.438.388-.875.629-1.314a3.3,3.3,0,0,1,4.2-1.669,6.805,6.805,0,0,1,2.683,1.45,6.441,6.441,0,0,1,1.807,2.493,6.9,6.9,0,0,1,.382,3.043,18.187,18.187,0,0,1-.515,2.87c-.231.915-.457,1.835-.768,2.76a28.978,28.978,0,0,1-2.395,5.222c-.935,1.64-1.907,3.269-2.991,4.833l-.81,1.156a8.181,8.181,0,0,0-.69,1.07c-.075.16-.078.228-.071.239a.141.141,0,0,0,.046.068c0,.033.041.053.078.075a2.166,2.166,0,0,0,.993.209c1.746.04,3.669-.2,5.538-.279,1.883-.106,3.775-.15,5.664-.116a34.732,34.732,0,0,1,11.246,1.742,15.3,15.3,0,0,1,5.1,2.74,9.263,9.263,0,0,1,3.363,4.79,18.852,18.852,0,0,1,.474,2.85c.1.933.231,1.864.258,2.843a4.978,4.978,0,0,1-.716,2.948,6.137,6.137,0,0,1-2.318,1.892,16.491,16.491,0,0,1-2.673,1.064,15.049,15.049,0,0,1-2.8.618c-1.923.244-3.8-.07-5.608.23a16.36,16.36,0,0,0-5.2,1.837,10.735,10.735,0,0,0-2.246,1.606,3.618,3.618,0,0,0-1.251,2.358Z" fill="#2b2b2b"/>
              <path id="Path_22083" data-name="Path 22083" d="M42.034,89.073a6.535,6.535,0,0,0,1.824,1.58l.009,0,.006.009a3.246,3.246,0,0,1,.518,1.1,1.341,1.341,0,0,1-.3,1.187,4.074,4.074,0,0,1-2.218.991,24,24,0,0,1-4.82.255l-2.409-.091a21.274,21.274,0,0,1-2.41-.319,26.139,26.139,0,0,1-4.635-1.43c-1.5-.6-2.955-1.271-4.414-1.935-1.487-.7-2.823-1.591-4.265-2.117A4.546,4.546,0,0,0,16.763,88a7.958,7.958,0,0,0-2.16.677c-.729.33-1.558.579-2.248.855a3.173,3.173,0,0,0-1.642,1.2,3.761,3.761,0,0,0-.311,2.038,8.679,8.679,0,0,0,.452,2.205,4.387,4.387,0,0,0,1.109,1.814,17.66,17.66,0,0,0,1.805,1.461c.677.516,1.242,1.067,1.856,1.562s1.228,1.005,1.855,1.5l3.8,2.929c2.536,1.963,5.041,3.946,7.641,5.774l3.948,2.778.494.348a3.364,3.364,0,0,0,.416.252l1.069.538A5.276,5.276,0,0,1,36,114.7a2.085,2.085,0,0,1,.71,1.621l-.026.348-.281.2a11.072,11.072,0,0,1-4.812,1.778,21.775,21.775,0,0,1-5,.055c-3.227-.4-6.417-.853-9.629-1.277a66.839,66.839,0,0,0-9.536-.827c-.845,0-1.638-.069-2.409-.06a8.128,8.128,0,0,0-2.18.261,1.771,1.771,0,0,0-1.282,1.065,2.421,2.421,0,0,0,.182,1.809,11.13,11.13,0,0,0,2.938,3.4c.6.507,1.242,1.032,1.846,1.486a16.96,16.96,0,0,0,1.964,1.226,27.3,27.3,0,0,0,9.071,2.454c3.256.449,6.379,1.327,9.515,1.838a37.808,37.808,0,0,0,4.758.438,13.173,13.173,0,0,1,4.923,1.01l.547.262-.316.479a5.369,5.369,0,0,1-2.318,1.8,19.6,19.6,0,0,1-2.546.983c-.862.271-1.729.5-2.618.687s-1.77.277-2.656.418l-1.319.2c-.423.054-.846.132-1.27.226-.849.188-1.707.432-2.6.609-1.773.342-3.539.483-5.272.776a19.35,19.35,0,0,0-2.553.575,10.717,10.717,0,0,0-1.218.439c-.379.177-.783.363-.922.665a1.92,1.92,0,0,0,.419,2.191,8.872,8.872,0,0,0,1.948,1.7,27.825,27.825,0,0,0,4.679,2.45,39.685,39.685,0,0,0,5.013,1.744,39.914,39.914,0,0,1-5.088-1.558,26.855,26.855,0,0,1-4.8-2.335,9.285,9.285,0,0,1-2.087-1.73,3.375,3.375,0,0,1-.693-1.238,2.01,2.01,0,0,1,.161-1.467,1.326,1.326,0,0,1,.231-.335,2.145,2.145,0,0,1,.3-.242,4.412,4.412,0,0,1,.617-.346,11.333,11.333,0,0,1,1.268-.5,20.231,20.231,0,0,1,2.614-.666c1.755-.341,3.524-.552,5.227-.906.847-.183,1.691-.438,2.57-.649.439-.1.887-.2,1.342-.263l1.308-.216c.861-.153,1.753-.271,2.589-.452s1.688-.431,2.512-.706a18.529,18.529,0,0,0,2.4-.971,4.583,4.583,0,0,0,1.839-1.405l.231.739a12.211,12.211,0,0,0-4.517-.82c-.8-.036-1.6-.053-2.427-.1s-1.643-.149-2.455-.265c-3.246-.462-6.366-1.313-9.51-1.733a28.541,28.541,0,0,1-9.53-2.544A18.4,18.4,0,0,1,5.7,125.686c-.689-.513-1.3-1.009-1.934-1.538a12.354,12.354,0,0,1-3.339-3.881,3.864,3.864,0,0,1-.245-2.892,2.953,2.953,0,0,1,.357-.723,3.134,3.134,0,0,1,.553-.581,3.989,3.989,0,0,1,1.31-.687,16.919,16.919,0,0,1,5.036-.3,65.208,65.208,0,0,1,9.739.8c3.184.439,6.381.912,9.556,1.324a20.4,20.4,0,0,0,4.659-.02,9.632,9.632,0,0,0,4.2-1.51l-.306.543a.66.66,0,0,0-.258-.491,3.985,3.985,0,0,0-.84-.557l-1.072-.548a4.633,4.633,0,0,1-.606-.378l-.486-.345-3.9-2.773c-2.631-1.872-5.14-3.881-7.658-5.854-1.256-.985-2.533-1.956-3.782-2.974q-.939-.761-1.859-1.552c-.623-.522-1.2-1.1-1.792-1.562a18.42,18.42,0,0,1-1.9-1.6A5.576,5.576,0,0,1,9.8,95.329a9.771,9.771,0,0,1-.467-2.5,4.712,4.712,0,0,1,.5-2.631,4.14,4.14,0,0,1,2.162-1.589c.8-.3,1.517-.495,2.255-.813a8.8,8.8,0,0,1,2.423-.7,5.446,5.446,0,0,1,2.551.4c1.564.606,2.9,1.535,4.3,2.22,1.445.686,2.876,1.4,4.333,2.036a25.579,25.579,0,0,0,4.49,1.524,20.711,20.711,0,0,0,2.339.376l2.386.156a23.751,23.751,0,0,0,4.759-.118,3.962,3.962,0,0,0,2.13-.854,1.178,1.178,0,0,0,.3-1.041,3.152,3.152,0,0,0-.461-1.074l.015.013a6.572,6.572,0,0,1-1.777-1.658" fill="#2b2b2b"/>
              <path id="Path_22084" data-name="Path 22084" d="M120.245,170.5a18.915,18.915,0,0,0,.867,4.338l1.178,4.3c.208.711.4,1.425.632,2.121s.506,1.373.776,2.064a36.95,36.95,0,0,0,1.845,4A31.391,31.391,0,0,0,137.667,199.6a9.093,9.093,0,0,0,3.932,1.173,13.5,13.5,0,0,0,4.181-.562c.7-.187,1.408-.4,2.119-.618a13.618,13.618,0,0,0,2-.717,2.047,2.047,0,0,0,1.226-1.156A2.518,2.518,0,0,0,150.75,196c-.661-1.139-2.007-1.838-3.192-2.822a13.769,13.769,0,0,1-2.953-3.484,26.452,26.452,0,0,1-1.965-4.062c-.553-1.393-1.038-2.8-1.481-4.218l-.006-.019a34.317,34.317,0,0,1-.69-3.5l-.59-3.463a6.631,6.631,0,0,0-.5-1.676,8.955,8.955,0,0,1-.5-1.751,8.021,8.021,0,0,1-.1-.909,4.728,4.728,0,0,1,0-.947.811.811,0,0,1,.315-.59.736.736,0,0,1,.719.022,3.431,3.431,0,0,1,.768.606c.864.868,1.561,1.828,2.327,2.707a24.6,24.6,0,0,0,2.449,2.479,28.153,28.153,0,0,0,5.761,3.885,23.046,23.046,0,0,0,6.382,2.5,6.069,6.069,0,0,0,3.148-.244c1.017-.357,1.852-1,1.918-1.794a4.913,4.913,0,0,0-1.108-2.77,18.788,18.788,0,0,0-2.123-2.662c-.782-.828-1.66-1.6-2.525-2.452a18.035,18.035,0,0,1-2.372-2.841,15.007,15.007,0,0,1-.943-1.62,5.886,5.886,0,0,1-.616-1.96,2.833,2.833,0,0,1,.751-2.3,1.749,1.749,0,0,1,.7-.446,1.441,1.441,0,0,1,1.024.056,2.449,2.449,0,0,1,.959.916c.364.553.623,1.027.945,1.441a3.847,3.847,0,0,0,1.089.991c.922.576,2.012,1.125,3.039,1.69l3.117,1.686.779.423.388.211.189.1.051.027.087.036c.519.222,1.052.42,1.594.6a21.689,21.689,0,0,0,6.732,1.091,10.43,10.43,0,0,0,1.651-.143,4.71,4.71,0,0,0,.739-.2,1.112,1.112,0,0,0,.455-.273c.033-.029.022-.057.025.015.012.054,0-.022-.067-.112a6.948,6.948,0,0,0-.5-.627l-1.173-1.314c-1.562-1.782-3.141-3.522-4.649-5.386a29.5,29.5,0,0,1-3.473-6.264c-.487-1.078-.983-2.149-1.454-3.239-.234-.545-.465-1.091-.662-1.655a7.463,7.463,0,0,1-.257-.864,1.009,1.009,0,0,1,.11-.928l.108.112c-.16.182-.083.5-.009.765a7.275,7.275,0,0,0,.3.816c.232.538.487,1.068.749,1.6.525,1.053,1.079,2.1,1.624,3.146a31.346,31.346,0,0,0,3.646,5.952c1.534,1.752,3.2,3.448,4.82,5.16l1.219,1.3a7.743,7.743,0,0,1,.619.744,1.5,1.5,0,0,1,.283.692,1.224,1.224,0,0,1-.252.835,2.23,2.23,0,0,1-.988.714,5.878,5.878,0,0,1-.962.287,11.7,11.7,0,0,1-1.869.211,23.052,23.052,0,0,1-7.219-.987c-.584-.177-1.166-.372-1.736-.606l-.118-.047-.147-.072-.2-.106-.392-.208-.782-.414-3.133-1.649c-1.048-.563-2.079-1.059-3.169-1.72a5.316,5.316,0,0,1-1.518-1.376c-.4-.521-.713-1.089-1-1.521a2.208,2.208,0,0,0-.265-.334.23.23,0,0,0,.162.009c.036-.017.007-.007-.034.036a1.163,1.163,0,0,0-.284.972,7.66,7.66,0,0,0,1.28,2.849c2.269,3.762,7.41,6,8.19,11.795a3.091,3.091,0,0,1-1.1,1.952,5.3,5.3,0,0,1-1.77.964,7.4,7.4,0,0,1-3.835.225,23.33,23.33,0,0,1-6.694-2.8,29.148,29.148,0,0,1-5.81-4.231,25.558,25.558,0,0,1-2.443-2.637c-.756-.926-1.426-1.905-2.206-2.738a2.875,2.875,0,0,0-.6-.514c-.1-.06-.154-.039-.121-.061a.382.382,0,0,0-.062.183,7.4,7.4,0,0,0,.072,1.676,8.462,8.462,0,0,0,.455,1.655,6.905,6.905,0,0,1,.487,1.716l.563,3.533a27.423,27.423,0,0,0,.687,3.448l-.006-.019c.239.7.458,1.415.713,2.113s.534,1.385.822,2.066a23.033,23.033,0,0,0,2.028,3.9,13,13,0,0,0,2.912,3.182c1.1.875,2.584,1.511,3.531,2.95a3.508,3.508,0,0,1,.583,2.526,2.465,2.465,0,0,1-.717,1.226,4.488,4.488,0,0,1-1.045.731,14.517,14.517,0,0,1-2.159.871c-.707.231-1.419.464-2.149.675a13.727,13.727,0,0,1-4.609.666,10.123,10.123,0,0,1-4.536-1.347,32.073,32.073,0,0,1-7.149-5.6,29.349,29.349,0,0,1-5.22-7.4,37.961,37.961,0,0,1-1.743-4.166c-.245-.7-.507-1.405-.716-2.141s-.392-1.451-.554-2.18l-.934-4.371c-.147-.73-.315-1.451-.441-2.2a11.714,11.714,0,0,1-.142-2.248Z" fill="#2b2b2b"/>
            </g>
          </g>
        </g>
        <g id="向量圖智慧型物件-4" data-name="向量圖智慧型物件" transform="matrix(0.952, 0.31, -0.31, 0.951, 669.225, 2477.514)">
          <g id="Group_860" data-name="Group 860">
            <g id="Group_859" data-name="Group 859" clip-path="url(#clip-path-5)">
              <path id="Path_22085" data-name="Path 22085" d="M144.734,423.692c-2.9,3.637-6,7.526-11.255,11.209-15.056,10.559-39.771,13.8-51.336,4.056-16.838-14.194,9.7-42.87-2.69-88.862-12.269-45.548-43.99-70.423-43.99-70.423C21.387,268.68,1.221,258.856.583,242.753c-.066-1.642-.131-8.456,3.5-10.337,6.275-3.257,17.161,11.56,21.207,9.248,6.649-3.8-16.34-47.467-8.868-52.579,4.337-2.971,18.129,7.635,26.548,19.277,14.738,20.387,12.925,43.845,11.814,52.477,3.444-19.264,9.024-41.695,17.375-42.144,3.849-.208,6.975,4.327,8.445,6.455,13.229,19.17.194,50.264,1.485,50.627,1.6.454,13.763-49.683,23.49-48.939,3.258.249,5.242,6.12,6.472,9.761,5.123,15.175-.426,27.163-5.278,50.577-3.622,17.484-4.933,32.054-3.641,32.359,2.5.587,12.125-52.541,25.645-52.419,5.069.047,8.691,7.558,9.147,8.533,6.945,14.835-6.223,29.285-12.03,52.173-7.125,28.079.177,57.072,4.878,57.485,6.11.536,21.541-46.008,18.614-95.53-2.636-44.635-19.583-81.536-25.36-93.848-19.537-41.615-44.577-68.346-34.776-81.716,2.272-3.1,6.909-6.128,11.013-5.375,10.8,1.985,13.856,29.487,15.993,29.1,2.022-.363-3.38-24.507,2.685-27.18,3.7-1.628,11.573,4.764,15.272,12.635,7.6,16.18-3.714,35.944-1.594,36.828,2.479,1.034,13.585-27.859,22.69-26.366,3.977.653,5.911,6.835,6.17,7.657,2.086,6.668-1.373,11.752-9.265,29.529-7.413,16.705-6.755,17.615-6.494,17.779,1.2.746,7.055-6.175,10.807-11.273,9.543-12.967,10.791-21.335,14.393-21.231,3.5.1,7.673,8.165,7.832,16.37.261,13.395-10.369,16.816-17.6,37.84-1.833,5.326-3.69,10.89-3.6,18.285.147,11.891,5.2,20.589,7.443,24.483,3.947-12.106,9.2-25.722,17.493-51.378,10.8-33.418,16.181-50.279,15.237-57.886-4.862-39.084-9.941-63.816-9.941-63.816-.427-2.081-1.655-7.968,1.159-10.179,3.6-2.822,11.628,2.052,12.037,2.3,12.678,7.864,15.935,26.789,17.234,34.356,1.408,8.182,1.295,14.5,3.089,14.725,1.491.187,3.168-4,5.263-9.567,5.964-15.834,8.946-23.749,9.9-28.492C242.25,54.726,228,41.023,237.912,29.29c3.791-4.487,10.352-7.779,15.231-6.131,6.678,2.258,8.267,13.123,8.936,17.7,2.566,17.529-4.791,31.771-4.333,31.931.5.177,10.795-16.391,17.746-42.233,1.708-6.341,3.45-14.119,10.178-20.632,1.356-1.312,9.582-9.273,16.264-6.619,6.372,2.53,7.182,13.053,7.3,14.594.853,11.051-5.174,19.5-13.874,31.333-19.14,26.036-29.217,38.932-27.643,40.61,2.293,2.442,25.212-23.013,39.681-16.512,5.715,2.567,9.743,9.957,8.4,15.444-1.758,7.217-11.781,7.012-29.566,15.708a126.243,126.243,0,0,0-35.406,26.2c-8.444,9.091-17.536,22.082-15.184,24.59,2.845,3.036,18.175-13.888,45.9-20.362,15.932-3.72,39.042-4.713,42.97,4.1,2.691,6.048-4.648,14.75-6.96,17.493-19.589,23.241-47.683,12.978-75.885,32.607-8.412,5.851-14.062,13.871-25.445,29.789-23.234,32.479-38.457,69.858-34.409,72.32,2.679,1.628,15.54-10.921,22.471-25.184,2.142-4.412,3.549-5.732,6.506-14.913,1.52-4.733,4.4-14.806,13.217-19.737,5.633-3.15,13.917-4.324,16.558-.945,5.2,6.646-12.825,29.15-12.512,29.355s16.785-21.2,33.38-39.708c6.012-6.707,13.082-14.2,20.019-12.637a9.668,9.668,0,0,1,6.746,5.558c3.794,9.9-14.835,26.112-17.284,28.153,1.495-1.207,9.755-8,24.353-24.532,7.753-8.778,12.065-14.376,18.426-14.127,3.9.153,8.737,2.513,9.856,6.225,2.816,9.36-19.28,23.166-18.061,24.916,1.523,2.194,32.538-24.979,50-15.967,6.106,3.154,11.539,11.239,9.822,16.642-1.279,4.011-6.242,5.767-8.271,6.453-24.724,8.368-85.4,19.675-118.016,35.243-3.2,1.527-53,26.044-66.22,69.24-.277.9-4.468,14.655-9.591,33.172-5.892,21.3-8.575,32.85-18.481,45.265" fill="#ead065"/>
              <path id="Path_22086" data-name="Path 22086" d="M79.64,432.364a17.388,17.388,0,0,1-3.889-5.1,16.983,16.983,0,0,1-1.659-6.2,46.53,46.53,0,0,1,1.154-12.816c.834-4.221,1.856-8.4,2.753-12.6s1.715-8.418,2.3-12.669a102.274,102.274,0,0,0,.462-25.647A99.672,99.672,0,0,0,78.5,344.7c-.5-2.081-1.163-4.125-1.737-6.188l-.892-3.087-1.075-3.03-1.075-3.029c-.355-1.011-.705-2.023-1.143-3l-2.49-5.925c-1.836-3.87-3.666-7.745-5.785-11.47A157.91,157.91,0,0,0,50.077,287.6c-2.641-3.37-5.452-6.605-8.386-9.718a80.6,80.6,0,0,0-9.379-8.7c-6.71-5.321-13.85-10.171-20.257-16.022a47.25,47.25,0,0,1-8.508-9.893,25.086,25.086,0,0,1-2.714-6.036,20.881,20.881,0,0,1-.82-6.6,16.5,16.5,0,0,1,1.407-6.574,6.019,6.019,0,0,1,2.446-2.678,4.892,4.892,0,0,1,1.813-.572,6.506,6.506,0,0,1,1.831.112,16.837,16.837,0,0,1,6.015,3.022c1.778,1.279,3.439,2.667,5.1,4.011a27.114,27.114,0,0,0,5.108,3.527,3.665,3.665,0,0,0,1.232.317,1.024,1.024,0,0,0,.794-.339,4.3,4.3,0,0,0,.54-2.53,31.449,31.449,0,0,0-.928-6.18c-.481-2.069-1.048-4.128-1.645-6.183-2.387-8.227-5.289-16.335-7.267-24.791a43.1,43.1,0,0,1-1.045-6.494,13.543,13.543,0,0,1,.148-3.439,5.712,5.712,0,0,1,.636-1.786,3.45,3.45,0,0,1,1.554-1.427,4.115,4.115,0,0,1,1.977-.344,7.982,7.982,0,0,1,1.791.306,16.3,16.3,0,0,1,3.134,1.333,38.371,38.371,0,0,1,5.465,3.692,74.754,74.754,0,0,1,9.394,9.038,70.951,70.951,0,0,1,7.737,10.492,69.53,69.53,0,0,1,8.95,24.384,83.384,83.384,0,0,1,.117,25.976l-1.867-.333c1.144-5.589,2.4-11.163,3.931-16.678a91.57,91.57,0,0,1,5.874-16.2,21.416,21.416,0,0,1,5.285-7.158,6.849,6.849,0,0,1,4.588-1.6,7.808,7.808,0,0,1,4.413,1.891,18.485,18.485,0,0,1,3.063,3.3,41.564,41.564,0,0,1,2.411,3.656,34.176,34.176,0,0,1,3.362,8.1,50.3,50.3,0,0,1,1.325,17.279A92.65,92.65,0,0,1,85.557,262.7l-1.166,4.119c-.193.679-.392,1.363-.553,2.021a5.846,5.846,0,0,0-.163.841c0,.028,0-.022,0-.029a.721.721,0,0,0-.23-.429.865.865,0,0,0-1-.158.4.4,0,0,0-.163.115,2.841,2.841,0,0,0,.154-.251,39.191,39.191,0,0,0,1.582-3.808l1.462-4C87.4,255.77,89.328,250.4,91.448,245.1a118.866,118.866,0,0,1,7.29-15.579,35.916,35.916,0,0,1,2.427-3.644,13.956,13.956,0,0,1,3.245-3.2,5.336,5.336,0,0,1,2.387-.906,4.135,4.135,0,0,1,2.609.659,9.41,9.41,0,0,1,2.966,3.647,31.912,31.912,0,0,1,1.681,4.064c.475,1.366.892,2.722,1.27,4.139a36.7,36.7,0,0,1,1.332,8.615c.251,5.84-.874,11.578-2.223,17.119-1.361,5.559-2.951,11.015-4.353,16.518s-2.7,11.023-3.775,16.592a161.452,161.452,0,0,0-2.492,16.778,21.361,21.361,0,0,0-.028,4.046,1.8,1.8,0,0,0,.064.268.081.081,0,0,0-.036-.045.5.5,0,0,0-.238-.165.621.621,0,0,0-.392-.023.387.387,0,0,0-.15.061c-.061.053.045-.056.108-.157.073-.125.149-.246.221-.395a20.047,20.047,0,0,0,.8-1.873c.989-2.619,1.851-5.339,2.741-8.037,1.771-5.408,3.565-10.826,5.6-16.165a96.455,96.455,0,0,1,7.271-15.582,23.867,23.867,0,0,1,5.667-6.7,7.809,7.809,0,0,1,4.343-1.641A7.384,7.384,0,0,1,134.2,265a14.672,14.672,0,0,1,3.117,3.206,26.407,26.407,0,0,1,2.281,3.745c.164.327.323.655.473.993l.381,1.033c.244.693.517,1.376.733,2.076a23.2,23.2,0,0,1,.694,4.347,12.031,12.031,0,0,1,.041,2.2c-.049.73-.067,1.464-.145,2.189a34.686,34.686,0,0,1-.865,4.268,57.681,57.681,0,0,1-2.888,8.124c-2.259,5.258-4.8,10.344-6.992,15.572a96.011,96.011,0,0,0-5.328,16.09,97.167,97.167,0,0,0-2.336,16.791,103.419,103.419,0,0,0,.473,16.96,77.632,77.632,0,0,0,1.365,8.37,36.6,36.6,0,0,0,2.606,7.994,9.521,9.521,0,0,0,1.074,1.734,2.061,2.061,0,0,0,1.416.915,2.944,2.944,0,0,0,1.567-.931,11.474,11.474,0,0,0,1.323-1.581,43.2,43.2,0,0,0,3.98-7.447,130.678,130.678,0,0,0,5.581-16.074,221.075,221.075,0,0,0,6.569-33.437A221.667,221.667,0,0,0,150.8,288.07a221.841,221.841,0,0,1-1.207,34.1,221.781,221.781,0,0,1-6.309,33.553,131.523,131.523,0,0,1-5.478,16.2,43.925,43.925,0,0,1-4,7.614,12.249,12.249,0,0,1-1.4,1.7,3.625,3.625,0,0,1-2.054,1.171,2.1,2.1,0,0,1-1.249-.389,2,2,0,0,1-.465-.381,3.639,3.639,0,0,1-.4-.423,10.364,10.364,0,0,1-1.187-1.875,37.448,37.448,0,0,1-2.745-8.174,78.584,78.584,0,0,1-1.45-8.459,102.612,102.612,0,0,1-.567-17.126,94.688,94.688,0,0,1,7.6-33.3c2.188-5.278,4.712-10.395,6.922-15.6a56.405,56.405,0,0,0,2.79-7.956,33.455,33.455,0,0,0,.812-4.092c.07-.689.081-1.38.126-2.069a10.936,10.936,0,0,0-.049-2.063,21.669,21.669,0,0,0-.664-4.061c-.207-.655-.468-1.3-.7-1.942l-.359-.968c-.141-.311-.293-.623-.45-.931a18.281,18.281,0,0,0-4.985-6.41,5.93,5.93,0,0,0-3.513-1.222,6.344,6.344,0,0,0-3.5,1.372,22.492,22.492,0,0,0-5.242,6.3,95.021,95.021,0,0,0-7.071,15.35c-2,5.3-3.753,10.7-5.5,16.117-.888,2.706-1.74,5.416-2.757,8.122a21.144,21.144,0,0,1-.878,2.047c-.084.172-.193.355-.3.536a2.334,2.334,0,0,1-.584.646,1.4,1.4,0,0,1-.384.182,1.147,1.147,0,0,1-.652-.04,1.313,1.313,0,0,1-.447-.325,2.487,2.487,0,0,1-.177-.272,2.748,2.748,0,0,1-.23-.753,22.13,22.13,0,0,1,0-4.474,162.821,162.821,0,0,1,2.493-16.981c1.071-5.608,2.358-11.174,3.773-16.7,1.4-5.528,2.985-11,4.322-16.5s2.4-11.06,2.148-16.621a34.922,34.922,0,0,0-1.283-8.211c-.356-1.332-.776-2.7-1.239-4.017a30.267,30.267,0,0,0-1.582-3.816,7.768,7.768,0,0,0-2.319-2.933,2.263,2.263,0,0,0-1.44-.376,3.513,3.513,0,0,0-1.551.616,12.243,12.243,0,0,0-2.782,2.784,34.113,34.113,0,0,0-2.294,3.46A117.082,117.082,0,0,0,93.21,245.8c-2.1,5.267-4.006,10.615-5.926,15.974l-1.465,4.022a39.165,39.165,0,0,1-1.694,4.067,3.353,3.353,0,0,1-.433.638,1.747,1.747,0,0,1-.367.285,1.081,1.081,0,0,1-1.244-.186,1.108,1.108,0,0,1-.326-.67,2.039,2.039,0,0,1-.016-.3,6.7,6.7,0,0,1,.215-1.254c.177-.725.375-1.408.57-2.1l1.152-4.1A90.752,90.752,0,0,0,86.738,245.6a48.332,48.332,0,0,0-1.285-16.591,32.159,32.159,0,0,0-3.153-7.63,24.917,24.917,0,0,0-5-6.419,5.864,5.864,0,0,0-3.28-1.46,4.9,4.9,0,0,0-3.276,1.181A19.71,19.71,0,0,0,66,221.175a89.837,89.837,0,0,0-5.759,15.837c-1.52,5.452-2.778,10.985-3.925,16.542l-1.867-.333a81.472,81.472,0,0,0-.073-25.382,67.646,67.646,0,0,0-8.676-23.75,69.09,69.09,0,0,0-7.53-10.245,73.044,73.044,0,0,0-9.15-8.832,36.836,36.836,0,0,0-5.2-3.528,14.583,14.583,0,0,0-2.784-1.193,3.908,3.908,0,0,0-2.543-.061,2.468,2.468,0,0,0-1.2,1.956,11.913,11.913,0,0,0-.123,2.986,41.594,41.594,0,0,0,1,6.222c1.924,8.3,4.811,16.417,7.2,24.7.6,2.074,1.171,4.16,1.66,6.279a32.063,32.063,0,0,1,.952,6.551,9.427,9.427,0,0,1-.143,1.764,3.96,3.96,0,0,1-.809,1.851,2.7,2.7,0,0,1-2.064.912,5.2,5.2,0,0,1-1.876-.458,28.178,28.178,0,0,1-5.472-3.782c-1.671-1.364-3.306-2.74-5.013-3.979a15.5,15.5,0,0,0-5.391-2.783,3.656,3.656,0,0,0-2.613.292,4.5,4.5,0,0,0-1.813,2.01,15.089,15.089,0,0,0-1.273,5.941,20.881,20.881,0,0,0,3.267,11.835,45.836,45.836,0,0,0,8.214,9.625c6.274,5.786,13.376,10.664,20.108,16.05a81.993,81.993,0,0,1,9.468,8.859c2.946,3.156,5.764,6.428,8.409,9.835A158.991,158.991,0,0,1,65.2,308.47c2.121,3.757,3.935,7.672,5.748,11.582l2.457,5.983c.432.987.776,2.01,1.125,3.029l1.056,3.056,1.057,3.055.872,3.112c.561,2.081,1.206,4.138,1.7,6.237a100.208,100.208,0,0,1,2.17,12.744,102.848,102.848,0,0,1-.671,25.774c-.621,4.26-1.465,8.482-2.406,12.677s-1.988,8.366-2.854,12.572A46.376,46.376,0,0,0,74.2,421.057a16.944,16.944,0,0,0,1.6,6.19,17.39,17.39,0,0,0,3.842,5.117" fill="#2b2b2b"/>
              <path id="Path_22087" data-name="Path 22087" d="M174.415,287.989a2.25,2.25,0,0,0,1.854-.06A10.96,10.96,0,0,0,178,287.1a27.75,27.75,0,0,0,3.16-2.179,61.5,61.5,0,0,0,5.7-5.152,80.15,80.15,0,0,0,9.686-11.884c1.424-2.111,2.638-4.388,4.063-6.536a50.821,50.821,0,0,0,3.67-6.7c1.077-2.32,2-4.693,2.989-7.081a45.379,45.379,0,0,1,3.572-6.909,28.366,28.366,0,0,1,5.084-5.952,22.009,22.009,0,0,1,6.743-4.047,24.985,24.985,0,0,1,7.705-1.592,15.648,15.648,0,0,1,3.995.3,6.968,6.968,0,0,1,3.721,1.934,5.321,5.321,0,0,1,1.279,4.08,14,14,0,0,1-.917,3.943,39.5,39.5,0,0,1-3.6,6.964,121.439,121.439,0,0,1-9.265,12.417l-1.224,1.476-.294.364-.212.279c.039-.165-.018.243.086-.4-.043-1.165-1.542-.649-1.206-.709-.083.047-.05.03-.037.017l.142-.126.328-.314c.892-.883,1.782-1.817,2.669-2.739l5.317-5.567q5.32-5.57,10.707-11.084t10.892-10.913c3.692-3.585,7.333-7.189,11.256-10.6a43.6,43.6,0,0,1,6.353-4.635,15.71,15.71,0,0,1,7.749-2.416,10.143,10.143,0,0,1,2.115.27,8.435,8.435,0,0,1,2.013.685,11.332,11.332,0,0,1,3.391,2.465,9.449,9.449,0,0,1,2.178,3.666,9.33,9.33,0,0,1,.219,4.261,19.1,19.1,0,0,1-3.276,7.37,46.7,46.7,0,0,1-5.018,6.048,88.543,88.543,0,0,1-11.84,10.105l-1.083-1.569a193.577,193.577,0,0,0,18.186-14.84c2.916-2.628,5.775-5.321,8.617-8.035s5.614-5.518,8.729-8.06a21.92,21.92,0,0,1,5.18-3.272,11.746,11.746,0,0,1,3.059-.85,11.29,11.29,0,0,1,3.191.069,14.244,14.244,0,0,1,5.758,2.4,8.946,8.946,0,0,1,3.728,5.165,8.788,8.788,0,0,1-1.317,6.208,24.788,24.788,0,0,1-3.779,4.768,79.927,79.927,0,0,1-9.136,7.642c-1.575,1.182-3.187,2.33-4.676,3.549a11.138,11.138,0,0,0-1.022.934,1.706,1.706,0,0,0-.289.381.377.377,0,0,0-.091-.312c-.168-.138-.186-.1-.146-.1a4.5,4.5,0,0,0,1.178-.331c.438-.171.88-.363,1.32-.567,3.521-1.663,7.01-3.542,10.571-5.237s7.175-3.319,10.895-4.682a58.666,58.666,0,0,1,11.48-3.068,25.969,25.969,0,0,1,11.86.629,18.4,18.4,0,0,1,9.258,7.283,19.865,19.865,0,0,1,2.665,5.315,10.9,10.9,0,0,1,.368,5.9,7.646,7.646,0,0,1-3.669,4.527,18.935,18.935,0,0,1-5.515,2.076,18.882,18.882,0,0,0,5.445-2.187,7.454,7.454,0,0,0,3.485-4.481,10.746,10.746,0,0,0-.468-5.721,19.426,19.426,0,0,0-2.7-5.158,17.818,17.818,0,0,0-9.078-6.921,25.219,25.219,0,0,0-11.521-.412,60.206,60.206,0,0,0-11.253,3.187c-3.662,1.383-7.231,3.015-10.75,4.75s-6.959,3.617-10.539,5.354c-.452.214-.911.42-1.388.612a5.138,5.138,0,0,1-1.658.434,1.071,1.071,0,0,1-.821-.332.98.98,0,0,1-.166-1,2.611,2.611,0,0,1,.547-.826,12.668,12.668,0,0,1,1.141-1.07c1.547-1.29,3.134-2.441,4.694-3.639a78.6,78.6,0,0,0,8.891-7.584,23.36,23.36,0,0,0,3.5-4.494,7.223,7.223,0,0,0,1.088-5.075,7.341,7.341,0,0,0-3.114-4.141,12.556,12.556,0,0,0-5.058-2.088,9.285,9.285,0,0,0-5.3.687,20.2,20.2,0,0,0-4.753,3.039c-2.983,2.447-5.744,5.268-8.59,7.989s-5.706,5.449-8.629,8.1a194.949,194.949,0,0,1-18.342,15.062l-1.083-1.568a86.682,86.682,0,0,0,11.524-9.9,44.661,44.661,0,0,0,4.787-5.8,17.615,17.615,0,0,0,2.954-6.583,7.359,7.359,0,0,0-.147-3.36,7.494,7.494,0,0,0-1.72-2.9,9.4,9.4,0,0,0-2.794-2.045,6.46,6.46,0,0,0-1.619-.553,8.33,8.33,0,0,0-1.693-.226,13.869,13.869,0,0,0-6.773,2.136,41.685,41.685,0,0,0-6.082,4.413c-3.837,3.312-7.514,6.923-11.2,10.476q-5.508,5.365-10.9,10.851T232.4,252.188l-5.338,5.553c-.9.925-1.78,1.847-2.714,2.767l-.369.349-.22.193a1.425,1.425,0,0,1-.23.159c.314-.043-1.265.5-1.286-.718.108-.681.08-.3.134-.506a4.939,4.939,0,0,1,.36-.494l.313-.385,1.244-1.477a119.893,119.893,0,0,0,9.267-12.159,38.074,38.074,0,0,0,3.533-6.656,12.684,12.684,0,0,0,.865-3.518,3.947,3.947,0,0,0-.886-3.076,5.677,5.677,0,0,0-3.005-1.56,14.449,14.449,0,0,0-3.659-.306,23.744,23.744,0,0,0-7.326,1.44,23.3,23.3,0,0,0-11.364,9.44,46.352,46.352,0,0,0-3.57,6.715c-1.017,2.335-1.993,4.736-3.116,7.056a51.676,51.676,0,0,1-3.832,6.732c-1.451,2.107-2.692,4.351-4.175,6.475a80.724,80.724,0,0,1-9.937,11.793,59.914,59.914,0,0,1-5.828,5.049,27.954,27.954,0,0,1-3.221,2.12,11.176,11.176,0,0,1-1.755.8,2.272,2.272,0,0,1-1.868.019" fill="#2b2b2b"/>
              <path id="Path_22088" data-name="Path 22088" d="M255.23,131.666q-4.2,4.3-7.957,9a67.615,67.615,0,0,0-6.791,9.853,16.112,16.112,0,0,0-1.164,2.708,4.729,4.729,0,0,0-.229,1.385,1.082,1.082,0,0,0,.483,1,1.922,1.922,0,0,0,1.244,0,8.5,8.5,0,0,0,1.358-.487c.9-.394,1.773-.868,2.644-1.355,3.47-1.968,6.892-4.086,10.425-6a111.5,111.5,0,0,1,22.235-9.362,103.109,103.109,0,0,1,23.84-3.926,80.411,80.411,0,0,1,12.135.252,41.921,41.921,0,0,1,6.035,1.056,22.01,22.01,0,0,1,5.8,2.29,11.266,11.266,0,0,1,2.534,2.028,7.275,7.275,0,0,1,1.683,2.894,10,10,0,0,1-.39,6.452,34.216,34.216,0,0,1-6.728,10.292,48.118,48.118,0,0,1-9.13,8.129,49.723,49.723,0,0,1-10.959,5.432c-7.712,2.7-15.75,3.821-23.608,5.229a108.687,108.687,0,0,0-23,6.085,70.221,70.221,0,0,0-10.563,5.379,48.615,48.615,0,0,0-9.224,7.337c-5.577,5.625-10.416,12.044-15.366,18.337s-9.72,12.7-14.2,19.336-8.7,13.43-12.625,20.4a199.99,199.99,0,0,0-10.64,21.478c-.757,1.844-1.468,3.71-2.071,5.6a17.539,17.539,0,0,0-1.08,5.72c.05.438.181.88.462.965a1.856,1.856,0,0,0,1.2-.089,11.422,11.422,0,0,0,2.567-1.358,38.985,38.985,0,0,0,4.632-3.752,76.784,76.784,0,0,0,8.066-8.856,74.272,74.272,0,0,0,6.668-9.98,77,77,0,0,1-14.37,19.222,39.726,39.726,0,0,1-4.634,3.9,12.06,12.06,0,0,1-2.707,1.489,2.45,2.45,0,0,1-1.726.087,1.269,1.269,0,0,1-.688-.705,2.807,2.807,0,0,1-.222-.837,10.9,10.9,0,0,1,.252-3.108c.2-1,.462-1.98.748-2.951.578-1.937,1.261-3.836,1.992-5.712A198.435,198.435,0,0,1,192.617,254.8q5.8-10.567,12.449-20.639,3.316-5.034,6.842-9.93c2.349-3.263,4.819-6.445,7.268-9.612s4.907-6.347,7.439-9.474a118.874,118.874,0,0,1,8.007-9.09,50.376,50.376,0,0,1,9.524-7.633,72.245,72.245,0,0,1,10.821-5.563,110.164,110.164,0,0,1,23.381-6.285c7.909-1.382,15.854-2.472,23.323-5.06a47.817,47.817,0,0,0,10.554-5.18,46.207,46.207,0,0,0,8.81-7.791,32.513,32.513,0,0,0,6.418-9.685,8.273,8.273,0,0,0,.391-5.32,7.255,7.255,0,0,0-3.444-3.975c-3.268-1.914-7.241-2.686-11.133-3.165a78.749,78.749,0,0,0-11.884-.379,101.6,101.6,0,0,0-23.559,3.6,111.309,111.309,0,0,0-22.12,9.012c-3.55,1.842-6.987,3.883-10.526,5.8-.888.475-1.787.941-2.733,1.334a9.073,9.073,0,0,1-1.478.5,2.494,2.494,0,0,1-1.7-.089,1.7,1.7,0,0,1-.793-1.557,5.3,5.3,0,0,1,.283-1.565,16.492,16.492,0,0,1,1.258-2.787,67.194,67.194,0,0,1,7.024-9.793q3.879-4.605,8.188-8.813" fill="#2b2b2b"/>
              <path id="Path_22089" data-name="Path 22089" d="M158.252,226.15a44.213,44.213,0,0,0,1.764,12.755,49.6,49.6,0,0,0,2.168,6.064c.846,1.976,1.823,3.888,2.855,5.781l-.593.039c4.223-11.734,8.908-23.271,13.232-34.943,4.367-11.653,8.484-23.409,12.7-35.121,2.086-5.862,4.149-11.732,6.049-17.642.948-2.954,1.854-5.921,2.629-8.909a48.332,48.332,0,0,0,1.646-8.984,17.559,17.559,0,0,0-.006-2.2l-.211-2.324-.423-4.647-.915-9.288c-.637-6.188-1.287-12.376-2-18.556s-1.48-12.353-2.319-18.515c-.422-3.08-.859-6.159-1.33-9.23-.457-3.021-1.171-6.3-.2-9.663a5.788,5.788,0,0,1,1.39-2.356,4.914,4.914,0,0,1,2.516-1.259,10.62,10.62,0,0,1,5.023.631,26.879,26.879,0,0,1,4.379,2.03,27.8,27.8,0,0,1,3.931,2.809,30.529,30.529,0,0,1,6,7.438,45.3,45.3,0,0,1,3.9,8.638,89.839,89.839,0,0,1,3.8,18.4c.375,3.11.551,6.239.812,9.322.071.767.146,1.536.269,2.279a4.723,4.723,0,0,0,.621,1.939c.165.175.23.189.465.1a2.476,2.476,0,0,0,.711-.622,12.065,12.065,0,0,0,1.219-1.877c1.454-2.7,2.627-5.6,3.882-8.448l3.708-8.573c1.229-2.859,2.443-5.726,3.62-8.606a76.706,76.706,0,0,0,3.145-8.783,76.725,76.725,0,0,1-2.886,8.885c-1.1,2.916-2.261,5.805-3.423,8.695l-3.518,8.654c-1.193,2.876-2.293,5.787-3.727,8.606a12.9,12.9,0,0,1-1.28,2.058,3.317,3.317,0,0,1-1.032.9,2.784,2.784,0,0,1-.4.134,2.061,2.061,0,0,1-.471,0,1.339,1.339,0,0,1-.764-.46,3.285,3.285,0,0,1-.614-1.232,10.308,10.308,0,0,1-.275-1.195c-.142-.791-.228-1.574-.311-2.354-.306-3.117-.522-6.207-.934-9.276a88.666,88.666,0,0,0-3.983-18.071c-2.049-5.767-5.094-11.291-9.644-15.275a26.106,26.106,0,0,0-3.668-2.6,25.225,25.225,0,0,0-4.09-1.878,9.04,9.04,0,0,0-4.146-.545,3.153,3.153,0,0,0-1.6.793,4.061,4.061,0,0,0-.933,1.637,11.881,11.881,0,0,0-.331,4.293c.1,1.488.394,2.989.634,4.547.488,3.084.94,6.168,1.377,9.255q1.3,9.261,2.407,18.545c.736,6.188,1.445,12.382,2.032,18.586l.874,9.307.4,4.658.2,2.328a19.478,19.478,0,0,1,0,2.464,49.94,49.94,0,0,1-1.745,9.352c-.8,3.037-1.73,6.025-2.7,8.994-1.938,5.938-4.031,11.809-6.146,17.67s-4.285,11.7-6.469,17.531-4.389,11.662-6.649,17.467-4.566,11.594-6.892,17.371-4.717,11.526-6.935,17.337l-.26.683-.333-.644c-.992-1.919-1.938-3.876-2.747-5.886A49.887,49.887,0,0,1,159.664,239a44.013,44.013,0,0,1-1.412-12.851" fill="#2b2b2b"/>
              <path id="Path_22090" data-name="Path 22090" d="M239.9,79.105a72.156,72.156,0,0,0,1.847-14.147,83.11,83.11,0,0,0-.921-14.226c-.631-4.716-1.677-9.389-1.8-14.224a18.273,18.273,0,0,1,1.165-7.167,16.55,16.55,0,0,1,4.262-5.918,20.615,20.615,0,0,1,6.181-3.876,12.828,12.828,0,0,1,7.324-.819,7.77,7.77,0,0,1,1.8.65,8.79,8.79,0,0,1,1.623,1.007,11.6,11.6,0,0,1,2.459,2.832,22.907,22.907,0,0,1,2.707,6.8,54.919,54.919,0,0,1,1.192,7.129,52.859,52.859,0,0,1,.359,7.228,60.46,60.46,0,0,1-2.037,14.3,70.94,70.94,0,0,1-2.2,6.884c-.419,1.125-.883,2.251-1.314,3.335l-.142.384-.038.123c-.014-.02.045.023-.026-.307-.878-1.051-1.3-.262-1.175-.43-.034.027.094-.1.163-.188l.252-.322c.338-.451.668-.937.99-1.424a121.437,121.437,0,0,0,6.908-12.39,185.479,185.479,0,0,0,10.475-26.442c1.382-4.525,2.762-9.24,5.246-13.49a31.208,31.208,0,0,1,4.407-5.89,36.288,36.288,0,0,1,5.6-4.738A23.318,23.318,0,0,1,301.862.482a12.378,12.378,0,0,1,3.847-.47,8.642,8.642,0,0,1,3.824,1.114,9.267,9.267,0,0,1,1.63,1.164,11.441,11.441,0,0,1,1.3,1.472,14.1,14.1,0,0,1,1.844,3.346,26.869,26.869,0,0,1,1.667,7.217,28.708,28.708,0,0,1-.185,7.381A29.559,29.559,0,0,1,313.7,28.78a62.183,62.183,0,0,1-7.634,12.326c-2.9,3.826-5.91,7.516-8.881,11.247l-8.952,11.156c-2.98,3.72-5.96,7.44-8.881,11.2-1.458,1.878-2.9,3.765-4.286,5.683-.69.959-1.367,1.926-1.993,2.908-.308.491-.614.986-.874,1.481a5.69,5.69,0,0,0-.583,1.4c0,.061-.025.177-.011.144l-.011,0a.159.159,0,0,0-.016-.063.958.958,0,0,0-.111-.112c-.248-.105-.06-.019.133-.1a7.235,7.235,0,0,0,1.433-.646c1-.554,1.986-1.206,2.971-1.859l5.927-4a84.508,84.508,0,0,1,12.556-7.1,34.282,34.282,0,0,1,6.945-2.249,17.249,17.249,0,0,1,7.4.02,13.311,13.311,0,0,1,6.4,3.78,17.175,17.175,0,0,1,3.866,6.28,12.552,12.552,0,0,1,.453,7.4,8.046,8.046,0,0,1-1.906,3.313,4.1,4.1,0,0,1-.7.648c-.247.2-.486.409-.741.59a17.7,17.7,0,0,1-1.6.944,46.643,46.643,0,0,1-6.758,2.591l-6.809,2.17a142.194,142.194,0,0,0-13.315,5.084,126.532,126.532,0,0,0-12.631,6.619,123.325,123.325,0,0,0-22.661,17.309,123.526,123.526,0,0,1,22.407-17.727,127,127,0,0,1,12.579-6.869A143.031,143.031,0,0,1,300.73,97l6.794-2.247a45.6,45.6,0,0,0,6.559-2.582,7.836,7.836,0,0,0,4.321-4.82,11.348,11.348,0,0,0-.494-6.655,15.91,15.91,0,0,0-3.626-5.768,11.921,11.921,0,0,0-5.777-3.349,15.793,15.793,0,0,0-6.786.058,32.846,32.846,0,0,0-6.614,2.216,82.872,82.872,0,0,0-12.245,7.084l-5.909,4.027c-1,.667-2,1.333-3.086,1.943a8.64,8.64,0,0,1-1.823.809,2.708,2.708,0,0,1-.648.1,1.518,1.518,0,0,1-.945-.276,1.172,1.172,0,0,1-.387-.453,1.864,1.864,0,0,1-.12-.259l-.042-.219a2.228,2.228,0,0,1,.014-.744,7,7,0,0,1,.751-1.9c.292-.561.613-1.082.937-1.6.652-1.031,1.341-2.019,2.039-3,1.4-1.953,2.847-3.857,4.307-5.749,2.922-3.781,5.892-7.513,8.862-11.244l8.916-11.184c2.956-3.737,5.964-7.445,8.81-11.231A60.322,60.322,0,0,0,311.9,28a27.565,27.565,0,0,0,1.932-6.607,26.935,26.935,0,0,0,.152-6.876,24.924,24.924,0,0,0-1.512-6.68,12.172,12.172,0,0,0-1.581-2.9,9.854,9.854,0,0,0-1.056-1.207,7.262,7.262,0,0,0-1.271-.908A6.676,6.676,0,0,0,305.6,1.95a10.466,10.466,0,0,0-3.221.391,21.53,21.53,0,0,0-6.105,3.007,30.828,30.828,0,0,0-9.471,9.989c-2.361,4.008-3.714,8.529-5.122,13.1A187.254,187.254,0,0,1,271.021,55.1a118.727,118.727,0,0,1-7.068,12.551c-.34.5-.684,1-1.065,1.5l-.3.379a2.972,2.972,0,0,1-.456.456c.069-.138-.446.734-1.362-.406a.969.969,0,0,1-.01-.529,2.621,2.621,0,0,1,.09-.305l.173-.453c.46-1.126.915-2.2,1.339-3.306a68.817,68.817,0,0,0,2.219-6.712A58.926,58.926,0,0,0,266.7,44.338a51.75,51.75,0,0,0-.283-7.05,53.571,53.571,0,0,0-1.1-6.979,21.691,21.691,0,0,0-2.492-6.458,10.383,10.383,0,0,0-2.177-2.566,7.5,7.5,0,0,0-1.4-.884,6.5,6.5,0,0,0-1.549-.58,11.762,11.762,0,0,0-6.69.708,20.044,20.044,0,0,0-5.912,3.619,15.6,15.6,0,0,0-4.124,5.519,17.471,17.471,0,0,0-1.222,6.836c.036,4.719,1,9.428,1.553,14.165a83.467,83.467,0,0,1,.681,14.3,72.274,72.274,0,0,1-2.09,14.139" fill="#2b2b2b"/>
              <path id="Path_22091" data-name="Path 22091" d="M146.764,283a225.757,225.757,0,0,0-3.993-35.26c-.285-1.452-.546-2.907-.85-4.355l-.965-4.331c-.6-2.9-1.4-5.747-2.1-8.621-1.555-5.706-3.182-11.4-5.09-16.994a308.8,308.8,0,0,0-13.139-32.93c-5-10.721-10.618-21.133-16.305-31.526-2.832-5.2-5.679-10.407-8.305-15.748-1.318-2.668-2.541-5.392-3.627-8.185a43.77,43.77,0,0,1-2.494-8.7,19.939,19.939,0,0,1-.2-4.627,12.5,12.5,0,0,1,1.173-4.577,14.374,14.374,0,0,1,6.649-6.5,11.868,11.868,0,0,1,4.6-1.271,8.076,8.076,0,0,1,4.748,1.2,12.549,12.549,0,0,1,3.441,3.284,24.8,24.8,0,0,1,2.351,3.96c2.621,5.5,3.97,11.366,5.41,17.089a29.8,29.8,0,0,0,1.224,4.075,1.619,1.619,0,0,0,.16.282c0,.017.018,0-.125-.078a.71.71,0,0,0-.632.048c-.274.231-.132.162-.133.063a3.014,3.014,0,0,0,.077-.413,17.132,17.132,0,0,0,.084-2.09c-.036-2.91-.229-5.887-.29-8.864a58.042,58.042,0,0,1,.349-9.027,14.206,14.206,0,0,1,1.31-4.574,4.909,4.909,0,0,1,1.846-2.013,4.781,4.781,0,0,1,1.4-.46,5.707,5.707,0,0,1,1.369.034,10.925,10.925,0,0,1,4.43,1.991,22.177,22.177,0,0,1,3.481,3.055,30.907,30.907,0,0,1,5.234,7.5,27.871,27.871,0,0,1,2.623,8.782,37.452,37.452,0,0,1,.02,9.1c-.656,6.024-2.576,11.8-4.477,17.36-.223.691-.443,1.39-.584,2.037-.031.157-.061.315-.073.445a1.549,1.549,0,0,0-.009.222.467.467,0,0,0-.151-.222.6.6,0,0,0-.413-.164c-.209.023-.118.045-.039-.036a8.109,8.109,0,0,0,1.267-1.454c.421-.575.829-1.18,1.23-1.79,1.6-2.455,3.139-5,4.753-7.5s3.281-4.982,5.14-7.351a40.46,40.46,0,0,1,2.987-3.425,18.038,18.038,0,0,1,3.633-2.933,8.23,8.23,0,0,1,2.291-.949,5.279,5.279,0,0,1,2.625,0,7.089,7.089,0,0,1,3.942,3.041,17.2,17.2,0,0,1,2.032,4.212,14.76,14.76,0,0,1,.848,4.623,16.107,16.107,0,0,1-.695,4.635,39.091,39.091,0,0,1-1.61,4.256c-1.206,2.75-2.555,5.393-3.881,8.043-2.665,5.291-5.315,10.578-7.812,15.931-1.238,2.674-2.487,5.365-3.5,8.086a13.155,13.155,0,0,0-.591,1.979c-.03.124-.022.319-.035.229,0,.016-.033-.118-.1-.169a.578.578,0,0,0-.194-.158c-.066-.021-.1-.024-.109-.03s-.045.007-.028,0a2.284,2.284,0,0,0,.663-.339,23.867,23.867,0,0,0,3.2-2.833A100.669,100.669,0,0,0,161.923,164.4c1.648-2.436,3.169-4.954,4.645-7.516.744-1.28,1.47-2.572,2.287-3.846a14.4,14.4,0,0,1,1.385-1.866,3.95,3.95,0,0,1,2.194-1.378,3.445,3.445,0,0,1,2.539.691,7.672,7.672,0,0,1,1.713,1.688,17.1,17.1,0,0,1,2.206,4.029,28.156,28.156,0,0,1,1.922,8.828,22.079,22.079,0,0,1-1.224,8.958,32.573,32.573,0,0,1-4.472,7.807c-1.752,2.4-3.584,4.723-5.253,7.153a73.549,73.549,0,0,0-4.607,7.537c-.727,1.281-1.3,2.642-1.963,3.96-.592,1.35-1.156,2.713-1.723,4.075a76.126,76.126,0,0,0-2.879,8.369,42.088,42.088,0,0,0-.882,17.541,52.421,52.421,0,0,0,5.864,16.661,52.5,52.5,0,0,1-6.1-16.621,42.429,42.429,0,0,1,.649-17.7A76.693,76.693,0,0,1,161,204.3c.553-1.379,1.1-2.762,1.681-4.131.646-1.34,1.21-2.721,1.927-4.027a74.179,74.179,0,0,1,4.55-7.678c1.651-2.478,3.463-4.835,5.165-7.242a32.194,32.194,0,0,0,4.273-7.594,20.974,20.974,0,0,0,1.094-8.534,26.94,26.94,0,0,0-1.9-8.444,15.923,15.923,0,0,0-2.07-3.726,6.5,6.5,0,0,0-1.442-1.411,2.231,2.231,0,0,0-1.621-.477,2.752,2.752,0,0,0-1.462.991,13.359,13.359,0,0,0-1.242,1.709c-.773,1.226-1.49,2.522-2.225,3.809-1.46,2.581-2.984,5.148-4.635,7.633a102.264,102.264,0,0,1-11.179,13.959,25.252,25.252,0,0,1-3.427,3.065,3.357,3.357,0,0,1-1.331.6,1.078,1.078,0,0,1-.3.009.952.952,0,0,1-.376-.088,1.012,1.012,0,0,1-.425-.3,1.155,1.155,0,0,1-.2-.423,2.166,2.166,0,0,1-.005-.874,14.15,14.15,0,0,1,.65-2.28c1.029-2.843,2.259-5.539,3.488-8.248,2.484-5.4,5.14-10.7,7.788-16,1.316-2.649,2.653-5.29,3.82-7.968,1.151-2.67,2.189-5.419,2.137-8.169a12.943,12.943,0,0,0-.766-4.073,15.455,15.455,0,0,0-1.819-3.763,5.336,5.336,0,0,0-2.9-2.309,4.743,4.743,0,0,0-3.56.768A24.557,24.557,0,0,0,148.587,135c-1.793,2.3-3.43,4.741-5.02,7.221s-3.114,5.012-4.742,7.523c-.411.628-.83,1.253-1.282,1.874a9.3,9.3,0,0,1-1.667,1.863,1.8,1.8,0,0,1-1.036.409,1.322,1.322,0,0,1-.925-.333,1.441,1.441,0,0,1-.406-.705,2.5,2.5,0,0,1-.045-.882,6.266,6.266,0,0,1,.1-.651c.173-.8.4-1.515.63-2.234.935-2.843,1.9-5.6,2.663-8.431a55.652,55.652,0,0,0,1.688-8.558,29.954,29.954,0,0,0-2.491-16.787,28.981,28.981,0,0,0-4.876-7.027,20.372,20.372,0,0,0-3.176-2.806,9.144,9.144,0,0,0-3.576-1.665c-2.4-.632-3.368,2.648-3.743,5.356a56.283,56.283,0,0,0-.352,8.711c.052,2.945.238,5.883.267,8.9a18.635,18.635,0,0,1-.106,2.346,4.832,4.832,0,0,1-.132.677,2.311,2.311,0,0,1-.162.425,1.444,1.444,0,0,1-.5.584,1.206,1.206,0,0,1-.587.187,1.167,1.167,0,0,1-.571-.114,1.5,1.5,0,0,1-.541-.436,3.271,3.271,0,0,1-.4-.671,30.125,30.125,0,0,1-1.337-4.422c-1.424-5.746-2.755-11.517-5.239-16.751-1.25-2.559-2.829-5.086-5.1-6.506-2.233-1.466-5.153-1.1-7.628.129a12.661,12.661,0,0,0-5.851,5.661,10.77,10.77,0,0,0-1.022,3.97,18.2,18.2,0,0,0,.179,4.226,42.067,42.067,0,0,0,2.377,8.351c1.05,2.732,2.259,5.415,3.538,8.07,2.561,5.31,5.36,10.525,8.152,15.748,5.605,10.433,11.168,20.926,16.1,31.725a305.507,305.507,0,0,1,12.921,33.156c1.838,5.643,3.392,11.372,4.873,17.115.661,2.891,1.423,5.759,1.99,8.67l.907,4.354c.285,1.455.527,2.918.792,4.376A226.011,226.011,0,0,1,146.764,283" fill="#2b2b2b"/>
              <path id="Path_22092" data-name="Path 22092" d="M354.395,253.512c-7.327,2.473-14.811,4.447-22.292,6.385l-22.473,5.709c-14.991,3.746-29.952,7.621-44.7,12.177-14.664,4.731-29.38,9.646-42.208,18.236-12.928,8.262-24.883,18.288-34.2,30.458-1.187,1.5-2.263,3.081-3.368,4.641-1.026,1.611-2.1,3.191-3.03,4.862-.994,1.633-1.834,3.346-2.716,5.038-.784,1.739-1.642,3.448-2.293,5.24-.332.893-.726,1.765-1.009,2.675l-.888,2.717c-.3.9-.5,1.838-.754,2.755s-.489,1.839-.674,2.793l-2.408,11.329c-1.59,7.556-3.246,15.1-4.78,22.669-1.515,7.571-2.9,15.2-5.131,22.676a63.58,63.58,0,0,1-4.306,10.886,62.172,62.172,0,0,1-6.356,9.817,44.537,44.537,0,0,1-8.1,8.455,46.016,46.016,0,0,1-10.117,5.865,61.042,61.042,0,0,1-11.118,3.505,64.827,64.827,0,0,1-11.561,1.325,47.606,47.606,0,0,1-11.545-1.248,28.549,28.549,0,0,1-10.5-4.779,28.384,28.384,0,0,0,10.572,4.485A47.445,47.445,0,0,0,109.91,453.2a64.241,64.241,0,0,0,11.41-1.534A60.049,60.049,0,0,0,132.208,448a45.475,45.475,0,0,0,9.813-5.85,43.341,43.341,0,0,0,7.791-8.334,60.928,60.928,0,0,0,6.111-9.686,62.048,62.048,0,0,0,4.082-10.691c2.1-7.374,3.4-14.995,4.91-22.573s3.136-15.147,4.7-22.721l2.367-11.358c.179-.946.422-1.894.674-2.842s.461-1.906.765-2.836l.9-2.8c.289-.937.688-1.833,1.026-2.751.664-1.845,1.534-3.6,2.33-5.387.9-1.737,1.754-3.5,2.763-5.173.943-1.715,2.036-3.335,3.082-4.985,1.122-1.6,2.211-3.221,3.422-4.751,9.556-12.38,21.707-22.473,34.812-30.779,3.289-2.072,6.647-4.031,10.093-5.84.864-.448,1.729-.9,2.612-1.32s1.78-.79,2.67-1.187c1.791-.757,3.547-1.6,5.364-2.284,7.2-2.921,14.592-5.266,21.993-7.535,14.85-4.393,29.868-8.108,44.913-11.659l22.577-5.274c7.509-1.809,15.027-3.6,22.418-5.873" fill="#2b2b2b"/>
            </g>
          </g>
        </g>
        <g id="向量圖智慧型物件-5" data-name="向量圖智慧型物件" transform="translate(1619 2450)">
          <g id="Group_862" data-name="Group 862">
            <g id="Group_861" data-name="Group 861" clip-path="url(#clip-path-6)">
              <path id="Path_22093" data-name="Path 22093" d="M387.123,274.769c2.929,3.9,6.063,8.07,8.423,14.364,6.764,18.051,3.566,43.982-9.368,53.157-18.832,13.359-40.974-21.1-90.919-20.6-49.463.49-83.049,26.147-83.049,26.147-14.856,11.4-30.127,29.28-46.643,25.7-1.684-.364-8.618-2.087-9.575-6.263-1.658-7.222,16.244-14.378,14.959-19.091-2.109-7.744-52.48,4.119-55.707-4.805-1.877-5.182,12.513-16.392,26.543-21.878,24.568-9.6,47.907-1.6,56.379,1.79-18.653-8.552-39.958-20.1-38.221-28.7.8-3.961,6.224-5.942,8.771-6.876,22.937-8.39,51.079,13,51.786,11.787.882-1.507-46.823-27.011-43.513-36.686,1.108-3.241,7.59-3.713,11.611-4,16.752-1.215,27.464,7.562,49.958,18.635,16.8,8.265,31.246,13.421,31.9,12.19,1.252-2.381-50.155-26.1-46.48-39.785,1.38-5.132,9.957-6.836,11.066-7.043,16.885-3.151,28.1,14,49.806,25.907,26.634,14.6,57.987,14.8,59.641,10.144,2.149-6.06-41.049-33.938-92.093-43.973-46.006-9.044-87.92-1.536-101.936,1.093-47.38,8.9-81.1,27.289-92.094,13.833-2.548-3.119-4.407-8.62-2.564-12.586,4.852-10.434,33.574-6.317,33.744-8.588.162-2.147-25.768-3.006-26.888-9.861-.681-4.183,7.876-10.493,16.838-12.18,18.423-3.462,35.514,13.206,36.97,11.286,1.7-2.244-24.714-21.1-20.806-29.946,1.708-3.864,8.491-4.2,9.394-4.25,7.318-.366,11.571,4.479,27.544,17.155,15.012,11.907,16.108,11.479,16.343,11.258,1.073-1.025-4.416-8.78-8.605-13.927C129.676,185.088,121.508,181.624,122.56,178c1.023-3.526,10.306-5.643,18.677-3.65,13.667,3.251,14.347,14.937,33.793,27.791,4.925,3.259,10.085,6.6,17.617,8.452,12.11,2.972,22.269.129,26.81-1.125-11.252-7.184-23.7-16.089-47.565-31.241-31.087-19.733-46.791-29.621-54.762-30.66-40.956-5.329-67.4-6.669-67.4-6.669-2.226-.114-8.525-.412-10.03-3.85-1.921-4.389,5.137-11.26,5.5-11.608,11.314-10.8,31.382-9.136,39.406-8.468,8.675.72,15.059,2.494,15.759.732.583-1.462-3.225-4.263-8.33-7.853C77.534,99.641,70.282,94.537,65.719,92.321,38.165,78.94,20.509,89.8,11.2,76.662,7.643,71.638,6.025,64.116,8.979,59.6c4.046-6.183,15.494-4.942,20.313-4.42,18.47,2,30.994,13.2,31.278,12.78.311-.461-13.8-15.258-38.213-29.1-5.989-3.4-13.428-7.208-18.272-15.745C3.109,21.4-2.812,10.958,1.638,4.874,5.879-.928,16.776,1.014,18.371,1.3,29.814,3.334,36.806,11.667,46.536,23.6c21.4,26.258,31.848,39.87,33.967,38.712,3.08-1.684-16.742-31.625-6.341-44.6,4.108-5.126,12.669-7.273,17.888-4.474,6.864,3.68,4.024,13.8,8.18,34.126a132.277,132.277,0,0,0,17.3,42.807c7.011,10.956,17.811,23.593,20.975,21.865,3.83-2.09-9.325-22.089-8.615-51.921.409-17.143,5.471-40.854,15.452-42.525,6.848-1.144,13.754,8.589,15.931,11.655,18.449,25.978.651,51.792,13.168,85.564,3.73,10.072,10.388,17.912,23.559,33.641,26.869,32.1,60.818,57.367,64.381,53.9,2.356-2.29-7.005-18.635-19.665-29.415-3.917-3.331-4.887-5.106-13.431-10.516-4.405-2.785-13.875-8.352-16.564-18.594-1.719-6.544-.735-15.258,3.39-17.051,8.111-3.526,26.225,20.669,26.514,20.4s-17.108-22.6-31.542-44.3c-5.23-7.861-10.981-17-7.571-23.632a10.139,10.139,0,0,1,7.415-5.386c11.042-1.252,22.611,21.909,24.039,24.93-.832-1.833-5.562-12-18.507-31.153-6.875-10.172-11.425-16.016-9.5-22.406,1.18-3.919,4.847-8.206,8.909-8.368,10.242-.4,18.454,25.647,20.55,24.869,2.627-.97-16.812-39.576-3.075-54.928,4.8-5.368,14.44-8.758,19.475-5.6,3.735,2.351,4.214,7.847,4.378,10.088,2,27.283-2.458,91.818,4.778,129.007.709,3.645,12.519,60.614,52.9,85.375.842.517,13.7,8.381,31.156,18.442,20.073,11.569,31.1,17.326,41.1,30.637" fill="#ead065"/>
            </g>
          </g>
        </g>
      </g>
    </g>
  </g>
</svg>
