<svg id="sharrrk" xmlns="http://www.w3.org/2000/svg" xmlns:xlink="http://www.w3.org/1999/xlink" width="386" height="215" viewBox="0 0 386 215">
  <defs>
    <clipPath id="clip-path">
      <rect id="Rectangle_3318" data-name="Rectangle 3318" width="386" height="215" fill="none"/>
    </clipPath>
  </defs>
  <g id="Group_746" data-name="Group 746">
    <g id="Group_745" data-name="Group 745" clip-path="url(#clip-path)">
      <path id="Path_21713" data-name="Path 21713" d="M126.39,9.5c1.353-.435,4.064.456,4.878,1.168a8.793,8.793,0,0,1,1.857,2.206c1.868,3.183,1.535,5.51,1.833,7.747a23.609,23.609,0,0,1,.239,4.245c-.083,2.206,2.891,6.967.878,7.682-2.125.757-5.312-3.467-5.809-4.06a21.244,21.244,0,0,1-5.008-14.112c.06-1.406-.573-4.327,1.133-4.876" fill="#417991"/>
      <path id="Path_21714" data-name="Path 21714" d="M94.3,42.189c1.936-2.722,4.968-3.679,6.583-4.189a17.765,17.765,0,0,1,11.834.6,146.926,146.926,0,0,1,20.242,12.945c2.4,1.846,4,3.207,6.308,3.113,5.342-.218,6.454-7.885,14.036-16.342A50.507,50.507,0,0,1,175,24.773c1.156-.346,15-4.4,17.173-.522,2.187,3.9-10.49,10.311-16.622,27.156-1.717,4.718-4.379,12.329-2.032,20.543,2.259,7.9,8.007,12.4,15.048,17.754,22.229,16.9,33.344,25.344,38.481,28.026,11.862,6.193,32.419,15.036,39.56,20.552.5.387,3.408,2.169,7.037,5.024a22.288,22.288,0,0,0,6.571,4c9.944,3.659,19.391-2.145,36.6-10.561,9.867-4.824,20.046-9,30.04-13.554,9.434-4.3,34.059-15.48,35-13.728.351.651-3,2.275-5.715,7.35-1.055,1.974-2.457,4.595-2.111,7.747.428,3.9,3.22,5.852,2.634,6.6-.757.972-5.707-3.613-11.119-4.029-6.4-.491-8.144,6.074-21.343,15.722-4.225,3.09-3.632,2.15-11.265,7.4-8.471,5.822-12.706,8.733-16.37,12.292-2.4,2.334-9.985,9.851-13.582,20.893-4.951,15.2.7,27.767-1.544,28.395-2.766.773-11.492-19.524-12.958-22.934-5.883-13.683-5.593-16.693-9.951-19.768-3.622-2.557-5.56-1.7-22.561-4.392-4.756-.751-9.533-1.507-15.859-2.809-.129-.027-9.109-1.029-27.069-3.029-.934-.1-2.959-.331-4.016.837-2.029,2.241,1.181,7.756.418,8.144-.805.411-3.625-6.141-9.544-8.986a45.174,45.174,0,0,0-4.634-1.717c-3.712-1.264-4.408-1.237-5-.962-1.363.626-.994,1.983-2.7,3.8-.235.251-2.567,2.734-4.331,2.276-2.366-.615-1.166-5.859-4.107-9.243-2.864-3.3-7.972-2.958-11.279-2.981-6-.042-14.672-1.364-25.976-7.245A68.086,68.086,0,0,1,125.5,120.293c-3.07-6.948-1.9-7.648-5.116-16.133-4.537-11.956-11.067-21.628-17.9-31.754-3.147-4.66-6.673-9.559-8.7-17.158-2.252-8.451-.395-11.785.512-13.059" fill="#417991"/>
      <path id="Path_21715" data-name="Path 21715" d="M252.923,133.321c3.239-2.228,7.506-5.078,11.978-4.019,7.039,1.668-.285,6.559-1.361,11.015" fill="#417991"/>
      <path id="Path_21716" data-name="Path 21716" d="M246.9,160.364c-1.187,4.36-.255,8.3,1.351,12.449-6.27-.468-13.677-9.873-13.478-15.938" fill="#417991"/>
      <path id="Path_21717" data-name="Path 21717" d="M96.767,123.33c-.237,1.789-4.105,1.59-12.047,4.706-4.86,1.908-8.31,3.9-13.969,7.181-5.378,3.115-8.076,4.657-10.094,6.355-6.022,5.064-9.183,10.694-11.206,9.811-.388-.169-.6-.52-.844-1.074-1.432-3.271-.511-6.571.388-12.741.948-6.505,1.976-9.225,2.413-10.31,1.074-2.668,1.469-2.644,2.608-5.676,1.507-4.013,1.176-5.013,2.678-8.324a34.25,34.25,0,0,1,3.142-5.339,26.343,26.343,0,0,1,4.872-5.758c2.67-2.272,3.862-2.163,4.3-2.079a3.941,3.941,0,0,1,2.353,1.908c1.409,2.187,4.918,5.5,11.936,12.122a61.688,61.688,0,0,0,9.613,6.323c2.526,1.418,3.977,2.007,3.858,2.9" fill="#417991"/>
      <path id="Path_21718" data-name="Path 21718" d="M114.341,132.165c-7.793-3.033-34.058-17.873-54.427-46.132C47.814,69.245,41.61,60.91,38.79,53.164,36.947,48.1,35.541,42.6,30.6,40.19c-6.977-3.411-14.142-.382-20.935-4.969-2.452-1.655-3.233-4.179-5.164-6.68-2.071-2.684-4-4.766-2.552-10.567.955-3.823,4.583-5.435,6.6-6.5.736-.388,2.766-1.4,7.508-2.176,6.6-1.086,7.331.1,12.931-.773,5.848-.915,6.1-2.375,10.865-2.4,3.843-.023,4.183.924,7.707.68,3.392-.234,4.092-1.181,9.745-2.949,5.383-1.684,8.076-2.526,11.333-2.27,4.458.352,4.537,1.4,9.292,2.386,6.33,1.317,7.283-.13,15.184.22,7.123.316,7.39,2.821,13.694,2.222,3.091-.294,4.988-1.082,8.516-.523,1.971.312,4.69.743,6.7,2.492,4.787,4.164.243,10.061,4.551,17.382,2.716,4.614,8.208,5.813,7.836,8.147-.433,2.719-7.855,2.982-10.2,3.347,0,0-10.3.928-17.192-.924a14.682,14.682,0,0,0-1.44-.327,28.252,28.252,0,0,0-3.965-.24c-2.1.13-7.511,2.452-9.7,5.584-6.163,8.8,8.005,31.225,18.2,47.361a69.542,69.542,0,0,1,4.532,8.169c1.7,3.626,2.571,6.324,4.759,12.933,2.5,7.555,3.752,11.331,3.853,11.572,5.072,12.054,14.271,18.266,13.333,19.354-.238.275-.934.061-6.871-2.643-7.812-3.56-12.634-4.863-15.377-5.931" fill="#f7e2c4"/>
      <path id="Path_21719" data-name="Path 21719" d="M44.362,35.864A9.189,9.189,0,0,1,46.538,30.6a20.779,20.779,0,0,1,4.254-3.943A15.782,15.782,0,0,1,56.24,24.38a21.533,21.533,0,0,1,5.854-.4,23.835,23.835,0,0,1,11,3.553,15.322,15.322,0,0,1,4.279,3.947,10.468,10.468,0,0,1,1.868,5.385,11.717,11.717,0,0,0-2.6-4.8A16.377,16.377,0,0,0,72.3,28.889a26.654,26.654,0,0,0-10.348-2.844,20.736,20.736,0,0,0-5.327.271,15.742,15.742,0,0,0-4.983,1.731,20.633,20.633,0,0,0-2.25,1.5,20.2,20.2,0,0,0-2.1,1.748,10.164,10.164,0,0,0-2.937,4.573" fill="#2b2b2b"/>
      <path id="Path_21720" data-name="Path 21720" d="M150.741,130.289c9.066,12.417,6.435,14.122,14.92,23.806,3.459,3.949,7.35,7.607,12.533,14.854a114.829,114.829,0,0,1,6.4,9.987c-1.873-.325-4.571-.144-7.672-1.279-6.566-2.4-12.409-6.587-20.871-15.944-10.8-11.938-16.195-17.908-22.661-28.106-3.773-5.952-12.722-20.068-9.427-23.276a2.329,2.329,0,0,1,1.072-.56c5.724-1.556,16.666,8.131,25.712,20.518" fill="#417991"/>
      <path id="Path_21721" data-name="Path 21721" d="M106.992,36.435a15.537,15.537,0,0,0-8.2.979A13.19,13.19,0,0,0,92.877,42.7a16.775,16.775,0,0,0-1.818,3.723,10.618,10.618,0,0,0-.66,4.12c.136,2.84,1.417,5.5,2.768,8.01l4.206,7.523c1.45,2.449,3.048,4.864,4.526,7.34,2.941,4.969,5.805,9.989,8.3,15.246l-.175.111a166.788,166.788,0,0,1-10.009-14.2c-1.533-2.457-2.979-4.957-4.349-7.553a85.175,85.175,0,0,1-3.53-7.99,33.33,33.33,0,0,1-2.408-8.439,16.341,16.341,0,0,1,1.651-8.75,12.057,12.057,0,0,1,6.84-5.924,12.536,12.536,0,0,1,8.828.322Z" fill="#2b2b2b"/>
      <path id="Path_21722" data-name="Path 21722" d="M190.707,22.094A3.389,3.389,0,0,0,188.362,21a13.992,13.992,0,0,0-2.718,0,43.107,43.107,0,0,0-5.468.881c-1.819.375-3.625.847-5.429,1.308s-3.586.937-5.357,1.534a32.3,32.3,0,0,0-9.859,5.3,44.647,44.647,0,0,0-4.181,3.74,42.472,42.472,0,0,0-3.7,4.123,96.872,96.872,0,0,0-6.2,9.3,19.135,19.135,0,0,1-3.729,4.634,6.008,6.008,0,0,1-2.965,1.323,4.454,4.454,0,0,1-1.676-.045,6.338,6.338,0,0,1-1.466-.592,34.815,34.815,0,0,1-4.677-3.369c-1.535-1.107-3.035-2.25-4.58-3.329-3.087-2.165-6.3-4.15-9.533-6.1l.106-.179c3.26,1.908,6.5,3.855,9.628,5.987,1.563,1.064,3.084,2.191,4.626,3.273a19.927,19.927,0,0,0,2.442,1.413,24.093,24.093,0,0,0,2.5,1.176,5.111,5.111,0,0,0,1.209.316,3.62,3.62,0,0,0,1.137-.125,4.4,4.4,0,0,0,2.043-1.164,21.2,21.2,0,0,0,3.092-4.362c.938-1.62,1.94-3.253,3.028-4.834a51.571,51.571,0,0,1,3.551-4.556,40.741,40.741,0,0,1,8.87-7.3c3.2-2.075,6.465-3.978,9.866-5.753a39.476,39.476,0,0,1,5.337-2.175,47.372,47.372,0,0,1,5.6-1.267,29.76,29.76,0,0,1,5.769-.409,11.373,11.373,0,0,1,2.913.464,3.551,3.551,0,0,1,2.35,1.774Z" fill="#2b2b2b"/>
      <path id="Path_21723" data-name="Path 21723" d="M163.808,148.7c1.878.246,3.747.449,5.614.555l2.819.127a6.734,6.734,0,0,1,3.053.706,6.032,6.032,0,0,1,2.294,2.271c.518.888.924,1.7,1.351,2.607.859,1.772,1.233,3.735,2.183,4.925.129.145.253.295.4.431a1.264,1.264,0,0,0,.359.284,1.373,1.373,0,0,0,.916.14,5.7,5.7,0,0,0,2.237-1.108,8.136,8.136,0,0,0,1.891-1.875,9.781,9.781,0,0,0,.662-1.2,3.161,3.161,0,0,1,.962-1.246,2.1,2.1,0,0,1,.354-.208.763.763,0,0,1,.253-.089.931.931,0,0,1,.284,0,2.835,2.835,0,0,1,.753.293l1.251.678a19.923,19.923,0,0,0,2.551,1.139c.855.324,1.8.551,2.7.942a20.249,20.249,0,0,1,2.562,1.351,9.536,9.536,0,0,0,1.221.592c.448.2.885.419,1.318.653a17.985,17.985,0,0,1,2.457,1.616,29.467,29.467,0,0,1,4.189,4.033c.314.353.626.71.925,1.018a3.04,3.04,0,0,0,.389.359c.008.026.107.005-.232-.058a.842.842,0,0,0-.655.269.76.76,0,0,0-.2.378c-.011.1-.006.026-.022-.036l-.06-.257-.191-.625L207.953,166a12.448,12.448,0,0,1-.622-3.017,5.635,5.635,0,0,1,.154-1.758,3.474,3.474,0,0,1,1.035-1.73,4.92,4.92,0,0,1,3.388-1.072,7.683,7.683,0,0,1,1.619.193l1.367.316c1.826.412,3.663.775,5.516,1.155,1.847.361,3.72.826,5.535,1.241s3.678.711,5.557.938l-.006.208a34.951,34.951,0,0,1-5.715-.108l-5.63-.666c-1.876-.219-3.765-.471-5.645-.794l-1.408-.25a5.563,5.563,0,0,0-1.192-.1,2.842,2.842,0,0,0-1.9.58,2.13,2.13,0,0,0-.473,1.729,13.222,13.222,0,0,0,.488,2.531l.387,1.353.195.739c.029.136.059.276.083.437a2.218,2.218,0,0,1,.008.668,1.313,1.313,0,0,1-.328.7,1.222,1.222,0,0,1-.973.382,1.546,1.546,0,0,1-.863-.358,4.953,4.953,0,0,1-.637-.617c-.343-.385-.639-.752-.94-1.116a35.162,35.162,0,0,0-3.753-4.032,25.363,25.363,0,0,0-2.148-1.678c-.377-.253-.761-.5-1.157-.722a10.667,10.667,0,0,1-1.258-.774,19.3,19.3,0,0,0-2.329-1.5,25.515,25.515,0,0,0-2.579-1.093c-.882-.375-1.753-.779-2.59-1.237-.417-.228-.836-.46-1.244-.663a2.372,2.372,0,0,0-.564-.216c-.022.006-.065-.008-.066,0s-.021,0-.077.034a1.409,1.409,0,0,0-.252.157c-.612.454-.774,1.483-1.292,2.347a9.127,9.127,0,0,1-1.88,2.321,6.834,6.834,0,0,1-2.661,1.639,2.957,2.957,0,0,1-1.857-.088,2.8,2.8,0,0,1-.821-.488,4.8,4.8,0,0,1-.611-.561,8.36,8.36,0,0,1-1.549-2.721c-.346-.9-.66-1.759-1.012-2.6-.355-.811-.775-1.7-1.191-2.459a4.43,4.43,0,0,0-1.579-1.77c-1.258-.807-3.353-.722-5.2-1.128a37.214,37.214,0,0,1-5.53-1.45Z" fill="#2b2b2b"/>
      <path id="Path_21724" data-name="Path 21724" d="M100.32,124.848c1.621.875,3.228,1.767,4.858,2.613s3.259,1.689,4.906,2.492l.053.031,7.292,3.369c2.48,1.093,4.888,2.328,7.372,3.255,2.476,1,5.037,1.8,7.6,2.8a15.688,15.688,0,0,1,6.951,4.726,157.293,157.293,0,0,0,10.444,12.4c1.862,1.957,3.681,3.977,5.676,5.776,1.983,1.817,4.1,3.481,6.25,5.115l6.449,4.917c1.08.8,2.151,1.613,3.242,2.333a17.3,17.3,0,0,0,3.432,1.751,24.942,24.942,0,0,0,7.516,1.8,5.541,5.541,0,0,0,1.645-.11.993.993,0,0,0,.187-.073.294.294,0,0,0-.1.15.5.5,0,0,0-.031.165,1.143,1.143,0,0,0-.093-.221,9.987,9.987,0,0,0-1.045-1.455l-1.277-1.552a65.319,65.319,0,0,1-4.927-6.563c-1.528-2.165-3.187-4.31-4.884-6.4L169.3,159c-.816-1-1.773-2.025-2.64-3.057-.892-1.026-1.742-2.09-2.594-3.141s-1.713-2.1-2.549-3.171l.152-.14c1.953,1.882,3.878,3.806,5.779,5.719.955.971,1.926,1.85,2.908,2.877l2.73,3.027c1.824,2.019,3.573,4.091,5.239,6.3a76.168,76.168,0,0,0,4.976,6.308l1.335,1.56a11.567,11.567,0,0,1,1.3,1.856,3.241,3.241,0,0,1,.275.723,1.842,1.842,0,0,1-.839,2.059,3.023,3.023,0,0,1-.743.324,7.475,7.475,0,0,1-2.385.192,26.458,26.458,0,0,1-8.17-2.132c-.648-.277-1.271-.565-1.913-.9a17.833,17.833,0,0,1-1.827-1.125c-1.151-.8-2.223-1.647-3.277-2.512-2.1-1.736-4.184-3.447-6.237-5.23s-4.091-3.6-6.006-5.541-3.647-4.033-5.5-6.016c-3.622-4.042-7.316-7.985-10.929-12.075a11.157,11.157,0,0,0-2.99-2.343,24.778,24.778,0,0,0-3.606-1.519c-2.518-.867-5.142-1.656-7.673-2.716-2.575-1.017-4.982-2.278-7.406-3.477-1.21-.611-2.424-1.213-3.623-1.849l-1.8-.952-.9-.484-.954-.529.052.031c-1.594-.935-3.18-1.884-4.721-2.9s-3.078-2.038-4.56-3.137Z" fill="#2b2b2b"/>
      <path id="Path_21725" data-name="Path 21725" d="M121.721,36.159a47.215,47.215,0,0,0,6.671-.1,15.845,15.845,0,0,0,3.249-.605,4.572,4.572,0,0,0,1.429-.7,1.087,1.087,0,0,0,.452-1.248,3.484,3.484,0,0,0-1-1.185c-.417-.357-.857-.7-1.294-1.049a25.7,25.7,0,0,1-2.522-2.25,16.367,16.367,0,0,1-3.608-5.731,19.737,19.737,0,0,1-.977-6.708,27.166,27.166,0,0,0-.171-3.3,8.263,8.263,0,0,0-1-3.007l-.434-.664c-.159-.212-.346-.4-.516-.608a6.067,6.067,0,0,0-1.156-1.065,7.568,7.568,0,0,0-2.9-1.2c-.525-.107-1.061-.174-1.612-.232-.538-.043-1.175-.149-1.681-.235a13.153,13.153,0,0,0-3.216-.135c-2.131.164-4.286.955-6.622,1.061a15.342,15.342,0,0,1-3.457-.2,9.563,9.563,0,0,1-1.725-.393c-.59-.2-1.07-.446-1.57-.625a30.679,30.679,0,0,0-3.155-.9c-1.079-.271-2.153-.53-3.226-.724a19.862,19.862,0,0,0-6.48-.121,49.44,49.44,0,0,1-6.76.449,14.287,14.287,0,0,1-3.489-.368c-1.178-.305-2.188-.765-3.22-1.094-4.148-1.293-8.584-2.141-12.773-1.23a13.967,13.967,0,0,0-3.007.958c-.957.417-1.8,1.019-2.86,1.614a9,9,0,0,1-3.516,1.068,8.5,8.5,0,0,1-3.684-.35,12.542,12.542,0,0,0-3.033-.856,13.377,13.377,0,0,0-3.11.057,26.607,26.607,0,0,0-6.218,1.651c-1.026.378-1.933.851-3.06,1.319a15.309,15.309,0,0,1-3.453.958,15.377,15.377,0,0,1-3.565.116q-1.645-.1-3.285-.122a25.494,25.494,0,0,0-6.4.569,39.381,39.381,0,0,0-6.229,1.885A9.325,9.325,0,0,0,2.819,14.5a9.3,9.3,0,0,0-.873,5.923A24.5,24.5,0,0,0,6.353,32.461a12.633,12.633,0,0,0,4.793,4.092,10.957,10.957,0,0,0,3.049.892,29.5,29.5,0,0,0,3.279.228c2.241.092,4.469.232,6.713.491a25.858,25.858,0,0,1,6.451,1.928l-.066.2A27.768,27.768,0,0,0,24.12,38.76c-2.2-.138-4.44-.164-6.663-.139a16.149,16.149,0,0,1-6.792-.968,13.94,13.94,0,0,1-5.456-4.307A25.238,25.238,0,0,1,.17,20.638a15.576,15.576,0,0,1-.112-3.549,8.882,8.882,0,0,1,1.091-3.557,11.308,11.308,0,0,1,5.565-4.58,41.248,41.248,0,0,1,6.562-2.035,27.608,27.608,0,0,1,6.9-.665c1.14,0,2.274.065,3.405.141A13.123,13.123,0,0,0,26.7,6.324a13.262,13.262,0,0,0,2.993-.8c.939-.378,2.026-.92,3.1-1.3a28.531,28.531,0,0,1,6.724-1.674,15.264,15.264,0,0,1,3.57-.006,14.21,14.21,0,0,1,3.385.986,6.657,6.657,0,0,0,2.923.312,7.151,7.151,0,0,0,2.858-.819c.9-.481,1.9-1.162,3-1.625A15.72,15.72,0,0,1,58.621.366,21.3,21.3,0,0,1,65.548.209,37.781,37.781,0,0,1,72.2,1.8c1.09.365,2.12.838,3.106,1.1a12.982,12.982,0,0,0,3.149.36,48.392,48.392,0,0,0,6.6-.365,25.972,25.972,0,0,1,3.423-.176,20.376,20.376,0,0,1,3.427.39c1.122.217,2.216.5,3.3.78a31.474,31.474,0,0,1,3.27.978c.548.2,1.068.468,1.533.632a8.553,8.553,0,0,0,1.531.364,14.214,14.214,0,0,0,3.212.221c2.144-.06,4.271-.814,6.6-.981a14.145,14.145,0,0,1,3.455.2c.592.108,1.055.2,1.63.254.558.067,1.129.145,1.7.272a8.454,8.454,0,0,1,3.222,1.394,6.892,6.892,0,0,1,1.282,1.215c.186.225.385.44.557.677l.471.745a9.056,9.056,0,0,1,1.058,3.321,27.966,27.966,0,0,1,.125,3.394,19.063,19.063,0,0,0,.838,6.507,15.79,15.79,0,0,0,3.4,5.579,25.084,25.084,0,0,0,2.439,2.246c.428.354.866.7,1.291,1.08a3.829,3.829,0,0,1,1.1,1.375,1.5,1.5,0,0,1-.6,1.69,4.908,4.908,0,0,1-1.564.75,16.212,16.212,0,0,1-3.331.569,47.631,47.631,0,0,1-6.71,0Z" fill="#2b2b2b"/>
      <path id="Path_21726" data-name="Path 21726" d="M32.73,42.853a18.2,18.2,0,0,1,4.165,7.319c.365,1.368.7,2.7,1.18,4a38.094,38.094,0,0,0,1.637,3.81c.605,1.242,1.27,2.458,1.983,3.644s1.491,2.33,2.241,3.531,1.536,2.359,2.245,3.586c.724,1.247,1.33,2.466,2.094,3.573s1.655,2.144,2.552,3.225,1.8,2.141,2.7,3.253L56.108,82.1l2.515,3.352c1.655,2.255,3.229,4.569,4.939,6.744s3.486,4.34,5.312,6.476l-.143.15a57.736,57.736,0,0,1-6.272-5.671c-1.985-2.033-3.7-4.256-5.474-6.426L54.4,83.408,51.89,80.035c-.8-1.111-1.653-2.236-2.5-3.344s-1.733-2.223-2.508-3.471c-.783-1.231-1.38-2.55-2.017-3.746-.648-1.223-1.389-2.406-2.081-3.612s-1.442-2.4-2.125-3.641-1.318-2.508-1.891-3.8a38.938,38.938,0,0,1-1.483-3.984c-.421-1.355-.706-2.755-1-4.11a17.784,17.784,0,0,0-3.72-7.337Z" fill="#2b2b2b"/>
      <path id="Path_21727" data-name="Path 21727" d="M254.326,129.833c-11.813-5.406-23.495-11.289-34.347-18.553-5.468-3.545-10.763-7.331-16.083-11.074L188.005,88.893a84.562,84.562,0,0,1-7.745-6.1,29.989,29.989,0,0,1-6.267-7.828,24.64,24.64,0,0,1-2.825-9.662,29.844,29.844,0,0,1,1-9.941,64.308,64.308,0,0,1,3.339-9.293,51.976,51.976,0,0,1,4.931-8.529,78.67,78.67,0,0,1,6.277-7.525c1.1-1.2,2.226-2.373,3.257-3.617a11.3,11.3,0,0,0,1.385-1.973,3.683,3.683,0,0,0,.389-1.13,2.154,2.154,0,0,0-.2-1.174,2.188,2.188,0,0,1,.278,1.181,3.77,3.77,0,0,1-.326,1.19,11.556,11.556,0,0,1-1.279,2.1c-.98,1.312-2.053,2.537-3.091,3.786a77.818,77.818,0,0,0-5.851,7.738,51.843,51.843,0,0,0-4.572,8.48,63.044,63.044,0,0,0-2.989,9.147,31.142,31.142,0,0,0-.765,9.41,22.816,22.816,0,0,0,2.7,8.909,28.1,28.1,0,0,0,5.943,7.266,84.7,84.7,0,0,0,7.622,5.887c10.509,7.656,21.012,15.322,31.65,22.752,5.318,3.724,10.757,7.214,16.418,10.409,5.591,3.307,11.317,6.372,17.042,9.462" fill="#2b2b2b"/>
      <path id="Path_21728" data-name="Path 21728" d="M316.993,134.776c-4.095,2.6-8.107,5.209-12.3,7.656a31.269,31.269,0,0,1-13.842,4.678,26.717,26.717,0,0,1-7.313-.493,23.52,23.52,0,0,1-7.017-2.392,28.6,28.6,0,0,1-3.076-2.074c-.964-.715-1.922-1.428-2.9-2.11-1.951-1.378-3.967-2.637-6-3.869l-.96-.581.6-.966a34.832,34.832,0,0,0,2.691-4.263,2.063,2.063,0,0,0,.174-.811.819.819,0,0,0-.28-.549,4.987,4.987,0,0,0-1.952-.936,9.269,9.269,0,0,0-4.845.018,24.876,24.876,0,0,0-4.831,1.911l-.112-.174a18.151,18.151,0,0,1,4.607-2.78,9.909,9.909,0,0,1,5.568-.632,6.18,6.18,0,0,1,2.838,1.168,2.813,2.813,0,0,1,.985,1.7,3.854,3.854,0,0,1-.193,1.783,12.8,12.8,0,0,1-1.342,2.565l-1.44,2.192-.366-1.548a60.79,60.79,0,0,1,6.045,4.162c.967.744,1.924,1.5,2.853,2.282s1.816,1.535,2.768,2.2a20.545,20.545,0,0,0,6.373,2.943,17.493,17.493,0,0,0,7.057.533c4.755-.692,8.785-3.371,13.029-5.549a91.374,91.374,0,0,1,13.1-6.248Z" fill="#2b2b2b"/>
      <path id="Path_21729" data-name="Path 21729" d="M320.6,132.457a29.2,29.2,0,0,1,2.425-1.862,16.433,16.433,0,0,1,2.605-1.643c1.775-1,3.639-1.864,5.467-2.733l5.46-2.689c1.822-.911,3.758-1.7,5.633-2.429.937-.377,1.863-.761,2.761-1.185.448-.213.891-.434,1.323-.669.454-.246.92-.486,1.385-.712,1.868-.9,3.77-1.619,5.6-2.442,3.784-1.658,7.629-2.916,11.416-4.4,1.926-.712,3.885-1.355,5.878-1.886s4.065-.88,6.021-1.244a43.782,43.782,0,0,1,6.143-.895c.528-.031,1.06-.029,1.591-.018l.41,0a1.34,1.34,0,0,1,.922.422,1.438,1.438,0,0,1,.247.392,1.375,1.375,0,0,1,.112.5,1.4,1.4,0,0,1-.3.877,2.873,2.873,0,0,1-.818.677l-.3.18-.342.218c-.458.285-.922.534-1.372.774a17.394,17.394,0,0,0-2.518,1.524,16.672,16.672,0,0,0-2.254,1.854,11.327,11.327,0,0,0-1.678,2.341A20.649,20.649,0,0,0,375,120.006a4.994,4.994,0,0,0-.258,2.722c.066.481.167.971.261,1.479l.129.772a5.948,5.948,0,0,0,.138.693,21.608,21.608,0,0,1,.822,2.987,10.439,10.439,0,0,1-.063,3.172l-.048.26-.255.049a5.745,5.745,0,0,1-2.877-.489,8.973,8.973,0,0,1-2.594-1.15,8.434,8.434,0,0,0-4.96-1.7,4.086,4.086,0,0,0-1.278.089,12.006,12.006,0,0,0-1.184.578c-.4.212-.8.432-1.175.67a3.428,3.428,0,0,0-.977.8,6.839,6.839,0,0,1-.463.555c-.182.182-.376.33-.548.471-.327.268-.664.6-.989.916l-1.965,1.941c-.643.613-1.22,1.332-1.907,1.992-.724.595-1.208,1.282-1.939,1.978-.723.64-1.474,1.167-2.19,1.727s-1.391,1.173-2.09,1.765c-1.39,1.2-2.761,2.41-4.074,3.675-.66.618-1.269,1.309-2.031,1.932a23.2,23.2,0,0,1-2.307,1.645l-2.324,1.47a27.824,27.824,0,0,1-2.465,1.382,17.445,17.445,0,0,0-2.263,1.379c-.74.52-1.472,1.066-2.21,1.614s-1.482,1.1-2.249,1.638-1.6,1.049-2.354,1.518a8.813,8.813,0,0,0-1.034.746,12.736,12.736,0,0,1-1.177.861,21.773,21.773,0,0,0-2.091,1.608c-.675.581-1.332,1.2-1.988,1.832l-.972.948c-.288.291-.578.623-.863.964-1.157,1.379-2.188,2.868-3.489,4.333a38.723,38.723,0,0,0-3.56,4.028,13.633,13.633,0,0,0-1.283,2.218c-.074.165-.191.447-.33.7a6.889,6.889,0,0,1-.436.687c-.3.423-.606.779-.861,1.118a21.008,21.008,0,0,0-1.414,2.209,19.129,19.129,0,0,0-1.206,2.332,17.981,17.981,0,0,0-1.364,5,20.963,20.963,0,0,0-.145,2.626l-.055,2.784c-.052,1.84-.109,3.657-.035,5.444.056,1.768.354,3.555.5,5.46.134,1.956.036,3.754.06,5.6l-.007.684c0,.176.011.393.025.622a7.493,7.493,0,0,1-.023,1.6,2.45,2.45,0,0,1-.418,1.066,2.28,2.28,0,0,1-.942.752,3.3,3.3,0,0,1-1.938.166,2.972,2.972,0,0,1-.944-.351,4.246,4.246,0,0,1-.712-.532,9.037,9.037,0,0,1-1.03-1.148,11.1,11.1,0,0,1-1.492-2.588c-1.354-3.476-2.739-6.811-4.249-10.171-.775-1.65-1.464-3.415-2.25-5a47.432,47.432,0,0,0-2.911-4.6,40.909,40.909,0,0,1-4.409-10.226l-.895-2.6c-.321-.888-.518-1.792-.808-2.647a11.746,11.746,0,0,0-2.92-4.533l.146-.148A12.1,12.1,0,0,1,282,174.912c.341.874.578,1.763.924,2.592l1.04,2.565c1.342,3.428,2.612,6.87,4.72,9.8a48.439,48.439,0,0,1,3.152,4.614c.9,1.688,1.629,3.325,2.443,4.991,1.582,3.318,3.093,6.748,4.484,10.1a9.239,9.239,0,0,0,1.3,2.151c.531.663,1.151,1.273,1.566,1.287a1.372,1.372,0,0,0,.768-.059c.148-.108.118-.034.179-.311a5.941,5.941,0,0,0-.027-1.152c-.018-.23-.039-.472-.045-.756l-.008-.7c-.031-1.834.051-3.721-.08-5.437-.138-1.762-.454-3.615-.527-5.528-.086-1.891-.034-3.755.007-5.592l.041-2.735a23.206,23.206,0,0,1,.148-2.881,20.04,20.04,0,0,1,1.507-5.618,21.722,21.722,0,0,1,1.354-2.551,23.149,23.149,0,0,1,1.594-2.413c.3-.39.6-.733.836-1.054a4.775,4.775,0,0,0,.31-.472c.088-.154.148-.3.265-.549a15.668,15.668,0,0,1,1.5-2.534,39.689,39.689,0,0,1,3.78-4.192c1.159-1.272,2.252-2.8,3.472-4.226.308-.361.626-.72.987-1.079l1.015-.965c.676-.634,1.366-1.269,2.092-1.879a21.534,21.534,0,0,1,2.312-1.708,10.718,10.718,0,0,0,1.065-.743,10.621,10.621,0,0,1,1.22-.838c.817-.483,1.565-.906,2.312-1.418s1.5-1.029,2.245-1.56,1.505-1.068,2.281-1.587a17.37,17.37,0,0,1,2.481-1.421,26.78,26.78,0,0,0,2.386-1.235l2.385-1.4a22.143,22.143,0,0,0,2.234-1.478c.683-.518,1.322-1.188,2.024-1.8,1.372-1.245,2.795-2.43,4.223-3.591.722-.575,1.413-1.168,2.176-1.73s1.517-1.063,2.188-1.624c.625-.546,1.247-1.352,1.955-1.924.648-.605,1.235-1.319,1.928-1.97l1.979-1.915c.342-.322.658-.635,1.044-.947a4.007,4.007,0,0,0,.927-.922,4.129,4.129,0,0,1,1.146-.933c.4-.247.813-.471,1.225-.683a11.593,11.593,0,0,1,1.3-.609,5.155,5.155,0,0,1,1.46-.116,9.1,9.1,0,0,1,5.331,1.723,8.167,8.167,0,0,0,2.443,1.039,5.183,5.183,0,0,0,2.49.435l-.3.308a9.62,9.62,0,0,0,.013-2.9,21.781,21.781,0,0,0-.9-2.852,6.872,6.872,0,0,1-.189-.795l-.147-.727c-.108-.489-.231-.99-.322-1.514a6.131,6.131,0,0,1,.208-3.283,21.234,21.234,0,0,1,1.4-2.809,12.618,12.618,0,0,1,1.781-2.657,17.842,17.842,0,0,1,2.374-2.1,18.972,18.972,0,0,1,2.632-1.722c.436-.252.86-.5,1.255-.765l.641-.429a1.447,1.447,0,0,0,.353-.283.279.279,0,0,0-.046.176.312.312,0,0,0,.026.135.22.22,0,0,0,.046.072.464.464,0,0,0,.238.137l-.352,0c-.483,0-.967,0-1.453.033a42.132,42.132,0,0,0-5.89.93,71.9,71.9,0,0,0-11.638,3.047c-3.8,1.428-7.7,2.652-11.379,4.21-1.886.808-3.79,1.519-5.6,2.337-.455.2-.9.415-1.347.638-.469.235-.942.452-1.418.659-.953.413-1.917.776-2.877,1.124-1.931.683-3.787,1.365-5.63,2.21-1.845.819-3.68,1.718-5.573,2.483s-3.753,1.528-5.567,2.432a17.046,17.046,0,0,0-2.627,1.463,29.525,29.525,0,0,0-2.528,1.68Z" fill="#2b2b2b"/>
      <path id="Path_21730" data-name="Path 21730" d="M233.8,161l-.157-.008.125-.2c.985,1.012,1.566,2.249,2.432,3.211a23.465,23.465,0,0,0,2.613,2.871c.946.806,2.051,1.547,3.148,2.324a19.71,19.71,0,0,1,3.154,2.66,10.3,10.3,0,0,0,1.368,1.242c.492.354,1.1.627,1.736,1.089.588.479.775.577.9.293a2.846,2.846,0,0,0,.059-.86,3.629,3.629,0,0,0-.19-.91c-.207-.61-.479-1.216-.762-1.843-.261-.611-.547-1.207-.865-1.8s-.621-1.208-.9-1.848a17.449,17.449,0,0,1-.72-1.97,2.037,2.037,0,0,1,.03-1.4,1.8,1.8,0,0,1,1.29-.9,6.344,6.344,0,0,1,2.29.052c1.408.238,2.721.724,3.93.97a7.211,7.211,0,0,0,.873.188c.273.028.622.031,1.045.094.478.083.736.168,1.1.258l.974.269a16.729,16.729,0,0,0,1.808.412c.528.08,1.27.087,1.936.165l1.978.208c.331.028.589.04.951.049s.706.042,1.054.075a31.378,31.378,0,0,1,4.072.677,54.134,54.134,0,0,1,7.759,2.419l-.052.2c-2.682-.333-5.338-.724-7.975-1.01-1.318-.138-2.633-.254-3.921-.282l-.957,0c-.311.005-.724.005-1.062-.01l-2.035-.126c-.669-.057-1.274-.071-2.075-.181a12.1,12.1,0,0,1-2.1-.527l-.953-.317c-.286-.091-.668-.216-.849-.254-.239-.052-.563-.076-.956-.136a7.965,7.965,0,0,1-1.084-.279c-1.406-.372-2.594-.9-3.814-1.234a6.016,6.016,0,0,0-1.7-.277,1,1,0,0,0-.378.085c-.055.011-.09.292-.048.579.377,2.535,1.736,4.956,2.756,7.469a4.322,4.322,0,0,1,.312,2.189,1.1,1.1,0,0,1-.405.694,1.213,1.213,0,0,1-.79.231,2.823,2.823,0,0,1-1.155-.468c-.5-.262-1.163-.457-1.831-.779a9.653,9.653,0,0,1-1.8-1.231c-1.023-.9-1.988-1.623-3.078-2.438a26.519,26.519,0,0,1-3.186-2.645,16.616,16.616,0,0,1-2.424-3.4c-.763-1.189-1.089-2.541-1.7-3.7l-.159-.3.284.1.148.053Z" fill="#2b2b2b"/>
      <path id="Path_21731" data-name="Path 21731" d="M67.605,100.238c-.064.112-.115.261-.179.4a1.455,1.455,0,0,1-.124.222l-.152.169-.616.663c-.414.436-.822.861-1.2,1.306a17.887,17.887,0,0,0-1.966,2.866c-.567,1.008-1.047,2.093-1.61,3.177-.547,1.078-1.131,2.131-1.733,3.17-1.183,2.087-2.438,4.114-3.579,6.179l-.838,1.538a9.991,9.991,0,0,0-.587,1.531c-.388,1.185-.892,2.269-1.178,3.316-.647,2.648-2.606,4.343-3.214,6.457-.742,2.3-1.571,4.532-2.2,6.827-.16.567-.278,1.149-.447,1.738a5.513,5.513,0,0,0-.286,1.678l-.012,3.589.019,3.58a1.535,1.535,0,0,0,.629,1.244,5.385,5.385,0,0,0,1.256.965c.8.306,1.851-.229,2.846-.807A6.908,6.908,0,0,0,53.674,149a14.071,14.071,0,0,1,1.4-1.21c.447-.365.882-.749,1.31-1.146l.639-.605c.247-.229.492-.437.736-.634.983-.772,1.969-1.459,2.971-2.124s2-1.318,2.953-1.983l.7-.512.763-.542c.5-.341.972-.661,1.38-1l.654-.577c.249-.212.5-.411.748-.6L69.374,137c.228-.171.445-.346.654-.518a9.208,9.208,0,0,1,.792-.606c.554-.374,1.071-.656,1.487-.955.1-.074.2-.148.3-.225a5.445,5.445,0,0,1,.458-.34,6.716,6.716,0,0,1,.951-.494A5.6,5.6,0,0,0,75.3,133.2a20.062,20.062,0,0,1,3.145-2.1l1.584-.868a12.063,12.063,0,0,1,1.726-.828c1.2-.459,2.366-.734,3.412-1.124.491-.181,1.055-.457,1.649-.671s1.2-.415,1.778-.573c1.067-.318,2.26-.739,3.4-1.055,1.127-.346,2.384-.63,3.367-.986a5.14,5.14,0,0,1,.973-.248,4.271,4.271,0,0,1,.959-.024,12.7,12.7,0,0,0,1.749-.164l.065.2a8.145,8.145,0,0,1-1.716.719,5.773,5.773,0,0,0-.811.234,4.036,4.036,0,0,0-.71.349c-1.225.557-2.29.862-3.414,1.311L89.1,128.651c-.56.188-1.076.383-1.6.616s-1.015.5-1.633.759c-1.175.489-2.33.815-3.342,1.255a12.2,12.2,0,0,0-1.472.774l-1.538.887a18.073,18.073,0,0,0-2.765,1.927A6.525,6.525,0,0,1,74.9,135.9a4.566,4.566,0,0,0-.641.325,2.854,2.854,0,0,0-.259.193c-.138.113-.279.218-.417.316-.559.393-1.094.682-1.529.978a6.8,6.8,0,0,0-.63.481c-.252.207-.51.394-.764.577l-1.467,1.019c-.231.165-.452.331-.663.5l-.311.262c-.131.114-.261.223-.394.325-.527.411-1.056.742-1.55,1.063l-.71.475-.762.526c-1.023.675-2.039,1.294-3.046,1.929s-2.015,1.254-2.94,1.921c-.228.167-.446.335-.646.5l-.691.595c-.466.393-.945.778-1.442,1.146a16.464,16.464,0,0,0-1.379,1.046,8.148,8.148,0,0,1-1.588,1.143,11.075,11.075,0,0,1-1.775.717,3.2,3.2,0,0,1-2.153-.1,6.094,6.094,0,0,1-1.515-1.282,3.658,3.658,0,0,1-.6-.847,2.369,2.369,0,0,1-.183-1.072c.086-1.208.1-2.391.145-3.588l.078-3.581a7.091,7.091,0,0,1,.309-1.842c.152-.561.261-1.154.416-1.74.589-2.329,1.249-4.637,1.776-6.948.585-2.56,2.391-4.419,2.652-6.551.263-1.283.735-2.4,1.05-3.494a11.751,11.751,0,0,1,.686-1.815c.29-.56.574-1.077.882-1.606,1.213-2.092,2.507-4.11,3.792-6.112l1.883-3.018c.613-1,1.163-2.072,1.855-3.1a16.072,16.072,0,0,1,2.339-2.847c.443-.424.906-.817,1.359-1.2l.669-.584a2.747,2.747,0,0,1,.329-.269,2.994,2.994,0,0,1,.413-.271Z" fill="#2b2b2b"/>
      <path id="Path_21732" data-name="Path 21732" d="M123.491,6.823a4.531,4.531,0,0,1,1.812-.39,14.248,14.248,0,0,1,1.812.023c.6.058,1.2.113,1.79.223a9.2,9.2,0,0,1,1.824.482A6.448,6.448,0,0,1,133.84,9.4a7.958,7.958,0,0,1,.873,1.72c.223.576.425,1.152.591,1.736a29.184,29.184,0,0,1,.9,7.114,21.948,21.948,0,0,0,.989,6.515l-1.007-.721a1.1,1.1,0,0,1,.662.24,1.141,1.141,0,0,1,.35.5l.005.016.008.03.017.057.03.111.057.218.1.435q.087.437.15.879a9.42,9.42,0,0,1,.106,1.81,5.162,5.162,0,0,1-.385,1.893,2.57,2.57,0,0,1-.605.875c-.119.108-.239.2-.361.3l-.187.13-.094.061-.049.03-.025.016-.012.008-.007,0-.005,0a.457.457,0,0,1-.076.05.428.428,0,0,1-.18.045l.254-.094a4.237,4.237,0,0,1-1.512.558l-.078-.192a5.773,5.773,0,0,0,1.071-.99l.254-.093a.382.382,0,0,0-.174.04.313.313,0,0,0-.074.049c-.007,0,0,0,0,0l0,0,.007-.009.015-.019.03-.037.059-.079.115-.158a3.417,3.417,0,0,0,.208-.313,1.755,1.755,0,0,0,.18-.581,4.934,4.934,0,0,0-.051-1.407,14.667,14.667,0,0,0-.341-1.49c-.073-.249-.151-.5-.236-.742l-.125-.367-.065-.18-.033-.088-.017-.042-.008-.02,0-.009a1.112,1.112,0,0,0,.346.488,1.075,1.075,0,0,0,.659.228l-1.008-.722a14.579,14.579,0,0,1-.711-7.322c.153-1.19.454-2.32.588-3.457a6.914,6.914,0,0,0-.357-3.35,6.544,6.544,0,0,0-.835-1.465,5.934,5.934,0,0,0-1.107-1.168,17.179,17.179,0,0,0-2.7-1.6c-.488-.213-.988-.427-1.508-.6-.543-.164-1.089-.347-1.641-.5a14.45,14.45,0,0,0-3.332-.713Z" fill="#2b2b2b"/>
      <path id="Path_21733" data-name="Path 21733" d="M119.514,87.679a13.282,13.282,0,0,1,.167,5.282,17.925,17.925,0,0,1-1.568,5.1,14.962,14.962,0,0,1-3.136,4.375,9.349,9.349,0,0,1-4.665,2.555,21.826,21.826,0,0,0,5.936-7.835,41.351,41.351,0,0,0,1.866-4.573c.532-1.58.985-3.189,1.4-4.9" fill="#2b2b2b"/>
      <path id="Path_21734" data-name="Path 21734" d="M124.384,92.976a13.835,13.835,0,0,1,.148,6.219,23.286,23.286,0,0,1-1.957,5.941,26.216,26.216,0,0,1-3.358,5.243,18.4,18.4,0,0,1-4.613,4.132,74.645,74.645,0,0,0,6.1-10.278,38.186,38.186,0,0,0,3.675-11.257" fill="#2b2b2b"/>
      <path id="Path_21735" data-name="Path 21735" d="M129.853,100.048a13.119,13.119,0,0,1,.08,6.569,21.652,21.652,0,0,1-2.471,6.14,33.143,33.143,0,0,1-3.853,5.271,38.35,38.35,0,0,1-4.667,4.5c1.03-1.923,2.221-3.708,3.381-5.481s2.3-3.537,3.347-5.33a37.766,37.766,0,0,0,2.718-5.556,24.781,24.781,0,0,0,1.466-6.111" fill="#2b2b2b"/>
      <path id="Path_21736" data-name="Path 21736" d="M134.655,108.882c-.478,2.133-.961,4.207-1.555,6.284a39.92,39.92,0,0,1-2.219,6.141,20.112,20.112,0,0,1-3.712,5.534,11.868,11.868,0,0,1-5.671,3.378,20.291,20.291,0,0,0,4.439-4.429,33.009,33.009,0,0,0,3.07-5.37c.888-1.889,1.705-3.844,2.579-5.806a33.454,33.454,0,0,1,3.07-5.733" fill="#2b2b2b"/>
      <path id="Path_21737" data-name="Path 21737" d="M136.9,118.011a23.291,23.291,0,0,1-.207,5.211,19.187,19.187,0,0,1-1.438,5.095,12.041,12.041,0,0,1-3.216,4.37,8.758,8.758,0,0,1-4.9,2.071,16.572,16.572,0,0,0,3.758-3.224,17.519,17.519,0,0,0,2.465-4.075c.662-1.471,1.22-3.023,1.759-4.615s1.059-3.224,1.774-4.833" fill="#2b2b2b"/>
      <path id="Path_21738" data-name="Path 21738" d="M130.263,15.236a2.93,2.93,0,1,1-2.925,2.93,2.928,2.928,0,0,1,2.925-2.93" fill="#2b2b2b"/>
      <path id="Path_21739" data-name="Path 21739" d="M44.271,36.09a7.555,7.555,0,0,1,2.936-4.265,22.027,22.027,0,0,1,4.437-2.815A24.431,24.431,0,0,1,61.995,27.2a27.547,27.547,0,0,1,10.373,2,16.3,16.3,0,0,1,4.558,2.876,7.272,7.272,0,0,1,2.4,4.766l-.181.042c-1.269-3.293-4.4-4.79-7.475-5.946a38.267,38.267,0,0,0-9.749-2.25A23.3,23.3,0,0,0,52,29.871a21.381,21.381,0,0,0-4.452,2.4,7.2,7.2,0,0,0-3.094,3.863Z" fill="#2b2b2b"/>
    </g>
  </g>
</svg>
