<svg id="user" xmlns="http://www.w3.org/2000/svg" width="46" height="46" viewBox="0 0 46 46">
  <g id="Group_3" data-name="Group 3">
    <path id="Path_24" data-name="Path 24" d="M23,0A22.988,22.988,0,0,0,5.27,37.634c.008.011.009.026.018.037a22.994,22.994,0,0,0,8.685,6.481l.114.05c.269.113.541.218.814.321.107.041.215.082.324.121q.353.127.711.241c.153.049.305.1.459.143q.316.094.636.181c.187.051.376.1.564.143s.383.092.575.133c.215.046.432.087.649.127.175.032.349.066.525.094.242.039.485.07.728.1.157.02.314.043.472.06.276.029.554.05.833.069.13.009.258.023.389.03Q22.377,46,23,46c.415,0,.826-.012,1.235-.034.13-.007.259-.021.389-.03.279-.02.557-.04.833-.069.158-.017.314-.04.472-.06.244-.031.487-.062.728-.1.176-.028.35-.062.525-.094.217-.04.434-.08.649-.126.192-.041.383-.087.575-.133s.377-.093.564-.143c.213-.057.425-.118.636-.181.154-.046.307-.094.459-.143q.358-.115.711-.241c.108-.039.215-.081.324-.121.274-.1.545-.209.814-.321l.114-.05a23,23,0,0,0,8.685-6.481c.009-.011.01-.026.018-.037A22.99,22.99,0,0,0,23,0Zm9.32,42.335-.034.017c-.274.132-.552.256-.833.377l-.19.081q-.368.154-.744.294c-.1.039-.209.077-.314.114-.222.079-.444.155-.669.227-.14.044-.28.087-.42.128-.2.06-.4.117-.6.171-.17.045-.342.087-.514.127s-.36.087-.541.125c-.2.042-.4.078-.6.114-.162.03-.323.061-.486.087-.225.035-.452.064-.678.092-.143.018-.286.04-.431.055-.258.028-.519.045-.779.064-.116.008-.231.021-.348.027q-.569.03-1.142.031t-1.141-.031c-.117-.006-.232-.018-.348-.027-.261-.018-.521-.036-.779-.064-.145-.015-.287-.037-.431-.055-.226-.028-.453-.057-.678-.092-.163-.026-.324-.057-.486-.087-.2-.036-.4-.073-.6-.114-.182-.038-.362-.082-.541-.125s-.343-.082-.514-.127c-.2-.054-.4-.112-.6-.171-.14-.041-.281-.084-.42-.128q-.337-.108-.669-.227l-.314-.114q-.375-.14-.744-.294l-.189-.08c-.281-.12-.559-.245-.833-.377l-.034-.017a21.571,21.571,0,0,1-6.955-5.362A16.922,16.922,0,0,1,17.8,25.367c.107.065.218.123.327.185.064.036.128.074.193.109.228.121.46.235.7.337.182.08.37.147.557.216l.11.041a9.785,9.785,0,0,0,6.631,0l.11-.041c.187-.069.375-.136.557-.216.237-.1.468-.215.7-.337.065-.035.129-.073.193-.109.11-.061.222-.12.329-.186A16.926,16.926,0,0,1,39.276,36.973,21.592,21.592,0,0,1,32.32,42.335ZM14.567,16.867a8.433,8.433,0,1,1,13.021,7.066,8.121,8.121,0,0,1-.939.525l-.114.055a8.626,8.626,0,0,1-7.069,0l-.114-.055a8.058,8.058,0,0,1-.939-.525A8.428,8.428,0,0,1,14.567,16.867ZM40.426,35.514a18.473,18.473,0,0,0-10.769-11.25,9.967,9.967,0,1,0-13.312,0A18.475,18.475,0,0,0,5.575,35.514,21.461,21.461,0,1,1,44.467,23,21.345,21.345,0,0,1,40.426,35.514Z" fill="#3f5146"/>
  </g>
</svg>
